2, 774, Control_c, 0, 0, 0
2, 774, Control_c, 0, 32, 0
2, 774, Program_c, 0, 81
2, 774, Control_c, 0, 10, 64
2, 774, Control_c, 0, 91, 0
2, 774, Control_c, 0, 93, 0
2, 774, Control_c, 0, 101, 0
2, 774, Control_c, 0, 100, 0
2, 774, Control_c, 0, 6, 24
2, 774, Control_c, 0, 7, 127
2, 774, Pitch_bend_c, 0, 8192
2, 774, Control_c, 0, 10, 64
2, 774, Note_on_c, 0, 31, 93
2, 775, Control_c, 0, 7, 125
2, 775, Control_c, 0, 7, 124
2, 1440, Note_on_c, 0, 33, 93
2, 1443, Note_off_c, 0, 31, 93
2, 1536, Note_off_c, 0, 33, 93
2, 1536, Note_on_c, 0, 35, 93
2, 2208, Note_on_c, 0, 38, 126
2, 2212, Note_off_c, 0, 35, 93
2, 2304, Note_off_c, 0, 38, 126
2, 2304, Note_on_c, 0, 33, 126
2, 2976, Note_on_c, 0, 30, 126
2, 2980, Note_off_c, 0, 33, 126
2, 3072, Note_off_c, 0, 30, 126
2, 3072, Note_on_c, 0, 31, 126
2, 3648, Note_off_c, 0, 31, 126
2, 3648, Note_on_c, 0, 28, 126
2, 3840, Note_off_c, 0, 28, 126
2, 3840, Note_on_c, 0, 31, 93
2, 4512, Note_on_c, 0, 33, 127
2, 4516, Note_off_c, 0, 31, 93
2, 4608, Note_off_c, 0, 33, 127
2, 4608, Note_on_c, 0, 35, 127
2, 5280, Note_on_c, 0, 38, 127
2, 5284, Note_off_c, 0, 35, 127
2, 5376, Note_off_c, 0, 38, 127
2, 5376, Note_on_c, 0, 33, 127
2, 6048, Note_on_c, 0, 30, 127
2, 6052, Note_off_c, 0, 33, 127
2, 6144, Note_off_c, 0, 30, 127
2, 6144, Note_on_c, 0, 31, 127
2, 6720, Note_off_c, 0, 31, 127
2, 6720, Note_on_c, 0, 28, 127
2, 6912, Note_off_c, 0, 28, 127
2, 6912, Note_on_c, 0, 31, 93
2, 7584, Note_on_c, 0, 33, 127
2, 7588, Note_off_c, 0, 31, 93
2, 7680, Note_off_c, 0, 33, 127
2, 7680, Note_on_c, 0, 35, 127
2, 8352, Note_on_c, 0, 38, 127
2, 8356, Note_off_c, 0, 35, 127
2, 8448, Note_off_c, 0, 38, 127
2, 8448, Note_on_c, 0, 33, 127
2, 9120, Note_on_c, 0, 30, 127
2, 9124, Note_off_c, 0, 33, 127
2, 9216, Note_off_c, 0, 30, 127
2, 9216, Note_on_c, 0, 31, 127
2, 9792, Note_off_c, 0, 31, 127
2, 9792, Note_on_c, 0, 28, 127
2, 9984, Note_off_c, 0, 28, 127
2, 9984, Note_on_c, 0, 31, 93
2, 10656, Note_on_c, 0, 33, 127
2, 10660, Note_off_c, 0, 31, 93
2, 10752, Note_off_c, 0, 33, 127
2, 10752, Note_on_c, 0, 35, 127
2, 11424, Note_on_c, 0, 38, 127
2, 11428, Note_off_c, 0, 35, 127
2, 11520, Note_off_c, 0, 38, 127
2, 11520, Note_on_c, 0, 33, 127
2, 12192, Note_on_c, 0, 30, 127
2, 12196, Note_off_c, 0, 33, 127
2, 12288, Note_off_c, 0, 30, 127
2, 12288, Note_on_c, 0, 31, 127
2, 12864, Note_off_c, 0, 31, 127
2, 12864, Note_on_c, 0, 28, 127
2, 13056, Note_off_c, 0, 28, 127
2, 13056, Note_on_c, 0, 31, 93
2, 13728, Note_on_c, 0, 33, 127
2, 13732, Note_off_c, 0, 31, 93
2, 13824, Note_off_c, 0, 33, 127
2, 13824, Note_on_c, 0, 35, 127
2, 14496, Note_on_c, 0, 38, 127
2, 14500, Note_off_c, 0, 35, 127
2, 14592, Note_off_c, 0, 38, 127
2, 14592, Note_on_c, 0, 33, 127
2, 15264, Note_on_c, 0, 30, 127
2, 15268, Note_off_c, 0, 33, 127
2, 15360, Note_off_c, 0, 30, 127
2, 15360, Note_on_c, 0, 31, 127
2, 15936, Note_off_c, 0, 31, 127
2, 15936, Note_on_c, 0, 28, 127
2, 16128, Note_off_c, 0, 28, 127
2, 16128, Note_on_c, 0, 31, 93
2, 16800, Note_on_c, 0, 33, 127
2, 16804, Note_off_c, 0, 31, 93
2, 16896, Note_off_c, 0, 33, 127
2, 16896, Note_on_c, 0, 35, 127
2, 17568, Note_on_c, 0, 38, 127
2, 17572, Note_off_c, 0, 35, 127
2, 17664, Note_off_c, 0, 38, 127
2, 17664, Note_on_c, 0, 33, 127
2, 18336, Note_on_c, 0, 30, 127
2, 18340, Note_off_c, 0, 33, 127
2, 18432, Note_off_c, 0, 30, 127
2, 18432, Note_on_c, 0, 31, 127
2, 19008, Note_off_c, 0, 31, 127
2, 19008, Note_on_c, 0, 28, 127
2, 19200, Note_off_c, 0, 28, 127
2, 19200, Note_on_c, 0, 31, 93
2, 19872, Note_on_c, 0, 33, 127
2, 19876, Note_off_c, 0, 31, 93
2, 19968, Note_off_c, 0, 33, 127
2, 19968, Note_on_c, 0, 35, 127
2, 20640, Note_on_c, 0, 38, 127
2, 20644, Note_off_c, 0, 35, 127
2, 20736, Note_off_c, 0, 38, 127
2, 20736, Note_on_c, 0, 33, 127
2, 21408, Note_on_c, 0, 30, 127
2, 21412, Note_off_c, 0, 33, 127
2, 21504, Note_off_c, 0, 30, 127
2, 21504, Note_on_c, 0, 31, 127
2, 22080, Note_off_c, 0, 31, 127
2, 22080, Note_on_c, 0, 28, 127
2, 22272, Note_off_c, 0, 28, 127
2, 22272, Note_on_c, 0, 31, 93
2, 22944, Note_on_c, 0, 33, 127
2, 22948, Note_off_c, 0, 31, 93
2, 23040, Note_off_c, 0, 33, 127
2, 23040, Note_on_c, 0, 35, 127
2, 23712, Note_on_c, 0, 38, 127
2, 23716, Note_off_c, 0, 35, 127
2, 23808, Note_off_c, 0, 38, 127
2, 23808, Note_on_c, 0, 33, 127
2, 24480, Note_on_c, 0, 30, 127
2, 24484, Note_off_c, 0, 33, 127
2, 24576, Note_off_c, 0, 30, 127
2, 24576, Note_on_c, 0, 31, 127
2, 25152, Note_off_c, 0, 31, 127
2, 25152, Note_on_c, 0, 28, 127
2, 25344, Note_off_c, 0, 28, 127
2, 25344, Note_on_c, 0, 31, 93
2, 26016, Note_on_c, 0, 33, 127
2, 26020, Note_off_c, 0, 31, 93
2, 26112, Note_off_c, 0, 33, 127
2, 26112, Note_on_c, 0, 35, 127
2, 26784, Note_on_c, 0, 38, 127
2, 26788, Note_off_c, 0, 35, 127
2, 26880, Note_off_c, 0, 38, 127
2, 26880, Note_on_c, 0, 33, 127
2, 27552, Note_on_c, 0, 30, 127
2, 27556, Note_off_c, 0, 33, 127
2, 27648, Note_off_c, 0, 30, 127
2, 27648, Note_on_c, 0, 31, 127
2, 28224, Note_off_c, 0, 31, 127
2, 28224, Note_on_c, 0, 28, 127
2, 28416, Note_off_c, 0, 28, 127
2, 28416, Note_on_c, 0, 31, 93
2, 29088, Note_on_c, 0, 33, 127
2, 29092, Note_off_c, 0, 31, 93
2, 29184, Note_off_c, 0, 33, 127
2, 29184, Note_on_c, 0, 35, 127
2, 29856, Note_on_c, 0, 38, 127
2, 29860, Note_off_c, 0, 35, 127
2, 29952, Note_off_c, 0, 38, 127
2, 29952, Note_on_c, 0, 33, 127
2, 30624, Note_on_c, 0, 30, 127
2, 30628, Note_off_c, 0, 33, 127
2, 30720, Note_off_c, 0, 30, 127
2, 30720, Note_on_c, 0, 31, 127
2, 31296, Note_off_c, 0, 31, 127
2, 31296, Note_on_c, 0, 28, 127
2, 31488, Note_off_c, 0, 28, 127
2, 31488, Note_on_c, 0, 31, 93
2, 32160, Note_on_c, 0, 33, 127
2, 32164, Note_off_c, 0, 31, 93
2, 32256, Note_off_c, 0, 33, 127
2, 32256, Note_on_c, 0, 35, 127
2, 32928, Note_on_c, 0, 38, 127
2, 32932, Note_off_c, 0, 35, 127
2, 33024, Note_off_c, 0, 38, 127
2, 33024, Note_on_c, 0, 33, 127
2, 33696, Note_on_c, 0, 30, 127
2, 33700, Note_off_c, 0, 33, 127
2, 33792, Note_off_c, 0, 30, 127
2, 33792, Note_on_c, 0, 31, 127
2, 34368, Note_off_c, 0, 31, 127
2, 34368, Note_on_c, 0, 28, 127
2, 34560, Note_off_c, 0, 28, 127
2, 34560, Note_on_c, 0, 31, 93
2, 35232, Note_on_c, 0, 33, 127
2, 35236, Note_off_c, 0, 31, 93
2, 35328, Note_off_c, 0, 33, 127
2, 35328, Note_on_c, 0, 35, 127
2, 36000, Note_on_c, 0, 38, 127
2, 36004, Note_off_c, 0, 35, 127
2, 36096, Note_off_c, 0, 38, 127
2, 36096, Note_on_c, 0, 33, 127
2, 36768, Note_on_c, 0, 30, 127
2, 36772, Note_off_c, 0, 33, 127
2, 36864, Note_off_c, 0, 30, 127
2, 36864, Note_on_c, 0, 31, 127
2, 37440, Note_off_c, 0, 31, 127
2, 37440, Note_on_c, 0, 28, 127
2, 37632, Note_off_c, 0, 28, 127
2, 37632, Note_on_c, 0, 31, 93
2, 38304, Note_on_c, 0, 33, 127
2, 38308, Note_off_c, 0, 31, 93
2, 38400, Note_off_c, 0, 33, 127
2, 38400, Note_on_c, 0, 35, 127
2, 39072, Note_on_c, 0, 38, 127
2, 39076, Note_off_c, 0, 35, 127
2, 39168, Note_off_c, 0, 38, 127
2, 39168, Note_on_c, 0, 33, 127
2, 39840, Note_on_c, 0, 30, 127
2, 39844, Note_off_c, 0, 33, 127
2, 39936, Note_off_c, 0, 30, 127
2, 39936, Note_on_c, 0, 31, 127
2, 40512, Note_off_c, 0, 31, 127
2, 40512, Note_on_c, 0, 28, 127
2, 40704, Note_off_c, 0, 28, 127
2, 40704, Note_on_c, 0, 31, 93
2, 41376, Note_on_c, 0, 33, 127
2, 41380, Note_off_c, 0, 31, 93
2, 41472, Note_off_c, 0, 33, 127
2, 41472, Note_on_c, 0, 35, 127
2, 42144, Note_on_c, 0, 38, 127
2, 42148, Note_off_c, 0, 35, 127
2, 42240, Note_off_c, 0, 38, 127
2, 42240, Note_on_c, 0, 33, 127
2, 42912, Note_on_c, 0, 30, 127
2, 42916, Note_off_c, 0, 33, 127
2, 43008, Note_off_c, 0, 30, 127
2, 43008, Note_on_c, 0, 31, 127
2, 43584, Note_off_c, 0, 31, 127
2, 43584, Note_on_c, 0, 28, 127
2, 43776, Note_off_c, 0, 28, 127
2, 43776, Note_on_c, 0, 31, 93
2, 44448, Note_on_c, 0, 33, 127
2, 44452, Note_off_c, 0, 31, 93
2, 44544, Note_off_c, 0, 33, 127
2, 44544, Note_on_c, 0, 35, 127
2, 45216, Note_on_c, 0, 38, 127
2, 45220, Note_off_c, 0, 35, 127
2, 45312, Note_off_c, 0, 38, 127
2, 45312, Note_on_c, 0, 33, 127
2, 45984, Note_on_c, 0, 30, 127
2, 45988, Note_off_c, 0, 33, 127
2, 46080, Note_off_c, 0, 30, 127
2, 46080, Note_on_c, 0, 31, 127
2, 46656, Note_off_c, 0, 31, 127
2, 46656, Note_on_c, 0, 28, 127
2, 46848, Note_off_c, 0, 28, 127
2, 46848, Note_on_c, 0, 31, 93
2, 47520, Note_on_c, 0, 33, 127
2, 47524, Note_off_c, 0, 31, 93
2, 47616, Note_off_c, 0, 33, 127
2, 47616, Note_on_c, 0, 35, 127
2, 48288, Note_on_c, 0, 38, 127
2, 48292, Note_off_c, 0, 35, 127
2, 48384, Note_off_c, 0, 38, 127
2, 48384, Note_on_c, 0, 33, 127
2, 49056, Note_on_c, 0, 30, 127
2, 49060, Note_off_c, 0, 33, 127
2, 49152, Note_off_c, 0, 30, 127
2, 49152, Note_on_c, 0, 31, 127
2, 49728, Note_off_c, 0, 31, 127
2, 49728, Note_on_c, 0, 28, 127
2, 49920, Note_off_c, 0, 28, 127
2, 49920, Note_on_c, 0, 31, 93
2, 50592, Note_on_c, 0, 33, 127
2, 50596, Note_off_c, 0, 31, 93
2, 50688, Note_off_c, 0, 33, 127
2, 50688, Note_on_c, 0, 35, 127
2, 51360, Note_on_c, 0, 38, 127
2, 51364, Note_off_c, 0, 35, 127
2, 51456, Note_off_c, 0, 38, 127
2, 51456, Note_on_c, 0, 33, 127
2, 52128, Note_on_c, 0, 30, 127
2, 52132, Note_off_c, 0, 33, 127
2, 52224, Note_off_c, 0, 30, 127
2, 52224, Note_on_c, 0, 31, 127
2, 52800, Note_off_c, 0, 31, 127
2, 52800, Note_on_c, 0, 28, 127
2, 52992, Note_off_c, 0, 28, 127
2, 52992, Note_on_c, 0, 31, 93
2, 53664, Note_on_c, 0, 33, 127
2, 53668, Note_off_c, 0, 31, 93
2, 53760, Note_off_c, 0, 33, 127
2, 53760, Note_on_c, 0, 35, 127
2, 54432, Note_on_c, 0, 38, 127
2, 54436, Note_off_c, 0, 35, 127
2, 54528, Note_off_c, 0, 38, 127
2, 54528, Note_on_c, 0, 33, 127
2, 55200, Note_on_c, 0, 30, 127
2, 55204, Note_off_c, 0, 33, 127
2, 55296, Note_off_c, 0, 30, 127
2, 55296, Note_on_c, 0, 31, 127
2, 55872, Note_off_c, 0, 31, 127
2, 55872, Note_on_c, 0, 28, 127
2, 56064, Note_off_c, 0, 28, 127
2, 56064, Note_on_c, 0, 31, 93
2, 56736, Note_on_c, 0, 33, 127
2, 56740, Note_off_c, 0, 31, 93
2, 56832, Note_off_c, 0, 33, 127
2, 56832, Note_on_c, 0, 35, 127
2, 57504, Note_on_c, 0, 38, 127
2, 57508, Note_off_c, 0, 35, 127
2, 57600, Note_off_c, 0, 38, 127
2, 57600, Note_on_c, 0, 33, 127
2, 58272, Note_on_c, 0, 30, 127
2, 58276, Note_off_c, 0, 33, 127
2, 58368, Note_off_c, 0, 30, 127
2, 58368, Note_on_c, 0, 31, 127
2, 58944, Note_off_c, 0, 31, 127
2, 58944, Note_on_c, 0, 28, 127
2, 59136, Note_off_c, 0, 28, 127
2, 59136, Note_on_c, 0, 31, 93
2, 59808, Note_on_c, 0, 33, 127
2, 59812, Note_off_c, 0, 31, 93
2, 59904, Note_off_c, 0, 33, 127
2, 59904, Note_on_c, 0, 35, 127
2, 60576, Note_on_c, 0, 38, 127
2, 60580, Note_off_c, 0, 35, 127
2, 60672, Note_off_c, 0, 38, 127
2, 60672, Note_on_c, 0, 33, 127
2, 61344, Note_on_c, 0, 30, 127
2, 61348, Note_off_c, 0, 33, 127
2, 61440, Note_off_c, 0, 30, 127
2, 61440, Note_on_c, 0, 31, 127
2, 62016, Note_off_c, 0, 31, 127
2, 62016, Note_on_c, 0, 28, 127
2, 62208, Note_off_c, 0, 28, 127
2, 62208, Note_on_c, 0, 31, 93
2, 62880, Note_on_c, 0, 33, 127
2, 62884, Note_off_c, 0, 31, 93
2, 62976, Note_off_c, 0, 33, 127
2, 62976, Note_on_c, 0, 35, 127
2, 63648, Note_on_c, 0, 38, 127
2, 63652, Note_off_c, 0, 35, 127
2, 63744, Note_off_c, 0, 38, 127
2, 63744, Note_on_c, 0, 33, 127
2, 64416, Note_on_c, 0, 30, 127
2, 64420, Note_off_c, 0, 33, 127
2, 64512, Note_off_c, 0, 30, 127
2, 64512, Note_on_c, 0, 31, 127
2, 65088, Note_off_c, 0, 31, 127
2, 65088, Note_on_c, 0, 28, 127
2, 65280, Note_off_c, 0, 28, 127
2, 65280, Note_on_c, 0, 31, 93
2, 65952, Note_on_c, 0, 33, 127
2, 65956, Note_off_c, 0, 31, 93
2, 66048, Note_off_c, 0, 33, 127
2, 66048, Note_on_c, 0, 35, 127
2, 66720, Note_on_c, 0, 38, 127
2, 66724, Note_off_c, 0, 35, 127
2, 66816, Note_off_c, 0, 38, 127
2, 66816, Note_on_c, 0, 33, 127
2, 67488, Note_on_c, 0, 30, 127
2, 67492, Note_off_c, 0, 33, 127
2, 67584, Note_off_c, 0, 30, 127
2, 67584, Note_on_c, 0, 31, 127
2, 68160, Note_off_c, 0, 31, 127
2, 68160, Note_on_c, 0, 28, 127
2, 68352, Note_off_c, 0, 28, 127
2, 68352, Note_on_c, 0, 31, 93
2, 69024, Note_on_c, 0, 33, 127
2, 69028, Note_off_c, 0, 31, 93
2, 69120, Note_off_c, 0, 33, 127
2, 69120, Note_on_c, 0, 35, 127
2, 69792, Note_on_c, 0, 38, 127
2, 69796, Note_off_c, 0, 35, 127
2, 69888, Note_off_c, 0, 38, 127
2, 69888, Note_on_c, 0, 33, 127
2, 70560, Note_on_c, 0, 30, 127
2, 70564, Note_off_c, 0, 33, 127
2, 70656, Note_off_c, 0, 30, 127
2, 70656, Note_on_c, 0, 31, 127
2, 71232, Note_off_c, 0, 31, 127
2, 71232, Note_on_c, 0, 28, 127
2, 71424, Note_off_c, 0, 28, 127
2, 71424, Note_on_c, 0, 31, 93
2, 72096, Note_on_c, 0, 33, 127
2, 72100, Note_off_c, 0, 31, 93
2, 72192, Note_off_c, 0, 33, 127
2, 72192, Note_on_c, 0, 35, 127
2, 72864, Note_on_c, 0, 38, 127
2, 72868, Note_off_c, 0, 35, 127
2, 72960, Note_off_c, 0, 38, 127
2, 72960, Note_on_c, 0, 33, 127
2, 73632, Note_on_c, 0, 30, 127
2, 73636, Note_off_c, 0, 33, 127
2, 73728, Note_off_c, 0, 30, 127
2, 73728, Note_on_c, 0, 31, 127
2, 74304, Note_off_c, 0, 31, 127
2, 74304, Note_on_c, 0, 28, 127
2, 74496, Note_off_c, 0, 28, 127
2, 74496, Note_on_c, 0, 31, 93
2, 75168, Note_on_c, 0, 33, 127
2, 75172, Note_off_c, 0, 31, 93
2, 75264, Note_off_c, 0, 33, 127
2, 75264, Note_on_c, 0, 35, 127
2, 75936, Note_on_c, 0, 38, 127
2, 75940, Note_off_c, 0, 35, 127
2, 76032, Note_off_c, 0, 38, 127
2, 76032, Note_on_c, 0, 33, 127
2, 76704, Note_on_c, 0, 30, 127
2, 76708, Note_off_c, 0, 33, 127
2, 76800, Note_off_c, 0, 30, 127
2, 76800, Note_on_c, 0, 31, 127
2, 77376, Note_off_c, 0, 31, 127
2, 77376, Note_on_c, 0, 28, 127
2, 77568, Note_off_c, 0, 28, 127
2, 77568, Note_on_c, 0, 31, 93
2, 77616, Control_c, 0, 7, 121
2, 77617, Control_c, 0, 7, 120
2, 77712, Control_c, 0, 7, 118
2, 77760, Control_c, 0, 7, 115
2, 77761, Control_c, 0, 7, 114
2, 77856, Control_c, 0, 7, 111
2, 77857, Control_c, 0, 7, 110
2, 77952, Control_c, 0, 7, 107
2, 77953, Control_c, 0, 7, 106
2, 78048, Control_c, 0, 7, 104
2, 78096, Control_c, 0, 7, 101
2, 78097, Control_c, 0, 7, 100
2, 78192, Control_c, 0, 7, 97
2, 78193, Control_c, 0, 7, 96
2, 78240, Note_on_c, 0, 33, 127
2, 78244, Note_off_c, 0, 31, 93
2, 78288, Control_c, 0, 7, 93
2, 78289, Control_c, 0, 7, 92
2, 78336, Note_off_c, 0, 33, 127
2, 78336, Note_on_c, 0, 35, 127
2, 78360, Control_c, 0, 7, 91
2, 78432, Control_c, 0, 7, 88
2, 78433, Control_c, 0, 7, 87
2, 78528, Control_c, 0, 7, 85
2, 78576, Control_c, 0, 7, 82
2, 78577, Control_c, 0, 7, 81
2, 78672, Control_c, 0, 7, 78
2, 78673, Control_c, 0, 7, 77
2, 78768, Control_c, 0, 7, 74
2, 78769, Control_c, 0, 7, 73
2, 78864, Control_c, 0, 7, 71
2, 78912, Control_c, 0, 7, 68
2, 78913, Control_c, 0, 7, 67
2, 79008, Control_c, 0, 7, 64
2, 79008, Note_on_c, 0, 38, 127
2, 79009, Control_c, 0, 7, 63
2, 79012, Note_off_c, 0, 35, 127
2, 79104, Note_off_c, 0, 38, 127
2, 79104, Control_c, 0, 7, 60
2, 79104, Note_on_c, 0, 33, 127
2, 79105, Control_c, 0, 7, 59
2, 79200, Control_c, 0, 7, 57
2, 79248, Control_c, 0, 7, 54
2, 79249, Control_c, 0, 7, 53
2, 79344, Control_c, 0, 7, 50
2, 79345, Control_c, 0, 7, 49
2, 79440, Control_c, 0, 7, 46
2, 79441, Control_c, 0, 7, 45
2, 79536, Control_c, 0, 7, 43
2, 79584, Control_c, 0, 7, 40
2, 79585, Control_c, 0, 7, 39
2, 79680, Control_c, 0, 7, 36
2, 79681, Control_c, 0, 7, 35
2, 79776, Control_c, 0, 7, 33
2, 79776, Note_on_c, 0, 30, 127
2, 79780, Note_off_c, 0, 33, 127
2, 79824, Control_c, 0, 7, 30
2, 79872, Note_off_c, 0, 30, 127
2, 79872, Note_on_c, 0, 31, 127
2, 79920, Control_c, 0, 7, 27
2, 79921, Control_c, 0, 7, 26
2, 80016, Control_c, 0, 7, 24
2, 80064, Control_c, 0, 7, 21
2, 80065, Control_c, 0, 7, 20
2, 80160, Control_c, 0, 7, 17
2, 80161, Control_c, 0, 7, 16
2, 80256, Control_c, 0, 7, 13
2, 80257, Control_c, 0, 7, 12
2, 80352, Control_c, 0, 7, 10
2, 80400, Control_c, 0, 7, 7
2, 80401, Control_c, 0, 7, 6
2, 80448, Note_off_c, 0, 31, 127
2, 80448, Note_on_c, 0, 28, 127
2, 80496, Control_c, 0, 7, 3
2, 80497, Control_c, 0, 7, 2
2, 80592, Control_c, 0, 7, 0
2, 80640, Note_off_c, 0, 28, 127
2, 80641, Control_c, 0, 123, 0
2, 80641, Control_c, 0, 120, 0
2, 80641, End_track
3, 0, Start_track
3, 0, MIDI_port, 0
3, 0, Unknown_meta_event, 9, 21, 77, 105, 99, 114, 111, 115, 111, 102, 116, 32, 77, 73, 68, 73, 32, 77, 97, 112, 112, 101, 114
3, 0, Title_t, "Polysynth"
3, 774, Control_c, 2, 0, 0
3, 774, Control_c, 2, 32, 0
3, 774, Program_c, 2, 90
3, 774, Control_c, 2, 10, 64
3, 774, Control_c, 2, 91, 0
3, 774, Control_c, 2, 93, 0
3, 774, Control_c, 2, 101, 0
3, 774, Control_c, 2, 100, 0
3, 774, Control_c, 2, 6, 24
3, 774, Control_c, 2, 7, 127
3, 774, Pitch_bend_c, 2, 8192
3, 774, Control_c, 2, 10, 64
3, 774, Note_on_c, 2, 55, 95
3, 774, Note_on_c, 2, 50, 95
3, 775, Control_c, 2, 7, 125
3, 775, Control_c, 2, 7, 124
3, 960, Note_on_c, 2, 78, 95
3, 960, Note_on_c, 2, 66, 95
3, 1104, Note_off_c, 2, 78, 95
3, 1104, Note_off_c, 2, 66, 95
3, 1104, Note_on_c, 2, 74, 95
3, 1104, Note_on_c, 2, 62, 95
3, 1248, Note_off_c, 2, 74, 95
3, 1248, Note_off_c, 2, 62, 95
3, 1248, Note_on_c, 2, 71, 95
3, 1248, Note_on_c, 2, 59, 95
3, 1344, Note_off_c, 2, 71, 95
3, 1344, Note_off_c, 2, 59, 95
3, 1344, Note_on_c, 2, 78, 95
3, 1344, Note_on_c, 2, 66, 95
3, 1344, Note_on_c, 2, 57, 95
3, 1344, Note_on_c, 2, 52, 95
3, 1345, Note_off_c, 2, 55, 95
3, 1345, Note_off_c, 2, 50, 95
3, 1536, Note_off_c, 2, 78, 95
3, 1536, Note_off_c, 2, 66, 95
3, 1536, Note_off_c, 2, 57, 95
3, 1536, Note_off_c, 2, 52, 95
3, 1536, Note_on_c, 2, 54, 95
3, 1536, Note_on_c, 2, 59, 95
3, 1728, Note_on_c, 2, 78, 95
3, 1728, Note_on_c, 2, 66, 95
3, 1872, Note_off_c, 2, 78, 95
3, 1872, Note_off_c, 2, 66, 95
3, 1872, Note_on_c, 2, 74, 95
3, 1872, Note_on_c, 2, 62, 95
3, 2016, Note_off_c, 2, 59, 95
3, 2016, Note_off_c, 2, 74, 95
3, 2016, Note_off_c, 2, 62, 95
3, 2016, Note_on_c, 2, 71, 95
3, 2016, Note_on_c, 2, 59, 95
3, 2112, Note_off_c, 2, 54, 95
3, 2112, Note_off_c, 2, 71, 95
3, 2112, Note_off_c, 2, 59, 95
3, 2112, Note_on_c, 2, 78, 95
3, 2112, Note_on_c, 2, 66, 95
3, 2112, Note_on_c, 2, 62, 95
3, 2112, Note_on_c, 2, 57, 95
3, 2304, Note_off_c, 2, 78, 95
3, 2304, Note_off_c, 2, 66, 95
3, 2304, Note_off_c, 2, 62, 95
3, 2304, Note_off_c, 2, 57, 95
3, 2304, Note_on_c, 2, 57, 95
3, 2304, Note_on_c, 2, 52, 95
3, 2496, Note_on_c, 2, 78, 95
3, 2496, Note_on_c, 2, 66, 95
3, 2640, Note_off_c, 2, 78, 95
3, 2640, Note_off_c, 2, 66, 95
3, 2640, Note_on_c, 2, 74, 95
3, 2640, Note_on_c, 2, 62, 95
3, 2784, Note_off_c, 2, 74, 95
3, 2784, Note_off_c, 2, 62, 95
3, 2784, Note_on_c, 2, 71, 95
3, 2784, Note_on_c, 2, 59, 95
3, 2880, Note_off_c, 2, 57, 95
3, 2880, Note_off_c, 2, 52, 95
3, 2880, Note_off_c, 2, 71, 95
3, 2880, Note_off_c, 2, 59, 95
3, 2880, Note_on_c, 2, 78, 95
3, 2880, Note_on_c, 2, 66, 95
3, 2880, Note_on_c, 2, 54, 95
3, 2880, Note_on_c, 2, 49, 95
3, 3072, Note_off_c, 2, 78, 95
3, 3072, Note_off_c, 2, 66, 95
3, 3072, Note_off_c, 2, 54, 95
3, 3072, Note_off_c, 2, 49, 95
3, 3072, Note_on_c, 2, 55, 95
3, 3072, Note_on_c, 2, 50, 95
3, 3264, Note_on_c, 2, 78, 95
3, 3264, Note_on_c, 2, 66, 95
3, 3408, Note_off_c, 2, 78, 95
3, 3408, Note_off_c, 2, 66, 95
3, 3408, Note_on_c, 2, 74, 95
3, 3408, Note_on_c, 2, 62, 95
3, 3552, Note_off_c, 2, 74, 95
3, 3552, Note_off_c, 2, 62, 95
3, 3552, Note_on_c, 2, 71, 95
3, 3552, Note_on_c, 2, 59, 95
3, 3648, Note_off_c, 2, 55, 95
3, 3648, Note_off_c, 2, 50, 95
3, 3648, Note_off_c, 2, 71, 95
3, 3648, Note_off_c, 2, 59, 95
3, 3648, Note_on_c, 2, 54, 95
3, 3648, Note_on_c, 2, 49, 95
3, 3648, Note_on_c, 2, 78, 95
3, 3648, Note_on_c, 2, 66, 95
3, 3672, Note_off_c, 2, 78, 95
3, 3672, Note_off_c, 2, 66, 95
3, 3696, Note_on_c, 2, 78, 95
3, 3696, Note_on_c, 2, 66, 95
3, 3720, Note_off_c, 2, 78, 95
3, 3720, Note_off_c, 2, 66, 95
3, 3744, Note_on_c, 2, 78, 95
3, 3744, Note_on_c, 2, 66, 95
3, 3768, Note_off_c, 2, 78, 95
3, 3768, Note_off_c, 2, 66, 95
3, 3792, Note_on_c, 2, 78, 95
3, 3792, Note_on_c, 2, 66, 95
3, 3816, Note_off_c, 2, 78, 95
3, 3816, Note_off_c, 2, 66, 95
3, 3840, Note_off_c, 2, 54, 95
3, 3840, Note_off_c, 2, 49, 95
3, 3840, Note_on_c, 2, 55, 95
3, 3840, Note_on_c, 2, 50, 95
3, 4032, Note_on_c, 2, 78, 95
3, 4032, Note_on_c, 2, 66, 95
3, 4176, Note_off_c, 2, 78, 95
3, 4176, Note_off_c, 2, 66, 95
3, 4176, Note_on_c, 2, 74, 95
3, 4176, Note_on_c, 2, 62, 95
3, 4320, Note_off_c, 2, 74, 95
3, 4320, Note_off_c, 2, 62, 95
3, 4320, Note_on_c, 2, 71, 95
3, 4320, Note_on_c, 2, 59, 95
3, 4416, Note_off_c, 2, 55, 95
3, 4416, Note_off_c, 2, 50, 95
3, 4416, Note_off_c, 2, 71, 95
3, 4416, Note_off_c, 2, 59, 95
3, 4416, Note_on_c, 2, 78, 95
3, 4416, Note_on_c, 2, 66, 95
3, 4416, Note_on_c, 2, 57, 95
3, 4416, Note_on_c, 2, 52, 95
3, 4608, Note_off_c, 2, 78, 95
3, 4608, Note_off_c, 2, 66, 95
3, 4608, Note_off_c, 2, 57, 95
3, 4608, Note_off_c, 2, 52, 95
3, 4608, Note_on_c, 2, 54, 95
3, 4608, Note_on_c, 2, 59, 95
3, 4800, Note_on_c, 2, 78, 95
3, 4800, Note_on_c, 2, 66, 95
3, 4944, Note_off_c, 2, 78, 95
3, 4944, Note_off_c, 2, 66, 95
3, 4944, Note_on_c, 2, 74, 95
3, 4944, Note_on_c, 2, 62, 95
3, 5088, Note_off_c, 2, 59, 95
3, 5088, Note_off_c, 2, 74, 95
3, 5088, Note_off_c, 2, 62, 95
3, 5088, Note_on_c, 2, 71, 95
3, 5088, Note_on_c, 2, 59, 95
3, 5184, Note_off_c, 2, 54, 95
3, 5184, Note_off_c, 2, 71, 95
3, 5184, Note_off_c, 2, 59, 95
3, 5184, Note_on_c, 2, 78, 95
3, 5184, Note_on_c, 2, 66, 95
3, 5184, Note_on_c, 2, 62, 95
3, 5184, Note_on_c, 2, 57, 95
3, 5376, Note_off_c, 2, 78, 95
3, 5376, Note_off_c, 2, 66, 95
3, 5376, Note_off_c, 2, 62, 95
3, 5376, Note_off_c, 2, 57, 95
3, 5376, Note_on_c, 2, 57, 95
3, 5376, Note_on_c, 2, 52, 95
3, 5568, Note_on_c, 2, 78, 95
3, 5568, Note_on_c, 2, 66, 95
3, 5712, Note_off_c, 2, 78, 95
3, 5712, Note_off_c, 2, 66, 95
3, 5712, Note_on_c, 2, 74, 95
3, 5712, Note_on_c, 2, 62, 95
3, 5856, Note_off_c, 2, 74, 95
3, 5856, Note_off_c, 2, 62, 95
3, 5856, Note_on_c, 2, 71, 95
3, 5856, Note_on_c, 2, 59, 95
3, 5952, Note_off_c, 2, 57, 95
3, 5952, Note_off_c, 2, 52, 95
3, 5952, Note_off_c, 2, 71, 95
3, 5952, Note_off_c, 2, 59, 95
3, 5952, Note_on_c, 2, 78, 95
3, 5952, Note_on_c, 2, 66, 95
3, 5952, Note_on_c, 2, 54, 95
3, 5952, Note_on_c, 2, 49, 95
3, 6144, Note_off_c, 2, 78, 95
3, 6144, Note_off_c, 2, 66, 95
3, 6144, Note_off_c, 2, 54, 95
3, 6144, Note_off_c, 2, 49, 95
3, 6144, Note_on_c, 2, 55, 95
3, 6144, Note_on_c, 2, 50, 95
3, 6336, Note_on_c, 2, 78, 95
3, 6336, Note_on_c, 2, 66, 95
3, 6480, Note_off_c, 2, 78, 95
3, 6480, Note_off_c, 2, 66, 95
3, 6480, Note_on_c, 2, 74, 95
3, 6480, Note_on_c, 2, 62, 95
3, 6624, Note_off_c, 2, 74, 95
3, 6624, Note_off_c, 2, 62, 95
3, 6624, Note_on_c, 2, 71, 95
3, 6624, Note_on_c, 2, 59, 95
3, 6720, Note_off_c, 2, 55, 95
3, 6720, Note_off_c, 2, 50, 95
3, 6720, Note_off_c, 2, 71, 95
3, 6720, Note_off_c, 2, 59, 95
3, 6720, Note_on_c, 2, 54, 95
3, 6720, Note_on_c, 2, 49, 95
3, 6720, Note_on_c, 2, 78, 95
3, 6720, Note_on_c, 2, 66, 95
3, 6744, Note_off_c, 2, 78, 95
3, 6744, Note_off_c, 2, 66, 95
3, 6768, Note_on_c, 2, 78, 95
3, 6768, Note_on_c, 2, 66, 95
3, 6792, Note_off_c, 2, 78, 95
3, 6792, Note_off_c, 2, 66, 95
3, 6816, Note_on_c, 2, 78, 95
3, 6816, Note_on_c, 2, 66, 95
3, 6840, Note_off_c, 2, 78, 95
3, 6840, Note_off_c, 2, 66, 95
3, 6864, Note_on_c, 2, 78, 95
3, 6864, Note_on_c, 2, 66, 95
3, 6888, Note_off_c, 2, 78, 95
3, 6888, Note_off_c, 2, 66, 95
3, 6912, Note_off_c, 2, 54, 95
3, 6912, Note_off_c, 2, 49, 95
3, 6912, Note_on_c, 2, 55, 95
3, 6912, Note_on_c, 2, 50, 95
3, 7104, Note_on_c, 2, 78, 95
3, 7104, Note_on_c, 2, 66, 95
3, 7248, Note_off_c, 2, 78, 95
3, 7248, Note_off_c, 2, 66, 95
3, 7248, Note_on_c, 2, 74, 95
3, 7248, Note_on_c, 2, 62, 95
3, 7392, Note_off_c, 2, 74, 95
3, 7392, Note_off_c, 2, 62, 95
3, 7392, Note_on_c, 2, 71, 95
3, 7392, Note_on_c, 2, 59, 95
3, 7488, Note_off_c, 2, 55, 95
3, 7488, Note_off_c, 2, 50, 95
3, 7488, Note_off_c, 2, 71, 95
3, 7488, Note_off_c, 2, 59, 95
3, 7488, Note_on_c, 2, 78, 95
3, 7488, Note_on_c, 2, 66, 95
3, 7488, Note_on_c, 2, 57, 95
3, 7488, Note_on_c, 2, 52, 95
3, 7680, Note_off_c, 2, 78, 95
3, 7680, Note_off_c, 2, 66, 95
3, 7680, Note_off_c, 2, 57, 95
3, 7680, Note_off_c, 2, 52, 95
3, 7680, Note_on_c, 2, 54, 95
3, 7680, Note_on_c, 2, 59, 95
3, 7872, Note_on_c, 2, 78, 95
3, 7872, Note_on_c, 2, 66, 95
3, 8016, Note_off_c, 2, 78, 95
3, 8016, Note_off_c, 2, 66, 95
3, 8016, Note_on_c, 2, 74, 95
3, 8016, Note_on_c, 2, 62, 95
3, 8160, Note_off_c, 2, 59, 95
3, 8160, Note_off_c, 2, 74, 95
3, 8160, Note_off_c, 2, 62, 95
3, 8160, Note_on_c, 2, 71, 95
3, 8160, Note_on_c, 2, 59, 95
3, 8256, Note_off_c, 2, 54, 95
3, 8256, Note_off_c, 2, 71, 95
3, 8256, Note_off_c, 2, 59, 95
3, 8256, Note_on_c, 2, 78, 95
3, 8256, Note_on_c, 2, 66, 95
3, 8256, Note_on_c, 2, 62, 95
3, 8256, Note_on_c, 2, 57, 95
3, 8448, Note_off_c, 2, 78, 95
3, 8448, Note_off_c, 2, 66, 95
3, 8448, Note_off_c, 2, 62, 95
3, 8448, Note_off_c, 2, 57, 95
3, 8448, Note_on_c, 2, 57, 95
3, 8448, Note_on_c, 2, 52, 95
3, 8640, Note_on_c, 2, 78, 95
3, 8640, Note_on_c, 2, 66, 95
3, 8784, Note_off_c, 2, 78, 95
3, 8784, Note_off_c, 2, 66, 95
3, 8784, Note_on_c, 2, 74, 95
3, 8784, Note_on_c, 2, 62, 95
3, 8928, Note_off_c, 2, 74, 95
3, 8928, Note_off_c, 2, 62, 95
3, 8928, Note_on_c, 2, 71, 95
3, 8928, Note_on_c, 2, 59, 95
3, 9024, Note_off_c, 2, 57, 95
3, 9024, Note_off_c, 2, 52, 95
3, 9024, Note_off_c, 2, 71, 95
3, 9024, Note_off_c, 2, 59, 95
3, 9024, Note_on_c, 2, 78, 95
3, 9024, Note_on_c, 2, 66, 95
3, 9024, Note_on_c, 2, 54, 95
3, 9024, Note_on_c, 2, 49, 95
3, 9216, Note_off_c, 2, 78, 95
3, 9216, Note_off_c, 2, 66, 95
3, 9216, Note_off_c, 2, 54, 95
3, 9216, Note_off_c, 2, 49, 95
3, 9216, Note_on_c, 2, 55, 95
3, 9216, Note_on_c, 2, 50, 95
3, 9408, Note_on_c, 2, 78, 95
3, 9408, Note_on_c, 2, 66, 95
3, 9552, Note_off_c, 2, 78, 95
3, 9552, Note_off_c, 2, 66, 95
3, 9552, Note_on_c, 2, 74, 95
3, 9552, Note_on_c, 2, 62, 95
3, 9696, Note_off_c, 2, 74, 95
3, 9696, Note_off_c, 2, 62, 95
3, 9696, Note_on_c, 2, 71, 95
3, 9696, Note_on_c, 2, 59, 95
3, 9792, Note_off_c, 2, 55, 95
3, 9792, Note_off_c, 2, 50, 95
3, 9792, Note_off_c, 2, 71, 95
3, 9792, Note_off_c, 2, 59, 95
3, 9792, Note_on_c, 2, 54, 95
3, 9792, Note_on_c, 2, 49, 95
3, 9792, Note_on_c, 2, 78, 95
3, 9792, Note_on_c, 2, 66, 95
3, 9816, Note_off_c, 2, 78, 95
3, 9816, Note_off_c, 2, 66, 95
3, 9840, Note_on_c, 2, 78, 95
3, 9840, Note_on_c, 2, 66, 95
3, 9864, Note_off_c, 2, 78, 95
3, 9864, Note_off_c, 2, 66, 95
3, 9888, Note_on_c, 2, 78, 95
3, 9888, Note_on_c, 2, 66, 95
3, 9912, Note_off_c, 2, 78, 95
3, 9912, Note_off_c, 2, 66, 95
3, 9936, Note_on_c, 2, 78, 95
3, 9936, Note_on_c, 2, 66, 95
3, 9960, Note_off_c, 2, 78, 95
3, 9960, Note_off_c, 2, 66, 95
3, 9984, Note_off_c, 2, 54, 95
3, 9984, Note_off_c, 2, 49, 95
3, 9984, Note_on_c, 2, 55, 95
3, 9984, Note_on_c, 2, 50, 95
3, 10176, Note_on_c, 2, 78, 95
3, 10176, Note_on_c, 2, 66, 95
3, 10320, Note_off_c, 2, 78, 95
3, 10320, Note_off_c, 2, 66, 95
3, 10320, Note_on_c, 2, 74, 95
3, 10320, Note_on_c, 2, 62, 95
3, 10464, Note_off_c, 2, 74, 95
3, 10464, Note_off_c, 2, 62, 95
3, 10464, Note_on_c, 2, 71, 95
3, 10464, Note_on_c, 2, 59, 95
3, 10560, Note_off_c, 2, 55, 95
3, 10560, Note_off_c, 2, 50, 95
3, 10560, Note_off_c, 2, 71, 95
3, 10560, Note_off_c, 2, 59, 95
3, 10560, Note_on_c, 2, 78, 95
3, 10560, Note_on_c, 2, 66, 95
3, 10560, Note_on_c, 2, 57, 95
3, 10560, Note_on_c, 2, 52, 95
3, 10752, Note_off_c, 2, 78, 95
3, 10752, Note_off_c, 2, 66, 95
3, 10752, Note_off_c, 2, 57, 95
3, 10752, Note_off_c, 2, 52, 95
3, 10752, Note_on_c, 2, 54, 95
3, 10752, Note_on_c, 2, 59, 95
3, 10944, Note_on_c, 2, 78, 95
3, 10944, Note_on_c, 2, 66, 95
3, 11088, Note_off_c, 2, 78, 95
3, 11088, Note_off_c, 2, 66, 95
3, 11088, Note_on_c, 2, 74, 95
3, 11088, Note_on_c, 2, 62, 95
3, 11232, Note_off_c, 2, 59, 95
3, 11232, Note_off_c, 2, 74, 95
3, 11232, Note_off_c, 2, 62, 95
3, 11232, Note_on_c, 2, 71, 95
3, 11232, Note_on_c, 2, 59, 95
3, 11328, Note_off_c, 2, 54, 95
3, 11328, Note_off_c, 2, 71, 95
3, 11328, Note_off_c, 2, 59, 95
3, 11328, Note_on_c, 2, 78, 95
3, 11328, Note_on_c, 2, 66, 95
3, 11328, Note_on_c, 2, 62, 95
3, 11328, Note_on_c, 2, 57, 95
3, 11520, Note_off_c, 2, 78, 95
3, 11520, Note_off_c, 2, 66, 95
3, 11520, Note_off_c, 2, 62, 95
3, 11520, Note_off_c, 2, 57, 95
3, 11520, Note_on_c, 2, 57, 95
3, 11520, Note_on_c, 2, 52, 95
3, 11712, Note_on_c, 2, 78, 95
3, 11712, Note_on_c, 2, 66, 95
3, 11856, Note_off_c, 2, 78, 95
3, 11856, Note_off_c, 2, 66, 95
3, 11856, Note_on_c, 2, 74, 95
3, 11856, Note_on_c, 2, 62, 95
3, 12000, Note_off_c, 2, 74, 95
3, 12000, Note_off_c, 2, 62, 95
3, 12000, Note_on_c, 2, 71, 95
3, 12000, Note_on_c, 2, 59, 95
3, 12096, Note_off_c, 2, 57, 95
3, 12096, Note_off_c, 2, 52, 95
3, 12096, Note_off_c, 2, 71, 95
3, 12096, Note_off_c, 2, 59, 95
3, 12096, Note_on_c, 2, 78, 95
3, 12096, Note_on_c, 2, 66, 95
3, 12096, Note_on_c, 2, 54, 95
3, 12096, Note_on_c, 2, 49, 95
3, 12288, Note_off_c, 2, 78, 95
3, 12288, Note_off_c, 2, 66, 95
3, 12288, Note_off_c, 2, 54, 95
3, 12288, Note_off_c, 2, 49, 95
3, 12288, Note_on_c, 2, 55, 95
3, 12288, Note_on_c, 2, 50, 95
3, 12480, Note_on_c, 2, 78, 95
3, 12480, Note_on_c, 2, 66, 95
3, 12624, Note_off_c, 2, 78, 95
3, 12624, Note_off_c, 2, 66, 95
3, 12624, Note_on_c, 2, 74, 95
3, 12624, Note_on_c, 2, 62, 95
3, 12768, Note_off_c, 2, 74, 95
3, 12768, Note_off_c, 2, 62, 95
3, 12768, Note_on_c, 2, 71, 95
3, 12768, Note_on_c, 2, 59, 95
3, 12864, Note_off_c, 2, 55, 95
3, 12864, Note_off_c, 2, 50, 95
3, 12864, Note_off_c, 2, 71, 95
3, 12864, Note_off_c, 2, 59, 95
3, 12864, Note_on_c, 2, 54, 95
3, 12864, Note_on_c, 2, 49, 95
3, 12864, Note_on_c, 2, 78, 95
3, 12864, Note_on_c, 2, 66, 95
3, 12888, Note_off_c, 2, 78, 95
3, 12888, Note_off_c, 2, 66, 95
3, 12912, Note_on_c, 2, 78, 95
3, 12912, Note_on_c, 2, 66, 95
3, 12936, Note_off_c, 2, 78, 95
3, 12936, Note_off_c, 2, 66, 95
3, 12960, Note_on_c, 2, 78, 95
3, 12960, Note_on_c, 2, 66, 95
3, 12984, Note_off_c, 2, 78, 95
3, 12984, Note_off_c, 2, 66, 95
3, 13008, Note_on_c, 2, 78, 95
3, 13008, Note_on_c, 2, 66, 95
3, 13032, Note_off_c, 2, 78, 95
3, 13032, Note_off_c, 2, 66, 95
3, 13056, Note_off_c, 2, 54, 95
3, 13056, Note_off_c, 2, 49, 95
3, 19200, Note_on_c, 2, 55, 95
3, 19200, Note_on_c, 2, 50, 95
3, 19392, Note_on_c, 2, 78, 95
3, 19392, Note_on_c, 2, 66, 95
3, 19536, Note_off_c, 2, 78, 95
3, 19536, Note_off_c, 2, 66, 95
3, 19536, Note_on_c, 2, 74, 95
3, 19536, Note_on_c, 2, 62, 95
3, 19680, Note_off_c, 2, 74, 95
3, 19680, Note_off_c, 2, 62, 95
3, 19680, Note_on_c, 2, 71, 95
3, 19680, Note_on_c, 2, 59, 95
3, 19776, Note_off_c, 2, 55, 95
3, 19776, Note_off_c, 2, 50, 95
3, 19776, Note_off_c, 2, 71, 95
3, 19776, Note_off_c, 2, 59, 95
3, 19776, Note_on_c, 2, 78, 95
3, 19776, Note_on_c, 2, 66, 95
3, 19776, Note_on_c, 2, 57, 95
3, 19776, Note_on_c, 2, 52, 95
3, 19968, Note_off_c, 2, 78, 95
3, 19968, Note_off_c, 2, 66, 95
3, 19968, Note_off_c, 2, 57, 95
3, 19968, Note_off_c, 2, 52, 95
3, 19968, Note_on_c, 2, 54, 95
3, 19968, Note_on_c, 2, 59, 95
3, 20160, Note_on_c, 2, 78, 95
3, 20160, Note_on_c, 2, 66, 95
3, 20304, Note_off_c, 2, 78, 95
3, 20304, Note_off_c, 2, 66, 95
3, 20304, Note_on_c, 2, 74, 95
3, 20304, Note_on_c, 2, 62, 95
3, 20448, Note_off_c, 2, 59, 95
3, 20448, Note_off_c, 2, 74, 95
3, 20448, Note_off_c, 2, 62, 95
3, 20448, Note_on_c, 2, 71, 95
3, 20448, Note_on_c, 2, 59, 95
3, 20544, Note_off_c, 2, 54, 95
3, 20544, Note_off_c, 2, 71, 95
3, 20544, Note_off_c, 2, 59, 95
3, 20544, Note_on_c, 2, 78, 95
3, 20544, Note_on_c, 2, 66, 95
3, 20544, Note_on_c, 2, 62, 95
3, 20544, Note_on_c, 2, 57, 95
3, 20736, Note_off_c, 2, 78, 95
3, 20736, Note_off_c, 2, 66, 95
3, 20736, Note_off_c, 2, 62, 95
3, 20736, Note_off_c, 2, 57, 95
3, 20736, Note_on_c, 2, 57, 95
3, 20736, Note_on_c, 2, 52, 95
3, 20928, Note_on_c, 2, 78, 95
3, 20928, Note_on_c, 2, 66, 95
3, 21072, Note_off_c, 2, 78, 95
3, 21072, Note_off_c, 2, 66, 95
3, 21072, Note_on_c, 2, 74, 95
3, 21072, Note_on_c, 2, 62, 95
3, 21216, Note_off_c, 2, 74, 95
3, 21216, Note_off_c, 2, 62, 95
3, 21216, Note_on_c, 2, 71, 95
3, 21216, Note_on_c, 2, 59, 95
3, 21312, Note_off_c, 2, 57, 95
3, 21312, Note_off_c, 2, 52, 95
3, 21312, Note_off_c, 2, 71, 95
3, 21312, Note_off_c, 2, 59, 95
3, 21312, Note_on_c, 2, 78, 95
3, 21312, Note_on_c, 2, 66, 95
3, 21312, Note_on_c, 2, 54, 95
3, 21312, Note_on_c, 2, 49, 95
3, 21504, Note_off_c, 2, 78, 95
3, 21504, Note_off_c, 2, 66, 95
3, 21504, Note_off_c, 2, 54, 95
3, 21504, Note_off_c, 2, 49, 95
3, 21504, Note_on_c, 2, 55, 95
3, 21504, Note_on_c, 2, 50, 95
3, 21696, Note_on_c, 2, 78, 95
3, 21696, Note_on_c, 2, 66, 95
3, 21840, Note_off_c, 2, 78, 95
3, 21840, Note_off_c, 2, 66, 95
3, 21840, Note_on_c, 2, 74, 95
3, 21840, Note_on_c, 2, 62, 95
3, 21984, Note_off_c, 2, 74, 95
3, 21984, Note_off_c, 2, 62, 95
3, 21984, Note_on_c, 2, 71, 95
3, 21984, Note_on_c, 2, 59, 95
3, 22080, Note_off_c, 2, 55, 95
3, 22080, Note_off_c, 2, 50, 95
3, 22080, Note_off_c, 2, 71, 95
3, 22080, Note_off_c, 2, 59, 95
3, 22080, Note_on_c, 2, 54, 95
3, 22080, Note_on_c, 2, 49, 95
3, 22080, Note_on_c, 2, 78, 95
3, 22080, Note_on_c, 2, 66, 95
3, 22104, Note_off_c, 2, 78, 95
3, 22104, Note_off_c, 2, 66, 95
3, 22128, Note_on_c, 2, 78, 95
3, 22128, Note_on_c, 2, 66, 95
3, 22152, Note_off_c, 2, 78, 95
3, 22152, Note_off_c, 2, 66, 95
3, 22176, Note_on_c, 2, 78, 95
3, 22176, Note_on_c, 2, 66, 95
3, 22200, Note_off_c, 2, 78, 95
3, 22200, Note_off_c, 2, 66, 95
3, 22224, Note_on_c, 2, 78, 95
3, 22224, Note_on_c, 2, 66, 95
3, 22248, Note_off_c, 2, 78, 95
3, 22248, Note_off_c, 2, 66, 95
3, 22272, Note_off_c, 2, 54, 95
3, 22272, Note_off_c, 2, 49, 95
3, 22272, Note_on_c, 2, 55, 95
3, 22272, Note_on_c, 2, 50, 95
3, 22464, Note_on_c, 2, 78, 95
3, 22464, Note_on_c, 2, 66, 95
3, 22608, Note_off_c, 2, 78, 95
3, 22608, Note_off_c, 2, 66, 95
3, 22608, Note_on_c, 2, 74, 95
3, 22608, Note_on_c, 2, 62, 95
3, 22752, Note_off_c, 2, 74, 95
3, 22752, Note_off_c, 2, 62, 95
3, 22752, Note_on_c, 2, 71, 95
3, 22752, Note_on_c, 2, 59, 95
3, 22848, Note_off_c, 2, 55, 95
3, 22848, Note_off_c, 2, 50, 95
3, 22848, Note_off_c, 2, 71, 95
3, 22848, Note_off_c, 2, 59, 95
3, 22848, Note_on_c, 2, 78, 95
3, 22848, Note_on_c, 2, 66, 95
3, 22848, Note_on_c, 2, 57, 95
3, 22848, Note_on_c, 2, 52, 95
3, 23040, Note_off_c, 2, 78, 95
3, 23040, Note_off_c, 2, 66, 95
3, 23040, Note_off_c, 2, 57, 95
3, 23040, Note_off_c, 2, 52, 95
3, 23040, Note_on_c, 2, 54, 95
3, 23040, Note_on_c, 2, 59, 95
3, 23232, Note_on_c, 2, 78, 95
3, 23232, Note_on_c, 2, 66, 95
3, 23376, Note_off_c, 2, 78, 95
3, 23376, Note_off_c, 2, 66, 95
3, 23376, Note_on_c, 2, 74, 95
3, 23376, Note_on_c, 2, 62, 95
3, 23520, Note_off_c, 2, 59, 95
3, 23520, Note_off_c, 2, 74, 95
3, 23520, Note_off_c, 2, 62, 95
3, 23520, Note_on_c, 2, 71, 95
3, 23520, Note_on_c, 2, 59, 95
3, 23616, Note_off_c, 2, 54, 95
3, 23616, Note_off_c, 2, 71, 95
3, 23616, Note_off_c, 2, 59, 95
3, 23616, Note_on_c, 2, 78, 95
3, 23616, Note_on_c, 2, 66, 95
3, 23616, Note_on_c, 2, 62, 95
3, 23616, Note_on_c, 2, 57, 95
3, 23808, Note_off_c, 2, 78, 95
3, 23808, Note_off_c, 2, 66, 95
3, 23808, Note_off_c, 2, 62, 95
3, 23808, Note_off_c, 2, 57, 95
3, 23808, Note_on_c, 2, 57, 95
3, 23808, Note_on_c, 2, 52, 95
3, 24000, Note_on_c, 2, 78, 95
3, 24000, Note_on_c, 2, 66, 95
3, 24144, Note_off_c, 2, 78, 95
3, 24144, Note_off_c, 2, 66, 95
3, 24144, Note_on_c, 2, 74, 95
3, 24144, Note_on_c, 2, 62, 95
3, 24288, Note_off_c, 2, 74, 95
3, 24288, Note_off_c, 2, 62, 95
3, 24288, Note_on_c, 2, 71, 95
3, 24288, Note_on_c, 2, 59, 95
3, 24384, Note_off_c, 2, 57, 95
3, 24384, Note_off_c, 2, 52, 95
3, 24384, Note_off_c, 2, 71, 95
3, 24384, Note_off_c, 2, 59, 95
3, 24384, Note_on_c, 2, 78, 95
3, 24384, Note_on_c, 2, 66, 95
3, 24384, Note_on_c, 2, 54, 95
3, 24384, Note_on_c, 2, 49, 95
3, 24576, Note_off_c, 2, 78, 95
3, 24576, Note_off_c, 2, 66, 95
3, 24576, Note_off_c, 2, 54, 95
3, 24576, Note_off_c, 2, 49, 95
3, 24576, Note_on_c, 2, 55, 95
3, 24576, Note_on_c, 2, 50, 95
3, 24768, Note_on_c, 2, 78, 95
3, 24768, Note_on_c, 2, 66, 95
3, 24912, Note_off_c, 2, 78, 95
3, 24912, Note_off_c, 2, 66, 95
3, 24912, Note_on_c, 2, 74, 95
3, 24912, Note_on_c, 2, 62, 95
3, 25056, Note_off_c, 2, 74, 95
3, 25056, Note_off_c, 2, 62, 95
3, 25056, Note_on_c, 2, 71, 95
3, 25056, Note_on_c, 2, 59, 95
3, 25152, Note_off_c, 2, 55, 95
3, 25152, Note_off_c, 2, 50, 95
3, 25152, Note_off_c, 2, 71, 95
3, 25152, Note_off_c, 2, 59, 95
3, 25152, Note_on_c, 2, 54, 95
3, 25152, Note_on_c, 2, 49, 95
3, 25152, Note_on_c, 2, 78, 95
3, 25152, Note_on_c, 2, 66, 95
3, 25176, Note_off_c, 2, 78, 95
3, 25176, Note_off_c, 2, 66, 95
3, 25200, Note_on_c, 2, 78, 95
3, 25200, Note_on_c, 2, 66, 95
3, 25224, Note_off_c, 2, 78, 95
3, 25224, Note_off_c, 2, 66, 95
3, 25248, Note_on_c, 2, 78, 95
3, 25248, Note_on_c, 2, 66, 95
3, 25272, Note_off_c, 2, 78, 95
3, 25272, Note_off_c, 2, 66, 95
3, 25296, Note_on_c, 2, 78, 95
3, 25296, Note_on_c, 2, 66, 95
3, 25320, Note_off_c, 2, 78, 95
3, 25320, Note_off_c, 2, 66, 95
3, 25344, Note_off_c, 2, 54, 95
3, 25344, Note_off_c, 2, 49, 95
3, 37632, Note_on_c, 2, 55, 95
3, 37632, Note_on_c, 2, 50, 95
3, 37824, Note_on_c, 2, 78, 95
3, 37824, Note_on_c, 2, 66, 95
3, 37968, Note_off_c, 2, 78, 95
3, 37968, Note_off_c, 2, 66, 95
3, 37968, Note_on_c, 2, 74, 95
3, 37968, Note_on_c, 2, 62, 95
3, 38112, Note_off_c, 2, 74, 95
3, 38112, Note_off_c, 2, 62, 95
3, 38112, Note_on_c, 2, 71, 95
3, 38112, Note_on_c, 2, 59, 95
3, 38208, Note_off_c, 2, 55, 95
3, 38208, Note_off_c, 2, 50, 95
3, 38208, Note_off_c, 2, 71, 95
3, 38208, Note_off_c, 2, 59, 95
3, 38208, Note_on_c, 2, 78, 95
3, 38208, Note_on_c, 2, 66, 95
3, 38208, Note_on_c, 2, 57, 95
3, 38208, Note_on_c, 2, 52, 95
3, 38400, Note_off_c, 2, 78, 95
3, 38400, Note_off_c, 2, 66, 95
3, 38400, Note_off_c, 2, 57, 95
3, 38400, Note_off_c, 2, 52, 95
3, 38400, Note_on_c, 2, 54, 95
3, 38400, Note_on_c, 2, 59, 95
3, 38592, Note_on_c, 2, 78, 95
3, 38592, Note_on_c, 2, 66, 95
3, 38736, Note_off_c, 2, 78, 95
3, 38736, Note_off_c, 2, 66, 95
3, 38736, Note_on_c, 2, 74, 95
3, 38736, Note_on_c, 2, 62, 95
3, 38880, Note_off_c, 2, 59, 95
3, 38880, Note_off_c, 2, 74, 95
3, 38880, Note_off_c, 2, 62, 95
3, 38880, Note_on_c, 2, 71, 95
3, 38880, Note_on_c, 2, 59, 95
3, 38976, Note_off_c, 2, 54, 95
3, 38976, Note_off_c, 2, 71, 95
3, 38976, Note_off_c, 2, 59, 95
3, 38976, Note_on_c, 2, 78, 95
3, 38976, Note_on_c, 2, 66, 95
3, 38976, Note_on_c, 2, 62, 95
3, 38976, Note_on_c, 2, 57, 95
3, 39168, Note_off_c, 2, 78, 95
3, 39168, Note_off_c, 2, 66, 95
3, 39168, Note_off_c, 2, 62, 95
3, 39168, Note_off_c, 2, 57, 95
3, 39168, Note_on_c, 2, 57, 95
3, 39168, Note_on_c, 2, 52, 95
3, 39360, Note_on_c, 2, 78, 95
3, 39360, Note_on_c, 2, 66, 95
3, 39504, Note_off_c, 2, 78, 95
3, 39504, Note_off_c, 2, 66, 95
3, 39504, Note_on_c, 2, 74, 95
3, 39504, Note_on_c, 2, 62, 95
3, 39648, Note_off_c, 2, 74, 95
3, 39648, Note_off_c, 2, 62, 95
3, 39648, Note_on_c, 2, 71, 95
3, 39648, Note_on_c, 2, 59, 95
3, 39744, Note_off_c, 2, 57, 95
3, 39744, Note_off_c, 2, 52, 95
3, 39744, Note_off_c, 2, 71, 95
3, 39744, Note_off_c, 2, 59, 95
3, 39744, Note_on_c, 2, 78, 95
3, 39744, Note_on_c, 2, 66, 95
3, 39744, Note_on_c, 2, 54, 95
3, 39744, Note_on_c, 2, 49, 95
3, 39936, Note_off_c, 2, 78, 95
3, 39936, Note_off_c, 2, 66, 95
3, 39936, Note_off_c, 2, 54, 95
3, 39936, Note_off_c, 2, 49, 95
3, 39936, Note_on_c, 2, 55, 95
3, 39936, Note_on_c, 2, 50, 95
3, 40128, Note_on_c, 2, 78, 95
3, 40128, Note_on_c, 2, 66, 95
3, 40272, Note_off_c, 2, 78, 95
3, 40272, Note_off_c, 2, 66, 95
3, 40272, Note_on_c, 2, 74, 95
3, 40272, Note_on_c, 2, 62, 95
3, 40416, Note_off_c, 2, 74, 95
3, 40416, Note_off_c, 2, 62, 95
3, 40416, Note_on_c, 2, 71, 95
3, 40416, Note_on_c, 2, 59, 95
3, 40512, Note_off_c, 2, 55, 95
3, 40512, Note_off_c, 2, 50, 95
3, 40512, Note_off_c, 2, 71, 95
3, 40512, Note_off_c, 2, 59, 95
3, 40512, Note_on_c, 2, 54, 95
3, 40512, Note_on_c, 2, 49, 95
3, 40512, Note_on_c, 2, 78, 95
3, 40512, Note_on_c, 2, 66, 95
3, 40536, Note_off_c, 2, 78, 95
3, 40536, Note_off_c, 2, 66, 95
3, 40560, Note_on_c, 2, 78, 95
3, 40560, Note_on_c, 2, 66, 95
3, 40584, Note_off_c, 2, 78, 95
3, 40584, Note_off_c, 2, 66, 95
3, 40608, Note_on_c, 2, 78, 95
3, 40608, Note_on_c, 2, 66, 95
3, 40632, Note_off_c, 2, 78, 95
3, 40632, Note_off_c, 2, 66, 95
3, 40656, Note_on_c, 2, 78, 95
3, 40656, Note_on_c, 2, 66, 95
3, 40680, Note_off_c, 2, 78, 95
3, 40680, Note_off_c, 2, 66, 95
3, 40704, Note_off_c, 2, 54, 95
3, 40704, Note_off_c, 2, 49, 95
3, 40704, Note_on_c, 2, 55, 95
3, 40704, Note_on_c, 2, 50, 95
3, 40896, Note_on_c, 2, 78, 95
3, 40896, Note_on_c, 2, 66, 95
3, 41040, Note_off_c, 2, 78, 95
3, 41040, Note_off_c, 2, 66, 95
3, 41040, Note_on_c, 2, 74, 95
3, 41040, Note_on_c, 2, 62, 95
3, 41184, Note_off_c, 2, 74, 95
3, 41184, Note_off_c, 2, 62, 95
3, 41184, Note_on_c, 2, 71, 95
3, 41184, Note_on_c, 2, 59, 95
3, 41280, Note_off_c, 2, 55, 95
3, 41280, Note_off_c, 2, 50, 95
3, 41280, Note_off_c, 2, 71, 95
3, 41280, Note_off_c, 2, 59, 95
3, 41280, Note_on_c, 2, 78, 95
3, 41280, Note_on_c, 2, 66, 95
3, 41280, Note_on_c, 2, 57, 95
3, 41280, Note_on_c, 2, 52, 95
3, 41472, Note_off_c, 2, 78, 95
3, 41472, Note_off_c, 2, 66, 95
3, 41472, Note_off_c, 2, 57, 95
3, 41472, Note_off_c, 2, 52, 95
3, 41472, Note_on_c, 2, 54, 95
3, 41472, Note_on_c, 2, 59, 95
3, 41664, Note_on_c, 2, 78, 95
3, 41664, Note_on_c, 2, 66, 95
3, 41808, Note_off_c, 2, 78, 95
3, 41808, Note_off_c, 2, 66, 95
3, 41808, Note_on_c, 2, 74, 95
3, 41808, Note_on_c, 2, 62, 95
3, 41952, Note_off_c, 2, 59, 95
3, 41952, Note_off_c, 2, 74, 95
3, 41952, Note_off_c, 2, 62, 95
3, 41952, Note_on_c, 2, 71, 95
3, 41952, Note_on_c, 2, 59, 95
3, 42048, Note_off_c, 2, 54, 95
3, 42048, Note_off_c, 2, 71, 95
3, 42048, Note_off_c, 2, 59, 95
3, 42048, Note_on_c, 2, 78, 95
3, 42048, Note_on_c, 2, 66, 95
3, 42048, Note_on_c, 2, 62, 95
3, 42048, Note_on_c, 2, 57, 95
3, 42240, Note_off_c, 2, 78, 95
3, 42240, Note_off_c, 2, 66, 95
3, 42240, Note_off_c, 2, 62, 95
3, 42240, Note_off_c, 2, 57, 95
3, 42240, Note_on_c, 2, 57, 95
3, 42240, Note_on_c, 2, 52, 95
3, 42432, Note_on_c, 2, 78, 95
3, 42432, Note_on_c, 2, 66, 95
3, 42576, Note_off_c, 2, 78, 95
3, 42576, Note_off_c, 2, 66, 95
3, 42576, Note_on_c, 2, 74, 95
3, 42576, Note_on_c, 2, 62, 95
3, 42720, Note_off_c, 2, 74, 95
3, 42720, Note_off_c, 2, 62, 95
3, 42720, Note_on_c, 2, 71, 95
3, 42720, Note_on_c, 2, 59, 95
3, 42816, Note_off_c, 2, 57, 95
3, 42816, Note_off_c, 2, 52, 95
3, 42816, Note_off_c, 2, 71, 95
3, 42816, Note_off_c, 2, 59, 95
3, 42816, Note_on_c, 2, 78, 95
3, 42816, Note_on_c, 2, 66, 95
3, 42816, Note_on_c, 2, 54, 95
3, 42816, Note_on_c, 2, 49, 95
3, 43008, Note_off_c, 2, 78, 95
3, 43008, Note_off_c, 2, 66, 95
3, 43008, Note_off_c, 2, 54, 95
3, 43008, Note_off_c, 2, 49, 95
3, 43008, Note_on_c, 2, 55, 95
3, 43008, Note_on_c, 2, 50, 95
3, 43200, Note_on_c, 2, 78, 95
3, 43200, Note_on_c, 2, 66, 95
3, 43344, Note_off_c, 2, 78, 95
3, 43344, Note_off_c, 2, 66, 95
3, 43344, Note_on_c, 2, 74, 95
3, 43344, Note_on_c, 2, 62, 95
3, 43488, Note_off_c, 2, 74, 95
3, 43488, Note_off_c, 2, 62, 95
3, 43488, Note_on_c, 2, 71, 95
3, 43488, Note_on_c, 2, 59, 95
3, 43584, Note_off_c, 2, 55, 95
3, 43584, Note_off_c, 2, 50, 95
3, 43584, Note_off_c, 2, 71, 95
3, 43584, Note_off_c, 2, 59, 95
3, 43584, Note_on_c, 2, 54, 95
3, 43584, Note_on_c, 2, 49, 95
3, 43584, Note_on_c, 2, 78, 95
3, 43584, Note_on_c, 2, 66, 95
3, 43608, Note_off_c, 2, 78, 95
3, 43608, Note_off_c, 2, 66, 95
3, 43632, Note_on_c, 2, 78, 95
3, 43632, Note_on_c, 2, 66, 95
3, 43656, Note_off_c, 2, 78, 95
3, 43656, Note_off_c, 2, 66, 95
3, 43680, Note_on_c, 2, 78, 95
3, 43680, Note_on_c, 2, 66, 95
3, 43704, Note_off_c, 2, 78, 95
3, 43704, Note_off_c, 2, 66, 95
3, 43728, Note_on_c, 2, 78, 95
3, 43728, Note_on_c, 2, 66, 95
3, 43752, Note_off_c, 2, 78, 95
3, 43752, Note_off_c, 2, 66, 95
3, 43776, Note_off_c, 2, 54, 95
3, 43776, Note_off_c, 2, 49, 95
3, 45312, Note_on_c, 2, 57, 95
3, 45312, Note_on_c, 2, 52, 95
3, 45504, Note_on_c, 2, 78, 95
3, 45504, Note_on_c, 2, 66, 95
3, 45648, Note_off_c, 2, 78, 95
3, 45648, Note_off_c, 2, 66, 95
3, 45648, Note_on_c, 2, 74, 95
3, 45648, Note_on_c, 2, 62, 95
3, 45792, Note_off_c, 2, 74, 95
3, 45792, Note_off_c, 2, 62, 95
3, 45792, Note_on_c, 2, 71, 95
3, 45792, Note_on_c, 2, 59, 95
3, 45888, Note_off_c, 2, 57, 95
3, 45888, Note_off_c, 2, 52, 95
3, 45888, Note_off_c, 2, 71, 95
3, 45888, Note_off_c, 2, 59, 95
3, 45888, Note_on_c, 2, 78, 95
3, 45888, Note_on_c, 2, 66, 95
3, 45888, Note_on_c, 2, 54, 95
3, 45888, Note_on_c, 2, 49, 95
3, 46080, Note_off_c, 2, 78, 95
3, 46080, Note_off_c, 2, 66, 95
3, 46080, Note_off_c, 2, 54, 95
3, 46080, Note_off_c, 2, 49, 95
3, 46080, Note_on_c, 2, 55, 95
3, 46080, Note_on_c, 2, 50, 95
3, 46272, Note_on_c, 2, 78, 95
3, 46272, Note_on_c, 2, 66, 95
3, 46416, Note_off_c, 2, 78, 95
3, 46416, Note_off_c, 2, 66, 95
3, 46416, Note_on_c, 2, 74, 95
3, 46416, Note_on_c, 2, 62, 95
3, 46560, Note_off_c, 2, 74, 95
3, 46560, Note_off_c, 2, 62, 95
3, 46560, Note_on_c, 2, 71, 95
3, 46560, Note_on_c, 2, 59, 95
3, 46656, Note_off_c, 2, 55, 95
3, 46656, Note_off_c, 2, 50, 95
3, 46656, Note_off_c, 2, 71, 95
3, 46656, Note_off_c, 2, 59, 95
3, 46656, Note_on_c, 2, 54, 95
3, 46656, Note_on_c, 2, 49, 95
3, 46656, Note_on_c, 2, 78, 95
3, 46656, Note_on_c, 2, 66, 95
3, 46680, Note_off_c, 2, 78, 95
3, 46680, Note_off_c, 2, 66, 95
3, 46704, Note_on_c, 2, 78, 95
3, 46704, Note_on_c, 2, 66, 95
3, 46728, Note_off_c, 2, 78, 95
3, 46728, Note_off_c, 2, 66, 95
3, 46752, Note_on_c, 2, 78, 95
3, 46752, Note_on_c, 2, 66, 95
3, 46776, Note_off_c, 2, 78, 95
3, 46776, Note_off_c, 2, 66, 95
3, 46800, Note_on_c, 2, 78, 95
3, 46800, Note_on_c, 2, 66, 95
3, 46824, Note_off_c, 2, 78, 95
3, 46824, Note_off_c, 2, 66, 95
3, 46848, Note_off_c, 2, 54, 95
3, 46848, Note_off_c, 2, 49, 95
3, 46848, Note_on_c, 2, 55, 95
3, 46848, Note_on_c, 2, 50, 95
3, 47040, Note_on_c, 2, 78, 95
3, 47040, Note_on_c, 2, 66, 95
3, 47184, Note_off_c, 2, 78, 95
3, 47184, Note_off_c, 2, 66, 95
3, 47184, Note_on_c, 2, 74, 95
3, 47184, Note_on_c, 2, 62, 95
3, 47328, Note_off_c, 2, 74, 95
3, 47328, Note_off_c, 2, 62, 95
3, 47328, Note_on_c, 2, 71, 95
3, 47328, Note_on_c, 2, 59, 95
3, 47424, Note_off_c, 2, 55, 95
3, 47424, Note_off_c, 2, 50, 95
3, 47424, Note_off_c, 2, 71, 95
3, 47424, Note_off_c, 2, 59, 95
3, 47424, Note_on_c, 2, 78, 95
3, 47424, Note_on_c, 2, 66, 95
3, 47424, Note_on_c, 2, 57, 95
3, 47424, Note_on_c, 2, 52, 95
3, 47616, Note_off_c, 2, 78, 95
3, 47616, Note_off_c, 2, 66, 95
3, 47616, Note_off_c, 2, 57, 95
3, 47616, Note_off_c, 2, 52, 95
3, 47616, Note_on_c, 2, 54, 95
3, 47616, Note_on_c, 2, 59, 95
3, 47808, Note_on_c, 2, 78, 95
3, 47808, Note_on_c, 2, 66, 95
3, 47952, Note_off_c, 2, 78, 95
3, 47952, Note_off_c, 2, 66, 95
3, 47952, Note_on_c, 2, 74, 95
3, 47952, Note_on_c, 2, 62, 95
3, 48096, Note_off_c, 2, 59, 95
3, 48096, Note_off_c, 2, 74, 95
3, 48096, Note_off_c, 2, 62, 95
3, 48096, Note_on_c, 2, 71, 95
3, 48096, Note_on_c, 2, 59, 95
3, 48192, Note_off_c, 2, 54, 95
3, 48192, Note_off_c, 2, 71, 95
3, 48192, Note_off_c, 2, 59, 95
3, 48192, Note_on_c, 2, 78, 95
3, 48192, Note_on_c, 2, 66, 95
3, 48192, Note_on_c, 2, 62, 95
3, 48192, Note_on_c, 2, 57, 95
3, 48384, Note_off_c, 2, 78, 95
3, 48384, Note_off_c, 2, 66, 95
3, 48384, Note_off_c, 2, 62, 95
3, 48384, Note_off_c, 2, 57, 95
3, 48384, Note_on_c, 2, 57, 95
3, 48384, Note_on_c, 2, 52, 95
3, 48576, Note_on_c, 2, 78, 95
3, 48576, Note_on_c, 2, 66, 95
3, 48720, Note_off_c, 2, 78, 95
3, 48720, Note_off_c, 2, 66, 95
3, 48720, Note_on_c, 2, 74, 95
3, 48720, Note_on_c, 2, 62, 95
3, 48864, Note_off_c, 2, 74, 95
3, 48864, Note_off_c, 2, 62, 95
3, 48864, Note_on_c, 2, 71, 95
3, 48864, Note_on_c, 2, 59, 95
3, 48960, Note_off_c, 2, 57, 95
3, 48960, Note_off_c, 2, 52, 95
3, 48960, Note_off_c, 2, 71, 95
3, 48960, Note_off_c, 2, 59, 95
3, 48960, Note_on_c, 2, 78, 95
3, 48960, Note_on_c, 2, 66, 95
3, 48960, Note_on_c, 2, 54, 95
3, 48960, Note_on_c, 2, 49, 95
3, 49152, Note_off_c, 2, 78, 95
3, 49152, Note_off_c, 2, 66, 95
3, 49152, Note_off_c, 2, 54, 95
3, 49152, Note_off_c, 2, 49, 95
3, 49152, Note_on_c, 2, 55, 95
3, 49152, Note_on_c, 2, 50, 95
3, 49344, Note_on_c, 2, 78, 95
3, 49344, Note_on_c, 2, 66, 95
3, 49488, Note_off_c, 2, 78, 95
3, 49488, Note_off_c, 2, 66, 95
3, 49488, Note_on_c, 2, 74, 95
3, 49488, Note_on_c, 2, 62, 95
3, 49632, Note_off_c, 2, 74, 95
3, 49632, Note_off_c, 2, 62, 95
3, 49632, Note_on_c, 2, 71, 95
3, 49632, Note_on_c, 2, 59, 95
3, 49728, Note_off_c, 2, 55, 95
3, 49728, Note_off_c, 2, 50, 95
3, 49728, Note_off_c, 2, 71, 95
3, 49728, Note_off_c, 2, 59, 95
3, 49728, Note_on_c, 2, 54, 95
3, 49728, Note_on_c, 2, 49, 95
3, 49728, Note_on_c, 2, 78, 95
3, 49728, Note_on_c, 2, 66, 95
3, 49752, Note_off_c, 2, 78, 95
3, 49752, Note_off_c, 2, 66, 95
3, 49776, Note_on_c, 2, 78, 95
3, 49776, Note_on_c, 2, 66, 95
3, 49800, Note_off_c, 2, 78, 95
3, 49800, Note_off_c, 2, 66, 95
3, 49824, Note_on_c, 2, 78, 95
3, 49824, Note_on_c, 2, 66, 95
3, 49848, Note_off_c, 2, 78, 95
3, 49848, Note_off_c, 2, 66, 95
3, 49872, Note_on_c, 2, 78, 95
3, 49872, Note_on_c, 2, 66, 95
3, 49896, Note_off_c, 2, 78, 95
3, 49896, Note_off_c, 2, 66, 95
3, 49920, Note_off_c, 2, 54, 95
3, 49920, Note_off_c, 2, 49, 95
3, 49920, Note_on_c, 2, 55, 95
3, 49920, Note_on_c, 2, 50, 95
3, 50112, Note_on_c, 2, 78, 95
3, 50112, Note_on_c, 2, 66, 95
3, 50256, Note_off_c, 2, 78, 95
3, 50256, Note_off_c, 2, 66, 95
3, 50256, Note_on_c, 2, 74, 95
3, 50256, Note_on_c, 2, 62, 95
3, 50400, Note_off_c, 2, 74, 95
3, 50400, Note_off_c, 2, 62, 95
3, 50400, Note_on_c, 2, 71, 95
3, 50400, Note_on_c, 2, 59, 95
3, 50496, Note_off_c, 2, 55, 95
3, 50496, Note_off_c, 2, 50, 95
3, 50496, Note_off_c, 2, 71, 95
3, 50496, Note_off_c, 2, 59, 95
3, 50496, Note_on_c, 2, 78, 95
3, 50496, Note_on_c, 2, 66, 95
3, 50496, Note_on_c, 2, 57, 95
3, 50496, Note_on_c, 2, 52, 95
3, 50688, Note_off_c, 2, 78, 95
3, 50688, Note_off_c, 2, 66, 95
3, 50688, Note_off_c, 2, 57, 95
3, 50688, Note_off_c, 2, 52, 95
3, 50688, Note_on_c, 2, 54, 95
3, 50688, Note_on_c, 2, 59, 95
3, 50880, Note_on_c, 2, 78, 95
3, 50880, Note_on_c, 2, 66, 95
3, 51024, Note_off_c, 2, 78, 95
3, 51024, Note_off_c, 2, 66, 95
3, 51024, Note_on_c, 2, 74, 95
3, 51024, Note_on_c, 2, 62, 95
3, 51168, Note_off_c, 2, 59, 95
3, 51168, Note_off_c, 2, 74, 95
3, 51168, Note_off_c, 2, 62, 95
3, 51168, Note_on_c, 2, 71, 95
3, 51168, Note_on_c, 2, 59, 95
3, 51264, Note_off_c, 2, 54, 95
3, 51264, Note_off_c, 2, 71, 95
3, 51264, Note_off_c, 2, 59, 95
3, 51264, Note_on_c, 2, 78, 95
3, 51264, Note_on_c, 2, 66, 95
3, 51264, Note_on_c, 2, 62, 95
3, 51264, Note_on_c, 2, 57, 95
3, 51456, Note_off_c, 2, 78, 95
3, 51456, Note_off_c, 2, 66, 95
3, 51456, Note_off_c, 2, 62, 95
3, 51456, Note_off_c, 2, 57, 95
3, 51456, Note_on_c, 2, 57, 95
3, 51456, Note_on_c, 2, 52, 95
3, 51648, Note_on_c, 2, 78, 95
3, 51648, Note_on_c, 2, 66, 95
3, 51792, Note_off_c, 2, 78, 95
3, 51792, Note_off_c, 2, 66, 95
3, 51792, Note_on_c, 2, 74, 95
3, 51792, Note_on_c, 2, 62, 95
3, 51936, Note_off_c, 2, 74, 95
3, 51936, Note_off_c, 2, 62, 95
3, 51936, Note_on_c, 2, 71, 95
3, 51936, Note_on_c, 2, 59, 95
3, 52032, Note_off_c, 2, 57, 95
3, 52032, Note_off_c, 2, 52, 95
3, 52032, Note_off_c, 2, 71, 95
3, 52032, Note_off_c, 2, 59, 95
3, 52032, Note_on_c, 2, 78, 95
3, 52032, Note_on_c, 2, 66, 95
3, 52032, Note_on_c, 2, 54, 95
3, 52032, Note_on_c, 2, 49, 95
3, 52224, Note_off_c, 2, 78, 95
3, 52224, Note_off_c, 2, 66, 95
3, 52224, Note_off_c, 2, 54, 95
3, 52224, Note_off_c, 2, 49, 95
3, 52224, Note_on_c, 2, 55, 95
3, 52224, Note_on_c, 2, 50, 95
3, 52416, Note_on_c, 2, 78, 95
3, 52416, Note_on_c, 2, 66, 95
3, 52560, Note_off_c, 2, 78, 95
3, 52560, Note_off_c, 2, 66, 95
3, 52560, Note_on_c, 2, 74, 95
3, 52560, Note_on_c, 2, 62, 95
3, 52704, Note_off_c, 2, 74, 95
3, 52704, Note_off_c, 2, 62, 95
3, 52704, Note_on_c, 2, 71, 95
3, 52704, Note_on_c, 2, 59, 95
3, 52800, Note_off_c, 2, 55, 95
3, 52800, Note_off_c, 2, 50, 95
3, 52800, Note_off_c, 2, 71, 95
3, 52800, Note_off_c, 2, 59, 95
3, 52800, Note_on_c, 2, 54, 95
3, 52800, Note_on_c, 2, 49, 95
3, 52800, Note_on_c, 2, 78, 95
3, 52800, Note_on_c, 2, 66, 95
3, 52824, Note_off_c, 2, 78, 95
3, 52824, Note_off_c, 2, 66, 95
3, 52848, Note_on_c, 2, 78, 95
3, 52848, Note_on_c, 2, 66, 95
3, 52872, Note_off_c, 2, 78, 95
3, 52872, Note_off_c, 2, 66, 95
3, 52896, Note_on_c, 2, 78, 95
3, 52896, Note_on_c, 2, 66, 95
3, 52920, Note_off_c, 2, 78, 95
3, 52920, Note_off_c, 2, 66, 95
3, 52944, Note_on_c, 2, 78, 95
3, 52944, Note_on_c, 2, 66, 95
3, 52968, Note_off_c, 2, 78, 95
3, 52968, Note_off_c, 2, 66, 95
3, 52992, Note_off_c, 2, 54, 95
3, 52992, Note_off_c, 2, 49, 95
3, 52992, Note_on_c, 2, 55, 95
3, 52992, Note_on_c, 2, 50, 95
3, 53184, Note_on_c, 2, 78, 95
3, 53184, Note_on_c, 2, 66, 95
3, 53328, Note_off_c, 2, 78, 95
3, 53328, Note_off_c, 2, 66, 95
3, 53328, Note_on_c, 2, 74, 95
3, 53328, Note_on_c, 2, 62, 95
3, 53472, Note_off_c, 2, 74, 95
3, 53472, Note_off_c, 2, 62, 95
3, 53472, Note_on_c, 2, 71, 95
3, 53472, Note_on_c, 2, 59, 95
3, 53568, Note_off_c, 2, 55, 95
3, 53568, Note_off_c, 2, 50, 95
3, 53568, Note_off_c, 2, 71, 95
3, 53568, Note_off_c, 2, 59, 95
3, 53568, Note_on_c, 2, 78, 95
3, 53568, Note_on_c, 2, 66, 95
3, 53568, Note_on_c, 2, 57, 95
3, 53568, Note_on_c, 2, 52, 95
3, 53760, Note_off_c, 2, 78, 95
3, 53760, Note_off_c, 2, 66, 95
3, 53760, Note_off_c, 2, 57, 95
3, 53760, Note_off_c, 2, 52, 95
3, 53760, Note_on_c, 2, 54, 95
3, 53760, Note_on_c, 2, 59, 95
3, 53952, Note_on_c, 2, 78, 95
3, 53952, Note_on_c, 2, 66, 95
3, 54096, Note_off_c, 2, 78, 95
3, 54096, Note_off_c, 2, 66, 95
3, 54096, Note_on_c, 2, 74, 95
3, 54096, Note_on_c, 2, 62, 95
3, 54240, Note_off_c, 2, 59, 95
3, 54240, Note_off_c, 2, 74, 95
3, 54240, Note_off_c, 2, 62, 95
3, 54240, Note_on_c, 2, 71, 95
3, 54240, Note_on_c, 2, 59, 95
3, 54336, Note_off_c, 2, 54, 95
3, 54336, Note_off_c, 2, 71, 95
3, 54336, Note_off_c, 2, 59, 95
3, 54336, Note_on_c, 2, 78, 95
3, 54336, Note_on_c, 2, 66, 95
3, 54336, Note_on_c, 2, 62, 95
3, 54336, Note_on_c, 2, 57, 95
3, 54528, Note_off_c, 2, 78, 95
3, 54528, Note_off_c, 2, 66, 95
3, 54528, Note_off_c, 2, 62, 95
3, 54528, Note_off_c, 2, 57, 95
3, 54528, Note_on_c, 2, 57, 95
3, 54528, Note_on_c, 2, 52, 95
3, 54720, Note_on_c, 2, 78, 95
3, 54720, Note_on_c, 2, 66, 95
3, 54864, Note_off_c, 2, 78, 95
3, 54864, Note_off_c, 2, 66, 95
3, 54864, Note_on_c, 2, 74, 95
3, 54864, Note_on_c, 2, 62, 95
3, 55008, Note_off_c, 2, 74, 95
3, 55008, Note_off_c, 2, 62, 95
3, 55008, Note_on_c, 2, 71, 95
3, 55008, Note_on_c, 2, 59, 95
3, 55104, Note_off_c, 2, 57, 95
3, 55104, Note_off_c, 2, 52, 95
3, 55104, Note_off_c, 2, 71, 95
3, 55104, Note_off_c, 2, 59, 95
3, 55104, Note_on_c, 2, 78, 95
3, 55104, Note_on_c, 2, 66, 95
3, 55104, Note_on_c, 2, 54, 95
3, 55104, Note_on_c, 2, 49, 95
3, 55296, Note_off_c, 2, 78, 95
3, 55296, Note_off_c, 2, 66, 95
3, 55296, Note_off_c, 2, 54, 95
3, 55296, Note_off_c, 2, 49, 95
3, 55296, Note_on_c, 2, 55, 95
3, 55296, Note_on_c, 2, 50, 95
3, 55488, Note_on_c, 2, 78, 95
3, 55488, Note_on_c, 2, 66, 95
3, 55632, Note_off_c, 2, 78, 95
3, 55632, Note_off_c, 2, 66, 95
3, 55632, Note_on_c, 2, 74, 95
3, 55632, Note_on_c, 2, 62, 95
3, 55776, Note_off_c, 2, 74, 95
3, 55776, Note_off_c, 2, 62, 95
3, 55776, Note_on_c, 2, 71, 95
3, 55776, Note_on_c, 2, 59, 95
3, 55872, Note_off_c, 2, 55, 95
3, 55872, Note_off_c, 2, 50, 95
3, 55872, Note_off_c, 2, 71, 95
3, 55872, Note_off_c, 2, 59, 95
3, 55872, Note_on_c, 2, 54, 95
3, 55872, Note_on_c, 2, 49, 95
3, 55872, Note_on_c, 2, 78, 95
3, 55872, Note_on_c, 2, 66, 95
3, 55896, Note_off_c, 2, 78, 95
3, 55896, Note_off_c, 2, 66, 95
3, 55920, Note_on_c, 2, 78, 95
3, 55920, Note_on_c, 2, 66, 95
3, 55944, Note_off_c, 2, 78, 95
3, 55944, Note_off_c, 2, 66, 95
3, 55968, Note_on_c, 2, 78, 95
3, 55968, Note_on_c, 2, 66, 95
3, 55992, Note_off_c, 2, 78, 95
3, 55992, Note_off_c, 2, 66, 95
3, 56016, Note_on_c, 2, 78, 95
3, 56016, Note_on_c, 2, 66, 95
3, 56040, Note_off_c, 2, 78, 95
3, 56040, Note_off_c, 2, 66, 95
3, 56064, Note_off_c, 2, 54, 95
3, 56064, Note_off_c, 2, 49, 95
3, 56064, Note_on_c, 2, 55, 95
3, 56064, Note_on_c, 2, 50, 95
3, 56256, Note_on_c, 2, 78, 95
3, 56256, Note_on_c, 2, 66, 95
3, 56400, Note_off_c, 2, 78, 95
3, 56400, Note_off_c, 2, 66, 95
3, 56400, Note_on_c, 2, 74, 95
3, 56400, Note_on_c, 2, 62, 95
3, 56544, Note_off_c, 2, 74, 95
3, 56544, Note_off_c, 2, 62, 95
3, 56544, Note_on_c, 2, 71, 95
3, 56544, Note_on_c, 2, 59, 95
3, 56640, Note_off_c, 2, 55, 95
3, 56640, Note_off_c, 2, 50, 95
3, 56640, Note_off_c, 2, 71, 95
3, 56640, Note_off_c, 2, 59, 95
3, 56640, Note_on_c, 2, 78, 95
3, 56640, Note_on_c, 2, 66, 95
3, 56640, Note_on_c, 2, 57, 95
3, 56640, Note_on_c, 2, 52, 95
3, 56832, Note_off_c, 2, 78, 95
3, 56832, Note_off_c, 2, 66, 95
3, 56832, Note_off_c, 2, 57, 95
3, 56832, Note_off_c, 2, 52, 95
3, 56832, Note_on_c, 2, 54, 95
3, 56832, Note_on_c, 2, 59, 95
3, 57024, Note_on_c, 2, 78, 95
3, 57024, Note_on_c, 2, 66, 95
3, 57168, Note_off_c, 2, 78, 95
3, 57168, Note_off_c, 2, 66, 95
3, 57168, Note_on_c, 2, 74, 95
3, 57168, Note_on_c, 2, 62, 95
3, 57312, Note_off_c, 2, 59, 95
3, 57312, Note_off_c, 2, 74, 95
3, 57312, Note_off_c, 2, 62, 95
3, 57312, Note_on_c, 2, 71, 95
3, 57312, Note_on_c, 2, 59, 95
3, 57408, Note_off_c, 2, 54, 95
3, 57408, Note_off_c, 2, 71, 95
3, 57408, Note_off_c, 2, 59, 95
3, 57408, Note_on_c, 2, 78, 95
3, 57408, Note_on_c, 2, 66, 95
3, 57408, Note_on_c, 2, 62, 95
3, 57408, Note_on_c, 2, 57, 95
3, 57600, Note_off_c, 2, 78, 95
3, 57600, Note_off_c, 2, 66, 95
3, 57600, Note_off_c, 2, 62, 95
3, 57600, Note_off_c, 2, 57, 95
3, 57600, Note_on_c, 2, 57, 95
3, 57600, Note_on_c, 2, 52, 95
3, 57792, Note_on_c, 2, 78, 95
3, 57792, Note_on_c, 2, 66, 95
3, 57936, Note_off_c, 2, 78, 95
3, 57936, Note_off_c, 2, 66, 95
3, 57936, Note_on_c, 2, 74, 95
3, 57936, Note_on_c, 2, 62, 95
3, 58080, Note_off_c, 2, 74, 95
3, 58080, Note_off_c, 2, 62, 95
3, 58080, Note_on_c, 2, 71, 95
3, 58080, Note_on_c, 2, 59, 95
3, 58176, Note_off_c, 2, 57, 95
3, 58176, Note_off_c, 2, 52, 95
3, 58176, Note_off_c, 2, 71, 95
3, 58176, Note_off_c, 2, 59, 95
3, 58176, Note_on_c, 2, 78, 95
3, 58176, Note_on_c, 2, 66, 95
3, 58176, Note_on_c, 2, 54, 95
3, 58176, Note_on_c, 2, 49, 95
3, 58368, Note_off_c, 2, 78, 95
3, 58368, Note_off_c, 2, 66, 95
3, 58368, Note_off_c, 2, 54, 95
3, 58368, Note_off_c, 2, 49, 95
3, 58368, Note_on_c, 2, 55, 95
3, 58368, Note_on_c, 2, 50, 95
3, 58560, Note_on_c, 2, 78, 95
3, 58560, Note_on_c, 2, 66, 95
3, 58704, Note_off_c, 2, 78, 95
3, 58704, Note_off_c, 2, 66, 95
3, 58704, Note_on_c, 2, 74, 95
3, 58704, Note_on_c, 2, 62, 95
3, 58848, Note_off_c, 2, 74, 95
3, 58848, Note_off_c, 2, 62, 95
3, 58848, Note_on_c, 2, 71, 95
3, 58848, Note_on_c, 2, 59, 95
3, 58944, Note_off_c, 2, 55, 95
3, 58944, Note_off_c, 2, 50, 95
3, 58944, Note_off_c, 2, 71, 95
3, 58944, Note_off_c, 2, 59, 95
3, 58944, Note_on_c, 2, 54, 95
3, 58944, Note_on_c, 2, 49, 95
3, 58944, Note_on_c, 2, 78, 95
3, 58944, Note_on_c, 2, 66, 95
3, 58968, Note_off_c, 2, 78, 95
3, 58968, Note_off_c, 2, 66, 95
3, 58992, Note_on_c, 2, 78, 95
3, 58992, Note_on_c, 2, 66, 95
3, 59016, Note_off_c, 2, 78, 95
3, 59016, Note_off_c, 2, 66, 95
3, 59040, Note_on_c, 2, 78, 95
3, 59040, Note_on_c, 2, 66, 95
3, 59064, Note_off_c, 2, 78, 95
3, 59064, Note_off_c, 2, 66, 95
3, 59088, Note_on_c, 2, 78, 95
3, 59088, Note_on_c, 2, 66, 95
3, 59112, Note_off_c, 2, 78, 95
3, 59112, Note_off_c, 2, 66, 95
3, 59136, Note_off_c, 2, 54, 95
3, 59136, Note_off_c, 2, 49, 95
3, 59136, Note_on_c, 2, 55, 95
3, 59136, Note_on_c, 2, 50, 95
3, 59328, Note_on_c, 2, 78, 95
3, 59328, Note_on_c, 2, 66, 95
3, 59472, Note_off_c, 2, 78, 95
3, 59472, Note_off_c, 2, 66, 95
3, 59472, Note_on_c, 2, 74, 95
3, 59472, Note_on_c, 2, 62, 95
3, 59616, Note_off_c, 2, 74, 95
3, 59616, Note_off_c, 2, 62, 95
3, 59616, Note_on_c, 2, 71, 95
3, 59616, Note_on_c, 2, 59, 95
3, 59712, Note_off_c, 2, 55, 95
3, 59712, Note_off_c, 2, 50, 95
3, 59712, Note_off_c, 2, 71, 95
3, 59712, Note_off_c, 2, 59, 95
3, 59712, Note_on_c, 2, 78, 95
3, 59712, Note_on_c, 2, 66, 95
3, 59712, Note_on_c, 2, 57, 95
3, 59712, Note_on_c, 2, 52, 95
3, 59904, Note_off_c, 2, 78, 95
3, 59904, Note_off_c, 2, 66, 95
3, 59904, Note_off_c, 2, 57, 95
3, 59904, Note_off_c, 2, 52, 95
3, 59904, Note_on_c, 2, 54, 95
3, 59904, Note_on_c, 2, 59, 95
3, 60096, Note_on_c, 2, 78, 95
3, 60096, Note_on_c, 2, 66, 95
3, 60240, Note_off_c, 2, 78, 95
3, 60240, Note_off_c, 2, 66, 95
3, 60240, Note_on_c, 2, 74, 95
3, 60240, Note_on_c, 2, 62, 95
3, 60384, Note_off_c, 2, 59, 95
3, 60384, Note_off_c, 2, 74, 95
3, 60384, Note_off_c, 2, 62, 95
3, 60384, Note_on_c, 2, 71, 95
3, 60384, Note_on_c, 2, 59, 95
3, 60480, Note_off_c, 2, 54, 95
3, 60480, Note_off_c, 2, 71, 95
3, 60480, Note_off_c, 2, 59, 95
3, 60480, Note_on_c, 2, 78, 95
3, 60480, Note_on_c, 2, 66, 95
3, 60480, Note_on_c, 2, 62, 95
3, 60480, Note_on_c, 2, 57, 95
3, 60672, Note_off_c, 2, 78, 95
3, 60672, Note_off_c, 2, 66, 95
3, 60672, Note_off_c, 2, 62, 95
3, 60672, Note_off_c, 2, 57, 95
3, 60672, Note_on_c, 2, 57, 95
3, 60672, Note_on_c, 2, 52, 95
3, 60864, Note_on_c, 2, 78, 95
3, 60864, Note_on_c, 2, 66, 95
3, 61008, Note_off_c, 2, 78, 95
3, 61008, Note_off_c, 2, 66, 95
3, 61008, Note_on_c, 2, 74, 95
3, 61008, Note_on_c, 2, 62, 95
3, 61152, Note_off_c, 2, 74, 95
3, 61152, Note_off_c, 2, 62, 95
3, 61152, Note_on_c, 2, 71, 95
3, 61152, Note_on_c, 2, 59, 95
3, 61248, Note_off_c, 2, 57, 95
3, 61248, Note_off_c, 2, 52, 95
3, 61248, Note_off_c, 2, 71, 95
3, 61248, Note_off_c, 2, 59, 95
3, 61248, Note_on_c, 2, 78, 95
3, 61248, Note_on_c, 2, 66, 95
3, 61248, Note_on_c, 2, 54, 95
3, 61248, Note_on_c, 2, 49, 95
3, 61440, Note_off_c, 2, 78, 95
3, 61440, Note_off_c, 2, 66, 95
3, 61440, Note_off_c, 2, 54, 95
3, 61440, Note_off_c, 2, 49, 95
3, 61440, Note_on_c, 2, 55, 95
3, 61440, Note_on_c, 2, 50, 95
3, 61632, Note_on_c, 2, 78, 95
3, 61632, Note_on_c, 2, 66, 95
3, 61776, Note_off_c, 2, 78, 95
3, 61776, Note_off_c, 2, 66, 95
3, 61776, Note_on_c, 2, 74, 95
3, 61776, Note_on_c, 2, 62, 95
3, 61920, Note_off_c, 2, 74, 95
3, 61920, Note_off_c, 2, 62, 95
3, 61920, Note_on_c, 2, 71, 95
3, 61920, Note_on_c, 2, 59, 95
3, 62016, Note_off_c, 2, 55, 95
3, 62016, Note_off_c, 2, 50, 95
3, 62016, Note_off_c, 2, 71, 95
3, 62016, Note_off_c, 2, 59, 95
3, 62016, Note_on_c, 2, 54, 95
3, 62016, Note_on_c, 2, 49, 95
3, 62016, Note_on_c, 2, 78, 95
3, 62016, Note_on_c, 2, 66, 95
3, 62040, Note_off_c, 2, 78, 95
3, 62040, Note_off_c, 2, 66, 95
3, 62064, Note_on_c, 2, 78, 95
3, 62064, Note_on_c, 2, 66, 95
3, 62088, Note_off_c, 2, 78, 95
3, 62088, Note_off_c, 2, 66, 95
3, 62112, Note_on_c, 2, 78, 95
3, 62112, Note_on_c, 2, 66, 95
3, 62136, Note_off_c, 2, 78, 95
3, 62136, Note_off_c, 2, 66, 95
3, 62160, Note_on_c, 2, 78, 95
3, 62160, Note_on_c, 2, 66, 95
3, 62184, Note_off_c, 2, 78, 95
3, 62184, Note_off_c, 2, 66, 95
3, 62208, Note_off_c, 2, 54, 95
3, 62208, Note_off_c, 2, 49, 95
3, 62208, Note_on_c, 2, 55, 95
3, 62208, Note_on_c, 2, 50, 95
3, 62400, Note_on_c, 2, 78, 95
3, 62400, Note_on_c, 2, 66, 95
3, 62544, Note_off_c, 2, 78, 95
3, 62544, Note_off_c, 2, 66, 95
3, 62544, Note_on_c, 2, 74, 95
3, 62544, Note_on_c, 2, 62, 95
3, 62688, Note_off_c, 2, 74, 95
3, 62688, Note_off_c, 2, 62, 95
3, 62688, Note_on_c, 2, 71, 95
3, 62688, Note_on_c, 2, 59, 95
3, 62784, Note_off_c, 2, 55, 95
3, 62784, Note_off_c, 2, 50, 95
3, 62784, Note_off_c, 2, 71, 95
3, 62784, Note_off_c, 2, 59, 95
3, 62784, Note_on_c, 2, 78, 95
3, 62784, Note_on_c, 2, 66, 95
3, 62784, Note_on_c, 2, 57, 95
3, 62784, Note_on_c, 2, 52, 95
3, 62976, Note_off_c, 2, 78, 95
3, 62976, Note_off_c, 2, 66, 95
3, 62976, Note_off_c, 2, 57, 95
3, 62976, Note_off_c, 2, 52, 95
3, 62976, Note_on_c, 2, 54, 95
3, 62976, Note_on_c, 2, 59, 95
3, 63168, Note_on_c, 2, 78, 95
3, 63168, Note_on_c, 2, 66, 95
3, 63312, Note_off_c, 2, 78, 95
3, 63312, Note_off_c, 2, 66, 95
3, 63312, Note_on_c, 2, 74, 95
3, 63312, Note_on_c, 2, 62, 95
3, 63456, Note_off_c, 2, 59, 95
3, 63456, Note_off_c, 2, 74, 95
3, 63456, Note_off_c, 2, 62, 95
3, 63456, Note_on_c, 2, 71, 95
3, 63456, Note_on_c, 2, 59, 95
3, 63552, Note_off_c, 2, 54, 95
3, 63552, Note_off_c, 2, 71, 95
3, 63552, Note_off_c, 2, 59, 95
3, 63552, Note_on_c, 2, 78, 95
3, 63552, Note_on_c, 2, 66, 95
3, 63552, Note_on_c, 2, 62, 95
3, 63552, Note_on_c, 2, 57, 95
3, 63744, Note_off_c, 2, 78, 95
3, 63744, Note_off_c, 2, 66, 95
3, 63744, Note_off_c, 2, 62, 95
3, 63744, Note_off_c, 2, 57, 95
3, 63744, Note_on_c, 2, 57, 95
3, 63744, Note_on_c, 2, 52, 95
3, 63936, Note_on_c, 2, 78, 95
3, 63936, Note_on_c, 2, 66, 95
3, 64080, Note_off_c, 2, 78, 95
3, 64080, Note_off_c, 2, 66, 95
3, 64080, Note_on_c, 2, 74, 95
3, 64080, Note_on_c, 2, 62, 95
3, 64224, Note_off_c, 2, 74, 95
3, 64224, Note_off_c, 2, 62, 95
3, 64224, Note_on_c, 2, 71, 95
3, 64224, Note_on_c, 2, 59, 95
3, 64320, Note_off_c, 2, 57, 95
3, 64320, Note_off_c, 2, 52, 95
3, 64320, Note_off_c, 2, 71, 95
3, 64320, Note_off_c, 2, 59, 95
3, 64320, Note_on_c, 2, 78, 95
3, 64320, Note_on_c, 2, 66, 95
3, 64320, Note_on_c, 2, 54, 95
3, 64320, Note_on_c, 2, 49, 95
3, 64512, Note_off_c, 2, 78, 95
3, 64512, Note_off_c, 2, 66, 95
3, 64512, Note_off_c, 2, 54, 95
3, 64512, Note_off_c, 2, 49, 95
3, 64512, Note_on_c, 2, 55, 95
3, 64512, Note_on_c, 2, 50, 95
3, 64704, Note_on_c, 2, 78, 95
3, 64704, Note_on_c, 2, 66, 95
3, 64848, Note_off_c, 2, 78, 95
3, 64848, Note_off_c, 2, 66, 95
3, 64848, Note_on_c, 2, 74, 95
3, 64848, Note_on_c, 2, 62, 95
3, 64992, Note_off_c, 2, 74, 95
3, 64992, Note_off_c, 2, 62, 95
3, 64992, Note_on_c, 2, 71, 95
3, 64992, Note_on_c, 2, 59, 95
3, 65088, Note_off_c, 2, 55, 95
3, 65088, Note_off_c, 2, 50, 95
3, 65088, Note_off_c, 2, 71, 95
3, 65088, Note_off_c, 2, 59, 95
3, 65088, Note_on_c, 2, 54, 95
3, 65088, Note_on_c, 2, 49, 95
3, 65088, Note_on_c, 2, 78, 95
3, 65088, Note_on_c, 2, 66, 95
3, 65112, Note_off_c, 2, 78, 95
3, 65112, Note_off_c, 2, 66, 95
3, 65136, Note_on_c, 2, 78, 95
3, 65136, Note_on_c, 2, 66, 95
3, 65160, Note_off_c, 2, 78, 95
3, 65160, Note_off_c, 2, 66, 95
3, 65184, Note_on_c, 2, 78, 95
3, 65184, Note_on_c, 2, 66, 95
3, 65208, Note_off_c, 2, 78, 95
3, 65208, Note_off_c, 2, 66, 95
3, 65232, Note_on_c, 2, 78, 95
3, 65232, Note_on_c, 2, 66, 95
3, 65256, Note_off_c, 2, 78, 95
3, 65256, Note_off_c, 2, 66, 95
3, 65280, Note_off_c, 2, 54, 95
3, 65280, Note_off_c, 2, 49, 95
3, 65280, Note_on_c, 2, 55, 95
3, 65280, Note_on_c, 2, 50, 95
3, 65472, Note_on_c, 2, 78, 95
3, 65472, Note_on_c, 2, 66, 95
3, 65616, Note_off_c, 2, 78, 95
3, 65616, Note_off_c, 2, 66, 95
3, 65616, Note_on_c, 2, 74, 95
3, 65616, Note_on_c, 2, 62, 95
3, 65760, Note_off_c, 2, 74, 95
3, 65760, Note_off_c, 2, 62, 95
3, 65760, Note_on_c, 2, 71, 95
3, 65760, Note_on_c, 2, 59, 95
3, 65856, Note_off_c, 2, 55, 95
3, 65856, Note_off_c, 2, 50, 95
3, 65856, Note_off_c, 2, 71, 95
3, 65856, Note_off_c, 2, 59, 95
3, 65856, Note_on_c, 2, 78, 95
3, 65856, Note_on_c, 2, 66, 95
3, 65856, Note_on_c, 2, 57, 95
3, 65856, Note_on_c, 2, 52, 95
3, 66048, Note_off_c, 2, 78, 95
3, 66048, Note_off_c, 2, 66, 95
3, 66048, Note_off_c, 2, 57, 95
3, 66048, Note_off_c, 2, 52, 95
3, 66048, Note_on_c, 2, 54, 95
3, 66048, Note_on_c, 2, 59, 95
3, 66240, Note_on_c, 2, 78, 95
3, 66240, Note_on_c, 2, 66, 95
3, 66384, Note_off_c, 2, 78, 95
3, 66384, Note_off_c, 2, 66, 95
3, 66384, Note_on_c, 2, 74, 95
3, 66384, Note_on_c, 2, 62, 95
3, 66528, Note_off_c, 2, 59, 95
3, 66528, Note_off_c, 2, 74, 95
3, 66528, Note_off_c, 2, 62, 95
3, 66528, Note_on_c, 2, 71, 95
3, 66528, Note_on_c, 2, 59, 95
3, 66624, Note_off_c, 2, 54, 95
3, 66624, Note_off_c, 2, 71, 95
3, 66624, Note_off_c, 2, 59, 95
3, 66624, Note_on_c, 2, 78, 95
3, 66624, Note_on_c, 2, 66, 95
3, 66624, Note_on_c, 2, 62, 95
3, 66624, Note_on_c, 2, 57, 95
3, 66816, Note_off_c, 2, 78, 95
3, 66816, Note_off_c, 2, 66, 95
3, 66816, Note_off_c, 2, 62, 95
3, 66816, Note_off_c, 2, 57, 95
3, 66816, Note_on_c, 2, 57, 95
3, 66816, Note_on_c, 2, 52, 95
3, 67008, Note_on_c, 2, 78, 95
3, 67008, Note_on_c, 2, 66, 95
3, 67152, Note_off_c, 2, 78, 95
3, 67152, Note_off_c, 2, 66, 95
3, 67152, Note_on_c, 2, 74, 95
3, 67152, Note_on_c, 2, 62, 95
3, 67296, Note_off_c, 2, 74, 95
3, 67296, Note_off_c, 2, 62, 95
3, 67296, Note_on_c, 2, 71, 95
3, 67296, Note_on_c, 2, 59, 95
3, 67392, Note_off_c, 2, 57, 95
3, 67392, Note_off_c, 2, 52, 95
3, 67392, Note_off_c, 2, 71, 95
3, 67392, Note_off_c, 2, 59, 95
3, 67392, Note_on_c, 2, 78, 95
3, 67392, Note_on_c, 2, 66, 95
3, 67392, Note_on_c, 2, 54, 95
3, 67392, Note_on_c, 2, 49, 95
3, 67584, Note_off_c, 2, 78, 95
3, 67584, Note_off_c, 2, 66, 95
3, 67584, Note_off_c, 2, 54, 95
3, 67584, Note_off_c, 2, 49, 95
3, 67584, Note_on_c, 2, 55, 95
3, 67584, Note_on_c, 2, 50, 95
3, 67776, Note_on_c, 2, 78, 95
3, 67776, Note_on_c, 2, 66, 95
3, 67920, Note_off_c, 2, 78, 95
3, 67920, Note_off_c, 2, 66, 95
3, 67920, Note_on_c, 2, 74, 95
3, 67920, Note_on_c, 2, 62, 95
3, 68064, Note_off_c, 2, 74, 95
3, 68064, Note_off_c, 2, 62, 95
3, 68064, Note_on_c, 2, 71, 95
3, 68064, Note_on_c, 2, 59, 95
3, 68160, Note_off_c, 2, 55, 95
3, 68160, Note_off_c, 2, 50, 95
3, 68160, Note_off_c, 2, 71, 95
3, 68160, Note_off_c, 2, 59, 95
3, 68160, Note_on_c, 2, 54, 95
3, 68160, Note_on_c, 2, 49, 95
3, 68160, Note_on_c, 2, 78, 95
3, 68160, Note_on_c, 2, 66, 95
3, 68184, Note_off_c, 2, 78, 95
3, 68184, Note_off_c, 2, 66, 95
3, 68208, Note_on_c, 2, 78, 95
3, 68208, Note_on_c, 2, 66, 95
3, 68232, Note_off_c, 2, 78, 95
3, 68232, Note_off_c, 2, 66, 95
3, 68256, Note_on_c, 2, 78, 95
3, 68256, Note_on_c, 2, 66, 95
3, 68280, Note_off_c, 2, 78, 95
3, 68280, Note_off_c, 2, 66, 95
3, 68304, Note_on_c, 2, 78, 95
3, 68304, Note_on_c, 2, 66, 95
3, 68328, Note_off_c, 2, 78, 95
3, 68328, Note_off_c, 2, 66, 95
3, 68352, Note_off_c, 2, 54, 95
3, 68352, Note_off_c, 2, 49, 95
3, 68352, Note_on_c, 2, 55, 95
3, 68352, Note_on_c, 2, 50, 95
3, 68544, Note_on_c, 2, 78, 95
3, 68544, Note_on_c, 2, 66, 95
3, 68688, Note_off_c, 2, 78, 95
3, 68688, Note_off_c, 2, 66, 95
3, 68688, Note_on_c, 2, 74, 95
3, 68688, Note_on_c, 2, 62, 95
3, 68832, Note_off_c, 2, 74, 95
3, 68832, Note_off_c, 2, 62, 95
3, 68832, Note_on_c, 2, 71, 95
3, 68832, Note_on_c, 2, 59, 95
3, 68928, Note_off_c, 2, 55, 95
3, 68928, Note_off_c, 2, 50, 95
3, 68928, Note_off_c, 2, 71, 95
3, 68928, Note_off_c, 2, 59, 95
3, 68928, Note_on_c, 2, 78, 95
3, 68928, Note_on_c, 2, 66, 95
3, 68928, Note_on_c, 2, 57, 95
3, 68928, Note_on_c, 2, 52, 95
3, 69120, Note_off_c, 2, 78, 95
3, 69120, Note_off_c, 2, 66, 95
3, 69120, Note_off_c, 2, 57, 95
3, 69120, Note_off_c, 2, 52, 95
3, 69120, Note_on_c, 2, 54, 95
3, 69120, Note_on_c, 2, 59, 95
3, 69312, Note_on_c, 2, 78, 95
3, 69312, Note_on_c, 2, 66, 95
3, 69456, Note_off_c, 2, 78, 95
3, 69456, Note_off_c, 2, 66, 95
3, 69456, Note_on_c, 2, 74, 95
3, 69456, Note_on_c, 2, 62, 95
3, 69600, Note_off_c, 2, 59, 95
3, 69600, Note_off_c, 2, 74, 95
3, 69600, Note_off_c, 2, 62, 95
3, 69600, Note_on_c, 2, 71, 95
3, 69600, Note_on_c, 2, 59, 95
3, 69696, Note_off_c, 2, 54, 95
3, 69696, Note_off_c, 2, 71, 95
3, 69696, Note_off_c, 2, 59, 95
3, 69696, Note_on_c, 2, 78, 95
3, 69696, Note_on_c, 2, 66, 95
3, 69696, Note_on_c, 2, 62, 95
3, 69696, Note_on_c, 2, 57, 95
3, 69888, Note_off_c, 2, 78, 95
3, 69888, Note_off_c, 2, 66, 95
3, 69888, Note_off_c, 2, 62, 95
3, 69888, Note_off_c, 2, 57, 95
3, 69888, Note_on_c, 2, 57, 95
3, 69888, Note_on_c, 2, 52, 95
3, 70080, Note_on_c, 2, 78, 95
3, 70080, Note_on_c, 2, 66, 95
3, 70224, Note_off_c, 2, 78, 95
3, 70224, Note_off_c, 2, 66, 95
3, 70224, Note_on_c, 2, 74, 95
3, 70224, Note_on_c, 2, 62, 95
3, 70368, Note_off_c, 2, 74, 95
3, 70368, Note_off_c, 2, 62, 95
3, 70368, Note_on_c, 2, 71, 95
3, 70368, Note_on_c, 2, 59, 95
3, 70464, Note_off_c, 2, 57, 95
3, 70464, Note_off_c, 2, 52, 95
3, 70464, Note_off_c, 2, 71, 95
3, 70464, Note_off_c, 2, 59, 95
3, 70464, Note_on_c, 2, 78, 95
3, 70464, Note_on_c, 2, 66, 95
3, 70464, Note_on_c, 2, 54, 95
3, 70464, Note_on_c, 2, 49, 95
3, 70656, Note_off_c, 2, 78, 95
3, 70656, Note_off_c, 2, 66, 95
3, 70656, Note_off_c, 2, 54, 95
3, 70656, Note_off_c, 2, 49, 95
3, 70656, Note_on_c, 2, 55, 95
3, 70656, Note_on_c, 2, 50, 95
3, 70848, Note_on_c, 2, 78, 95
3, 70848, Note_on_c, 2, 66, 95
3, 70992, Note_off_c, 2, 78, 95
3, 70992, Note_off_c, 2, 66, 95
3, 70992, Note_on_c, 2, 74, 95
3, 70992, Note_on_c, 2, 62, 95
3, 71136, Note_off_c, 2, 74, 95
3, 71136, Note_off_c, 2, 62, 95
3, 71136, Note_on_c, 2, 71, 95
3, 71136, Note_on_c, 2, 59, 95
3, 71232, Note_off_c, 2, 55, 95
3, 71232, Note_off_c, 2, 50, 95
3, 71232, Note_off_c, 2, 71, 95
3, 71232, Note_off_c, 2, 59, 95
3, 71232, Note_on_c, 2, 54, 95
3, 71232, Note_on_c, 2, 49, 95
3, 71232, Note_on_c, 2, 78, 95
3, 71232, Note_on_c, 2, 66, 95
3, 71256, Note_off_c, 2, 78, 95
3, 71256, Note_off_c, 2, 66, 95
3, 71280, Note_on_c, 2, 78, 95
3, 71280, Note_on_c, 2, 66, 95
3, 71304, Note_off_c, 2, 78, 95
3, 71304, Note_off_c, 2, 66, 95
3, 71328, Note_on_c, 2, 78, 95
3, 71328, Note_on_c, 2, 66, 95
3, 71352, Note_off_c, 2, 78, 95
3, 71352, Note_off_c, 2, 66, 95
3, 71376, Note_on_c, 2, 78, 95
3, 71376, Note_on_c, 2, 66, 95
3, 71400, Note_off_c, 2, 78, 95
3, 71400, Note_off_c, 2, 66, 95
3, 71424, Note_off_c, 2, 54, 95
3, 71424, Note_off_c, 2, 49, 95
3, 71424, Note_on_c, 2, 55, 95
3, 71424, Note_on_c, 2, 50, 95
3, 71616, Note_on_c, 2, 78, 95
3, 71616, Note_on_c, 2, 66, 95
3, 71760, Note_off_c, 2, 78, 95
3, 71760, Note_off_c, 2, 66, 95
3, 71760, Note_on_c, 2, 74, 95
3, 71760, Note_on_c, 2, 62, 95
3, 71904, Note_off_c, 2, 74, 95
3, 71904, Note_off_c, 2, 62, 95
3, 71904, Note_on_c, 2, 71, 95
3, 71904, Note_on_c, 2, 59, 95
3, 72000, Note_off_c, 2, 55, 95
3, 72000, Note_off_c, 2, 50, 95
3, 72000, Note_off_c, 2, 71, 95
3, 72000, Note_off_c, 2, 59, 95
3, 72000, Note_on_c, 2, 78, 95
3, 72000, Note_on_c, 2, 66, 95
3, 72000, Note_on_c, 2, 57, 95
3, 72000, Note_on_c, 2, 52, 95
3, 72192, Note_off_c, 2, 78, 95
3, 72192, Note_off_c, 2, 66, 95
3, 72192, Note_off_c, 2, 57, 95
3, 72192, Note_off_c, 2, 52, 95
3, 72192, Note_on_c, 2, 54, 95
3, 72192, Note_on_c, 2, 59, 95
3, 72384, Note_on_c, 2, 78, 95
3, 72384, Note_on_c, 2, 66, 95
3, 72528, Note_off_c, 2, 78, 95
3, 72528, Note_off_c, 2, 66, 95
3, 72528, Note_on_c, 2, 74, 95
3, 72528, Note_on_c, 2, 62, 95
3, 72672, Note_off_c, 2, 59, 95
3, 72672, Note_off_c, 2, 74, 95
3, 72672, Note_off_c, 2, 62, 95
3, 72672, Note_on_c, 2, 71, 95
3, 72672, Note_on_c, 2, 59, 95
3, 72768, Note_off_c, 2, 54, 95
3, 72768, Note_off_c, 2, 71, 95
3, 72768, Note_off_c, 2, 59, 95
3, 72768, Note_on_c, 2, 78, 95
3, 72768, Note_on_c, 2, 66, 95
3, 72768, Note_on_c, 2, 62, 95
3, 72768, Note_on_c, 2, 57, 95
3, 72960, Note_off_c, 2, 78, 95
3, 72960, Note_off_c, 2, 66, 95
3, 72960, Note_off_c, 2, 62, 95
3, 72960, Note_off_c, 2, 57, 95
3, 72960, Note_on_c, 2, 57, 95
3, 72960, Note_on_c, 2, 52, 95
3, 73152, Note_on_c, 2, 78, 95
3, 73152, Note_on_c, 2, 66, 95
3, 73296, Note_off_c, 2, 78, 95
3, 73296, Note_off_c, 2, 66, 95
3, 73296, Note_on_c, 2, 74, 95
3, 73296, Note_on_c, 2, 62, 95
3, 73440, Note_off_c, 2, 74, 95
3, 73440, Note_off_c, 2, 62, 95
3, 73440, Note_on_c, 2, 71, 95
3, 73440, Note_on_c, 2, 59, 95
3, 73536, Note_off_c, 2, 57, 95
3, 73536, Note_off_c, 2, 52, 95
3, 73536, Note_off_c, 2, 71, 95
3, 73536, Note_off_c, 2, 59, 95
3, 73536, Note_on_c, 2, 78, 95
3, 73536, Note_on_c, 2, 66, 95
3, 73536, Note_on_c, 2, 54, 95
3, 73536, Note_on_c, 2, 49, 95
3, 73728, Note_off_c, 2, 78, 95
3, 73728, Note_off_c, 2, 66, 95
3, 73728, Note_off_c, 2, 54, 95
3, 73728, Note_off_c, 2, 49, 95
3, 73728, Note_on_c, 2, 55, 95
3, 73728, Note_on_c, 2, 50, 95
3, 73920, Note_on_c, 2, 78, 95
3, 73920, Note_on_c, 2, 66, 95
3, 74064, Note_off_c, 2, 78, 95
3, 74064, Note_off_c, 2, 66, 95
3, 74064, Note_on_c, 2, 74, 95
3, 74064, Note_on_c, 2, 62, 95
3, 74208, Note_off_c, 2, 74, 95
3, 74208, Note_off_c, 2, 62, 95
3, 74208, Note_on_c, 2, 71, 95
3, 74208, Note_on_c, 2, 59, 95
3, 74304, Note_off_c, 2, 55, 95
3, 74304, Note_off_c, 2, 50, 95
3, 74304, Note_off_c, 2, 71, 95
3, 74304, Note_off_c, 2, 59, 95
3, 74304, Note_on_c, 2, 54, 95
3, 74304, Note_on_c, 2, 49, 95
3, 74304, Note_on_c, 2, 78, 95
3, 74304, Note_on_c, 2, 66, 95
3, 74328, Note_off_c, 2, 78, 95
3, 74328, Note_off_c, 2, 66, 95
3, 74352, Note_on_c, 2, 78, 95
3, 74352, Note_on_c, 2, 66, 95
3, 74376, Note_off_c, 2, 78, 95
3, 74376, Note_off_c, 2, 66, 95
3, 74400, Note_on_c, 2, 78, 95
3, 74400, Note_on_c, 2, 66, 95
3, 74424, Note_off_c, 2, 78, 95
3, 74424, Note_off_c, 2, 66, 95
3, 74448, Note_on_c, 2, 78, 95
3, 74448, Note_on_c, 2, 66, 95
3, 74472, Note_off_c, 2, 78, 95
3, 74472, Note_off_c, 2, 66, 95
3, 74496, Note_off_c, 2, 54, 95
3, 74496, Note_off_c, 2, 49, 95
3, 74496, Note_on_c, 2, 55, 95
3, 74496, Note_on_c, 2, 50, 95
3, 74688, Note_on_c, 2, 78, 95
3, 74688, Note_on_c, 2, 66, 95
3, 74832, Note_off_c, 2, 78, 95
3, 74832, Note_off_c, 2, 66, 95
3, 74832, Note_on_c, 2, 74, 95
3, 74832, Note_on_c, 2, 62, 95
3, 74976, Note_off_c, 2, 74, 95
3, 74976, Note_off_c, 2, 62, 95
3, 74976, Note_on_c, 2, 71, 95
3, 74976, Note_on_c, 2, 59, 95
3, 75072, Note_off_c, 2, 55, 95
3, 75072, Note_off_c, 2, 50, 95
3, 75072, Note_off_c, 2, 71, 95
3, 75072, Note_off_c, 2, 59, 95
3, 75072, Note_on_c, 2, 78, 95
3, 75072, Note_on_c, 2, 66, 95
3, 75072, Note_on_c, 2, 57, 95
3, 75072, Note_on_c, 2, 52, 95
3, 75264, Note_off_c, 2, 78, 95
3, 75264, Note_off_c, 2, 66, 95
3, 75264, Note_off_c, 2, 57, 95
3, 75264, Note_off_c, 2, 52, 95
3, 75264, Note_on_c, 2, 54, 95
3, 75264, Note_on_c, 2, 59, 95
3, 75456, Note_on_c, 2, 78, 95
3, 75456, Note_on_c, 2, 66, 95
3, 75600, Note_off_c, 2, 78, 95
3, 75600, Note_off_c, 2, 66, 95
3, 75600, Note_on_c, 2, 74, 95
3, 75600, Note_on_c, 2, 62, 95
3, 75744, Note_off_c, 2, 59, 95
3, 75744, Note_off_c, 2, 74, 95
3, 75744, Note_off_c, 2, 62, 95
3, 75744, Note_on_c, 2, 71, 95
3, 75744, Note_on_c, 2, 59, 95
3, 75840, Note_off_c, 2, 54, 95
3, 75840, Note_off_c, 2, 71, 95
3, 75840, Note_off_c, 2, 59, 95
3, 75840, Note_on_c, 2, 78, 95
3, 75840, Note_on_c, 2, 66, 95
3, 75840, Note_on_c, 2, 62, 95
3, 75840, Note_on_c, 2, 57, 95
3, 76032, Note_off_c, 2, 78, 95
3, 76032, Note_off_c, 2, 66, 95
3, 76032, Note_off_c, 2, 62, 95
3, 76032, Note_off_c, 2, 57, 95
3, 76032, Note_on_c, 2, 57, 95
3, 76032, Note_on_c, 2, 52, 95
3, 76224, Note_on_c, 2, 78, 95
3, 76224, Note_on_c, 2, 66, 95
3, 76368, Note_off_c, 2, 78, 95
3, 76368, Note_off_c, 2, 66, 95
3, 76368, Note_on_c, 2, 74, 95
3, 76368, Note_on_c, 2, 62, 95
3, 76512, Note_off_c, 2, 74, 95
3, 76512, Note_off_c, 2, 62, 95
3, 76512, Note_on_c, 2, 71, 95
3, 76512, Note_on_c, 2, 59, 95
3, 76608, Note_off_c, 2, 57, 95
3, 76608, Note_off_c, 2, 52, 95
3, 76608, Note_off_c, 2, 71, 95
3, 76608, Note_off_c, 2, 59, 95
3, 76608, Note_on_c, 2, 78, 95
3, 76608, Note_on_c, 2, 66, 95
3, 76608, Note_on_c, 2, 54, 95
3, 76608, Note_on_c, 2, 49, 95
3, 76800, Note_off_c, 2, 78, 95
3, 76800, Note_off_c, 2, 66, 95
3, 76800, Note_off_c, 2, 54, 95
3, 76800, Note_off_c, 2, 49, 95
3, 76800, Note_on_c, 2, 55, 95
3, 76800, Note_on_c, 2, 50, 95
3, 76992, Note_on_c, 2, 78, 95
3, 76992, Note_on_c, 2, 66, 95
3, 77136, Note_off_c, 2, 78, 95
3, 77136, Note_off_c, 2, 66, 95
3, 77136, Note_on_c, 2, 74, 95
3, 77136, Note_on_c, 2, 62, 95
3, 77280, Note_off_c, 2, 74, 95
3, 77280, Note_off_c, 2, 62, 95
3, 77280, Note_on_c, 2, 71, 95
3, 77280, Note_on_c, 2, 59, 95
3, 77376, Note_off_c, 2, 55, 95
3, 77376, Note_off_c, 2, 50, 95
3, 77376, Note_off_c, 2, 71, 95
3, 77376, Note_off_c, 2, 59, 95
3, 77376, Note_on_c, 2, 54, 95
3, 77376, Note_on_c, 2, 49, 95
3, 77376, Note_on_c, 2, 78, 95
3, 77376, Note_on_c, 2, 66, 95
3, 77400, Note_off_c, 2, 78, 95
3, 77400, Note_off_c, 2, 66, 95
3, 77424, Note_on_c, 2, 78, 95
3, 77424, Note_on_c, 2, 66, 95
3, 77448, Note_off_c, 2, 78, 95
3, 77448, Note_off_c, 2, 66, 95
3, 77472, Note_on_c, 2, 78, 95
3, 77472, Note_on_c, 2, 66, 95
3, 77496, Note_off_c, 2, 78, 95
3, 77496, Note_off_c, 2, 66, 95
3, 77520, Note_on_c, 2, 78, 95
3, 77520, Note_on_c, 2, 66, 95
3, 77544, Note_off_c, 2, 78, 95
3, 77544, Note_off_c, 2, 66, 95
3, 77568, Note_off_c, 2, 54, 95
3, 77568, Note_off_c, 2, 49, 95
3, 77568, Note_on_c, 2, 55, 95
3, 77568, Note_on_c, 2, 50, 95
3, 77616, Control_c, 2, 7, 121
3, 77617, Control_c, 2, 7, 120
3, 77712, Control_c, 2, 7, 118
3, 77760, Control_c, 2, 7, 115
3, 77760, Note_on_c, 2, 78, 95
3, 77760, Note_on_c, 2, 66, 95
3, 77761, Control_c, 2, 7, 114
3, 77856, Control_c, 2, 7, 111
3, 77857, Control_c, 2, 7, 110
3, 77904, Note_off_c, 2, 78, 95
3, 77904, Note_off_c, 2, 66, 95
3, 77904, Note_on_c, 2, 74, 95
3, 77904, Note_on_c, 2, 62, 95
3, 77952, Control_c, 2, 7, 107
3, 77953, Control_c, 2, 7, 106
3, 78048, Note_off_c, 2, 74, 95
3, 78048, Note_off_c, 2, 62, 95
3, 78048, Control_c, 2, 7, 104
3, 78048, Note_on_c, 2, 71, 95
3, 78048, Note_on_c, 2, 59, 95
3, 78096, Control_c, 2, 7, 101
3, 78097, Control_c, 2, 7, 100
3, 78144, Note_off_c, 2, 55, 95
3, 78144, Note_off_c, 2, 50, 95
3, 78144, Note_off_c, 2, 71, 95
3, 78144, Note_off_c, 2, 59, 95
3, 78144, Note_on_c, 2, 78, 95
3, 78144, Note_on_c, 2, 66, 95
3, 78144, Note_on_c, 2, 57, 95
3, 78144, Note_on_c, 2, 52, 95
3, 78192, Control_c, 2, 7, 97
3, 78193, Control_c, 2, 7, 96
3, 78288, Control_c, 2, 7, 93
3, 78289, Control_c, 2, 7, 92
3, 78336, Note_off_c, 2, 78, 95
3, 78336, Note_off_c, 2, 66, 95
3, 78336, Note_off_c, 2, 57, 95
3, 78336, Note_off_c, 2, 52, 95
3, 78336, Note_on_c, 2, 54, 95
3, 78336, Note_on_c, 2, 59, 95
3, 78360, Control_c, 2, 7, 91
3, 78432, Control_c, 2, 7, 88
3, 78433, Control_c, 2, 7, 87
3, 78528, Control_c, 2, 7, 85
3, 78528, Note_on_c, 2, 78, 95
3, 78528, Note_on_c, 2, 66, 95
3, 78576, Control_c, 2, 7, 82
3, 78577, Control_c, 2, 7, 81
3, 78672, Note_off_c, 2, 78, 95
3, 78672, Note_off_c, 2, 66, 95
3, 78672, Control_c, 2, 7, 78
3, 78672, Note_on_c, 2, 74, 95
3, 78672, Note_on_c, 2, 62, 95
3, 78673, Control_c, 2, 7, 77
3, 78768, Control_c, 2, 7, 74
3, 78769, Control_c, 2, 7, 73
3, 78816, Note_off_c, 2, 59, 95
3, 78816, Note_off_c, 2, 74, 95
3, 78816, Note_off_c, 2, 62, 95
3, 78816, Note_on_c, 2, 71, 95
3, 78816, Note_on_c, 2, 59, 95
3, 78864, Control_c, 2, 7, 71
3, 78912, Note_off_c, 2, 54, 95
3, 78912, Note_off_c, 2, 71, 95
3, 78912, Note_off_c, 2, 59, 95
3, 78912, Control_c, 2, 7, 68
3, 78912, Note_on_c, 2, 78, 95
3, 78912, Note_on_c, 2, 66, 95
3, 78912, Note_on_c, 2, 62, 95
3, 78912, Note_on_c, 2, 57, 95
3, 78913, Control_c, 2, 7, 67
3, 79008, Control_c, 2, 7, 64
3, 79009, Control_c, 2, 7, 63
3, 79104, Note_off_c, 2, 78, 95
3, 79104, Note_off_c, 2, 66, 95
3, 79104, Note_off_c, 2, 62, 95
3, 79104, Note_off_c, 2, 57, 95
3, 79104, Control_c, 2, 7, 60
3, 79104, Note_on_c, 2, 57, 95
3, 79104, Note_on_c, 2, 52, 95
3, 79105, Control_c, 2, 7, 59
3, 79200, Control_c, 2, 7, 57
3, 79248, Control_c, 2, 7, 54
3, 79249, Control_c, 2, 7, 53
3, 79296, Note_on_c, 2, 78, 95
3, 79296, Note_on_c, 2, 66, 95
3, 79344, Control_c, 2, 7, 50
3, 79345, Control_c, 2, 7, 49
3, 79440, Note_off_c, 2, 78, 95
3, 79440, Note_off_c, 2, 66, 95
3, 79440, Control_c, 2, 7, 46
3, 79440, Note_on_c, 2, 74, 95
3, 79440, Note_on_c, 2, 62, 95
3, 79441, Control_c, 2, 7, 45
3, 79536, Control_c, 2, 7, 43
3, 79584, Note_off_c, 2, 74, 95
3, 79584, Note_off_c, 2, 62, 95
3, 79584, Control_c, 2, 7, 40
3, 79584, Note_on_c, 2, 71, 95
3, 79584, Note_on_c, 2, 59, 95
3, 79585, Control_c, 2, 7, 39
3, 79680, Note_off_c, 2, 57, 95
3, 79680, Note_off_c, 2, 52, 95
3, 79680, Note_off_c, 2, 71, 95
3, 79680, Note_off_c, 2, 59, 95
3, 79680, Control_c, 2, 7, 36
3, 79680, Note_on_c, 2, 78, 95
3, 79680, Note_on_c, 2, 66, 95
3, 79680, Note_on_c, 2, 54, 95
3, 79680, Note_on_c, 2, 49, 95
3, 79681, Control_c, 2, 7, 35
3, 79776, Control_c, 2, 7, 33
3, 79824, Control_c, 2, 7, 30
3, 79872, Note_off_c, 2, 78, 95
3, 79872, Note_off_c, 2, 66, 95
3, 79872, Note_off_c, 2, 54, 95
3, 79872, Note_off_c, 2, 49, 95
3, 79872, Note_on_c, 2, 55, 95
3, 79872, Note_on_c, 2, 50, 95
3, 79920, Control_c, 2, 7, 27
3, 79921, Control_c, 2, 7, 26
3, 80016, Control_c, 2, 7, 24
3, 80064, Control_c, 2, 7, 21
3, 80064, Note_on_c, 2, 78, 95
3, 80064, Note_on_c, 2, 66, 95
3, 80065, Control_c, 2, 7, 20
3, 80160, Control_c, 2, 7, 17
3, 80161, Control_c, 2, 7, 16
3, 80208, Note_off_c, 2, 78, 95
3, 80208, Note_off_c, 2, 66, 95
3, 80208, Note_on_c, 2, 74, 95
3, 80208, Note_on_c, 2, 62, 95
3, 80256, Control_c, 2, 7, 13
3, 80257, Control_c, 2, 7, 12
3, 80352, Note_off_c, 2, 74, 95
3, 80352, Note_off_c, 2, 62, 95
3, 80352, Control_c, 2, 7, 10
3, 80352, Note_on_c, 2, 71, 95
3, 80352, Note_on_c, 2, 59, 95
3, 80400, Control_c, 2, 7, 7
3, 80401, Control_c, 2, 7, 6
3, 80448, Note_off_c, 2, 55, 95
3, 80448, Note_off_c, 2, 50, 95
3, 80448, Note_off_c, 2, 71, 95
3, 80448, Note_off_c, 2, 59, 95
3, 80448, Note_on_c, 2, 54, 95
3, 80448, Note_on_c, 2, 49, 95
3, 80448, Note_on_c, 2, 78, 95
3, 80448, Note_on_c, 2, 66, 95
3, 80472, Note_off_c, 2, 78, 95
3, 80472, Note_off_c, 2, 66, 95
3, 80496, Control_c, 2, 7, 3
3, 80496, Note_on_c, 2, 78, 95
3, 80496, Note_on_c, 2, 66, 95
3, 80497, Control_c, 2, 7, 2
3, 80520, Note_off_c, 2, 78, 95
3, 80520, Note_off_c, 2, 66, 95
3, 80544, Note_on_c, 2, 78, 95
3, 80544, Note_on_c, 2, 66, 95
3, 80568, Note_off_c, 2, 78, 95
3, 80568, Note_off_c, 2, 66, 95
3, 80592, Control_c, 2, 7, 0
3, 80592, Note_on_c, 2, 78, 95
3, 80592, Note_on_c, 2, 66, 95
3, 80616, Note_off_c, 2, 78, 95
3, 80616, Note_off_c, 2, 66, 95
3, 80640, Note_off_c, 2, 54, 95
3, 80640, Note_off_c, 2, 49, 95
3, 80641, Control_c, 2, 123, 0
3, 80641, Control_c, 2, 120, 0
3, 80641, End_track
4, 0, Start_track
4, 0, MIDI_port, 0
4, 0, Unknown_meta_event, 9, 21, 77, 105, 99, 114, 111, 115, 111, 102, 116, 32, 77, 73, 68, 73, 32, 77, 97, 112, 112, 101, 114
4, 0, Title_t, "Fingered Bass"
4, 774, Control_c, 4, 0, 0
4, 774, Control_c, 4, 32, 0
4, 774, Program_c, 4, 33
4, 774, Control_c, 4, 10, 64
4, 774, Control_c, 4, 91, 0
4, 774, Control_c, 4, 93, 0
4, 774, Control_c, 4, 101, 0
4, 774, Control_c, 4, 100, 0
4, 774, Control_c, 4, 6, 24
4, 774, Control_c, 4, 7, 127
4, 774, Pitch_bend_c, 4, 8192
4, 774, Control_c, 4, 10, 64
4, 774, Note_on_c, 4, 31, 93
4, 775, Control_c, 4, 7, 125
4, 775, Control_c, 4, 7, 124
4, 912, Note_off_c, 4, 31, 64
4, 912, Note_on_c, 4, 31, 93
4, 1056, Note_off_c, 4, 31, 93
4, 1056, Note_on_c, 4, 31, 93
4, 1200, Note_off_c, 4, 31, 93
4, 1200, Note_on_c, 4, 31, 93
4, 1344, Note_off_c, 4, 31, 93
4, 1344, Note_on_c, 4, 31, 93
4, 1440, Note_off_c, 4, 31, 93
4, 1440, Note_on_c, 4, 33, 93
4, 1536, Note_off_c, 4, 33, 93
4, 1536, Note_on_c, 4, 35, 93
4, 1680, Note_off_c, 4, 35, 93
4, 1680, Note_on_c, 4, 35, 93
4, 1824, Note_off_c, 4, 35, 93
4, 1824, Note_on_c, 4, 35, 93
4, 1968, Note_off_c, 4, 35, 93
4, 1968, Note_on_c, 4, 35, 93
4, 2112, Note_off_c, 4, 35, 93
4, 2112, Note_on_c, 4, 35, 93
4, 2208, Note_off_c, 4, 35, 93
4, 2208, Note_on_c, 4, 38, 93
4, 2304, Note_off_c, 4, 38, 93
4, 2304, Note_on_c, 4, 33, 93
4, 2448, Note_off_c, 4, 33, 93
4, 2448, Note_on_c, 4, 33, 93
4, 2592, Note_off_c, 4, 33, 93
4, 2592, Note_on_c, 4, 33, 93
4, 2736, Note_off_c, 4, 33, 93
4, 2736, Note_on_c, 4, 33, 93
4, 2880, Note_off_c, 4, 33, 93
4, 2880, Note_on_c, 4, 33, 93
4, 2976, Note_off_c, 4, 33, 93
4, 2976, Note_on_c, 4, 30, 93
4, 3072, Note_off_c, 4, 30, 93
4, 3072, Note_on_c, 4, 31, 93
4, 3216, Note_off_c, 4, 31, 93
4, 3216, Note_on_c, 4, 31, 93
4, 3360, Note_off_c, 4, 31, 93
4, 3360, Note_on_c, 4, 31, 93
4, 3504, Note_off_c, 4, 31, 93
4, 3504, Note_on_c, 4, 31, 93
4, 3648, Note_off_c, 4, 31, 93
4, 3648, Note_on_c, 4, 31, 93
4, 3744, Note_off_c, 4, 31, 93
4, 3744, Note_on_c, 4, 30, 93
4, 3840, Note_off_c, 4, 30, 93
4, 3840, Note_on_c, 4, 31, 126
4, 3984, Note_off_c, 4, 31, 126
4, 3984, Note_on_c, 4, 31, 126
4, 4128, Note_off_c, 4, 31, 126
4, 4128, Note_on_c, 4, 31, 126
4, 4272, Note_off_c, 4, 31, 126
4, 4272, Note_on_c, 4, 31, 126
4, 4416, Note_off_c, 4, 31, 126
4, 4416, Note_on_c, 4, 31, 126
4, 4512, Note_off_c, 4, 31, 126
4, 4512, Note_on_c, 4, 33, 126
4, 4608, Note_off_c, 4, 33, 126
4, 4608, Note_on_c, 4, 35, 126
4, 4752, Note_off_c, 4, 35, 126
4, 4752, Note_on_c, 4, 35, 126
4, 4896, Note_off_c, 4, 35, 126
4, 4896, Note_on_c, 4, 35, 126
4, 5040, Note_off_c, 4, 35, 126
4, 5040, Note_on_c, 4, 35, 126
4, 5184, Note_off_c, 4, 35, 126
4, 5184, Note_on_c, 4, 35, 126
4, 5280, Note_off_c, 4, 35, 126
4, 5280, Note_on_c, 4, 38, 126
4, 5376, Note_off_c, 4, 38, 126
4, 5376, Note_on_c, 4, 33, 126
4, 5520, Note_off_c, 4, 33, 126
4, 5520, Note_on_c, 4, 33, 126
4, 5664, Note_off_c, 4, 33, 126
4, 5664, Note_on_c, 4, 33, 126
4, 5808, Note_off_c, 4, 33, 126
4, 5808, Note_on_c, 4, 33, 126
4, 5952, Note_off_c, 4, 33, 126
4, 5952, Note_on_c, 4, 33, 126
4, 6048, Note_off_c, 4, 33, 126
4, 6048, Note_on_c, 4, 30, 126
4, 6144, Note_off_c, 4, 30, 126
4, 6144, Note_on_c, 4, 31, 126
4, 6288, Note_off_c, 4, 31, 126
4, 6288, Note_on_c, 4, 31, 126
4, 6432, Note_off_c, 4, 31, 126
4, 6432, Note_on_c, 4, 31, 126
4, 6576, Note_off_c, 4, 31, 126
4, 6576, Note_on_c, 4, 31, 126
4, 6720, Note_off_c, 4, 31, 126
4, 6720, Note_on_c, 4, 31, 126
4, 6816, Note_off_c, 4, 31, 126
4, 6816, Note_on_c, 4, 30, 126
4, 6912, Note_off_c, 4, 30, 126
4, 6912, Note_on_c, 4, 31, 127
4, 7056, Note_off_c, 4, 31, 127
4, 7056, Note_on_c, 4, 31, 127
4, 7200, Note_off_c, 4, 31, 127
4, 7200, Note_on_c, 4, 31, 127
4, 7344, Note_off_c, 4, 31, 127
4, 7344, Note_on_c, 4, 31, 127
4, 7488, Note_off_c, 4, 31, 127
4, 7488, Note_on_c, 4, 31, 127
4, 7584, Note_off_c, 4, 31, 127
4, 7584, Note_on_c, 4, 33, 127
4, 7680, Note_off_c, 4, 33, 127
4, 7680, Note_on_c, 4, 35, 127
4, 7824, Note_off_c, 4, 35, 127
4, 7824, Note_on_c, 4, 35, 127
4, 7968, Note_off_c, 4, 35, 127
4, 7968, Note_on_c, 4, 35, 127
4, 8112, Note_off_c, 4, 35, 127
4, 8112, Note_on_c, 4, 35, 127
4, 8256, Note_off_c, 4, 35, 127
4, 8256, Note_on_c, 4, 35, 127
4, 8352, Note_off_c, 4, 35, 127
4, 8352, Note_on_c, 4, 38, 127
4, 8448, Note_off_c, 4, 38, 127
4, 8448, Note_on_c, 4, 33, 127
4, 8592, Note_off_c, 4, 33, 127
4, 8592, Note_on_c, 4, 33, 127
4, 8736, Note_off_c, 4, 33, 127
4, 8736, Note_on_c, 4, 33, 127
4, 8880, Note_off_c, 4, 33, 127
4, 8880, Note_on_c, 4, 33, 127
4, 9024, Note_off_c, 4, 33, 127
4, 9024, Note_on_c, 4, 33, 127
4, 9120, Note_off_c, 4, 33, 127
4, 9120, Note_on_c, 4, 30, 127
4, 9216, Note_off_c, 4, 30, 127
4, 9216, Note_on_c, 4, 31, 127
4, 9360, Note_off_c, 4, 31, 127
4, 9360, Note_on_c, 4, 31, 127
4, 9504, Note_off_c, 4, 31, 127
4, 9504, Note_on_c, 4, 31, 127
4, 9648, Note_off_c, 4, 31, 127
4, 9648, Note_on_c, 4, 31, 127
4, 9792, Note_off_c, 4, 31, 127
4, 9792, Note_on_c, 4, 31, 127
4, 9888, Note_off_c, 4, 31, 127
4, 9888, Note_on_c, 4, 30, 127
4, 9984, Note_off_c, 4, 30, 127
4, 9984, Note_on_c, 4, 31, 127
4, 10128, Note_off_c, 4, 31, 127
4, 10128, Note_on_c, 4, 31, 127
4, 10272, Note_off_c, 4, 31, 127
4, 10272, Note_on_c, 4, 31, 127
4, 10416, Note_off_c, 4, 31, 127
4, 10416, Note_on_c, 4, 31, 127
4, 10560, Note_off_c, 4, 31, 127
4, 10560, Note_on_c, 4, 31, 127
4, 10656, Note_off_c, 4, 31, 127
4, 10656, Note_on_c, 4, 33, 127
4, 10752, Note_off_c, 4, 33, 127
4, 10752, Note_on_c, 4, 35, 127
4, 10896, Note_off_c, 4, 35, 127
4, 10896, Note_on_c, 4, 35, 127
4, 11040, Note_off_c, 4, 35, 127
4, 11040, Note_on_c, 4, 35, 127
4, 11184, Note_off_c, 4, 35, 127
4, 11184, Note_on_c, 4, 35, 127
4, 11328, Note_off_c, 4, 35, 127
4, 11328, Note_on_c, 4, 35, 127
4, 11424, Note_off_c, 4, 35, 127
4, 11424, Note_on_c, 4, 38, 127
4, 11520, Note_off_c, 4, 38, 127
4, 11520, Note_on_c, 4, 33, 127
4, 11664, Note_off_c, 4, 33, 127
4, 11664, Note_on_c, 4, 33, 127
4, 11808, Note_off_c, 4, 33, 127
4, 11808, Note_on_c, 4, 33, 127
4, 11952, Note_off_c, 4, 33, 127
4, 11952, Note_on_c, 4, 33, 127
4, 12096, Note_off_c, 4, 33, 127
4, 12096, Note_on_c, 4, 33, 127
4, 12192, Note_off_c, 4, 33, 127
4, 12192, Note_on_c, 4, 30, 127
4, 12288, Note_off_c, 4, 30, 127
4, 12288, Note_on_c, 4, 31, 127
4, 12432, Note_off_c, 4, 31, 127
4, 12432, Note_on_c, 4, 31, 127
4, 12576, Note_off_c, 4, 31, 127
4, 12576, Note_on_c, 4, 31, 127
4, 12720, Note_off_c, 4, 31, 127
4, 12720, Note_on_c, 4, 31, 127
4, 12864, Note_off_c, 4, 31, 127
4, 12864, Note_on_c, 4, 31, 127
4, 12960, Note_off_c, 4, 31, 127
4, 12960, Note_on_c, 4, 30, 127
4, 13056, Note_off_c, 4, 30, 127
4, 13056, Note_on_c, 4, 31, 127
4, 13200, Note_off_c, 4, 31, 127
4, 13200, Note_on_c, 4, 31, 127
4, 13344, Note_off_c, 4, 31, 127
4, 13344, Note_on_c, 4, 31, 127
4, 13488, Note_off_c, 4, 31, 127
4, 13488, Note_on_c, 4, 31, 127
4, 13632, Note_off_c, 4, 31, 127
4, 13632, Note_on_c, 4, 31, 127
4, 13728, Note_off_c, 4, 31, 127
4, 13728, Note_on_c, 4, 33, 127
4, 13824, Note_off_c, 4, 33, 127
4, 13824, Note_on_c, 4, 35, 127
4, 13968, Note_off_c, 4, 35, 127
4, 13968, Note_on_c, 4, 35, 127
4, 14112, Note_off_c, 4, 35, 127
4, 14112, Note_on_c, 4, 35, 127
4, 14256, Note_off_c, 4, 35, 127
4, 14256, Note_on_c, 4, 35, 127
4, 14400, Note_off_c, 4, 35, 127
4, 14400, Note_on_c, 4, 35, 127
4, 14496, Note_off_c, 4, 35, 127
4, 14496, Note_on_c, 4, 38, 127
4, 14592, Note_off_c, 4, 38, 127
4, 14592, Note_on_c, 4, 33, 127
4, 14736, Note_off_c, 4, 33, 127
4, 14736, Note_on_c, 4, 33, 127
4, 14880, Note_off_c, 4, 33, 127
4, 14880, Note_on_c, 4, 33, 127
4, 15024, Note_off_c, 4, 33, 127
4, 15024, Note_on_c, 4, 33, 127
4, 15168, Note_off_c, 4, 33, 127
4, 15168, Note_on_c, 4, 33, 127
4, 15264, Note_off_c, 4, 33, 127
4, 15264, Note_on_c, 4, 30, 127
4, 15360, Note_off_c, 4, 30, 127
4, 15360, Note_on_c, 4, 31, 127
4, 15504, Note_off_c, 4, 31, 127
4, 15504, Note_on_c, 4, 31, 127
4, 15648, Note_off_c, 4, 31, 127
4, 15648, Note_on_c, 4, 31, 127
4, 15792, Note_off_c, 4, 31, 127
4, 15792, Note_on_c, 4, 31, 127
4, 15936, Note_off_c, 4, 31, 127
4, 15936, Note_on_c, 4, 31, 127
4, 16032, Note_off_c, 4, 31, 127
4, 16032, Note_on_c, 4, 30, 127
4, 16128, Note_off_c, 4, 30, 127
4, 16128, Note_on_c, 4, 31, 127
4, 16272, Note_off_c, 4, 31, 127
4, 16272, Note_on_c, 4, 31, 127
4, 16416, Note_off_c, 4, 31, 127
4, 16416, Note_on_c, 4, 31, 127
4, 16560, Note_off_c, 4, 31, 127
4, 16560, Note_on_c, 4, 31, 127
4, 16704, Note_off_c, 4, 31, 127
4, 16704, Note_on_c, 4, 31, 127
4, 16800, Note_off_c, 4, 31, 127
4, 16800, Note_on_c, 4, 33, 127
4, 16896, Note_off_c, 4, 33, 127
4, 16896, Note_on_c, 4, 35, 127
4, 17040, Note_off_c, 4, 35, 127
4, 17040, Note_on_c, 4, 35, 127
4, 17184, Note_off_c, 4, 35, 127
4, 17184, Note_on_c, 4, 35, 127
4, 17328, Note_off_c, 4, 35, 127
4, 17328, Note_on_c, 4, 35, 127
4, 17472, Note_off_c, 4, 35, 127
4, 17472, Note_on_c, 4, 35, 127
4, 17568, Note_off_c, 4, 35, 127
4, 17568, Note_on_c, 4, 38, 127
4, 17664, Note_off_c, 4, 38, 127
4, 17664, Note_on_c, 4, 33, 127
4, 17808, Note_off_c, 4, 33, 127
4, 17808, Note_on_c, 4, 33, 127
4, 17952, Note_off_c, 4, 33, 127
4, 17952, Note_on_c, 4, 33, 127
4, 18096, Note_off_c, 4, 33, 127
4, 18096, Note_on_c, 4, 33, 127
4, 18240, Note_off_c, 4, 33, 127
4, 18240, Note_on_c, 4, 33, 127
4, 18336, Note_off_c, 4, 33, 127
4, 18336, Note_on_c, 4, 30, 127
4, 18432, Note_off_c, 4, 30, 127
4, 18432, Note_on_c, 4, 31, 127
4, 18576, Note_off_c, 4, 31, 127
4, 18576, Note_on_c, 4, 31, 127
4, 18720, Note_off_c, 4, 31, 127
4, 18720, Note_on_c, 4, 31, 127
4, 18864, Note_off_c, 4, 31, 127
4, 18864, Note_on_c, 4, 31, 127
4, 19008, Note_off_c, 4, 31, 127
4, 19008, Note_on_c, 4, 31, 127
4, 19104, Note_off_c, 4, 31, 127
4, 19104, Note_on_c, 4, 30, 127
4, 19200, Note_off_c, 4, 30, 127
4, 19200, Note_on_c, 4, 31, 127
4, 19344, Note_off_c, 4, 31, 127
4, 19344, Note_on_c, 4, 31, 127
4, 19488, Note_off_c, 4, 31, 127
4, 19488, Note_on_c, 4, 31, 127
4, 19632, Note_off_c, 4, 31, 127
4, 19632, Note_on_c, 4, 31, 127
4, 19776, Note_off_c, 4, 31, 127
4, 19776, Note_on_c, 4, 31, 127
4, 19872, Note_off_c, 4, 31, 127
4, 19872, Note_on_c, 4, 33, 127
4, 19968, Note_off_c, 4, 33, 127
4, 19968, Note_on_c, 4, 35, 127
4, 20112, Note_off_c, 4, 35, 127
4, 20112, Note_on_c, 4, 35, 127
4, 20256, Note_off_c, 4, 35, 127
4, 20256, Note_on_c, 4, 35, 127
4, 20400, Note_off_c, 4, 35, 127
4, 20400, Note_on_c, 4, 35, 127
4, 20544, Note_off_c, 4, 35, 127
4, 20544, Note_on_c, 4, 35, 127
4, 20640, Note_off_c, 4, 35, 127
4, 20640, Note_on_c, 4, 38, 127
4, 20736, Note_off_c, 4, 38, 127
4, 20736, Note_on_c, 4, 33, 127
4, 20880, Note_off_c, 4, 33, 127
4, 20880, Note_on_c, 4, 33, 127
4, 21024, Note_off_c, 4, 33, 127
4, 21024, Note_on_c, 4, 33, 127
4, 21168, Note_off_c, 4, 33, 127
4, 21168, Note_on_c, 4, 33, 127
4, 21312, Note_off_c, 4, 33, 127
4, 21312, Note_on_c, 4, 33, 127
4, 21408, Note_off_c, 4, 33, 127
4, 21408, Note_on_c, 4, 30, 127
4, 21504, Note_off_c, 4, 30, 127
4, 21504, Note_on_c, 4, 31, 127
4, 21648, Note_off_c, 4, 31, 127
4, 21648, Note_on_c, 4, 31, 127
4, 21792, Note_off_c, 4, 31, 127
4, 21792, Note_on_c, 4, 31, 127
4, 21936, Note_off_c, 4, 31, 127
4, 21936, Note_on_c, 4, 31, 127
4, 22080, Note_off_c, 4, 31, 127
4, 22080, Note_on_c, 4, 31, 127
4, 22176, Note_off_c, 4, 31, 127
4, 22176, Note_on_c, 4, 30, 127
4, 22272, Note_off_c, 4, 30, 127
4, 22272, Note_on_c, 4, 31, 127
4, 22416, Note_off_c, 4, 31, 127
4, 22416, Note_on_c, 4, 31, 127
4, 22560, Note_off_c, 4, 31, 127
4, 22560, Note_on_c, 4, 31, 127
4, 22704, Note_off_c, 4, 31, 127
4, 22704, Note_on_c, 4, 31, 127
4, 22848, Note_off_c, 4, 31, 127
4, 22848, Note_on_c, 4, 31, 127
4, 22944, Note_off_c, 4, 31, 127
4, 22944, Note_on_c, 4, 33, 127
4, 23040, Note_off_c, 4, 33, 127
4, 23040, Note_on_c, 4, 35, 127
4, 23184, Note_off_c, 4, 35, 127
4, 23184, Note_on_c, 4, 35, 127
4, 23328, Note_off_c, 4, 35, 127
4, 23328, Note_on_c, 4, 35, 127
4, 23472, Note_off_c, 4, 35, 127
4, 23472, Note_on_c, 4, 35, 127
4, 23616, Note_off_c, 4, 35, 127
4, 23616, Note_on_c, 4, 35, 127
4, 23712, Note_off_c, 4, 35, 127
4, 23712, Note_on_c, 4, 38, 127
4, 23808, Note_off_c, 4, 38, 127
4, 23808, Note_on_c, 4, 33, 127
4, 23952, Note_off_c, 4, 33, 127
4, 23952, Note_on_c, 4, 33, 127
4, 24096, Note_off_c, 4, 33, 127
4, 24096, Note_on_c, 4, 33, 127
4, 24240, Note_off_c, 4, 33, 127
4, 24240, Note_on_c, 4, 33, 127
4, 24384, Note_off_c, 4, 33, 127
4, 24384, Note_on_c, 4, 33, 127
4, 24480, Note_off_c, 4, 33, 127
4, 24480, Note_on_c, 4, 30, 127
4, 24576, Note_off_c, 4, 30, 127
4, 24576, Note_on_c, 4, 31, 127
4, 24720, Note_off_c, 4, 31, 127
4, 24720, Note_on_c, 4, 31, 127
4, 24864, Note_off_c, 4, 31, 127
4, 24864, Note_on_c, 4, 31, 127
4, 25008, Note_off_c, 4, 31, 127
4, 25008, Note_on_c, 4, 31, 127
4, 25152, Note_off_c, 4, 31, 127
4, 25152, Note_on_c, 4, 31, 127
4, 25248, Note_off_c, 4, 31, 127
4, 25248, Note_on_c, 4, 30, 127
4, 25344, Note_off_c, 4, 30, 127
4, 25344, Note_on_c, 4, 31, 127
4, 25488, Note_off_c, 4, 31, 127
4, 25488, Note_on_c, 4, 31, 127
4, 25632, Note_off_c, 4, 31, 127
4, 25632, Note_on_c, 4, 31, 127
4, 25776, Note_off_c, 4, 31, 127
4, 25776, Note_on_c, 4, 31, 127
4, 25920, Note_off_c, 4, 31, 127
4, 25920, Note_on_c, 4, 31, 127
4, 26016, Note_off_c, 4, 31, 127
4, 26016, Note_on_c, 4, 33, 127
4, 26112, Note_off_c, 4, 33, 127
4, 26112, Note_on_c, 4, 35, 127
4, 26256, Note_off_c, 4, 35, 127
4, 26256, Note_on_c, 4, 35, 127
4, 26400, Note_off_c, 4, 35, 127
4, 26400, Note_on_c, 4, 35, 127
4, 26544, Note_off_c, 4, 35, 127
4, 26544, Note_on_c, 4, 35, 127
4, 26688, Note_off_c, 4, 35, 127
4, 26688, Note_on_c, 4, 35, 127
4, 26784, Note_off_c, 4, 35, 127
4, 26784, Note_on_c, 4, 38, 127
4, 26880, Note_off_c, 4, 38, 127
4, 26880, Note_on_c, 4, 33, 127
4, 27024, Note_off_c, 4, 33, 127
4, 27024, Note_on_c, 4, 33, 127
4, 27168, Note_off_c, 4, 33, 127
4, 27168, Note_on_c, 4, 33, 127
4, 27312, Note_off_c, 4, 33, 127
4, 27312, Note_on_c, 4, 33, 127
4, 27456, Note_off_c, 4, 33, 127
4, 27456, Note_on_c, 4, 33, 127
4, 27552, Note_off_c, 4, 33, 127
4, 27552, Note_on_c, 4, 30, 127
4, 27648, Note_off_c, 4, 30, 127
4, 27648, Note_on_c, 4, 31, 127
4, 27792, Note_off_c, 4, 31, 127
4, 27792, Note_on_c, 4, 31, 127
4, 27936, Note_off_c, 4, 31, 127
4, 27936, Note_on_c, 4, 31, 127
4, 28080, Note_off_c, 4, 31, 127
4, 28080, Note_on_c, 4, 31, 127
4, 28224, Note_off_c, 4, 31, 127
4, 28224, Note_on_c, 4, 31, 127
4, 28320, Note_off_c, 4, 31, 127
4, 28320, Note_on_c, 4, 30, 127
4, 28416, Note_off_c, 4, 30, 127
4, 28416, Note_on_c, 4, 31, 127
4, 28560, Note_off_c, 4, 31, 127
4, 28560, Note_on_c, 4, 31, 127
4, 28704, Note_off_c, 4, 31, 127
4, 28704, Note_on_c, 4, 31, 127
4, 28848, Note_off_c, 4, 31, 127
4, 28848, Note_on_c, 4, 31, 127
4, 28992, Note_off_c, 4, 31, 127
4, 28992, Note_on_c, 4, 31, 127
4, 29088, Note_off_c, 4, 31, 127
4, 29088, Note_on_c, 4, 33, 127
4, 29184, Note_off_c, 4, 33, 127
4, 29184, Note_on_c, 4, 35, 127
4, 29328, Note_off_c, 4, 35, 127
4, 29328, Note_on_c, 4, 35, 127
4, 29472, Note_off_c, 4, 35, 127
4, 29472, Note_on_c, 4, 35, 127
4, 29616, Note_off_c, 4, 35, 127
4, 29616, Note_on_c, 4, 35, 127
4, 29760, Note_off_c, 4, 35, 127
4, 29760, Note_on_c, 4, 35, 127
4, 29856, Note_off_c, 4, 35, 127
4, 29856, Note_on_c, 4, 38, 127
4, 29952, Note_off_c, 4, 38, 127
4, 29952, Note_on_c, 4, 33, 127
4, 30096, Note_off_c, 4, 33, 127
4, 30096, Note_on_c, 4, 33, 127
4, 30240, Note_off_c, 4, 33, 127
4, 30240, Note_on_c, 4, 33, 127
4, 30384, Note_off_c, 4, 33, 127
4, 30384, Note_on_c, 4, 33, 127
4, 30528, Note_off_c, 4, 33, 127
4, 30528, Note_on_c, 4, 33, 127
4, 30624, Note_off_c, 4, 33, 127
4, 30624, Note_on_c, 4, 30, 127
4, 30720, Note_off_c, 4, 30, 127
4, 30720, Note_on_c, 4, 31, 127
4, 30864, Note_off_c, 4, 31, 127
4, 30864, Note_on_c, 4, 31, 127
4, 31008, Note_off_c, 4, 31, 127
4, 31008, Note_on_c, 4, 31, 127
4, 31152, Note_off_c, 4, 31, 127
4, 31152, Note_on_c, 4, 31, 127
4, 31296, Note_off_c, 4, 31, 127
4, 31296, Note_on_c, 4, 31, 127
4, 31392, Note_off_c, 4, 31, 127
4, 31392, Note_on_c, 4, 30, 127
4, 31488, Note_off_c, 4, 30, 127
4, 31488, Note_on_c, 4, 31, 127
4, 31632, Note_off_c, 4, 31, 127
4, 31632, Note_on_c, 4, 31, 127
4, 31776, Note_off_c, 4, 31, 127
4, 31776, Note_on_c, 4, 31, 127
4, 31920, Note_off_c, 4, 31, 127
4, 31920, Note_on_c, 4, 31, 127
4, 32064, Note_off_c, 4, 31, 127
4, 32064, Note_on_c, 4, 31, 127
4, 32160, Note_off_c, 4, 31, 127
4, 32160, Note_on_c, 4, 33, 127
4, 32256, Note_off_c, 4, 33, 127
4, 32256, Note_on_c, 4, 35, 127
4, 32400, Note_off_c, 4, 35, 127
4, 32400, Note_on_c, 4, 35, 127
4, 32544, Note_off_c, 4, 35, 127
4, 32544, Note_on_c, 4, 35, 127
4, 32688, Note_off_c, 4, 35, 127
4, 32688, Note_on_c, 4, 35, 127
4, 32832, Note_off_c, 4, 35, 127
4, 32832, Note_on_c, 4, 35, 127
4, 32928, Note_off_c, 4, 35, 127
4, 32928, Note_on_c, 4, 38, 127
4, 33024, Note_off_c, 4, 38, 127
4, 33024, Note_on_c, 4, 33, 127
4, 33168, Note_off_c, 4, 33, 127
4, 33168, Note_on_c, 4, 33, 127
4, 33312, Note_off_c, 4, 33, 127
4, 33312, Note_on_c, 4, 33, 127
4, 33456, Note_off_c, 4, 33, 127
4, 33456, Note_on_c, 4, 33, 127
4, 33600, Note_off_c, 4, 33, 127
4, 33600, Note_on_c, 4, 33, 127
4, 33696, Note_off_c, 4, 33, 127
4, 33696, Note_on_c, 4, 30, 127
4, 33792, Note_off_c, 4, 30, 127
4, 33792, Note_on_c, 4, 31, 127
4, 33936, Note_off_c, 4, 31, 127
4, 33936, Note_on_c, 4, 31, 127
4, 34080, Note_off_c, 4, 31, 127
4, 34080, Note_on_c, 4, 31, 127
4, 34224, Note_off_c, 4, 31, 127
4, 34224, Note_on_c, 4, 31, 127
4, 34368, Note_off_c, 4, 31, 127
4, 34368, Note_on_c, 4, 31, 127
4, 34464, Note_off_c, 4, 31, 127
4, 34464, Note_on_c, 4, 30, 127
4, 34560, Note_off_c, 4, 30, 127
4, 34560, Note_on_c, 4, 31, 127
4, 34704, Note_off_c, 4, 31, 127
4, 34704, Note_on_c, 4, 31, 127
4, 34848, Note_off_c, 4, 31, 127
4, 34848, Note_on_c, 4, 31, 127
4, 34992, Note_off_c, 4, 31, 127
4, 34992, Note_on_c, 4, 31, 127
4, 35136, Note_off_c, 4, 31, 127
4, 35136, Note_on_c, 4, 31, 127
4, 35232, Note_off_c, 4, 31, 127
4, 35232, Note_on_c, 4, 33, 127
4, 35328, Note_off_c, 4, 33, 127
4, 35328, Note_on_c, 4, 35, 127
4, 35472, Note_off_c, 4, 35, 127
4, 35472, Note_on_c, 4, 35, 127
4, 35616, Note_off_c, 4, 35, 127
4, 35616, Note_on_c, 4, 35, 127
4, 35760, Note_off_c, 4, 35, 127
4, 35760, Note_on_c, 4, 35, 127
4, 35904, Note_off_c, 4, 35, 127
4, 35904, Note_on_c, 4, 35, 127
4, 36000, Note_off_c, 4, 35, 127
4, 36000, Note_on_c, 4, 38, 127
4, 36096, Note_off_c, 4, 38, 127
4, 36096, Note_on_c, 4, 33, 127
4, 36240, Note_off_c, 4, 33, 127
4, 36240, Note_on_c, 4, 33, 127
4, 36384, Note_off_c, 4, 33, 127
4, 36384, Note_on_c, 4, 33, 127
4, 36528, Note_off_c, 4, 33, 127
4, 36528, Note_on_c, 4, 33, 127
4, 36672, Note_off_c, 4, 33, 127
4, 36672, Note_on_c, 4, 33, 127
4, 36768, Note_off_c, 4, 33, 127
4, 36768, Note_on_c, 4, 30, 127
4, 36864, Note_off_c, 4, 30, 127
4, 36864, Note_on_c, 4, 31, 127
4, 37008, Note_off_c, 4, 31, 127
4, 37008, Note_on_c, 4, 31, 127
4, 37152, Note_off_c, 4, 31, 127
4, 37152, Note_on_c, 4, 31, 127
4, 37296, Note_off_c, 4, 31, 127
4, 37296, Note_on_c, 4, 31, 127
4, 37440, Note_off_c, 4, 31, 127
4, 37440, Note_on_c, 4, 31, 127
4, 37536, Note_off_c, 4, 31, 127
4, 37536, Note_on_c, 4, 30, 127
4, 37632, Note_off_c, 4, 30, 127
4, 37632, Note_on_c, 4, 31, 127
4, 37776, Note_off_c, 4, 31, 127
4, 37776, Note_on_c, 4, 31, 127
4, 37920, Note_off_c, 4, 31, 127
4, 37920, Note_on_c, 4, 31, 127
4, 38064, Note_off_c, 4, 31, 127
4, 38064, Note_on_c, 4, 31, 127
4, 38208, Note_off_c, 4, 31, 127
4, 38208, Note_on_c, 4, 31, 127
4, 38304, Note_off_c, 4, 31, 127
4, 38304, Note_on_c, 4, 33, 127
4, 38400, Note_off_c, 4, 33, 127
4, 38400, Note_on_c, 4, 35, 127
4, 38544, Note_off_c, 4, 35, 127
4, 38544, Note_on_c, 4, 35, 127
4, 38688, Note_off_c, 4, 35, 127
4, 38688, Note_on_c, 4, 35, 127
4, 38832, Note_off_c, 4, 35, 127
4, 38832, Note_on_c, 4, 35, 127
4, 38976, Note_off_c, 4, 35, 127
4, 38976, Note_on_c, 4, 35, 127
4, 39072, Note_off_c, 4, 35, 127
4, 39072, Note_on_c, 4, 38, 127
4, 39168, Note_off_c, 4, 38, 127
4, 39168, Note_on_c, 4, 33, 127
4, 39312, Note_off_c, 4, 33, 127
4, 39312, Note_on_c, 4, 33, 127
4, 39456, Note_off_c, 4, 33, 127
4, 39456, Note_on_c, 4, 33, 127
4, 39600, Note_off_c, 4, 33, 127
4, 39600, Note_on_c, 4, 33, 127
4, 39744, Note_off_c, 4, 33, 127
4, 39744, Note_on_c, 4, 33, 127
4, 39840, Note_off_c, 4, 33, 127
4, 39840, Note_on_c, 4, 30, 127
4, 39936, Note_off_c, 4, 30, 127
4, 39936, Note_on_c, 4, 31, 127
4, 40080, Note_off_c, 4, 31, 127
4, 40080, Note_on_c, 4, 31, 127
4, 40224, Note_off_c, 4, 31, 127
4, 40224, Note_on_c, 4, 31, 127
4, 40368, Note_off_c, 4, 31, 127
4, 40368, Note_on_c, 4, 31, 127
4, 40512, Note_off_c, 4, 31, 127
4, 40512, Note_on_c, 4, 31, 127
4, 40608, Note_off_c, 4, 31, 127
4, 40608, Note_on_c, 4, 30, 127
4, 40704, Note_off_c, 4, 30, 127
4, 40704, Note_on_c, 4, 31, 127
4, 40848, Note_off_c, 4, 31, 127
4, 40848, Note_on_c, 4, 31, 127
4, 40992, Note_off_c, 4, 31, 127
4, 40992, Note_on_c, 4, 31, 127
4, 41136, Note_off_c, 4, 31, 127
4, 41136, Note_on_c, 4, 31, 127
4, 41280, Note_off_c, 4, 31, 127
4, 41280, Note_on_c, 4, 31, 127
4, 41376, Note_off_c, 4, 31, 127
4, 41376, Note_on_c, 4, 33, 127
4, 41472, Note_off_c, 4, 33, 127
4, 41472, Note_on_c, 4, 35, 127
4, 41616, Note_off_c, 4, 35, 127
4, 41616, Note_on_c, 4, 35, 127
4, 41760, Note_off_c, 4, 35, 127
4, 41760, Note_on_c, 4, 35, 127
4, 41904, Note_off_c, 4, 35, 127
4, 41904, Note_on_c, 4, 35, 127
4, 42048, Note_off_c, 4, 35, 127
4, 42048, Note_on_c, 4, 35, 127
4, 42144, Note_off_c, 4, 35, 127
4, 42144, Note_on_c, 4, 38, 127
4, 42240, Note_off_c, 4, 38, 127
4, 42240, Note_on_c, 4, 33, 127
4, 42384, Note_off_c, 4, 33, 127
4, 42384, Note_on_c, 4, 33, 127
4, 42528, Note_off_c, 4, 33, 127
4, 42528, Note_on_c, 4, 33, 127
4, 42672, Note_off_c, 4, 33, 127
4, 42672, Note_on_c, 4, 33, 127
4, 42816, Note_off_c, 4, 33, 127
4, 42816, Note_on_c, 4, 33, 127
4, 42912, Note_off_c, 4, 33, 127
4, 42912, Note_on_c, 4, 30, 127
4, 43008, Note_off_c, 4, 30, 127
4, 43008, Note_on_c, 4, 31, 127
4, 43152, Note_off_c, 4, 31, 127
4, 43152, Note_on_c, 4, 31, 127
4, 43296, Note_off_c, 4, 31, 127
4, 43296, Note_on_c, 4, 31, 127
4, 43440, Note_off_c, 4, 31, 127
4, 43440, Note_on_c, 4, 31, 127
4, 43584, Note_off_c, 4, 31, 127
4, 43584, Note_on_c, 4, 31, 127
4, 43680, Note_off_c, 4, 31, 127
4, 43680, Note_on_c, 4, 30, 127
4, 43776, Note_off_c, 4, 30, 127
4, 43776, Note_on_c, 4, 31, 127
4, 43920, Note_off_c, 4, 31, 127
4, 43920, Note_on_c, 4, 31, 127
4, 44064, Note_off_c, 4, 31, 127
4, 44064, Note_on_c, 4, 31, 127
4, 44208, Note_off_c, 4, 31, 127
4, 44208, Note_on_c, 4, 31, 127
4, 44352, Note_off_c, 4, 31, 127
4, 44352, Note_on_c, 4, 31, 127
4, 44448, Note_off_c, 4, 31, 127
4, 44448, Note_on_c, 4, 33, 127
4, 44544, Note_off_c, 4, 33, 127
4, 44544, Note_on_c, 4, 35, 127
4, 44688, Note_off_c, 4, 35, 127
4, 44688, Note_on_c, 4, 35, 127
4, 44832, Note_off_c, 4, 35, 127
4, 44832, Note_on_c, 4, 35, 127
4, 44976, Note_off_c, 4, 35, 127
4, 44976, Note_on_c, 4, 35, 127
4, 45120, Note_off_c, 4, 35, 127
4, 45120, Note_on_c, 4, 35, 127
4, 45216, Note_off_c, 4, 35, 127
4, 45216, Note_on_c, 4, 38, 127
4, 45312, Note_off_c, 4, 38, 127
4, 45312, Note_on_c, 4, 33, 127
4, 45456, Note_off_c, 4, 33, 127
4, 45456, Note_on_c, 4, 33, 127
4, 45600, Note_off_c, 4, 33, 127
4, 45600, Note_on_c, 4, 33, 127
4, 45744, Note_off_c, 4, 33, 127
4, 45744, Note_on_c, 4, 33, 127
4, 45888, Note_off_c, 4, 33, 127
4, 45888, Note_on_c, 4, 33, 127
4, 45984, Note_off_c, 4, 33, 127
4, 45984, Note_on_c, 4, 30, 127
4, 46080, Note_off_c, 4, 30, 127
4, 46080, Note_on_c, 4, 31, 127
4, 46224, Note_off_c, 4, 31, 127
4, 46224, Note_on_c, 4, 31, 127
4, 46368, Note_off_c, 4, 31, 127
4, 46368, Note_on_c, 4, 31, 127
4, 46512, Note_off_c, 4, 31, 127
4, 46512, Note_on_c, 4, 31, 127
4, 46656, Note_off_c, 4, 31, 127
4, 46656, Note_on_c, 4, 31, 127
4, 46752, Note_off_c, 4, 31, 127
4, 46752, Note_on_c, 4, 30, 127
4, 46848, Note_off_c, 4, 30, 127
4, 46848, Note_on_c, 4, 31, 127
4, 46992, Note_off_c, 4, 31, 127
4, 46992, Note_on_c, 4, 31, 127
4, 47136, Note_off_c, 4, 31, 127
4, 47136, Note_on_c, 4, 31, 127
4, 47280, Note_off_c, 4, 31, 127
4, 47280, Note_on_c, 4, 31, 127
4, 47424, Note_off_c, 4, 31, 127
4, 47424, Note_on_c, 4, 31, 127
4, 47520, Note_off_c, 4, 31, 127
4, 47520, Note_on_c, 4, 33, 127
4, 47616, Note_off_c, 4, 33, 127
4, 47616, Note_on_c, 4, 35, 127
4, 47760, Note_off_c, 4, 35, 127
4, 47760, Note_on_c, 4, 35, 127
4, 47904, Note_off_c, 4, 35, 127
4, 47904, Note_on_c, 4, 35, 127
4, 48048, Note_off_c, 4, 35, 127
4, 48048, Note_on_c, 4, 35, 127
4, 48192, Note_off_c, 4, 35, 127
4, 48192, Note_on_c, 4, 35, 127
4, 48288, Note_off_c, 4, 35, 127
4, 48288, Note_on_c, 4, 38, 127
4, 48384, Note_off_c, 4, 38, 127
4, 48384, Note_on_c, 4, 33, 127
4, 48528, Note_off_c, 4, 33, 127
4, 48528, Note_on_c, 4, 33, 127
4, 48672, Note_off_c, 4, 33, 127
4, 48672, Note_on_c, 4, 33, 127
4, 48816, Note_off_c, 4, 33, 127
4, 48816, Note_on_c, 4, 33, 127
4, 48960, Note_off_c, 4, 33, 127
4, 48960, Note_on_c, 4, 33, 127
4, 49056, Note_off_c, 4, 33, 127
4, 49056, Note_on_c, 4, 30, 127
4, 49152, Note_off_c, 4, 30, 127
4, 49152, Note_on_c, 4, 31, 127
4, 49296, Note_off_c, 4, 31, 127
4, 49296, Note_on_c, 4, 31, 127
4, 49440, Note_off_c, 4, 31, 127
4, 49440, Note_on_c, 4, 31, 127
4, 49584, Note_off_c, 4, 31, 127
4, 49584, Note_on_c, 4, 31, 127
4, 49728, Note_off_c, 4, 31, 127
4, 49728, Note_on_c, 4, 31, 127
4, 49824, Note_off_c, 4, 31, 127
4, 49824, Note_on_c, 4, 30, 127
4, 49920, Note_off_c, 4, 30, 127
4, 49920, Note_on_c, 4, 31, 127
4, 50064, Note_off_c, 4, 31, 127
4, 50064, Note_on_c, 4, 31, 127
4, 50208, Note_off_c, 4, 31, 127
4, 50208, Note_on_c, 4, 31, 127
4, 50352, Note_off_c, 4, 31, 127
4, 50352, Note_on_c, 4, 31, 127
4, 50496, Note_off_c, 4, 31, 127
4, 50496, Note_on_c, 4, 31, 127
4, 50592, Note_off_c, 4, 31, 127
4, 50592, Note_on_c, 4, 33, 127
4, 50688, Note_off_c, 4, 33, 127
4, 50688, Note_on_c, 4, 35, 127
4, 50832, Note_off_c, 4, 35, 127
4, 50832, Note_on_c, 4, 35, 127
4, 50976, Note_off_c, 4, 35, 127
4, 50976, Note_on_c, 4, 35, 127
4, 51120, Note_off_c, 4, 35, 127
4, 51120, Note_on_c, 4, 35, 127
4, 51264, Note_off_c, 4, 35, 127
4, 51264, Note_on_c, 4, 35, 127
4, 51360, Note_off_c, 4, 35, 127
4, 51360, Note_on_c, 4, 38, 127
4, 51456, Note_off_c, 4, 38, 127
4, 51456, Note_on_c, 4, 33, 127
4, 51600, Note_off_c, 4, 33, 127
4, 51600, Note_on_c, 4, 33, 127
4, 51744, Note_off_c, 4, 33, 127
4, 51744, Note_on_c, 4, 33, 127
4, 51888, Note_off_c, 4, 33, 127
4, 51888, Note_on_c, 4, 33, 127
4, 52032, Note_off_c, 4, 33, 127
4, 52032, Note_on_c, 4, 33, 127
4, 52128, Note_off_c, 4, 33, 127
4, 52128, Note_on_c, 4, 30, 127
4, 52224, Note_off_c, 4, 30, 127
4, 52224, Note_on_c, 4, 31, 127
4, 52368, Note_off_c, 4, 31, 127
4, 52368, Note_on_c, 4, 31, 127
4, 52512, Note_off_c, 4, 31, 127
4, 52512, Note_on_c, 4, 31, 127
4, 52656, Note_off_c, 4, 31, 127
4, 52656, Note_on_c, 4, 31, 127
4, 52800, Note_off_c, 4, 31, 127
4, 52800, Note_on_c, 4, 31, 127
4, 52896, Note_off_c, 4, 31, 127
4, 52896, Note_on_c, 4, 30, 127
4, 52992, Note_off_c, 4, 30, 127
4, 52992, Note_on_c, 4, 31, 127
4, 53136, Note_off_c, 4, 31, 127
4, 53136, Note_on_c, 4, 31, 127
4, 53280, Note_off_c, 4, 31, 127
4, 53280, Note_on_c, 4, 31, 127
4, 53424, Note_off_c, 4, 31, 127
4, 53424, Note_on_c, 4, 31, 127
4, 53568, Note_off_c, 4, 31, 127
4, 53568, Note_on_c, 4, 31, 127
4, 53664, Note_off_c, 4, 31, 127
4, 53664, Note_on_c, 4, 33, 127
4, 53760, Note_off_c, 4, 33, 127
4, 53760, Note_on_c, 4, 35, 127
4, 53904, Note_off_c, 4, 35, 127
4, 53904, Note_on_c, 4, 35, 127
4, 54048, Note_off_c, 4, 35, 127
4, 54048, Note_on_c, 4, 35, 127
4, 54192, Note_off_c, 4, 35, 127
4, 54192, Note_on_c, 4, 35, 127
4, 54336, Note_off_c, 4, 35, 127
4, 54336, Note_on_c, 4, 35, 127
4, 54432, Note_off_c, 4, 35, 127
4, 54432, Note_on_c, 4, 38, 127
4, 54528, Note_off_c, 4, 38, 127
4, 54528, Note_on_c, 4, 33, 127
4, 54672, Note_off_c, 4, 33, 127
4, 54672, Note_on_c, 4, 33, 127
4, 54816, Note_off_c, 4, 33, 127
4, 54816, Note_on_c, 4, 33, 127
4, 54960, Note_off_c, 4, 33, 127
4, 54960, Note_on_c, 4, 33, 127
4, 55104, Note_off_c, 4, 33, 127
4, 55104, Note_on_c, 4, 33, 127
4, 55200, Note_off_c, 4, 33, 127
4, 55200, Note_on_c, 4, 30, 127
4, 55296, Note_off_c, 4, 30, 127
4, 55296, Note_on_c, 4, 31, 127
4, 55440, Note_off_c, 4, 31, 127
4, 55440, Note_on_c, 4, 31, 127
4, 55584, Note_off_c, 4, 31, 127
4, 55584, Note_on_c, 4, 31, 127
4, 55728, Note_off_c, 4, 31, 127
4, 55728, Note_on_c, 4, 31, 127
4, 55872, Note_off_c, 4, 31, 127
4, 55872, Note_on_c, 4, 31, 127
4, 55968, Note_off_c, 4, 31, 127
4, 55968, Note_on_c, 4, 30, 127
4, 56064, Note_off_c, 4, 30, 127
4, 56064, Note_on_c, 4, 31, 127
4, 56208, Note_off_c, 4, 31, 127
4, 56208, Note_on_c, 4, 31, 127
4, 56352, Note_off_c, 4, 31, 127
4, 56352, Note_on_c, 4, 31, 127
4, 56496, Note_off_c, 4, 31, 127
4, 56496, Note_on_c, 4, 31, 127
4, 56640, Note_off_c, 4, 31, 127
4, 56640, Note_on_c, 4, 31, 127
4, 56736, Note_off_c, 4, 31, 127
4, 56736, Note_on_c, 4, 33, 127
4, 56832, Note_off_c, 4, 33, 127
4, 56832, Note_on_c, 4, 35, 127
4, 56976, Note_off_c, 4, 35, 127
4, 56976, Note_on_c, 4, 35, 127
4, 57120, Note_off_c, 4, 35, 127
4, 57120, Note_on_c, 4, 35, 127
4, 57264, Note_off_c, 4, 35, 127
4, 57264, Note_on_c, 4, 35, 127
4, 57408, Note_off_c, 4, 35, 127
4, 57408, Note_on_c, 4, 35, 127
4, 57504, Note_off_c, 4, 35, 127
4, 57504, Note_on_c, 4, 38, 127
4, 57600, Note_off_c, 4, 38, 127
4, 57600, Note_on_c, 4, 33, 127
4, 57744, Note_off_c, 4, 33, 127
4, 57744, Note_on_c, 4, 33, 127
4, 57888, Note_off_c, 4, 33, 127
4, 57888, Note_on_c, 4, 33, 127
4, 58032, Note_off_c, 4, 33, 127
4, 58032, Note_on_c, 4, 33, 127
4, 58176, Note_off_c, 4, 33, 127
4, 58176, Note_on_c, 4, 33, 127
4, 58272, Note_off_c, 4, 33, 127
4, 58272, Note_on_c, 4, 30, 127
4, 58368, Note_off_c, 4, 30, 127
4, 58368, Note_on_c, 4, 31, 127
4, 58512, Note_off_c, 4, 31, 127
4, 58512, Note_on_c, 4, 31, 127
4, 58656, Note_off_c, 4, 31, 127
4, 58656, Note_on_c, 4, 31, 127
4, 58800, Note_off_c, 4, 31, 127
4, 58800, Note_on_c, 4, 31, 127
4, 58944, Note_off_c, 4, 31, 127
4, 58944, Note_on_c, 4, 31, 127
4, 59040, Note_off_c, 4, 31, 127
4, 59040, Note_on_c, 4, 30, 127
4, 59136, Note_off_c, 4, 30, 127
4, 59136, Note_on_c, 4, 31, 127
4, 59280, Note_off_c, 4, 31, 127
4, 59280, Note_on_c, 4, 31, 127
4, 59424, Note_off_c, 4, 31, 127
4, 59424, Note_on_c, 4, 31, 127
4, 59568, Note_off_c, 4, 31, 127
4, 59568, Note_on_c, 4, 31, 127
4, 59712, Note_off_c, 4, 31, 127
4, 59712, Note_on_c, 4, 31, 127
4, 59808, Note_off_c, 4, 31, 127
4, 59808, Note_on_c, 4, 33, 127
4, 59904, Note_off_c, 4, 33, 127
4, 59904, Note_on_c, 4, 35, 127
4, 60048, Note_off_c, 4, 35, 127
4, 60048, Note_on_c, 4, 35, 127
4, 60192, Note_off_c, 4, 35, 127
4, 60192, Note_on_c, 4, 35, 127
4, 60336, Note_off_c, 4, 35, 127
4, 60336, Note_on_c, 4, 35, 127
4, 60480, Note_off_c, 4, 35, 127
4, 60480, Note_on_c, 4, 35, 127
4, 60576, Note_off_c, 4, 35, 127
4, 60576, Note_on_c, 4, 38, 127
4, 60672, Note_off_c, 4, 38, 127
4, 60672, Note_on_c, 4, 33, 127
4, 60816, Note_off_c, 4, 33, 127
4, 60816, Note_on_c, 4, 33, 127
4, 60960, Note_off_c, 4, 33, 127
4, 60960, Note_on_c, 4, 33, 127
4, 61104, Note_off_c, 4, 33, 127
4, 61104, Note_on_c, 4, 33, 127
4, 61248, Note_off_c, 4, 33, 127
4, 61248, Note_on_c, 4, 33, 127
4, 61344, Note_off_c, 4, 33, 127
4, 61344, Note_on_c, 4, 30, 127
4, 61440, Note_off_c, 4, 30, 127
4, 61440, Note_on_c, 4, 31, 127
4, 61584, Note_off_c, 4, 31, 127
4, 61584, Note_on_c, 4, 31, 127
4, 61728, Note_off_c, 4, 31, 127
4, 61728, Note_on_c, 4, 31, 127
4, 61872, Note_off_c, 4, 31, 127
4, 61872, Note_on_c, 4, 31, 127
4, 62016, Note_off_c, 4, 31, 127
4, 62016, Note_on_c, 4, 31, 127
4, 62112, Note_off_c, 4, 31, 127
4, 62112, Note_on_c, 4, 30, 127
4, 62208, Note_off_c, 4, 30, 127
4, 62208, Note_on_c, 4, 31, 127
4, 62352, Note_off_c, 4, 31, 127
4, 62352, Note_on_c, 4, 31, 127
4, 62496, Note_off_c, 4, 31, 127
4, 62496, Note_on_c, 4, 31, 127
4, 62640, Note_off_c, 4, 31, 127
4, 62640, Note_on_c, 4, 31, 127
4, 62784, Note_off_c, 4, 31, 127
4, 62784, Note_on_c, 4, 31, 127
4, 62880, Note_off_c, 4, 31, 127
4, 62880, Note_on_c, 4, 33, 127
4, 62976, Note_off_c, 4, 33, 127
4, 62976, Note_on_c, 4, 35, 127
4, 63120, Note_off_c, 4, 35, 127
4, 63120, Note_on_c, 4, 35, 127
4, 63264, Note_off_c, 4, 35, 127
4, 63264, Note_on_c, 4, 35, 127
4, 63408, Note_off_c, 4, 35, 127
4, 63408, Note_on_c, 4, 35, 127
4, 63552, Note_off_c, 4, 35, 127
4, 63552, Note_on_c, 4, 35, 127
4, 63648, Note_off_c, 4, 35, 127
4, 63648, Note_on_c, 4, 38, 127
4, 63744, Note_off_c, 4, 38, 127
4, 63744, Note_on_c, 4, 33, 127
4, 63888, Note_off_c, 4, 33, 127
4, 63888, Note_on_c, 4, 33, 127
4, 64032, Note_off_c, 4, 33, 127
4, 64032, Note_on_c, 4, 33, 127
4, 64176, Note_off_c, 4, 33, 127
4, 64176, Note_on_c, 4, 33, 127
4, 64320, Note_off_c, 4, 33, 127
4, 64320, Note_on_c, 4, 33, 127
4, 64416, Note_off_c, 4, 33, 127
4, 64416, Note_on_c, 4, 30, 127
4, 64512, Note_off_c, 4, 30, 127
4, 64512, Note_on_c, 4, 31, 127
4, 64656, Note_off_c, 4, 31, 127
4, 64656, Note_on_c, 4, 31, 127
4, 64800, Note_off_c, 4, 31, 127
4, 64800, Note_on_c, 4, 31, 127
4, 64944, Note_off_c, 4, 31, 127
4, 64944, Note_on_c, 4, 31, 127
4, 65088, Note_off_c, 4, 31, 127
4, 65088, Note_on_c, 4, 31, 127
4, 65184, Note_off_c, 4, 31, 127
4, 65184, Note_on_c, 4, 30, 127
4, 65280, Note_off_c, 4, 30, 127
4, 65280, Note_on_c, 4, 31, 127
4, 65424, Note_off_c, 4, 31, 127
4, 65424, Note_on_c, 4, 31, 127
4, 65568, Note_off_c, 4, 31, 127
4, 65568, Note_on_c, 4, 31, 127
4, 65712, Note_off_c, 4, 31, 127
4, 65712, Note_on_c, 4, 31, 127
4, 65856, Note_off_c, 4, 31, 127
4, 65856, Note_on_c, 4, 31, 127
4, 65952, Note_off_c, 4, 31, 127
4, 65952, Note_on_c, 4, 33, 127
4, 66048, Note_off_c, 4, 33, 127
4, 66048, Note_on_c, 4, 35, 127
4, 66192, Note_off_c, 4, 35, 127
4, 66192, Note_on_c, 4, 35, 127
4, 66336, Note_off_c, 4, 35, 127
4, 66336, Note_on_c, 4, 35, 127
4, 66480, Note_off_c, 4, 35, 127
4, 66480, Note_on_c, 4, 35, 127
4, 66624, Note_off_c, 4, 35, 127
4, 66624, Note_on_c, 4, 35, 127
4, 66720, Note_off_c, 4, 35, 127
4, 66720, Note_on_c, 4, 38, 127
4, 66816, Note_off_c, 4, 38, 127
4, 66816, Note_on_c, 4, 33, 127
4, 66960, Note_off_c, 4, 33, 127
4, 66960, Note_on_c, 4, 33, 127
4, 67104, Note_off_c, 4, 33, 127
4, 67104, Note_on_c, 4, 33, 127
4, 67248, Note_off_c, 4, 33, 127
4, 67248, Note_on_c, 4, 33, 127
4, 67392, Note_off_c, 4, 33, 127
4, 67392, Note_on_c, 4, 33, 127
4, 67488, Note_off_c, 4, 33, 127
4, 67488, Note_on_c, 4, 30, 127
4, 67584, Note_off_c, 4, 30, 127
4, 67584, Note_on_c, 4, 31, 127
4, 67728, Note_off_c, 4, 31, 127
4, 67728, Note_on_c, 4, 31, 127
4, 67872, Note_off_c, 4, 31, 127
4, 67872, Note_on_c, 4, 31, 127
4, 68016, Note_off_c, 4, 31, 127
4, 68016, Note_on_c, 4, 31, 127
4, 68160, Note_off_c, 4, 31, 127
4, 68160, Note_on_c, 4, 31, 127
4, 68256, Note_off_c, 4, 31, 127
4, 68256, Note_on_c, 4, 30, 127
4, 68352, Note_off_c, 4, 30, 127
4, 68352, Note_on_c, 4, 31, 127
4, 68496, Note_off_c, 4, 31, 127
4, 68496, Note_on_c, 4, 31, 127
4, 68640, Note_off_c, 4, 31, 127
4, 68640, Note_on_c, 4, 31, 127
4, 68784, Note_off_c, 4, 31, 127
4, 68784, Note_on_c, 4, 31, 127
4, 68928, Note_off_c, 4, 31, 127
4, 68928, Note_on_c, 4, 31, 127
4, 69024, Note_off_c, 4, 31, 127
4, 69024, Note_on_c, 4, 33, 127
4, 69120, Note_off_c, 4, 33, 127
4, 69120, Note_on_c, 4, 35, 127
4, 69264, Note_off_c, 4, 35, 127
4, 69264, Note_on_c, 4, 35, 127
4, 69408, Note_off_c, 4, 35, 127
4, 69408, Note_on_c, 4, 35, 127
4, 69552, Note_off_c, 4, 35, 127
4, 69552, Note_on_c, 4, 35, 127
4, 69696, Note_off_c, 4, 35, 127
4, 69696, Note_on_c, 4, 35, 127
4, 69792, Note_off_c, 4, 35, 127
4, 69792, Note_on_c, 4, 38, 127
4, 69888, Note_off_c, 4, 38, 127
4, 69888, Note_on_c, 4, 33, 127
4, 70032, Note_off_c, 4, 33, 127
4, 70032, Note_on_c, 4, 33, 127
4, 70176, Note_off_c, 4, 33, 127
4, 70176, Note_on_c, 4, 33, 127
4, 70320, Note_off_c, 4, 33, 127
4, 70320, Note_on_c, 4, 33, 127
4, 70464, Note_off_c, 4, 33, 127
4, 70464, Note_on_c, 4, 33, 127
4, 70560, Note_off_c, 4, 33, 127
4, 70560, Note_on_c, 4, 30, 127
4, 70656, Note_off_c, 4, 30, 127
4, 70656, Note_on_c, 4, 31, 127
4, 70800, Note_off_c, 4, 31, 127
4, 70800, Note_on_c, 4, 31, 127
4, 70944, Note_off_c, 4, 31, 127
4, 70944, Note_on_c, 4, 31, 127
4, 71088, Note_off_c, 4, 31, 127
4, 71088, Note_on_c, 4, 31, 127
4, 71232, Note_off_c, 4, 31, 127
4, 71232, Note_on_c, 4, 31, 127
4, 71328, Note_off_c, 4, 31, 127
4, 71328, Note_on_c, 4, 30, 127
4, 71424, Note_off_c, 4, 30, 127
4, 71424, Note_on_c, 4, 31, 127
4, 71568, Note_off_c, 4, 31, 127
4, 71568, Note_on_c, 4, 31, 127
4, 71712, Note_off_c, 4, 31, 127
4, 71712, Note_on_c, 4, 31, 127
4, 71856, Note_off_c, 4, 31, 127
4, 71856, Note_on_c, 4, 31, 127
4, 72000, Note_off_c, 4, 31, 127
4, 72000, Note_on_c, 4, 31, 127
4, 72096, Note_off_c, 4, 31, 127
4, 72096, Note_on_c, 4, 33, 127
4, 72192, Note_off_c, 4, 33, 127
4, 72192, Note_on_c, 4, 35, 127
4, 72336, Note_off_c, 4, 35, 127
4, 72336, Note_on_c, 4, 35, 127
4, 72480, Note_off_c, 4, 35, 127
4, 72480, Note_on_c, 4, 35, 127
4, 72624, Note_off_c, 4, 35, 127
4, 72624, Note_on_c, 4, 35, 127
4, 72768, Note_off_c, 4, 35, 127
4, 72768, Note_on_c, 4, 35, 127
4, 72864, Note_off_c, 4, 35, 127
4, 72864, Note_on_c, 4, 38, 127
4, 72960, Note_off_c, 4, 38, 127
4, 72960, Note_on_c, 4, 33, 127
4, 73104, Note_off_c, 4, 33, 127
4, 73104, Note_on_c, 4, 33, 127
4, 73248, Note_off_c, 4, 33, 127
4, 73248, Note_on_c, 4, 33, 127
4, 73392, Note_off_c, 4, 33, 127
4, 73392, Note_on_c, 4, 33, 127
4, 73536, Note_off_c, 4, 33, 127
4, 73536, Note_on_c, 4, 33, 127
4, 73632, Note_off_c, 4, 33, 127
4, 73632, Note_on_c, 4, 30, 127
4, 73728, Note_off_c, 4, 30, 127
4, 73728, Note_on_c, 4, 31, 127
4, 73872, Note_off_c, 4, 31, 127
4, 73872, Note_on_c, 4, 31, 127
4, 74016, Note_off_c, 4, 31, 127
4, 74016, Note_on_c, 4, 31, 127
4, 74160, Note_off_c, 4, 31, 127
4, 74160, Note_on_c, 4, 31, 127
4, 74304, Note_off_c, 4, 31, 127
4, 74304, Note_on_c, 4, 31, 127
4, 74400, Note_off_c, 4, 31, 127
4, 74400, Note_on_c, 4, 30, 127
4, 74496, Note_off_c, 4, 30, 127
4, 74496, Note_on_c, 4, 31, 127
4, 74640, Note_off_c, 4, 31, 127
4, 74640, Note_on_c, 4, 31, 127
4, 74784, Note_off_c, 4, 31, 127
4, 74784, Note_on_c, 4, 31, 127
4, 74928, Note_off_c, 4, 31, 127
4, 74928, Note_on_c, 4, 31, 127
4, 75072, Note_off_c, 4, 31, 127
4, 75072, Note_on_c, 4, 31, 127
4, 75168, Note_off_c, 4, 31, 127
4, 75168, Note_on_c, 4, 33, 127
4, 75264, Note_off_c, 4, 33, 127
4, 75264, Note_on_c, 4, 35, 127
4, 75408, Note_off_c, 4, 35, 127
4, 75408, Note_on_c, 4, 35, 127
4, 75552, Note_off_c, 4, 35, 127
4, 75552, Note_on_c, 4, 35, 127
4, 75696, Note_off_c, 4, 35, 127
4, 75696, Note_on_c, 4, 35, 127
4, 75840, Note_off_c, 4, 35, 127
4, 75840, Note_on_c, 4, 35, 127
4, 75936, Note_off_c, 4, 35, 127
4, 75936, Note_on_c, 4, 38, 127
4, 76032, Note_off_c, 4, 38, 127
4, 76032, Note_on_c, 4, 33, 127
4, 76176, Note_off_c, 4, 33, 127
4, 76176, Note_on_c, 4, 33, 127
4, 76320, Note_off_c, 4, 33, 127
4, 76320, Note_on_c, 4, 33, 127
4, 76464, Note_off_c, 4, 33, 127
4, 76464, Note_on_c, 4, 33, 127
4, 76608, Note_off_c, 4, 33, 127
4, 76608, Note_on_c, 4, 33, 127
4, 76704, Note_off_c, 4, 33, 127
4, 76704, Note_on_c, 4, 30, 127
4, 76800, Note_off_c, 4, 30, 127
4, 76800, Note_on_c, 4, 31, 127
4, 76944, Note_off_c, 4, 31, 127
4, 76944, Note_on_c, 4, 31, 127
4, 77088, Note_off_c, 4, 31, 127
4, 77088, Note_on_c, 4, 31, 127
4, 77232, Note_off_c, 4, 31, 127
4, 77232, Note_on_c, 4, 31, 127
4, 77376, Note_off_c, 4, 31, 127
4, 77376, Note_on_c, 4, 31, 127
4, 77472, Note_off_c, 4, 31, 127
4, 77472, Note_on_c, 4, 30, 127
4, 77568, Note_off_c, 4, 30, 127
4, 77568, Note_on_c, 4, 31, 127
4, 77616, Control_c, 4, 7, 121
4, 77617, Control_c, 4, 7, 120
4, 77712, Note_off_c, 4, 31, 127
4, 77712, Control_c, 4, 7, 118
4, 77712, Note_on_c, 4, 31, 127
4, 77760, Control_c, 4, 7, 115
4, 77761, Control_c, 4, 7, 114
4, 77856, Note_off_c, 4, 31, 127
4, 77856, Control_c, 4, 7, 111
4, 77856, Note_on_c, 4, 31, 127
4, 77857, Control_c, 4, 7, 110
4, 77952, Control_c, 4, 7, 107
4, 77953, Control_c, 4, 7, 106
4, 78000, Note_off_c, 4, 31, 127
4, 78000, Note_on_c, 4, 31, 127
4, 78048, Control_c, 4, 7, 104
4, 78096, Control_c, 4, 7, 101
4, 78097, Control_c, 4, 7, 100
4, 78144, Note_off_c, 4, 31, 127
4, 78144, Note_on_c, 4, 31, 127
4, 78192, Control_c, 4, 7, 97
4, 78193, Control_c, 4, 7, 96
4, 78240, Note_off_c, 4, 31, 127
4, 78240, Note_on_c, 4, 33, 127
4, 78288, Control_c, 4, 7, 93
4, 78289, Control_c, 4, 7, 92
4, 78336, Note_off_c, 4, 33, 127
4, 78336, Note_on_c, 4, 35, 127
4, 78360, Control_c, 4, 7, 91
4, 78432, Control_c, 4, 7, 88
4, 78433, Control_c, 4, 7, 87
4, 78480, Note_off_c, 4, 35, 127
4, 78480, Note_on_c, 4, 35, 127
4, 78528, Control_c, 4, 7, 85
4, 78576, Control_c, 4, 7, 82
4, 78577, Control_c, 4, 7, 81
4, 78624, Note_off_c, 4, 35, 127
4, 78624, Note_on_c, 4, 35, 127
4, 78672, Control_c, 4, 7, 78
4, 78673, Control_c, 4, 7, 77
4, 78768, Note_off_c, 4, 35, 127
4, 78768, Control_c, 4, 7, 74
4, 78768, Note_on_c, 4, 35, 127
4, 78769, Control_c, 4, 7, 73
4, 78864, Control_c, 4, 7, 71
4, 78912, Note_off_c, 4, 35, 127
4, 78912, Control_c, 4, 7, 68
4, 78912, Note_on_c, 4, 35, 127
4, 78913, Control_c, 4, 7, 67
4, 79008, Note_off_c, 4, 35, 127
4, 79008, Control_c, 4, 7, 64
4, 79008, Note_on_c, 4, 38, 127
4, 79009, Control_c, 4, 7, 63
4, 79104, Note_off_c, 4, 38, 127
4, 79104, Control_c, 4, 7, 60
4, 79104, Note_on_c, 4, 33, 127
4, 79105, Control_c, 4, 7, 59
4, 79200, Control_c, 4, 7, 57
4, 79248, Note_off_c, 4, 33, 127
4, 79248, Control_c, 4, 7, 54
4, 79248, Note_on_c, 4, 33, 127
4, 79249, Control_c, 4, 7, 53
4, 79344, Control_c, 4, 7, 50
4, 79345, Control_c, 4, 7, 49
4, 79392, Note_off_c, 4, 33, 127
4, 79392, Note_on_c, 4, 33, 127
4, 79440, Control_c, 4, 7, 46
4, 79441, Control_c, 4, 7, 45
4, 79536, Note_off_c, 4, 33, 127
4, 79536, Control_c, 4, 7, 43
4, 79536, Note_on_c, 4, 33, 127
4, 79584, Control_c, 4, 7, 40
4, 79585, Control_c, 4, 7, 39
4, 79680, Note_off_c, 4, 33, 127
4, 79680, Control_c, 4, 7, 36
4, 79680, Note_on_c, 4, 33, 127
4, 79681, Control_c, 4, 7, 35
4, 79776, Note_off_c, 4, 33, 127
4, 79776, Control_c, 4, 7, 33
4, 79776, Note_on_c, 4, 30, 127
4, 79824, Control_c, 4, 7, 30
4, 79872, Note_off_c, 4, 30, 127
4, 79872, Note_on_c, 4, 31, 127
4, 79920, Control_c, 4, 7, 27
4, 79921, Control_c, 4, 7, 26
4, 80016, Note_off_c, 4, 31, 127
4, 80016, Control_c, 4, 7, 24
4, 80016, Note_on_c, 4, 31, 127
4, 80064, Control_c, 4, 7, 21
4, 80065, Control_c, 4, 7, 20
4, 80160, Note_off_c, 4, 31, 127
4, 80160, Control_c, 4, 7, 17
4, 80160, Note_on_c, 4, 31, 127
4, 80161, Control_c, 4, 7, 16
4, 80256, Control_c, 4, 7, 13
4, 80257, Control_c, 4, 7, 12
4, 80304, Note_off_c, 4, 31, 127
4, 80304, Note_on_c, 4, 31, 127
4, 80352, Control_c, 4, 7, 10
4, 80400, Control_c, 4, 7, 7
4, 80401, Control_c, 4, 7, 6
4, 80448, Note_off_c, 4, 31, 127
4, 80448, Note_on_c, 4, 31, 127
4, 80496, Control_c, 4, 7, 3
4, 80497, Control_c, 4, 7, 2
4, 80544, Note_off_c, 4, 31, 127
4, 80544, Note_on_c, 4, 30, 127
4, 80592, Control_c, 4, 7, 0
4, 80640, Note_off_c, 4, 30, 127
4, 80641, Control_c, 4, 123, 0
4, 80641, Control_c, 4, 120, 0
4, 80641, End_track
5, 0, Start_track
5, 0, MIDI_port, 0
5, 0, Unknown_meta_event, 9, 21, 77, 105, 99, 114, 111, 115, 111, 102, 116, 32, 77, 73, 68, 73, 32, 77, 97, 112, 112, 101, 114
5, 0, Title_t, "Warm Pad"
5, 774, Control_c, 6, 0, 0
5, 774, Control_c, 6, 32, 0
5, 774, Program_c, 6, 89
5, 774, Control_c, 6, 10, 64
5, 774, Control_c, 6, 91, 0
5, 774, Control_c, 6, 93, 0
5, 774, Control_c, 6, 101, 0
5, 774, Control_c, 6, 100, 0
5, 774, Control_c, 6, 6, 24
5, 774, Control_c, 6, 7, 127
5, 774, Pitch_bend_c, 6, 8192
5, 774, Control_c, 6, 10, 64
5, 774, Note_on_c, 6, 59, 95
5, 774, Note_on_c, 6, 55, 95
5, 774, Note_on_c, 6, 50, 95
5, 774, Note_on_c, 6, 43, 95
5, 775, Control_c, 6, 7, 125
5, 775, Control_c, 6, 7, 124
5, 1535, Note_off_c, 6, 59, 95
5, 1535, Note_off_c, 6, 55, 95
5, 1535, Note_off_c, 6, 50, 95
5, 1535, Note_off_c, 6, 43, 95
5, 1536, Note_on_c, 6, 62, 95
5, 1536, Note_on_c, 6, 59, 95
5, 1536, Note_on_c, 6, 54, 95
5, 1536, Note_on_c, 6, 47, 95
5, 2304, Note_off_c, 6, 62, 95
5, 2304, Note_off_c, 6, 59, 95
5, 2304, Note_off_c, 6, 54, 95
5, 2304, Note_off_c, 6, 47, 95
5, 2304, Note_on_c, 6, 61, 95
5, 2304, Note_on_c, 6, 57, 95
5, 2304, Note_on_c, 6, 52, 95
5, 2304, Note_on_c, 6, 45, 95
5, 3072, Note_off_c, 6, 61, 95
5, 3072, Note_off_c, 6, 57, 95
5, 3072, Note_off_c, 6, 52, 95
5, 3072, Note_off_c, 6, 45, 95
5, 3072, Note_on_c, 6, 59, 95
5, 3072, Note_on_c, 6, 55, 95
5, 3072, Note_on_c, 6, 50, 95
5, 3072, Note_on_c, 6, 43, 95
5, 3840, Note_off_c, 6, 59, 95
5, 3840, Note_off_c, 6, 55, 95
5, 3840, Note_off_c, 6, 50, 95
5, 3840, Note_off_c, 6, 43, 95
5, 3840, Note_on_c, 6, 59, 95
5, 3840, Note_on_c, 6, 55, 95
5, 3840, Note_on_c, 6, 50, 95
5, 3840, Note_on_c, 6, 43, 95
5, 4608, Note_off_c, 6, 59, 95
5, 4608, Note_off_c, 6, 55, 95
5, 4608, Note_off_c, 6, 50, 95
5, 4608, Note_off_c, 6, 43, 95
5, 4608, Note_on_c, 6, 62, 95
5, 4608, Note_on_c, 6, 59, 95
5, 4608, Note_on_c, 6, 54, 95
5, 4608, Note_on_c, 6, 47, 95
5, 5376, Note_off_c, 6, 62, 95
5, 5376, Note_off_c, 6, 59, 95
5, 5376, Note_off_c, 6, 54, 95
5, 5376, Note_off_c, 6, 47, 95
5, 5376, Note_on_c, 6, 61, 95
5, 5376, Note_on_c, 6, 57, 95
5, 5376, Note_on_c, 6, 52, 95
5, 5376, Note_on_c, 6, 45, 95
5, 6144, Note_off_c, 6, 61, 95
5, 6144, Note_off_c, 6, 57, 95
5, 6144, Note_off_c, 6, 52, 95
5, 6144, Note_off_c, 6, 45, 95
5, 6144, Note_on_c, 6, 59, 95
5, 6144, Note_on_c, 6, 55, 95
5, 6144, Note_on_c, 6, 50, 95
5, 6144, Note_on_c, 6, 43, 95
5, 6912, Note_off_c, 6, 59, 95
5, 6912, Note_off_c, 6, 55, 95
5, 6912, Note_off_c, 6, 50, 95
5, 6912, Note_off_c, 6, 43, 95
5, 13056, Note_on_c, 6, 59, 95
5, 13056, Note_on_c, 6, 55, 95
5, 13056, Note_on_c, 6, 50, 95
5, 13056, Note_on_c, 6, 43, 95
5, 13824, Note_off_c, 6, 59, 95
5, 13824, Note_off_c, 6, 55, 95
5, 13824, Note_off_c, 6, 50, 95
5, 13824, Note_off_c, 6, 43, 95
5, 13824, Note_on_c, 6, 62, 95
5, 13824, Note_on_c, 6, 59, 95
5, 13824, Note_on_c, 6, 54, 95
5, 13824, Note_on_c, 6, 47, 95
5, 14592, Note_off_c, 6, 62, 95
5, 14592, Note_off_c, 6, 59, 95
5, 14592, Note_off_c, 6, 54, 95
5, 14592, Note_off_c, 6, 47, 95
5, 14592, Note_on_c, 6, 61, 95
5, 14592, Note_on_c, 6, 57, 95
5, 14592, Note_on_c, 6, 52, 95
5, 14592, Note_on_c, 6, 45, 95
5, 15360, Note_off_c, 6, 61, 95
5, 15360, Note_off_c, 6, 57, 95
5, 15360, Note_off_c, 6, 52, 95
5, 15360, Note_off_c, 6, 45, 95
5, 15360, Note_on_c, 6, 59, 95
5, 15360, Note_on_c, 6, 55, 95
5, 15360, Note_on_c, 6, 50, 95
5, 15360, Note_on_c, 6, 43, 95
5, 16128, Note_off_c, 6, 59, 95
5, 16128, Note_off_c, 6, 55, 95
5, 16128, Note_off_c, 6, 50, 95
5, 16128, Note_off_c, 6, 43, 95
5, 16128, Note_on_c, 6, 59, 95
5, 16128, Note_on_c, 6, 55, 95
5, 16128, Note_on_c, 6, 50, 95
5, 16128, Note_on_c, 6, 43, 95
5, 16896, Note_off_c, 6, 59, 95
5, 16896, Note_off_c, 6, 55, 95
5, 16896, Note_off_c, 6, 50, 95
5, 16896, Note_off_c, 6, 43, 95
5, 16896, Note_on_c, 6, 62, 95
5, 16896, Note_on_c, 6, 59, 95
5, 16896, Note_on_c, 6, 54, 95
5, 16896, Note_on_c, 6, 47, 95
5, 17664, Note_off_c, 6, 62, 95
5, 17664, Note_off_c, 6, 59, 95
5, 17664, Note_off_c, 6, 54, 95
5, 17664, Note_off_c, 6, 47, 95
5, 17664, Note_on_c, 6, 61, 95
5, 17664, Note_on_c, 6, 57, 95
5, 17664, Note_on_c, 6, 52, 95
5, 17664, Note_on_c, 6, 45, 95
5, 18432, Note_off_c, 6, 61, 95
5, 18432, Note_off_c, 6, 57, 95
5, 18432, Note_off_c, 6, 52, 95
5, 18432, Note_off_c, 6, 45, 95
5, 18432, Note_on_c, 6, 59, 95
5, 18432, Note_on_c, 6, 55, 95
5, 18432, Note_on_c, 6, 50, 95
5, 18432, Note_on_c, 6, 43, 95
5, 19200, Note_off_c, 6, 59, 95
5, 19200, Note_off_c, 6, 55, 95
5, 19200, Note_off_c, 6, 50, 95
5, 19200, Note_off_c, 6, 43, 95
5, 25344, Note_on_c, 6, 59, 95
5, 25344, Note_on_c, 6, 55, 95
5, 25344, Note_on_c, 6, 50, 95
5, 25344, Note_on_c, 6, 43, 95
5, 26112, Note_off_c, 6, 59, 95
5, 26112, Note_off_c, 6, 55, 95
5, 26112, Note_off_c, 6, 50, 95
5, 26112, Note_off_c, 6, 43, 95
5, 26112, Note_on_c, 6, 62, 95
5, 26112, Note_on_c, 6, 59, 95
5, 26112, Note_on_c, 6, 54, 95
5, 26112, Note_on_c, 6, 47, 95
5, 26880, Note_off_c, 6, 62, 95
5, 26880, Note_off_c, 6, 59, 95
5, 26880, Note_off_c, 6, 54, 95
5, 26880, Note_off_c, 6, 47, 95
5, 26880, Note_on_c, 6, 61, 95
5, 26880, Note_on_c, 6, 57, 95
5, 26880, Note_on_c, 6, 52, 95
5, 26880, Note_on_c, 6, 45, 95
5, 27648, Note_off_c, 6, 61, 95
5, 27648, Note_off_c, 6, 57, 95
5, 27648, Note_off_c, 6, 52, 95
5, 27648, Note_off_c, 6, 45, 95
5, 27648, Note_on_c, 6, 59, 95
5, 27648, Note_on_c, 6, 55, 95
5, 27648, Note_on_c, 6, 50, 95
5, 27648, Note_on_c, 6, 43, 95
5, 28416, Note_off_c, 6, 59, 95
5, 28416, Note_off_c, 6, 55, 95
5, 28416, Note_off_c, 6, 50, 95
5, 28416, Note_off_c, 6, 43, 95
5, 28416, Note_on_c, 6, 59, 95
5, 28416, Note_on_c, 6, 55, 95
5, 28416, Note_on_c, 6, 50, 95
5, 28416, Note_on_c, 6, 43, 95
5, 29184, Note_off_c, 6, 59, 95
5, 29184, Note_off_c, 6, 55, 95
5, 29184, Note_off_c, 6, 50, 95
5, 29184, Note_off_c, 6, 43, 95
5, 29184, Note_on_c, 6, 62, 95
5, 29184, Note_on_c, 6, 59, 95
5, 29184, Note_on_c, 6, 54, 95
5, 29184, Note_on_c, 6, 47, 95
5, 29952, Note_off_c, 6, 62, 95
5, 29952, Note_off_c, 6, 59, 95
5, 29952, Note_off_c, 6, 54, 95
5, 29952, Note_off_c, 6, 47, 95
5, 29952, Note_on_c, 6, 61, 95
5, 29952, Note_on_c, 6, 57, 95
5, 29952, Note_on_c, 6, 52, 95
5, 29952, Note_on_c, 6, 45, 95
5, 30720, Note_off_c, 6, 61, 95
5, 30720, Note_off_c, 6, 57, 95
5, 30720, Note_off_c, 6, 52, 95
5, 30720, Note_off_c, 6, 45, 95
5, 30720, Note_on_c, 6, 59, 95
5, 30720, Note_on_c, 6, 55, 95
5, 30720, Note_on_c, 6, 50, 95
5, 30720, Note_on_c, 6, 43, 95
5, 31488, Note_off_c, 6, 59, 95
5, 31488, Note_off_c, 6, 55, 95
5, 31488, Note_off_c, 6, 50, 95
5, 31488, Note_off_c, 6, 43, 95
5, 31488, Note_on_c, 6, 59, 95
5, 31488, Note_on_c, 6, 55, 95
5, 31488, Note_on_c, 6, 50, 95
5, 31488, Note_on_c, 6, 43, 95
5, 32256, Note_off_c, 6, 59, 95
5, 32256, Note_off_c, 6, 55, 95
5, 32256, Note_off_c, 6, 50, 95
5, 32256, Note_off_c, 6, 43, 95
5, 32256, Note_on_c, 6, 62, 95
5, 32256, Note_on_c, 6, 59, 95
5, 32256, Note_on_c, 6, 54, 95
5, 32256, Note_on_c, 6, 47, 95
5, 33024, Note_off_c, 6, 62, 95
5, 33024, Note_off_c, 6, 59, 95
5, 33024, Note_off_c, 6, 54, 95
5, 33024, Note_off_c, 6, 47, 95
5, 33024, Note_on_c, 6, 61, 95
5, 33024, Note_on_c, 6, 57, 95
5, 33024, Note_on_c, 6, 52, 95
5, 33024, Note_on_c, 6, 45, 95
5, 33792, Note_off_c, 6, 61, 95
5, 33792, Note_off_c, 6, 57, 95
5, 33792, Note_off_c, 6, 52, 95
5, 33792, Note_off_c, 6, 45, 95
5, 33792, Note_on_c, 6, 59, 95
5, 33792, Note_on_c, 6, 55, 95
5, 33792, Note_on_c, 6, 50, 95
5, 33792, Note_on_c, 6, 43, 95
5, 34560, Note_off_c, 6, 59, 95
5, 34560, Note_off_c, 6, 55, 95
5, 34560, Note_off_c, 6, 50, 95
5, 34560, Note_off_c, 6, 43, 95
5, 34560, Note_on_c, 6, 59, 95
5, 34560, Note_on_c, 6, 55, 95
5, 34560, Note_on_c, 6, 50, 95
5, 34560, Note_on_c, 6, 43, 95
5, 35328, Note_off_c, 6, 59, 95
5, 35328, Note_off_c, 6, 55, 95
5, 35328, Note_off_c, 6, 50, 95
5, 35328, Note_off_c, 6, 43, 95
5, 35328, Note_on_c, 6, 62, 95
5, 35328, Note_on_c, 6, 59, 95
5, 35328, Note_on_c, 6, 54, 95
5, 35328, Note_on_c, 6, 47, 95
5, 36096, Note_off_c, 6, 62, 95
5, 36096, Note_off_c, 6, 59, 95
5, 36096, Note_off_c, 6, 54, 95
5, 36096, Note_off_c, 6, 47, 95
5, 36096, Note_on_c, 6, 61, 95
5, 36096, Note_on_c, 6, 57, 95
5, 36096, Note_on_c, 6, 52, 95
5, 36096, Note_on_c, 6, 45, 95
5, 36864, Note_off_c, 6, 61, 95
5, 36864, Note_off_c, 6, 57, 95
5, 36864, Note_off_c, 6, 52, 95
5, 36864, Note_off_c, 6, 45, 95
5, 36864, Note_on_c, 6, 59, 95
5, 36864, Note_on_c, 6, 55, 95
5, 36864, Note_on_c, 6, 50, 95
5, 36864, Note_on_c, 6, 43, 95
5, 37632, Note_off_c, 6, 59, 95
5, 37632, Note_off_c, 6, 55, 95
5, 37632, Note_off_c, 6, 50, 95
5, 37632, Note_off_c, 6, 43, 95
5, 43776, Note_on_c, 6, 59, 95
5, 43776, Note_on_c, 6, 55, 95
5, 43776, Note_on_c, 6, 50, 95
5, 43776, Note_on_c, 6, 43, 95
5, 44544, Note_off_c, 6, 59, 95
5, 44544, Note_off_c, 6, 55, 95
5, 44544, Note_off_c, 6, 50, 95
5, 44544, Note_off_c, 6, 43, 95
5, 44544, Note_on_c, 6, 62, 95
5, 44544, Note_on_c, 6, 59, 95
5, 44544, Note_on_c, 6, 54, 95
5, 44544, Note_on_c, 6, 47, 95
5, 45312, Note_off_c, 6, 62, 95
5, 45312, Note_off_c, 6, 59, 95
5, 45312, Note_off_c, 6, 54, 95
5, 45312, Note_off_c, 6, 47, 95
5, 45312, Note_on_c, 6, 61, 95
5, 45312, Note_on_c, 6, 57, 95
5, 45312, Note_on_c, 6, 52, 95
5, 45312, Note_on_c, 6, 45, 95
5, 46080, Note_off_c, 6, 61, 95
5, 46080, Note_off_c, 6, 57, 95
5, 46080, Note_off_c, 6, 52, 95
5, 46080, Note_off_c, 6, 45, 95
5, 46080, Note_on_c, 6, 59, 95
5, 46080, Note_on_c, 6, 55, 95
5, 46080, Note_on_c, 6, 50, 95
5, 46080, Note_on_c, 6, 43, 95
5, 46848, Note_off_c, 6, 59, 95
5, 46848, Note_off_c, 6, 55, 95
5, 46848, Note_off_c, 6, 50, 95
5, 46848, Note_off_c, 6, 43, 95
5, 46848, Note_on_c, 6, 59, 95
5, 46848, Note_on_c, 6, 55, 95
5, 46848, Note_on_c, 6, 50, 95
5, 46848, Note_on_c, 6, 43, 95
5, 47616, Note_off_c, 6, 59, 95
5, 47616, Note_off_c, 6, 55, 95
5, 47616, Note_off_c, 6, 50, 95
5, 47616, Note_off_c, 6, 43, 95
5, 47616, Note_on_c, 6, 62, 95
5, 47616, Note_on_c, 6, 59, 95
5, 47616, Note_on_c, 6, 54, 95
5, 47616, Note_on_c, 6, 47, 95
5, 48384, Note_off_c, 6, 62, 95
5, 48384, Note_off_c, 6, 59, 95
5, 48384, Note_off_c, 6, 54, 95
5, 48384, Note_off_c, 6, 47, 95
5, 48384, Note_on_c, 6, 61, 95
5, 48384, Note_on_c, 6, 57, 95
5, 48384, Note_on_c, 6, 52, 95
5, 48384, Note_on_c, 6, 45, 95
5, 49152, Note_off_c, 6, 61, 95
5, 49152, Note_off_c, 6, 57, 95
5, 49152, Note_off_c, 6, 52, 95
5, 49152, Note_off_c, 6, 45, 95
5, 49152, Note_on_c, 6, 59, 95
5, 49152, Note_on_c, 6, 55, 95
5, 49152, Note_on_c, 6, 50, 95
5, 49152, Note_on_c, 6, 43, 95
5, 49920, Note_off_c, 6, 59, 95
5, 49920, Note_off_c, 6, 55, 95
5, 49920, Note_off_c, 6, 50, 95
5, 49920, Note_off_c, 6, 43, 95
5, 49920, Note_on_c, 6, 59, 95
5, 49920, Note_on_c, 6, 55, 95
5, 49920, Note_on_c, 6, 50, 95
5, 49920, Note_on_c, 6, 43, 95
5, 50688, Note_off_c, 6, 59, 95
5, 50688, Note_off_c, 6, 55, 95
5, 50688, Note_off_c, 6, 50, 95
5, 50688, Note_off_c, 6, 43, 95
5, 50688, Note_on_c, 6, 62, 95
5, 50688, Note_on_c, 6, 59, 95
5, 50688, Note_on_c, 6, 54, 95
5, 50688, Note_on_c, 6, 47, 95
5, 51456, Note_off_c, 6, 62, 95
5, 51456, Note_off_c, 6, 59, 95
5, 51456, Note_off_c, 6, 54, 95
5, 51456, Note_off_c, 6, 47, 95
5, 51456, Note_on_c, 6, 61, 95
5, 51456, Note_on_c, 6, 57, 95
5, 51456, Note_on_c, 6, 52, 95
5, 51456, Note_on_c, 6, 45, 95
5, 52224, Note_off_c, 6, 61, 95
5, 52224, Note_off_c, 6, 57, 95
5, 52224, Note_off_c, 6, 52, 95
5, 52224, Note_off_c, 6, 45, 95
5, 52224, Note_on_c, 6, 59, 95
5, 52224, Note_on_c, 6, 55, 95
5, 52224, Note_on_c, 6, 50, 95
5, 52224, Note_on_c, 6, 43, 95
5, 52992, Note_off_c, 6, 59, 95
5, 52992, Note_off_c, 6, 55, 95
5, 52992, Note_off_c, 6, 50, 95
5, 52992, Note_off_c, 6, 43, 95
5, 52992, Note_on_c, 6, 59, 95
5, 52992, Note_on_c, 6, 55, 95
5, 52992, Note_on_c, 6, 50, 95
5, 52992, Note_on_c, 6, 43, 95
5, 53760, Note_off_c, 6, 59, 95
5, 53760, Note_off_c, 6, 55, 95
5, 53760, Note_off_c, 6, 50, 95
5, 53760, Note_off_c, 6, 43, 95
5, 53760, Note_on_c, 6, 62, 95
5, 53760, Note_on_c, 6, 59, 95
5, 53760, Note_on_c, 6, 54, 95
5, 53760, Note_on_c, 6, 47, 95
5, 54528, Note_off_c, 6, 62, 95
5, 54528, Note_off_c, 6, 59, 95
5, 54528, Note_off_c, 6, 54, 95
5, 54528, Note_off_c, 6, 47, 95
5, 54528, Note_on_c, 6, 61, 95
5, 54528, Note_on_c, 6, 57, 95
5, 54528, Note_on_c, 6, 52, 95
5, 54528, Note_on_c, 6, 45, 95
5, 55296, Note_off_c, 6, 61, 95
5, 55296, Note_off_c, 6, 57, 95
5, 55296, Note_off_c, 6, 52, 95
5, 55296, Note_off_c, 6, 45, 95
5, 55296, Note_on_c, 6, 59, 95
5, 55296, Note_on_c, 6, 55, 95
5, 55296, Note_on_c, 6, 50, 95
5, 55296, Note_on_c, 6, 43, 95
5, 56064, Note_off_c, 6, 59, 95
5, 56064, Note_off_c, 6, 55, 95
5, 56064, Note_off_c, 6, 50, 95
5, 56064, Note_off_c, 6, 43, 95
5, 77616, Control_c, 6, 7, 121
5, 77617, Control_c, 6, 7, 120
5, 77712, Control_c, 6, 7, 118
5, 77760, Control_c, 6, 7, 115
5, 77761, Control_c, 6, 7, 114
5, 77856, Control_c, 6, 7, 111
5, 77857, Control_c, 6, 7, 110
5, 77952, Control_c, 6, 7, 107
5, 77953, Control_c, 6, 7, 106
5, 78048, Control_c, 6, 7, 104
5, 78096, Control_c, 6, 7, 101
5, 78097, Control_c, 6, 7, 100
5, 78192, Control_c, 6, 7, 97
5, 78193, Control_c, 6, 7, 96
5, 78288, Control_c, 6, 7, 93
5, 78289, Control_c, 6, 7, 92
5, 78360, Control_c, 6, 7, 91
5, 78432, Control_c, 6, 7, 88
5, 78433, Control_c, 6, 7, 87
5, 78528, Control_c, 6, 7, 85
5, 78576, Control_c, 6, 7, 82
5, 78577, Control_c, 6, 7, 81
5, 78672, Control_c, 6, 7, 78
5, 78673, Control_c, 6, 7, 77
5, 78768, Control_c, 6, 7, 74
5, 78769, Control_c, 6, 7, 73
5, 78864, Control_c, 6, 7, 71
5, 78912, Control_c, 6, 7, 68
5, 78913, Control_c, 6, 7, 67
5, 79008, Control_c, 6, 7, 64
5, 79009, Control_c, 6, 7, 63
5, 79104, Control_c, 6, 7, 60
5, 79105, Control_c, 6, 7, 59
5, 79200, Control_c, 6, 7, 57
5, 79248, Control_c, 6, 7, 54
5, 79249, Control_c, 6, 7, 53
5, 79344, Control_c, 6, 7, 50
5, 79345, Control_c, 6, 7, 49
5, 79440, Control_c, 6, 7, 46
5, 79441, Control_c, 6, 7, 45
5, 79536, Control_c, 6, 7, 43
5, 79584, Control_c, 6, 7, 40
5, 79585, Control_c, 6, 7, 39
5, 79680, Control_c, 6, 7, 36
5, 79681, Control_c, 6, 7, 35
5, 79776, Control_c, 6, 7, 33
5, 79824, Control_c, 6, 7, 30
5, 79920, Control_c, 6, 7, 27
5, 79921, Control_c, 6, 7, 26
5, 80016, Control_c, 6, 7, 24
5, 80064, Control_c, 6, 7, 21
5, 80065, Control_c, 6, 7, 20
5, 80160, Control_c, 6, 7, 17
5, 80161, Control_c, 6, 7, 16
5, 80256, Control_c, 6, 7, 13
5, 80257, Control_c, 6, 7, 12
5, 80352, Control_c, 6, 7, 10
5, 80400, Control_c, 6, 7, 7
5, 80401, Control_c, 6, 7, 6
5, 80496, Control_c, 6, 7, 3
5, 80497, Control_c, 6, 7, 2
5, 80592, Control_c, 6, 7, 0
5, 80641, Control_c, 6, 123, 0
5, 80641, Control_c, 6, 120, 0
5, 80641, End_track
6, 0, Start_track
6, 0, MIDI_port, 0
6, 0, Unknown_meta_event, 9, 21, 77, 105, 99, 114, 111, 115, 111, 102, 116, 32, 77, 73, 68, 73, 32, 77, 97, 112, 112, 101, 114
6, 0, Title_t, "Saw Wave"
6, 6912, Control_c, 1, 0, 0
6, 6912, Control_c, 1, 32, 0
6, 6912, Program_c, 1, 81
6, 6912, Control_c, 1, 10, 64
6, 6912, Control_c, 1, 91, 0
6, 6912, Control_c, 1, 93, 0
6, 6912, Control_c, 1, 101, 0
6, 6912, Control_c, 1, 100, 0
6, 6912, Control_c, 1, 6, 24
6, 6912, Control_c, 1, 7, 127
6, 6912, Pitch_bend_c, 1, 8192
6, 6912, Control_c, 1, 10, 64
6, 6912, Note_on_c, 1, 59, 95
6, 6912, Note_on_c, 1, 55, 95
6, 6912, Note_on_c, 1, 50, 95
6, 6912, Note_on_c, 1, 43, 95
6, 6913, Control_c, 1, 7, 124
6, 7680, Note_off_c, 1, 59, 95
6, 7680, Note_off_c, 1, 55, 95
6, 7680, Note_off_c, 1, 50, 95
6, 7680, Note_off_c, 1, 43, 95
6, 7680, Note_on_c, 1, 62, 95
6, 7680, Note_on_c, 1, 59, 95
6, 7680, Note_on_c, 1, 54, 95
6, 7680, Note_on_c, 1, 47, 95
6, 8448, Note_off_c, 1, 62, 95
6, 8448, Note_off_c, 1, 59, 95
6, 8448, Note_off_c, 1, 54, 95
6, 8448, Note_off_c, 1, 47, 95
6, 8448, Note_on_c, 1, 61, 95
6, 8448, Note_on_c, 1, 57, 95
6, 8448, Note_on_c, 1, 52, 95
6, 8448, Note_on_c, 1, 45, 95
6, 9216, Note_off_c, 1, 61, 95
6, 9216, Note_off_c, 1, 57, 95
6, 9216, Note_off_c, 1, 52, 95
6, 9216, Note_off_c, 1, 45, 95
6, 9216, Note_on_c, 1, 59, 95
6, 9216, Note_on_c, 1, 55, 95
6, 9216, Note_on_c, 1, 50, 95
6, 9216, Note_on_c, 1, 43, 95
6, 9984, Note_off_c, 1, 59, 95
6, 9984, Note_off_c, 1, 55, 95
6, 9984, Note_off_c, 1, 50, 95
6, 9984, Note_off_c, 1, 43, 95
6, 9984, Note_on_c, 1, 59, 95
6, 9984, Note_on_c, 1, 55, 95
6, 9984, Note_on_c, 1, 50, 95
6, 9984, Note_on_c, 1, 43, 95
6, 10752, Note_off_c, 1, 59, 95
6, 10752, Note_off_c, 1, 55, 95
6, 10752, Note_off_c, 1, 50, 95
6, 10752, Note_off_c, 1, 43, 95
6, 10752, Note_on_c, 1, 62, 95
6, 10752, Note_on_c, 1, 59, 95
6, 10752, Note_on_c, 1, 54, 95
6, 10752, Note_on_c, 1, 47, 95
6, 11520, Note_off_c, 1, 62, 95
6, 11520, Note_off_c, 1, 59, 95
6, 11520, Note_off_c, 1, 54, 95
6, 11520, Note_off_c, 1, 47, 95
6, 11520, Note_on_c, 1, 61, 95
6, 11520, Note_on_c, 1, 57, 95
6, 11520, Note_on_c, 1, 52, 95
6, 11520, Note_on_c, 1, 45, 95
6, 12288, Note_off_c, 1, 61, 95
6, 12288, Note_off_c, 1, 57, 95
6, 12288, Note_off_c, 1, 52, 95
6, 12288, Note_off_c, 1, 45, 95
6, 12288, Note_on_c, 1, 59, 95
6, 12288, Note_on_c, 1, 55, 95
6, 12288, Note_on_c, 1, 50, 95
6, 12288, Note_on_c, 1, 43, 95
6, 13056, Note_off_c, 1, 59, 95
6, 13056, Note_off_c, 1, 55, 95
6, 13056, Note_off_c, 1, 50, 95
6, 13056, Note_off_c, 1, 43, 95
6, 19200, Note_on_c, 1, 59, 95
6, 19200, Note_on_c, 1, 55, 95
6, 19200, Note_on_c, 1, 50, 95
6, 19200, Note_on_c, 1, 43, 95
6, 19968, Note_off_c, 1, 59, 95
6, 19968, Note_off_c, 1, 55, 95
6, 19968, Note_off_c, 1, 50, 95
6, 19968, Note_off_c, 1, 43, 95
6, 19968, Note_on_c, 1, 62, 95
6, 19968, Note_on_c, 1, 59, 95
6, 19968, Note_on_c, 1, 54, 95
6, 19968, Note_on_c, 1, 47, 95
6, 20736, Note_off_c, 1, 62, 95
6, 20736, Note_off_c, 1, 59, 95
6, 20736, Note_off_c, 1, 54, 95
6, 20736, Note_off_c, 1, 47, 95
6, 20736, Note_on_c, 1, 61, 95
6, 20736, Note_on_c, 1, 57, 95
6, 20736, Note_on_c, 1, 52, 95
6, 20736, Note_on_c, 1, 45, 95
6, 21504, Note_off_c, 1, 61, 95
6, 21504, Note_off_c, 1, 57, 95
6, 21504, Note_off_c, 1, 52, 95
6, 21504, Note_off_c, 1, 45, 95
6, 21504, Note_on_c, 1, 59, 95
6, 21504, Note_on_c, 1, 55, 95
6, 21504, Note_on_c, 1, 50, 95
6, 21504, Note_on_c, 1, 43, 95
6, 22272, Note_off_c, 1, 59, 95
6, 22272, Note_off_c, 1, 55, 95
6, 22272, Note_off_c, 1, 50, 95
6, 22272, Note_off_c, 1, 43, 95
6, 22272, Note_on_c, 1, 59, 95
6, 22272, Note_on_c, 1, 55, 95
6, 22272, Note_on_c, 1, 50, 95
6, 22272, Note_on_c, 1, 43, 95
6, 23040, Note_off_c, 1, 59, 95
6, 23040, Note_off_c, 1, 55, 95
6, 23040, Note_off_c, 1, 50, 95
6, 23040, Note_off_c, 1, 43, 95
6, 23040, Note_on_c, 1, 62, 95
6, 23040, Note_on_c, 1, 59, 95
6, 23040, Note_on_c, 1, 54, 95
6, 23040, Note_on_c, 1, 47, 95
6, 23808, Note_off_c, 1, 62, 95
6, 23808, Note_off_c, 1, 59, 95
6, 23808, Note_off_c, 1, 54, 95
6, 23808, Note_off_c, 1, 47, 95
6, 23808, Note_on_c, 1, 61, 95
6, 23808, Note_on_c, 1, 57, 95
6, 23808, Note_on_c, 1, 52, 95
6, 23808, Note_on_c, 1, 45, 95
6, 24576, Note_off_c, 1, 61, 95
6, 24576, Note_off_c, 1, 57, 95
6, 24576, Note_off_c, 1, 52, 95
6, 24576, Note_off_c, 1, 45, 95
6, 24576, Note_on_c, 1, 59, 95
6, 24576, Note_on_c, 1, 55, 95
6, 24576, Note_on_c, 1, 50, 95
6, 24576, Note_on_c, 1, 43, 95
6, 25344, Note_off_c, 1, 59, 95
6, 25344, Note_off_c, 1, 55, 95
6, 25344, Note_off_c, 1, 50, 95
6, 25344, Note_off_c, 1, 43, 95
6, 37632, Note_on_c, 1, 59, 95
6, 37632, Note_on_c, 1, 55, 95
6, 37632, Note_on_c, 1, 50, 95
6, 37632, Note_on_c, 1, 43, 95
6, 38400, Note_off_c, 1, 59, 95
6, 38400, Note_off_c, 1, 55, 95
6, 38400, Note_off_c, 1, 50, 95
6, 38400, Note_off_c, 1, 43, 95
6, 38400, Note_on_c, 1, 62, 95
6, 38400, Note_on_c, 1, 59, 95
6, 38400, Note_on_c, 1, 54, 95
6, 38400, Note_on_c, 1, 47, 95
6, 39168, Note_off_c, 1, 62, 95
6, 39168, Note_off_c, 1, 59, 95
6, 39168, Note_off_c, 1, 54, 95
6, 39168, Note_off_c, 1, 47, 95
6, 39168, Note_on_c, 1, 61, 95
6, 39168, Note_on_c, 1, 57, 95
6, 39168, Note_on_c, 1, 52, 95
6, 39168, Note_on_c, 1, 45, 95
6, 39936, Note_off_c, 1, 61, 95
6, 39936, Note_off_c, 1, 57, 95
6, 39936, Note_off_c, 1, 52, 95
6, 39936, Note_off_c, 1, 45, 95
6, 39936, Note_on_c, 1, 59, 95
6, 39936, Note_on_c, 1, 55, 95
6, 39936, Note_on_c, 1, 50, 95
6, 39936, Note_on_c, 1, 43, 95
6, 40704, Note_off_c, 1, 59, 95
6, 40704, Note_off_c, 1, 55, 95
6, 40704, Note_off_c, 1, 50, 95
6, 40704, Note_off_c, 1, 43, 95
6, 40704, Note_on_c, 1, 59, 95
6, 40704, Note_on_c, 1, 55, 95
6, 40704, Note_on_c, 1, 50, 95
6, 40704, Note_on_c, 1, 43, 95
6, 41472, Note_off_c, 1, 59, 95
6, 41472, Note_off_c, 1, 55, 95
6, 41472, Note_off_c, 1, 50, 95
6, 41472, Note_off_c, 1, 43, 95
6, 41472, Note_on_c, 1, 62, 95
6, 41472, Note_on_c, 1, 59, 95
6, 41472, Note_on_c, 1, 54, 95
6, 41472, Note_on_c, 1, 47, 95
6, 42240, Note_off_c, 1, 62, 95
6, 42240, Note_off_c, 1, 59, 95
6, 42240, Note_off_c, 1, 54, 95
6, 42240, Note_off_c, 1, 47, 95
6, 42240, Note_on_c, 1, 61, 95
6, 42240, Note_on_c, 1, 57, 95
6, 42240, Note_on_c, 1, 52, 95
6, 42240, Note_on_c, 1, 45, 95
6, 43008, Note_off_c, 1, 61, 95
6, 43008, Note_off_c, 1, 57, 95
6, 43008, Note_off_c, 1, 52, 95
6, 43008, Note_off_c, 1, 45, 95
6, 43008, Note_on_c, 1, 59, 95
6, 43008, Note_on_c, 1, 55, 95
6, 43008, Note_on_c, 1, 50, 95
6, 43008, Note_on_c, 1, 43, 95
6, 43776, Note_off_c, 1, 59, 95
6, 43776, Note_off_c, 1, 55, 95
6, 43776, Note_off_c, 1, 50, 95
6, 43776, Note_off_c, 1, 43, 95
6, 56064, Note_on_c, 1, 59, 95
6, 56064, Note_on_c, 1, 55, 95
6, 56064, Note_on_c, 1, 50, 95
6, 56064, Note_on_c, 1, 43, 95
6, 56832, Note_off_c, 1, 59, 95
6, 56832, Note_off_c, 1, 55, 95
6, 56832, Note_off_c, 1, 50, 95
6, 56832, Note_off_c, 1, 43, 95
6, 56832, Note_on_c, 1, 62, 95
6, 56832, Note_on_c, 1, 59, 95
6, 56832, Note_on_c, 1, 54, 95
6, 56832, Note_on_c, 1, 47, 95
6, 57600, Note_off_c, 1, 62, 95
6, 57600, Note_off_c, 1, 59, 95
6, 57600, Note_off_c, 1, 54, 95
6, 57600, Note_off_c, 1, 47, 95
6, 57600, Note_on_c, 1, 61, 95
6, 57600, Note_on_c, 1, 57, 95
6, 57600, Note_on_c, 1, 52, 95
6, 57600, Note_on_c, 1, 45, 95
6, 58368, Note_off_c, 1, 61, 95
6, 58368, Note_off_c, 1, 57, 95
6, 58368, Note_off_c, 1, 52, 95
6, 58368, Note_off_c, 1, 45, 95
6, 58368, Note_on_c, 1, 59, 95
6, 58368, Note_on_c, 1, 55, 95
6, 58368, Note_on_c, 1, 50, 95
6, 58368, Note_on_c, 1, 43, 95
6, 59136, Note_off_c, 1, 59, 95
6, 59136, Note_off_c, 1, 55, 95
6, 59136, Note_off_c, 1, 50, 95
6, 59136, Note_off_c, 1, 43, 95
6, 59136, Note_on_c, 1, 59, 95
6, 59136, Note_on_c, 1, 55, 95
6, 59136, Note_on_c, 1, 50, 95
6, 59136, Note_on_c, 1, 43, 95
6, 59904, Note_off_c, 1, 59, 95
6, 59904, Note_off_c, 1, 55, 95
6, 59904, Note_off_c, 1, 50, 95
6, 59904, Note_off_c, 1, 43, 95
6, 59904, Note_on_c, 1, 62, 95
6, 59904, Note_on_c, 1, 59, 95
6, 59904, Note_on_c, 1, 54, 95
6, 59904, Note_on_c, 1, 47, 95
6, 60672, Note_off_c, 1, 62, 95
6, 60672, Note_off_c, 1, 59, 95
6, 60672, Note_off_c, 1, 54, 95
6, 60672, Note_off_c, 1, 47, 95
6, 60672, Note_on_c, 1, 61, 95
6, 60672, Note_on_c, 1, 57, 95
6, 60672, Note_on_c, 1, 52, 95
6, 60672, Note_on_c, 1, 45, 95
6, 61440, Note_off_c, 1, 61, 95
6, 61440, Note_off_c, 1, 57, 95
6, 61440, Note_off_c, 1, 52, 95
6, 61440, Note_off_c, 1, 45, 95
6, 61440, Note_on_c, 1, 59, 95
6, 61440, Note_on_c, 1, 55, 95
6, 61440, Note_on_c, 1, 50, 95
6, 61440, Note_on_c, 1, 43, 95
6, 62208, Note_off_c, 1, 59, 95
6, 62208, Note_off_c, 1, 55, 95
6, 62208, Note_off_c, 1, 50, 95
6, 62208, Note_off_c, 1, 43, 95
6, 62208, Note_on_c, 1, 59, 95
6, 62208, Note_on_c, 1, 55, 95
6, 62208, Note_on_c, 1, 50, 95
6, 62208, Note_on_c, 1, 43, 95
6, 62976, Note_off_c, 1, 59, 95
6, 62976, Note_off_c, 1, 55, 95
6, 62976, Note_off_c, 1, 50, 95
6, 62976, Note_off_c, 1, 43, 95
6, 62976, Note_on_c, 1, 62, 95
6, 62976, Note_on_c, 1, 59, 95
6, 62976, Note_on_c, 1, 54, 95
6, 62976, Note_on_c, 1, 47, 95
6, 63744, Note_off_c, 1, 62, 95
6, 63744, Note_off_c, 1, 59, 95
6, 63744, Note_off_c, 1, 54, 95
6, 63744, Note_off_c, 1, 47, 95
6, 63744, Note_on_c, 1, 61, 95
6, 63744, Note_on_c, 1, 57, 95
6, 63744, Note_on_c, 1, 52, 95
6, 63744, Note_on_c, 1, 45, 95
6, 64512, Note_off_c, 1, 61, 95
6, 64512, Note_off_c, 1, 57, 95
6, 64512, Note_off_c, 1, 52, 95
6, 64512, Note_off_c, 1, 45, 95
6, 64512, Note_on_c, 1, 59, 95
6, 64512, Note_on_c, 1, 55, 95
6, 64512, Note_on_c, 1, 50, 95
6, 64512, Note_on_c, 1, 43, 95
6, 65280, Note_off_c, 1, 59, 95
6, 65280, Note_off_c, 1, 55, 95
6, 65280, Note_off_c, 1, 50, 95
6, 65280, Note_off_c, 1, 43, 95
6, 65280, Note_on_c, 1, 59, 95
6, 65280, Note_on_c, 1, 55, 95
6, 65280, Note_on_c, 1, 50, 95
6, 65280, Note_on_c, 1, 43, 95
6, 66048, Note_off_c, 1, 59, 95
6, 66048, Note_off_c, 1, 55, 95
6, 66048, Note_off_c, 1, 50, 95
6, 66048, Note_off_c, 1, 43, 95
6, 66048, Note_on_c, 1, 62, 95
6, 66048, Note_on_c, 1, 59, 95
6, 66048, Note_on_c, 1, 54, 95
6, 66048, Note_on_c, 1, 47, 95
6, 66816, Note_off_c, 1, 62, 95
6, 66816, Note_off_c, 1, 59, 95
6, 66816, Note_off_c, 1, 54, 95
6, 66816, Note_off_c, 1, 47, 95
6, 66816, Note_on_c, 1, 61, 95
6, 66816, Note_on_c, 1, 57, 95
6, 66816, Note_on_c, 1, 52, 95
6, 66816, Note_on_c, 1, 45, 95
6, 67584, Note_off_c, 1, 61, 95
6, 67584, Note_off_c, 1, 57, 95
6, 67584, Note_off_c, 1, 52, 95
6, 67584, Note_off_c, 1, 45, 95
6, 67584, Note_on_c, 1, 59, 95
6, 67584, Note_on_c, 1, 55, 95
6, 67584, Note_on_c, 1, 50, 95
6, 67584, Note_on_c, 1, 43, 95
6, 68352, Note_off_c, 1, 59, 95
6, 68352, Note_off_c, 1, 55, 95
6, 68352, Note_off_c, 1, 50, 95
6, 68352, Note_off_c, 1, 43, 95
6, 68352, Note_on_c, 1, 59, 95
6, 68352, Note_on_c, 1, 55, 95
6, 68352, Note_on_c, 1, 50, 95
6, 68352, Note_on_c, 1, 43, 95
6, 69120, Note_off_c, 1, 59, 95
6, 69120, Note_off_c, 1, 55, 95
6, 69120, Note_off_c, 1, 50, 95
6, 69120, Note_off_c, 1, 43, 95
6, 69120, Note_on_c, 1, 62, 95
6, 69120, Note_on_c, 1, 59, 95
6, 69120, Note_on_c, 1, 54, 95
6, 69120, Note_on_c, 1, 47, 95
6, 69888, Note_off_c, 1, 62, 95
6, 69888, Note_off_c, 1, 59, 95
6, 69888, Note_off_c, 1, 54, 95
6, 69888, Note_off_c, 1, 47, 95
6, 69888, Note_on_c, 1, 61, 95
6, 69888, Note_on_c, 1, 57, 95
6, 69888, Note_on_c, 1, 52, 95
6, 69888, Note_on_c, 1, 45, 95
6, 70656, Note_off_c, 1, 61, 95
6, 70656, Note_off_c, 1, 57, 95
6, 70656, Note_off_c, 1, 52, 95
6, 70656, Note_off_c, 1, 45, 95
6, 70656, Note_on_c, 1, 59, 95
6, 70656, Note_on_c, 1, 55, 95
6, 70656, Note_on_c, 1, 50, 95
6, 70656, Note_on_c, 1, 43, 95
6, 71424, Note_off_c, 1, 59, 95
6, 71424, Note_off_c, 1, 55, 95
6, 71424, Note_off_c, 1, 50, 95
6, 71424, Note_off_c, 1, 43, 95
6, 71424, Note_on_c, 1, 59, 95
6, 71424, Note_on_c, 1, 55, 95
6, 71424, Note_on_c, 1, 50, 95
6, 71424, Note_on_c, 1, 43, 95
6, 72192, Note_off_c, 1, 59, 95
6, 72192, Note_off_c, 1, 55, 95
6, 72192, Note_off_c, 1, 50, 95
6, 72192, Note_off_c, 1, 43, 95
6, 72192, Note_on_c, 1, 62, 95
6, 72192, Note_on_c, 1, 59, 95
6, 72192, Note_on_c, 1, 54, 95
6, 72192, Note_on_c, 1, 47, 95
6, 72960, Note_off_c, 1, 62, 95
6, 72960, Note_off_c, 1, 59, 95
6, 72960, Note_off_c, 1, 54, 95
6, 72960, Note_off_c, 1, 47, 95
6, 72960, Note_on_c, 1, 61, 95
6, 72960, Note_on_c, 1, 57, 95
6, 72960, Note_on_c, 1, 52, 95
6, 72960, Note_on_c, 1, 45, 95
6, 73728, Note_off_c, 1, 61, 95
6, 73728, Note_off_c, 1, 57, 95
6, 73728, Note_off_c, 1, 52, 95
6, 73728, Note_off_c, 1, 45, 95
6, 73728, Note_on_c, 1, 59, 95
6, 73728, Note_on_c, 1, 55, 95
6, 73728, Note_on_c, 1, 50, 95
6, 73728, Note_on_c, 1, 43, 95
6, 74496, Note_off_c, 1, 59, 95
6, 74496, Note_off_c, 1, 55, 95
6, 74496, Note_off_c, 1, 50, 95
6, 74496, Note_off_c, 1, 43, 95
6, 74496, Note_on_c, 1, 59, 95
6, 74496, Note_on_c, 1, 55, 95
6, 74496, Note_on_c, 1, 50, 95
6, 74496, Note_on_c, 1, 43, 95
6, 75264, Note_off_c, 1, 59, 95
6, 75264, Note_off_c, 1, 55, 95
6, 75264, Note_off_c, 1, 50, 95
6, 75264, Note_off_c, 1, 43, 95
6, 75264, Note_on_c, 1, 62, 95
6, 75264, Note_on_c, 1, 59, 95
6, 75264, Note_on_c, 1, 54, 95
6, 75264, Note_on_c, 1, 47, 95
6, 76032, Note_off_c, 1, 62, 95
6, 76032, Note_off_c, 1, 59, 95
6, 76032, Note_off_c, 1, 54, 95
6, 76032, Note_off_c, 1, 47, 95
6, 76032, Note_on_c, 1, 61, 95
6, 76032, Note_on_c, 1, 57, 95
6, 76032, Note_on_c, 1, 52, 95
6, 76032, Note_on_c, 1, 45, 95
6, 76800, Note_off_c, 1, 61, 95
6, 76800, Note_off_c, 1, 57, 95
6, 76800, Note_off_c, 1, 52, 95
6, 76800, Note_off_c, 1, 45, 95
6, 76800, Note_on_c, 1, 59, 95
6, 76800, Note_on_c, 1, 55, 95
6, 76800, Note_on_c, 1, 50, 95
6, 76800, Note_on_c, 1, 43, 95
6, 77568, Note_off_c, 1, 59, 95
6, 77568, Note_off_c, 1, 55, 95
6, 77568, Note_off_c, 1, 50, 95
6, 77568, Note_off_c, 1, 43, 95
6, 77568, Note_on_c, 1, 59, 95
6, 77568, Note_on_c, 1, 55, 95
6, 77568, Note_on_c, 1, 50, 95
6, 77568, Note_on_c, 1, 43, 95
6, 77616, Control_c, 1, 7, 121
6, 77617, Control_c, 1, 7, 120
6, 77712, Control_c, 1, 7, 118
6, 77760, Control_c, 1, 7, 115
6, 77761, Control_c, 1, 7, 114
6, 77856, Control_c, 1, 7, 111
6, 77857, Control_c, 1, 7, 110
6, 77952, Control_c, 1, 7, 107
6, 77953, Control_c, 1, 7, 106
6, 78048, Control_c, 1, 7, 104
6, 78096, Control_c, 1, 7, 101
6, 78097, Control_c, 1, 7, 100
6, 78192, Control_c, 1, 7, 97
6, 78193, Control_c, 1, 7, 96
6, 78288, Control_c, 1, 7, 93
6, 78289, Control_c, 1, 7, 92
6, 78336, Note_off_c, 1, 59, 95
6, 78336, Note_off_c, 1, 55, 95
6, 78336, Note_off_c, 1, 50, 95
6, 78336, Note_off_c, 1, 43, 95
6, 78336, Note_on_c, 1, 62, 95
6, 78336, Note_on_c, 1, 59, 95
6, 78336, Note_on_c, 1, 54, 95
6, 78336, Note_on_c, 1, 47, 95
6, 78360, Control_c, 1, 7, 91
6, 78432, Control_c, 1, 7, 88
6, 78433, Control_c, 1, 7, 87
6, 78528, Control_c, 1, 7, 85
6, 78576, Control_c, 1, 7, 82
6, 78577, Control_c, 1, 7, 81
6, 78672, Control_c, 1, 7, 78
6, 78673, Control_c, 1, 7, 77
6, 78768, Control_c, 1, 7, 74
6, 78769, Control_c, 1, 7, 73
6, 78864, Control_c, 1, 7, 71
6, 78912, Control_c, 1, 7, 68
6, 78913, Control_c, 1, 7, 67
6, 79008, Control_c, 1, 7, 64
6, 79009, Control_c, 1, 7, 63
6, 79104, Note_off_c, 1, 62, 95
6, 79104, Note_off_c, 1, 59, 95
6, 79104, Note_off_c, 1, 54, 95
6, 79104, Note_off_c, 1, 47, 95
6, 79104, Control_c, 1, 7, 60
6, 79104, Note_on_c, 1, 61, 95
6, 79104, Note_on_c, 1, 57, 95
6, 79104, Note_on_c, 1, 52, 95
6, 79104, Note_on_c, 1, 45, 95
6, 79105, Control_c, 1, 7, 59
6, 79200, Control_c, 1, 7, 57
6, 79248, Control_c, 1, 7, 54
6, 79249, Control_c, 1, 7, 53
6, 79344, Control_c, 1, 7, 50
6, 79345, Control_c, 1, 7, 49
6, 79440, Control_c, 1, 7, 46
6, 79441, Control_c, 1, 7, 45
6, 79536, Control_c, 1, 7, 43
6, 79584, Control_c, 1, 7, 40
6, 79585, Control_c, 1, 7, 39
6, 79680, Control_c, 1, 7, 36
6, 79681, Control_c, 1, 7, 35
6, 79776, Control_c, 1, 7, 33
6, 79824, Control_c, 1, 7, 30
6, 79872, Note_off_c, 1, 61, 95
6, 79872, Note_off_c, 1, 57, 95
6, 79872, Note_off_c, 1, 52, 95
6, 79872, Note_off_c, 1, 45, 95
6, 79872, Note_on_c, 1, 59, 95
6, 79872, Note_on_c, 1, 55, 95
6, 79872, Note_on_c, 1, 50, 95
6, 79872, Note_on_c, 1, 43, 95
6, 79920, Control_c, 1, 7, 27
6, 79921, Control_c, 1, 7, 26
6, 80016, Control_c, 1, 7, 24
6, 80064, Control_c, 1, 7, 21
6, 80065, Control_c, 1, 7, 20
6, 80160, Control_c, 1, 7, 17
6, 80161, Control_c, 1, 7, 16
6, 80256, Control_c, 1, 7, 13
6, 80257, Control_c, 1, 7, 12
6, 80352, Control_c, 1, 7, 10
6, 80400, Control_c, 1, 7, 7
6, 80401, Control_c, 1, 7, 6
6, 80496, Control_c, 1, 7, 3
6, 80497, Control_c, 1, 7, 2
6, 80592, Control_c, 1, 7, 0
6, 80640, Note_off_c, 1, 59, 95
6, 80640, Note_off_c, 1, 55, 95
6, 80640, Note_off_c, 1, 50, 95
6, 80640, Note_off_c, 1, 43, 95
6, 80641, Control_c, 1, 123, 0
6, 80641, Control_c, 1, 120, 0
6, 80641, End_track
7, 0, Start_track
7, 0, MIDI_port, 0
7, 0, Unknown_meta_event, 9, 21, 77, 105, 99, 114, 111, 115, 111, 102, 116, 32, 77, 73, 68, 73, 32, 77, 97, 112, 112, 101, 114
7, 0, Title_t, "Saw Wave"
7, 3840, Control_c, 8, 0, 0
7, 3840, Control_c, 8, 32, 0
7, 3840, Program_c, 8, 81
7, 3840, Control_c, 8, 10, 64
7, 3840, Control_c, 8, 91, 0
7, 3840, Control_c, 8, 93, 0
7, 3840, Control_c, 8, 101, 0
7, 3840, Control_c, 8, 100, 0
7, 3840, Control_c, 8, 6, 24
7, 3840, Control_c, 8, 7, 127
7, 3840, Pitch_bend_c, 8, 8192
7, 3840, Control_c, 8, 10, 64
7, 3840, Note_on_c, 8, 43, 93
7, 3841, Control_c, 8, 7, 124
7, 3912, Note_off_c, 8, 43, 93
7, 3984, Note_on_c, 8, 43, 93
7, 4057, Note_off_c, 8, 43, 93
7, 4128, Note_on_c, 8, 43, 93
7, 4200, Note_off_c, 8, 43, 93
7, 4272, Note_on_c, 8, 43, 93
7, 4345, Note_off_c, 8, 43, 93
7, 4416, Note_on_c, 8, 43, 93
7, 4464, Note_off_c, 8, 43, 93
7, 4512, Note_on_c, 8, 45, 93
7, 4560, Note_off_c, 8, 45, 93
7, 4608, Note_on_c, 8, 47, 93
7, 4680, Note_off_c, 8, 47, 93
7, 4752, Note_on_c, 8, 47, 93
7, 4825, Note_off_c, 8, 47, 93
7, 4896, Note_on_c, 8, 47, 93
7, 4944, Note_off_c, 8, 47, 93
7, 4992, Note_on_c, 8, 47, 93
7, 5088, Note_off_c, 8, 47, 93
7, 5184, Note_on_c, 8, 47, 93
7, 5280, Note_off_c, 8, 47, 93
7, 5376, Note_on_c, 8, 45, 93
7, 5448, Note_off_c, 8, 45, 93
7, 5520, Note_on_c, 8, 45, 93
7, 5593, Note_off_c, 8, 45, 93
7, 5664, Note_on_c, 8, 45, 93
7, 5736, Note_off_c, 8, 45, 93
7, 5808, Note_on_c, 8, 45, 93
7, 5881, Note_off_c, 8, 45, 93
7, 5952, Note_on_c, 8, 42, 93
7, 6000, Note_off_c, 8, 42, 93
7, 6048, Note_on_c, 8, 42, 93
7, 6096, Note_off_c, 8, 42, 93
7, 6144, Note_on_c, 8, 43, 93
7, 6216, Note_off_c, 8, 43, 93
7, 6288, Note_on_c, 8, 43, 93
7, 6361, Note_off_c, 8, 43, 93
7, 6432, Note_on_c, 8, 43, 93
7, 6504, Note_off_c, 8, 43, 93
7, 6576, Note_on_c, 8, 43, 93
7, 6649, Note_off_c, 8, 43, 93
7, 6720, Note_on_c, 8, 42, 93
7, 6768, Note_off_c, 8, 42, 93
7, 6816, Note_on_c, 8, 42, 93
7, 6864, Note_off_c, 8, 42, 93
7, 6912, Note_on_c, 8, 43, 126
7, 6984, Note_off_c, 8, 43, 126
7, 7056, Note_on_c, 8, 43, 126
7, 7129, Note_off_c, 8, 43, 126
7, 7200, Note_on_c, 8, 43, 126
7, 7272, Note_off_c, 8, 43, 126
7, 7344, Note_on_c, 8, 43, 126
7, 7417, Note_off_c, 8, 43, 126
7, 7488, Note_on_c, 8, 43, 126
7, 7536, Note_off_c, 8, 43, 126
7, 7584, Note_on_c, 8, 45, 126
7, 7632, Note_off_c, 8, 45, 126
7, 7680, Note_on_c, 8, 47, 126
7, 7752, Note_off_c, 8, 47, 126
7, 7824, Note_on_c, 8, 47, 126
7, 7897, Note_off_c, 8, 47, 126
7, 7968, Note_on_c, 8, 47, 126
7, 8016, Note_off_c, 8, 47, 126
7, 8064, Note_on_c, 8, 47, 126
7, 8160, Note_off_c, 8, 47, 126
7, 8256, Note_on_c, 8, 47, 126
7, 8352, Note_off_c, 8, 47, 126
7, 8448, Note_on_c, 8, 45, 126
7, 8520, Note_off_c, 8, 45, 126
7, 8592, Note_on_c, 8, 45, 126
7, 8665, Note_off_c, 8, 45, 126
7, 8736, Note_on_c, 8, 45, 126
7, 8808, Note_off_c, 8, 45, 126
7, 8880, Note_on_c, 8, 45, 126
7, 8953, Note_off_c, 8, 45, 126
7, 9024, Note_on_c, 8, 45, 126
7, 9072, Note_off_c, 8, 45, 126
7, 9120, Note_on_c, 8, 45, 126
7, 9168, Note_off_c, 8, 45, 126
7, 9216, Note_on_c, 8, 43, 126
7, 9288, Note_off_c, 8, 43, 126
7, 9360, Note_on_c, 8, 43, 126
7, 9433, Note_off_c, 8, 43, 126
7, 9504, Note_on_c, 8, 43, 126
7, 9576, Note_off_c, 8, 43, 126
7, 9648, Note_on_c, 8, 43, 126
7, 9721, Note_off_c, 8, 43, 126
7, 9792, Note_on_c, 8, 43, 126
7, 9840, Note_off_c, 8, 43, 126
7, 9888, Note_on_c, 8, 42, 126
7, 9936, Note_off_c, 8, 42, 126
7, 9984, Note_on_c, 8, 43, 127
7, 10056, Note_off_c, 8, 43, 127
7, 10128, Note_on_c, 8, 43, 127
7, 10201, Note_off_c, 8, 43, 127
7, 10272, Note_on_c, 8, 43, 127
7, 10344, Note_off_c, 8, 43, 127
7, 10416, Note_on_c, 8, 43, 127
7, 10489, Note_off_c, 8, 43, 127
7, 10560, Note_on_c, 8, 43, 127
7, 10608, Note_off_c, 8, 43, 127
7, 10656, Note_on_c, 8, 45, 127
7, 10704, Note_off_c, 8, 45, 127
7, 10752, Note_on_c, 8, 47, 127
7, 10824, Note_off_c, 8, 47, 127
7, 10896, Note_on_c, 8, 47, 127
7, 10969, Note_off_c, 8, 47, 127
7, 11040, Note_on_c, 8, 47, 127
7, 11088, Note_off_c, 8, 47, 127
7, 11136, Note_on_c, 8, 47, 127
7, 11232, Note_off_c, 8, 47, 127
7, 11328, Note_on_c, 8, 47, 127
7, 11424, Note_off_c, 8, 47, 127
7, 11520, Note_on_c, 8, 45, 127
7, 11592, Note_off_c, 8, 45, 127
7, 11664, Note_on_c, 8, 45, 127
7, 11737, Note_off_c, 8, 45, 127
7, 11808, Note_on_c, 8, 45, 127
7, 11880, Note_off_c, 8, 45, 127
7, 11952, Note_on_c, 8, 45, 127
7, 12025, Note_off_c, 8, 45, 127
7, 12096, Note_on_c, 8, 45, 127
7, 12144, Note_off_c, 8, 45, 127
7, 12192, Note_on_c, 8, 45, 127
7, 12240, Note_off_c, 8, 45, 127
7, 12288, Note_on_c, 8, 43, 127
7, 12360, Note_off_c, 8, 43, 127
7, 12432, Note_on_c, 8, 43, 127
7, 12505, Note_off_c, 8, 43, 127
7, 12576, Note_on_c, 8, 43, 127
7, 12648, Note_off_c, 8, 43, 127
7, 12720, Note_on_c, 8, 43, 127
7, 12793, Note_off_c, 8, 43, 127
7, 12864, Note_on_c, 8, 43, 127
7, 12912, Note_off_c, 8, 43, 127
7, 12960, Note_on_c, 8, 42, 127
7, 13008, Note_off_c, 8, 42, 127
7, 13056, Note_on_c, 8, 43, 127
7, 13128, Note_off_c, 8, 43, 127
7, 13200, Note_on_c, 8, 43, 127
7, 13273, Note_off_c, 8, 43, 127
7, 13344, Note_on_c, 8, 43, 127
7, 13416, Note_off_c, 8, 43, 127
7, 13488, Note_on_c, 8, 43, 127
7, 13561, Note_off_c, 8, 43, 127
7, 13632, Note_on_c, 8, 43, 127
7, 13680, Note_off_c, 8, 43, 127
7, 13728, Note_on_c, 8, 45, 127
7, 13776, Note_off_c, 8, 45, 127
7, 13824, Note_on_c, 8, 47, 127
7, 13896, Note_off_c, 8, 47, 127
7, 13968, Note_on_c, 8, 47, 127
7, 14041, Note_off_c, 8, 47, 127
7, 14112, Note_on_c, 8, 47, 127
7, 14160, Note_off_c, 8, 47, 127
7, 14208, Note_on_c, 8, 47, 127
7, 14304, Note_off_c, 8, 47, 127
7, 14400, Note_on_c, 8, 47, 127
7, 14496, Note_off_c, 8, 47, 127
7, 14592, Note_on_c, 8, 45, 127
7, 14664, Note_off_c, 8, 45, 127
7, 14736, Note_on_c, 8, 45, 127
7, 14809, Note_off_c, 8, 45, 127
7, 14880, Note_on_c, 8, 45, 127
7, 14952, Note_off_c, 8, 45, 127
7, 15024, Note_on_c, 8, 45, 127
7, 15097, Note_off_c, 8, 45, 127
7, 15168, Note_on_c, 8, 42, 127
7, 15216, Note_off_c, 8, 42, 127
7, 15264, Note_on_c, 8, 42, 127
7, 15312, Note_off_c, 8, 42, 127
7, 15360, Note_on_c, 8, 43, 127
7, 15432, Note_off_c, 8, 43, 127
7, 15504, Note_on_c, 8, 43, 127
7, 15577, Note_off_c, 8, 43, 127
7, 15648, Note_on_c, 8, 43, 127
7, 15720, Note_off_c, 8, 43, 127
7, 15792, Note_on_c, 8, 43, 127
7, 15865, Note_off_c, 8, 43, 127
7, 15936, Note_on_c, 8, 42, 127
7, 15984, Note_off_c, 8, 42, 127
7, 16032, Note_on_c, 8, 42, 127
7, 16080, Note_off_c, 8, 42, 127
7, 16128, Note_on_c, 8, 43, 127
7, 16200, Note_off_c, 8, 43, 127
7, 16272, Note_on_c, 8, 43, 127
7, 16345, Note_off_c, 8, 43, 127
7, 16416, Note_on_c, 8, 43, 127
7, 16488, Note_off_c, 8, 43, 127
7, 16560, Note_on_c, 8, 43, 127
7, 16633, Note_off_c, 8, 43, 127
7, 16704, Note_on_c, 8, 43, 127
7, 16752, Note_off_c, 8, 43, 127
7, 16800, Note_on_c, 8, 45, 127
7, 16848, Note_off_c, 8, 45, 127
7, 16896, Note_on_c, 8, 47, 127
7, 16968, Note_off_c, 8, 47, 127
7, 17040, Note_on_c, 8, 47, 127
7, 17113, Note_off_c, 8, 47, 127
7, 17184, Note_on_c, 8, 47, 127
7, 17232, Note_off_c, 8, 47, 127
7, 17280, Note_on_c, 8, 47, 127
7, 17376, Note_off_c, 8, 47, 127
7, 17472, Note_on_c, 8, 47, 127
7, 17568, Note_off_c, 8, 47, 127
7, 17664, Note_on_c, 8, 45, 127
7, 17736, Note_off_c, 8, 45, 127
7, 17808, Note_on_c, 8, 45, 127
7, 17881, Note_off_c, 8, 45, 127
7, 17952, Note_on_c, 8, 45, 127
7, 18024, Note_off_c, 8, 45, 127
7, 18096, Note_on_c, 8, 45, 127
7, 18169, Note_off_c, 8, 45, 127
7, 18240, Note_on_c, 8, 45, 127
7, 18288, Note_off_c, 8, 45, 127
7, 18336, Note_on_c, 8, 45, 127
7, 18384, Note_off_c, 8, 45, 127
7, 18432, Note_on_c, 8, 43, 127
7, 18504, Note_off_c, 8, 43, 127
7, 18576, Note_on_c, 8, 43, 127
7, 18649, Note_off_c, 8, 43, 127
7, 18720, Note_on_c, 8, 43, 127
7, 18792, Note_off_c, 8, 43, 127
7, 18864, Note_on_c, 8, 43, 127
7, 18937, Note_off_c, 8, 43, 127
7, 19008, Note_on_c, 8, 43, 127
7, 19056, Note_off_c, 8, 43, 127
7, 19104, Note_on_c, 8, 42, 127
7, 19152, Note_off_c, 8, 42, 127
7, 19200, Note_on_c, 8, 43, 127
7, 19272, Note_off_c, 8, 43, 127
7, 19344, Note_on_c, 8, 43, 127
7, 19417, Note_off_c, 8, 43, 127
7, 19488, Note_on_c, 8, 43, 127
7, 19560, Note_off_c, 8, 43, 127
7, 19632, Note_on_c, 8, 43, 127
7, 19705, Note_off_c, 8, 43, 127
7, 19776, Note_on_c, 8, 43, 127
7, 19824, Note_off_c, 8, 43, 127
7, 19872, Note_on_c, 8, 45, 127
7, 19920, Note_off_c, 8, 45, 127
7, 19968, Note_on_c, 8, 47, 127
7, 20040, Note_off_c, 8, 47, 127
7, 20112, Note_on_c, 8, 47, 127
7, 20185, Note_off_c, 8, 47, 127
7, 20256, Note_on_c, 8, 47, 127
7, 20304, Note_off_c, 8, 47, 127
7, 20352, Note_on_c, 8, 47, 127
7, 20448, Note_off_c, 8, 47, 127
7, 20544, Note_on_c, 8, 47, 127
7, 20640, Note_off_c, 8, 47, 127
7, 20736, Note_on_c, 8, 45, 127
7, 20808, Note_off_c, 8, 45, 127
7, 20880, Note_on_c, 8, 45, 127
7, 20953, Note_off_c, 8, 45, 127
7, 21024, Note_on_c, 8, 45, 127
7, 21096, Note_off_c, 8, 45, 127
7, 21168, Note_on_c, 8, 45, 127
7, 21241, Note_off_c, 8, 45, 127
7, 21312, Note_on_c, 8, 45, 127
7, 21360, Note_off_c, 8, 45, 127
7, 21408, Note_on_c, 8, 45, 127
7, 21456, Note_off_c, 8, 45, 127
7, 21504, Note_on_c, 8, 43, 127
7, 21576, Note_off_c, 8, 43, 127
7, 21648, Note_on_c, 8, 43, 127
7, 21721, Note_off_c, 8, 43, 127
7, 21792, Note_on_c, 8, 43, 127
7, 21864, Note_off_c, 8, 43, 127
7, 21936, Note_on_c, 8, 43, 127
7, 22009, Note_off_c, 8, 43, 127
7, 22080, Note_on_c, 8, 43, 127
7, 22128, Note_off_c, 8, 43, 127
7, 22176, Note_on_c, 8, 42, 127
7, 22224, Note_off_c, 8, 42, 127
7, 22272, Note_on_c, 8, 43, 127
7, 22344, Note_off_c, 8, 43, 127
7, 22416, Note_on_c, 8, 43, 127
7, 22489, Note_off_c, 8, 43, 127
7, 22560, Note_on_c, 8, 43, 127
7, 22632, Note_off_c, 8, 43, 127
7, 22704, Note_on_c, 8, 43, 127
7, 22777, Note_off_c, 8, 43, 127
7, 22848, Note_on_c, 8, 43, 127
7, 22896, Note_off_c, 8, 43, 127
7, 22944, Note_on_c, 8, 45, 127
7, 22992, Note_off_c, 8, 45, 127
7, 23040, Note_on_c, 8, 47, 127
7, 23112, Note_off_c, 8, 47, 127
7, 23184, Note_on_c, 8, 47, 127
7, 23257, Note_off_c, 8, 47, 127
7, 23328, Note_on_c, 8, 47, 127
7, 23376, Note_off_c, 8, 47, 127
7, 23424, Note_on_c, 8, 47, 127
7, 23520, Note_off_c, 8, 47, 127
7, 23616, Note_on_c, 8, 47, 127
7, 23712, Note_off_c, 8, 47, 127
7, 23808, Note_on_c, 8, 45, 127
7, 23880, Note_off_c, 8, 45, 127
7, 23952, Note_on_c, 8, 45, 127
7, 24025, Note_off_c, 8, 45, 127
7, 24096, Note_on_c, 8, 45, 127
7, 24168, Note_off_c, 8, 45, 127
7, 24240, Note_on_c, 8, 45, 127
7, 24313, Note_off_c, 8, 45, 127
7, 24384, Note_on_c, 8, 45, 127
7, 24432, Note_off_c, 8, 45, 127
7, 24480, Note_on_c, 8, 45, 127
7, 24528, Note_off_c, 8, 45, 127
7, 24576, Note_on_c, 8, 43, 127
7, 24648, Note_off_c, 8, 43, 127
7, 24720, Note_on_c, 8, 43, 127
7, 24793, Note_off_c, 8, 43, 127
7, 24864, Note_on_c, 8, 43, 127
7, 24936, Note_off_c, 8, 43, 127
7, 25008, Note_on_c, 8, 43, 127
7, 25081, Note_off_c, 8, 43, 127
7, 25152, Note_on_c, 8, 43, 127
7, 25200, Note_off_c, 8, 43, 127
7, 25248, Note_on_c, 8, 42, 127
7, 25296, Note_off_c, 8, 42, 127
7, 25344, Note_on_c, 8, 43, 127
7, 25416, Note_off_c, 8, 43, 127
7, 25488, Note_on_c, 8, 43, 127
7, 25561, Note_off_c, 8, 43, 127
7, 25632, Note_on_c, 8, 43, 127
7, 25704, Note_off_c, 8, 43, 127
7, 25776, Note_on_c, 8, 43, 127
7, 25849, Note_off_c, 8, 43, 127
7, 25920, Note_on_c, 8, 43, 127
7, 25968, Note_off_c, 8, 43, 127
7, 26016, Note_on_c, 8, 45, 127
7, 26064, Note_off_c, 8, 45, 127
7, 26112, Note_on_c, 8, 47, 127
7, 26184, Note_off_c, 8, 47, 127
7, 26256, Note_on_c, 8, 47, 127
7, 26329, Note_off_c, 8, 47, 127
7, 26400, Note_on_c, 8, 47, 127
7, 26448, Note_off_c, 8, 47, 127
7, 26496, Note_on_c, 8, 47, 127
7, 26592, Note_off_c, 8, 47, 127
7, 26688, Note_on_c, 8, 47, 127
7, 26784, Note_off_c, 8, 47, 127
7, 26880, Note_on_c, 8, 45, 127
7, 26952, Note_off_c, 8, 45, 127
7, 27024, Note_on_c, 8, 45, 127
7, 27097, Note_off_c, 8, 45, 127
7, 27168, Note_on_c, 8, 45, 127
7, 27240, Note_off_c, 8, 45, 127
7, 27312, Note_on_c, 8, 45, 127
7, 27385, Note_off_c, 8, 45, 127
7, 27456, Note_on_c, 8, 42, 127
7, 27504, Note_off_c, 8, 42, 127
7, 27552, Note_on_c, 8, 42, 127
7, 27600, Note_off_c, 8, 42, 127
7, 27648, Note_on_c, 8, 43, 127
7, 27720, Note_off_c, 8, 43, 127
7, 27792, Note_on_c, 8, 43, 127
7, 27865, Note_off_c, 8, 43, 127
7, 27936, Note_on_c, 8, 43, 127
7, 28008, Note_off_c, 8, 43, 127
7, 28080, Note_on_c, 8, 43, 127
7, 28153, Note_off_c, 8, 43, 127
7, 28224, Note_on_c, 8, 42, 127
7, 28272, Note_off_c, 8, 42, 127
7, 28320, Note_on_c, 8, 42, 127
7, 28368, Note_off_c, 8, 42, 127
7, 28416, Note_on_c, 8, 43, 127
7, 28488, Note_off_c, 8, 43, 127
7, 28560, Note_on_c, 8, 43, 127
7, 28633, Note_off_c, 8, 43, 127
7, 28704, Note_on_c, 8, 43, 127
7, 28776, Note_off_c, 8, 43, 127
7, 28848, Note_on_c, 8, 43, 127
7, 28921, Note_off_c, 8, 43, 127
7, 28992, Note_on_c, 8, 43, 127
7, 29040, Note_off_c, 8, 43, 127
7, 29088, Note_on_c, 8, 45, 127
7, 29136, Note_off_c, 8, 45, 127
7, 29184, Note_on_c, 8, 47, 127
7, 29256, Note_off_c, 8, 47, 127
7, 29328, Note_on_c, 8, 47, 127
7, 29401, Note_off_c, 8, 47, 127
7, 29472, Note_on_c, 8, 47, 127
7, 29520, Note_off_c, 8, 47, 127
7, 29568, Note_on_c, 8, 47, 127
7, 29664, Note_off_c, 8, 47, 127
7, 29760, Note_on_c, 8, 47, 127
7, 29856, Note_off_c, 8, 47, 127
7, 29952, Note_on_c, 8, 45, 127
7, 30024, Note_off_c, 8, 45, 127
7, 30096, Note_on_c, 8, 45, 127
7, 30169, Note_off_c, 8, 45, 127
7, 30240, Note_on_c, 8, 45, 127
7, 30312, Note_off_c, 8, 45, 127
7, 30384, Note_on_c, 8, 45, 127
7, 30457, Note_off_c, 8, 45, 127
7, 30528, Note_on_c, 8, 42, 127
7, 30576, Note_off_c, 8, 42, 127
7, 30624, Note_on_c, 8, 42, 127
7, 30672, Note_off_c, 8, 42, 127
7, 30720, Note_on_c, 8, 43, 127
7, 30792, Note_off_c, 8, 43, 127
7, 30864, Note_on_c, 8, 43, 127
7, 30937, Note_off_c, 8, 43, 127
7, 31008, Note_on_c, 8, 43, 127
7, 31080, Note_off_c, 8, 43, 127
7, 31152, Note_on_c, 8, 43, 127
7, 31225, Note_off_c, 8, 43, 127
7, 31296, Note_on_c, 8, 42, 127
7, 31344, Note_off_c, 8, 42, 127
7, 31392, Note_on_c, 8, 42, 127
7, 31440, Note_off_c, 8, 42, 127
7, 31488, Note_on_c, 8, 43, 127
7, 31560, Note_off_c, 8, 43, 127
7, 31632, Note_on_c, 8, 43, 127
7, 31705, Note_off_c, 8, 43, 127
7, 31776, Note_on_c, 8, 43, 127
7, 31848, Note_off_c, 8, 43, 127
7, 31920, Note_on_c, 8, 43, 127
7, 31993, Note_off_c, 8, 43, 127
7, 32064, Note_on_c, 8, 43, 127
7, 32112, Note_off_c, 8, 43, 127
7, 32160, Note_on_c, 8, 45, 127
7, 32208, Note_off_c, 8, 45, 127
7, 32256, Note_on_c, 8, 47, 127
7, 32328, Note_off_c, 8, 47, 127
7, 32400, Note_on_c, 8, 47, 127
7, 32473, Note_off_c, 8, 47, 127
7, 32544, Note_on_c, 8, 47, 127
7, 32592, Note_off_c, 8, 47, 127
7, 32640, Note_on_c, 8, 47, 127
7, 32736, Note_off_c, 8, 47, 127
7, 32832, Note_on_c, 8, 47, 127
7, 32928, Note_off_c, 8, 47, 127
7, 33024, Note_on_c, 8, 45, 127
7, 33096, Note_off_c, 8, 45, 127
7, 33168, Note_on_c, 8, 45, 127
7, 33241, Note_off_c, 8, 45, 127
7, 33312, Note_on_c, 8, 45, 127
7, 33384, Note_off_c, 8, 45, 127
7, 33456, Note_on_c, 8, 45, 127
7, 33529, Note_off_c, 8, 45, 127
7, 33600, Note_on_c, 8, 42, 127
7, 33648, Note_off_c, 8, 42, 127
7, 33696, Note_on_c, 8, 42, 127
7, 33744, Note_off_c, 8, 42, 127
7, 33792, Note_on_c, 8, 43, 127
7, 33864, Note_off_c, 8, 43, 127
7, 33936, Note_on_c, 8, 43, 127
7, 34009, Note_off_c, 8, 43, 127
7, 34080, Note_on_c, 8, 43, 127
7, 34152, Note_off_c, 8, 43, 127
7, 34224, Note_on_c, 8, 43, 127
7, 34297, Note_off_c, 8, 43, 127
7, 34368, Note_on_c, 8, 42, 127
7, 34416, Note_off_c, 8, 42, 127
7, 34464, Note_on_c, 8, 42, 127
7, 34512, Note_off_c, 8, 42, 127
7, 34560, Note_on_c, 8, 43, 127
7, 34632, Note_off_c, 8, 43, 127
7, 34704, Note_on_c, 8, 43, 127
7, 34777, Note_off_c, 8, 43, 127
7, 34848, Note_on_c, 8, 43, 127
7, 34920, Note_off_c, 8, 43, 127
7, 34992, Note_on_c, 8, 43, 127
7, 35065, Note_off_c, 8, 43, 127
7, 35136, Note_on_c, 8, 43, 127
7, 35184, Note_off_c, 8, 43, 127
7, 35232, Note_on_c, 8, 45, 127
7, 35280, Note_off_c, 8, 45, 127
7, 35328, Note_on_c, 8, 47, 127
7, 35400, Note_off_c, 8, 47, 127
7, 35472, Note_on_c, 8, 47, 127
7, 35545, Note_off_c, 8, 47, 127
7, 35616, Note_on_c, 8, 47, 127
7, 35664, Note_off_c, 8, 47, 127
7, 35712, Note_on_c, 8, 47, 127
7, 35808, Note_off_c, 8, 47, 127
7, 35904, Note_on_c, 8, 47, 127
7, 36000, Note_off_c, 8, 47, 127
7, 36096, Note_on_c, 8, 45, 127
7, 36168, Note_off_c, 8, 45, 127
7, 36240, Note_on_c, 8, 45, 127
7, 36313, Note_off_c, 8, 45, 127
7, 36384, Note_on_c, 8, 45, 127
7, 36456, Note_off_c, 8, 45, 127
7, 36528, Note_on_c, 8, 45, 127
7, 36601, Note_off_c, 8, 45, 127
7, 36672, Note_on_c, 8, 42, 127
7, 36720, Note_off_c, 8, 42, 127
7, 36768, Note_on_c, 8, 42, 127
7, 36816, Note_off_c, 8, 42, 127
7, 36864, Note_on_c, 8, 43, 127
7, 36936, Note_off_c, 8, 43, 127
7, 37008, Note_on_c, 8, 43, 127
7, 37081, Note_off_c, 8, 43, 127
7, 37152, Note_on_c, 8, 43, 127
7, 37224, Note_off_c, 8, 43, 127
7, 37296, Note_on_c, 8, 43, 127
7, 37369, Note_off_c, 8, 43, 127
7, 37440, Note_on_c, 8, 42, 127
7, 37488, Note_off_c, 8, 42, 127
7, 37536, Note_on_c, 8, 42, 127
7, 37584, Note_off_c, 8, 42, 127
7, 37632, Note_on_c, 8, 43, 127
7, 37704, Note_off_c, 8, 43, 127
7, 37776, Note_on_c, 8, 43, 127
7, 37849, Note_off_c, 8, 43, 127
7, 37920, Note_on_c, 8, 43, 127
7, 37992, Note_off_c, 8, 43, 127
7, 38064, Note_on_c, 8, 43, 127
7, 38137, Note_off_c, 8, 43, 127
7, 38208, Note_on_c, 8, 43, 127
7, 38256, Note_off_c, 8, 43, 127
7, 38304, Note_on_c, 8, 45, 127
7, 38352, Note_off_c, 8, 45, 127
7, 38400, Note_on_c, 8, 47, 127
7, 38472, Note_off_c, 8, 47, 127
7, 38544, Note_on_c, 8, 47, 127
7, 38617, Note_off_c, 8, 47, 127
7, 38688, Note_on_c, 8, 47, 127
7, 38736, Note_off_c, 8, 47, 127
7, 38784, Note_on_c, 8, 47, 127
7, 38880, Note_off_c, 8, 47, 127
7, 38976, Note_on_c, 8, 47, 127
7, 39072, Note_off_c, 8, 47, 127
7, 39168, Note_on_c, 8, 45, 127
7, 39240, Note_off_c, 8, 45, 127
7, 39312, Note_on_c, 8, 45, 127
7, 39385, Note_off_c, 8, 45, 127
7, 39456, Note_on_c, 8, 45, 127
7, 39528, Note_off_c, 8, 45, 127
7, 39600, Note_on_c, 8, 45, 127
7, 39673, Note_off_c, 8, 45, 127
7, 39744, Note_on_c, 8, 45, 127
7, 39792, Note_off_c, 8, 45, 127
7, 39840, Note_on_c, 8, 45, 127
7, 39888, Note_off_c, 8, 45, 127
7, 39936, Note_on_c, 8, 43, 127
7, 40008, Note_off_c, 8, 43, 127
7, 40080, Note_on_c, 8, 43, 127
7, 40153, Note_off_c, 8, 43, 127
7, 40224, Note_on_c, 8, 43, 127
7, 40296, Note_off_c, 8, 43, 127
7, 40368, Note_on_c, 8, 43, 127
7, 40441, Note_off_c, 8, 43, 127
7, 40512, Note_on_c, 8, 43, 127
7, 40560, Note_off_c, 8, 43, 127
7, 40608, Note_on_c, 8, 42, 127
7, 40656, Note_off_c, 8, 42, 127
7, 40704, Note_on_c, 8, 43, 127
7, 40776, Note_off_c, 8, 43, 127
7, 40848, Note_on_c, 8, 43, 127
7, 40921, Note_off_c, 8, 43, 127
7, 40992, Note_on_c, 8, 43, 127
7, 41064, Note_off_c, 8, 43, 127
7, 41136, Note_on_c, 8, 43, 127
7, 41209, Note_off_c, 8, 43, 127
7, 41280, Note_on_c, 8, 43, 127
7, 41328, Note_off_c, 8, 43, 127
7, 41376, Note_on_c, 8, 45, 127
7, 41424, Note_off_c, 8, 45, 127
7, 41472, Note_on_c, 8, 47, 127
7, 41544, Note_off_c, 8, 47, 127
7, 41616, Note_on_c, 8, 47, 127
7, 41689, Note_off_c, 8, 47, 127
7, 41760, Note_on_c, 8, 47, 127
7, 41808, Note_off_c, 8, 47, 127
7, 41856, Note_on_c, 8, 47, 127
7, 41952, Note_off_c, 8, 47, 127
7, 42048, Note_on_c, 8, 47, 127
7, 42144, Note_off_c, 8, 47, 127
7, 42240, Note_on_c, 8, 45, 127
7, 42312, Note_off_c, 8, 45, 127
7, 42384, Note_on_c, 8, 45, 127
7, 42457, Note_off_c, 8, 45, 127
7, 42528, Note_on_c, 8, 45, 127
7, 42600, Note_off_c, 8, 45, 127
7, 42672, Note_on_c, 8, 45, 127
7, 42745, Note_off_c, 8, 45, 127
7, 42816, Note_on_c, 8, 45, 127
7, 42864, Note_off_c, 8, 45, 127
7, 42912, Note_on_c, 8, 45, 127
7, 42960, Note_off_c, 8, 45, 127
7, 43008, Note_on_c, 8, 43, 127
7, 43080, Note_off_c, 8, 43, 127
7, 43152, Note_on_c, 8, 43, 127
7, 43225, Note_off_c, 8, 43, 127
7, 43296, Note_on_c, 8, 43, 127
7, 43368, Note_off_c, 8, 43, 127
7, 43440, Note_on_c, 8, 43, 127
7, 43513, Note_off_c, 8, 43, 127
7, 43584, Note_on_c, 8, 43, 127
7, 43632, Note_off_c, 8, 43, 127
7, 43680, Note_on_c, 8, 42, 127
7, 43728, Note_off_c, 8, 42, 127
7, 56064, Note_on_c, 8, 43, 127
7, 56136, Note_off_c, 8, 43, 127
7, 56208, Note_on_c, 8, 43, 127
7, 56281, Note_off_c, 8, 43, 127
7, 56352, Note_on_c, 8, 43, 127
7, 56424, Note_off_c, 8, 43, 127
7, 56496, Note_on_c, 8, 43, 127
7, 56569, Note_off_c, 8, 43, 127
7, 56640, Note_on_c, 8, 43, 127
7, 56688, Note_off_c, 8, 43, 127
7, 56736, Note_on_c, 8, 45, 127
7, 56784, Note_off_c, 8, 45, 127
7, 56832, Note_on_c, 8, 47, 127
7, 56904, Note_off_c, 8, 47, 127
7, 56976, Note_on_c, 8, 47, 127
7, 57049, Note_off_c, 8, 47, 127
7, 57120, Note_on_c, 8, 47, 127
7, 57168, Note_off_c, 8, 47, 127
7, 57216, Note_on_c, 8, 47, 127
7, 57312, Note_off_c, 8, 47, 127
7, 57408, Note_on_c, 8, 47, 127
7, 57504, Note_off_c, 8, 47, 127
7, 57600, Note_on_c, 8, 45, 127
7, 57672, Note_off_c, 8, 45, 127
7, 57744, Note_on_c, 8, 45, 127
7, 57817, Note_off_c, 8, 45, 127
7, 57888, Note_on_c, 8, 45, 127
7, 57960, Note_off_c, 8, 45, 127
7, 58032, Note_on_c, 8, 45, 127
7, 58105, Note_off_c, 8, 45, 127
7, 58176, Note_on_c, 8, 45, 127
7, 58224, Note_off_c, 8, 45, 127
7, 58272, Note_on_c, 8, 45, 127
7, 58320, Note_off_c, 8, 45, 127
7, 58368, Note_on_c, 8, 43, 127
7, 58440, Note_off_c, 8, 43, 127
7, 58512, Note_on_c, 8, 43, 127
7, 58585, Note_off_c, 8, 43, 127
7, 58656, Note_on_c, 8, 43, 127
7, 58728, Note_off_c, 8, 43, 127
7, 58800, Note_on_c, 8, 43, 127
7, 58873, Note_off_c, 8, 43, 127
7, 58944, Note_on_c, 8, 43, 127
7, 58992, Note_off_c, 8, 43, 127
7, 59040, Note_on_c, 8, 42, 127
7, 59088, Note_off_c, 8, 42, 127
7, 59136, Note_on_c, 8, 43, 127
7, 59208, Note_off_c, 8, 43, 127
7, 59280, Note_on_c, 8, 43, 127
7, 59353, Note_off_c, 8, 43, 127
7, 59424, Note_on_c, 8, 43, 127
7, 59496, Note_off_c, 8, 43, 127
7, 59568, Note_on_c, 8, 43, 127
7, 59641, Note_off_c, 8, 43, 127
7, 59712, Note_on_c, 8, 43, 127
7, 59760, Note_off_c, 8, 43, 127
7, 59808, Note_on_c, 8, 45, 127
7, 59856, Note_off_c, 8, 45, 127
7, 59904, Note_on_c, 8, 47, 127
7, 59976, Note_off_c, 8, 47, 127
7, 60048, Note_on_c, 8, 47, 127
7, 60121, Note_off_c, 8, 47, 127
7, 60192, Note_on_c, 8, 47, 127
7, 60240, Note_off_c, 8, 47, 127
7, 60288, Note_on_c, 8, 47, 127
7, 60384, Note_off_c, 8, 47, 127
7, 60480, Note_on_c, 8, 47, 127
7, 60576, Note_off_c, 8, 47, 127
7, 60672, Note_on_c, 8, 45, 127
7, 60744, Note_off_c, 8, 45, 127
7, 60816, Note_on_c, 8, 45, 127
7, 60889, Note_off_c, 8, 45, 127
7, 60960, Note_on_c, 8, 45, 127
7, 61032, Note_off_c, 8, 45, 127
7, 61104, Note_on_c, 8, 45, 127
7, 61177, Note_off_c, 8, 45, 127
7, 61248, Note_on_c, 8, 45, 127
7, 61296, Note_off_c, 8, 45, 127
7, 61344, Note_on_c, 8, 45, 127
7, 61392, Note_off_c, 8, 45, 127
7, 61440, Note_on_c, 8, 43, 127
7, 61512, Note_off_c, 8, 43, 127
7, 61584, Note_on_c, 8, 43, 127
7, 61657, Note_off_c, 8, 43, 127
7, 61728, Note_on_c, 8, 43, 127
7, 61800, Note_off_c, 8, 43, 127
7, 61872, Note_on_c, 8, 43, 127
7, 61945, Note_off_c, 8, 43, 127
7, 62016, Note_on_c, 8, 43, 127
7, 62064, Note_off_c, 8, 43, 127
7, 62112, Note_on_c, 8, 42, 127
7, 62160, Note_off_c, 8, 42, 127
7, 62208, Note_on_c, 8, 43, 127
7, 62280, Note_off_c, 8, 43, 127
7, 62352, Note_on_c, 8, 43, 127
7, 62425, Note_off_c, 8, 43, 127
7, 62496, Note_on_c, 8, 43, 127
7, 62568, Note_off_c, 8, 43, 127
7, 62640, Note_on_c, 8, 43, 127
7, 62713, Note_off_c, 8, 43, 127
7, 62784, Note_on_c, 8, 43, 127
7, 62832, Note_off_c, 8, 43, 127
7, 62880, Note_on_c, 8, 45, 127
7, 62928, Note_off_c, 8, 45, 127
7, 62976, Note_on_c, 8, 47, 127
7, 63048, Note_off_c, 8, 47, 127
7, 63120, Note_on_c, 8, 47, 127
7, 63193, Note_off_c, 8, 47, 127
7, 63264, Note_on_c, 8, 47, 127
7, 63312, Note_off_c, 8, 47, 127
7, 63360, Note_on_c, 8, 47, 127
7, 63456, Note_off_c, 8, 47, 127
7, 63552, Note_on_c, 8, 47, 127
7, 63648, Note_off_c, 8, 47, 127
7, 63744, Note_on_c, 8, 45, 127
7, 63816, Note_off_c, 8, 45, 127
7, 63888, Note_on_c, 8, 45, 127
7, 63961, Note_off_c, 8, 45, 127
7, 64032, Note_on_c, 8, 45, 127
7, 64104, Note_off_c, 8, 45, 127
7, 64176, Note_on_c, 8, 45, 127
7, 64249, Note_off_c, 8, 45, 127
7, 64320, Note_on_c, 8, 45, 127
7, 64368, Note_off_c, 8, 45, 127
7, 64416, Note_on_c, 8, 45, 127
7, 64464, Note_off_c, 8, 45, 127
7, 64512, Note_on_c, 8, 43, 127
7, 64584, Note_off_c, 8, 43, 127
7, 64656, Note_on_c, 8, 43, 127
7, 64729, Note_off_c, 8, 43, 127
7, 64800, Note_on_c, 8, 43, 127
7, 64872, Note_off_c, 8, 43, 127
7, 64944, Note_on_c, 8, 43, 127
7, 65017, Note_off_c, 8, 43, 127
7, 65088, Note_on_c, 8, 43, 127
7, 65136, Note_off_c, 8, 43, 127
7, 65184, Note_on_c, 8, 42, 127
7, 65232, Note_off_c, 8, 42, 127
7, 65280, Note_on_c, 8, 43, 127
7, 65352, Note_off_c, 8, 43, 127
7, 65424, Note_on_c, 8, 43, 127
7, 65497, Note_off_c, 8, 43, 127
7, 65568, Note_on_c, 8, 43, 127
7, 65640, Note_off_c, 8, 43, 127
7, 65712, Note_on_c, 8, 43, 127
7, 65785, Note_off_c, 8, 43, 127
7, 65856, Note_on_c, 8, 43, 127
7, 65904, Note_off_c, 8, 43, 127
7, 65952, Note_on_c, 8, 45, 127
7, 66000, Note_off_c, 8, 45, 127
7, 66048, Note_on_c, 8, 47, 127
7, 66120, Note_off_c, 8, 47, 127
7, 66192, Note_on_c, 8, 47, 127
7, 66265, Note_off_c, 8, 47, 127
7, 66336, Note_on_c, 8, 47, 127
7, 66384, Note_off_c, 8, 47, 127
7, 66432, Note_on_c, 8, 47, 127
7, 66528, Note_off_c, 8, 47, 127
7, 66624, Note_on_c, 8, 47, 127
7, 66720, Note_off_c, 8, 47, 127
7, 66816, Note_on_c, 8, 45, 127
7, 66888, Note_off_c, 8, 45, 127
7, 66960, Note_on_c, 8, 45, 127
7, 67033, Note_off_c, 8, 45, 127
7, 67104, Note_on_c, 8, 45, 127
7, 67176, Note_off_c, 8, 45, 127
7, 67248, Note_on_c, 8, 45, 127
7, 67321, Note_off_c, 8, 45, 127
7, 67392, Note_on_c, 8, 45, 127
7, 67440, Note_off_c, 8, 45, 127
7, 67488, Note_on_c, 8, 45, 127
7, 67536, Note_off_c, 8, 45, 127
7, 67584, Note_on_c, 8, 43, 127
7, 67656, Note_off_c, 8, 43, 127
7, 67728, Note_on_c, 8, 43, 127
7, 67801, Note_off_c, 8, 43, 127
7, 67872, Note_on_c, 8, 43, 127
7, 67944, Note_off_c, 8, 43, 127
7, 68016, Note_on_c, 8, 43, 127
7, 68089, Note_off_c, 8, 43, 127
7, 68160, Note_on_c, 8, 43, 127
7, 68208, Note_off_c, 8, 43, 127
7, 68256, Note_on_c, 8, 42, 127
7, 68304, Note_off_c, 8, 42, 127
7, 68352, Note_on_c, 8, 43, 127
7, 68424, Note_off_c, 8, 43, 127
7, 68496, Note_on_c, 8, 43, 127
7, 68569, Note_off_c, 8, 43, 127
7, 68640, Note_on_c, 8, 43, 127
7, 68712, Note_off_c, 8, 43, 127
7, 68784, Note_on_c, 8, 43, 127
7, 68857, Note_off_c, 8, 43, 127
7, 68928, Note_on_c, 8, 43, 127
7, 68976, Note_off_c, 8, 43, 127
7, 69024, Note_on_c, 8, 45, 127
7, 69072, Note_off_c, 8, 45, 127
7, 69120, Note_on_c, 8, 47, 127
7, 69192, Note_off_c, 8, 47, 127
7, 69264, Note_on_c, 8, 47, 127
7, 69337, Note_off_c, 8, 47, 127
7, 69408, Note_on_c, 8, 47, 127
7, 69456, Note_off_c, 8, 47, 127
7, 69504, Note_on_c, 8, 47, 127
7, 69600, Note_off_c, 8, 47, 127
7, 69696, Note_on_c, 8, 47, 127
7, 69792, Note_off_c, 8, 47, 127
7, 69888, Note_on_c, 8, 45, 127
7, 69960, Note_off_c, 8, 45, 127
7, 70032, Note_on_c, 8, 45, 127
7, 70105, Note_off_c, 8, 45, 127
7, 70176, Note_on_c, 8, 45, 127
7, 70248, Note_off_c, 8, 45, 127
7, 70320, Note_on_c, 8, 45, 127
7, 70393, Note_off_c, 8, 45, 127
7, 70464, Note_on_c, 8, 45, 127
7, 70512, Note_off_c, 8, 45, 127
7, 70560, Note_on_c, 8, 45, 127
7, 70608, Note_off_c, 8, 45, 127
7, 70656, Note_on_c, 8, 43, 127
7, 70728, Note_off_c, 8, 43, 127
7, 70800, Note_on_c, 8, 43, 127
7, 70873, Note_off_c, 8, 43, 127
7, 70944, Note_on_c, 8, 43, 127
7, 71016, Note_off_c, 8, 43, 127
7, 71088, Note_on_c, 8, 43, 127
7, 71161, Note_off_c, 8, 43, 127
7, 71232, Note_on_c, 8, 43, 127
7, 71280, Note_off_c, 8, 43, 127
7, 71328, Note_on_c, 8, 42, 127
7, 71376, Note_off_c, 8, 42, 127
7, 71424, Note_on_c, 8, 43, 127
7, 71496, Note_off_c, 8, 43, 127
7, 71568, Note_on_c, 8, 43, 127
7, 71641, Note_off_c, 8, 43, 127
7, 71712, Note_on_c, 8, 43, 127
7, 71784, Note_off_c, 8, 43, 127
7, 71856, Note_on_c, 8, 43, 127
7, 71929, Note_off_c, 8, 43, 127
7, 72000, Note_on_c, 8, 43, 127
7, 72048, Note_off_c, 8, 43, 127
7, 72096, Note_on_c, 8, 45, 127
7, 72144, Note_off_c, 8, 45, 127
7, 72192, Note_on_c, 8, 47, 127
7, 72264, Note_off_c, 8, 47, 127
7, 72336, Note_on_c, 8, 47, 127
7, 72409, Note_off_c, 8, 47, 127
7, 72480, Note_on_c, 8, 47, 127
7, 72528, Note_off_c, 8, 47, 127
7, 72576, Note_on_c, 8, 47, 127
7, 72672, Note_off_c, 8, 47, 127
7, 72768, Note_on_c, 8, 47, 127
7, 72864, Note_off_c, 8, 47, 127
7, 72960, Note_on_c, 8, 45, 127
7, 73032, Note_off_c, 8, 45, 127
7, 73104, Note_on_c, 8, 45, 127
7, 73177, Note_off_c, 8, 45, 127
7, 73248, Note_on_c, 8, 45, 127
7, 73320, Note_off_c, 8, 45, 127
7, 73392, Note_on_c, 8, 45, 127
7, 73465, Note_off_c, 8, 45, 127
7, 73536, Note_on_c, 8, 45, 127
7, 73584, Note_off_c, 8, 45, 127
7, 73632, Note_on_c, 8, 45, 127
7, 73680, Note_off_c, 8, 45, 127
7, 73728, Note_on_c, 8, 43, 127
7, 73800, Note_off_c, 8, 43, 127
7, 73872, Note_on_c, 8, 43, 127
7, 73945, Note_off_c, 8, 43, 127
7, 74016, Note_on_c, 8, 43, 127
7, 74088, Note_off_c, 8, 43, 127
7, 74160, Note_on_c, 8, 43, 127
7, 74233, Note_off_c, 8, 43, 127
7, 74304, Note_on_c, 8, 43, 127
7, 74352, Note_off_c, 8, 43, 127
7, 74400, Note_on_c, 8, 42, 127
7, 74448, Note_off_c, 8, 42, 127
7, 74496, Note_on_c, 8, 43, 127
7, 74568, Note_off_c, 8, 43, 127
7, 74640, Note_on_c, 8, 43, 127
7, 74713, Note_off_c, 8, 43, 127
7, 74784, Note_on_c, 8, 43, 127
7, 74856, Note_off_c, 8, 43, 127
7, 74928, Note_on_c, 8, 43, 127
7, 75001, Note_off_c, 8, 43, 127
7, 75072, Note_on_c, 8, 43, 127
7, 75120, Note_off_c, 8, 43, 127
7, 75168, Note_on_c, 8, 45, 127
7, 75216, Note_off_c, 8, 45, 127
7, 75264, Note_on_c, 8, 47, 127
7, 75336, Note_off_c, 8, 47, 127
7, 75408, Note_on_c, 8, 47, 127
7, 75481, Note_off_c, 8, 47, 127
7, 75552, Note_on_c, 8, 47, 127
7, 75600, Note_off_c, 8, 47, 127
7, 75648, Note_on_c, 8, 47, 127
7, 75744, Note_off_c, 8, 47, 127
7, 75840, Note_on_c, 8, 47, 127
7, 75936, Note_off_c, 8, 47, 127
7, 76032, Note_on_c, 8, 45, 127
7, 76104, Note_off_c, 8, 45, 127
7, 76176, Note_on_c, 8, 45, 127
7, 76249, Note_off_c, 8, 45, 127
7, 76320, Note_on_c, 8, 45, 127
7, 76392, Note_off_c, 8, 45, 127
7, 76464, Note_on_c, 8, 45, 127
7, 76537, Note_off_c, 8, 45, 127
7, 76608, Note_on_c, 8, 45, 127
7, 76656, Note_off_c, 8, 45, 127
7, 76704, Note_on_c, 8, 45, 127
7, 76752, Note_off_c, 8, 45, 127
7, 76800, Note_on_c, 8, 43, 127
7, 76872, Note_off_c, 8, 43, 127
7, 76944, Note_on_c, 8, 43, 127
7, 77017, Note_off_c, 8, 43, 127
7, 77088, Note_on_c, 8, 43, 127
7, 77160, Note_off_c, 8, 43, 127
7, 77232, Note_on_c, 8, 43, 127
7, 77305, Note_off_c, 8, 43, 127
7, 77376, Note_on_c, 8, 43, 127
7, 77424, Note_off_c, 8, 43, 127
7, 77472, Note_on_c, 8, 42, 127
7, 77520, Note_off_c, 8, 42, 127
7, 77568, Note_on_c, 8, 43, 127
7, 77616, Control_c, 8, 7, 121
7, 77617, Control_c, 8, 7, 120
7, 77640, Note_off_c, 8, 43, 127
7, 77712, Control_c, 8, 7, 118
7, 77712, Note_on_c, 8, 43, 127
7, 77760, Control_c, 8, 7, 115
7, 77761, Control_c, 8, 7, 114
7, 77785, Note_off_c, 8, 43, 127
7, 77856, Control_c, 8, 7, 111
7, 77856, Note_on_c, 8, 43, 127
7, 77857, Control_c, 8, 7, 110
7, 77928, Note_off_c, 8, 43, 127
7, 77952, Control_c, 8, 7, 107
7, 77953, Control_c, 8, 7, 106
7, 78000, Note_on_c, 8, 43, 127
7, 78048, Control_c, 8, 7, 104
7, 78073, Note_off_c, 8, 43, 127
7, 78096, Control_c, 8, 7, 101
7, 78097, Control_c, 8, 7, 100
7, 78144, Note_on_c, 8, 43, 127
7, 78192, Note_off_c, 8, 43, 127
7, 78192, Control_c, 8, 7, 97
7, 78193, Control_c, 8, 7, 96
7, 78240, Note_on_c, 8, 45, 127
7, 78288, Note_off_c, 8, 45, 127
7, 78288, Control_c, 8, 7, 93
7, 78289, Control_c, 8, 7, 92
7, 78336, Note_on_c, 8, 47, 127
7, 78360, Control_c, 8, 7, 91
7, 78408, Note_off_c, 8, 47, 127
7, 78432, Control_c, 8, 7, 88
7, 78433, Control_c, 8, 7, 87
7, 78480, Note_on_c, 8, 47, 127
7, 78528, Control_c, 8, 7, 85
7, 78553, Note_off_c, 8, 47, 127
7, 78576, Control_c, 8, 7, 82
7, 78577, Control_c, 8, 7, 81
7, 78624, Note_on_c, 8, 47, 127
7, 78672, Note_off_c, 8, 47, 127
7, 78672, Control_c, 8, 7, 78
7, 78673, Control_c, 8, 7, 77
7, 78720, Note_on_c, 8, 47, 127
7, 78768, Control_c, 8, 7, 74
7, 78769, Control_c, 8, 7, 73
7, 78816, Note_off_c, 8, 47, 127
7, 78864, Control_c, 8, 7, 71
7, 78912, Control_c, 8, 7, 68
7, 78912, Note_on_c, 8, 47, 127
7, 78913, Control_c, 8, 7, 67
7, 79008, Note_off_c, 8, 47, 127
7, 79008, Control_c, 8, 7, 64
7, 79009, Control_c, 8, 7, 63
7, 79104, Control_c, 8, 7, 60
7, 79104, Note_on_c, 8, 45, 127
7, 79105, Control_c, 8, 7, 59
7, 79176, Note_off_c, 8, 45, 127
7, 79200, Control_c, 8, 7, 57
7, 79248, Control_c, 8, 7, 54
7, 79248, Note_on_c, 8, 45, 127
7, 79249, Control_c, 8, 7, 53
7, 79321, Note_off_c, 8, 45, 127
7, 79344, Control_c, 8, 7, 50
7, 79345, Control_c, 8, 7, 49
7, 79392, Note_on_c, 8, 45, 127
7, 79440, Control_c, 8, 7, 46
7, 79441, Control_c, 8, 7, 45
7, 79464, Note_off_c, 8, 45, 127
7, 79536, Control_c, 8, 7, 43
7, 79536, Note_on_c, 8, 45, 127
7, 79584, Control_c, 8, 7, 40
7, 79585, Control_c, 8, 7, 39
7, 79609, Note_off_c, 8, 45, 127
7, 79680, Control_c, 8, 7, 36
7, 79680, Note_on_c, 8, 45, 127
7, 79681, Control_c, 8, 7, 35
7, 79728, Note_off_c, 8, 45, 127
7, 79776, Control_c, 8, 7, 33
7, 79776, Note_on_c, 8, 45, 127
7, 79824, Note_off_c, 8, 45, 127
7, 79824, Control_c, 8, 7, 30
7, 79872, Note_on_c, 8, 43, 127
7, 79920, Control_c, 8, 7, 27
7, 79921, Control_c, 8, 7, 26
7, 79944, Note_off_c, 8, 43, 127
7, 80016, Control_c, 8, 7, 24
7, 80016, Note_on_c, 8, 43, 127
7, 80064, Control_c, 8, 7, 21
7, 80065, Control_c, 8, 7, 20
7, 80089, Note_off_c, 8, 43, 127
7, 80160, Control_c, 8, 7, 17
7, 80160, Note_on_c, 8, 43, 127
7, 80161, Control_c, 8, 7, 16
7, 80232, Note_off_c, 8, 43, 127
7, 80256, Control_c, 8, 7, 13
7, 80257, Control_c, 8, 7, 12
7, 80304, Note_on_c, 8, 43, 127
7, 80352, Control_c, 8, 7, 10
7, 80377, Note_off_c, 8, 43, 127
7, 80400, Control_c, 8, 7, 7
7, 80401, Control_c, 8, 7, 6
7, 80448, Note_on_c, 8, 43, 127
7, 80496, Note_off_c, 8, 43, 127
7, 80496, Control_c, 8, 7, 3
7, 80497, Control_c, 8, 7, 2
7, 80544, Note_on_c, 8, 42, 127
7, 80592, Note_off_c, 8, 42, 127
7, 80592, Control_c, 8, 7, 0
7, 80641, Control_c, 8, 123, 0
7, 80641, Control_c, 8, 120, 0
7, 80641, End_track
8, 0, Start_track
8, 0, MIDI_port, 0
8, 0, Unknown_meta_event, 9, 21, 77, 105, 99, 114, 111, 115, 111, 102, 116, 32, 77, 73, 68, 73, 32, 77, 97, 112, 112, 101, 114
8, 0, Title_t, "Tenor Sax"
8, 62016, Control_c, 12, 0, 0
8, 62016, Control_c, 12, 32, 0
8, 62016, Program_c, 12, 66
8, 62016, Control_c, 12, 10, 64
8, 62016, Control_c, 12, 101, 0
8, 62016, Control_c, 12, 100, 0
8, 62016, Control_c, 12, 6, 24
8, 62016, Control_c, 12, 7, 127
8, 62016, Pitch_bend_c, 12, 8192
8, 62016, Control_c, 12, 10, 64
8, 62016, Note_on_c, 12, 64, 125
8, 62093, Pitch_bend_c, 12, 8485
8, 62104, Pitch_bend_c, 12, 8860
8, 62114, Pitch_bend_c, 12, 9188
8, 62125, Pitch_bend_c, 12, 9502
8, 62135, Pitch_bend_c, 12, 9894
8, 62146, Pitch_bend_c, 12, 10240
8, 62156, Pitch_bend_c, 12, 10533
8, 62166, Pitch_bend_c, 12, 10908
8, 62177, Pitch_bend_c, 12, 11236
8, 62188, Pitch_bend_c, 12, 11564
8, 62198, Pitch_bend_c, 12, 11942
8, 62208, Pitch_bend_c, 12, 12205
8, 62307, Pitch_bend_c, 12, 12137
8, 62313, Pitch_bend_c, 12, 12072
8, 62327, Pitch_bend_c, 12, 12137
8, 62333, Pitch_bend_c, 12, 12205
8, 62370, Pitch_bend_c, 12, 12137
8, 62396, Pitch_bend_c, 12, 12205
8, 62434, Pitch_bend_c, 12, 12137
8, 62438, Pitch_bend_c, 12, 12072
8, 62455, Pitch_bend_c, 12, 12137
8, 62459, Pitch_bend_c, 12, 12205
8, 62496, Note_off_c, 12, 64, 125
8, 62496, Pitch_bend_c, 12, 8192
8, 62496, Note_on_c, 12, 74, 125
8, 62564, Pitch_bend_c, 12, 8222
8, 62572, Pitch_bend_c, 12, 8286
8, 62581, Pitch_bend_c, 12, 8222
8, 62589, Pitch_bend_c, 12, 8192
8, 62595, Pitch_bend_c, 12, 8124
8, 62603, Pitch_bend_c, 12, 8060
8, 62613, Pitch_bend_c, 12, 8124
8, 62621, Pitch_bend_c, 12, 8192
8, 62627, Pitch_bend_c, 12, 8222
8, 62633, Pitch_bend_c, 12, 8286
8, 62646, Pitch_bend_c, 12, 8222
8, 62652, Pitch_bend_c, 12, 8192
8, 62658, Pitch_bend_c, 12, 8124
8, 62664, Pitch_bend_c, 12, 8060
8, 62678, Pitch_bend_c, 12, 8124
8, 62684, Pitch_bend_c, 12, 8192
8, 62690, Pitch_bend_c, 12, 8222
8, 62716, Pitch_bend_c, 12, 8192
8, 62722, Pitch_bend_c, 12, 8124
8, 62747, Pitch_bend_c, 12, 8192
8, 62753, Pitch_bend_c, 12, 8222
8, 62779, Pitch_bend_c, 12, 8192
8, 62784, Note_off_c, 12, 74, 125
8, 62784, Note_on_c, 12, 71, 125
8, 62852, Pitch_bend_c, 12, 8222
8, 62858, Pitch_bend_c, 12, 8286
8, 62871, Pitch_bend_c, 12, 8222
8, 62877, Pitch_bend_c, 12, 8192
8, 62883, Pitch_bend_c, 12, 8124
8, 62889, Pitch_bend_c, 12, 8060
8, 62903, Pitch_bend_c, 12, 8124
8, 62909, Pitch_bend_c, 12, 8192
8, 62915, Pitch_bend_c, 12, 8222
8, 62919, Pitch_bend_c, 12, 8286
8, 62928, Pitch_bend_c, 12, 8485
8, 62930, Pitch_bend_c, 12, 8286
8, 62936, Pitch_bend_c, 12, 8222
8, 62940, Pitch_bend_c, 12, 8860
8, 62942, Pitch_bend_c, 12, 8192
8, 62946, Pitch_bend_c, 12, 8124
8, 62950, Pitch_bend_c, 12, 8060
8, 62952, Pitch_bend_c, 12, 9188
8, 62954, Pitch_bend_c, 12, 8060
8, 62964, Pitch_bend_c, 12, 9502
8, 62966, Pitch_bend_c, 12, 8060
8, 62968, Pitch_bend_c, 12, 8124
8, 62972, Pitch_bend_c, 12, 8192
8, 62976, Pitch_bend_c, 12, 9894
8, 63044, Pitch_bend_c, 12, 9960
8, 63048, Pitch_bend_c, 12, 10024
8, 63065, Pitch_bend_c, 12, 9960
8, 63069, Pitch_bend_c, 12, 9894
8, 63075, Pitch_bend_c, 12, 9829
8, 63079, Pitch_bend_c, 12, 9761
8, 63097, Pitch_bend_c, 12, 9829
8, 63101, Pitch_bend_c, 12, 9894
8, 63107, Pitch_bend_c, 12, 9960
8, 63132, Pitch_bend_c, 12, 9894
8, 63138, Pitch_bend_c, 12, 9829
8, 63164, Pitch_bend_c, 12, 9894
8, 63170, Pitch_bend_c, 12, 9960
8, 63176, Pitch_bend_c, 12, 10024
8, 63190, Pitch_bend_c, 12, 9960
8, 63196, Pitch_bend_c, 12, 9894
8, 63202, Pitch_bend_c, 12, 9829
8, 63208, Pitch_bend_c, 12, 9761
8, 63221, Pitch_bend_c, 12, 9829
8, 63227, Pitch_bend_c, 12, 9894
8, 63233, Pitch_bend_c, 12, 9960
8, 63241, Pitch_bend_c, 12, 10024
8, 63251, Pitch_bend_c, 12, 9960
8, 63259, Pitch_bend_c, 12, 9894
8, 63264, Note_off_c, 12, 71, 125
8, 63264, Pitch_bend_c, 12, 8192
8, 63264, Note_on_c, 12, 74, 125
8, 63332, Pitch_bend_c, 12, 8222
8, 63357, Pitch_bend_c, 12, 8192
8, 63363, Pitch_bend_c, 12, 8124
8, 63389, Pitch_bend_c, 12, 8192
8, 63395, Pitch_bend_c, 12, 8222
8, 63401, Pitch_bend_c, 12, 8286
8, 63414, Pitch_bend_c, 12, 8222
8, 63420, Pitch_bend_c, 12, 8192
8, 63426, Pitch_bend_c, 12, 8124
8, 63432, Pitch_bend_c, 12, 8060
8, 63446, Pitch_bend_c, 12, 8124
8, 63452, Pitch_bend_c, 12, 8192
8, 63458, Pitch_bend_c, 12, 8222
8, 63464, Pitch_bend_c, 12, 8286
8, 63478, Pitch_bend_c, 12, 8222
8, 63484, Pitch_bend_c, 12, 8192
8, 63490, Pitch_bend_c, 12, 8124
8, 63496, Pitch_bend_c, 12, 8060
8, 63509, Pitch_bend_c, 12, 8124
8, 63515, Pitch_bend_c, 12, 8192
8, 63521, Pitch_bend_c, 12, 8222
8, 63547, Pitch_bend_c, 12, 8192
8, 63552, Note_off_c, 12, 74, 125
8, 63552, Note_on_c, 12, 71, 125
8, 63620, Pitch_bend_c, 12, 8222
8, 63626, Pitch_bend_c, 12, 8286
8, 63639, Pitch_bend_c, 12, 8222
8, 63645, Pitch_bend_c, 12, 8192
8, 63651, Pitch_bend_c, 12, 8124
8, 63657, Pitch_bend_c, 12, 8060
8, 63671, Pitch_bend_c, 12, 8124
8, 63677, Pitch_bend_c, 12, 8192
8, 63683, Pitch_bend_c, 12, 8222
8, 63687, Pitch_bend_c, 12, 8286
8, 63696, Pitch_bend_c, 12, 8485
8, 63698, Pitch_bend_c, 12, 8286
8, 63704, Pitch_bend_c, 12, 8222
8, 63708, Pitch_bend_c, 12, 8860
8, 63710, Pitch_bend_c, 12, 8192
8, 63714, Pitch_bend_c, 12, 8124
8, 63718, Pitch_bend_c, 12, 8060
8, 63720, Pitch_bend_c, 12, 9188
8, 63722, Pitch_bend_c, 12, 8060
8, 63732, Pitch_bend_c, 12, 9502
8, 63734, Pitch_bend_c, 12, 8060
8, 63736, Pitch_bend_c, 12, 8124
8, 63740, Pitch_bend_c, 12, 8192
8, 63744, Pitch_bend_c, 12, 9894
8, 63812, Pitch_bend_c, 12, 9960
8, 63816, Pitch_bend_c, 12, 10024
8, 63833, Pitch_bend_c, 12, 9960
8, 63837, Pitch_bend_c, 12, 9894
8, 63843, Pitch_bend_c, 12, 9829
8, 63847, Pitch_bend_c, 12, 9761
8, 63865, Pitch_bend_c, 12, 9829
8, 63869, Pitch_bend_c, 12, 9894
8, 63875, Pitch_bend_c, 12, 9960
8, 63883, Pitch_bend_c, 12, 10024
8, 63892, Pitch_bend_c, 12, 9960
8, 63900, Pitch_bend_c, 12, 9894
8, 63906, Pitch_bend_c, 12, 9829
8, 63914, Pitch_bend_c, 12, 9761
8, 63924, Pitch_bend_c, 12, 9829
8, 63932, Pitch_bend_c, 12, 9894
8, 63938, Pitch_bend_c, 12, 9960
8, 63944, Pitch_bend_c, 12, 10024
8, 63958, Pitch_bend_c, 12, 9960
8, 63964, Pitch_bend_c, 12, 9894
8, 63970, Pitch_bend_c, 12, 9829
8, 63976, Pitch_bend_c, 12, 9761
8, 63989, Pitch_bend_c, 12, 9829
8, 63995, Pitch_bend_c, 12, 9894
8, 64003, Pitch_bend_c, 12, 9960
8, 64025, Pitch_bend_c, 12, 9894
8, 64032, Note_off_c, 12, 71, 125
8, 64032, Pitch_bend_c, 12, 8192
8, 64032, Note_on_c, 12, 73, 125
8, 64100, Pitch_bend_c, 12, 8222
8, 64110, Pitch_bend_c, 12, 8286
8, 64115, Pitch_bend_c, 12, 8222
8, 64125, Pitch_bend_c, 12, 8192
8, 64131, Pitch_bend_c, 12, 8124
8, 64141, Pitch_bend_c, 12, 8060
8, 64147, Pitch_bend_c, 12, 8124
8, 64157, Pitch_bend_c, 12, 8192
8, 64163, Pitch_bend_c, 12, 8222
8, 64169, Pitch_bend_c, 12, 8286
8, 64182, Pitch_bend_c, 12, 8222
8, 64188, Pitch_bend_c, 12, 8192
8, 64194, Pitch_bend_c, 12, 8124
8, 64200, Pitch_bend_c, 12, 8060
8, 64214, Pitch_bend_c, 12, 8124
8, 64220, Pitch_bend_c, 12, 8192
8, 64226, Pitch_bend_c, 12, 8222
8, 64252, Pitch_bend_c, 12, 8192
8, 64258, Pitch_bend_c, 12, 8124
8, 64283, Pitch_bend_c, 12, 8192
8, 64289, Pitch_bend_c, 12, 8222
8, 64315, Pitch_bend_c, 12, 8192
8, 64320, Note_off_c, 12, 73, 125
8, 64320, Note_on_c, 12, 74, 125
8, 64388, Pitch_bend_c, 12, 8222
8, 64394, Pitch_bend_c, 12, 8286
8, 64407, Pitch_bend_c, 12, 8222
8, 64413, Pitch_bend_c, 12, 8192
8, 64419, Pitch_bend_c, 12, 8124
8, 64425, Pitch_bend_c, 12, 8060
8, 64439, Pitch_bend_c, 12, 8124
8, 64445, Pitch_bend_c, 12, 8192
8, 64451, Pitch_bend_c, 12, 8222
8, 64476, Pitch_bend_c, 12, 8192
8, 64482, Pitch_bend_c, 12, 8124
8, 64508, Pitch_bend_c, 12, 8192
8, 64512, Note_off_c, 12, 74, 125
8, 64512, Note_on_c, 12, 71, 125
8, 64580, Pitch_bend_c, 12, 8222
8, 64584, Pitch_bend_c, 12, 8286
8, 64601, Pitch_bend_c, 12, 8222
8, 64605, Pitch_bend_c, 12, 8192
8, 64611, Pitch_bend_c, 12, 8124
8, 64615, Pitch_bend_c, 12, 8060
8, 64633, Pitch_bend_c, 12, 8124
8, 64637, Pitch_bend_c, 12, 8192
8, 64643, Pitch_bend_c, 12, 8222
8, 64649, Pitch_bend_c, 12, 8286
8, 64662, Pitch_bend_c, 12, 8222
8, 64668, Pitch_bend_c, 12, 8192
8, 64674, Pitch_bend_c, 12, 8124
8, 64680, Pitch_bend_c, 12, 8060
8, 64694, Pitch_bend_c, 12, 8124
8, 64700, Pitch_bend_c, 12, 8192
8, 64706, Pitch_bend_c, 12, 8222
8, 64714, Pitch_bend_c, 12, 8286
8, 64724, Pitch_bend_c, 12, 8222
8, 64732, Pitch_bend_c, 12, 8192
8, 64738, Pitch_bend_c, 12, 8124
8, 64746, Pitch_bend_c, 12, 8060
8, 64755, Pitch_bend_c, 12, 8124
8, 64763, Pitch_bend_c, 12, 8192
8, 64769, Pitch_bend_c, 12, 8222
8, 64777, Pitch_bend_c, 12, 8286
8, 64787, Pitch_bend_c, 12, 8222
8, 64795, Pitch_bend_c, 12, 8192
8, 64800, Note_off_c, 12, 71, 125
8, 64800, Note_on_c, 12, 74, 125
8, 64848, Note_off_c, 12, 74, 125
8, 64848, Note_on_c, 12, 73, 125
8, 64896, Note_off_c, 12, 73, 125
8, 64896, Note_on_c, 12, 69, 125
8, 64964, Pitch_bend_c, 12, 8222
8, 64970, Pitch_bend_c, 12, 8286
8, 64983, Pitch_bend_c, 12, 8222
8, 64989, Pitch_bend_c, 12, 8192
8, 64995, Pitch_bend_c, 12, 8124
8, 65001, Pitch_bend_c, 12, 8060
8, 65015, Pitch_bend_c, 12, 8124
8, 65021, Pitch_bend_c, 12, 8192
8, 65027, Pitch_bend_c, 12, 8222
8, 65035, Pitch_bend_c, 12, 8286
8, 65044, Pitch_bend_c, 12, 8222
8, 65052, Pitch_bend_c, 12, 8192
8, 65058, Pitch_bend_c, 12, 8124
8, 65066, Pitch_bend_c, 12, 8060
8, 65076, Pitch_bend_c, 12, 8124
8, 65084, Pitch_bend_c, 12, 8192
8, 65088, Note_off_c, 12, 69, 125
8, 65088, Note_on_c, 12, 71, 127
8, 65156, Pitch_bend_c, 12, 8222
8, 65164, Pitch_bend_c, 12, 8286
8, 65173, Pitch_bend_c, 12, 8222
8, 65181, Pitch_bend_c, 12, 8192
8, 65184, Note_off_c, 12, 71, 127
8, 65184, Note_on_c, 12, 69, 127
8, 65232, Note_off_c, 12, 69, 127
8, 65232, Note_on_c, 12, 71, 127
8, 65280, Note_off_c, 12, 71, 127
8, 65280, Note_on_c, 12, 66, 127
8, 65348, Pitch_bend_c, 12, 8222
8, 65352, Pitch_bend_c, 12, 8286
8, 65369, Pitch_bend_c, 12, 8222
8, 65373, Pitch_bend_c, 12, 8192
8, 65379, Pitch_bend_c, 12, 8124
8, 65383, Pitch_bend_c, 12, 8060
8, 65401, Pitch_bend_c, 12, 8124
8, 65405, Pitch_bend_c, 12, 8192
8, 65411, Pitch_bend_c, 12, 8222
8, 65436, Pitch_bend_c, 12, 8192
8, 65442, Pitch_bend_c, 12, 8124
8, 65468, Pitch_bend_c, 12, 8192
8, 65472, Note_off_c, 12, 66, 127
8, 65472, Note_on_c, 12, 66, 127
8, 65520, Note_off_c, 12, 66, 127
8, 65520, Note_on_c, 12, 64, 127
8, 65568, Note_off_c, 12, 64, 127
8, 65568, Note_on_c, 12, 66, 127
8, 65616, Note_off_c, 12, 66, 127
8, 65616, Note_on_c, 12, 69, 127
8, 65628, Pitch_bend_c, 12, 8124
8, 65638, Pitch_bend_c, 12, 8192
8, 65660, Pitch_bend_c, 12, 8222
8, 65670, Pitch_bend_c, 12, 8192
8, 65684, Pitch_bend_c, 12, 8222
8, 65690, Pitch_bend_c, 12, 8286
8, 65703, Pitch_bend_c, 12, 8222
8, 65709, Pitch_bend_c, 12, 8192
8, 65712, Note_off_c, 12, 69, 127
8, 65712, Note_on_c, 12, 66, 127
8, 65760, Note_off_c, 12, 66, 127
8, 65760, Note_on_c, 12, 64, 127
8, 65808, Note_off_c, 12, 64, 127
8, 65808, Note_on_c, 12, 66, 127
8, 65856, Note_off_c, 12, 66, 127
8, 65856, Note_on_c, 12, 64, 127
8, 65904, Note_off_c, 12, 64, 127
8, 65904, Note_on_c, 12, 69, 127
8, 65952, Note_off_c, 12, 69, 127
8, 65952, Note_on_c, 12, 64, 127
8, 66000, Note_off_c, 12, 64, 127
8, 66000, Note_on_c, 12, 66, 127
8, 66032, Pitch_bend_c, 12, 7159
8, 66034, Pitch_bend_c, 12, 8192
8, 66038, Pitch_bend_c, 12, 7487
8, 66040, Pitch_bend_c, 12, 8192
8, 66043, Pitch_bend_c, 12, 7879
8, 66044, Pitch_bend_c, 12, 8036
8, 66044, Pitch_bend_c, 12, 8192
8, 66048, Note_off_c, 12, 66, 127
8, 66048, Note_on_c, 12, 59, 127
8, 66116, Pitch_bend_c, 12, 8222
8, 66141, Pitch_bend_c, 12, 8192
8, 66147, Pitch_bend_c, 12, 8124
8, 66173, Pitch_bend_c, 12, 8192
8, 66179, Pitch_bend_c, 12, 8222
8, 66204, Pitch_bend_c, 12, 8192
8, 66210, Pitch_bend_c, 12, 8124
8, 66236, Pitch_bend_c, 12, 8192
8, 66240, Note_on_c, 12, 66, 127
8, 66256, Note_off_c, 12, 59, 127
8, 66288, Note_off_c, 12, 66, 127
8, 66288, Note_on_c, 12, 64, 127
8, 66336, Note_off_c, 12, 64, 127
8, 66336, Note_on_c, 12, 66, 127
8, 66348, Pitch_bend_c, 12, 8124
8, 66358, Pitch_bend_c, 12, 8192
8, 66380, Pitch_bend_c, 12, 8222
8, 66390, Pitch_bend_c, 12, 8192
8, 66404, Pitch_bend_c, 12, 8222
8, 66429, Pitch_bend_c, 12, 8192
8, 66432, Note_off_c, 12, 66, 127
8, 66432, Note_on_c, 12, 69, 127
8, 66500, Pitch_bend_c, 12, 8222
8, 66506, Pitch_bend_c, 12, 8286
8, 66519, Pitch_bend_c, 12, 8222
8, 66525, Pitch_bend_c, 12, 8192
8, 66528, Note_off_c, 12, 69, 127
8, 66528, Note_on_c, 12, 66, 127
8, 66596, Pitch_bend_c, 12, 8222
8, 66604, Pitch_bend_c, 12, 8286
8, 66613, Pitch_bend_c, 12, 8222
8, 66621, Pitch_bend_c, 12, 8192
8, 66624, Note_off_c, 12, 66, 127
8, 66624, Note_on_c, 12, 64, 127
8, 66692, Pitch_bend_c, 12, 8222
8, 66698, Pitch_bend_c, 12, 8286
8, 66711, Pitch_bend_c, 12, 8222
8, 66717, Pitch_bend_c, 12, 8192
8, 66720, Note_off_c, 12, 64, 127
8, 66720, Note_on_c, 12, 66, 127
8, 66788, Pitch_bend_c, 12, 8222
8, 66794, Pitch_bend_c, 12, 8286
8, 66807, Pitch_bend_c, 12, 8222
8, 66813, Pitch_bend_c, 12, 8192
8, 66816, Note_off_c, 12, 66, 127
8, 66816, Note_on_c, 12, 59, 127
8, 66884, Pitch_bend_c, 12, 8222
8, 66890, Pitch_bend_c, 12, 8286
8, 66903, Pitch_bend_c, 12, 8222
8, 66909, Pitch_bend_c, 12, 8192
8, 66915, Pitch_bend_c, 12, 8124
8, 66921, Pitch_bend_c, 12, 8060
8, 66935, Pitch_bend_c, 12, 8124
8, 66941, Pitch_bend_c, 12, 8192
8, 66947, Pitch_bend_c, 12, 8222
8, 66972, Pitch_bend_c, 12, 8192
8, 66978, Pitch_bend_c, 12, 8124
8, 67004, Pitch_bend_c, 12, 8192
8, 67010, Pitch_bend_c, 12, 8222
8, 67036, Pitch_bend_c, 12, 8192
8, 67042, Pitch_bend_c, 12, 8124
8, 67067, Pitch_bend_c, 12, 8192
8, 67073, Pitch_bend_c, 12, 8222
8, 67099, Pitch_bend_c, 12, 8192
8, 67104, Note_off_c, 12, 59, 127
8, 67104, Note_on_c, 12, 64, 127
8, 67172, Pitch_bend_c, 12, 8222
8, 67197, Pitch_bend_c, 12, 8192
8, 67203, Pitch_bend_c, 12, 8124
8, 67229, Pitch_bend_c, 12, 8192
8, 67235, Pitch_bend_c, 12, 8222
8, 67239, Pitch_bend_c, 12, 8286
8, 67256, Pitch_bend_c, 12, 8222
8, 67260, Pitch_bend_c, 12, 8192
8, 67266, Pitch_bend_c, 12, 8124
8, 67270, Pitch_bend_c, 12, 8060
8, 67288, Pitch_bend_c, 12, 8124
8, 67292, Pitch_bend_c, 12, 8192
8, 67296, Note_on_c, 12, 62, 127
8, 67297, Note_off_c, 12, 64, 127
8, 67364, Pitch_bend_c, 12, 8222
8, 67368, Pitch_bend_c, 12, 8286
8, 67385, Pitch_bend_c, 12, 8222
8, 67389, Pitch_bend_c, 12, 8192
8, 67392, Note_off_c, 12, 62, 127
8, 67392, Note_on_c, 12, 64, 127
8, 67460, Pitch_bend_c, 12, 8222
8, 67485, Pitch_bend_c, 12, 8192
8, 67488, Note_off_c, 12, 64, 127
8, 67556, Pitch_bend_c, 12, 8222
8, 67560, Pitch_bend_c, 12, 8286
8, 67565, Pitch_bend_c, 12, 8385
8, 67566, Pitch_bend_c, 12, 8334
8, 67566, Pitch_bend_c, 12, 8286
8, 67571, Pitch_bend_c, 12, 8584
8, 67572, Pitch_bend_c, 12, 8720
8, 67572, Pitch_bend_c, 12, 8860
8, 67573, Pitch_bend_c, 12, 8573
8, 67573, Pitch_bend_c, 12, 8286
8, 67577, Pitch_bend_c, 12, 8222
8, 67578, Pitch_bend_c, 12, 8704
8, 67578, Pitch_bend_c, 12, 9188
8, 67579, Pitch_bend_c, 12, 8704
8, 67579, Pitch_bend_c, 12, 8222
8, 67581, Pitch_bend_c, 12, 8192
8, 67584, Pitch_bend_c, 12, 9502
8, 67584, Note_on_c, 12, 62, 127
8, 67652, Pitch_bend_c, 12, 9566
8, 67656, Pitch_bend_c, 12, 9632
8, 67673, Pitch_bend_c, 12, 9566
8, 67677, Pitch_bend_c, 12, 9502
8, 67683, Pitch_bend_c, 12, 9450
8, 67687, Pitch_bend_c, 12, 9386
8, 67705, Pitch_bend_c, 12, 9450
8, 67709, Pitch_bend_c, 12, 9502
8, 67715, Pitch_bend_c, 12, 9566
8, 67723, Pitch_bend_c, 12, 9632
8, 67732, Pitch_bend_c, 12, 9566
8, 67740, Pitch_bend_c, 12, 9502
8, 67746, Pitch_bend_c, 12, 9450
8, 67754, Pitch_bend_c, 12, 9386
8, 67764, Pitch_bend_c, 12, 9450
8, 67772, Pitch_bend_c, 12, 9502
8, 67778, Pitch_bend_c, 12, 9566
8, 67782, Pitch_bend_c, 12, 9632
8, 67800, Pitch_bend_c, 12, 9566
8, 67804, Pitch_bend_c, 12, 9502
8, 67810, Pitch_bend_c, 12, 9450
8, 67814, Pitch_bend_c, 12, 9386
8, 67831, Pitch_bend_c, 12, 9450
8, 67835, Pitch_bend_c, 12, 9502
8, 67841, Pitch_bend_c, 12, 9566
8, 67847, Pitch_bend_c, 12, 9632
8, 67861, Pitch_bend_c, 12, 9566
8, 67867, Pitch_bend_c, 12, 9502
8, 67873, Pitch_bend_c, 12, 9450
8, 67879, Pitch_bend_c, 12, 9386
8, 67892, Pitch_bend_c, 12, 9450
8, 67898, Pitch_bend_c, 12, 9502
8, 67904, Pitch_bend_c, 12, 9566
8, 67910, Pitch_bend_c, 12, 9632
8, 67911, Pitch_bend_c, 12, 9730
8, 67911, Pitch_bend_c, 12, 9829
8, 67912, Pitch_bend_c, 12, 9730
8, 67912, Pitch_bend_c, 12, 9632
8, 67924, Pitch_bend_c, 12, 9566
8, 67930, Pitch_bend_c, 12, 9502
8, 67936, Pitch_bend_c, 12, 9450
8, 67942, Pitch_bend_c, 12, 9386
8, 67956, Pitch_bend_c, 12, 9450
8, 67962, Pitch_bend_c, 12, 9502
8, 67968, Pitch_bend_c, 12, 10533
8, 68036, Pitch_bend_c, 12, 10597
8, 68044, Pitch_bend_c, 12, 10662
8, 68053, Pitch_bend_c, 12, 10597
8, 68061, Pitch_bend_c, 12, 10533
8, 68067, Pitch_bend_c, 12, 10468
8, 68075, Pitch_bend_c, 12, 10402
8, 68085, Pitch_bend_c, 12, 10468
8, 68093, Pitch_bend_c, 12, 10533
8, 68099, Pitch_bend_c, 12, 10597
8, 68124, Pitch_bend_c, 12, 10533
8, 68130, Pitch_bend_c, 12, 10468
8, 68156, Pitch_bend_c, 12, 10533
8, 68162, Pitch_bend_c, 12, 10597
8, 68168, Pitch_bend_c, 12, 10662
8, 68182, Pitch_bend_c, 12, 10597
8, 68188, Pitch_bend_c, 12, 10533
8, 68194, Pitch_bend_c, 12, 10468
8, 68200, Pitch_bend_c, 12, 10402
8, 68213, Pitch_bend_c, 12, 10468
8, 68219, Pitch_bend_c, 12, 10533
8, 68225, Pitch_bend_c, 12, 10597
8, 68229, Pitch_bend_c, 12, 10662
8, 68247, Pitch_bend_c, 12, 10597
8, 68251, Pitch_bend_c, 12, 10533
8, 68257, Pitch_bend_c, 12, 10468
8, 68261, Pitch_bend_c, 12, 10402
8, 68278, Pitch_bend_c, 12, 10468
8, 68282, Pitch_bend_c, 12, 10533
8, 68288, Pitch_bend_c, 12, 10597
8, 68298, Pitch_bend_c, 12, 10662
8, 68304, Pitch_bend_c, 12, 7159
8, 68306, Pitch_bend_c, 12, 10597
8, 68314, Pitch_bend_c, 12, 10533
8, 68320, Pitch_bend_c, 12, 7487
8, 68322, Pitch_bend_c, 12, 10468
8, 68330, Pitch_bend_c, 12, 10402
8, 68336, Pitch_bend_c, 12, 7879
8, 68338, Pitch_bend_c, 12, 10468
8, 68346, Pitch_bend_c, 12, 10533
8, 68352, Pitch_bend_c, 12, 8192
8, 68352, Note_on_c, 12, 76, 127
8, 68364, Pitch_bend_c, 12, 8124
8, 68374, Pitch_bend_c, 12, 8192
8, 68396, Pitch_bend_c, 12, 8222
8, 68406, Pitch_bend_c, 12, 8192
8, 68420, Pitch_bend_c, 12, 8222
8, 68426, Pitch_bend_c, 12, 8286
8, 68439, Pitch_bend_c, 12, 8222
8, 68445, Pitch_bend_c, 12, 8192
8, 68451, Pitch_bend_c, 12, 8124
8, 68452, Note_off_c, 12, 62, 127
8, 68457, Pitch_bend_c, 12, 8060
8, 68471, Pitch_bend_c, 12, 8124
8, 68477, Pitch_bend_c, 12, 8192
8, 68483, Pitch_bend_c, 12, 8222
8, 68489, Pitch_bend_c, 12, 8286
8, 68502, Pitch_bend_c, 12, 8222
8, 68508, Pitch_bend_c, 12, 8192
8, 68514, Pitch_bend_c, 12, 8124
8, 68520, Pitch_bend_c, 12, 8060
8, 68534, Pitch_bend_c, 12, 8124
8, 68540, Pitch_bend_c, 12, 8192
8, 68546, Pitch_bend_c, 12, 8222
8, 68552, Pitch_bend_c, 12, 8286
8, 68566, Pitch_bend_c, 12, 8222
8, 68572, Pitch_bend_c, 12, 8192
8, 68578, Pitch_bend_c, 12, 8124
8, 68584, Pitch_bend_c, 12, 8060
8, 68597, Pitch_bend_c, 12, 8124
8, 68603, Pitch_bend_c, 12, 8192
8, 68611, Pitch_bend_c, 12, 8222
8, 68633, Pitch_bend_c, 12, 8192
8, 68640, Note_on_c, 12, 74, 127
8, 68689, Note_off_c, 12, 76, 127
8, 68708, Pitch_bend_c, 12, 8222
8, 68714, Pitch_bend_c, 12, 8286
8, 68727, Pitch_bend_c, 12, 8222
8, 68733, Pitch_bend_c, 12, 8192
8, 68736, Note_off_c, 12, 74, 127
8, 68736, Note_on_c, 12, 73, 127
8, 68804, Pitch_bend_c, 12, 8222
8, 68810, Pitch_bend_c, 12, 8286
8, 68823, Pitch_bend_c, 12, 8222
8, 68829, Pitch_bend_c, 12, 8192
8, 68832, Note_off_c, 12, 73, 127
8, 68832, Note_on_c, 12, 74, 127
8, 68900, Pitch_bend_c, 12, 8222
8, 68925, Pitch_bend_c, 12, 8192
8, 68928, Note_off_c, 12, 74, 127
8, 68928, Note_on_c, 12, 73, 127
8, 68996, Pitch_bend_c, 12, 8222
8, 69004, Pitch_bend_c, 12, 8286
8, 69013, Pitch_bend_c, 12, 8222
8, 69021, Pitch_bend_c, 12, 8192
8, 69024, Note_off_c, 12, 73, 127
8, 69024, Note_on_c, 12, 74, 127
8, 69092, Pitch_bend_c, 12, 8222
8, 69100, Pitch_bend_c, 12, 8286
8, 69106, Pitch_bend_c, 12, 7879
8, 69107, Pitch_bend_c, 12, 8084
8, 69107, Pitch_bend_c, 12, 8286
8, 69109, Pitch_bend_c, 12, 8222
8, 69113, Pitch_bend_c, 12, 7487
8, 69115, Pitch_bend_c, 12, 8222
8, 69117, Pitch_bend_c, 12, 8192
8, 69120, Pitch_bend_c, 12, 7159
8, 69188, Pitch_bend_c, 12, 7223
8, 69196, Pitch_bend_c, 12, 7306
8, 69205, Pitch_bend_c, 12, 7223
8, 69213, Pitch_bend_c, 12, 7159
8, 69219, Pitch_bend_c, 12, 7128
8, 69227, Pitch_bend_c, 12, 7060
8, 69237, Pitch_bend_c, 12, 7128
8, 69245, Pitch_bend_c, 12, 7159
8, 69251, Pitch_bend_c, 12, 7223
8, 69259, Pitch_bend_c, 12, 7306
8, 69268, Pitch_bend_c, 12, 7223
8, 69276, Pitch_bend_c, 12, 7159
8, 69282, Pitch_bend_c, 12, 7128
8, 69290, Pitch_bend_c, 12, 7060
8, 69300, Pitch_bend_c, 12, 7128
8, 69308, Pitch_bend_c, 12, 7159
8, 69314, Pitch_bend_c, 12, 7223
8, 69322, Pitch_bend_c, 12, 7306
8, 69332, Pitch_bend_c, 12, 7223
8, 69340, Pitch_bend_c, 12, 7159
8, 69346, Pitch_bend_c, 12, 7128
8, 69354, Pitch_bend_c, 12, 7060
8, 69363, Pitch_bend_c, 12, 7128
8, 69371, Pitch_bend_c, 12, 7159
8, 69377, Pitch_bend_c, 12, 7223
8, 69403, Pitch_bend_c, 12, 7159
8, 69408, Note_off_c, 12, 74, 127
8, 69408, Pitch_bend_c, 12, 8192
8, 69408, Note_on_c, 12, 74, 127
8, 69476, Pitch_bend_c, 12, 8222
8, 69484, Pitch_bend_c, 12, 8286
8, 69493, Pitch_bend_c, 12, 8222
8, 69501, Pitch_bend_c, 12, 8192
8, 69504, Note_off_c, 12, 74, 127
8, 69504, Note_on_c, 12, 73, 127
8, 69572, Pitch_bend_c, 12, 8222
8, 69578, Pitch_bend_c, 12, 8286
8, 69591, Pitch_bend_c, 12, 8222
8, 69597, Pitch_bend_c, 12, 8192
8, 69600, Note_off_c, 12, 73, 127
8, 69600, Note_on_c, 12, 74, 127
8, 69668, Pitch_bend_c, 12, 8222
8, 69693, Pitch_bend_c, 12, 8192
8, 69696, Note_off_c, 12, 74, 127
8, 69696, Note_on_c, 12, 73, 127
8, 69764, Pitch_bend_c, 12, 8222
8, 69768, Pitch_bend_c, 12, 8286
8, 69785, Pitch_bend_c, 12, 8222
8, 69789, Pitch_bend_c, 12, 8192
8, 69792, Note_off_c, 12, 73, 127
8, 69792, Note_on_c, 12, 74, 127
8, 69860, Pitch_bend_c, 12, 8222
8, 69864, Pitch_bend_c, 12, 7879
8, 69866, Pitch_bend_c, 12, 8222
8, 69870, Pitch_bend_c, 12, 7487
8, 69872, Pitch_bend_c, 12, 8222
8, 69876, Pitch_bend_c, 12, 7159
8, 69877, Pitch_bend_c, 12, 7691
8, 69877, Pitch_bend_c, 12, 8222
8, 69882, Pitch_bend_c, 12, 6848
8, 69883, Pitch_bend_c, 12, 7538
8, 69883, Pitch_bend_c, 12, 8222
8, 69885, Pitch_bend_c, 12, 8192
8, 69888, Pitch_bend_c, 12, 6486
8, 69956, Pitch_bend_c, 12, 6520
8, 69981, Pitch_bend_c, 12, 6486
8, 69987, Pitch_bend_c, 12, 6404
8, 70013, Pitch_bend_c, 12, 6486
8, 70019, Pitch_bend_c, 12, 6520
8, 70027, Pitch_bend_c, 12, 6586
8, 70036, Pitch_bend_c, 12, 6520
8, 70044, Pitch_bend_c, 12, 6486
8, 70050, Pitch_bend_c, 12, 6404
8, 70058, Pitch_bend_c, 12, 6339
8, 70068, Pitch_bend_c, 12, 6404
8, 70076, Pitch_bend_c, 12, 6486
8, 70082, Pitch_bend_c, 12, 6520
8, 70108, Pitch_bend_c, 12, 6486
8, 70114, Pitch_bend_c, 12, 6404
8, 70139, Pitch_bend_c, 12, 6486
8, 70145, Pitch_bend_c, 12, 6520
8, 70155, Pitch_bend_c, 12, 6586
8, 70161, Pitch_bend_c, 12, 6520
8, 70171, Pitch_bend_c, 12, 6486
8, 70177, Pitch_bend_c, 12, 6404
8, 70187, Pitch_bend_c, 12, 6339
8, 70192, Pitch_bend_c, 12, 6404
8, 70202, Pitch_bend_c, 12, 6486
8, 70208, Pitch_bend_c, 12, 6520
8, 70234, Pitch_bend_c, 12, 6486
8, 70240, Pitch_bend_c, 12, 6404
8, 70266, Pitch_bend_c, 12, 6486
8, 70272, Pitch_bend_c, 12, 6520
8, 70278, Pitch_bend_c, 12, 6586
8, 70291, Pitch_bend_c, 12, 6520
8, 70297, Pitch_bend_c, 12, 6486
8, 70303, Pitch_bend_c, 12, 6404
8, 70309, Pitch_bend_c, 12, 6339
8, 70323, Pitch_bend_c, 12, 6404
8, 70329, Pitch_bend_c, 12, 6486
8, 70335, Pitch_bend_c, 12, 6520
8, 70360, Pitch_bend_c, 12, 6486
8, 70366, Pitch_bend_c, 12, 6404
8, 70392, Pitch_bend_c, 12, 6486
8, 70398, Pitch_bend_c, 12, 6520
8, 70424, Pitch_bend_c, 12, 6486
8, 70430, Pitch_bend_c, 12, 6404
8, 70455, Pitch_bend_c, 12, 6486
8, 70464, Note_off_c, 12, 74, 127
8, 70464, Pitch_bend_c, 12, 8192
8, 70464, Note_on_c, 12, 67, 127
8, 70532, Pitch_bend_c, 12, 8222
8, 70538, Pitch_bend_c, 12, 8286
8, 70551, Pitch_bend_c, 12, 8222
8, 70557, Pitch_bend_c, 12, 8192
8, 70563, Pitch_bend_c, 12, 8124
8, 70569, Pitch_bend_c, 12, 8060
8, 70583, Pitch_bend_c, 12, 8124
8, 70589, Pitch_bend_c, 12, 8192
8, 70595, Pitch_bend_c, 12, 8222
8, 70601, Pitch_bend_c, 12, 8286
8, 70614, Pitch_bend_c, 12, 8222
8, 70620, Pitch_bend_c, 12, 8192
8, 70626, Pitch_bend_c, 12, 8124
8, 70632, Pitch_bend_c, 12, 8060
8, 70646, Pitch_bend_c, 12, 8124
8, 70652, Pitch_bend_c, 12, 8192
8, 70656, Note_off_c, 12, 67, 127
8, 70656, Note_on_c, 12, 66, 127
8, 70728, Pitch_bend_c, 12, 8222
8, 70745, Pitch_bend_c, 12, 8192
8, 70759, Pitch_bend_c, 12, 8124
8, 70777, Pitch_bend_c, 12, 8192
8, 70787, Pitch_bend_c, 12, 8222
8, 70812, Pitch_bend_c, 12, 8192
8, 70818, Pitch_bend_c, 12, 8124
8, 70844, Pitch_bend_c, 12, 8192
8, 70850, Pitch_bend_c, 12, 8222
8, 70876, Pitch_bend_c, 12, 8192
8, 70882, Pitch_bend_c, 12, 8124
8, 70907, Pitch_bend_c, 12, 8192
8, 70913, Pitch_bend_c, 12, 8222
8, 70939, Pitch_bend_c, 12, 8192
8, 70945, Pitch_bend_c, 12, 8124
8, 70970, Pitch_bend_c, 12, 8192
8, 70976, Pitch_bend_c, 12, 8222
8, 70980, Pitch_bend_c, 12, 8286
8, 70998, Pitch_bend_c, 12, 8222
8, 71002, Pitch_bend_c, 12, 8192
8, 71008, Pitch_bend_c, 12, 8124
8, 71012, Pitch_bend_c, 12, 8060
8, 71030, Pitch_bend_c, 12, 8124
8, 71034, Pitch_bend_c, 12, 8192
8, 71040, Pitch_bend_c, 12, 8222
8, 71044, Pitch_bend_c, 12, 8286
8, 71061, Pitch_bend_c, 12, 8222
8, 71065, Pitch_bend_c, 12, 8192
8, 71071, Pitch_bend_c, 12, 8124
8, 71075, Pitch_bend_c, 12, 8060
8, 71093, Pitch_bend_c, 12, 8124
8, 71097, Pitch_bend_c, 12, 8192
8, 71103, Pitch_bend_c, 12, 8222
8, 71111, Pitch_bend_c, 12, 8286
8, 71120, Pitch_bend_c, 12, 8222
8, 71128, Pitch_bend_c, 12, 8192
8, 71134, Pitch_bend_c, 12, 8124
8, 71142, Pitch_bend_c, 12, 8060
8, 71152, Pitch_bend_c, 12, 8124
8, 71160, Pitch_bend_c, 12, 8192
8, 71166, Pitch_bend_c, 12, 8222
8, 71172, Pitch_bend_c, 12, 8286
8, 71186, Pitch_bend_c, 12, 8222
8, 71192, Pitch_bend_c, 12, 8192
8, 71198, Pitch_bend_c, 12, 8124
8, 71204, Pitch_bend_c, 12, 8060
8, 71217, Pitch_bend_c, 12, 8124
8, 71223, Pitch_bend_c, 12, 8192
8, 71229, Pitch_bend_c, 12, 8222
8, 71235, Pitch_bend_c, 12, 8286
8, 71249, Pitch_bend_c, 12, 8222
8, 71255, Pitch_bend_c, 12, 8192
8, 71261, Pitch_bend_c, 12, 8124
8, 71267, Pitch_bend_c, 12, 8060
8, 71280, Pitch_bend_c, 12, 8124
8, 71286, Pitch_bend_c, 12, 8192
8, 71292, Pitch_bend_c, 12, 8222
8, 71298, Pitch_bend_c, 12, 8286
8, 71312, Pitch_bend_c, 12, 8222
8, 71318, Pitch_bend_c, 12, 8192
8, 71324, Pitch_bend_c, 12, 8124
8, 71330, Pitch_bend_c, 12, 8060
8, 71344, Pitch_bend_c, 12, 8124
8, 71350, Pitch_bend_c, 12, 8192
8, 71356, Pitch_bend_c, 12, 8222
8, 71381, Pitch_bend_c, 12, 8192
8, 71387, Pitch_bend_c, 12, 8124
8, 71413, Pitch_bend_c, 12, 8192
8, 71424, Note_off_c, 12, 66, 127
8, 71424, Note_on_c, 12, 64, 127
8, 71437, Pitch_bend_c, 12, 8222
8, 71456, Pitch_bend_c, 12, 8354
8, 71463, Pitch_bend_c, 12, 8420
8, 71469, Pitch_bend_c, 12, 8485
8, 71476, Pitch_bend_c, 12, 8614
8, 71482, Pitch_bend_c, 12, 8748
8, 71495, Pitch_bend_c, 12, 8860
8, 71501, Pitch_bend_c, 12, 8928
8, 71513, Pitch_bend_c, 12, 8860
8, 71520, Pitch_bend_c, 12, 8812
8, 71529, Pitch_bend_c, 12, 8748
8, 71540, Pitch_bend_c, 12, 8812
8, 71550, Pitch_bend_c, 12, 8860
8, 71558, Pitch_bend_c, 12, 8928
8, 71573, Pitch_bend_c, 12, 8860
8, 71584, Pitch_bend_c, 12, 8812
8, 71591, Pitch_bend_c, 12, 8748
8, 71604, Pitch_bend_c, 12, 8812
8, 71605, Pitch_bend_c, 12, 8778
8, 71605, Pitch_bend_c, 12, 8748
8, 71606, Pitch_bend_c, 12, 8778
8, 71606, Pitch_bend_c, 12, 8812
8, 71614, Pitch_bend_c, 12, 8860
8, 71622, Pitch_bend_c, 12, 8928
8, 71637, Pitch_bend_c, 12, 8860
8, 71648, Pitch_bend_c, 12, 8812
8, 71659, Pitch_bend_c, 12, 8748
8, 71665, Pitch_bend_c, 12, 8812
8, 71676, Pitch_bend_c, 12, 8860
8, 71682, Pitch_bend_c, 12, 8928
8, 71701, Pitch_bend_c, 12, 8860
8, 71712, Note_off_c, 12, 64, 127
8, 71712, Pitch_bend_c, 12, 8192
8, 71712, Note_on_c, 12, 62, 127
8, 71780, Pitch_bend_c, 12, 8222
8, 71790, Pitch_bend_c, 12, 8286
8, 71795, Pitch_bend_c, 12, 8222
8, 71805, Pitch_bend_c, 12, 8192
8, 71811, Pitch_bend_c, 12, 8124
8, 71821, Pitch_bend_c, 12, 8060
8, 71827, Pitch_bend_c, 12, 8124
8, 71837, Pitch_bend_c, 12, 8192
8, 71843, Pitch_bend_c, 12, 8222
8, 71851, Pitch_bend_c, 12, 8286
8, 71860, Pitch_bend_c, 12, 8222
8, 71868, Pitch_bend_c, 12, 8192
8, 71874, Pitch_bend_c, 12, 8124
8, 71882, Pitch_bend_c, 12, 8060
8, 71892, Pitch_bend_c, 12, 8124
8, 71900, Pitch_bend_c, 12, 8192
8, 71906, Pitch_bend_c, 12, 8222
8, 71912, Pitch_bend_c, 12, 8286
8, 71926, Pitch_bend_c, 12, 8222
8, 71932, Pitch_bend_c, 12, 8192
8, 71938, Pitch_bend_c, 12, 8124
8, 71944, Pitch_bend_c, 12, 8060
8, 71957, Pitch_bend_c, 12, 8124
8, 71963, Pitch_bend_c, 12, 8192
8, 71969, Pitch_bend_c, 12, 8222
8, 71979, Pitch_bend_c, 12, 8286
8, 71985, Pitch_bend_c, 12, 8222
8, 71995, Pitch_bend_c, 12, 8192
8, 72000, Note_off_c, 12, 62, 127
8, 72000, Note_on_c, 12, 59, 127
8, 72068, Pitch_bend_c, 12, 8222
8, 72076, Pitch_bend_c, 12, 8286
8, 72085, Pitch_bend_c, 12, 8222
8, 72093, Pitch_bend_c, 12, 8192
8, 72099, Pitch_bend_c, 12, 8124
8, 72107, Pitch_bend_c, 12, 8060
8, 72117, Pitch_bend_c, 12, 8124
8, 72125, Pitch_bend_c, 12, 8192
8, 72131, Pitch_bend_c, 12, 8222
8, 72139, Pitch_bend_c, 12, 8286
8, 72148, Pitch_bend_c, 12, 8222
8, 72156, Pitch_bend_c, 12, 8192
8, 72162, Pitch_bend_c, 12, 8124
8, 72170, Pitch_bend_c, 12, 8060
8, 72180, Pitch_bend_c, 12, 8124
8, 72188, Pitch_bend_c, 12, 8192
8, 72192, Note_off_c, 12, 59, 127
8, 72192, Note_on_c, 12, 64, 127
8, 72205, Pitch_bend_c, 12, 8222
8, 72224, Pitch_bend_c, 12, 8354
8, 72231, Pitch_bend_c, 12, 8420
8, 72237, Pitch_bend_c, 12, 8485
8, 72244, Pitch_bend_c, 12, 8614
8, 72250, Pitch_bend_c, 12, 8748
8, 72263, Pitch_bend_c, 12, 8860
8, 72269, Pitch_bend_c, 12, 8928
8, 72282, Pitch_bend_c, 12, 8860
8, 72288, Pitch_bend_c, 12, 8812
8, 72318, Pitch_bend_c, 12, 8860
8, 72326, Pitch_bend_c, 12, 8928
8, 72343, Pitch_bend_c, 12, 8860
8, 72352, Pitch_bend_c, 12, 8812
8, 72382, Pitch_bend_c, 12, 8860
8, 72388, Pitch_bend_c, 12, 8928
8, 72403, Pitch_bend_c, 12, 8860
8, 72416, Pitch_bend_c, 12, 8812
8, 72423, Pitch_bend_c, 12, 8748
8, 72424, Pitch_bend_c, 12, 8778
8, 72424, Pitch_bend_c, 12, 8812
8, 72425, Pitch_bend_c, 12, 8778
8, 72425, Pitch_bend_c, 12, 8748
8, 72436, Pitch_bend_c, 12, 8812
8, 72444, Pitch_bend_c, 12, 8860
8, 72450, Pitch_bend_c, 12, 8928
8, 72467, Pitch_bend_c, 12, 8860
8, 72480, Note_off_c, 12, 64, 127
8, 72480, Pitch_bend_c, 12, 8192
8, 72480, Note_on_c, 12, 62, 127
8, 72492, Pitch_bend_c, 12, 8124
8, 72502, Pitch_bend_c, 12, 8192
8, 72524, Pitch_bend_c, 12, 8222
8, 72534, Pitch_bend_c, 12, 8192
8, 72548, Pitch_bend_c, 12, 8222
8, 72552, Pitch_bend_c, 12, 8286
8, 72569, Pitch_bend_c, 12, 8222
8, 72573, Pitch_bend_c, 12, 8192
8, 72579, Pitch_bend_c, 12, 8124
8, 72583, Pitch_bend_c, 12, 8060
8, 72601, Pitch_bend_c, 12, 8124
8, 72605, Pitch_bend_c, 12, 8192
8, 72611, Pitch_bend_c, 12, 8222
8, 72636, Pitch_bend_c, 12, 8192
8, 72642, Pitch_bend_c, 12, 8124
8, 72668, Pitch_bend_c, 12, 8192
8, 72674, Pitch_bend_c, 12, 8222
8, 72678, Pitch_bend_c, 12, 8286
8, 72696, Pitch_bend_c, 12, 8222
8, 72700, Pitch_bend_c, 12, 8192
8, 72706, Pitch_bend_c, 12, 8124
8, 72710, Pitch_bend_c, 12, 8060
8, 72727, Pitch_bend_c, 12, 8124
8, 72731, Pitch_bend_c, 12, 8192
8, 72737, Pitch_bend_c, 12, 8222
8, 72745, Pitch_bend_c, 12, 8286
8, 72755, Pitch_bend_c, 12, 8222
8, 72763, Pitch_bend_c, 12, 8192
8, 72768, Note_off_c, 12, 62, 127
8, 72768, Note_on_c, 12, 59, 127
8, 72836, Pitch_bend_c, 12, 8222
8, 72842, Pitch_bend_c, 12, 8286
8, 72855, Pitch_bend_c, 12, 8222
8, 72861, Pitch_bend_c, 12, 8192
8, 72867, Pitch_bend_c, 12, 8124
8, 72873, Pitch_bend_c, 12, 8060
8, 72887, Pitch_bend_c, 12, 8124
8, 72893, Pitch_bend_c, 12, 8192
8, 72899, Pitch_bend_c, 12, 8222
8, 72905, Pitch_bend_c, 12, 8286
8, 72918, Pitch_bend_c, 12, 8222
8, 72924, Pitch_bend_c, 12, 8192
8, 72930, Pitch_bend_c, 12, 8124
8, 72936, Pitch_bend_c, 12, 8060
8, 72950, Pitch_bend_c, 12, 8124
8, 72956, Pitch_bend_c, 12, 8192
8, 72960, Note_off_c, 12, 59, 127
8, 72960, Note_on_c, 12, 64, 127
8, 72973, Pitch_bend_c, 12, 8222
8, 72992, Pitch_bend_c, 12, 8354
8, 72999, Pitch_bend_c, 12, 8420
8, 73005, Pitch_bend_c, 12, 8485
8, 73012, Pitch_bend_c, 12, 8614
8, 73018, Pitch_bend_c, 12, 8748
8, 73031, Pitch_bend_c, 12, 8860
8, 73037, Pitch_bend_c, 12, 8928
8, 73050, Pitch_bend_c, 12, 8860
8, 73056, Pitch_bend_c, 12, 8812
8, 73063, Pitch_bend_c, 12, 8748
8, 73064, Pitch_bend_c, 12, 8778
8, 73064, Pitch_bend_c, 12, 8812
8, 73065, Pitch_bend_c, 12, 8778
8, 73065, Pitch_bend_c, 12, 8748
8, 73078, Pitch_bend_c, 12, 8812
8, 73086, Pitch_bend_c, 12, 8860
8, 73094, Pitch_bend_c, 12, 8928
8, 73109, Pitch_bend_c, 12, 8860
8, 73120, Pitch_bend_c, 12, 8812
8, 73131, Pitch_bend_c, 12, 8748
8, 73137, Pitch_bend_c, 12, 8812
8, 73150, Pitch_bend_c, 12, 8860
8, 73156, Pitch_bend_c, 12, 8928
8, 73175, Pitch_bend_c, 12, 8860
8, 73182, Pitch_bend_c, 12, 8812
8, 73192, Pitch_bend_c, 12, 8748
8, 73193, Pitch_bend_c, 12, 8778
8, 73193, Pitch_bend_c, 12, 8812
8, 73212, Pitch_bend_c, 12, 8860
8, 73224, Pitch_bend_c, 12, 8928
8, 73239, Pitch_bend_c, 12, 8860
8, 73248, Note_off_c, 12, 64, 127
8, 73248, Pitch_bend_c, 12, 8192
8, 73248, Note_on_c, 12, 61, 127
8, 73316, Pitch_bend_c, 12, 8222
8, 73324, Pitch_bend_c, 12, 8286
8, 73333, Pitch_bend_c, 12, 8222
8, 73341, Pitch_bend_c, 12, 8192
8, 73347, Pitch_bend_c, 12, 8124
8, 73355, Pitch_bend_c, 12, 8060
8, 73365, Pitch_bend_c, 12, 8124
8, 73373, Pitch_bend_c, 12, 8192
8, 73379, Pitch_bend_c, 12, 8222
8, 73404, Pitch_bend_c, 12, 8192
8, 73410, Pitch_bend_c, 12, 8124
8, 73436, Pitch_bend_c, 12, 8192
8, 73442, Pitch_bend_c, 12, 8222
8, 73446, Pitch_bend_c, 12, 8286
8, 73464, Pitch_bend_c, 12, 8222
8, 73468, Pitch_bend_c, 12, 8192
8, 73474, Pitch_bend_c, 12, 8124
8, 73478, Pitch_bend_c, 12, 8060
8, 73495, Pitch_bend_c, 12, 8124
8, 73499, Pitch_bend_c, 12, 8192
8, 73505, Pitch_bend_c, 12, 8222
8, 73531, Pitch_bend_c, 12, 8192
8, 73536, Note_off_c, 12, 61, 127
8, 73536, Note_on_c, 12, 62, 127
8, 73604, Pitch_bend_c, 12, 8222
8, 73610, Pitch_bend_c, 12, 8286
8, 73623, Pitch_bend_c, 12, 8222
8, 73629, Pitch_bend_c, 12, 8192
8, 73635, Pitch_bend_c, 12, 8124
8, 73641, Pitch_bend_c, 12, 8060
8, 73655, Pitch_bend_c, 12, 8124
8, 73661, Pitch_bend_c, 12, 8192
8, 73667, Pitch_bend_c, 12, 8222
8, 73671, Pitch_bend_c, 12, 8286
8, 73688, Pitch_bend_c, 12, 8222
8, 73692, Pitch_bend_c, 12, 8192
8, 73698, Pitch_bend_c, 12, 8124
8, 73702, Pitch_bend_c, 12, 8060
8, 73720, Pitch_bend_c, 12, 8124
8, 73724, Pitch_bend_c, 12, 8192
8, 73728, Note_off_c, 12, 62, 127
8, 73728, Note_on_c, 12, 69, 127
8, 73741, Pitch_bend_c, 12, 8222
8, 73748, Pitch_bend_c, 12, 8286
8, 73754, Pitch_bend_c, 12, 8420
8, 73760, Pitch_bend_c, 12, 8549
8, 73767, Pitch_bend_c, 12, 8748
8, 73773, Pitch_bend_c, 12, 8812
8, 73792, Pitch_bend_c, 12, 8860
8, 73796, Pitch_bend_c, 12, 8928
8, 73817, Pitch_bend_c, 12, 8860
8, 73824, Pitch_bend_c, 12, 8812
8, 73837, Pitch_bend_c, 12, 8748
8, 73843, Pitch_bend_c, 12, 8812
8, 73854, Pitch_bend_c, 12, 8860
8, 73860, Pitch_bend_c, 12, 8928
8, 73879, Pitch_bend_c, 12, 8860
8, 73888, Pitch_bend_c, 12, 8812
8, 73908, Pitch_bend_c, 12, 8748
8, 73909, Pitch_bend_c, 12, 8778
8, 73909, Pitch_bend_c, 12, 8812
8, 73918, Pitch_bend_c, 12, 8860
8, 73920, Note_off_c, 12, 69, 127
8, 73920, Pitch_bend_c, 12, 8192
8, 73920, Note_on_c, 12, 69, 127
8, 73968, Note_off_c, 12, 69, 127
8, 73968, Note_on_c, 12, 66, 127
8, 74016, Note_off_c, 12, 66, 127
8, 74016, Note_on_c, 12, 64, 127
8, 74064, Note_off_c, 12, 64, 127
8, 74064, Note_on_c, 12, 66, 127
8, 74112, Note_off_c, 12, 66, 127
8, 74112, Note_on_c, 12, 64, 127
8, 74160, Note_off_c, 12, 64, 127
8, 74160, Note_on_c, 12, 62, 127
8, 74208, Note_off_c, 12, 62, 127
8, 74208, Note_on_c, 12, 59, 127
8, 74256, Note_off_c, 12, 59, 127
8, 74256, Note_on_c, 12, 62, 127
8, 74304, Note_off_c, 12, 62, 127
8, 74304, Note_on_c, 12, 59, 127
8, 74316, Pitch_bend_c, 12, 8124
8, 74326, Pitch_bend_c, 12, 8192
8, 74348, Pitch_bend_c, 12, 8222
8, 74352, Note_off_c, 12, 59, 127
8, 74352, Pitch_bend_c, 12, 8192
8, 74352, Note_on_c, 12, 57, 127
8, 74400, Note_off_c, 12, 57, 127
8, 74400, Note_on_c, 12, 54, 127
8, 74448, Note_off_c, 12, 54, 127
8, 74448, Note_on_c, 12, 59, 127
8, 74496, Note_off_c, 12, 59, 127
8, 74496, Note_on_c, 12, 67, 127
8, 74509, Pitch_bend_c, 12, 8222
8, 74516, Pitch_bend_c, 12, 8286
8, 74522, Pitch_bend_c, 12, 8420
8, 74528, Pitch_bend_c, 12, 8549
8, 74535, Pitch_bend_c, 12, 8748
8, 74541, Pitch_bend_c, 12, 8812
8, 74548, Pitch_bend_c, 12, 8748
8, 74550, Pitch_bend_c, 12, 8812
8, 74560, Pitch_bend_c, 12, 8860
8, 74564, Pitch_bend_c, 12, 8928
8, 74581, Pitch_bend_c, 12, 8860
8, 74592, Pitch_bend_c, 12, 8812
8, 74622, Pitch_bend_c, 12, 8860
8, 74630, Pitch_bend_c, 12, 8928
8, 74649, Pitch_bend_c, 12, 8860
8, 74656, Pitch_bend_c, 12, 8812
8, 74665, Pitch_bend_c, 12, 8748
8, 74675, Pitch_bend_c, 12, 8812
8, 74676, Pitch_bend_c, 12, 8778
8, 74676, Pitch_bend_c, 12, 8748
8, 74677, Pitch_bend_c, 12, 8778
8, 74677, Pitch_bend_c, 12, 8812
8, 74686, Pitch_bend_c, 12, 8860
8, 74688, Note_off_c, 12, 67, 127
8, 74688, Pitch_bend_c, 12, 8192
8, 74688, Note_on_c, 12, 71, 127
8, 74756, Pitch_bend_c, 12, 8222
8, 74760, Pitch_bend_c, 12, 8286
8, 74777, Pitch_bend_c, 12, 8222
8, 74781, Pitch_bend_c, 12, 8192
8, 74787, Pitch_bend_c, 12, 8124
8, 74791, Pitch_bend_c, 12, 8060
8, 74809, Pitch_bend_c, 12, 8124
8, 74813, Pitch_bend_c, 12, 8192
8, 74819, Pitch_bend_c, 12, 8222
8, 74825, Pitch_bend_c, 12, 8286
8, 74838, Pitch_bend_c, 12, 8222
8, 74844, Pitch_bend_c, 12, 8192
8, 74850, Pitch_bend_c, 12, 8124
8, 74856, Pitch_bend_c, 12, 8060
8, 74870, Pitch_bend_c, 12, 8124
8, 74876, Pitch_bend_c, 12, 8192
8, 74880, Note_off_c, 12, 71, 127
8, 74880, Note_on_c, 12, 73, 127
8, 74948, Pitch_bend_c, 12, 8222
8, 74954, Pitch_bend_c, 12, 8286
8, 74967, Pitch_bend_c, 12, 8222
8, 74973, Pitch_bend_c, 12, 8192
8, 74979, Pitch_bend_c, 12, 8124
8, 74985, Pitch_bend_c, 12, 8060
8, 74999, Pitch_bend_c, 12, 8124
8, 75005, Pitch_bend_c, 12, 8192
8, 75011, Pitch_bend_c, 12, 8222
8, 75036, Pitch_bend_c, 12, 8192
8, 75042, Pitch_bend_c, 12, 8124
8, 75068, Pitch_bend_c, 12, 8192
8, 75072, Note_off_c, 12, 73, 127
8, 75072, Note_on_c, 12, 74, 127
8, 75084, Pitch_bend_c, 12, 8124
8, 75094, Pitch_bend_c, 12, 8192
8, 75116, Pitch_bend_c, 12, 8222
8, 75126, Pitch_bend_c, 12, 8192
8, 75140, Pitch_bend_c, 12, 8222
8, 75165, Pitch_bend_c, 12, 8192
8, 75171, Pitch_bend_c, 12, 8124
8, 75197, Pitch_bend_c, 12, 8192
8, 75203, Pitch_bend_c, 12, 8222
8, 75207, Pitch_bend_c, 12, 8286
8, 75216, Pitch_bend_c, 12, 8485
8, 75218, Pitch_bend_c, 12, 8286
8, 75224, Pitch_bend_c, 12, 8222
8, 75228, Pitch_bend_c, 12, 8860
8, 75230, Pitch_bend_c, 12, 8192
8, 75234, Pitch_bend_c, 12, 8124
8, 75238, Pitch_bend_c, 12, 8060
8, 75240, Pitch_bend_c, 12, 9188
8, 75242, Pitch_bend_c, 12, 8060
8, 75252, Pitch_bend_c, 12, 9502
8, 75254, Pitch_bend_c, 12, 8060
8, 75256, Pitch_bend_c, 12, 8124
8, 75260, Pitch_bend_c, 12, 8192
8, 75264, Pitch_bend_c, 12, 9894
8, 75332, Pitch_bend_c, 12, 9960
8, 75338, Pitch_bend_c, 12, 10024
8, 75351, Pitch_bend_c, 12, 9960
8, 75357, Pitch_bend_c, 12, 9894
8, 75363, Pitch_bend_c, 12, 9829
8, 75369, Pitch_bend_c, 12, 9761
8, 75383, Pitch_bend_c, 12, 9829
8, 75389, Pitch_bend_c, 12, 9894
8, 75395, Pitch_bend_c, 12, 9960
8, 75399, Pitch_bend_c, 12, 10024
8, 75416, Pitch_bend_c, 12, 9960
8, 75420, Pitch_bend_c, 12, 9894
8, 75426, Pitch_bend_c, 12, 9829
8, 75430, Pitch_bend_c, 12, 9761
8, 75448, Pitch_bend_c, 12, 9829
8, 75452, Pitch_bend_c, 12, 9894
8, 75458, Pitch_bend_c, 12, 9960
8, 75484, Pitch_bend_c, 12, 9894
8, 75490, Pitch_bend_c, 12, 9829
8, 75515, Pitch_bend_c, 12, 9894
8, 75521, Pitch_bend_c, 12, 9960
8, 75547, Pitch_bend_c, 12, 9894
8, 75552, Note_off_c, 12, 74, 127
8, 75552, Pitch_bend_c, 12, 8192
8, 75552, Note_on_c, 12, 78, 127
8, 75620, Pitch_bend_c, 12, 8222
8, 75626, Pitch_bend_c, 12, 8286
8, 75639, Pitch_bend_c, 12, 8222
8, 75645, Pitch_bend_c, 12, 8192
8, 75651, Pitch_bend_c, 12, 8124
8, 75657, Pitch_bend_c, 12, 8060
8, 75671, Pitch_bend_c, 12, 8124
8, 75677, Pitch_bend_c, 12, 8192
8, 75683, Pitch_bend_c, 12, 8222
8, 75689, Pitch_bend_c, 12, 8286
8, 75702, Pitch_bend_c, 12, 8222
8, 75708, Pitch_bend_c, 12, 8192
8, 75714, Pitch_bend_c, 12, 8124
8, 75720, Pitch_bend_c, 12, 8060
8, 75734, Pitch_bend_c, 12, 8124
8, 75740, Pitch_bend_c, 12, 8192
8, 75746, Pitch_bend_c, 12, 8222
8, 75750, Pitch_bend_c, 12, 8286
8, 75768, Pitch_bend_c, 12, 8222
8, 75772, Pitch_bend_c, 12, 8192
8, 75778, Pitch_bend_c, 12, 8124
8, 75782, Pitch_bend_c, 12, 8060
8, 75799, Pitch_bend_c, 12, 8124
8, 75803, Pitch_bend_c, 12, 8192
8, 75809, Pitch_bend_c, 12, 8222
8, 75815, Pitch_bend_c, 12, 8286
8, 75829, Pitch_bend_c, 12, 8222
8, 75835, Pitch_bend_c, 12, 8192
8, 75840, Note_off_c, 12, 78, 127
8, 75840, Note_on_c, 12, 76, 127
8, 75908, Pitch_bend_c, 12, 8222
8, 75916, Pitch_bend_c, 12, 8286
8, 75925, Pitch_bend_c, 12, 8222
8, 75933, Pitch_bend_c, 12, 8192
8, 75939, Pitch_bend_c, 12, 8124
8, 75947, Pitch_bend_c, 12, 8060
8, 75957, Pitch_bend_c, 12, 8124
8, 75965, Pitch_bend_c, 12, 8192
8, 75971, Pitch_bend_c, 12, 8222
8, 75975, Pitch_bend_c, 12, 8286
8, 75992, Pitch_bend_c, 12, 8222
8, 75996, Pitch_bend_c, 12, 8192
8, 76002, Pitch_bend_c, 12, 8124
8, 76006, Pitch_bend_c, 12, 8060
8, 76024, Pitch_bend_c, 12, 8124
8, 76028, Pitch_bend_c, 12, 8192
8, 76032, Note_off_c, 12, 76, 127
8, 76032, Note_on_c, 12, 74, 127
8, 76100, Pitch_bend_c, 12, 8222
8, 76108, Pitch_bend_c, 12, 8286
8, 76117, Pitch_bend_c, 12, 8222
8, 76125, Pitch_bend_c, 12, 8192
8, 76131, Pitch_bend_c, 12, 8124
8, 76139, Pitch_bend_c, 12, 8060
8, 76149, Pitch_bend_c, 12, 8124
8, 76157, Pitch_bend_c, 12, 8192
8, 76163, Pitch_bend_c, 12, 8222
8, 76171, Pitch_bend_c, 12, 8286
8, 76180, Pitch_bend_c, 12, 8222
8, 76188, Pitch_bend_c, 12, 8192
8, 76194, Pitch_bend_c, 12, 8124
8, 76202, Pitch_bend_c, 12, 8060
8, 76212, Pitch_bend_c, 12, 8124
8, 76220, Pitch_bend_c, 12, 8192
8, 76226, Pitch_bend_c, 12, 8222
8, 76230, Pitch_bend_c, 12, 8286
8, 76248, Pitch_bend_c, 12, 8222
8, 76252, Pitch_bend_c, 12, 8192
8, 76258, Pitch_bend_c, 12, 8124
8, 76262, Pitch_bend_c, 12, 8060
8, 76279, Pitch_bend_c, 12, 8124
8, 76283, Pitch_bend_c, 12, 8192
8, 76291, Pitch_bend_c, 12, 8222
8, 76313, Pitch_bend_c, 12, 8192
8, 76320, Note_off_c, 12, 74, 127
8, 76320, Note_on_c, 12, 69, 127
8, 76340, Pitch_bend_c, 12, 8222
8, 76365, Pitch_bend_c, 12, 8286
8, 76372, Pitch_bend_c, 12, 8354
8, 76384, Pitch_bend_c, 12, 8420
8, 76391, Pitch_bend_c, 12, 8485
8, 76397, Pitch_bend_c, 12, 8549
8, 76404, Pitch_bend_c, 12, 8614
8, 76416, Pitch_bend_c, 12, 8748
8, 76429, Pitch_bend_c, 12, 8812
8, 76446, Pitch_bend_c, 12, 8860
8, 76454, Pitch_bend_c, 12, 8928
8, 76468, Pitch_bend_c, 12, 8860
8, 76469, Pitch_bend_c, 12, 8894
8, 76469, Pitch_bend_c, 12, 8928
8, 76470, Pitch_bend_c, 12, 8894
8, 76470, Pitch_bend_c, 12, 8860
8, 76480, Pitch_bend_c, 12, 8812
8, 76493, Pitch_bend_c, 12, 8748
8, 76494, Pitch_bend_c, 12, 8778
8, 76494, Pitch_bend_c, 12, 8812
8, 76495, Pitch_bend_c, 12, 8778
8, 76495, Pitch_bend_c, 12, 8748
8, 76503, Pitch_bend_c, 12, 8812
8, 76510, Pitch_bend_c, 12, 8860
8, 76516, Pitch_bend_c, 12, 8928
8, 76533, Pitch_bend_c, 12, 8860
8, 76534, Pitch_bend_c, 12, 8894
8, 76534, Pitch_bend_c, 12, 8928
8, 76536, Pitch_bend_c, 12, 8860
8, 76542, Pitch_bend_c, 12, 8812
8, 76552, Pitch_bend_c, 12, 8748
8, 76557, Pitch_bend_c, 12, 8812
8, 76558, Pitch_bend_c, 12, 8778
8, 76558, Pitch_bend_c, 12, 8748
8, 76559, Pitch_bend_c, 12, 8778
8, 76559, Pitch_bend_c, 12, 8812
8, 76571, Pitch_bend_c, 12, 8860
8, 76580, Pitch_bend_c, 12, 8928
8, 76597, Pitch_bend_c, 12, 8860
8, 76598, Pitch_bend_c, 12, 8894
8, 76598, Pitch_bend_c, 12, 8928
8, 76600, Pitch_bend_c, 12, 8860
8, 76608, Pitch_bend_c, 12, 8812
8, 76616, Pitch_bend_c, 12, 8748
8, 76627, Pitch_bend_c, 12, 8812
8, 76634, Pitch_bend_c, 12, 8860
8, 76642, Pitch_bend_c, 12, 8928
8, 76660, Pitch_bend_c, 12, 8860
8, 76661, Pitch_bend_c, 12, 8894
8, 76661, Pitch_bend_c, 12, 8928
8, 76662, Pitch_bend_c, 12, 8894
8, 76662, Pitch_bend_c, 12, 8860
8, 76670, Pitch_bend_c, 12, 8812
8, 76685, Pitch_bend_c, 12, 8748
8, 76686, Pitch_bend_c, 12, 8778
8, 76686, Pitch_bend_c, 12, 8812
8, 76687, Pitch_bend_c, 12, 8778
8, 76687, Pitch_bend_c, 12, 8748
8, 76691, Pitch_bend_c, 12, 8812
8, 76698, Pitch_bend_c, 12, 8860
8, 76710, Pitch_bend_c, 12, 8928
8, 76724, Pitch_bend_c, 12, 8860
8, 76732, Pitch_bend_c, 12, 8812
8, 76738, Pitch_bend_c, 12, 8748
8, 76749, Pitch_bend_c, 12, 8812
8, 76750, Pitch_bend_c, 12, 8778
8, 76750, Pitch_bend_c, 12, 8748
8, 76751, Pitch_bend_c, 12, 8778
8, 76751, Pitch_bend_c, 12, 8812
8, 76761, Pitch_bend_c, 12, 8860
8, 76768, Pitch_bend_c, 12, 8928
8, 76788, Pitch_bend_c, 12, 8860
8, 76796, Pitch_bend_c, 12, 8812
8, 76799, Note_off_c, 12, 69, 127
8, 76800, Pitch_bend_c, 12, 8192
8, 76800, Note_on_c, 12, 76, 127
8, 76812, Pitch_bend_c, 12, 8124
8, 76822, Pitch_bend_c, 12, 8192
8, 76844, Pitch_bend_c, 12, 8222
8, 76848, Note_off_c, 12, 76, 127
8, 76848, Pitch_bend_c, 12, 8192
8, 76848, Note_on_c, 12, 74, 127
8, 76896, Note_off_c, 12, 74, 127
8, 76896, Note_on_c, 12, 71, 127
8, 76944, Note_off_c, 12, 71, 127
8, 76944, Note_on_c, 12, 69, 127
8, 76992, Note_off_c, 12, 69, 127
8, 76992, Note_on_c, 12, 74, 127
8, 77004, Pitch_bend_c, 12, 8124
8, 77014, Pitch_bend_c, 12, 8192
8, 77036, Pitch_bend_c, 12, 8222
8, 77040, Note_off_c, 12, 74, 127
8, 77040, Pitch_bend_c, 12, 8192
8, 77040, Note_on_c, 12, 71, 127
8, 77088, Note_off_c, 12, 71, 127
8, 77088, Note_on_c, 12, 69, 127
8, 77136, Note_off_c, 12, 69, 127
8, 77136, Note_on_c, 12, 66, 127
8, 77184, Note_off_c, 12, 66, 127
8, 77184, Note_on_c, 12, 71, 127
8, 77232, Note_off_c, 12, 71, 127
8, 77232, Note_on_c, 12, 69, 127
8, 77280, Note_off_c, 12, 69, 127
8, 77280, Note_on_c, 12, 66, 127
8, 77292, Pitch_bend_c, 12, 8124
8, 77302, Pitch_bend_c, 12, 8192
8, 77324, Pitch_bend_c, 12, 8222
8, 77328, Note_off_c, 12, 66, 127
8, 77328, Pitch_bend_c, 12, 8192
8, 77328, Note_on_c, 12, 64, 127
8, 77376, Note_off_c, 12, 64, 127
8, 77376, Note_on_c, 12, 69, 127
8, 77424, Note_off_c, 12, 69, 127
8, 77424, Note_on_c, 12, 66, 127
8, 77472, Note_off_c, 12, 66, 127
8, 77472, Note_on_c, 12, 64, 127
8, 77520, Note_off_c, 12, 64, 127
8, 77520, Note_on_c, 12, 62, 127
8, 77552, Pitch_bend_c, 12, 7159
8, 77554, Pitch_bend_c, 12, 8192
8, 77558, Pitch_bend_c, 12, 7487
8, 77560, Pitch_bend_c, 12, 8192
8, 77563, Pitch_bend_c, 12, 7879
8, 77564, Pitch_bend_c, 12, 8036
8, 77564, Pitch_bend_c, 12, 8192
8, 77568, Note_off_c, 12, 62, 127
8, 77568, Note_on_c, 12, 59, 127
8, 77642, Pitch_bend_c, 12, 8222
8, 77655, Pitch_bend_c, 12, 8192
8, 77673, Pitch_bend_c, 12, 8124
8, 77687, Pitch_bend_c, 12, 8192
8, 77699, Pitch_bend_c, 12, 8222
8, 77709, Pitch_bend_c, 12, 8286
8, 77714, Pitch_bend_c, 12, 8222
8, 77724, Pitch_bend_c, 12, 8192
8, 77730, Pitch_bend_c, 12, 8124
8, 77740, Pitch_bend_c, 12, 8060
8, 77746, Pitch_bend_c, 12, 8124
8, 77756, Pitch_bend_c, 12, 8192
8, 77762, Pitch_bend_c, 12, 8222
8, 77788, Pitch_bend_c, 12, 8192
8, 77794, Pitch_bend_c, 12, 8124
8, 77819, Pitch_bend_c, 12, 8192
8, 77825, Pitch_bend_c, 12, 8222
8, 77851, Pitch_bend_c, 12, 8192
8, 77857, Pitch_bend_c, 12, 8124
8, 77882, Pitch_bend_c, 12, 8192
8, 77888, Pitch_bend_c, 12, 8222
8, 77914, Pitch_bend_c, 12, 8192
8, 77920, Pitch_bend_c, 12, 8124
8, 77946, Pitch_bend_c, 12, 8192
8, 77952, Pitch_bend_c, 12, 8222
8, 77960, Pitch_bend_c, 12, 8286
8, 77969, Pitch_bend_c, 12, 8222
8, 77977, Pitch_bend_c, 12, 8192
8, 77983, Pitch_bend_c, 12, 8124
8, 77991, Pitch_bend_c, 12, 8060
8, 78001, Pitch_bend_c, 12, 8124
8, 78009, Pitch_bend_c, 12, 8192
8, 78015, Pitch_bend_c, 12, 8222
8, 78019, Pitch_bend_c, 12, 8286
8, 78036, Pitch_bend_c, 12, 8222
8, 78040, Pitch_bend_c, 12, 8192
8, 78046, Pitch_bend_c, 12, 8124
8, 78050, Pitch_bend_c, 12, 8060
8, 78068, Pitch_bend_c, 12, 8124
8, 78072, Pitch_bend_c, 12, 8192
8, 78078, Pitch_bend_c, 12, 8222
8, 78082, Pitch_bend_c, 12, 8286
8, 78100, Pitch_bend_c, 12, 8222
8, 78104, Pitch_bend_c, 12, 8192
8, 78110, Pitch_bend_c, 12, 8124
8, 78114, Pitch_bend_c, 12, 8060
8, 78131, Pitch_bend_c, 12, 8124
8, 78135, Pitch_bend_c, 12, 8192
8, 78141, Pitch_bend_c, 12, 8222
8, 78145, Pitch_bend_c, 12, 8286
8, 78163, Pitch_bend_c, 12, 8222
8, 78167, Pitch_bend_c, 12, 8192
8, 78173, Pitch_bend_c, 12, 8124
8, 78177, Pitch_bend_c, 12, 8060
8, 78194, Pitch_bend_c, 12, 8124
8, 78198, Pitch_bend_c, 12, 8192
8, 78204, Pitch_bend_c, 12, 8222
8, 78230, Pitch_bend_c, 12, 8192
8, 78236, Pitch_bend_c, 12, 8124
8, 78262, Pitch_bend_c, 12, 8192
8, 78268, Pitch_bend_c, 12, 8222
8, 78278, Pitch_bend_c, 12, 8286
8, 78283, Pitch_bend_c, 12, 8222
8, 78288, Pitch_bend_c, 12, 7159
8, 78289, Pitch_bend_c, 12, 7691
8, 78289, Pitch_bend_c, 12, 8222
8, 78293, Pitch_bend_c, 12, 8192
8, 78299, Pitch_bend_c, 12, 8124
8, 78304, Pitch_bend_c, 12, 7487
8, 78305, Pitch_bend_c, 12, 7807
8, 78305, Pitch_bend_c, 12, 8124
8, 78309, Pitch_bend_c, 12, 8060
8, 78315, Pitch_bend_c, 12, 8124
8, 78320, Pitch_bend_c, 12, 7879
8, 78321, Pitch_bend_c, 12, 8002
8, 78321, Pitch_bend_c, 12, 8124
8, 78325, Pitch_bend_c, 12, 8192
8, 78336, Control_c, 12, 7, 123
8, 78336, Note_on_c, 12, 76, 127
8, 78352, Note_off_c, 12, 59, 127
8, 78384, Control_c, 12, 7, 120
8, 78404, Pitch_bend_c, 12, 8222
8, 78429, Pitch_bend_c, 12, 8192
8, 78432, Control_c, 12, 7, 118
8, 78435, Pitch_bend_c, 12, 8124
8, 78461, Pitch_bend_c, 12, 8192
8, 78467, Pitch_bend_c, 12, 8222
8, 78475, Pitch_bend_c, 12, 8286
8, 78480, Control_c, 12, 7, 115
8, 78484, Pitch_bend_c, 12, 8222
8, 78492, Pitch_bend_c, 12, 8192
8, 78498, Pitch_bend_c, 12, 8124
8, 78506, Pitch_bend_c, 12, 8060
8, 78516, Pitch_bend_c, 12, 8124
8, 78524, Pitch_bend_c, 12, 8192
8, 78528, Control_c, 12, 7, 113
8, 78530, Pitch_bend_c, 12, 8222
8, 78556, Pitch_bend_c, 12, 8192
8, 78562, Pitch_bend_c, 12, 8124
8, 78576, Control_c, 12, 7, 110
8, 78587, Pitch_bend_c, 12, 8192
8, 78593, Pitch_bend_c, 12, 8222
8, 78619, Pitch_bend_c, 12, 8192
8, 78624, Control_c, 12, 7, 107
8, 78624, Note_on_c, 12, 74, 127
8, 78672, Note_off_c, 12, 76, 127
8, 78672, Control_c, 12, 7, 105
8, 78692, Pitch_bend_c, 12, 8222
8, 78717, Pitch_bend_c, 12, 8192
8, 78720, Control_c, 12, 7, 101
8, 78721, Control_c, 12, 7, 100
8, 78723, Pitch_bend_c, 12, 8124
8, 78749, Pitch_bend_c, 12, 8192
8, 78755, Pitch_bend_c, 12, 8222
8, 78780, Pitch_bend_c, 12, 8192
8, 78786, Pitch_bend_c, 12, 8124
8, 78812, Pitch_bend_c, 12, 8192
8, 78816, Control_c, 12, 7, 96
8, 78817, Control_c, 12, 7, 95
8, 78818, Pitch_bend_c, 12, 8222
8, 78826, Pitch_bend_c, 12, 8286
8, 78836, Pitch_bend_c, 12, 8222
8, 78844, Pitch_bend_c, 12, 8192
8, 78850, Pitch_bend_c, 12, 8124
8, 78858, Pitch_bend_c, 12, 8060
8, 78867, Pitch_bend_c, 12, 8124
8, 78875, Pitch_bend_c, 12, 8192
8, 78881, Pitch_bend_c, 12, 8222
8, 78907, Pitch_bend_c, 12, 8192
8, 78912, Note_off_c, 12, 74, 127
8, 78912, Control_c, 12, 7, 92
8, 78912, Note_on_c, 12, 71, 127
8, 78960, Control_c, 12, 7, 88
8, 78961, Control_c, 12, 7, 87
8, 78980, Pitch_bend_c, 12, 8222
8, 78986, Pitch_bend_c, 12, 8286
8, 78999, Pitch_bend_c, 12, 8222
8, 79005, Pitch_bend_c, 12, 8192
8, 79011, Pitch_bend_c, 12, 8124
8, 79017, Pitch_bend_c, 12, 8060
8, 79031, Pitch_bend_c, 12, 8124
8, 79037, Pitch_bend_c, 12, 8192
8, 79043, Pitch_bend_c, 12, 8222
8, 79056, Control_c, 12, 7, 83
8, 79056, Pitch_bend_c, 12, 8485
8, 79057, Control_c, 12, 7, 82
8, 79058, Pitch_bend_c, 12, 8222
8, 79068, Pitch_bend_c, 12, 8860
8, 79070, Pitch_bend_c, 12, 8192
8, 79074, Pitch_bend_c, 12, 8124
8, 79080, Pitch_bend_c, 12, 9188
8, 79082, Pitch_bend_c, 12, 8124
8, 79092, Pitch_bend_c, 12, 9502
8, 79094, Pitch_bend_c, 12, 8124
8, 79100, Pitch_bend_c, 12, 8192
8, 79104, Pitch_bend_c, 12, 9894
8, 79152, Control_c, 12, 7, 78
8, 79172, Pitch_bend_c, 12, 9960
8, 79178, Pitch_bend_c, 12, 10024
8, 79191, Pitch_bend_c, 12, 9960
8, 79197, Pitch_bend_c, 12, 9894
8, 79200, Control_c, 12, 7, 76
8, 79203, Pitch_bend_c, 12, 9829
8, 79209, Pitch_bend_c, 12, 9761
8, 79223, Pitch_bend_c, 12, 9829
8, 79229, Pitch_bend_c, 12, 9894
8, 79235, Pitch_bend_c, 12, 9960
8, 79241, Pitch_bend_c, 12, 10024
8, 79248, Control_c, 12, 7, 73
8, 79254, Pitch_bend_c, 12, 9960
8, 79260, Pitch_bend_c, 12, 9894
8, 79266, Pitch_bend_c, 12, 9829
8, 79272, Pitch_bend_c, 12, 9761
8, 79286, Pitch_bend_c, 12, 9829
8, 79292, Pitch_bend_c, 12, 9894
8, 79296, Control_c, 12, 7, 71
8, 79298, Pitch_bend_c, 12, 9960
8, 79304, Pitch_bend_c, 12, 10024
8, 79318, Pitch_bend_c, 12, 9960
8, 79324, Pitch_bend_c, 12, 9894
8, 79330, Pitch_bend_c, 12, 9829
8, 79336, Pitch_bend_c, 12, 9761
8, 79344, Control_c, 12, 7, 68
8, 79349, Pitch_bend_c, 12, 9829
8, 79355, Pitch_bend_c, 12, 9894
8, 79361, Pitch_bend_c, 12, 9960
8, 79387, Pitch_bend_c, 12, 9894
8, 79392, Note_off_c, 12, 71, 127
8, 79392, Control_c, 12, 7, 66
8, 79392, Pitch_bend_c, 12, 8192
8, 79392, Note_on_c, 12, 74, 127
8, 79440, Control_c, 12, 7, 63
8, 79460, Pitch_bend_c, 12, 8222
8, 79485, Pitch_bend_c, 12, 8192
8, 79488, Control_c, 12, 7, 60
8, 79491, Pitch_bend_c, 12, 8124
8, 79517, Pitch_bend_c, 12, 8192
8, 79523, Pitch_bend_c, 12, 8222
8, 79531, Pitch_bend_c, 12, 8286
8, 79536, Control_c, 12, 7, 58
8, 79540, Pitch_bend_c, 12, 8222
8, 79548, Pitch_bend_c, 12, 8192
8, 79554, Pitch_bend_c, 12, 8124
8, 79562, Pitch_bend_c, 12, 8060
8, 79572, Pitch_bend_c, 12, 8124
8, 79580, Pitch_bend_c, 12, 8192
8, 79584, Control_c, 12, 7, 54
8, 79585, Control_c, 12, 7, 53
8, 79586, Pitch_bend_c, 12, 8222
8, 79612, Pitch_bend_c, 12, 8192
8, 79618, Pitch_bend_c, 12, 8124
8, 79643, Pitch_bend_c, 12, 8192
8, 79649, Pitch_bend_c, 12, 8222
8, 79659, Pitch_bend_c, 12, 8286
8, 79665, Pitch_bend_c, 12, 8222
8, 79675, Pitch_bend_c, 12, 8192
8, 79680, Note_off_c, 12, 74, 127
8, 79680, Control_c, 12, 7, 49
8, 79680, Note_on_c, 12, 71, 127
8, 79681, Control_c, 12, 7, 48
8, 79748, Pitch_bend_c, 12, 8222
8, 79756, Pitch_bend_c, 12, 8286
8, 79765, Pitch_bend_c, 12, 8222
8, 79773, Pitch_bend_c, 12, 8192
8, 79776, Control_c, 12, 7, 45
8, 79779, Pitch_bend_c, 12, 8124
8, 79787, Pitch_bend_c, 12, 8060
8, 79797, Pitch_bend_c, 12, 8124
8, 79805, Pitch_bend_c, 12, 8192
8, 79811, Pitch_bend_c, 12, 8222
8, 79819, Pitch_bend_c, 12, 8286
8, 79824, Control_c, 12, 7, 41
8, 79824, Pitch_bend_c, 12, 8485
8, 79825, Control_c, 12, 7, 40
8, 79826, Pitch_bend_c, 12, 8286
8, 79828, Pitch_bend_c, 12, 8222
8, 79836, Pitch_bend_c, 12, 8860
8, 79838, Pitch_bend_c, 12, 8192
8, 79842, Pitch_bend_c, 12, 8124
8, 79848, Pitch_bend_c, 12, 9188
8, 79850, Pitch_bend_c, 12, 8060
8, 79860, Pitch_bend_c, 12, 9502
8, 79862, Pitch_bend_c, 12, 8124
8, 79868, Pitch_bend_c, 12, 8192
8, 79872, Pitch_bend_c, 12, 9894
8, 79920, Control_c, 12, 7, 36
8, 79921, Control_c, 12, 7, 35
8, 79940, Pitch_bend_c, 12, 9960
8, 79948, Pitch_bend_c, 12, 10024
8, 79957, Pitch_bend_c, 12, 9960
8, 79965, Pitch_bend_c, 12, 9894
8, 79971, Pitch_bend_c, 12, 9829
8, 79979, Pitch_bend_c, 12, 9761
8, 79989, Pitch_bend_c, 12, 9829
8, 79997, Pitch_bend_c, 12, 9894
8, 80003, Pitch_bend_c, 12, 9960
8, 80011, Pitch_bend_c, 12, 10024
8, 80016, Control_c, 12, 7, 31
8, 80020, Pitch_bend_c, 12, 9960
8, 80028, Pitch_bend_c, 12, 9894
8, 80034, Pitch_bend_c, 12, 9829
8, 80042, Pitch_bend_c, 12, 9761
8, 80052, Pitch_bend_c, 12, 9829
8, 80060, Pitch_bend_c, 12, 9894
8, 80064, Control_c, 12, 7, 29
8, 80066, Pitch_bend_c, 12, 9960
8, 80092, Pitch_bend_c, 12, 9894
8, 80098, Pitch_bend_c, 12, 9829
8, 80112, Control_c, 12, 7, 26
8, 80123, Pitch_bend_c, 12, 9894
8, 80129, Pitch_bend_c, 12, 9960
8, 80155, Pitch_bend_c, 12, 9894
8, 80160, Note_off_c, 12, 71, 127
8, 80160, Control_c, 12, 7, 24
8, 80160, Pitch_bend_c, 12, 8192
8, 80160, Note_on_c, 12, 73, 127
8, 80208, Control_c, 12, 7, 21
8, 80228, Pitch_bend_c, 12, 8222
8, 80234, Pitch_bend_c, 12, 8286
8, 80247, Pitch_bend_c, 12, 8222
8, 80253, Pitch_bend_c, 12, 8192
8, 80256, Control_c, 12, 7, 19
8, 80259, Pitch_bend_c, 12, 8124
8, 80265, Pitch_bend_c, 12, 8060
8, 80279, Pitch_bend_c, 12, 8124
8, 80285, Pitch_bend_c, 12, 8192
8, 80291, Pitch_bend_c, 12, 8222
8, 80295, Pitch_bend_c, 12, 8286
8, 80304, Control_c, 12, 7, 16
8, 80312, Pitch_bend_c, 12, 8222
8, 80316, Pitch_bend_c, 12, 8192
8, 80322, Pitch_bend_c, 12, 8124
8, 80326, Pitch_bend_c, 12, 8060
8, 80344, Pitch_bend_c, 12, 8124
8, 80348, Pitch_bend_c, 12, 8192
8, 80352, Control_c, 12, 7, 13
8, 80354, Pitch_bend_c, 12, 8222
8, 80358, Pitch_bend_c, 12, 8286
8, 80376, Pitch_bend_c, 12, 8222
8, 80380, Pitch_bend_c, 12, 8192
8, 80386, Pitch_bend_c, 12, 8124
8, 80390, Pitch_bend_c, 12, 8060
8, 80400, Control_c, 12, 7, 11
8, 80407, Pitch_bend_c, 12, 8124
8, 80411, Pitch_bend_c, 12, 8192
8, 80417, Pitch_bend_c, 12, 8222
8, 80425, Pitch_bend_c, 12, 8286
8, 80435, Pitch_bend_c, 12, 8222
8, 80443, Pitch_bend_c, 12, 8192
8, 80448, Note_off_c, 12, 73, 127
8, 80448, Control_c, 12, 7, 7
8, 80448, Note_on_c, 12, 74, 127
8, 80449, Control_c, 12, 7, 6
8, 80516, Pitch_bend_c, 12, 8222
8, 80520, Pitch_bend_c, 12, 8286
8, 80537, Pitch_bend_c, 12, 8222
8, 80541, Pitch_bend_c, 12, 8192
8, 80544, Control_c, 12, 7, 2
8, 80545, Control_c, 12, 7, 1
8, 80547, Pitch_bend_c, 12, 8124
8, 80551, Pitch_bend_c, 12, 8060
8, 80569, Pitch_bend_c, 12, 8124
8, 80573, Pitch_bend_c, 12, 8192
8, 80579, Pitch_bend_c, 12, 8222
8, 80583, Pitch_bend_c, 12, 8286
8, 80600, Pitch_bend_c, 12, 8222
8, 80604, Pitch_bend_c, 12, 8192
8, 80610, Pitch_bend_c, 12, 8124
8, 80614, Pitch_bend_c, 12, 8060
8, 80632, Pitch_bend_c, 12, 8124
8, 80636, Pitch_bend_c, 12, 8192
8, 80640, Note_off_c, 12, 74, 127
8, 80641, Control_c, 12, 123, 0
8, 80641, Control_c, 12, 120, 0
8, 80641, End_track
9, 0, Start_track
9, 0, MIDI_port, 0
9, 0, Unknown_meta_event, 9, 21, 77, 105, 99, 114, 111, 115, 111, 102, 116, 32, 77, 73, 68, 73, 32, 77, 97, 112, 112, 101, 114
9, 0, Title_t, "high Q"
9, 0, End_track
10, 0, Start_track
10, 0, MIDI_port, 0
10, 0, Unknown_meta_event, 9, 21, 77, 105, 99, 114, 111, 115, 111, 102, 116, 32, 77, 73, 68, 73, 32, 77, 97, 112, 112, 101, 114
10, 0, Title_t, "high Q-StdInstr"
10, 1, Control_c, 9, 7, 125
10, 1, Control_c, 9, 7, 124
10, 77616, Control_c, 9, 7, 121
10, 77617, Control_c, 9, 7, 120
10, 77712, Control_c, 9, 7, 118
10, 77761, Control_c, 9, 7, 114
10, 77857, Control_c, 9, 7, 110
10, 77953, Control_c, 9, 7, 106
10, 78097, Control_c, 9, 7, 100
10, 78193, Control_c, 9, 7, 96
10, 78289, Control_c, 9, 7, 92
10, 78360, Control_c, 9, 7, 91
10, 78433, Control_c, 9, 7, 87
10, 78576, Control_c, 9, 7, 82
10, 78577, Control_c, 9, 7, 81
10, 78673, Control_c, 9, 7, 77
10, 78769, Control_c, 9, 7, 73
10, 78913, Control_c, 9, 7, 67
10, 79009, Control_c, 9, 7, 63
10, 79105, Control_c, 9, 7, 59
10, 79248, Control_c, 9, 7, 54
10, 79249, Control_c, 9, 7, 53
10, 79344, Control_c, 9, 7, 50
10, 79345, Control_c, 9, 7, 49
10, 79441, Control_c, 9, 7, 45
10, 79585, Control_c, 9, 7, 39
10, 79681, Control_c, 9, 7, 35
10, 79920, Control_c, 9, 7, 27
10, 79921, Control_c, 9, 7, 26
10, 80016, Control_c, 9, 7, 24
10, 80065, Control_c, 9, 7, 20
10, 80161, Control_c, 9, 7, 16
10, 80257, Control_c, 9, 7, 12
10, 80401, Control_c, 9, 7, 6
10, 80497, Control_c, 9, 7, 2
10, 80641, Control_c, 9, 123, 0
10, 80641, Control_c, 9, 120, 0
10, 80641, End_track
11, 0, Start_track
11, 0, MIDI_port, 0
11, 0, Unknown_meta_event, 9, 21, 77, 105, 99, 114, 111, 115, 111, 102, 116, 32, 77, 73, 68, 73, 32, 77, 97, 112, 112, 101, 114
11, 0, Title_t, "high Q-kick drum 1"
11, 6144, Note_on_c, 9, 36, 127
11, 6192, Note_off_c, 9, 36, 127
11, 6288, Note_on_c, 9, 36, 127
11, 6336, Note_off_c, 9, 36, 127
11, 6384, Note_on_c, 9, 36, 127
11, 6432, Note_off_c, 9, 36, 127
11, 6672, Note_on_c, 9, 36, 127
11, 6720, Note_off_c, 9, 36, 127
11, 6912, Note_on_c, 9, 36, 95
11, 7008, Note_off_c, 9, 36, 95
11, 7200, Note_on_c, 9, 36, 95
11, 7248, Note_off_c, 9, 36, 95
11, 7296, Note_on_c, 9, 36, 95
11, 7344, Note_off_c, 9, 36, 95
11, 7440, Note_on_c, 9, 36, 95
11, 7488, Note_off_c, 9, 36, 95
11, 7632, Note_on_c, 9, 36, 95
11, 7680, Note_off_c, 9, 36, 95
11, 7680, Note_on_c, 9, 36, 95
11, 7776, Note_off_c, 9, 36, 95
11, 7968, Note_on_c, 9, 36, 95
11, 8016, Note_off_c, 9, 36, 95
11, 8064, Note_on_c, 9, 36, 95
11, 8112, Note_off_c, 9, 36, 95
11, 8208, Note_on_c, 9, 36, 95
11, 8256, Note_off_c, 9, 36, 95
11, 8400, Note_on_c, 9, 36, 95
11, 8448, Note_off_c, 9, 36, 95
11, 8448, Note_on_c, 9, 36, 95
11, 8544, Note_off_c, 9, 36, 95
11, 8736, Note_on_c, 9, 36, 95
11, 8784, Note_off_c, 9, 36, 95
11, 8832, Note_on_c, 9, 36, 95
11, 8880, Note_off_c, 9, 36, 95
11, 8976, Note_on_c, 9, 36, 95
11, 9024, Note_off_c, 9, 36, 95
11, 9168, Note_on_c, 9, 36, 95
11, 9216, Note_off_c, 9, 36, 95
11, 9216, Note_on_c, 9, 36, 95
11, 9312, Note_off_c, 9, 36, 95
11, 9504, Note_on_c, 9, 36, 95
11, 9552, Note_off_c, 9, 36, 95
11, 9600, Note_on_c, 9, 36, 95
11, 9648, Note_off_c, 9, 36, 95
11, 9792, Note_on_c, 9, 36, 111
11, 9840, Note_off_c, 9, 36, 111
11, 9840, Note_on_c, 9, 36, 111
11, 9888, Note_off_c, 9, 36, 111
11, 9888, Note_on_c, 9, 36, 111
11, 9936, Note_off_c, 9, 36, 111
11, 9936, Note_on_c, 9, 36, 111
11, 9984, Note_off_c, 9, 36, 111
11, 9984, Note_on_c, 9, 36, 95
11, 10080, Note_off_c, 9, 36, 95
11, 10272, Note_on_c, 9, 36, 95
11, 10320, Note_off_c, 9, 36, 95
11, 10368, Note_on_c, 9, 36, 95
11, 10416, Note_off_c, 9, 36, 95
11, 10512, Note_on_c, 9, 36, 95
11, 10560, Note_off_c, 9, 36, 95
11, 10704, Note_on_c, 9, 36, 95
11, 10752, Note_off_c, 9, 36, 95
11, 10752, Note_on_c, 9, 36, 95
11, 10848, Note_off_c, 9, 36, 95
11, 11040, Note_on_c, 9, 36, 95
11, 11088, Note_off_c, 9, 36, 95
11, 11136, Note_on_c, 9, 36, 95
11, 11184, Note_off_c, 9, 36, 95
11, 11280, Note_on_c, 9, 36, 95
11, 11328, Note_off_c, 9, 36, 95
11, 11472, Note_on_c, 9, 36, 95
11, 11520, Note_off_c, 9, 36, 95
11, 11520, Note_on_c, 9, 36, 95
11, 11616, Note_off_c, 9, 36, 95
11, 11808, Note_on_c, 9, 36, 95
11, 11856, Note_off_c, 9, 36, 95
11, 11904, Note_on_c, 9, 36, 95
11, 11952, Note_off_c, 9, 36, 95
11, 12048, Note_on_c, 9, 36, 95
11, 12096, Note_off_c, 9, 36, 95
11, 12240, Note_on_c, 9, 36, 95
11, 12288, Note_off_c, 9, 36, 95
11, 12288, Note_on_c, 9, 36, 95
11, 12384, Note_off_c, 9, 36, 95
11, 12576, Note_on_c, 9, 36, 95
11, 12624, Note_off_c, 9, 36, 95
11, 12672, Note_on_c, 9, 36, 95
11, 12720, Note_off_c, 9, 36, 95
11, 12864, Note_on_c, 9, 36, 111
11, 12912, Note_off_c, 9, 36, 111
11, 12912, Note_on_c, 9, 36, 111
11, 12960, Note_off_c, 9, 36, 111
11, 12960, Note_on_c, 9, 36, 111
11, 13008, Note_off_c, 9, 36, 111
11, 13008, Note_on_c, 9, 36, 111
11, 13056, Note_off_c, 9, 36, 111
11, 13056, Note_on_c, 9, 36, 127
11, 13248, Note_off_c, 9, 36, 127
11, 13440, Note_on_c, 9, 36, 127
11, 13632, Note_off_c, 9, 36, 127
11, 13824, Note_on_c, 9, 36, 127
11, 14016, Note_off_c, 9, 36, 127
11, 14208, Note_on_c, 9, 36, 127
11, 14400, Note_off_c, 9, 36, 127
11, 14592, Note_on_c, 9, 36, 127
11, 14784, Note_off_c, 9, 36, 127
11, 14976, Note_on_c, 9, 36, 127
11, 15168, Note_off_c, 9, 36, 127
11, 15360, Note_on_c, 9, 36, 127
11, 15552, Note_off_c, 9, 36, 127
11, 15744, Note_on_c, 9, 36, 127
11, 15936, Note_off_c, 9, 36, 127
11, 16128, Note_on_c, 9, 36, 127
11, 16320, Note_off_c, 9, 36, 127
11, 16512, Note_on_c, 9, 36, 127
11, 16704, Note_off_c, 9, 36, 127
11, 16896, Note_on_c, 9, 36, 127
11, 17088, Note_off_c, 9, 36, 127
11, 17280, Note_on_c, 9, 36, 127
11, 17472, Note_off_c, 9, 36, 127
11, 17664, Note_on_c, 9, 36, 127
11, 17856, Note_off_c, 9, 36, 127
11, 18048, Note_on_c, 9, 36, 127
11, 18240, Note_off_c, 9, 36, 127
11, 18432, Note_on_c, 9, 36, 127
11, 18480, Note_off_c, 9, 36, 127
11, 18576, Note_on_c, 9, 36, 127
11, 18624, Note_off_c, 9, 36, 127
11, 18672, Note_on_c, 9, 36, 127
11, 18720, Note_off_c, 9, 36, 127
11, 18960, Note_on_c, 9, 36, 127
11, 19008, Note_off_c, 9, 36, 127
11, 19200, Note_on_c, 9, 36, 95
11, 19296, Note_off_c, 9, 36, 95
11, 19488, Note_on_c, 9, 36, 95
11, 19536, Note_off_c, 9, 36, 95
11, 19584, Note_on_c, 9, 36, 95
11, 19632, Note_off_c, 9, 36, 95
11, 19728, Note_on_c, 9, 36, 95
11, 19776, Note_off_c, 9, 36, 95
11, 19920, Note_on_c, 9, 36, 95
11, 19968, Note_off_c, 9, 36, 95
11, 19968, Note_on_c, 9, 36, 95
11, 20064, Note_off_c, 9, 36, 95
11, 20256, Note_on_c, 9, 36, 95
11, 20304, Note_off_c, 9, 36, 95
11, 20352, Note_on_c, 9, 36, 95
11, 20400, Note_off_c, 9, 36, 95
11, 20496, Note_on_c, 9, 36, 95
11, 20544, Note_off_c, 9, 36, 95
11, 20688, Note_on_c, 9, 36, 95
11, 20736, Note_off_c, 9, 36, 95
11, 20736, Note_on_c, 9, 36, 95
11, 20832, Note_off_c, 9, 36, 95
11, 21024, Note_on_c, 9, 36, 95
11, 21072, Note_off_c, 9, 36, 95
11, 21120, Note_on_c, 9, 36, 95
11, 21168, Note_off_c, 9, 36, 95
11, 21264, Note_on_c, 9, 36, 95
11, 21312, Note_off_c, 9, 36, 95
11, 21456, Note_on_c, 9, 36, 95
11, 21504, Note_off_c, 9, 36, 95
11, 21504, Note_on_c, 9, 36, 95
11, 21600, Note_off_c, 9, 36, 95
11, 21792, Note_on_c, 9, 36, 95
11, 21840, Note_off_c, 9, 36, 95
11, 21888, Note_on_c, 9, 36, 95
11, 21936, Note_off_c, 9, 36, 95
11, 22080, Note_on_c, 9, 36, 111
11, 22128, Note_off_c, 9, 36, 111
11, 22128, Note_on_c, 9, 36, 111
11, 22176, Note_off_c, 9, 36, 111
11, 22176, Note_on_c, 9, 36, 111
11, 22224, Note_off_c, 9, 36, 111
11, 22224, Note_on_c, 9, 36, 111
11, 22272, Note_off_c, 9, 36, 111
11, 22272, Note_on_c, 9, 36, 95
11, 22368, Note_off_c, 9, 36, 95
11, 22560, Note_on_c, 9, 36, 95
11, 22608, Note_off_c, 9, 36, 95
11, 22656, Note_on_c, 9, 36, 95
11, 22704, Note_off_c, 9, 36, 95
11, 22800, Note_on_c, 9, 36, 95
11, 22848, Note_off_c, 9, 36, 95
11, 22992, Note_on_c, 9, 36, 95
11, 23040, Note_off_c, 9, 36, 95
11, 23040, Note_on_c, 9, 36, 95
11, 23136, Note_off_c, 9, 36, 95
11, 23328, Note_on_c, 9, 36, 95
11, 23376, Note_off_c, 9, 36, 95
11, 23424, Note_on_c, 9, 36, 95
11, 23472, Note_off_c, 9, 36, 95
11, 23568, Note_on_c, 9, 36, 95
11, 23616, Note_off_c, 9, 36, 95
11, 23760, Note_on_c, 9, 36, 95
11, 23808, Note_off_c, 9, 36, 95
11, 23808, Note_on_c, 9, 36, 95
11, 23904, Note_off_c, 9, 36, 95
11, 24096, Note_on_c, 9, 36, 95
11, 24144, Note_off_c, 9, 36, 95
11, 24192, Note_on_c, 9, 36, 95
11, 24240, Note_off_c, 9, 36, 95
11, 24336, Note_on_c, 9, 36, 95
11, 24384, Note_off_c, 9, 36, 95
11, 24528, Note_on_c, 9, 36, 95
11, 24576, Note_off_c, 9, 36, 95
11, 24576, Note_on_c, 9, 36, 95
11, 24672, Note_off_c, 9, 36, 95
11, 24864, Note_on_c, 9, 36, 95
11, 24912, Note_off_c, 9, 36, 95
11, 24960, Note_on_c, 9, 36, 95
11, 25008, Note_off_c, 9, 36, 95
11, 25152, Note_on_c, 9, 36, 111
11, 25200, Note_off_c, 9, 36, 111
11, 25200, Note_on_c, 9, 36, 111
11, 25248, Note_off_c, 9, 36, 111
11, 25248, Note_on_c, 9, 36, 111
11, 25296, Note_off_c, 9, 36, 111
11, 25296, Note_on_c, 9, 36, 111
11, 25344, Note_off_c, 9, 36, 111
11, 25344, Note_on_c, 9, 36, 127
11, 25536, Note_off_c, 9, 36, 127
11, 25728, Note_on_c, 9, 36, 127
11, 25920, Note_off_c, 9, 36, 127
11, 26112, Note_on_c, 9, 36, 127
11, 26304, Note_off_c, 9, 36, 127
11, 26496, Note_on_c, 9, 36, 127
11, 26688, Note_off_c, 9, 36, 127
11, 26880, Note_on_c, 9, 36, 127
11, 27072, Note_off_c, 9, 36, 127
11, 27264, Note_on_c, 9, 36, 127
11, 27456, Note_off_c, 9, 36, 127
11, 27648, Note_on_c, 9, 36, 127
11, 27840, Note_off_c, 9, 36, 127
11, 28032, Note_on_c, 9, 36, 127
11, 28224, Note_off_c, 9, 36, 127
11, 28416, Note_on_c, 9, 36, 127
11, 28608, Note_off_c, 9, 36, 127
11, 28800, Note_on_c, 9, 36, 127
11, 28992, Note_off_c, 9, 36, 127
11, 29184, Note_on_c, 9, 36, 127
11, 29376, Note_off_c, 9, 36, 127
11, 29568, Note_on_c, 9, 36, 127
11, 29760, Note_off_c, 9, 36, 127
11, 29952, Note_on_c, 9, 36, 127
11, 30144, Note_off_c, 9, 36, 127
11, 30336, Note_on_c, 9, 36, 127
11, 30528, Note_off_c, 9, 36, 127
11, 30720, Note_on_c, 9, 36, 127
11, 30912, Note_off_c, 9, 36, 127
11, 31104, Note_on_c, 9, 36, 127
11, 31296, Note_off_c, 9, 36, 127
11, 31488, Note_on_c, 9, 36, 127
11, 31680, Note_off_c, 9, 36, 127
11, 31872, Note_on_c, 9, 36, 127
11, 32064, Note_off_c, 9, 36, 127
11, 32256, Note_on_c, 9, 36, 127
11, 32448, Note_off_c, 9, 36, 127
11, 32640, Note_on_c, 9, 36, 127
11, 32832, Note_off_c, 9, 36, 127
11, 33024, Note_on_c, 9, 36, 127
11, 33216, Note_off_c, 9, 36, 127
11, 33408, Note_on_c, 9, 36, 127
11, 33600, Note_off_c, 9, 36, 127
11, 33792, Note_on_c, 9, 36, 127
11, 33984, Note_off_c, 9, 36, 127
11, 34176, Note_on_c, 9, 36, 127
11, 34368, Note_off_c, 9, 36, 127
11, 34560, Note_on_c, 9, 36, 127
11, 34752, Note_off_c, 9, 36, 127
11, 34944, Note_on_c, 9, 36, 127
11, 35136, Note_off_c, 9, 36, 127
11, 35328, Note_on_c, 9, 36, 127
11, 35520, Note_off_c, 9, 36, 127
11, 35712, Note_on_c, 9, 36, 127
11, 35904, Note_off_c, 9, 36, 127
11, 36096, Note_on_c, 9, 36, 127
11, 36288, Note_off_c, 9, 36, 127
11, 36480, Note_on_c, 9, 36, 127
11, 36672, Note_off_c, 9, 36, 127
11, 36864, Note_on_c, 9, 36, 127
11, 36912, Note_off_c, 9, 36, 127
11, 37008, Note_on_c, 9, 36, 127
11, 37056, Note_off_c, 9, 36, 127
11, 37104, Note_on_c, 9, 36, 127
11, 37152, Note_off_c, 9, 36, 127
11, 37392, Note_on_c, 9, 36, 127
11, 37440, Note_off_c, 9, 36, 127
11, 37632, Note_on_c, 9, 36, 95
11, 37728, Note_off_c, 9, 36, 95
11, 37920, Note_on_c, 9, 36, 95
11, 37968, Note_off_c, 9, 36, 95
11, 38016, Note_on_c, 9, 36, 95
11, 38064, Note_off_c, 9, 36, 95
11, 38160, Note_on_c, 9, 36, 95
11, 38208, Note_off_c, 9, 36, 95
11, 38352, Note_on_c, 9, 36, 95
11, 38400, Note_off_c, 9, 36, 95
11, 38400, Note_on_c, 9, 36, 95
11, 38496, Note_off_c, 9, 36, 95
11, 38688, Note_on_c, 9, 36, 95
11, 38736, Note_off_c, 9, 36, 95
11, 38784, Note_on_c, 9, 36, 95
11, 38832, Note_off_c, 9, 36, 95
11, 38928, Note_on_c, 9, 36, 95
11, 38976, Note_off_c, 9, 36, 95
11, 39120, Note_on_c, 9, 36, 95
11, 39168, Note_off_c, 9, 36, 95
11, 39168, Note_on_c, 9, 36, 95
11, 39264, Note_off_c, 9, 36, 95
11, 39456, Note_on_c, 9, 36, 95
11, 39504, Note_off_c, 9, 36, 95
11, 39552, Note_on_c, 9, 36, 95
11, 39600, Note_off_c, 9, 36, 95
11, 39696, Note_on_c, 9, 36, 95
11, 39744, Note_off_c, 9, 36, 95
11, 39888, Note_on_c, 9, 36, 95
11, 39936, Note_off_c, 9, 36, 95
11, 39936, Note_on_c, 9, 36, 95
11, 40032, Note_off_c, 9, 36, 95
11, 40224, Note_on_c, 9, 36, 95
11, 40272, Note_off_c, 9, 36, 95
11, 40320, Note_on_c, 9, 36, 95
11, 40368, Note_off_c, 9, 36, 95
11, 40512, Note_on_c, 9, 36, 111
11, 40560, Note_off_c, 9, 36, 111
11, 40560, Note_on_c, 9, 36, 111
11, 40608, Note_off_c, 9, 36, 111
11, 40608, Note_on_c, 9, 36, 111
11, 40656, Note_off_c, 9, 36, 111
11, 40656, Note_on_c, 9, 36, 111
11, 40704, Note_off_c, 9, 36, 111
11, 40704, Note_on_c, 9, 36, 95
11, 40800, Note_off_c, 9, 36, 95
11, 40992, Note_on_c, 9, 36, 95
11, 41040, Note_off_c, 9, 36, 95
11, 41088, Note_on_c, 9, 36, 95
11, 41136, Note_off_c, 9, 36, 95
11, 41232, Note_on_c, 9, 36, 95
11, 41280, Note_off_c, 9, 36, 95
11, 41424, Note_on_c, 9, 36, 95
11, 41472, Note_off_c, 9, 36, 95
11, 41472, Note_on_c, 9, 36, 95
11, 41568, Note_off_c, 9, 36, 95
11, 41760, Note_on_c, 9, 36, 95
11, 41808, Note_off_c, 9, 36, 95
11, 41856, Note_on_c, 9, 36, 95
11, 41904, Note_off_c, 9, 36, 95
11, 42000, Note_on_c, 9, 36, 95
11, 42048, Note_off_c, 9, 36, 95
11, 42192, Note_on_c, 9, 36, 95
11, 42240, Note_off_c, 9, 36, 95
11, 42240, Note_on_c, 9, 36, 95
11, 42336, Note_off_c, 9, 36, 95
11, 42528, Note_on_c, 9, 36, 95
11, 42576, Note_off_c, 9, 36, 95
11, 42624, Note_on_c, 9, 36, 95
11, 42672, Note_off_c, 9, 36, 95
11, 42768, Note_on_c, 9, 36, 95
11, 42816, Note_off_c, 9, 36, 95
11, 42960, Note_on_c, 9, 36, 95
11, 43008, Note_off_c, 9, 36, 95
11, 43008, Note_on_c, 9, 36, 95
11, 43104, Note_off_c, 9, 36, 95
11, 43296, Note_on_c, 9, 36, 95
11, 43344, Note_off_c, 9, 36, 95
11, 43392, Note_on_c, 9, 36, 95
11, 43440, Note_off_c, 9, 36, 95
11, 43584, Note_on_c, 9, 36, 111
11, 43632, Note_off_c, 9, 36, 111
11, 43632, Note_on_c, 9, 36, 111
11, 43680, Note_off_c, 9, 36, 111
11, 43680, Note_on_c, 9, 36, 111
11, 43728, Note_off_c, 9, 36, 111
11, 43728, Note_on_c, 9, 36, 111
11, 43776, Note_off_c, 9, 36, 111
11, 43776, Note_on_c, 9, 36, 127
11, 43968, Note_off_c, 9, 36, 127
11, 46848, Note_on_c, 9, 36, 127
11, 47040, Note_off_c, 9, 36, 127
11, 47040, Note_on_c, 9, 36, 127
11, 47232, Note_off_c, 9, 36, 127
11, 47232, Note_on_c, 9, 36, 127
11, 47424, Note_off_c, 9, 36, 127
11, 47424, Note_on_c, 9, 36, 127
11, 47616, Note_off_c, 9, 36, 127
11, 47616, Note_on_c, 9, 36, 127
11, 47808, Note_off_c, 9, 36, 127
11, 47808, Note_on_c, 9, 36, 127
11, 48000, Note_off_c, 9, 36, 127
11, 48000, Note_on_c, 9, 36, 127
11, 48192, Note_off_c, 9, 36, 127
11, 48192, Note_on_c, 9, 36, 127
11, 48384, Note_off_c, 9, 36, 127
11, 48384, Note_on_c, 9, 36, 127
11, 48576, Note_off_c, 9, 36, 127
11, 48576, Note_on_c, 9, 36, 127
11, 48768, Note_off_c, 9, 36, 127
11, 48768, Note_on_c, 9, 36, 127
11, 48960, Note_off_c, 9, 36, 127
11, 48960, Note_on_c, 9, 36, 127
11, 49152, Note_off_c, 9, 36, 127
11, 49152, Note_on_c, 9, 36, 127
11, 49344, Note_off_c, 9, 36, 127
11, 49344, Note_on_c, 9, 36, 127
11, 49536, Note_off_c, 9, 36, 127
11, 49536, Note_on_c, 9, 36, 127
11, 49728, Note_off_c, 9, 36, 127
11, 49728, Note_on_c, 9, 36, 127
11, 49920, Note_off_c, 9, 36, 127
11, 49920, Note_on_c, 9, 36, 127
11, 50112, Note_off_c, 9, 36, 127
11, 50112, Note_on_c, 9, 36, 127
11, 50304, Note_off_c, 9, 36, 127
11, 50304, Note_on_c, 9, 36, 127
11, 50496, Note_off_c, 9, 36, 127
11, 50496, Note_on_c, 9, 36, 127
11, 50688, Note_off_c, 9, 36, 127
11, 50688, Note_on_c, 9, 36, 127
11, 50880, Note_off_c, 9, 36, 127
11, 50880, Note_on_c, 9, 36, 127
11, 51072, Note_off_c, 9, 36, 127
11, 51072, Note_on_c, 9, 36, 127
11, 51264, Note_off_c, 9, 36, 127
11, 51264, Note_on_c, 9, 36, 127
11, 51456, Note_off_c, 9, 36, 127
11, 51456, Note_on_c, 9, 36, 127
11, 51648, Note_off_c, 9, 36, 127
11, 51648, Note_on_c, 9, 36, 127
11, 51840, Note_off_c, 9, 36, 127
11, 51840, Note_on_c, 9, 36, 127
11, 52032, Note_off_c, 9, 36, 127
11, 52032, Note_on_c, 9, 36, 127
11, 52224, Note_off_c, 9, 36, 127
11, 52224, Note_on_c, 9, 36, 127
11, 52416, Note_off_c, 9, 36, 127
11, 52416, Note_on_c, 9, 36, 127
11, 52608, Note_off_c, 9, 36, 127
11, 52608, Note_on_c, 9, 36, 127
11, 52800, Note_off_c, 9, 36, 127
11, 52800, Note_on_c, 9, 36, 127
11, 52992, Note_off_c, 9, 36, 127
11, 55296, Note_on_c, 9, 36, 127
11, 55344, Note_off_c, 9, 36, 127
11, 55440, Note_on_c, 9, 36, 127
11, 55488, Note_off_c, 9, 36, 127
11, 55536, Note_on_c, 9, 36, 127
11, 55584, Note_off_c, 9, 36, 127
11, 55824, Note_on_c, 9, 36, 127
11, 55872, Note_off_c, 9, 36, 127
11, 56064, Note_on_c, 9, 36, 95
11, 56160, Note_off_c, 9, 36, 95
11, 56352, Note_on_c, 9, 36, 95
11, 56400, Note_off_c, 9, 36, 95
11, 56448, Note_on_c, 9, 36, 95
11, 56496, Note_off_c, 9, 36, 95
11, 56592, Note_on_c, 9, 36, 95
11, 56640, Note_off_c, 9, 36, 95
11, 56784, Note_on_c, 9, 36, 95
11, 56832, Note_off_c, 9, 36, 95
11, 56832, Note_on_c, 9, 36, 95
11, 56928, Note_off_c, 9, 36, 95
11, 57120, Note_on_c, 9, 36, 95
11, 57168, Note_off_c, 9, 36, 95
11, 57216, Note_on_c, 9, 36, 95
11, 57264, Note_off_c, 9, 36, 95
11, 57360, Note_on_c, 9, 36, 95
11, 57408, Note_off_c, 9, 36, 95
11, 57552, Note_on_c, 9, 36, 95
11, 57600, Note_off_c, 9, 36, 95
11, 57600, Note_on_c, 9, 36, 95
11, 57696, Note_off_c, 9, 36, 95
11, 57888, Note_on_c, 9, 36, 95
11, 57936, Note_off_c, 9, 36, 95
11, 57984, Note_on_c, 9, 36, 95
11, 58032, Note_off_c, 9, 36, 95
11, 58128, Note_on_c, 9, 36, 95
11, 58176, Note_off_c, 9, 36, 95
11, 58320, Note_on_c, 9, 36, 95
11, 58368, Note_off_c, 9, 36, 95
11, 58368, Note_on_c, 9, 36, 95
11, 58464, Note_off_c, 9, 36, 95
11, 58656, Note_on_c, 9, 36, 95
11, 58704, Note_off_c, 9, 36, 95
11, 58752, Note_on_c, 9, 36, 95
11, 58800, Note_off_c, 9, 36, 95
11, 58944, Note_on_c, 9, 36, 111
11, 58992, Note_off_c, 9, 36, 111
11, 58992, Note_on_c, 9, 36, 111
11, 59040, Note_off_c, 9, 36, 111
11, 59040, Note_on_c, 9, 36, 111
11, 59088, Note_off_c, 9, 36, 111
11, 59088, Note_on_c, 9, 36, 111
11, 59136, Note_off_c, 9, 36, 111
11, 59136, Note_on_c, 9, 36, 95
11, 59232, Note_off_c, 9, 36, 95
11, 59424, Note_on_c, 9, 36, 95
11, 59472, Note_off_c, 9, 36, 95
11, 59520, Note_on_c, 9, 36, 95
11, 59568, Note_off_c, 9, 36, 95
11, 59664, Note_on_c, 9, 36, 95
11, 59712, Note_off_c, 9, 36, 95
11, 59856, Note_on_c, 9, 36, 95
11, 59904, Note_off_c, 9, 36, 95
11, 59904, Note_on_c, 9, 36, 95
11, 60000, Note_off_c, 9, 36, 95
11, 60192, Note_on_c, 9, 36, 95
11, 60240, Note_off_c, 9, 36, 95
11, 60288, Note_on_c, 9, 36, 95
11, 60336, Note_off_c, 9, 36, 95
11, 60432, Note_on_c, 9, 36, 95
11, 60480, Note_off_c, 9, 36, 95
11, 60624, Note_on_c, 9, 36, 95
11, 60672, Note_off_c, 9, 36, 95
11, 60672, Note_on_c, 9, 36, 95
11, 60768, Note_off_c, 9, 36, 95
11, 60960, Note_on_c, 9, 36, 95
11, 61008, Note_off_c, 9, 36, 95
11, 61056, Note_on_c, 9, 36, 95
11, 61104, Note_off_c, 9, 36, 95
11, 61200, Note_on_c, 9, 36, 95
11, 61248, Note_off_c, 9, 36, 95
11, 61392, Note_on_c, 9, 36, 95
11, 61440, Note_off_c, 9, 36, 95
11, 61440, Note_on_c, 9, 36, 95
11, 61536, Note_off_c, 9, 36, 95
11, 61728, Note_on_c, 9, 36, 95
11, 61776, Note_off_c, 9, 36, 95
11, 61824, Note_on_c, 9, 36, 95
11, 61872, Note_off_c, 9, 36, 95
11, 62016, Note_on_c, 9, 36, 111
11, 62064, Note_off_c, 9, 36, 111
11, 62064, Note_on_c, 9, 36, 111
11, 62112, Note_off_c, 9, 36, 111
11, 62112, Note_on_c, 9, 36, 111
11, 62160, Note_off_c, 9, 36, 111
11, 62160, Note_on_c, 9, 36, 111
11, 62208, Note_off_c, 9, 36, 111
11, 62208, Note_on_c, 9, 36, 95
11, 62304, Note_off_c, 9, 36, 95
11, 62496, Note_on_c, 9, 36, 95
11, 62544, Note_off_c, 9, 36, 95
11, 62592, Note_on_c, 9, 36, 95
11, 62640, Note_off_c, 9, 36, 95
11, 62736, Note_on_c, 9, 36, 95
11, 62784, Note_off_c, 9, 36, 95
11, 62928, Note_on_c, 9, 36, 95
11, 62976, Note_off_c, 9, 36, 95
11, 62976, Note_on_c, 9, 36, 95
11, 63072, Note_off_c, 9, 36, 95
11, 63264, Note_on_c, 9, 36, 95
11, 63312, Note_off_c, 9, 36, 95
11, 63360, Note_on_c, 9, 36, 95
11, 63408, Note_off_c, 9, 36, 95
11, 63504, Note_on_c, 9, 36, 95
11, 63552, Note_off_c, 9, 36, 95
11, 63696, Note_on_c, 9, 36, 95
11, 63744, Note_off_c, 9, 36, 95
11, 63744, Note_on_c, 9, 36, 95
11, 63840, Note_off_c, 9, 36, 95
11, 64032, Note_on_c, 9, 36, 95
11, 64080, Note_off_c, 9, 36, 95
11, 64128, Note_on_c, 9, 36, 95
11, 64176, Note_off_c, 9, 36, 95
11, 64272, Note_on_c, 9, 36, 95
11, 64320, Note_off_c, 9, 36, 95
11, 64464, Note_on_c, 9, 36, 95
11, 64512, Note_off_c, 9, 36, 95
11, 64512, Note_on_c, 9, 36, 95
11, 64608, Note_off_c, 9, 36, 95
11, 64800, Note_on_c, 9, 36, 95
11, 64848, Note_off_c, 9, 36, 95
11, 64896, Note_on_c, 9, 36, 95
11, 64944, Note_off_c, 9, 36, 95
11, 65088, Note_on_c, 9, 36, 111
11, 65136, Note_off_c, 9, 36, 111
11, 65136, Note_on_c, 9, 36, 111
11, 65184, Note_off_c, 9, 36, 111
11, 65184, Note_on_c, 9, 36, 111
11, 65232, Note_off_c, 9, 36, 111
11, 65232, Note_on_c, 9, 36, 111
11, 65280, Note_off_c, 9, 36, 111
11, 65280, Note_on_c, 9, 36, 95
11, 65376, Note_off_c, 9, 36, 95
11, 65568, Note_on_c, 9, 36, 95
11, 65616, Note_off_c, 9, 36, 95
11, 65664, Note_on_c, 9, 36, 95
11, 65712, Note_off_c, 9, 36, 95
11, 65808, Note_on_c, 9, 36, 95
11, 65856, Note_off_c, 9, 36, 95
11, 66000, Note_on_c, 9, 36, 95
11, 66048, Note_off_c, 9, 36, 95
11, 66048, Note_on_c, 9, 36, 95
11, 66144, Note_off_c, 9, 36, 95
11, 66336, Note_on_c, 9, 36, 95
11, 66384, Note_off_c, 9, 36, 95
11, 66432, Note_on_c, 9, 36, 95
11, 66480, Note_off_c, 9, 36, 95
11, 66576, Note_on_c, 9, 36, 95
11, 66624, Note_off_c, 9, 36, 95
11, 66768, Note_on_c, 9, 36, 95
11, 66816, Note_off_c, 9, 36, 95
11, 66816, Note_on_c, 9, 36, 95
11, 66912, Note_off_c, 9, 36, 95
11, 67104, Note_on_c, 9, 36, 95
11, 67152, Note_off_c, 9, 36, 95
11, 67200, Note_on_c, 9, 36, 95
11, 67248, Note_off_c, 9, 36, 95
11, 67344, Note_on_c, 9, 36, 95
11, 67392, Note_off_c, 9, 36, 95
11, 67536, Note_on_c, 9, 36, 95
11, 67584, Note_off_c, 9, 36, 95
11, 67584, Note_on_c, 9, 36, 95
11, 67680, Note_off_c, 9, 36, 95
11, 67872, Note_on_c, 9, 36, 95
11, 67920, Note_off_c, 9, 36, 95
11, 67968, Note_on_c, 9, 36, 95
11, 68016, Note_off_c, 9, 36, 95
11, 68160, Note_on_c, 9, 36, 111
11, 68208, Note_off_c, 9, 36, 111
11, 68208, Note_on_c, 9, 36, 111
11, 68256, Note_off_c, 9, 36, 111
11, 68256, Note_on_c, 9, 36, 111
11, 68304, Note_off_c, 9, 36, 111
11, 68304, Note_on_c, 9, 36, 111
11, 68352, Note_off_c, 9, 36, 111
11, 68352, Note_on_c, 9, 36, 95
11, 68448, Note_off_c, 9, 36, 95
11, 68640, Note_on_c, 9, 36, 95
11, 68688, Note_off_c, 9, 36, 95
11, 68736, Note_on_c, 9, 36, 95
11, 68784, Note_off_c, 9, 36, 95
11, 68880, Note_on_c, 9, 36, 95
11, 68928, Note_off_c, 9, 36, 95
11, 69072, Note_on_c, 9, 36, 95
11, 69120, Note_off_c, 9, 36, 95
11, 69120, Note_on_c, 9, 36, 95
11, 69216, Note_off_c, 9, 36, 95
11, 69408, Note_on_c, 9, 36, 95
11, 69456, Note_off_c, 9, 36, 95
11, 69504, Note_on_c, 9, 36, 95
11, 69552, Note_off_c, 9, 36, 95
11, 69648, Note_on_c, 9, 36, 95
11, 69696, Note_off_c, 9, 36, 95
11, 69840, Note_on_c, 9, 36, 95
11, 69888, Note_off_c, 9, 36, 95
11, 69888, Note_on_c, 9, 36, 95
11, 69984, Note_off_c, 9, 36, 95
11, 70176, Note_on_c, 9, 36, 95
11, 70224, Note_off_c, 9, 36, 95
11, 70272, Note_on_c, 9, 36, 95
11, 70320, Note_off_c, 9, 36, 95
11, 70416, Note_on_c, 9, 36, 95
11, 70464, Note_off_c, 9, 36, 95
11, 70608, Note_on_c, 9, 36, 95
11, 70656, Note_off_c, 9, 36, 95
11, 70656, Note_on_c, 9, 36, 95
11, 70752, Note_off_c, 9, 36, 95
11, 70944, Note_on_c, 9, 36, 95
11, 70992, Note_off_c, 9, 36, 95
11, 71040, Note_on_c, 9, 36, 95
11, 71088, Note_off_c, 9, 36, 95
11, 71232, Note_on_c, 9, 36, 111
11, 71280, Note_off_c, 9, 36, 111
11, 71280, Note_on_c, 9, 36, 111
11, 71328, Note_off_c, 9, 36, 111
11, 71328, Note_on_c, 9, 36, 111
11, 71376, Note_off_c, 9, 36, 111
11, 71376, Note_on_c, 9, 36, 111
11, 71424, Note_off_c, 9, 36, 111
11, 71424, Note_on_c, 9, 36, 95
11, 71520, Note_off_c, 9, 36, 95
11, 71712, Note_on_c, 9, 36, 95
11, 71760, Note_off_c, 9, 36, 95
11, 71808, Note_on_c, 9, 36, 95
11, 71856, Note_off_c, 9, 36, 95
11, 71952, Note_on_c, 9, 36, 95
11, 72000, Note_off_c, 9, 36, 95
11, 72144, Note_on_c, 9, 36, 95
11, 72192, Note_off_c, 9, 36, 95
11, 72192, Note_on_c, 9, 36, 95
11, 72288, Note_off_c, 9, 36, 95
11, 72480, Note_on_c, 9, 36, 95
11, 72528, Note_off_c, 9, 36, 95
11, 72576, Note_on_c, 9, 36, 95
11, 72624, Note_off_c, 9, 36, 95
11, 72720, Note_on_c, 9, 36, 95
11, 72768, Note_off_c, 9, 36, 95
11, 72912, Note_on_c, 9, 36, 95
11, 72960, Note_off_c, 9, 36, 95
11, 72960, Note_on_c, 9, 36, 95
11, 73056, Note_off_c, 9, 36, 95
11, 73248, Note_on_c, 9, 36, 95
11, 73296, Note_off_c, 9, 36, 95
11, 73344, Note_on_c, 9, 36, 95
11, 73392, Note_off_c, 9, 36, 95
11, 73488, Note_on_c, 9, 36, 95
11, 73536, Note_off_c, 9, 36, 95
11, 73680, Note_on_c, 9, 36, 95
11, 73728, Note_off_c, 9, 36, 95
11, 73728, Note_on_c, 9, 36, 95
11, 73824, Note_off_c, 9, 36, 95
11, 74016, Note_on_c, 9, 36, 95
11, 74064, Note_off_c, 9, 36, 95
11, 74112, Note_on_c, 9, 36, 95
11, 74160, Note_off_c, 9, 36, 95
11, 74304, Note_on_c, 9, 36, 111
11, 74352, Note_off_c, 9, 36, 111
11, 74352, Note_on_c, 9, 36, 111
11, 74400, Note_off_c, 9, 36, 111
11, 74400, Note_on_c, 9, 36, 111
11, 74448, Note_off_c, 9, 36, 111
11, 74448, Note_on_c, 9, 36, 111
11, 74496, Note_off_c, 9, 36, 111
11, 74496, Note_on_c, 9, 36, 95
11, 74592, Note_off_c, 9, 36, 95
11, 74784, Note_on_c, 9, 36, 95
11, 74832, Note_off_c, 9, 36, 95
11, 74880, Note_on_c, 9, 36, 95
11, 74928, Note_off_c, 9, 36, 95
11, 75024, Note_on_c, 9, 36, 95
11, 75072, Note_off_c, 9, 36, 95
11, 75216, Note_on_c, 9, 36, 95
11, 75264, Note_off_c, 9, 36, 95
11, 75264, Note_on_c, 9, 36, 95
11, 75360, Note_off_c, 9, 36, 95
11, 75552, Note_on_c, 9, 36, 95
11, 75600, Note_off_c, 9, 36, 95
11, 75648, Note_on_c, 9, 36, 95
11, 75696, Note_off_c, 9, 36, 95
11, 75792, Note_on_c, 9, 36, 95
11, 75840, Note_off_c, 9, 36, 95
11, 75984, Note_on_c, 9, 36, 95
11, 76032, Note_off_c, 9, 36, 95
11, 76032, Note_on_c, 9, 36, 95
11, 76128, Note_off_c, 9, 36, 95
11, 76320, Note_on_c, 9, 36, 95
11, 76368, Note_off_c, 9, 36, 95
11, 76416, Note_on_c, 9, 36, 95
11, 76464, Note_off_c, 9, 36, 95
11, 76560, Note_on_c, 9, 36, 95
11, 76608, Note_off_c, 9, 36, 95
11, 76752, Note_on_c, 9, 36, 95
11, 76800, Note_off_c, 9, 36, 95
11, 76800, Note_on_c, 9, 36, 95
11, 76896, Note_off_c, 9, 36, 95
11, 77088, Note_on_c, 9, 36, 95
11, 77136, Note_off_c, 9, 36, 95
11, 77184, Note_on_c, 9, 36, 95
11, 77232, Note_off_c, 9, 36, 95
11, 77376, Note_on_c, 9, 36, 111
11, 77424, Note_off_c, 9, 36, 111
11, 77424, Note_on_c, 9, 36, 111
11, 77472, Note_off_c, 9, 36, 111
11, 77472, Note_on_c, 9, 36, 111
11, 77520, Note_off_c, 9, 36, 111
11, 77520, Note_on_c, 9, 36, 111
11, 77568, Note_off_c, 9, 36, 111
11, 77568, Note_on_c, 9, 36, 95
11, 77664, Note_off_c, 9, 36, 95
11, 77856, Control_c, 9, 7, 111
11, 77856, Note_on_c, 9, 36, 95
11, 77904, Note_off_c, 9, 36, 95
11, 77952, Control_c, 9, 7, 107
11, 77952, Note_on_c, 9, 36, 95
11, 78000, Note_off_c, 9, 36, 95
11, 78096, Control_c, 9, 7, 101
11, 78096, Note_on_c, 9, 36, 95
11, 78144, Note_off_c, 9, 36, 95
11, 78288, Control_c, 9, 7, 93
11, 78288, Note_on_c, 9, 36, 95
11, 78336, Note_off_c, 9, 36, 95
11, 78336, Note_on_c, 9, 36, 95
11, 78432, Note_off_c, 9, 36, 95
11, 78624, Note_on_c, 9, 36, 95
11, 78672, Note_off_c, 9, 36, 95
11, 78720, Note_on_c, 9, 36, 95
11, 78768, Note_off_c, 9, 36, 95
11, 78864, Control_c, 9, 7, 71
11, 78864, Note_on_c, 9, 36, 95
11, 78912, Note_off_c, 9, 36, 95
11, 79056, Note_on_c, 9, 36, 95
11, 79104, Note_off_c, 9, 36, 95
11, 79104, Control_c, 9, 7, 60
11, 79104, Note_on_c, 9, 36, 95
11, 79200, Note_off_c, 9, 36, 95
11, 79392, Note_on_c, 9, 36, 95
11, 79440, Note_off_c, 9, 36, 95
11, 79488, Note_on_c, 9, 36, 95
11, 79536, Note_off_c, 9, 36, 95
11, 79632, Note_on_c, 9, 36, 95
11, 79680, Note_off_c, 9, 36, 95
11, 79824, Control_c, 9, 7, 30
11, 79824, Note_on_c, 9, 36, 95
11, 79872, Note_off_c, 9, 36, 95
11, 79872, Note_on_c, 9, 36, 95
11, 79968, Note_off_c, 9, 36, 95
11, 80160, Control_c, 9, 7, 17
11, 80160, Note_on_c, 9, 36, 95
11, 80208, Note_off_c, 9, 36, 95
11, 80256, Control_c, 9, 7, 13
11, 80256, Note_on_c, 9, 36, 95
11, 80304, Note_off_c, 9, 36, 95
11, 80448, Note_on_c, 9, 36, 111
11, 80496, Note_off_c, 9, 36, 111
11, 80496, Control_c, 9, 7, 3
11, 80496, Note_on_c, 9, 36, 111
11, 80544, Note_off_c, 9, 36, 111
11, 80544, Note_on_c, 9, 36, 111
11, 80592, Note_off_c, 9, 36, 111
11, 80592, Control_c, 9, 7, 0
11, 80592, Note_on_c, 9, 36, 111
11, 80640, Note_off_c, 9, 36, 111
11, 80641, Control_c, 9, 123, 0
11, 80641, Control_c, 9, 120, 0
11, 80641, End_track
12, 0, Start_track
12, 0, MIDI_port, 0
12, 0, Unknown_meta_event, 9, 21, 77, 105, 99, 114, 111, 115, 111, 102, 116, 32, 77, 73, 68, 73, 32, 77, 97, 112, 112, 101, 114
12, 0, Title_t, "high Q-snare drum 2"
12, 6192, Note_on_c, 9, 40, 127
12, 6240, Note_off_c, 9, 40, 127
12, 6240, Note_on_c, 9, 40, 127
12, 6288, Note_off_c, 9, 40, 127
12, 6336, Note_on_c, 9, 40, 127
12, 6384, Note_off_c, 9, 40, 127
12, 6432, Note_on_c, 9, 40, 127
12, 6480, Note_off_c, 9, 40, 127
12, 6480, Note_on_c, 9, 40, 127
12, 6528, Note_off_c, 9, 40, 127
12, 6576, Note_on_c, 9, 40, 127
12, 6624, Note_off_c, 9, 40, 127
12, 6624, Note_on_c, 9, 40, 127
12, 6672, Note_off_c, 9, 40, 127
12, 6720, Note_on_c, 9, 40, 127
12, 6768, Note_off_c, 9, 40, 127
12, 6768, Note_on_c, 9, 40, 127
12, 6816, Note_off_c, 9, 40, 127
12, 6816, Note_on_c, 9, 40, 127
12, 6864, Note_off_c, 9, 40, 127
12, 6864, Note_on_c, 9, 40, 127
12, 6912, Note_off_c, 9, 40, 127
12, 7104, Note_on_c, 9, 40, 95
12, 7200, Note_off_c, 9, 40, 95
12, 7488, Note_on_c, 9, 40, 95
12, 7536, Note_off_c, 9, 40, 95
12, 7872, Note_on_c, 9, 40, 95
12, 7968, Note_off_c, 9, 40, 95
12, 8256, Note_on_c, 9, 40, 95
12, 8304, Note_off_c, 9, 40, 95
12, 8640, Note_on_c, 9, 40, 95
12, 8736, Note_off_c, 9, 40, 95
12, 9024, Note_on_c, 9, 40, 95
12, 9072, Note_off_c, 9, 40, 95
12, 9408, Note_on_c, 9, 40, 95
12, 9504, Note_off_c, 9, 40, 95
12, 9792, Note_on_c, 9, 40, 111
12, 9840, Note_off_c, 9, 40, 111
12, 9840, Note_on_c, 9, 40, 111
12, 9888, Note_off_c, 9, 40, 111
12, 9888, Note_on_c, 9, 40, 111
12, 9936, Note_off_c, 9, 40, 111
12, 9936, Note_on_c, 9, 40, 111
12, 9984, Note_off_c, 9, 40, 111
12, 10176, Note_on_c, 9, 40, 95
12, 10272, Note_off_c, 9, 40, 95
12, 10560, Note_on_c, 9, 40, 95
12, 10608, Note_off_c, 9, 40, 95
12, 10944, Note_on_c, 9, 40, 95
12, 11040, Note_off_c, 9, 40, 95
12, 11328, Note_on_c, 9, 40, 95
12, 11376, Note_off_c, 9, 40, 95
12, 11712, Note_on_c, 9, 40, 95
12, 11808, Note_off_c, 9, 40, 95
12, 12096, Note_on_c, 9, 40, 95
12, 12144, Note_off_c, 9, 40, 95
12, 12480, Note_on_c, 9, 40, 95
12, 12576, Note_off_c, 9, 40, 95
12, 12864, Note_on_c, 9, 40, 111
12, 12912, Note_off_c, 9, 40, 111
12, 12912, Note_on_c, 9, 40, 111
12, 12960, Note_off_c, 9, 40, 111
12, 12960, Note_on_c, 9, 40, 111
12, 13008, Note_off_c, 9, 40, 111
12, 13008, Note_on_c, 9, 40, 111
12, 13056, Note_off_c, 9, 40, 111
12, 13248, Note_on_c, 9, 40, 127
12, 13440, Note_off_c, 9, 40, 127
12, 13632, Note_on_c, 9, 40, 127
12, 13824, Note_off_c, 9, 40, 127
12, 14016, Note_on_c, 9, 40, 127
12, 14208, Note_off_c, 9, 40, 127
12, 14400, Note_on_c, 9, 40, 127
12, 14496, Note_off_c, 9, 40, 127
12, 14784, Note_on_c, 9, 40, 127
12, 14976, Note_off_c, 9, 40, 127
12, 15168, Note_on_c, 9, 40, 127
12, 15360, Note_off_c, 9, 40, 127
12, 15552, Note_on_c, 9, 40, 127
12, 15744, Note_off_c, 9, 40, 127
12, 15936, Note_on_c, 9, 40, 127
12, 15984, Note_off_c, 9, 40, 127
12, 15984, Note_on_c, 9, 40, 127
12, 16032, Note_off_c, 9, 40, 127
12, 16032, Note_on_c, 9, 40, 127
12, 16080, Note_off_c, 9, 40, 127
12, 16080, Note_on_c, 9, 40, 127
12, 16128, Note_off_c, 9, 40, 127
12, 16320, Note_on_c, 9, 40, 127
12, 16512, Note_off_c, 9, 40, 127
12, 16704, Note_on_c, 9, 40, 127
12, 16896, Note_off_c, 9, 40, 127
12, 17088, Note_on_c, 9, 40, 127
12, 17280, Note_off_c, 9, 40, 127
12, 17472, Note_on_c, 9, 40, 127
12, 17568, Note_off_c, 9, 40, 127
12, 17856, Note_on_c, 9, 40, 127
12, 18048, Note_off_c, 9, 40, 127
12, 18240, Note_on_c, 9, 40, 127
12, 18432, Note_off_c, 9, 40, 127
12, 18480, Note_on_c, 9, 40, 127
12, 18528, Note_off_c, 9, 40, 127
12, 18528, Note_on_c, 9, 40, 127
12, 18576, Note_off_c, 9, 40, 127
12, 18624, Note_on_c, 9, 40, 127
12, 18672, Note_off_c, 9, 40, 127
12, 18720, Note_on_c, 9, 40, 127
12, 18768, Note_off_c, 9, 40, 127
12, 18768, Note_on_c, 9, 40, 127
12, 18816, Note_off_c, 9, 40, 127
12, 18864, Note_on_c, 9, 40, 127
12, 18912, Note_off_c, 9, 40, 127
12, 18912, Note_on_c, 9, 40, 127
12, 18960, Note_off_c, 9, 40, 127
12, 19008, Note_on_c, 9, 40, 127
12, 19056, Note_off_c, 9, 40, 127
12, 19056, Note_on_c, 9, 40, 127
12, 19104, Note_off_c, 9, 40, 127
12, 19104, Note_on_c, 9, 40, 127
12, 19152, Note_off_c, 9, 40, 127
12, 19152, Note_on_c, 9, 40, 127
12, 19200, Note_off_c, 9, 40, 127
12, 19392, Note_on_c, 9, 40, 95
12, 19488, Note_off_c, 9, 40, 95
12, 19776, Note_on_c, 9, 40, 95
12, 19824, Note_off_c, 9, 40, 95
12, 20160, Note_on_c, 9, 40, 95
12, 20256, Note_off_c, 9, 40, 95
12, 20544, Note_on_c, 9, 40, 95
12, 20592, Note_off_c, 9, 40, 95
12, 20928, Note_on_c, 9, 40, 95
12, 21024, Note_off_c, 9, 40, 95
12, 21312, Note_on_c, 9, 40, 95
12, 21360, Note_off_c, 9, 40, 95
12, 21696, Note_on_c, 9, 40, 95
12, 21792, Note_off_c, 9, 40, 95
12, 22080, Note_on_c, 9, 40, 111
12, 22128, Note_off_c, 9, 40, 111
12, 22128, Note_on_c, 9, 40, 111
12, 22176, Note_off_c, 9, 40, 111
12, 22176, Note_on_c, 9, 40, 111
12, 22224, Note_off_c, 9, 40, 111
12, 22224, Note_on_c, 9, 40, 111
12, 22272, Note_off_c, 9, 40, 111
12, 22464, Note_on_c, 9, 40, 95
12, 22560, Note_off_c, 9, 40, 95
12, 22848, Note_on_c, 9, 40, 95
12, 22896, Note_off_c, 9, 40, 95
12, 23232, Note_on_c, 9, 40, 95
12, 23328, Note_off_c, 9, 40, 95
12, 23616, Note_on_c, 9, 40, 95
12, 23664, Note_off_c, 9, 40, 95
12, 24000, Note_on_c, 9, 40, 95
12, 24096, Note_off_c, 9, 40, 95
12, 24384, Note_on_c, 9, 40, 95
12, 24432, Note_off_c, 9, 40, 95
12, 24768, Note_on_c, 9, 40, 95
12, 24864, Note_off_c, 9, 40, 95
12, 25152, Note_on_c, 9, 40, 111
12, 25200, Note_off_c, 9, 40, 111
12, 25200, Note_on_c, 9, 40, 111
12, 25248, Note_off_c, 9, 40, 111
12, 25248, Note_on_c, 9, 40, 111
12, 25296, Note_off_c, 9, 40, 111
12, 25296, Note_on_c, 9, 40, 111
12, 25344, Note_off_c, 9, 40, 111
12, 25536, Note_on_c, 9, 40, 127
12, 25728, Note_off_c, 9, 40, 127
12, 25920, Note_on_c, 9, 40, 127
12, 26112, Note_off_c, 9, 40, 127
12, 26304, Note_on_c, 9, 40, 127
12, 26496, Note_off_c, 9, 40, 127
12, 26688, Note_on_c, 9, 40, 127
12, 26784, Note_off_c, 9, 40, 127
12, 27072, Note_on_c, 9, 40, 127
12, 27264, Note_off_c, 9, 40, 127
12, 27456, Note_on_c, 9, 40, 127
12, 27648, Note_off_c, 9, 40, 127
12, 27840, Note_on_c, 9, 40, 127
12, 28032, Note_off_c, 9, 40, 127
12, 28224, Note_on_c, 9, 40, 127
12, 28272, Note_off_c, 9, 40, 127
12, 28272, Note_on_c, 9, 40, 127
12, 28320, Note_off_c, 9, 40, 127
12, 28320, Note_on_c, 9, 40, 127
12, 28368, Note_off_c, 9, 40, 127
12, 28368, Note_on_c, 9, 40, 127
12, 28416, Note_off_c, 9, 40, 127
12, 28608, Note_on_c, 9, 40, 127
12, 28800, Note_off_c, 9, 40, 127
12, 28992, Note_on_c, 9, 40, 127
12, 29184, Note_off_c, 9, 40, 127
12, 29376, Note_on_c, 9, 40, 127
12, 29568, Note_off_c, 9, 40, 127
12, 29760, Note_on_c, 9, 40, 127
12, 29856, Note_off_c, 9, 40, 127
12, 30144, Note_on_c, 9, 40, 127
12, 30336, Note_off_c, 9, 40, 127
12, 30528, Note_on_c, 9, 40, 127
12, 30720, Note_off_c, 9, 40, 127
12, 30912, Note_on_c, 9, 40, 127
12, 31104, Note_off_c, 9, 40, 127
12, 31296, Note_on_c, 9, 40, 127
12, 31344, Note_off_c, 9, 40, 127
12, 31344, Note_on_c, 9, 40, 127
12, 31392, Note_off_c, 9, 40, 127
12, 31392, Note_on_c, 9, 40, 127
12, 31440, Note_off_c, 9, 40, 127
12, 31440, Note_on_c, 9, 40, 127
12, 31488, Note_off_c, 9, 40, 127
12, 31680, Note_on_c, 9, 40, 127
12, 31872, Note_off_c, 9, 40, 127
12, 32064, Note_on_c, 9, 40, 127
12, 32256, Note_off_c, 9, 40, 127
12, 32448, Note_on_c, 9, 40, 127
12, 32640, Note_off_c, 9, 40, 127
12, 32832, Note_on_c, 9, 40, 127
12, 32928, Note_off_c, 9, 40, 127
12, 33216, Note_on_c, 9, 40, 127
12, 33408, Note_off_c, 9, 40, 127
12, 33600, Note_on_c, 9, 40, 127
12, 33792, Note_off_c, 9, 40, 127
12, 33984, Note_on_c, 9, 40, 127
12, 34176, Note_off_c, 9, 40, 127
12, 34368, Note_on_c, 9, 40, 127
12, 34416, Note_off_c, 9, 40, 127
12, 34416, Note_on_c, 9, 40, 127
12, 34464, Note_off_c, 9, 40, 127
12, 34464, Note_on_c, 9, 40, 127
12, 34512, Note_off_c, 9, 40, 127
12, 34512, Note_on_c, 9, 40, 127
12, 34560, Note_off_c, 9, 40, 127
12, 34752, Note_on_c, 9, 40, 127
12, 34944, Note_off_c, 9, 40, 127
12, 35136, Note_on_c, 9, 40, 127
12, 35328, Note_off_c, 9, 40, 127
12, 35520, Note_on_c, 9, 40, 127
12, 35712, Note_off_c, 9, 40, 127
12, 35904, Note_on_c, 9, 40, 127
12, 36000, Note_off_c, 9, 40, 127
12, 36288, Note_on_c, 9, 40, 127
12, 36480, Note_off_c, 9, 40, 127
12, 36672, Note_on_c, 9, 40, 127
12, 36864, Note_off_c, 9, 40, 127
12, 36912, Note_on_c, 9, 40, 127
12, 36960, Note_off_c, 9, 40, 127
12, 36960, Note_on_c, 9, 40, 127
12, 37008, Note_off_c, 9, 40, 127
12, 37056, Note_on_c, 9, 40, 127
12, 37104, Note_off_c, 9, 40, 127
12, 37152, Note_on_c, 9, 40, 127
12, 37200, Note_off_c, 9, 40, 127
12, 37200, Note_on_c, 9, 40, 127
12, 37248, Note_off_c, 9, 40, 127
12, 37296, Note_on_c, 9, 40, 127
12, 37344, Note_off_c, 9, 40, 127
12, 37344, Note_on_c, 9, 40, 127
12, 37392, Note_off_c, 9, 40, 127
12, 37440, Note_on_c, 9, 40, 127
12, 37488, Note_off_c, 9, 40, 127
12, 37488, Note_on_c, 9, 40, 127
12, 37536, Note_off_c, 9, 40, 127
12, 37536, Note_on_c, 9, 40, 127
12, 37584, Note_off_c, 9, 40, 127
12, 37584, Note_on_c, 9, 40, 127
12, 37632, Note_off_c, 9, 40, 127
12, 37824, Note_on_c, 9, 40, 95
12, 37920, Note_off_c, 9, 40, 95
12, 38208, Note_on_c, 9, 40, 95
12, 38256, Note_off_c, 9, 40, 95
12, 38592, Note_on_c, 9, 40, 95
12, 38688, Note_off_c, 9, 40, 95
12, 38976, Note_on_c, 9, 40, 95
12, 39024, Note_off_c, 9, 40, 95
12, 39360, Note_on_c, 9, 40, 95
12, 39456, Note_off_c, 9, 40, 95
12, 39744, Note_on_c, 9, 40, 95
12, 39792, Note_off_c, 9, 40, 95
12, 40128, Note_on_c, 9, 40, 95
12, 40224, Note_off_c, 9, 40, 95
12, 40512, Note_on_c, 9, 40, 111
12, 40560, Note_off_c, 9, 40, 111
12, 40560, Note_on_c, 9, 40, 111
12, 40608, Note_off_c, 9, 40, 111
12, 40608, Note_on_c, 9, 40, 111
12, 40656, Note_off_c, 9, 40, 111
12, 40656, Note_on_c, 9, 40, 111
12, 40704, Note_off_c, 9, 40, 111
12, 40896, Note_on_c, 9, 40, 95
12, 40992, Note_off_c, 9, 40, 95
12, 41280, Note_on_c, 9, 40, 95
12, 41328, Note_off_c, 9, 40, 95
12, 41664, Note_on_c, 9, 40, 95
12, 41760, Note_off_c, 9, 40, 95
12, 42048, Note_on_c, 9, 40, 95
12, 42096, Note_off_c, 9, 40, 95
12, 42432, Note_on_c, 9, 40, 95
12, 42528, Note_off_c, 9, 40, 95
12, 42816, Note_on_c, 9, 40, 95
12, 42864, Note_off_c, 9, 40, 95
12, 43200, Note_on_c, 9, 40, 95
12, 43296, Note_off_c, 9, 40, 95
12, 43584, Note_on_c, 9, 40, 111
12, 43632, Note_off_c, 9, 40, 111
12, 43632, Note_on_c, 9, 40, 111
12, 43680, Note_off_c, 9, 40, 111
12, 43680, Note_on_c, 9, 40, 111
12, 43728, Note_off_c, 9, 40, 111
12, 43728, Note_on_c, 9, 40, 111
12, 43776, Note_off_c, 9, 40, 111
12, 55344, Note_on_c, 9, 40, 127
12, 55392, Note_off_c, 9, 40, 127
12, 55392, Note_on_c, 9, 40, 127
12, 55440, Note_off_c, 9, 40, 127
12, 55488, Note_on_c, 9, 40, 127
12, 55536, Note_off_c, 9, 40, 127
12, 55584, Note_on_c, 9, 40, 127
12, 55632, Note_off_c, 9, 40, 127
12, 55632, Note_on_c, 9, 40, 127
12, 55680, Note_off_c, 9, 40, 127
12, 55728, Note_on_c, 9, 40, 127
12, 55776, Note_off_c, 9, 40, 127
12, 55776, Note_on_c, 9, 40, 127
12, 55824, Note_off_c, 9, 40, 127
12, 55872, Note_on_c, 9, 40, 127
12, 55920, Note_off_c, 9, 40, 127
12, 55920, Note_on_c, 9, 40, 127
12, 55968, Note_off_c, 9, 40, 127
12, 55968, Note_on_c, 9, 40, 127
12, 56016, Note_off_c, 9, 40, 127
12, 56016, Note_on_c, 9, 40, 127
12, 56064, Note_off_c, 9, 40, 127
12, 56256, Note_on_c, 9, 40, 95
12, 56352, Note_off_c, 9, 40, 95
12, 56640, Note_on_c, 9, 40, 95
12, 56688, Note_off_c, 9, 40, 95
12, 57024, Note_on_c, 9, 40, 95
12, 57120, Note_off_c, 9, 40, 95
12, 57408, Note_on_c, 9, 40, 95
12, 57456, Note_off_c, 9, 40, 95
12, 57792, Note_on_c, 9, 40, 95
12, 57888, Note_off_c, 9, 40, 95
12, 58176, Note_on_c, 9, 40, 95
12, 58224, Note_off_c, 9, 40, 95
12, 58560, Note_on_c, 9, 40, 95
12, 58656, Note_off_c, 9, 40, 95
12, 58944, Note_on_c, 9, 40, 111
12, 58992, Note_off_c, 9, 40, 111
12, 58992, Note_on_c, 9, 40, 111
12, 59040, Note_off_c, 9, 40, 111
12, 59040, Note_on_c, 9, 40, 111
12, 59088, Note_off_c, 9, 40, 111
12, 59088, Note_on_c, 9, 40, 111
12, 59136, Note_off_c, 9, 40, 111
12, 59328, Note_on_c, 9, 40, 95
12, 59424, Note_off_c, 9, 40, 95
12, 59712, Note_on_c, 9, 40, 95
12, 59760, Note_off_c, 9, 40, 95
12, 60096, Note_on_c, 9, 40, 95
12, 60192, Note_off_c, 9, 40, 95
12, 60480, Note_on_c, 9, 40, 95
12, 60528, Note_off_c, 9, 40, 95
12, 60864, Note_on_c, 9, 40, 95
12, 60960, Note_off_c, 9, 40, 95
12, 61248, Note_on_c, 9, 40, 95
12, 61296, Note_off_c, 9, 40, 95
12, 61632, Note_on_c, 9, 40, 95
12, 61728, Note_off_c, 9, 40, 95
12, 62016, Note_on_c, 9, 40, 111
12, 62064, Note_off_c, 9, 40, 111
12, 62064, Note_on_c, 9, 40, 111
12, 62112, Note_off_c, 9, 40, 111
12, 62112, Note_on_c, 9, 40, 111
12, 62160, Note_off_c, 9, 40, 111
12, 62160, Note_on_c, 9, 40, 111
12, 62208, Note_off_c, 9, 40, 111
12, 62400, Note_on_c, 9, 40, 95
12, 62496, Note_off_c, 9, 40, 95
12, 62784, Note_on_c, 9, 40, 95
12, 62832, Note_off_c, 9, 40, 95
12, 63168, Note_on_c, 9, 40, 95
12, 63264, Note_off_c, 9, 40, 95
12, 63552, Note_on_c, 9, 40, 95
12, 63600, Note_off_c, 9, 40, 95
12, 63936, Note_on_c, 9, 40, 95
12, 64032, Note_off_c, 9, 40, 95
12, 64320, Note_on_c, 9, 40, 95
12, 64368, Note_off_c, 9, 40, 95
12, 64704, Note_on_c, 9, 40, 95
12, 64800, Note_off_c, 9, 40, 95
12, 65088, Note_on_c, 9, 40, 111
12, 65136, Note_off_c, 9, 40, 111
12, 65136, Note_on_c, 9, 40, 111
12, 65184, Note_off_c, 9, 40, 111
12, 65184, Note_on_c, 9, 40, 111
12, 65232, Note_off_c, 9, 40, 111
12, 65232, Note_on_c, 9, 40, 111
12, 65280, Note_off_c, 9, 40, 111
12, 65472, Note_on_c, 9, 40, 95
12, 65568, Note_off_c, 9, 40, 95
12, 65856, Note_on_c, 9, 40, 95
12, 65904, Note_off_c, 9, 40, 95
12, 66240, Note_on_c, 9, 40, 95
12, 66336, Note_off_c, 9, 40, 95
12, 66624, Note_on_c, 9, 40, 95
12, 66672, Note_off_c, 9, 40, 95
12, 67008, Note_on_c, 9, 40, 95
12, 67104, Note_off_c, 9, 40, 95
12, 67392, Note_on_c, 9, 40, 95
12, 67440, Note_off_c, 9, 40, 95
12, 67776, Note_on_c, 9, 40, 95
12, 67872, Note_off_c, 9, 40, 95
12, 68160, Note_on_c, 9, 40, 111
12, 68208, Note_off_c, 9, 40, 111
12, 68208, Note_on_c, 9, 40, 111
12, 68256, Note_off_c, 9, 40, 111
12, 68256, Note_on_c, 9, 40, 111
12, 68304, Note_off_c, 9, 40, 111
12, 68304, Note_on_c, 9, 40, 111
12, 68352, Note_off_c, 9, 40, 111
12, 68544, Note_on_c, 9, 40, 95
12, 68640, Note_off_c, 9, 40, 95
12, 68928, Note_on_c, 9, 40, 95
12, 68976, Note_off_c, 9, 40, 95
12, 69312, Note_on_c, 9, 40, 95
12, 69408, Note_off_c, 9, 40, 95
12, 69696, Note_on_c, 9, 40, 95
12, 69744, Note_off_c, 9, 40, 95
12, 70080, Note_on_c, 9, 40, 95
12, 70176, Note_off_c, 9, 40, 95
12, 70464, Note_on_c, 9, 40, 95
12, 70512, Note_off_c, 9, 40, 95
12, 70848, Note_on_c, 9, 40, 95
12, 70944, Note_off_c, 9, 40, 95
12, 71232, Note_on_c, 9, 40, 111
12, 71280, Note_off_c, 9, 40, 111
12, 71280, Note_on_c, 9, 40, 111
12, 71328, Note_off_c, 9, 40, 111
12, 71328, Note_on_c, 9, 40, 111
12, 71376, Note_off_c, 9, 40, 111
12, 71376, Note_on_c, 9, 40, 111
12, 71424, Note_off_c, 9, 40, 111
12, 71616, Note_on_c, 9, 40, 95
12, 71712, Note_off_c, 9, 40, 95
12, 72000, Note_on_c, 9, 40, 95
12, 72048, Note_off_c, 9, 40, 95
12, 72384, Note_on_c, 9, 40, 95
12, 72480, Note_off_c, 9, 40, 95
12, 72768, Note_on_c, 9, 40, 95
12, 72816, Note_off_c, 9, 40, 95
12, 73152, Note_on_c, 9, 40, 95
12, 73248, Note_off_c, 9, 40, 95
12, 73536, Note_on_c, 9, 40, 95
12, 73584, Note_off_c, 9, 40, 95
12, 73920, Note_on_c, 9, 40, 95
12, 74016, Note_off_c, 9, 40, 95
12, 74304, Note_on_c, 9, 40, 111
12, 74352, Note_off_c, 9, 40, 111
12, 74352, Note_on_c, 9, 40, 111
12, 74400, Note_off_c, 9, 40, 111
12, 74400, Note_on_c, 9, 40, 111
12, 74448, Note_off_c, 9, 40, 111
12, 74448, Note_on_c, 9, 40, 111
12, 74496, Note_off_c, 9, 40, 111
12, 74688, Note_on_c, 9, 40, 95
12, 74784, Note_off_c, 9, 40, 95
12, 75072, Note_on_c, 9, 40, 95
12, 75120, Note_off_c, 9, 40, 95
12, 75456, Note_on_c, 9, 40, 95
12, 75552, Note_off_c, 9, 40, 95
12, 75840, Note_on_c, 9, 40, 95
12, 75888, Note_off_c, 9, 40, 95
12, 76224, Note_on_c, 9, 40, 95
12, 76320, Note_off_c, 9, 40, 95
12, 76608, Note_on_c, 9, 40, 95
12, 76656, Note_off_c, 9, 40, 95
12, 76992, Note_on_c, 9, 40, 95
12, 77088, Note_off_c, 9, 40, 95
12, 77376, Note_on_c, 9, 40, 111
12, 77424, Note_off_c, 9, 40, 111
12, 77424, Note_on_c, 9, 40, 111
12, 77472, Note_off_c, 9, 40, 111
12, 77472, Note_on_c, 9, 40, 111
12, 77520, Note_off_c, 9, 40, 111
12, 77520, Note_on_c, 9, 40, 111
12, 77568, Note_off_c, 9, 40, 111
12, 77760, Control_c, 9, 7, 115
12, 77760, Note_on_c, 9, 40, 95
12, 77856, Note_off_c, 9, 40, 95
12, 78144, Note_on_c, 9, 40, 95
12, 78192, Note_off_c, 9, 40, 95
12, 78528, Control_c, 9, 7, 85
12, 78528, Note_on_c, 9, 40, 95
12, 78624, Note_off_c, 9, 40, 95
12, 78912, Control_c, 9, 7, 68
12, 78912, Note_on_c, 9, 40, 95
12, 78960, Note_off_c, 9, 40, 95
12, 79296, Note_on_c, 9, 40, 95
12, 79392, Note_off_c, 9, 40, 95
12, 79680, Control_c, 9, 7, 36
12, 79680, Note_on_c, 9, 40, 95
12, 79728, Note_off_c, 9, 40, 95
12, 80064, Control_c, 9, 7, 21
12, 80064, Note_on_c, 9, 40, 95
12, 80160, Note_off_c, 9, 40, 95
12, 80448, Note_on_c, 9, 40, 111
12, 80496, Note_off_c, 9, 40, 111
12, 80496, Note_on_c, 9, 40, 111
12, 80544, Note_off_c, 9, 40, 111
12, 80544, Note_on_c, 9, 40, 111
12, 80592, Note_off_c, 9, 40, 111
12, 80592, Note_on_c, 9, 40, 111
12, 80640, Note_off_c, 9, 40, 111
12, 80641, Control_c, 9, 123, 0
12, 80641, Control_c, 9, 120, 0
12, 80641, End_track
13, 0, Start_track
13, 0, MIDI_port, 0
13, 0, Unknown_meta_event, 9, 21, 77, 105, 99, 114, 111, 115, 111, 102, 116, 32, 77, 73, 68, 73, 32, 77, 97, 112, 112, 101, 114
13, 0, Title_t, "high Q-low tom 1"
13, 7200, Note_on_c, 9, 43, 95
13, 7248, Note_off_c, 9, 43, 95
13, 7392, Note_on_c, 9, 43, 95
13, 7440, Note_off_c, 9, 43, 95
13, 7968, Note_on_c, 9, 43, 95
13, 8016, Note_off_c, 9, 43, 95
13, 8160, Note_on_c, 9, 43, 95
13, 8208, Note_off_c, 9, 43, 95
13, 8736, Note_on_c, 9, 43, 95
13, 8784, Note_off_c, 9, 43, 95
13, 8928, Note_on_c, 9, 43, 95
13, 8976, Note_off_c, 9, 43, 95
13, 9504, Note_on_c, 9, 43, 95
13, 9552, Note_off_c, 9, 43, 95
13, 9696, Note_on_c, 9, 43, 95
13, 9744, Note_off_c, 9, 43, 95
13, 9744, Note_on_c, 9, 43, 95
13, 9792, Note_off_c, 9, 43, 95
13, 10272, Note_on_c, 9, 43, 95
13, 10320, Note_off_c, 9, 43, 95
13, 10464, Note_on_c, 9, 43, 95
13, 10512, Note_off_c, 9, 43, 95
13, 11040, Note_on_c, 9, 43, 95
13, 11088, Note_off_c, 9, 43, 95
13, 11232, Note_on_c, 9, 43, 95
13, 11280, Note_off_c, 9, 43, 95
13, 11808, Note_on_c, 9, 43, 95
13, 11856, Note_off_c, 9, 43, 95
13, 12000, Note_on_c, 9, 43, 95
13, 12048, Note_off_c, 9, 43, 95
13, 12576, Note_on_c, 9, 43, 95
13, 12624, Note_off_c, 9, 43, 95
13, 12768, Note_on_c, 9, 43, 95
13, 12816, Note_off_c, 9, 43, 95
13, 12816, Note_on_c, 9, 43, 95
13, 12864, Note_off_c, 9, 43, 95
13, 14496, Note_on_c, 9, 43, 101
13, 14544, Note_off_c, 9, 43, 101
13, 14544, Note_on_c, 9, 43, 101
13, 14592, Note_off_c, 9, 43, 101
13, 17568, Note_on_c, 9, 43, 101
13, 17616, Note_off_c, 9, 43, 101
13, 17616, Note_on_c, 9, 43, 101
13, 17664, Note_off_c, 9, 43, 101
13, 19488, Note_on_c, 9, 43, 95
13, 19536, Note_off_c, 9, 43, 95
13, 19680, Note_on_c, 9, 43, 95
13, 19728, Note_off_c, 9, 43, 95
13, 20256, Note_on_c, 9, 43, 95
13, 20304, Note_off_c, 9, 43, 95
13, 20448, Note_on_c, 9, 43, 95
13, 20496, Note_off_c, 9, 43, 95
13, 21024, Note_on_c, 9, 43, 95
13, 21072, Note_off_c, 9, 43, 95
13, 21216, Note_on_c, 9, 43, 95
13, 21264, Note_off_c, 9, 43, 95
13, 21792, Note_on_c, 9, 43, 95
13, 21840, Note_off_c, 9, 43, 95
13, 21984, Note_on_c, 9, 43, 95
13, 22032, Note_off_c, 9, 43, 95
13, 22032, Note_on_c, 9, 43, 95
13, 22080, Note_off_c, 9, 43, 95
13, 22560, Note_on_c, 9, 43, 95
13, 22608, Note_off_c, 9, 43, 95
13, 22752, Note_on_c, 9, 43, 95
13, 22800, Note_off_c, 9, 43, 95
13, 23328, Note_on_c, 9, 43, 95
13, 23376, Note_off_c, 9, 43, 95
13, 23520, Note_on_c, 9, 43, 95
13, 23568, Note_off_c, 9, 43, 95
13, 24096, Note_on_c, 9, 43, 95
13, 24144, Note_off_c, 9, 43, 95
13, 24288, Note_on_c, 9, 43, 95
13, 24336, Note_off_c, 9, 43, 95
13, 24864, Note_on_c, 9, 43, 95
13, 24912, Note_off_c, 9, 43, 95
13, 25056, Note_on_c, 9, 43, 95
13, 25104, Note_off_c, 9, 43, 95
13, 25104, Note_on_c, 9, 43, 95
13, 25152, Note_off_c, 9, 43, 95
13, 26784, Note_on_c, 9, 43, 101
13, 26832, Note_off_c, 9, 43, 101
13, 26832, Note_on_c, 9, 43, 101
13, 26880, Note_off_c, 9, 43, 101
13, 29856, Note_on_c, 9, 43, 101
13, 29904, Note_off_c, 9, 43, 101
13, 29904, Note_on_c, 9, 43, 101
13, 29952, Note_off_c, 9, 43, 101
13, 32928, Note_on_c, 9, 43, 101
13, 32976, Note_off_c, 9, 43, 101
13, 32976, Note_on_c, 9, 43, 101
13, 33024, Note_off_c, 9, 43, 101
13, 36000, Note_on_c, 9, 43, 101
13, 36048, Note_off_c, 9, 43, 101
13, 36048, Note_on_c, 9, 43, 101
13, 36096, Note_off_c, 9, 43, 101
13, 37920, Note_on_c, 9, 43, 95
13, 37968, Note_off_c, 9, 43, 95
13, 38112, Note_on_c, 9, 43, 95
13, 38160, Note_off_c, 9, 43, 95
13, 38688, Note_on_c, 9, 43, 95
13, 38736, Note_off_c, 9, 43, 95
13, 38880, Note_on_c, 9, 43, 95
13, 38928, Note_off_c, 9, 43, 95
13, 39456, Note_on_c, 9, 43, 95
13, 39504, Note_off_c, 9, 43, 95
13, 39648, Note_on_c, 9, 43, 95
13, 39696, Note_off_c, 9, 43, 95
13, 40224, Note_on_c, 9, 43, 95
13, 40272, Note_off_c, 9, 43, 95
13, 40416, Note_on_c, 9, 43, 95
13, 40464, Note_off_c, 9, 43, 95
13, 40464, Note_on_c, 9, 43, 95
13, 40512, Note_off_c, 9, 43, 95
13, 40992, Note_on_c, 9, 43, 95
13, 41040, Note_off_c, 9, 43, 95
13, 41184, Note_on_c, 9, 43, 95
13, 41232, Note_off_c, 9, 43, 95
13, 41760, Note_on_c, 9, 43, 95
13, 41808, Note_off_c, 9, 43, 95
13, 41952, Note_on_c, 9, 43, 95
13, 42000, Note_off_c, 9, 43, 95
13, 42528, Note_on_c, 9, 43, 95
13, 42576, Note_off_c, 9, 43, 95
13, 42720, Note_on_c, 9, 43, 95
13, 42768, Note_off_c, 9, 43, 95
13, 43296, Note_on_c, 9, 43, 95
13, 43344, Note_off_c, 9, 43, 95
13, 43488, Note_on_c, 9, 43, 95
13, 43536, Note_off_c, 9, 43, 95
13, 43536, Note_on_c, 9, 43, 95
13, 43584, Note_off_c, 9, 43, 95
13, 56352, Note_on_c, 9, 43, 95
13, 56400, Note_off_c, 9, 43, 95
13, 56544, Note_on_c, 9, 43, 95
13, 56592, Note_off_c, 9, 43, 95
13, 57120, Note_on_c, 9, 43, 95
13, 57168, Note_off_c, 9, 43, 95
13, 57312, Note_on_c, 9, 43, 95
13, 57360, Note_off_c, 9, 43, 95
13, 57888, Note_on_c, 9, 43, 95
13, 57936, Note_off_c, 9, 43, 95
13, 58080, Note_on_c, 9, 43, 95
13, 58128, Note_off_c, 9, 43, 95
13, 58656, Note_on_c, 9, 43, 95
13, 58704, Note_off_c, 9, 43, 95
13, 58848, Note_on_c, 9, 43, 95
13, 58896, Note_off_c, 9, 43, 95
13, 58896, Note_on_c, 9, 43, 95
13, 58944, Note_off_c, 9, 43, 95
13, 59424, Note_on_c, 9, 43, 95
13, 59472, Note_off_c, 9, 43, 95
13, 59616, Note_on_c, 9, 43, 95
13, 59664, Note_off_c, 9, 43, 95
13, 60192, Note_on_c, 9, 43, 95
13, 60240, Note_off_c, 9, 43, 95
13, 60384, Note_on_c, 9, 43, 95
13, 60432, Note_off_c, 9, 43, 95
13, 60960, Note_on_c, 9, 43, 95
13, 61008, Note_off_c, 9, 43, 95
13, 61152, Note_on_c, 9, 43, 95
13, 61200, Note_off_c, 9, 43, 95
13, 61728, Note_on_c, 9, 43, 95
13, 61776, Note_off_c, 9, 43, 95
13, 61920, Note_on_c, 9, 43, 95
13, 61968, Note_off_c, 9, 43, 95
13, 61968, Note_on_c, 9, 43, 95
13, 62016, Note_off_c, 9, 43, 95
13, 62496, Note_on_c, 9, 43, 95
13, 62544, Note_off_c, 9, 43, 95
13, 62688, Note_on_c, 9, 43, 95
13, 62736, Note_off_c, 9, 43, 95
13, 63264, Note_on_c, 9, 43, 95
13, 63312, Note_off_c, 9, 43, 95
13, 63456, Note_on_c, 9, 43, 95
13, 63504, Note_off_c, 9, 43, 95
13, 64032, Note_on_c, 9, 43, 95
13, 64080, Note_off_c, 9, 43, 95
13, 64224, Note_on_c, 9, 43, 95
13, 64272, Note_off_c, 9, 43, 95
13, 64800, Note_on_c, 9, 43, 95
13, 64848, Note_off_c, 9, 43, 95
13, 64992, Note_on_c, 9, 43, 95
13, 65040, Note_off_c, 9, 43, 95
13, 65040, Note_on_c, 9, 43, 95
13, 65088, Note_off_c, 9, 43, 95
13, 65568, Note_on_c, 9, 43, 95
13, 65616, Note_off_c, 9, 43, 95
13, 65760, Note_on_c, 9, 43, 95
13, 65808, Note_off_c, 9, 43, 95
13, 66336, Note_on_c, 9, 43, 95
13, 66384, Note_off_c, 9, 43, 95
13, 66528, Note_on_c, 9, 43, 95
13, 66576, Note_off_c, 9, 43, 95
13, 67104, Note_on_c, 9, 43, 95
13, 67152, Note_off_c, 9, 43, 95
13, 67296, Note_on_c, 9, 43, 95
13, 67344, Note_off_c, 9, 43, 95
13, 67872, Note_on_c, 9, 43, 95
13, 67920, Note_off_c, 9, 43, 95
13, 68064, Note_on_c, 9, 43, 95
13, 68112, Note_off_c, 9, 43, 95
13, 68112, Note_on_c, 9, 43, 95
13, 68160, Note_off_c, 9, 43, 95
13, 68640, Note_on_c, 9, 43, 95
13, 68688, Note_off_c, 9, 43, 95
13, 68832, Note_on_c, 9, 43, 95
13, 68880, Note_off_c, 9, 43, 95
13, 69408, Note_on_c, 9, 43, 95
13, 69456, Note_off_c, 9, 43, 95
13, 69600, Note_on_c, 9, 43, 95
13, 69648, Note_off_c, 9, 43, 95
13, 70176, Note_on_c, 9, 43, 95
13, 70224, Note_off_c, 9, 43, 95
13, 70368, Note_on_c, 9, 43, 95
13, 70416, Note_off_c, 9, 43, 95
13, 70944, Note_on_c, 9, 43, 95
13, 70992, Note_off_c, 9, 43, 95
13, 71136, Note_on_c, 9, 43, 95
13, 71184, Note_off_c, 9, 43, 95
13, 71184, Note_on_c, 9, 43, 95
13, 71232, Note_off_c, 9, 43, 95
13, 71712, Note_on_c, 9, 43, 95
13, 71760, Note_off_c, 9, 43, 95
13, 71904, Note_on_c, 9, 43, 95
13, 71952, Note_off_c, 9, 43, 95
13, 72480, Note_on_c, 9, 43, 95
13, 72528, Note_off_c, 9, 43, 95
13, 72672, Note_on_c, 9, 43, 95
13, 72720, Note_off_c, 9, 43, 95
13, 73248, Note_on_c, 9, 43, 95
13, 73296, Note_off_c, 9, 43, 95
13, 73440, Note_on_c, 9, 43, 95
13, 73488, Note_off_c, 9, 43, 95
13, 74016, Note_on_c, 9, 43, 95
13, 74064, Note_off_c, 9, 43, 95
13, 74208, Note_on_c, 9, 43, 95
13, 74256, Note_off_c, 9, 43, 95
13, 74256, Note_on_c, 9, 43, 95
13, 74304, Note_off_c, 9, 43, 95
13, 74784, Note_on_c, 9, 43, 95
13, 74832, Note_off_c, 9, 43, 95
13, 74976, Note_on_c, 9, 43, 95
13, 75024, Note_off_c, 9, 43, 95
13, 75552, Note_on_c, 9, 43, 95
13, 75600, Note_off_c, 9, 43, 95
13, 75744, Note_on_c, 9, 43, 95
13, 75792, Note_off_c, 9, 43, 95
13, 76320, Note_on_c, 9, 43, 95
13, 76368, Note_off_c, 9, 43, 95
13, 76512, Note_on_c, 9, 43, 95
13, 76560, Note_off_c, 9, 43, 95
13, 77088, Note_on_c, 9, 43, 95
13, 77136, Note_off_c, 9, 43, 95
13, 77280, Note_on_c, 9, 43, 95
13, 77328, Note_off_c, 9, 43, 95
13, 77328, Note_on_c, 9, 43, 95
13, 77376, Note_off_c, 9, 43, 95
13, 77856, Note_on_c, 9, 43, 95
13, 77904, Note_off_c, 9, 43, 95
13, 78048, Control_c, 9, 7, 104
13, 78048, Note_on_c, 9, 43, 95
13, 78096, Note_off_c, 9, 43, 95
13, 78624, Note_on_c, 9, 43, 95
13, 78672, Note_off_c, 9, 43, 95
13, 78816, Note_on_c, 9, 43, 95
13, 78864, Note_off_c, 9, 43, 95
13, 79392, Note_on_c, 9, 43, 95
13, 79440, Note_off_c, 9, 43, 95
13, 79584, Control_c, 9, 7, 40
13, 79584, Note_on_c, 9, 43, 95
13, 79632, Note_off_c, 9, 43, 95
13, 80160, Note_on_c, 9, 43, 95
13, 80208, Note_off_c, 9, 43, 95
13, 80352, Control_c, 9, 7, 10
13, 80352, Note_on_c, 9, 43, 95
13, 80400, Note_off_c, 9, 43, 95
13, 80400, Control_c, 9, 7, 7
13, 80400, Note_on_c, 9, 43, 95
13, 80448, Note_off_c, 9, 43, 95
13, 80641, Control_c, 9, 123, 0
13, 80641, Control_c, 9, 120, 0
13, 80641, End_track
14, 0, Start_track
14, 0, MIDI_port, 0
14, 0, Unknown_meta_event, 9, 21, 77, 105, 99, 114, 111, 115, 111, 102, 116, 32, 77, 73, 68, 73, 32, 77, 97, 112, 112, 101, 114
14, 0, Title_t, "high Q-closed hi-hat"
14, 0, Program_c, 9, 0
14, 0, Control_c, 9, 101, 0
14, 0, Control_c, 9, 100, 0
14, 0, Control_c, 9, 6, 24
14, 0, Control_c, 9, 7, 127
14, 0, Pitch_bend_c, 9, 8192
14, 0, Control_c, 9, 10, 64
14, 0, Note_on_c, 9, 42, 100
14, 192, Note_off_c, 9, 42, 100
14, 192, Note_on_c, 9, 42, 100
14, 384, Note_off_c, 9, 42, 100
14, 384, Note_on_c, 9, 42, 100
14, 576, Note_off_c, 9, 42, 100
14, 576, Note_on_c, 9, 42, 100
14, 768, Note_off_c, 9, 42, 100
14, 80641, Control_c, 9, 123, 0
14, 80641, Control_c, 9, 120, 0
14, 80641, End_track
15, 0, Start_track
15, 0, MIDI_port, 0
15, 0, Unknown_meta_event, 9, 21, 77, 105, 99, 114, 111, 115, 111, 102, 116, 32, 77, 73, 68, 73, 32, 77, 97, 112, 112, 101, 114
15, 0, Title_t, "high Q-pedal hi-hat"
15, 6576, Note_on_c, 9, 44, 127
15, 6624, Note_off_c, 9, 44, 127
15, 18864, Note_on_c, 9, 44, 127
15, 18912, Note_off_c, 9, 44, 127
15, 37296, Note_on_c, 9, 44, 127
15, 37344, Note_off_c, 9, 44, 127
15, 55728, Note_on_c, 9, 44, 127
15, 55776, Note_off_c, 9, 44, 127
15, 80641, Control_c, 9, 123, 0
15, 80641, Control_c, 9, 120, 0
15, 80641, End_track
16, 0, Start_track
16, 0, MIDI_port, 0
16, 0, Unknown_meta_event, 9, 21, 77, 105, 99, 114, 111, 115, 111, 102, 116, 32, 77, 73, 68, 73, 32, 77, 97, 112, 112, 101, 114
16, 0, Title_t, "high Q-open hi-hat"
16, 6528, Note_on_c, 9, 46, 127
16, 6576, Note_off_c, 9, 46, 127
16, 7008, Note_on_c, 9, 46, 95
16, 7104, Note_off_c, 9, 46, 95
16, 7200, Note_on_c, 9, 46, 111
16, 7248, Note_off_c, 9, 46, 111
16, 7392, Note_on_c, 9, 46, 111
16, 7440, Note_off_c, 9, 46, 111
16, 7584, Note_on_c, 9, 46, 111
16, 7632, Note_off_c, 9, 46, 111
16, 7776, Note_on_c, 9, 46, 95
16, 7872, Note_off_c, 9, 46, 95
16, 7968, Note_on_c, 9, 46, 111
16, 8016, Note_off_c, 9, 46, 111
16, 8160, Note_on_c, 9, 46, 111
16, 8208, Note_off_c, 9, 46, 111
16, 8352, Note_on_c, 9, 46, 111
16, 8400, Note_off_c, 9, 46, 111
16, 8544, Note_on_c, 9, 46, 95
16, 8640, Note_off_c, 9, 46, 95
16, 8736, Note_on_c, 9, 46, 111
16, 8784, Note_off_c, 9, 46, 111
16, 8928, Note_on_c, 9, 46, 111
16, 8976, Note_off_c, 9, 46, 111
16, 9120, Note_on_c, 9, 46, 111
16, 9168, Note_off_c, 9, 46, 111
16, 9312, Note_on_c, 9, 46, 95
16, 9408, Note_off_c, 9, 46, 95
16, 9504, Note_on_c, 9, 46, 111
16, 9552, Note_off_c, 9, 46, 111
16, 9696, Note_on_c, 9, 46, 111
16, 9744, Note_off_c, 9, 46, 111
16, 10080, Note_on_c, 9, 46, 95
16, 10176, Note_off_c, 9, 46, 95
16, 10272, Note_on_c, 9, 46, 111
16, 10320, Note_off_c, 9, 46, 111
16, 10464, Note_on_c, 9, 46, 111
16, 10512, Note_off_c, 9, 46, 111
16, 10656, Note_on_c, 9, 46, 111
16, 10704, Note_off_c, 9, 46, 111
16, 10848, Note_on_c, 9, 46, 95
16, 10944, Note_off_c, 9, 46, 95
16, 11040, Note_on_c, 9, 46, 111
16, 11088, Note_off_c, 9, 46, 111
16, 11232, Note_on_c, 9, 46, 111
16, 11280, Note_off_c, 9, 46, 111
16, 11424, Note_on_c, 9, 46, 111
16, 11472, Note_off_c, 9, 46, 111
16, 11616, Note_on_c, 9, 46, 95
16, 11712, Note_off_c, 9, 46, 95
16, 11808, Note_on_c, 9, 46, 111
16, 11856, Note_off_c, 9, 46, 111
16, 12000, Note_on_c, 9, 46, 111
16, 12048, Note_off_c, 9, 46, 111
16, 12192, Note_on_c, 9, 46, 111
16, 12240, Note_off_c, 9, 46, 111
16, 12384, Note_on_c, 9, 46, 95
16, 12480, Note_off_c, 9, 46, 95
16, 12576, Note_on_c, 9, 46, 111
16, 12624, Note_off_c, 9, 46, 111
16, 12768, Note_on_c, 9, 46, 111
16, 12816, Note_off_c, 9, 46, 111
16, 18816, Note_on_c, 9, 46, 127
16, 18864, Note_off_c, 9, 46, 127
16, 19296, Note_on_c, 9, 46, 95
16, 19392, Note_off_c, 9, 46, 95
16, 19488, Note_on_c, 9, 46, 111
16, 19536, Note_off_c, 9, 46, 111
16, 19680, Note_on_c, 9, 46, 111
16, 19728, Note_off_c, 9, 46, 111
16, 19872, Note_on_c, 9, 46, 111
16, 19920, Note_off_c, 9, 46, 111
16, 20064, Note_on_c, 9, 46, 95
16, 20160, Note_off_c, 9, 46, 95
16, 20256, Note_on_c, 9, 46, 111
16, 20304, Note_off_c, 9, 46, 111
16, 20448, Note_on_c, 9, 46, 111
16, 20496, Note_off_c, 9, 46, 111
16, 20640, Note_on_c, 9, 46, 111
16, 20688, Note_off_c, 9, 46, 111
16, 20832, Note_on_c, 9, 46, 95
16, 20928, Note_off_c, 9, 46, 95
16, 21024, Note_on_c, 9, 46, 111
16, 21072, Note_off_c, 9, 46, 111
16, 21216, Note_on_c, 9, 46, 111
16, 21264, Note_off_c, 9, 46, 111
16, 21408, Note_on_c, 9, 46, 111
16, 21456, Note_off_c, 9, 46, 111
16, 21600, Note_on_c, 9, 46, 95
16, 21696, Note_off_c, 9, 46, 95
16, 21792, Note_on_c, 9, 46, 111
16, 21840, Note_off_c, 9, 46, 111
16, 21984, Note_on_c, 9, 46, 111
16, 22032, Note_off_c, 9, 46, 111
16, 22368, Note_on_c, 9, 46, 95
16, 22464, Note_off_c, 9, 46, 95
16, 22560, Note_on_c, 9, 46, 111
16, 22608, Note_off_c, 9, 46, 111
16, 22752, Note_on_c, 9, 46, 111
16, 22800, Note_off_c, 9, 46, 111
16, 22944, Note_on_c, 9, 46, 111
16, 22992, Note_off_c, 9, 46, 111
16, 23136, Note_on_c, 9, 46, 95
16, 23232, Note_off_c, 9, 46, 95
16, 23328, Note_on_c, 9, 46, 111
16, 23376, Note_off_c, 9, 46, 111
16, 23520, Note_on_c, 9, 46, 111
16, 23568, Note_off_c, 9, 46, 111
16, 23712, Note_on_c, 9, 46, 111
16, 23760, Note_off_c, 9, 46, 111
16, 23904, Note_on_c, 9, 46, 95
16, 24000, Note_off_c, 9, 46, 95
16, 24096, Note_on_c, 9, 46, 111
16, 24144, Note_off_c, 9, 46, 111
16, 24288, Note_on_c, 9, 46, 111
16, 24336, Note_off_c, 9, 46, 111
16, 24480, Note_on_c, 9, 46, 111
16, 24528, Note_off_c, 9, 46, 111
16, 24672, Note_on_c, 9, 46, 95
16, 24768, Note_off_c, 9, 46, 95
16, 24864, Note_on_c, 9, 46, 111
16, 24912, Note_off_c, 9, 46, 111
16, 25056, Note_on_c, 9, 46, 111
16, 25104, Note_off_c, 9, 46, 111
16, 37248, Note_on_c, 9, 46, 127
16, 37296, Note_off_c, 9, 46, 127
16, 37728, Note_on_c, 9, 46, 95
16, 37824, Note_off_c, 9, 46, 95
16, 37920, Note_on_c, 9, 46, 111
16, 37968, Note_off_c, 9, 46, 111
16, 38112, Note_on_c, 9, 46, 111
16, 38160, Note_off_c, 9, 46, 111
16, 38304, Note_on_c, 9, 46, 111
16, 38352, Note_off_c, 9, 46, 111
16, 38496, Note_on_c, 9, 46, 95
16, 38592, Note_off_c, 9, 46, 95
16, 38688, Note_on_c, 9, 46, 111
16, 38736, Note_off_c, 9, 46, 111
16, 38880, Note_on_c, 9, 46, 111
16, 38928, Note_off_c, 9, 46, 111
16, 39072, Note_on_c, 9, 46, 111
16, 39120, Note_off_c, 9, 46, 111
16, 39264, Note_on_c, 9, 46, 95
16, 39360, Note_off_c, 9, 46, 95
16, 39456, Note_on_c, 9, 46, 111
16, 39504, Note_off_c, 9, 46, 111
16, 39648, Note_on_c, 9, 46, 111
16, 39696, Note_off_c, 9, 46, 111
16, 39840, Note_on_c, 9, 46, 111
16, 39888, Note_off_c, 9, 46, 111
16, 40032, Note_on_c, 9, 46, 95
16, 40128, Note_off_c, 9, 46, 95
16, 40224, Note_on_c, 9, 46, 111
16, 40272, Note_off_c, 9, 46, 111
16, 40416, Note_on_c, 9, 46, 111
16, 40464, Note_off_c, 9, 46, 111
16, 40800, Note_on_c, 9, 46, 95
16, 40896, Note_off_c, 9, 46, 95
16, 40992, Note_on_c, 9, 46, 111
16, 41040, Note_off_c, 9, 46, 111
16, 41184, Note_on_c, 9, 46, 111
16, 41232, Note_off_c, 9, 46, 111
16, 41376, Note_on_c, 9, 46, 111
16, 41424, Note_off_c, 9, 46, 111
16, 41568, Note_on_c, 9, 46, 95
16, 41664, Note_off_c, 9, 46, 95
16, 41760, Note_on_c, 9, 46, 111
16, 41808, Note_off_c, 9, 46, 111
16, 41952, Note_on_c, 9, 46, 111
16, 42000, Note_off_c, 9, 46, 111
16, 42144, Note_on_c, 9, 46, 111
16, 42192, Note_off_c, 9, 46, 111
16, 42336, Note_on_c, 9, 46, 95
16, 42432, Note_off_c, 9, 46, 95
16, 42528, Note_on_c, 9, 46, 111
16, 42576, Note_off_c, 9, 46, 111
16, 42720, Note_on_c, 9, 46, 111
16, 42768, Note_off_c, 9, 46, 111
16, 42912, Note_on_c, 9, 46, 111
16, 42960, Note_off_c, 9, 46, 111
16, 43104, Note_on_c, 9, 46, 95
16, 43200, Note_off_c, 9, 46, 95
16, 43296, Note_on_c, 9, 46, 111
16, 43344, Note_off_c, 9, 46, 111
16, 43488, Note_on_c, 9, 46, 111
16, 43536, Note_off_c, 9, 46, 111
16, 55680, Note_on_c, 9, 46, 127
16, 55728, Note_off_c, 9, 46, 127
16, 56160, Note_on_c, 9, 46, 95
16, 56256, Note_off_c, 9, 46, 95
16, 56352, Note_on_c, 9, 46, 111
16, 56400, Note_off_c, 9, 46, 111
16, 56544, Note_on_c, 9, 46, 111
16, 56592, Note_off_c, 9, 46, 111
16, 56736, Note_on_c, 9, 46, 111
16, 56784, Note_off_c, 9, 46, 111
16, 56928, Note_on_c, 9, 46, 95
16, 57024, Note_off_c, 9, 46, 95
16, 57120, Note_on_c, 9, 46, 111
16, 57168, Note_off_c, 9, 46, 111
16, 57312, Note_on_c, 9, 46, 111
16, 57360, Note_off_c, 9, 46, 111
16, 57504, Note_on_c, 9, 46, 111
16, 57552, Note_off_c, 9, 46, 111
16, 57696, Note_on_c, 9, 46, 95
16, 57792, Note_off_c, 9, 46, 95
16, 57888, Note_on_c, 9, 46, 111
16, 57936, Note_off_c, 9, 46, 111
16, 58080, Note_on_c, 9, 46, 111
16, 58128, Note_off_c, 9, 46, 111
16, 58272, Note_on_c, 9, 46, 111
16, 58320, Note_off_c, 9, 46, 111
16, 58464, Note_on_c, 9, 46, 95
16, 58560, Note_off_c, 9, 46, 95
16, 58656, Note_on_c, 9, 46, 111
16, 58704, Note_off_c, 9, 46, 111
16, 58848, Note_on_c, 9, 46, 111
16, 58896, Note_off_c, 9, 46, 111
16, 59232, Note_on_c, 9, 46, 95
16, 59328, Note_off_c, 9, 46, 95
16, 59424, Note_on_c, 9, 46, 111
16, 59472, Note_off_c, 9, 46, 111
16, 59616, Note_on_c, 9, 46, 111
16, 59664, Note_off_c, 9, 46, 111
16, 59808, Note_on_c, 9, 46, 111
16, 59856, Note_off_c, 9, 46, 111
16, 60000, Note_on_c, 9, 46, 95
16, 60096, Note_off_c, 9, 46, 95
16, 60192, Note_on_c, 9, 46, 111
16, 60240, Note_off_c, 9, 46, 111
16, 60384, Note_on_c, 9, 46, 111
16, 60432, Note_off_c, 9, 46, 111
16, 60576, Note_on_c, 9, 46, 111
16, 60624, Note_off_c, 9, 46, 111
16, 60768, Note_on_c, 9, 46, 95
16, 60864, Note_off_c, 9, 46, 95
16, 60960, Note_on_c, 9, 46, 111
16, 61008, Note_off_c, 9, 46, 111
16, 61152, Note_on_c, 9, 46, 111
16, 61200, Note_off_c, 9, 46, 111
16, 61344, Note_on_c, 9, 46, 111
16, 61392, Note_off_c, 9, 46, 111
16, 61536, Note_on_c, 9, 46, 95
16, 61632, Note_off_c, 9, 46, 95
16, 61728, Note_on_c, 9, 46, 111
16, 61776, Note_off_c, 9, 46, 111
16, 61920, Note_on_c, 9, 46, 111
16, 61968, Note_off_c, 9, 46, 111
16, 62304, Note_on_c, 9, 46, 95
16, 62400, Note_off_c, 9, 46, 95
16, 62496, Note_on_c, 9, 46, 111
16, 62544, Note_off_c, 9, 46, 111
16, 62688, Note_on_c, 9, 46, 111
16, 62736, Note_off_c, 9, 46, 111
16, 62880, Note_on_c, 9, 46, 111
16, 62928, Note_off_c, 9, 46, 111
16, 63072, Note_on_c, 9, 46, 95
16, 63168, Note_off_c, 9, 46, 95
16, 63264, Note_on_c, 9, 46, 111
16, 63312, Note_off_c, 9, 46, 111
16, 63456, Note_on_c, 9, 46, 111
16, 63504, Note_off_c, 9, 46, 111
16, 63648, Note_on_c, 9, 46, 111
16, 63696, Note_off_c, 9, 46, 111
16, 63840, Note_on_c, 9, 46, 95
16, 63936, Note_off_c, 9, 46, 95
16, 64032, Note_on_c, 9, 46, 111
16, 64080, Note_off_c, 9, 46, 111
16, 64224, Note_on_c, 9, 46, 111
16, 64272, Note_off_c, 9, 46, 111
16, 64416, Note_on_c, 9, 46, 111
16, 64464, Note_off_c, 9, 46, 111
16, 64608, Note_on_c, 9, 46, 95
16, 64704, Note_off_c, 9, 46, 95
16, 64800, Note_on_c, 9, 46, 111
16, 64848, Note_off_c, 9, 46, 111
16, 64992, Note_on_c, 9, 46, 111
16, 65040, Note_off_c, 9, 46, 111
16, 65376, Note_on_c, 9, 46, 95
16, 65472, Note_off_c, 9, 46, 95
16, 65568, Note_on_c, 9, 46, 111
16, 65616, Note_off_c, 9, 46, 111
16, 65760, Note_on_c, 9, 46, 111
16, 65808, Note_off_c, 9, 46, 111
16, 65952, Note_on_c, 9, 46, 111
16, 66000, Note_off_c, 9, 46, 111
16, 66144, Note_on_c, 9, 46, 95
16, 66240, Note_off_c, 9, 46, 95
16, 66336, Note_on_c, 9, 46, 111
16, 66384, Note_off_c, 9, 46, 111
16, 66528, Note_on_c, 9, 46, 111
16, 66576, Note_off_c, 9, 46, 111
16, 66720, Note_on_c, 9, 46, 111
16, 66768, Note_off_c, 9, 46, 111
16, 66912, Note_on_c, 9, 46, 95
16, 67008, Note_off_c, 9, 46, 95
16, 67104, Note_on_c, 9, 46, 111
16, 67152, Note_off_c, 9, 46, 111
16, 67296, Note_on_c, 9, 46, 111
16, 67344, Note_off_c, 9, 46, 111
16, 67488, Note_on_c, 9, 46, 111
16, 67536, Note_off_c, 9, 46, 111
16, 67680, Note_on_c, 9, 46, 95
16, 67776, Note_off_c, 9, 46, 95
16, 67872, Note_on_c, 9, 46, 111
16, 67920, Note_off_c, 9, 46, 111
16, 68064, Note_on_c, 9, 46, 111
16, 68112, Note_off_c, 9, 46, 111
16, 68448, Note_on_c, 9, 46, 95
16, 68544, Note_off_c, 9, 46, 95
16, 68640, Note_on_c, 9, 46, 111
16, 68688, Note_off_c, 9, 46, 111
16, 68832, Note_on_c, 9, 46, 111
16, 68880, Note_off_c, 9, 46, 111
16, 69024, Note_on_c, 9, 46, 111
16, 69072, Note_off_c, 9, 46, 111
16, 69216, Note_on_c, 9, 46, 95
16, 69312, Note_off_c, 9, 46, 95
16, 69408, Note_on_c, 9, 46, 111
16, 69456, Note_off_c, 9, 46, 111
16, 69600, Note_on_c, 9, 46, 111
16, 69648, Note_off_c, 9, 46, 111
16, 69792, Note_on_c, 9, 46, 111
16, 69840, Note_off_c, 9, 46, 111
16, 69984, Note_on_c, 9, 46, 95
16, 70080, Note_off_c, 9, 46, 95
16, 70176, Note_on_c, 9, 46, 111
16, 70224, Note_off_c, 9, 46, 111
16, 70368, Note_on_c, 9, 46, 111
16, 70416, Note_off_c, 9, 46, 111
16, 70560, Note_on_c, 9, 46, 111
16, 70608, Note_off_c, 9, 46, 111
16, 70752, Note_on_c, 9, 46, 95
16, 70848, Note_off_c, 9, 46, 95
16, 70944, Note_on_c, 9, 46, 111
16, 70992, Note_off_c, 9, 46, 111
16, 71136, Note_on_c, 9, 46, 111
16, 71184, Note_off_c, 9, 46, 111
16, 71520, Note_on_c, 9, 46, 95
16, 71616, Note_off_c, 9, 46, 95
16, 71712, Note_on_c, 9, 46, 111
16, 71760, Note_off_c, 9, 46, 111
16, 71904, Note_on_c, 9, 46, 111
16, 71952, Note_off_c, 9, 46, 111
16, 72096, Note_on_c, 9, 46, 111
16, 72144, Note_off_c, 9, 46, 111
16, 72288, Note_on_c, 9, 46, 95
16, 72384, Note_off_c, 9, 46, 95
16, 72480, Note_on_c, 9, 46, 111
16, 72528, Note_off_c, 9, 46, 111
16, 72672, Note_on_c, 9, 46, 111
16, 72720, Note_off_c, 9, 46, 111
16, 72864, Note_on_c, 9, 46, 111
16, 72912, Note_off_c, 9, 46, 111
16, 73056, Note_on_c, 9, 46, 95
16, 73152, Note_off_c, 9, 46, 95
16, 73248, Note_on_c, 9, 46, 111
16, 73296, Note_off_c, 9, 46, 111
16, 73440, Note_on_c, 9, 46, 111
16, 73488, Note_off_c, 9, 46, 111
16, 73632, Note_on_c, 9, 46, 111
16, 73680, Note_off_c, 9, 46, 111
16, 73824, Note_on_c, 9, 46, 95
16, 73920, Note_off_c, 9, 46, 95
16, 74016, Note_on_c, 9, 46, 111
16, 74064, Note_off_c, 9, 46, 111
16, 74208, Note_on_c, 9, 46, 111
16, 74256, Note_off_c, 9, 46, 111
16, 74592, Note_on_c, 9, 46, 95
16, 74688, Note_off_c, 9, 46, 95
16, 74784, Note_on_c, 9, 46, 111
16, 74832, Note_off_c, 9, 46, 111
16, 74976, Note_on_c, 9, 46, 111
16, 75024, Note_off_c, 9, 46, 111
16, 75168, Note_on_c, 9, 46, 111
16, 75216, Note_off_c, 9, 46, 111
16, 75360, Note_on_c, 9, 46, 95
16, 75456, Note_off_c, 9, 46, 95
16, 75552, Note_on_c, 9, 46, 111
16, 75600, Note_off_c, 9, 46, 111
16, 75744, Note_on_c, 9, 46, 111
16, 75792, Note_off_c, 9, 46, 111
16, 75936, Note_on_c, 9, 46, 111
16, 75984, Note_off_c, 9, 46, 111
16, 76128, Note_on_c, 9, 46, 95
16, 76224, Note_off_c, 9, 46, 95
16, 76320, Note_on_c, 9, 46, 111
16, 76368, Note_off_c, 9, 46, 111
16, 76512, Note_on_c, 9, 46, 111
16, 76560, Note_off_c, 9, 46, 111
16, 76704, Note_on_c, 9, 46, 111
16, 76752, Note_off_c, 9, 46, 111
16, 76896, Note_on_c, 9, 46, 95
16, 76992, Note_off_c, 9, 46, 95
16, 77088, Note_on_c, 9, 46, 111
16, 77136, Note_off_c, 9, 46, 111
16, 77280, Note_on_c, 9, 46, 111
16, 77328, Note_off_c, 9, 46, 111
16, 77664, Note_on_c, 9, 46, 95
16, 77760, Note_off_c, 9, 46, 95
16, 77856, Note_on_c, 9, 46, 111
16, 77904, Note_off_c, 9, 46, 111
16, 78048, Note_on_c, 9, 46, 111
16, 78096, Note_off_c, 9, 46, 111
16, 78240, Note_on_c, 9, 46, 111
16, 78288, Note_off_c, 9, 46, 111
16, 78432, Control_c, 9, 7, 88
16, 78432, Note_on_c, 9, 46, 95
16, 78528, Note_off_c, 9, 46, 95
16, 78624, Note_on_c, 9, 46, 111
16, 78672, Note_off_c, 9, 46, 111
16, 78816, Note_on_c, 9, 46, 111
16, 78864, Note_off_c, 9, 46, 111
16, 79008, Control_c, 9, 7, 64
16, 79008, Note_on_c, 9, 46, 111
16, 79056, Note_off_c, 9, 46, 111
16, 79200, Control_c, 9, 7, 57
16, 79200, Note_on_c, 9, 46, 95
16, 79296, Note_off_c, 9, 46, 95
16, 79392, Note_on_c, 9, 46, 111
16, 79440, Note_off_c, 9, 46, 111
16, 79584, Note_on_c, 9, 46, 111
16, 79632, Note_off_c, 9, 46, 111
16, 79776, Control_c, 9, 7, 33
16, 79776, Note_on_c, 9, 46, 111
16, 79824, Note_off_c, 9, 46, 111
16, 79968, Note_on_c, 9, 46, 95
16, 80064, Note_off_c, 9, 46, 95
16, 80160, Note_on_c, 9, 46, 111
16, 80208, Note_off_c, 9, 46, 111
16, 80352, Note_on_c, 9, 46, 111
16, 80400, Note_off_c, 9, 46, 111
16, 80641, Control_c, 9, 123, 0
16, 80641, Control_c, 9, 120, 0
16, 80641, End_track
17, 0, Start_track
17, 0, MIDI_port, 0
17, 0, Unknown_meta_event, 9, 21, 77, 105, 99, 114, 111, 115, 111, 102, 116, 32, 77, 73, 68, 73, 32, 77, 97, 112, 112, 101, 114
17, 0, Title_t, "high Q-crash cymbal 1"
17, 6912, Note_on_c, 9, 49, 95
17, 7008, Note_off_c, 9, 49, 95
17, 7104, Note_on_c, 9, 49, 95
17, 7200, Note_off_c, 9, 49, 95
17, 7296, Note_on_c, 9, 49, 95
17, 7344, Note_off_c, 9, 49, 95
17, 7488, Note_on_c, 9, 49, 95
17, 7536, Note_off_c, 9, 49, 95
17, 7680, Note_on_c, 9, 49, 95
17, 7776, Note_off_c, 9, 49, 95
17, 7872, Note_on_c, 9, 49, 95
17, 7968, Note_off_c, 9, 49, 95
17, 8064, Note_on_c, 9, 49, 95
17, 8112, Note_off_c, 9, 49, 95
17, 8256, Note_on_c, 9, 49, 95
17, 8304, Note_off_c, 9, 49, 95
17, 8448, Note_on_c, 9, 49, 95
17, 8544, Note_off_c, 9, 49, 95
17, 8640, Note_on_c, 9, 49, 95
17, 8736, Note_off_c, 9, 49, 95
17, 8832, Note_on_c, 9, 49, 95
17, 8880, Note_off_c, 9, 49, 95
17, 9024, Note_on_c, 9, 49, 95
17, 9072, Note_off_c, 9, 49, 95
17, 9216, Note_on_c, 9, 49, 95
17, 9312, Note_off_c, 9, 49, 95
17, 9408, Note_on_c, 9, 49, 95
17, 9504, Note_off_c, 9, 49, 95
17, 9600, Note_on_c, 9, 49, 95
17, 9648, Note_off_c, 9, 49, 95
17, 9984, Note_on_c, 9, 49, 95
17, 10080, Note_off_c, 9, 49, 95
17, 10176, Note_on_c, 9, 49, 95
17, 10272, Note_off_c, 9, 49, 95
17, 10368, Note_on_c, 9, 49, 95
17, 10416, Note_off_c, 9, 49, 95
17, 10560, Note_on_c, 9, 49, 95
17, 10608, Note_off_c, 9, 49, 95
17, 10752, Note_on_c, 9, 49, 95
17, 10848, Note_off_c, 9, 49, 95
17, 10944, Note_on_c, 9, 49, 95
17, 11040, Note_off_c, 9, 49, 95
17, 11136, Note_on_c, 9, 49, 95
17, 11184, Note_off_c, 9, 49, 95
17, 11328, Note_on_c, 9, 49, 95
17, 11376, Note_off_c, 9, 49, 95
17, 11520, Note_on_c, 9, 49, 95
17, 11616, Note_off_c, 9, 49, 95
17, 11712, Note_on_c, 9, 49, 95
17, 11808, Note_off_c, 9, 49, 95
17, 11904, Note_on_c, 9, 49, 95
17, 11952, Note_off_c, 9, 49, 95
17, 12096, Note_on_c, 9, 49, 95
17, 12144, Note_off_c, 9, 49, 95
17, 12288, Note_on_c, 9, 49, 95
17, 12384, Note_off_c, 9, 49, 95
17, 12480, Note_on_c, 9, 49, 95
17, 12576, Note_off_c, 9, 49, 95
17, 12672, Note_on_c, 9, 49, 95
17, 12720, Note_off_c, 9, 49, 95
17, 13056, Note_on_c, 9, 49, 127
17, 13248, Note_off_c, 9, 49, 127
17, 16128, Note_on_c, 9, 49, 127
17, 16320, Note_off_c, 9, 49, 127
17, 19200, Note_on_c, 9, 49, 95
17, 19296, Note_off_c, 9, 49, 95
17, 19392, Note_on_c, 9, 49, 95
17, 19488, Note_off_c, 9, 49, 95
17, 19584, Note_on_c, 9, 49, 95
17, 19632, Note_off_c, 9, 49, 95
17, 19776, Note_on_c, 9, 49, 95
17, 19824, Note_off_c, 9, 49, 95
17, 19968, Note_on_c, 9, 49, 95
17, 20064, Note_off_c, 9, 49, 95
17, 20160, Note_on_c, 9, 49, 95
17, 20256, Note_off_c, 9, 49, 95
17, 20352, Note_on_c, 9, 49, 95
17, 20400, Note_off_c, 9, 49, 95
17, 20544, Note_on_c, 9, 49, 95
17, 20592, Note_off_c, 9, 49, 95
17, 20736, Note_on_c, 9, 49, 95
17, 20832, Note_off_c, 9, 49, 95
17, 20928, Note_on_c, 9, 49, 95
17, 21024, Note_off_c, 9, 49, 95
17, 21120, Note_on_c, 9, 49, 95
17, 21168, Note_off_c, 9, 49, 95
17, 21312, Note_on_c, 9, 49, 95
17, 21360, Note_off_c, 9, 49, 95
17, 21504, Note_on_c, 9, 49, 95
17, 21600, Note_off_c, 9, 49, 95
17, 21696, Note_on_c, 9, 49, 95
17, 21792, Note_off_c, 9, 49, 95
17, 21888, Note_on_c, 9, 49, 95
17, 21936, Note_off_c, 9, 49, 95
17, 22272, Note_on_c, 9, 49, 95
17, 22368, Note_off_c, 9, 49, 95
17, 22464, Note_on_c, 9, 49, 95
17, 22560, Note_off_c, 9, 49, 95
17, 22656, Note_on_c, 9, 49, 95
17, 22704, Note_off_c, 9, 49, 95
17, 22848, Note_on_c, 9, 49, 95
17, 22896, Note_off_c, 9, 49, 95
17, 23040, Note_on_c, 9, 49, 95
17, 23136, Note_off_c, 9, 49, 95
17, 23232, Note_on_c, 9, 49, 95
17, 23328, Note_off_c, 9, 49, 95
17, 23424, Note_on_c, 9, 49, 95
17, 23472, Note_off_c, 9, 49, 95
17, 23616, Note_on_c, 9, 49, 95
17, 23664, Note_off_c, 9, 49, 95
17, 23808, Note_on_c, 9, 49, 95
17, 23904, Note_off_c, 9, 49, 95
17, 24000, Note_on_c, 9, 49, 95
17, 24096, Note_off_c, 9, 49, 95
17, 24192, Note_on_c, 9, 49, 95
17, 24240, Note_off_c, 9, 49, 95
17, 24384, Note_on_c, 9, 49, 95
17, 24432, Note_off_c, 9, 49, 95
17, 24576, Note_on_c, 9, 49, 95
17, 24672, Note_off_c, 9, 49, 95
17, 24768, Note_on_c, 9, 49, 95
17, 24864, Note_off_c, 9, 49, 95
17, 24960, Note_on_c, 9, 49, 95
17, 25008, Note_off_c, 9, 49, 95
17, 25344, Note_on_c, 9, 49, 127
17, 25536, Note_off_c, 9, 49, 127
17, 28416, Note_on_c, 9, 49, 127
17, 28608, Note_off_c, 9, 49, 127
17, 31488, Note_on_c, 9, 49, 127
17, 31680, Note_off_c, 9, 49, 127
17, 34560, Note_on_c, 9, 49, 127
17, 34752, Note_off_c, 9, 49, 127
17, 37632, Note_on_c, 9, 49, 95
17, 37728, Note_off_c, 9, 49, 95
17, 37824, Note_on_c, 9, 49, 95
17, 37920, Note_off_c, 9, 49, 95
17, 38016, Note_on_c, 9, 49, 95
17, 38064, Note_off_c, 9, 49, 95
17, 38208, Note_on_c, 9, 49, 95
17, 38256, Note_off_c, 9, 49, 95
17, 38400, Note_on_c, 9, 49, 95
17, 38496, Note_off_c, 9, 49, 95
17, 38592, Note_on_c, 9, 49, 95
17, 38688, Note_off_c, 9, 49, 95
17, 38784, Note_on_c, 9, 49, 95
17, 38832, Note_off_c, 9, 49, 95
17, 38976, Note_on_c, 9, 49, 95
17, 39024, Note_off_c, 9, 49, 95
17, 39168, Note_on_c, 9, 49, 95
17, 39264, Note_off_c, 9, 49, 95
17, 39360, Note_on_c, 9, 49, 95
17, 39456, Note_off_c, 9, 49, 95
17, 39552, Note_on_c, 9, 49, 95
17, 39600, Note_off_c, 9, 49, 95
17, 39744, Note_on_c, 9, 49, 95
17, 39792, Note_off_c, 9, 49, 95
17, 39936, Note_on_c, 9, 49, 95
17, 40032, Note_off_c, 9, 49, 95
17, 40128, Note_on_c, 9, 49, 95
17, 40224, Note_off_c, 9, 49, 95
17, 40320, Note_on_c, 9, 49, 95
17, 40368, Note_off_c, 9, 49, 95
17, 40704, Note_on_c, 9, 49, 95
17, 40800, Note_off_c, 9, 49, 95
17, 40896, Note_on_c, 9, 49, 95
17, 40992, Note_off_c, 9, 49, 95
17, 41088, Note_on_c, 9, 49, 95
17, 41136, Note_off_c, 9, 49, 95
17, 41280, Note_on_c, 9, 49, 95
17, 41328, Note_off_c, 9, 49, 95
17, 41472, Note_on_c, 9, 49, 95
17, 41568, Note_off_c, 9, 49, 95
17, 41664, Note_on_c, 9, 49, 95
17, 41760, Note_off_c, 9, 49, 95
17, 41856, Note_on_c, 9, 49, 95
17, 41904, Note_off_c, 9, 49, 95
17, 42048, Note_on_c, 9, 49, 95
17, 42096, Note_off_c, 9, 49, 95
17, 42240, Note_on_c, 9, 49, 95
17, 42336, Note_off_c, 9, 49, 95
17, 42432, Note_on_c, 9, 49, 95
17, 42528, Note_off_c, 9, 49, 95
17, 42624, Note_on_c, 9, 49, 95
17, 42672, Note_off_c, 9, 49, 95
17, 42816, Note_on_c, 9, 49, 95
17, 42864, Note_off_c, 9, 49, 95
17, 43008, Note_on_c, 9, 49, 95
17, 43104, Note_off_c, 9, 49, 95
17, 43200, Note_on_c, 9, 49, 95
17, 43296, Note_off_c, 9, 49, 95
17, 43392, Note_on_c, 9, 49, 95
17, 43440, Note_off_c, 9, 49, 95
17, 43776, Note_on_c, 9, 49, 127
17, 43968, Note_off_c, 9, 49, 127
17, 56064, Note_on_c, 9, 49, 95
17, 56160, Note_off_c, 9, 49, 95
17, 56256, Note_on_c, 9, 49, 95
17, 56352, Note_off_c, 9, 49, 95
17, 56448, Note_on_c, 9, 49, 95
17, 56496, Note_off_c, 9, 49, 95
17, 56640, Note_on_c, 9, 49, 95
17, 56688, Note_off_c, 9, 49, 95
17, 56832, Note_on_c, 9, 49, 95
17, 56928, Note_off_c, 9, 49, 95
17, 57024, Note_on_c, 9, 49, 95
17, 57120, Note_off_c, 9, 49, 95
17, 57216, Note_on_c, 9, 49, 95
17, 57264, Note_off_c, 9, 49, 95
17, 57408, Note_on_c, 9, 49, 95
17, 57456, Note_off_c, 9, 49, 95
17, 57600, Note_on_c, 9, 49, 95
17, 57696, Note_off_c, 9, 49, 95
17, 57792, Note_on_c, 9, 49, 95
17, 57888, Note_off_c, 9, 49, 95
17, 57984, Note_on_c, 9, 49, 95
17, 58032, Note_off_c, 9, 49, 95
17, 58176, Note_on_c, 9, 49, 95
17, 58224, Note_off_c, 9, 49, 95
17, 58368, Note_on_c, 9, 49, 95
17, 58464, Note_off_c, 9, 49, 95
17, 58560, Note_on_c, 9, 49, 95
17, 58656, Note_off_c, 9, 49, 95
17, 58752, Note_on_c, 9, 49, 95
17, 58800, Note_off_c, 9, 49, 95
17, 59136, Note_on_c, 9, 49, 95
17, 59232, Note_off_c, 9, 49, 95
17, 59328, Note_on_c, 9, 49, 95
17, 59424, Note_off_c, 9, 49, 95
17, 59520, Note_on_c, 9, 49, 95
17, 59568, Note_off_c, 9, 49, 95
17, 59712, Note_on_c, 9, 49, 95
17, 59760, Note_off_c, 9, 49, 95
17, 59904, Note_on_c, 9, 49, 95
17, 60000, Note_off_c, 9, 49, 95
17, 60096, Note_on_c, 9, 49, 95
17, 60192, Note_off_c, 9, 49, 95
17, 60288, Note_on_c, 9, 49, 95
17, 60336, Note_off_c, 9, 49, 95
17, 60480, Note_on_c, 9, 49, 95
17, 60528, Note_off_c, 9, 49, 95
17, 60672, Note_on_c, 9, 49, 95
17, 60768, Note_off_c, 9, 49, 95
17, 60864, Note_on_c, 9, 49, 95
17, 60960, Note_off_c, 9, 49, 95
17, 61056, Note_on_c, 9, 49, 95
17, 61104, Note_off_c, 9, 49, 95
17, 61248, Note_on_c, 9, 49, 95
17, 61296, Note_off_c, 9, 49, 95
17, 61440, Note_on_c, 9, 49, 95
17, 61536, Note_off_c, 9, 49, 95
17, 61632, Note_on_c, 9, 49, 95
17, 61728, Note_off_c, 9, 49, 95
17, 61824, Note_on_c, 9, 49, 95
17, 61872, Note_off_c, 9, 49, 95
17, 62208, Note_on_c, 9, 49, 95
17, 62304, Note_off_c, 9, 49, 95
17, 62400, Note_on_c, 9, 49, 95
17, 62496, Note_off_c, 9, 49, 95
17, 62592, Note_on_c, 9, 49, 95
17, 62640, Note_off_c, 9, 49, 95
17, 62784, Note_on_c, 9, 49, 95
17, 62832, Note_off_c, 9, 49, 95
17, 62976, Note_on_c, 9, 49, 95
17, 63072, Note_off_c, 9, 49, 95
17, 63168, Note_on_c, 9, 49, 95
17, 63264, Note_off_c, 9, 49, 95
17, 63360, Note_on_c, 9, 49, 95
17, 63408, Note_off_c, 9, 49, 95
17, 63552, Note_on_c, 9, 49, 95
17, 63600, Note_off_c, 9, 49, 95
17, 63744, Note_on_c, 9, 49, 95
17, 63840, Note_off_c, 9, 49, 95
17, 63936, Note_on_c, 9, 49, 95
17, 64032, Note_off_c, 9, 49, 95
17, 64128, Note_on_c, 9, 49, 95
17, 64176, Note_off_c, 9, 49, 95
17, 64320, Note_on_c, 9, 49, 95
17, 64368, Note_off_c, 9, 49, 95
17, 64512, Note_on_c, 9, 49, 95
17, 64608, Note_off_c, 9, 49, 95
17, 64704, Note_on_c, 9, 49, 95
17, 64800, Note_off_c, 9, 49, 95
17, 64896, Note_on_c, 9, 49, 95
17, 64944, Note_off_c, 9, 49, 95
17, 65280, Note_on_c, 9, 49, 95
17, 65376, Note_off_c, 9, 49, 95
17, 65472, Note_on_c, 9, 49, 95
17, 65568, Note_off_c, 9, 49, 95
17, 65664, Note_on_c, 9, 49, 95
17, 65712, Note_off_c, 9, 49, 95
17, 65856, Note_on_c, 9, 49, 95
17, 65904, Note_off_c, 9, 49, 95
17, 66048, Note_on_c, 9, 49, 95
17, 66144, Note_off_c, 9, 49, 95
17, 66240, Note_on_c, 9, 49, 95
17, 66336, Note_off_c, 9, 49, 95
17, 66432, Note_on_c, 9, 49, 95
17, 66480, Note_off_c, 9, 49, 95
17, 66624, Note_on_c, 9, 49, 95
17, 66672, Note_off_c, 9, 49, 95
17, 66816, Note_on_c, 9, 49, 95
17, 66912, Note_off_c, 9, 49, 95
17, 67008, Note_on_c, 9, 49, 95
17, 67104, Note_off_c, 9, 49, 95
17, 67200, Note_on_c, 9, 49, 95
17, 67248, Note_off_c, 9, 49, 95
17, 67392, Note_on_c, 9, 49, 95
17, 67440, Note_off_c, 9, 49, 95
17, 67584, Note_on_c, 9, 49, 95
17, 67680, Note_off_c, 9, 49, 95
17, 67776, Note_on_c, 9, 49, 95
17, 67872, Note_off_c, 9, 49, 95
17, 67968, Note_on_c, 9, 49, 95
17, 68016, Note_off_c, 9, 49, 95
17, 68352, Note_on_c, 9, 49, 95
17, 68448, Note_off_c, 9, 49, 95
17, 68544, Note_on_c, 9, 49, 95
17, 68640, Note_off_c, 9, 49, 95
17, 68736, Note_on_c, 9, 49, 95
17, 68784, Note_off_c, 9, 49, 95
17, 68928, Note_on_c, 9, 49, 95
17, 68976, Note_off_c, 9, 49, 95
17, 69120, Note_on_c, 9, 49, 95
17, 69216, Note_off_c, 9, 49, 95
17, 69312, Note_on_c, 9, 49, 95
17, 69408, Note_off_c, 9, 49, 95
17, 69504, Note_on_c, 9, 49, 95
17, 69552, Note_off_c, 9, 49, 95
17, 69696, Note_on_c, 9, 49, 95
17, 69744, Note_off_c, 9, 49, 95
17, 69888, Note_on_c, 9, 49, 95
17, 69984, Note_off_c, 9, 49, 95
17, 70080, Note_on_c, 9, 49, 95
17, 70176, Note_off_c, 9, 49, 95
17, 70272, Note_on_c, 9, 49, 95
17, 70320, Note_off_c, 9, 49, 95
17, 70464, Note_on_c, 9, 49, 95
17, 70512, Note_off_c, 9, 49, 95
17, 70656, Note_on_c, 9, 49, 95
17, 70752, Note_off_c, 9, 49, 95
17, 70848, Note_on_c, 9, 49, 95
17, 70944, Note_off_c, 9, 49, 95
17, 71040, Note_on_c, 9, 49, 95
17, 71088, Note_off_c, 9, 49, 95
17, 71424, Note_on_c, 9, 49, 95
17, 71520, Note_off_c, 9, 49, 95
17, 71616, Note_on_c, 9, 49, 95
17, 71712, Note_off_c, 9, 49, 95
17, 71808, Note_on_c, 9, 49, 95
17, 71856, Note_off_c, 9, 49, 95
17, 72000, Note_on_c, 9, 49, 95
17, 72048, Note_off_c, 9, 49, 95
17, 72192, Note_on_c, 9, 49, 95
17, 72288, Note_off_c, 9, 49, 95
17, 72384, Note_on_c, 9, 49, 95
17, 72480, Note_off_c, 9, 49, 95
17, 72576, Note_on_c, 9, 49, 95
17, 72624, Note_off_c, 9, 49, 95
17, 72768, Note_on_c, 9, 49, 95
17, 72816, Note_off_c, 9, 49, 95
17, 72960, Note_on_c, 9, 49, 95
17, 73056, Note_off_c, 9, 49, 95
17, 73152, Note_on_c, 9, 49, 95
17, 73248, Note_off_c, 9, 49, 95
17, 73344, Note_on_c, 9, 49, 95
17, 73392, Note_off_c, 9, 49, 95
17, 73536, Note_on_c, 9, 49, 95
17, 73584, Note_off_c, 9, 49, 95
17, 73728, Note_on_c, 9, 49, 95
17, 73824, Note_off_c, 9, 49, 95
17, 73920, Note_on_c, 9, 49, 95
17, 74016, Note_off_c, 9, 49, 95
17, 74112, Note_on_c, 9, 49, 95
17, 74160, Note_off_c, 9, 49, 95
17, 74496, Note_on_c, 9, 49, 95
17, 74592, Note_off_c, 9, 49, 95
17, 74688, Note_on_c, 9, 49, 95
17, 74784, Note_off_c, 9, 49, 95
17, 74880, Note_on_c, 9, 49, 95
17, 74928, Note_off_c, 9, 49, 95
17, 75072, Note_on_c, 9, 49, 95
17, 75120, Note_off_c, 9, 49, 95
17, 75264, Note_on_c, 9, 49, 95
17, 75360, Note_off_c, 9, 49, 95
17, 75456, Note_on_c, 9, 49, 95
17, 75552, Note_off_c, 9, 49, 95
17, 75648, Note_on_c, 9, 49, 95
17, 75696, Note_off_c, 9, 49, 95
17, 75840, Note_on_c, 9, 49, 95
17, 75888, Note_off_c, 9, 49, 95
17, 76032, Note_on_c, 9, 49, 95
17, 76128, Note_off_c, 9, 49, 95
17, 76224, Note_on_c, 9, 49, 95
17, 76320, Note_off_c, 9, 49, 95
17, 76416, Note_on_c, 9, 49, 95
17, 76464, Note_off_c, 9, 49, 95
17, 76608, Note_on_c, 9, 49, 95
17, 76656, Note_off_c, 9, 49, 95
17, 76800, Note_on_c, 9, 49, 95
17, 76896, Note_off_c, 9, 49, 95
17, 76992, Note_on_c, 9, 49, 95
17, 77088, Note_off_c, 9, 49, 95
17, 77184, Note_on_c, 9, 49, 95
17, 77232, Note_off_c, 9, 49, 95
17, 77568, Note_on_c, 9, 49, 95
17, 77664, Note_off_c, 9, 49, 95
17, 77760, Note_on_c, 9, 49, 95
17, 77856, Note_off_c, 9, 49, 95
17, 77952, Note_on_c, 9, 49, 95
17, 78000, Note_off_c, 9, 49, 95
17, 78144, Note_on_c, 9, 49, 95
17, 78192, Note_off_c, 9, 49, 95
17, 78336, Note_on_c, 9, 49, 95
17, 78432, Note_off_c, 9, 49, 95
17, 78528, Note_on_c, 9, 49, 95
17, 78624, Note_off_c, 9, 49, 95
17, 78720, Note_on_c, 9, 49, 95
17, 78768, Note_off_c, 9, 49, 95
17, 78912, Note_on_c, 9, 49, 95
17, 78960, Note_off_c, 9, 49, 95
17, 79104, Note_on_c, 9, 49, 95
17, 79200, Note_off_c, 9, 49, 95
17, 79296, Note_on_c, 9, 49, 95
17, 79392, Note_off_c, 9, 49, 95
17, 79488, Note_on_c, 9, 49, 95
17, 79536, Note_off_c, 9, 49, 95
17, 79680, Note_on_c, 9, 49, 95
17, 79728, Note_off_c, 9, 49, 95
17, 79872, Note_on_c, 9, 49, 95
17, 79968, Note_off_c, 9, 49, 95
17, 80064, Note_on_c, 9, 49, 95
17, 80160, Note_off_c, 9, 49, 95
17, 80256, Note_on_c, 9, 49, 95
17, 80304, Note_off_c, 9, 49, 95
17, 80641, Control_c, 9, 123, 0
17, 80641, Control_c, 9, 120, 0
17, 80641, End_track
18, 0, Start_track
18, 0, MIDI_port, 0
18, 0, Unknown_meta_event, 9, 21, 77, 105, 99, 114, 111, 115, 111, 102, 116, 32, 77, 73, 68, 73, 32, 77, 97, 112, 112, 101, 114
18, 0, Title_t, "high Q-mid tom 2"
18, 7248, Note_on_c, 9, 45, 95
18, 7296, Note_off_c, 9, 45, 95
18, 7344, Note_on_c, 9, 45, 95
18, 7392, Note_off_c, 9, 45, 95
18, 7536, Note_on_c, 9, 45, 95
18, 7584, Note_off_c, 9, 45, 95
18, 7584, Note_on_c, 9, 45, 95
18, 7632, Note_off_c, 9, 45, 95
18, 8016, Note_on_c, 9, 45, 95
18, 8064, Note_off_c, 9, 45, 95
18, 8112, Note_on_c, 9, 45, 95
18, 8160, Note_off_c, 9, 45, 95
18, 8304, Note_on_c, 9, 45, 95
18, 8352, Note_off_c, 9, 45, 95
18, 8352, Note_on_c, 9, 45, 95
18, 8400, Note_off_c, 9, 45, 95
18, 8784, Note_on_c, 9, 45, 95
18, 8832, Note_off_c, 9, 45, 95
18, 8880, Note_on_c, 9, 45, 95
18, 8928, Note_off_c, 9, 45, 95
18, 9072, Note_on_c, 9, 45, 95
18, 9120, Note_off_c, 9, 45, 95
18, 9120, Note_on_c, 9, 45, 95
18, 9168, Note_off_c, 9, 45, 95
18, 9552, Note_on_c, 9, 45, 95
18, 9600, Note_off_c, 9, 45, 95
18, 9648, Note_on_c, 9, 45, 95
18, 9696, Note_off_c, 9, 45, 95
18, 10320, Note_on_c, 9, 45, 95
18, 10368, Note_off_c, 9, 45, 95
18, 10416, Note_on_c, 9, 45, 95
18, 10464, Note_off_c, 9, 45, 95
18, 10608, Note_on_c, 9, 45, 95
18, 10656, Note_off_c, 9, 45, 95
18, 10656, Note_on_c, 9, 45, 95
18, 10704, Note_off_c, 9, 45, 95
18, 11088, Note_on_c, 9, 45, 95
18, 11136, Note_off_c, 9, 45, 95
18, 11184, Note_on_c, 9, 45, 95
18, 11232, Note_off_c, 9, 45, 95
18, 11376, Note_on_c, 9, 45, 95
18, 11424, Note_off_c, 9, 45, 95
18, 11424, Note_on_c, 9, 45, 95
18, 11472, Note_off_c, 9, 45, 95
18, 11856, Note_on_c, 9, 45, 95
18, 11904, Note_off_c, 9, 45, 95
18, 11952, Note_on_c, 9, 45, 95
18, 12000, Note_off_c, 9, 45, 95
18, 12144, Note_on_c, 9, 45, 95
18, 12192, Note_off_c, 9, 45, 95
18, 12192, Note_on_c, 9, 45, 95
18, 12240, Note_off_c, 9, 45, 95
18, 12624, Note_on_c, 9, 45, 95
18, 12672, Note_off_c, 9, 45, 95
18, 12720, Note_on_c, 9, 45, 95
18, 12768, Note_off_c, 9, 45, 95
18, 19536, Note_on_c, 9, 45, 95
18, 19584, Note_off_c, 9, 45, 95
18, 19632, Note_on_c, 9, 45, 95
18, 19680, Note_off_c, 9, 45, 95
18, 19824, Note_on_c, 9, 45, 95
18, 19872, Note_off_c, 9, 45, 95
18, 19872, Note_on_c, 9, 45, 95
18, 19920, Note_off_c, 9, 45, 95
18, 20304, Note_on_c, 9, 45, 95
18, 20352, Note_off_c, 9, 45, 95
18, 20400, Note_on_c, 9, 45, 95
18, 20448, Note_off_c, 9, 45, 95
18, 20592, Note_on_c, 9, 45, 95
18, 20640, Note_off_c, 9, 45, 95
18, 20640, Note_on_c, 9, 45, 95
18, 20688, Note_off_c, 9, 45, 95
18, 21072, Note_on_c, 9, 45, 95
18, 21120, Note_off_c, 9, 45, 95
18, 21168, Note_on_c, 9, 45, 95
18, 21216, Note_off_c, 9, 45, 95
18, 21360, Note_on_c, 9, 45, 95
18, 21408, Note_off_c, 9, 45, 95
18, 21408, Note_on_c, 9, 45, 95
18, 21456, Note_off_c, 9, 45, 95
18, 21840, Note_on_c, 9, 45, 95
18, 21888, Note_off_c, 9, 45, 95
18, 21936, Note_on_c, 9, 45, 95
18, 21984, Note_off_c, 9, 45, 95
18, 22608, Note_on_c, 9, 45, 95
18, 22656, Note_off_c, 9, 45, 95
18, 22704, Note_on_c, 9, 45, 95
18, 22752, Note_off_c, 9, 45, 95
18, 22896, Note_on_c, 9, 45, 95
18, 22944, Note_off_c, 9, 45, 95
18, 22944, Note_on_c, 9, 45, 95
18, 22992, Note_off_c, 9, 45, 95
18, 23376, Note_on_c, 9, 45, 95
18, 23424, Note_off_c, 9, 45, 95
18, 23472, Note_on_c, 9, 45, 95
18, 23520, Note_off_c, 9, 45, 95
18, 23664, Note_on_c, 9, 45, 95
18, 23712, Note_off_c, 9, 45, 95
18, 23712, Note_on_c, 9, 45, 95
18, 23760, Note_off_c, 9, 45, 95
18, 24144, Note_on_c, 9, 45, 95
18, 24192, Note_off_c, 9, 45, 95
18, 24240, Note_on_c, 9, 45, 95
18, 24288, Note_off_c, 9, 45, 95
18, 24432, Note_on_c, 9, 45, 95
18, 24480, Note_off_c, 9, 45, 95
18, 24480, Note_on_c, 9, 45, 95
18, 24528, Note_off_c, 9, 45, 95
18, 24912, Note_on_c, 9, 45, 95
18, 24960, Note_off_c, 9, 45, 95
18, 25008, Note_on_c, 9, 45, 95
18, 25056, Note_off_c, 9, 45, 95
18, 37968, Note_on_c, 9, 45, 95
18, 38016, Note_off_c, 9, 45, 95
18, 38064, Note_on_c, 9, 45, 95
18, 38112, Note_off_c, 9, 45, 95
18, 38256, Note_on_c, 9, 45, 95
18, 38304, Note_off_c, 9, 45, 95
18, 38304, Note_on_c, 9, 45, 95
18, 38352, Note_off_c, 9, 45, 95
18, 38736, Note_on_c, 9, 45, 95
18, 38784, Note_off_c, 9, 45, 95
18, 38832, Note_on_c, 9, 45, 95
18, 38880, Note_off_c, 9, 45, 95
18, 39024, Note_on_c, 9, 45, 95
18, 39072, Note_off_c, 9, 45, 95
18, 39072, Note_on_c, 9, 45, 95
18, 39120, Note_off_c, 9, 45, 95
18, 39504, Note_on_c, 9, 45, 95
18, 39552, Note_off_c, 9, 45, 95
18, 39600, Note_on_c, 9, 45, 95
18, 39648, Note_off_c, 9, 45, 95
18, 39792, Note_on_c, 9, 45, 95
18, 39840, Note_off_c, 9, 45, 95
18, 39840, Note_on_c, 9, 45, 95
18, 39888, Note_off_c, 9, 45, 95
18, 40272, Note_on_c, 9, 45, 95
18, 40320, Note_off_c, 9, 45, 95
18, 40368, Note_on_c, 9, 45, 95
18, 40416, Note_off_c, 9, 45, 95
18, 41040, Note_on_c, 9, 45, 95
18, 41088, Note_off_c, 9, 45, 95
18, 41136, Note_on_c, 9, 45, 95
18, 41184, Note_off_c, 9, 45, 95
18, 41328, Note_on_c, 9, 45, 95
18, 41376, Note_off_c, 9, 45, 95
18, 41376, Note_on_c, 9, 45, 95
18, 41424, Note_off_c, 9, 45, 95
18, 41808, Note_on_c, 9, 45, 95
18, 41856, Note_off_c, 9, 45, 95
18, 41904, Note_on_c, 9, 45, 95
18, 41952, Note_off_c, 9, 45, 95
18, 42096, Note_on_c, 9, 45, 95
18, 42144, Note_off_c, 9, 45, 95
18, 42144, Note_on_c, 9, 45, 95
18, 42192, Note_off_c, 9, 45, 95
18, 42576, Note_on_c, 9, 45, 95
18, 42624, Note_off_c, 9, 45, 95
18, 42672, Note_on_c, 9, 45, 95
18, 42720, Note_off_c, 9, 45, 95
18, 42864, Note_on_c, 9, 45, 95
18, 42912, Note_off_c, 9, 45, 95
18, 42912, Note_on_c, 9, 45, 95
18, 42960, Note_off_c, 9, 45, 95
18, 43344, Note_on_c, 9, 45, 95
18, 43392, Note_off_c, 9, 45, 95
18, 43440, Note_on_c, 9, 45, 95
18, 43488, Note_off_c, 9, 45, 95
18, 56400, Note_on_c, 9, 45, 95
18, 56448, Note_off_c, 9, 45, 95
18, 56496, Note_on_c, 9, 45, 95
18, 56544, Note_off_c, 9, 45, 95
18, 56688, Note_on_c, 9, 45, 95
18, 56736, Note_off_c, 9, 45, 95
18, 56736, Note_on_c, 9, 45, 95
18, 56784, Note_off_c, 9, 45, 95
18, 57168, Note_on_c, 9, 45, 95
18, 57216, Note_off_c, 9, 45, 95
18, 57264, Note_on_c, 9, 45, 95
18, 57312, Note_off_c, 9, 45, 95
18, 57456, Note_on_c, 9, 45, 95
18, 57504, Note_off_c, 9, 45, 95
18, 57504, Note_on_c, 9, 45, 95
18, 57552, Note_off_c, 9, 45, 95
18, 57936, Note_on_c, 9, 45, 95
18, 57984, Note_off_c, 9, 45, 95
18, 58032, Note_on_c, 9, 45, 95
18, 58080, Note_off_c, 9, 45, 95
18, 58224, Note_on_c, 9, 45, 95
18, 58272, Note_off_c, 9, 45, 95
18, 58272, Note_on_c, 9, 45, 95
18, 58320, Note_off_c, 9, 45, 95
18, 58704, Note_on_c, 9, 45, 95
18, 58752, Note_off_c, 9, 45, 95
18, 58800, Note_on_c, 9, 45, 95
18, 58848, Note_off_c, 9, 45, 95
18, 59472, Note_on_c, 9, 45, 95
18, 59520, Note_off_c, 9, 45, 95
18, 59568, Note_on_c, 9, 45, 95
18, 59616, Note_off_c, 9, 45, 95
18, 59760, Note_on_c, 9, 45, 95
18, 59808, Note_off_c, 9, 45, 95
18, 59808, Note_on_c, 9, 45, 95
18, 59856, Note_off_c, 9, 45, 95
18, 60240, Note_on_c, 9, 45, 95
18, 60288, Note_off_c, 9, 45, 95
18, 60336, Note_on_c, 9, 45, 95
18, 60384, Note_off_c, 9, 45, 95
18, 60528, Note_on_c, 9, 45, 95
18, 60576, Note_off_c, 9, 45, 95
18, 60576, Note_on_c, 9, 45, 95
18, 60624, Note_off_c, 9, 45, 95
18, 61008, Note_on_c, 9, 45, 95
18, 61056, Note_off_c, 9, 45, 95
18, 61104, Note_on_c, 9, 45, 95
18, 61152, Note_off_c, 9, 45, 95
18, 61296, Note_on_c, 9, 45, 95
18, 61344, Note_off_c, 9, 45, 95
18, 61344, Note_on_c, 9, 45, 95
18, 61392, Note_off_c, 9, 45, 95
18, 61776, Note_on_c, 9, 45, 95
18, 61824, Note_off_c, 9, 45, 95
18, 61872, Note_on_c, 9, 45, 95
18, 61920, Note_off_c, 9, 45, 95
18, 62544, Note_on_c, 9, 45, 95
18, 62592, Note_off_c, 9, 45, 95
18, 62640, Note_on_c, 9, 45, 95
18, 62688, Note_off_c, 9, 45, 95
18, 62832, Note_on_c, 9, 45, 95
18, 62880, Note_off_c, 9, 45, 95
18, 62880, Note_on_c, 9, 45, 95
18, 62928, Note_off_c, 9, 45, 95
18, 63312, Note_on_c, 9, 45, 95
18, 63360, Note_off_c, 9, 45, 95
18, 63408, Note_on_c, 9, 45, 95
18, 63456, Note_off_c, 9, 45, 95
18, 63600, Note_on_c, 9, 45, 95
18, 63648, Note_off_c, 9, 45, 95
18, 63648, Note_on_c, 9, 45, 95
18, 63696, Note_off_c, 9, 45, 95
18, 64080, Note_on_c, 9, 45, 95
18, 64128, Note_off_c, 9, 45, 95
18, 64176, Note_on_c, 9, 45, 95
18, 64224, Note_off_c, 9, 45, 95
18, 64368, Note_on_c, 9, 45, 95
18, 64416, Note_off_c, 9, 45, 95
18, 64416, Note_on_c, 9, 45, 95
18, 64464, Note_off_c, 9, 45, 95
18, 64848, Note_on_c, 9, 45, 95
18, 64896, Note_off_c, 9, 45, 95
18, 64944, Note_on_c, 9, 45, 95
18, 64992, Note_off_c, 9, 45, 95
18, 65616, Note_on_c, 9, 45, 95
18, 65664, Note_off_c, 9, 45, 95
18, 65712, Note_on_c, 9, 45, 95
18, 65760, Note_off_c, 9, 45, 95
18, 65904, Note_on_c, 9, 45, 95
18, 65952, Note_off_c, 9, 45, 95
18, 65952, Note_on_c, 9, 45, 95
18, 66000, Note_off_c, 9, 45, 95
18, 66384, Note_on_c, 9, 45, 95
18, 66432, Note_off_c, 9, 45, 95
18, 66480, Note_on_c, 9, 45, 95
18, 66528, Note_off_c, 9, 45, 95
18, 66672, Note_on_c, 9, 45, 95
18, 66720, Note_off_c, 9, 45, 95
18, 66720, Note_on_c, 9, 45, 95
18, 66768, Note_off_c, 9, 45, 95
18, 67152, Note_on_c, 9, 45, 95
18, 67200, Note_off_c, 9, 45, 95
18, 67248, Note_on_c, 9, 45, 95
18, 67296, Note_off_c, 9, 45, 95
18, 67440, Note_on_c, 9, 45, 95
18, 67488, Note_off_c, 9, 45, 95
18, 67488, Note_on_c, 9, 45, 95
18, 67536, Note_off_c, 9, 45, 95
18, 67920, Note_on_c, 9, 45, 95
18, 67968, Note_off_c, 9, 45, 95
18, 68016, Note_on_c, 9, 45, 95
18, 68064, Note_off_c, 9, 45, 95
18, 68688, Note_on_c, 9, 45, 95
18, 68736, Note_off_c, 9, 45, 95
18, 68784, Note_on_c, 9, 45, 95
18, 68832, Note_off_c, 9, 45, 95
18, 68976, Note_on_c, 9, 45, 95
18, 69024, Note_off_c, 9, 45, 95
18, 69024, Note_on_c, 9, 45, 95
18, 69072, Note_off_c, 9, 45, 95
18, 69456, Note_on_c, 9, 45, 95
18, 69504, Note_off_c, 9, 45, 95
18, 69552, Note_on_c, 9, 45, 95
18, 69600, Note_off_c, 9, 45, 95
18, 69744, Note_on_c, 9, 45, 95
18, 69792, Note_off_c, 9, 45, 95
18, 69792, Note_on_c, 9, 45, 95
18, 69840, Note_off_c, 9, 45, 95
18, 70224, Note_on_c, 9, 45, 95
18, 70272, Note_off_c, 9, 45, 95
18, 70320, Note_on_c, 9, 45, 95
18, 70368, Note_off_c, 9, 45, 95
18, 70512, Note_on_c, 9, 45, 95
18, 70560, Note_off_c, 9, 45, 95
18, 70560, Note_on_c, 9, 45, 95
18, 70608, Note_off_c, 9, 45, 95
18, 70992, Note_on_c, 9, 45, 95
18, 71040, Note_off_c, 9, 45, 95
18, 71088, Note_on_c, 9, 45, 95
18, 71136, Note_off_c, 9, 45, 95
18, 71760, Note_on_c, 9, 45, 95
18, 71808, Note_off_c, 9, 45, 95
18, 71856, Note_on_c, 9, 45, 95
18, 71904, Note_off_c, 9, 45, 95
18, 72048, Note_on_c, 9, 45, 95
18, 72096, Note_off_c, 9, 45, 95
18, 72096, Note_on_c, 9, 45, 95
18, 72144, Note_off_c, 9, 45, 95
18, 72528, Note_on_c, 9, 45, 95
18, 72576, Note_off_c, 9, 45, 95
18, 72624, Note_on_c, 9, 45, 95
18, 72672, Note_off_c, 9, 45, 95
18, 72816, Note_on_c, 9, 45, 95
18, 72864, Note_off_c, 9, 45, 95
18, 72864, Note_on_c, 9, 45, 95
18, 72912, Note_off_c, 9, 45, 95
18, 73296, Note_on_c, 9, 45, 95
18, 73344, Note_off_c, 9, 45, 95
18, 73392, Note_on_c, 9, 45, 95
18, 73440, Note_off_c, 9, 45, 95
18, 73584, Note_on_c, 9, 45, 95
18, 73632, Note_off_c, 9, 45, 95
18, 73632, Note_on_c, 9, 45, 95
18, 73680, Note_off_c, 9, 45, 95
18, 74064, Note_on_c, 9, 45, 95
18, 74112, Note_off_c, 9, 45, 95
18, 74160, Note_on_c, 9, 45, 95
18, 74208, Note_off_c, 9, 45, 95
18, 74832, Note_on_c, 9, 45, 95
18, 74880, Note_off_c, 9, 45, 95
18, 74928, Note_on_c, 9, 45, 95
18, 74976, Note_off_c, 9, 45, 95
18, 75120, Note_on_c, 9, 45, 95
18, 75168, Note_off_c, 9, 45, 95
18, 75168, Note_on_c, 9, 45, 95
18, 75216, Note_off_c, 9, 45, 95
18, 75600, Note_on_c, 9, 45, 95
18, 75648, Note_off_c, 9, 45, 95
18, 75696, Note_on_c, 9, 45, 95
18, 75744, Note_off_c, 9, 45, 95
18, 75888, Note_on_c, 9, 45, 95
18, 75936, Note_off_c, 9, 45, 95
18, 75936, Note_on_c, 9, 45, 95
18, 75984, Note_off_c, 9, 45, 95
18, 76368, Note_on_c, 9, 45, 95
18, 76416, Note_off_c, 9, 45, 95
18, 76464, Note_on_c, 9, 45, 95
18, 76512, Note_off_c, 9, 45, 95
18, 76656, Note_on_c, 9, 45, 95
18, 76704, Note_off_c, 9, 45, 95
18, 76704, Note_on_c, 9, 45, 95
18, 76752, Note_off_c, 9, 45, 95
18, 77136, Note_on_c, 9, 45, 95
18, 77184, Note_off_c, 9, 45, 95
18, 77232, Note_on_c, 9, 45, 95
18, 77280, Note_off_c, 9, 45, 95
18, 77904, Note_on_c, 9, 45, 95
18, 77952, Note_off_c, 9, 45, 95
18, 78000, Note_on_c, 9, 45, 95
18, 78048, Note_off_c, 9, 45, 95
18, 78192, Control_c, 9, 7, 97
18, 78192, Note_on_c, 9, 45, 95
18, 78240, Note_off_c, 9, 45, 95
18, 78240, Note_on_c, 9, 45, 95
18, 78288, Note_off_c, 9, 45, 95
18, 78672, Control_c, 9, 7, 78
18, 78672, Note_on_c, 9, 45, 95
18, 78720, Note_off_c, 9, 45, 95
18, 78768, Control_c, 9, 7, 74
18, 78768, Note_on_c, 9, 45, 95
18, 78816, Note_off_c, 9, 45, 95
18, 78960, Note_on_c, 9, 45, 95
18, 79008, Note_off_c, 9, 45, 95
18, 79008, Note_on_c, 9, 45, 95
18, 79056, Note_off_c, 9, 45, 95
18, 79440, Control_c, 9, 7, 46
18, 79440, Note_on_c, 9, 45, 95
18, 79488, Note_off_c, 9, 45, 95
18, 79536, Control_c, 9, 7, 43
18, 79536, Note_on_c, 9, 45, 95
18, 79584, Note_off_c, 9, 45, 95
18, 79728, Note_on_c, 9, 45, 95
18, 79776, Note_off_c, 9, 45, 95
18, 79776, Note_on_c, 9, 45, 95
18, 79824, Note_off_c, 9, 45, 95
18, 80208, Note_on_c, 9, 45, 95
18, 80256, Note_off_c, 9, 45, 95
18, 80304, Note_on_c, 9, 45, 95
18, 80352, Note_off_c, 9, 45, 95
18, 80641, Control_c, 9, 123, 0
18, 80641, Control_c, 9, 120, 0