0, 0, Header, 1, 8, 480
1, 0, Start_track
1, 0, Title_t, "Scary Monsters and Nice Sprites"
1, 0, Time_signature, 4, 2, 24, 8
1, 0, Key_signature, 0, "major"
1, 0, Tempo, 428571
1, 0, End_track
2, 0, Start_track
2, 0, Title_t, "Vocals"
2, 1917, Control_c, 5, 101, 0
2, 1918, Control_c, 5, 100, 0
2, 1919, Control_c, 5, 6, 12
2, 1920, Control_c, 5, 38, 0
2, 1920, Pitch_bend_c, 5, 8192
2, 1920, Control_c, 5, 101, 0
2, 1921, Control_c, 5, 100, 1
2, 1922, Control_c, 5, 6, 64
2, 1923, Control_c, 5, 38, 0
2, 1923, Control_c, 4, 101, 0
2, 1924, Control_c, 4, 100, 0
2, 1925, Control_c, 4, 6, 12
2, 1926, Control_c, 4, 38, 0
2, 1926, Pitch_bend_c, 4, 8192
2, 1926, Control_c, 4, 101, 0
2, 1927, Control_c, 4, 100, 1
2, 1928, Control_c, 4, 6, 64
2, 1929, Control_c, 4, 38, 0
2, 1929, Control_c, 5, 101, 0
2, 1930, Control_c, 5, 100, 2
2, 1931, Control_c, 5, 6, 64
2, 1932, Control_c, 5, 38, 0
2, 1932, Control_c, 4, 101, 0
2, 1933, Control_c, 4, 100, 2
2, 1934, Control_c, 4, 6, 64
2, 1935, Control_c, 4, 38, 0
2, 1935, Program_c, 5, 53
2, 1935, Program_c, 4, 53
2, 1935, Control_c, 5, 0, 0
2, 1935, Control_c, 4, 0, 0
2, 1935, Control_c, 4, 7, 127
2, 1935, Control_c, 4, 10, 64
2, 1935, Control_c, 4, 93, 0
2, 1935, Control_c, 4, 91, 0
2, 1935, Control_c, 5, 92, 0
2, 1935, Control_c, 4, 92, 0
2, 1935, Control_c, 5, 95, 0
2, 1935, Control_c, 4, 95, 0
2, 32640, Note_on_c, 4, 58, 95
2, 33600, Note_on_c, 4, 58, 0
2, 33600, Note_on_c, 4, 65, 95
2, 34560, Note_on_c, 4, 65, 0
2, 34560, Note_on_c, 4, 62, 95
2, 35040, Note_on_c, 4, 62, 0
2, 35040, Note_on_c, 4, 62, 95
2, 35280, Note_on_c, 4, 62, 0
2, 35280, Note_on_c, 4, 62, 95
2, 35400, Note_on_c, 4, 62, 0
2, 35400, Note_on_c, 4, 60, 95
2, 35520, Note_on_c, 4, 60, 0
2, 35520, Note_on_c, 4, 62, 95
2, 35760, Note_on_c, 4, 62, 0
2, 35760, Note_on_c, 4, 58, 95
2, 36000, Note_on_c, 4, 58, 0
2, 36000, Note_on_c, 4, 60, 95
2, 36240, Note_on_c, 4, 60, 0
2, 36240, Note_on_c, 4, 62, 95
2, 36360, Note_on_c, 4, 62, 0
2, 36360, Note_on_c, 4, 65, 95
2, 36480, Note_on_c, 4, 65, 0
2, 36480, Note_on_c, 4, 62, 95
2, 36720, Note_on_c, 4, 62, 0
2, 36960, Note_on_c, 4, 58, 95
2, 37080, Note_on_c, 4, 58, 0
2, 37200, Note_on_c, 4, 58, 95
2, 37320, Note_on_c, 4, 58, 0
2, 37440, Note_on_c, 4, 58, 95
2, 37680, Note_on_c, 4, 58, 0
2, 37680, Note_on_c, 4, 58, 95
2, 37800, Note_on_c, 4, 58, 0
2, 37920, Note_on_c, 4, 58, 95
2, 38040, Note_on_c, 4, 58, 0
2, 38160, Note_on_c, 4, 58, 95
2, 38280, Note_on_c, 4, 58, 0
2, 38400, Note_on_c, 4, 58, 95
2, 38640, Note_on_c, 4, 58, 0
2, 38640, Note_on_c, 4, 65, 95
2, 38880, Note_on_c, 4, 65, 0
2, 38880, Note_on_c, 4, 58, 95
2, 39000, Note_on_c, 4, 58, 0
2, 39120, Note_on_c, 4, 58, 95
2, 39240, Note_on_c, 4, 58, 0
2, 39360, Note_on_c, 4, 60, 95
2, 39600, Note_on_c, 4, 60, 0
2, 39600, Note_on_c, 4, 58, 95
2, 39840, Note_on_c, 4, 58, 0
2, 39840, Note_on_c, 4, 57, 95
2, 40080, Note_on_c, 4, 57, 0
2, 40080, Note_on_c, 4, 55, 95
2, 40320, Note_on_c, 4, 55, 0
2, 40320, Note_on_c, 4, 58, 95
2, 41280, Note_on_c, 4, 58, 0
2, 41280, Note_on_c, 4, 65, 95
2, 42240, Note_on_c, 4, 65, 0
2, 42240, Note_on_c, 4, 62, 95
2, 42720, Note_on_c, 4, 62, 0
2, 42720, Note_on_c, 4, 62, 95
2, 42960, Note_on_c, 4, 62, 0
2, 42960, Note_on_c, 4, 62, 95
2, 43080, Note_on_c, 4, 62, 0
2, 43080, Note_on_c, 4, 60, 95
2, 43200, Note_on_c, 4, 60, 0
2, 43200, Note_on_c, 4, 62, 95
2, 43440, Note_on_c, 4, 62, 0
2, 43440, Note_on_c, 4, 58, 95
2, 43680, Note_on_c, 4, 58, 0
2, 43680, Note_on_c, 4, 60, 95
2, 43920, Note_on_c, 4, 60, 0
2, 43920, Note_on_c, 4, 62, 95
2, 44040, Note_on_c, 4, 62, 0
2, 44040, Note_on_c, 4, 65, 95
2, 44160, Note_on_c, 4, 65, 0
2, 44160, Note_on_c, 4, 62, 95
2, 44400, Note_on_c, 4, 62, 0
2, 44640, Note_on_c, 4, 58, 95
2, 44760, Note_on_c, 4, 58, 0
2, 44880, Note_on_c, 4, 58, 95
2, 45000, Note_on_c, 4, 58, 0
2, 45120, Note_on_c, 4, 58, 95
2, 45360, Note_on_c, 4, 58, 0
2, 45360, Note_on_c, 4, 58, 95
2, 45480, Note_on_c, 4, 58, 0
2, 45600, Note_on_c, 4, 58, 95
2, 45720, Note_on_c, 4, 58, 0
2, 45840, Note_on_c, 4, 58, 95
2, 45960, Note_on_c, 4, 58, 0
2, 46080, Note_on_c, 4, 58, 95
2, 46320, Note_on_c, 4, 58, 0
2, 120960, Note_on_c, 4, 58, 95
2, 121920, Note_on_c, 4, 58, 0
2, 121920, Note_on_c, 4, 65, 95
2, 122880, Note_on_c, 4, 65, 0
2, 122880, Note_on_c, 4, 62, 95
2, 123360, Note_on_c, 4, 62, 0
2, 123360, Note_on_c, 4, 62, 95
2, 123600, Note_on_c, 4, 62, 0
2, 123600, Note_on_c, 4, 62, 95
2, 123720, Note_on_c, 4, 62, 0
2, 123720, Note_on_c, 4, 60, 95
2, 123840, Note_on_c, 4, 60, 0
2, 123840, Note_on_c, 4, 62, 95
2, 124080, Note_on_c, 4, 62, 0
2, 124080, Note_on_c, 4, 58, 95
2, 124320, Note_on_c, 4, 58, 0
2, 124320, Note_on_c, 4, 60, 95
2, 124560, Note_on_c, 4, 60, 0
2, 124560, Note_on_c, 4, 62, 95
2, 124680, Note_on_c, 4, 62, 0
2, 124680, Note_on_c, 4, 65, 95
2, 124800, Note_on_c, 4, 65, 0
2, 124800, Note_on_c, 4, 62, 95
2, 125040, Note_on_c, 4, 62, 0
2, 125280, Note_on_c, 4, 58, 95
2, 125400, Note_on_c, 4, 58, 0
2, 125520, Note_on_c, 4, 58, 95
2, 125640, Note_on_c, 4, 58, 0
2, 125760, Note_on_c, 4, 58, 95
2, 126000, Note_on_c, 4, 58, 0
2, 126000, Note_on_c, 4, 58, 95
2, 126120, Note_on_c, 4, 58, 0
2, 126240, Note_on_c, 4, 58, 95
2, 126360, Note_on_c, 4, 58, 0
2, 126480, Note_on_c, 4, 58, 95
2, 126600, Note_on_c, 4, 58, 0
2, 126720, Note_on_c, 4, 58, 95
2, 126960, Note_on_c, 4, 58, 0
2, 126960, Note_on_c, 4, 65, 95
2, 127200, Note_on_c, 4, 65, 0
2, 127200, Note_on_c, 4, 58, 95
2, 127320, Note_on_c, 4, 58, 0
2, 127440, Note_on_c, 4, 58, 95
2, 127560, Note_on_c, 4, 58, 0
2, 127680, Note_on_c, 4, 60, 95
2, 127920, Note_on_c, 4, 60, 0
2, 127920, Note_on_c, 4, 58, 95
2, 128160, Note_on_c, 4, 58, 0
2, 128160, Note_on_c, 4, 57, 95
2, 128400, Note_on_c, 4, 57, 0
2, 128400, Note_on_c, 4, 55, 95
2, 128640, Note_on_c, 4, 55, 0
2, 128640, Note_on_c, 4, 58, 95
2, 129600, Note_on_c, 4, 58, 0
2, 129600, Note_on_c, 4, 65, 95
2, 130560, Note_on_c, 4, 65, 0
2, 130560, Note_on_c, 4, 62, 95
2, 131040, Note_on_c, 4, 62, 0
2, 131040, Note_on_c, 4, 62, 95
2, 131280, Note_on_c, 4, 62, 0
2, 131280, Note_on_c, 4, 62, 95
2, 131400, Note_on_c, 4, 62, 0
2, 131400, Note_on_c, 4, 60, 95
2, 131520, Note_on_c, 4, 60, 0
2, 131520, Note_on_c, 4, 62, 95
2, 131760, Note_on_c, 4, 62, 0
2, 131760, Note_on_c, 4, 58, 95
2, 132000, Note_on_c, 4, 58, 0
2, 132000, Note_on_c, 4, 60, 95
2, 132240, Note_on_c, 4, 60, 0
2, 132240, Note_on_c, 4, 62, 95
2, 132360, Note_on_c, 4, 62, 0
2, 132360, Note_on_c, 4, 65, 95
2, 132480, Note_on_c, 4, 65, 0
2, 132480, Note_on_c, 4, 62, 95
2, 132720, Note_on_c, 4, 62, 0
2, 132960, Note_on_c, 4, 58, 95
2, 133080, Note_on_c, 4, 58, 0
2, 133200, Note_on_c, 4, 58, 95
2, 133320, Note_on_c, 4, 58, 0
2, 133440, Note_on_c, 4, 58, 95
2, 133680, Note_on_c, 4, 58, 0
2, 133680, Note_on_c, 4, 58, 95
2, 133800, Note_on_c, 4, 58, 0
2, 133920, Note_on_c, 4, 58, 95
2, 134040, Note_on_c, 4, 58, 0
2, 134160, Note_on_c, 4, 58, 95
2, 134280, Note_on_c, 4, 58, 0
2, 134400, Note_on_c, 4, 58, 95
2, 134640, Note_on_c, 4, 58, 0
2, 209280, Note_on_c, 4, 58, 95
2, 210240, Note_on_c, 4, 58, 0
2, 210240, Note_on_c, 4, 65, 95
2, 211200, Note_on_c, 4, 65, 0
2, 211200, Note_on_c, 4, 62, 95
2, 211680, Note_on_c, 4, 62, 0
2, 211680, Note_on_c, 4, 62, 95
2, 211920, Note_on_c, 4, 62, 0
2, 211920, Note_on_c, 4, 62, 95
2, 212040, Note_on_c, 4, 62, 0
2, 212040, Note_on_c, 4, 60, 95
2, 212160, Note_on_c, 4, 60, 0
2, 212160, Note_on_c, 4, 62, 95
2, 212400, Note_on_c, 4, 62, 0
2, 212400, Note_on_c, 4, 58, 95
2, 212640, Note_on_c, 4, 58, 0
2, 212640, Note_on_c, 4, 60, 95
2, 212880, Note_on_c, 4, 60, 0
2, 212880, Note_on_c, 4, 62, 95
2, 213000, Note_on_c, 4, 62, 0
2, 213000, Note_on_c, 4, 65, 95
2, 213120, Note_on_c, 4, 65, 0
2, 213120, Note_on_c, 4, 62, 95
2, 213360, Note_on_c, 4, 62, 0
2, 213600, Note_on_c, 4, 58, 95
2, 213720, Note_on_c, 4, 58, 0
2, 213840, Note_on_c, 4, 58, 95
2, 213960, Note_on_c, 4, 58, 0
2, 214080, Note_on_c, 4, 58, 95
2, 214320, Note_on_c, 4, 58, 0
2, 214320, Note_on_c, 4, 58, 95
2, 214440, Note_on_c, 4, 58, 0
2, 214560, Note_on_c, 4, 58, 95
2, 214680, Note_on_c, 4, 58, 0
2, 214800, Note_on_c, 4, 58, 95
2, 214920, Note_on_c, 4, 58, 0
2, 215040, Note_on_c, 4, 58, 95
2, 215280, Note_on_c, 4, 58, 0
2, 215280, Note_on_c, 4, 65, 95
2, 215520, Note_on_c, 4, 65, 0
2, 215520, Note_on_c, 4, 58, 95
2, 215640, Note_on_c, 4, 58, 0
2, 215760, Note_on_c, 4, 58, 95
2, 215880, Note_on_c, 4, 58, 0
2, 216000, Note_on_c, 4, 60, 95
2, 216240, Note_on_c, 4, 60, 0
2, 216240, Note_on_c, 4, 58, 95
2, 216480, Note_on_c, 4, 58, 0
2, 216480, Note_on_c, 4, 57, 95
2, 216720, Note_on_c, 4, 57, 0
2, 216720, Note_on_c, 4, 55, 95
2, 216960, Note_on_c, 4, 55, 0
2, 216960, Note_on_c, 4, 58, 95
2, 217920, Note_on_c, 4, 58, 0
2, 217920, Note_on_c, 4, 65, 95
2, 218880, Note_on_c, 4, 65, 0
2, 218880, Note_on_c, 4, 62, 95
2, 219360, Note_on_c, 4, 62, 0
2, 219360, Note_on_c, 4, 62, 95
2, 219600, Note_on_c, 4, 62, 0
2, 219600, Note_on_c, 4, 62, 95
2, 219720, Note_on_c, 4, 62, 0
2, 219720, Note_on_c, 4, 60, 95
2, 219840, Note_on_c, 4, 60, 0
2, 219840, Note_on_c, 4, 62, 95
2, 220080, Note_on_c, 4, 62, 0
2, 220080, Note_on_c, 4, 58, 95
2, 220320, Note_on_c, 4, 58, 0
2, 220320, Note_on_c, 4, 60, 95
2, 220560, Note_on_c, 4, 60, 0
2, 220560, Note_on_c, 4, 62, 95
2, 220680, Note_on_c, 4, 62, 0
2, 220680, Note_on_c, 4, 65, 95
2, 220800, Note_on_c, 4, 65, 0
2, 220800, Note_on_c, 4, 62, 95
2, 221040, Note_on_c, 4, 62, 0
2, 221280, Note_on_c, 4, 58, 95
2, 221400, Note_on_c, 4, 58, 0
2, 221520, Note_on_c, 4, 58, 95
2, 221640, Note_on_c, 4, 58, 0
2, 221760, Note_on_c, 4, 58, 95
2, 222000, Note_on_c, 4, 58, 0
2, 222000, Note_on_c, 4, 58, 95
2, 222120, Note_on_c, 4, 58, 0
2, 222240, Note_on_c, 4, 58, 95
2, 222360, Note_on_c, 4, 58, 0
2, 222480, Note_on_c, 4, 58, 95
2, 222600, Note_on_c, 4, 58, 0
2, 222720, Note_on_c, 4, 58, 95
2, 223680, Note_on_c, 4, 58, 0
2, 223680, Note_on_c, 4, 62, 95
2, 224640, Note_on_c, 4, 62, 0
2, 224640, Note_on_c, 4, 55, 95
2, 225000, Note_on_c, 4, 55, 0
2, 225000, Note_on_c, 4, 57, 95
2, 225360, Note_on_c, 4, 57, 0
2, 225360, Note_on_c, 4, 58, 95
2, 228000, Note_on_c, 4, 58, 0
2, 228000, Note_on_c, 4, 55, 95
2, 228240, Note_on_c, 4, 55, 0
2, 228240, Note_on_c, 4, 55, 95
2, 228480, Note_on_c, 4, 55, 0
2, 228480, Note_on_c, 4, 55, 95
2, 228840, Note_on_c, 4, 55, 0
2, 228840, Note_on_c, 4, 58, 95
2, 229200, Note_on_c, 4, 58, 0
2, 229200, Note_on_c, 5, 62, 95
2, 229392, Pitch_bend_c, 5, 7552
2, 229408, Pitch_bend_c, 5, 6784
2, 229424, Pitch_bend_c, 5, 6144
2, 229440, Pitch_bend_c, 5, 5504
2, 231840, Note_on_c, 5, 62, 0
2, 231840, Pitch_bend_c, 5, 8192
2, 232320, Note_on_c, 4, 55, 95
2, 232680, Note_on_c, 4, 55, 0
2, 232680, Note_on_c, 4, 57, 95
2, 233040, Note_on_c, 4, 57, 0
2, 233040, Note_on_c, 4, 58, 95
2, 233520, Note_on_c, 4, 58, 0
2, 233520, Note_on_c, 4, 53, 95
2, 234000, Note_on_c, 4, 53, 0
2, 234000, Note_on_c, 4, 53, 95
2, 234480, Note_on_c, 4, 53, 0
2, 234480, Note_on_c, 4, 60, 95
2, 234960, Note_on_c, 4, 60, 0
2, 234960, Note_on_c, 4, 58, 95
2, 235920, Note_on_c, 4, 58, 0
2, 235920, Note_on_c, 4, 62, 95
2, 236160, Note_on_c, 4, 62, 0
2, 236160, Note_on_c, 5, 62, 95
2, 236376, Pitch_bend_c, 5, 7552
2, 236400, Pitch_bend_c, 5, 6784
2, 236880, Note_on_c, 5, 62, 0
2, 236880, Pitch_bend_c, 5, 8192
2, 236880, Note_on_c, 4, 62, 95
2, 237360, Note_on_c, 4, 62, 0
2, 237360, Note_on_c, 4, 65, 95
2, 238800, Note_on_c, 4, 65, 0
2, 238800, Note_on_c, 4, 58, 95
2, 240000, Note_on_c, 4, 58, 0
2, 263040, Control_c, 4, 7, 120
2, 263040, Control_c, 5, 7, 120
2, 263160, Control_c, 4, 7, 113
2, 263160, Control_c, 5, 7, 113
2, 263280, Control_c, 4, 7, 105
2, 263280, Control_c, 5, 7, 105
2, 263400, Control_c, 4, 7, 98
2, 263400, Control_c, 5, 7, 98
2, 263520, Control_c, 4, 7, 90
2, 263520, Control_c, 5, 7, 90
2, 263640, Control_c, 4, 7, 83
2, 263640, Control_c, 5, 7, 83
2, 263760, Control_c, 4, 7, 75
2, 263760, Control_c, 5, 7, 75
2, 263880, Control_c, 4, 7, 68
2, 263880, Control_c, 5, 7, 68
2, 264000, Control_c, 4, 7, 60
2, 264000, Control_c, 5, 7, 60
2, 264120, Control_c, 4, 7, 53
2, 264120, Control_c, 5, 7, 53
2, 264240, Control_c, 4, 7, 45
2, 264240, Control_c, 5, 7, 45
2, 264360, Control_c, 4, 7, 38
2, 264360, Control_c, 5, 7, 38
2, 264480, Control_c, 4, 7, 30
2, 264480, Control_c, 5, 7, 30
2, 264600, Control_c, 4, 7, 23
2, 264600, Control_c, 5, 7, 23
2, 264720, Control_c, 4, 7, 15
2, 264720, Control_c, 5, 7, 15
2, 264840, Control_c, 4, 7, 8
2, 264840, Control_c, 5, 7, 8
2, 264960, Control_c, 4, 7, 0
2, 264960, Control_c, 5, 7, 0
2, 264960, End_track
3, 0, Start_track
3, 0, Title_t, "Pad"
3, 1917, Control_c, 10, 101, 0
3, 1918, Control_c, 10, 100, 0
3, 1919, Control_c, 10, 6, 12
3, 1920, Control_c, 10, 38, 0
3, 1920, Pitch_bend_c, 10, 8192
3, 1920, Control_c, 10, 101, 0
3, 1921, Control_c, 10, 100, 1
3, 1922, Control_c, 10, 6, 64
3, 1923, Control_c, 10, 38, 0
3, 1923, Control_c, 8, 101, 0
3, 1924, Control_c, 8, 100, 0
3, 1925, Control_c, 8, 6, 12
3, 1926, Control_c, 8, 38, 0
3, 1926, Pitch_bend_c, 8, 8192
3, 1926, Control_c, 8, 101, 0
3, 1927, Control_c, 8, 100, 1
3, 1928, Control_c, 8, 6, 64
3, 1929, Control_c, 8, 38, 0
3, 1929, Control_c, 10, 101, 0
3, 1930, Control_c, 10, 100, 2
3, 1931, Control_c, 10, 6, 64
3, 1932, Control_c, 10, 38, 0
3, 1932, Control_c, 8, 101, 0
3, 1933, Control_c, 8, 100, 2
3, 1934, Control_c, 8, 6, 64
3, 1935, Control_c, 8, 38, 0
3, 1935, Program_c, 10, 89
3, 1935, Program_c, 8, 89
3, 1935, Control_c, 10, 0, 0
3, 1935, Control_c, 8, 0, 0
3, 1935, Control_c, 8, 7, 64
3, 1935, Control_c, 8, 10, 64
3, 1935, Control_c, 8, 93, 0
3, 1935, Control_c, 8, 91, 0
3, 1935, Control_c, 10, 92, 0
3, 1935, Control_c, 8, 92, 0
3, 1935, Control_c, 10, 95, 0
3, 1935, Control_c, 8, 95, 0
3, 224640, Note_on_c, 8, 70, 95
3, 226560, Note_on_c, 8, 70, 0
3, 226560, Note_on_c, 8, 72, 95
3, 228480, Note_on_c, 8, 72, 0
3, 228480, Note_on_c, 8, 67, 95
3, 230400, Note_on_c, 8, 67, 0
3, 230400, Note_on_c, 8, 65, 95
3, 232320, Note_on_c, 8, 65, 0
3, 232320, Note_on_c, 8, 70, 95
3, 234240, Note_on_c, 8, 70, 0
3, 234240, Note_on_c, 8, 72, 95
3, 236160, Note_on_c, 8, 72, 0
3, 236160, Note_on_c, 8, 67, 95
3, 238080, Note_on_c, 8, 67, 0
3, 238080, Note_on_c, 8, 65, 95
3, 240000, Note_on_c, 8, 65, 0
3, 240000, Note_on_c, 8, 58, 95
3, 241920, Note_on_c, 8, 58, 0
3, 241920, Note_on_c, 8, 60, 95
3, 243840, Note_on_c, 8, 60, 0
3, 243840, Note_on_c, 8, 55, 95
3, 245760, Note_on_c, 8, 55, 0
3, 245760, Note_on_c, 8, 53, 95
3, 247680, Note_on_c, 8, 53, 0
3, 247680, Note_on_c, 8, 58, 95
3, 249600, Note_on_c, 8, 58, 0
3, 249600, Note_on_c, 8, 60, 95
3, 251520, Note_on_c, 8, 60, 0
3, 251520, Note_on_c, 8, 55, 95
3, 253440, Note_on_c, 8, 55, 0
3, 253440, Note_on_c, 8, 53, 95
3, 255360, Note_on_c, 8, 53, 0
3, 255360, Note_on_c, 8, 58, 95
3, 257280, Note_on_c, 8, 58, 0
3, 257280, Note_on_c, 8, 60, 95
3, 259200, Note_on_c, 8, 60, 0
3, 259200, Note_on_c, 8, 55, 95
3, 261120, Note_on_c, 8, 55, 0
3, 261120, Note_on_c, 8, 53, 95
3, 263040, Control_c, 8, 7, 60
3, 263040, Control_c, 10, 7, 60
3, 263160, Control_c, 8, 7, 56
3, 263160, Control_c, 10, 7, 56
3, 263280, Control_c, 8, 7, 53
3, 263280, Control_c, 10, 7, 53
3, 263400, Control_c, 8, 7, 49
3, 263400, Control_c, 10, 7, 49
3, 263520, Control_c, 8, 7, 45
3, 263520, Control_c, 10, 7, 45
3, 263640, Control_c, 8, 7, 41
3, 263640, Control_c, 10, 7, 41
3, 263760, Control_c, 8, 7, 38
3, 263760, Control_c, 10, 7, 38
3, 263880, Control_c, 8, 7, 34
3, 263880, Control_c, 10, 7, 34
3, 264000, Control_c, 8, 7, 30
3, 264000, Control_c, 10, 7, 30
3, 264120, Control_c, 8, 7, 26
3, 264120, Control_c, 10, 7, 26
3, 264240, Control_c, 8, 7, 23
3, 264240, Control_c, 10, 7, 23
3, 264360, Control_c, 8, 7, 19
3, 264360, Control_c, 10, 7, 19
3, 264480, Control_c, 8, 7, 15
3, 264480, Control_c, 10, 7, 15
3, 264600, Control_c, 8, 7, 11
3, 264600, Control_c, 10, 7, 11
3, 264720, Control_c, 8, 7, 8
3, 264720, Control_c, 10, 7, 8
3, 264840, Control_c, 8, 7, 4
3, 264840, Control_c, 10, 7, 4
3, 264960, Note_on_c, 8, 53, 0
3, 264960, Control_c, 8, 7, 0
3, 264960, Control_c, 10, 7, 0
3, 264960, End_track
4, 0, Start_track
4, 0, Title_t, "Piano"
4, 1917, Control_c, 7, 101, 0
4, 1918, Control_c, 7, 100, 0
4, 1919, Control_c, 7, 6, 12
4, 1920, Control_c, 7, 38, 0
4, 1920, Pitch_bend_c, 7, 8192
4, 1920, Control_c, 7, 101, 0
4, 1921, Control_c, 7, 100, 1
4, 1922, Control_c, 7, 6, 64
4, 1923, Control_c, 7, 38, 0
4, 1923, Control_c, 6, 101, 0
4, 1924, Control_c, 6, 100, 0
4, 1925, Control_c, 6, 6, 12
4, 1926, Control_c, 6, 38, 0
4, 1926, Pitch_bend_c, 6, 8192
4, 1926, Control_c, 6, 101, 0
4, 1927, Control_c, 6, 100, 1
4, 1928, Control_c, 6, 6, 64
4, 1929, Control_c, 6, 38, 0
4, 1929, Control_c, 7, 101, 0
4, 1930, Control_c, 7, 100, 2
4, 1931, Control_c, 7, 6, 64
4, 1932, Control_c, 7, 38, 0
4, 1932, Control_c, 6, 101, 0
4, 1933, Control_c, 6, 100, 2
4, 1934, Control_c, 6, 6, 64
4, 1935, Control_c, 6, 38, 0
4, 1935, Program_c, 7, 0
4, 1935, Program_c, 6, 0
4, 1935, Control_c, 7, 0, 0
4, 1935, Control_c, 6, 0, 0
4, 1935, Control_c, 6, 7, 104
4, 1935, Control_c, 6, 10, 64
4, 1935, Control_c, 6, 93, 0
4, 1935, Control_c, 6, 91, 0
4, 1935, Control_c, 7, 92, 0
4, 1935, Control_c, 6, 92, 0
4, 1935, Control_c, 7, 95, 0
4, 1935, Control_c, 6, 95, 0
4, 224640, Note_on_c, 6, 79, 95
4, 224640, Note_on_c, 6, 70, 95
4, 224880, Note_on_c, 6, 79, 0
4, 224880, Note_on_c, 6, 82, 95
4, 225120, Note_on_c, 6, 82, 0
4, 225120, Note_on_c, 6, 81, 95
4, 225360, Note_on_c, 6, 81, 0
4, 225360, Note_on_c, 6, 82, 95
4, 225600, Note_on_c, 6, 82, 0
4, 225600, Note_on_c, 6, 82, 95
4, 225840, Note_on_c, 6, 82, 0
4, 225840, Note_on_c, 6, 79, 95
4, 226080, Note_on_c, 6, 79, 0
4, 226080, Note_on_c, 6, 84, 95
4, 226320, Note_on_c, 6, 84, 0
4, 226320, Note_on_c, 6, 82, 95
4, 226560, Note_on_c, 6, 82, 0
4, 226560, Note_on_c, 6, 70, 0
4, 226560, Note_on_c, 6, 84, 95
4, 226560, Note_on_c, 6, 72, 95
4, 226800, Note_on_c, 6, 84, 0
4, 226800, Note_on_c, 6, 82, 95
4, 227040, Note_on_c, 6, 82, 0
4, 227040, Note_on_c, 6, 84, 95
4, 227280, Note_on_c, 6, 84, 0
4, 227280, Note_on_c, 6, 82, 95
4, 227520, Note_on_c, 6, 82, 0
4, 227520, Note_on_c, 6, 86, 95
4, 227760, Note_on_c, 6, 86, 0
4, 227760, Note_on_c, 6, 82, 95
4, 228000, Note_on_c, 6, 82, 0
4, 228000, Note_on_c, 6, 84, 95
4, 228240, Note_on_c, 6, 84, 0
4, 228240, Note_on_c, 6, 86, 95
4, 228480, Note_on_c, 6, 86, 0
4, 228480, Note_on_c, 6, 72, 0
4, 228480, Note_on_c, 6, 79, 95
4, 228480, Note_on_c, 6, 67, 95
4, 228720, Note_on_c, 6, 79, 0
4, 228720, Note_on_c, 6, 82, 95
4, 228960, Note_on_c, 6, 82, 0
4, 228960, Note_on_c, 6, 81, 95
4, 229200, Note_on_c, 6, 81, 0
4, 229200, Note_on_c, 6, 82, 95
4, 229440, Note_on_c, 6, 82, 0
4, 229440, Note_on_c, 6, 82, 95
4, 229680, Note_on_c, 6, 82, 0
4, 229680, Note_on_c, 6, 79, 95
4, 229920, Note_on_c, 6, 79, 0
4, 229920, Note_on_c, 6, 77, 95
4, 230160, Note_on_c, 6, 77, 0
4, 230160, Note_on_c, 6, 74, 95
4, 230400, Note_on_c, 6, 74, 0
4, 230400, Note_on_c, 6, 67, 0
4, 230400, Note_on_c, 6, 84, 95
4, 230400, Note_on_c, 6, 65, 95
4, 230640, Note_on_c, 6, 84, 0
4, 230640, Note_on_c, 6, 82, 95
4, 230880, Note_on_c, 6, 82, 0
4, 230880, Note_on_c, 6, 84, 95
4, 231120, Note_on_c, 6, 84, 0
4, 231120, Note_on_c, 6, 82, 95
4, 231360, Note_on_c, 6, 82, 0
4, 231360, Note_on_c, 6, 86, 95
4, 231600, Note_on_c, 6, 86, 0
4, 231600, Note_on_c, 6, 82, 95
4, 231840, Note_on_c, 6, 82, 0
4, 231840, Note_on_c, 6, 65, 0
4, 231840, Note_on_c, 6, 84, 95
4, 231840, Note_on_c, 6, 72, 95
4, 232080, Note_on_c, 6, 72, 0
4, 232080, Note_on_c, 6, 84, 0
4, 232080, Note_on_c, 6, 84, 95
4, 232080, Note_on_c, 6, 72, 95
4, 232320, Note_on_c, 6, 72, 0
4, 232320, Note_on_c, 6, 84, 0
4, 232320, Note_on_c, 6, 79, 95
4, 232320, Note_on_c, 6, 70, 95
4, 232560, Note_on_c, 6, 79, 0
4, 232560, Note_on_c, 6, 82, 95
4, 232800, Note_on_c, 6, 82, 0
4, 232800, Note_on_c, 6, 81, 95
4, 233040, Note_on_c, 6, 81, 0
4, 233040, Note_on_c, 6, 82, 95
4, 233280, Note_on_c, 6, 82, 0
4, 233280, Note_on_c, 6, 82, 95
4, 233520, Note_on_c, 6, 82, 0
4, 233520, Note_on_c, 6, 79, 95
4, 233760, Note_on_c, 6, 79, 0
4, 233760, Note_on_c, 6, 84, 95
4, 234000, Note_on_c, 6, 84, 0
4, 234000, Note_on_c, 6, 82, 95
4, 234240, Note_on_c, 6, 82, 0
4, 234240, Note_on_c, 6, 70, 0
4, 234240, Note_on_c, 6, 84, 95
4, 234240, Note_on_c, 6, 72, 95
4, 234480, Note_on_c, 6, 84, 0
4, 234480, Note_on_c, 6, 82, 95
4, 234720, Note_on_c, 6, 82, 0
4, 234720, Note_on_c, 6, 84, 95
4, 234960, Note_on_c, 6, 84, 0
4, 234960, Note_on_c, 6, 82, 95
4, 235200, Note_on_c, 6, 82, 0
4, 235200, Note_on_c, 6, 86, 95
4, 235440, Note_on_c, 6, 86, 0
4, 235440, Note_on_c, 6, 82, 95
4, 235680, Note_on_c, 6, 82, 0
4, 235680, Note_on_c, 6, 84, 95
4, 235920, Note_on_c, 6, 84, 0
4, 235920, Note_on_c, 6, 86, 95
4, 236160, Note_on_c, 6, 86, 0
4, 236160, Note_on_c, 6, 72, 0
4, 236160, Note_on_c, 6, 79, 95
4, 236160, Note_on_c, 6, 67, 95
4, 236400, Note_on_c, 6, 79, 0
4, 236400, Note_on_c, 6, 82, 95
4, 236640, Note_on_c, 6, 82, 0
4, 236640, Note_on_c, 6, 81, 95
4, 236880, Note_on_c, 6, 81, 0
4, 236880, Note_on_c, 6, 82, 95
4, 237120, Note_on_c, 6, 82, 0
4, 237120, Note_on_c, 6, 82, 95
4, 237360, Note_on_c, 6, 82, 0
4, 237360, Note_on_c, 6, 79, 95
4, 237600, Note_on_c, 6, 79, 0
4, 237600, Note_on_c, 6, 77, 95
4, 237840, Note_on_c, 6, 77, 0
4, 237840, Note_on_c, 6, 74, 95
4, 238080, Note_on_c, 6, 74, 0
4, 238080, Note_on_c, 6, 67, 0
4, 238080, Note_on_c, 6, 84, 95
4, 238080, Note_on_c, 6, 65, 95
4, 238320, Note_on_c, 6, 84, 0
4, 238320, Note_on_c, 6, 82, 95
4, 238560, Note_on_c, 6, 82, 0
4, 238560, Note_on_c, 6, 84, 95
4, 238800, Note_on_c, 6, 84, 0
4, 238800, Note_on_c, 6, 82, 95
4, 239040, Note_on_c, 6, 82, 0
4, 239040, Note_on_c, 6, 86, 95
4, 239280, Note_on_c, 6, 86, 0
4, 239280, Note_on_c, 6, 82, 95
4, 239520, Note_on_c, 6, 82, 0
4, 239520, Note_on_c, 6, 65, 0
4, 239520, Note_on_c, 6, 84, 95
4, 239520, Note_on_c, 6, 72, 95
4, 239760, Note_on_c, 6, 72, 0
4, 239760, Note_on_c, 6, 84, 0
4, 239760, Note_on_c, 6, 84, 95
4, 239760, Note_on_c, 6, 72, 95
4, 240000, Note_on_c, 6, 72, 0
4, 240000, Note_on_c, 6, 84, 0
4, 240000, Note_on_c, 6, 79, 95
4, 240000, Note_on_c, 6, 70, 95
4, 240240, Note_on_c, 6, 79, 0
4, 240240, Note_on_c, 6, 82, 95
4, 240480, Note_on_c, 6, 82, 0
4, 240480, Note_on_c, 6, 81, 95
4, 240720, Note_on_c, 6, 81, 0
4, 240720, Note_on_c, 6, 82, 95
4, 240960, Note_on_c, 6, 82, 0
4, 240960, Note_on_c, 6, 82, 95
4, 241200, Note_on_c, 6, 82, 0
4, 241200, Note_on_c, 6, 79, 95
4, 241440, Note_on_c, 6, 79, 0
4, 241440, Note_on_c, 6, 84, 95
4, 241680, Note_on_c, 6, 84, 0
4, 241680, Note_on_c, 6, 82, 95
4, 241920, Note_on_c, 6, 82, 0
4, 241920, Note_on_c, 6, 70, 0
4, 241920, Note_on_c, 6, 84, 95
4, 241920, Note_on_c, 6, 72, 95
4, 242160, Note_on_c, 6, 84, 0
4, 242160, Note_on_c, 6, 82, 95
4, 242400, Note_on_c, 6, 82, 0
4, 242400, Note_on_c, 6, 84, 95
4, 242640, Note_on_c, 6, 84, 0
4, 242640, Note_on_c, 6, 82, 95
4, 242880, Note_on_c, 6, 82, 0
4, 242880, Note_on_c, 6, 86, 95
4, 243120, Note_on_c, 6, 86, 0
4, 243120, Note_on_c, 6, 82, 95
4, 243360, Note_on_c, 6, 82, 0
4, 243360, Note_on_c, 6, 84, 95
4, 243600, Note_on_c, 6, 84, 0
4, 243600, Note_on_c, 6, 86, 95
4, 243840, Note_on_c, 6, 86, 0
4, 243840, Note_on_c, 6, 72, 0
4, 243840, Note_on_c, 6, 79, 95
4, 243840, Note_on_c, 6, 67, 95
4, 244080, Note_on_c, 6, 79, 0
4, 244080, Note_on_c, 6, 82, 95
4, 244320, Note_on_c, 6, 82, 0
4, 244320, Note_on_c, 6, 81, 95
4, 244560, Note_on_c, 6, 81, 0
4, 244560, Note_on_c, 6, 82, 95
4, 244800, Note_on_c, 6, 82, 0
4, 244800, Note_on_c, 6, 82, 95
4, 245040, Note_on_c, 6, 82, 0
4, 245040, Note_on_c, 6, 79, 95
4, 245280, Note_on_c, 6, 79, 0
4, 245280, Note_on_c, 6, 77, 95
4, 245520, Note_on_c, 6, 77, 0
4, 245520, Note_on_c, 6, 74, 95
4, 245760, Note_on_c, 6, 74, 0
4, 245760, Note_on_c, 6, 67, 0
4, 245760, Note_on_c, 6, 84, 95
4, 245760, Note_on_c, 6, 65, 95
4, 246000, Note_on_c, 6, 84, 0
4, 246000, Note_on_c, 6, 82, 95
4, 246240, Note_on_c, 6, 82, 0
4, 246240, Note_on_c, 6, 84, 95
4, 246480, Note_on_c, 6, 84, 0
4, 246480, Note_on_c, 6, 82, 95
4, 246720, Note_on_c, 6, 82, 0
4, 246720, Note_on_c, 6, 86, 95
4, 246960, Note_on_c, 6, 86, 0
4, 246960, Note_on_c, 6, 82, 95
4, 247200, Note_on_c, 6, 82, 0
4, 247200, Note_on_c, 6, 65, 0
4, 247200, Note_on_c, 6, 84, 95
4, 247200, Note_on_c, 6, 72, 95
4, 247440, Note_on_c, 6, 72, 0
4, 247440, Note_on_c, 6, 84, 0
4, 247440, Note_on_c, 6, 84, 95
4, 247440, Note_on_c, 6, 72, 95
4, 247680, Note_on_c, 6, 72, 0
4, 247680, Note_on_c, 6, 84, 0
4, 247680, Note_on_c, 6, 79, 95
4, 247680, Note_on_c, 6, 70, 95
4, 247920, Note_on_c, 6, 79, 0
4, 247920, Note_on_c, 6, 82, 95
4, 248160, Note_on_c, 6, 82, 0
4, 248160, Note_on_c, 6, 81, 95
4, 248400, Note_on_c, 6, 81, 0
4, 248400, Note_on_c, 6, 82, 95
4, 248640, Note_on_c, 6, 82, 0
4, 248640, Note_on_c, 6, 82, 95
4, 248880, Note_on_c, 6, 82, 0
4, 248880, Note_on_c, 6, 79, 95
4, 249120, Note_on_c, 6, 79, 0
4, 249120, Note_on_c, 6, 84, 95
4, 249360, Note_on_c, 6, 84, 0
4, 249360, Note_on_c, 6, 82, 95
4, 249600, Note_on_c, 6, 82, 0
4, 249600, Note_on_c, 6, 70, 0
4, 249600, Note_on_c, 6, 84, 95
4, 249600, Note_on_c, 6, 72, 95
4, 249840, Note_on_c, 6, 84, 0
4, 249840, Note_on_c, 6, 82, 95
4, 250080, Note_on_c, 6, 82, 0
4, 250080, Note_on_c, 6, 84, 95
4, 250320, Note_on_c, 6, 84, 0
4, 250320, Note_on_c, 6, 82, 95
4, 250560, Note_on_c, 6, 82, 0
4, 250560, Note_on_c, 6, 86, 95
4, 250800, Note_on_c, 6, 86, 0
4, 250800, Note_on_c, 6, 82, 95
4, 251040, Note_on_c, 6, 82, 0
4, 251040, Note_on_c, 6, 84, 95
4, 251280, Note_on_c, 6, 84, 0
4, 251280, Note_on_c, 6, 86, 95
4, 251520, Note_on_c, 6, 86, 0
4, 251520, Note_on_c, 6, 72, 0
4, 251520, Note_on_c, 6, 79, 95
4, 251520, Note_on_c, 6, 67, 95
4, 251760, Note_on_c, 6, 79, 0
4, 251760, Note_on_c, 6, 82, 95
4, 252000, Note_on_c, 6, 82, 0
4, 252000, Note_on_c, 6, 81, 95
4, 252240, Note_on_c, 6, 81, 0
4, 252240, Note_on_c, 6, 82, 95
4, 252480, Note_on_c, 6, 82, 0
4, 252480, Note_on_c, 6, 82, 95
4, 252720, Note_on_c, 6, 82, 0
4, 252720, Note_on_c, 6, 79, 95
4, 252960, Note_on_c, 6, 79, 0
4, 252960, Note_on_c, 6, 77, 95
4, 253200, Note_on_c, 6, 77, 0
4, 253200, Note_on_c, 6, 74, 95
4, 253440, Note_on_c, 6, 74, 0
4, 253440, Note_on_c, 6, 67, 0
4, 253440, Note_on_c, 6, 84, 95
4, 253440, Note_on_c, 6, 65, 95
4, 253680, Note_on_c, 6, 84, 0
4, 253680, Note_on_c, 6, 82, 95
4, 253920, Note_on_c, 6, 82, 0
4, 253920, Note_on_c, 6, 84, 95
4, 254160, Note_on_c, 6, 84, 0
4, 254160, Note_on_c, 6, 82, 95
4, 254400, Note_on_c, 6, 82, 0
4, 254400, Note_on_c, 6, 86, 95
4, 254640, Note_on_c, 6, 86, 0
4, 254640, Note_on_c, 6, 82, 95
4, 254880, Note_on_c, 6, 82, 0
4, 254880, Note_on_c, 6, 65, 0
4, 254880, Note_on_c, 6, 84, 95
4, 254880, Note_on_c, 6, 72, 95
4, 255120, Note_on_c, 6, 72, 0
4, 255120, Note_on_c, 6, 84, 0
4, 255120, Note_on_c, 6, 84, 95
4, 255120, Note_on_c, 6, 72, 95
4, 255360, Note_on_c, 6, 72, 0
4, 255360, Note_on_c, 6, 84, 0
4, 255360, Note_on_c, 6, 79, 95
4, 255360, Note_on_c, 6, 70, 95
4, 255600, Note_on_c, 6, 79, 0
4, 255600, Note_on_c, 6, 82, 95
4, 255840, Note_on_c, 6, 82, 0
4, 255840, Note_on_c, 6, 81, 95
4, 256080, Note_on_c, 6, 81, 0
4, 256080, Note_on_c, 6, 82, 95
4, 256320, Note_on_c, 6, 82, 0
4, 256320, Note_on_c, 6, 82, 95
4, 256560, Note_on_c, 6, 82, 0
4, 256560, Note_on_c, 6, 79, 95
4, 256800, Note_on_c, 6, 79, 0
4, 256800, Note_on_c, 6, 84, 95
4, 257040, Note_on_c, 6, 84, 0
4, 257040, Note_on_c, 6, 82, 95
4, 257280, Note_on_c, 6, 82, 0
4, 257280, Note_on_c, 6, 70, 0
4, 257280, Note_on_c, 6, 84, 95
4, 257280, Note_on_c, 6, 72, 95
4, 257520, Note_on_c, 6, 84, 0
4, 257520, Note_on_c, 6, 82, 95
4, 257760, Note_on_c, 6, 82, 0
4, 257760, Note_on_c, 6, 84, 95
4, 258000, Note_on_c, 6, 84, 0
4, 258000, Note_on_c, 6, 82, 95
4, 258240, Note_on_c, 6, 82, 0
4, 258240, Note_on_c, 6, 86, 95
4, 258480, Note_on_c, 6, 86, 0
4, 258480, Note_on_c, 6, 82, 95
4, 258720, Note_on_c, 6, 82, 0
4, 258720, Note_on_c, 6, 84, 95
4, 258960, Note_on_c, 6, 84, 0
4, 258960, Note_on_c, 6, 86, 95
4, 259200, Note_on_c, 6, 86, 0
4, 259200, Note_on_c, 6, 72, 0
4, 259200, Note_on_c, 6, 79, 95
4, 259200, Note_on_c, 6, 67, 95
4, 259440, Note_on_c, 6, 79, 0
4, 259440, Note_on_c, 6, 82, 95
4, 259680, Note_on_c, 6, 82, 0
4, 259680, Note_on_c, 6, 81, 95
4, 259920, Note_on_c, 6, 81, 0
4, 259920, Note_on_c, 6, 82, 95
4, 260160, Note_on_c, 6, 82, 0
4, 260160, Note_on_c, 6, 82, 95
4, 260400, Note_on_c, 6, 82, 0
4, 260400, Note_on_c, 6, 79, 95
4, 260640, Note_on_c, 6, 79, 0
4, 260640, Note_on_c, 6, 77, 95
4, 260880, Note_on_c, 6, 77, 0
4, 260880, Note_on_c, 6, 74, 95
4, 261120, Note_on_c, 6, 74, 0
4, 261120, Note_on_c, 6, 67, 0
4, 261120, Note_on_c, 6, 84, 95
4, 261120, Note_on_c, 6, 65, 95
4, 261360, Note_on_c, 6, 84, 0
4, 261360, Note_on_c, 6, 82, 95
4, 261600, Note_on_c, 6, 82, 0
4, 261600, Note_on_c, 6, 84, 95
4, 261840, Note_on_c, 6, 84, 0
4, 261840, Note_on_c, 6, 82, 95
4, 262080, Note_on_c, 6, 82, 0
4, 262080, Note_on_c, 6, 86, 95
4, 262320, Note_on_c, 6, 86, 0
4, 262320, Note_on_c, 6, 82, 95
4, 262560, Note_on_c, 6, 82, 0
4, 262560, Note_on_c, 6, 65, 0
4, 262560, Note_on_c, 6, 84, 95
4, 262560, Note_on_c, 6, 72, 95
4, 262800, Note_on_c, 6, 72, 0
4, 262800, Note_on_c, 6, 84, 0
4, 262800, Note_on_c, 6, 84, 95
4, 262800, Note_on_c, 6, 72, 95
4, 263040, Note_on_c, 6, 72, 0
4, 263040, Note_on_c, 6, 84, 0
4, 263040, Control_c, 6, 7, 98
4, 263040, Control_c, 7, 7, 98
4, 263040, Note_on_c, 6, 84, 95
4, 263040, Note_on_c, 6, 72, 95
4, 263160, Control_c, 6, 7, 92
4, 263160, Control_c, 7, 7, 92
4, 263280, Note_on_c, 6, 72, 0
4, 263280, Note_on_c, 6, 84, 0
4, 263280, Control_c, 6, 7, 86
4, 263280, Control_c, 7, 7, 86
4, 263280, Note_on_c, 6, 84, 95
4, 263280, Note_on_c, 6, 72, 95
4, 263400, Control_c, 6, 7, 80
4, 263400, Control_c, 7, 7, 80
4, 263520, Note_on_c, 6, 72, 0
4, 263520, Note_on_c, 6, 84, 0
4, 263520, Control_c, 6, 7, 73
4, 263520, Control_c, 7, 7, 73
4, 263520, Note_on_c, 6, 84, 50
4, 263520, Note_on_c, 6, 72, 50
4, 263640, Control_c, 6, 7, 67
4, 263640, Control_c, 7, 7, 67
4, 263760, Note_on_c, 6, 72, 0
4, 263760, Note_on_c, 6, 84, 0
4, 263760, Control_c, 6, 7, 61
4, 263760, Control_c, 7, 7, 61
4, 263760, Note_on_c, 6, 84, 95
4, 263760, Note_on_c, 6, 72, 95
4, 263880, Control_c, 6, 7, 55
4, 263880, Control_c, 7, 7, 55
4, 264000, Note_on_c, 6, 72, 0
4, 264000, Note_on_c, 6, 84, 0
4, 264000, Control_c, 6, 7, 49
4, 264000, Control_c, 7, 7, 49
4, 264000, Note_on_c, 6, 84, 95
4, 264000, Note_on_c, 6, 72, 95
4, 264120, Control_c, 6, 7, 43
4, 264120, Control_c, 7, 7, 43
4, 264240, Note_on_c, 6, 72, 0
4, 264240, Note_on_c, 6, 84, 0
4, 264240, Control_c, 6, 7, 37
4, 264240, Control_c, 7, 7, 37
4, 264240, Note_on_c, 6, 84, 50
4, 264240, Note_on_c, 6, 72, 50
4, 264360, Control_c, 6, 7, 31
4, 264360, Control_c, 7, 7, 31
4, 264480, Note_on_c, 6, 72, 0
4, 264480, Note_on_c, 6, 84, 0
4, 264480, Control_c, 6, 7, 24
4, 264480, Control_c, 7, 7, 24
4, 264480, Note_on_c, 6, 84, 95
4, 264480, Note_on_c, 6, 72, 95
4, 264600, Control_c, 6, 7, 18
4, 264600, Control_c, 7, 7, 18
4, 264720, Note_on_c, 6, 72, 0
4, 264720, Note_on_c, 6, 84, 0
4, 264720, Control_c, 6, 7, 12
4, 264720, Control_c, 7, 7, 12
4, 264720, Note_on_c, 6, 84, 95
4, 264720, Note_on_c, 6, 72, 95
4, 264840, Control_c, 6, 7, 6
4, 264840, Control_c, 7, 7, 6
4, 264960, Note_on_c, 6, 72, 0
4, 264960, Note_on_c, 6, 84, 0
4, 264960, Control_c, 6, 7, 0
4, 264960, Control_c, 7, 7, 0
4, 264960, End_track
5, 0, Start_track
5, 0, Title_t, "Lead"
5, 1917, Control_c, 1, 101, 0
5, 1918, Control_c, 1, 100, 0
5, 1919, Control_c, 1, 6, 12
5, 1920, Control_c, 1, 38, 0
5, 1920, Pitch_bend_c, 1, 8192
5, 1920, Control_c, 1, 101, 0
5, 1921, Control_c, 1, 100, 1
5, 1922, Control_c, 1, 6, 64
5, 1923, Control_c, 1, 38, 0
5, 1923, Control_c, 0, 101, 0
5, 1924, Control_c, 0, 100, 0
5, 1925, Control_c, 0, 6, 12
5, 1926, Control_c, 0, 38, 0
5, 1926, Pitch_bend_c, 0, 8192
5, 1926, Control_c, 0, 101, 0
5, 1927, Control_c, 0, 100, 1
5, 1928, Control_c, 0, 6, 64
5, 1929, Control_c, 0, 38, 0
5, 1929, Control_c, 1, 101, 0
5, 1930, Control_c, 1, 100, 2
5, 1931, Control_c, 1, 6, 64
5, 1932, Control_c, 1, 38, 0
5, 1932, Control_c, 0, 101, 0
5, 1933, Control_c, 0, 100, 2
5, 1934, Control_c, 0, 6, 64
5, 1935, Control_c, 0, 38, 0
5, 1935, Program_c, 1, 80
5, 1935, Program_c, 0, 80
5, 1935, Control_c, 1, 0, 0
5, 1935, Control_c, 0, 0, 0
5, 1935, Control_c, 0, 7, 104
5, 1935, Control_c, 0, 10, 64
5, 1935, Control_c, 0, 93, 0
5, 1935, Control_c, 0, 91, 0
5, 1935, Control_c, 1, 92, 0
5, 1935, Control_c, 0, 92, 0
5, 1935, Control_c, 1, 95, 0
5, 1935, Control_c, 0, 95, 0
5, 1935, Note_on_c, 0, 55, 95
5, 2160, Note_on_c, 0, 55, 0
5, 2160, Note_on_c, 0, 67, 95
5, 2400, Note_on_c, 0, 67, 0
5, 2400, Note_on_c, 0, 65, 95
5, 2640, Note_on_c, 0, 65, 0
5, 2640, Note_on_c, 0, 67, 95
5, 2880, Note_on_c, 0, 67, 0
5, 2880, Note_on_c, 0, 70, 95
5, 3360, Note_on_c, 0, 70, 0
5, 3360, Note_on_c, 0, 67, 95
5, 3600, Note_on_c, 0, 67, 0
5, 3600, Note_on_c, 0, 74, 95
5, 3840, Note_on_c, 0, 74, 0
5, 3840, Note_on_c, 0, 72, 95
5, 4080, Note_on_c, 0, 72, 0
5, 4080, Note_on_c, 0, 70, 95
5, 4320, Note_on_c, 0, 70, 0
5, 4320, Note_on_c, 0, 65, 95
5, 4800, Note_on_c, 0, 65, 0
5, 4800, Note_on_c, 0, 58, 95
5, 5040, Note_on_c, 0, 58, 0
5, 5040, Note_on_c, 0, 57, 95
5, 5280, Note_on_c, 0, 57, 0
5, 5280, Note_on_c, 0, 65, 95
5, 5520, Note_on_c, 0, 65, 0
5, 5520, Note_on_c, 0, 63, 95
5, 5760, Note_on_c, 0, 63, 0
5, 5760, Note_on_c, 0, 62, 95
5, 6000, Note_on_c, 0, 62, 0
5, 6000, Note_on_c, 0, 60, 95
5, 6240, Note_on_c, 0, 60, 0
5, 6240, Note_on_c, 0, 58, 95
5, 6480, Note_on_c, 0, 58, 0
5, 6480, Note_on_c, 0, 55, 95
5, 6720, Note_on_c, 0, 55, 0
5, 6720, Note_on_c, 0, 58, 95
5, 6960, Note_on_c, 0, 58, 0
5, 6960, Note_on_c, 0, 55, 95
5, 7200, Note_on_c, 0, 55, 0
5, 7200, Note_on_c, 0, 58, 95
5, 7440, Note_on_c, 0, 58, 0
5, 7440, Note_on_c, 0, 62, 95
5, 7680, Note_on_c, 0, 62, 0
5, 7680, Note_on_c, 0, 67, 95
5, 7920, Note_on_c, 0, 67, 0
5, 7920, Note_on_c, 0, 62, 95
5, 8160, Note_on_c, 0, 62, 0
5, 8160, Note_on_c, 0, 58, 95
5, 8400, Note_on_c, 0, 58, 0
5, 8400, Note_on_c, 0, 55, 95
5, 8640, Note_on_c, 0, 55, 0
5, 8640, Note_on_c, 0, 65, 95
5, 8880, Note_on_c, 0, 65, 0
5, 8880, Note_on_c, 0, 58, 95
5, 9120, Note_on_c, 0, 58, 0
5, 9120, Note_on_c, 0, 55, 95
5, 9360, Note_on_c, 0, 55, 0
5, 9360, Note_on_c, 0, 53, 95
5, 9600, Note_on_c, 0, 53, 0
5, 9600, Note_on_c, 0, 55, 95
5, 9840, Note_on_c, 0, 55, 0
5, 9840, Note_on_c, 0, 67, 95
5, 10080, Note_on_c, 0, 67, 0
5, 10080, Note_on_c, 0, 65, 95
5, 10320, Note_on_c, 0, 65, 0
5, 10320, Note_on_c, 0, 67, 95
5, 10560, Note_on_c, 0, 67, 0
5, 10560, Note_on_c, 0, 70, 95
5, 11040, Note_on_c, 0, 70, 0
5, 11040, Note_on_c, 0, 67, 95
5, 11280, Note_on_c, 0, 67, 0
5, 11280, Note_on_c, 0, 74, 95
5, 11520, Note_on_c, 0, 74, 0
5, 11520, Note_on_c, 0, 72, 95
5, 11760, Note_on_c, 0, 72, 0
5, 11760, Note_on_c, 0, 70, 95
5, 12000, Note_on_c, 0, 70, 0
5, 12000, Note_on_c, 0, 65, 95
5, 12480, Note_on_c, 0, 65, 0
5, 12480, Note_on_c, 0, 58, 95
5, 12720, Note_on_c, 0, 58, 0
5, 12720, Note_on_c, 0, 57, 95
5, 12960, Note_on_c, 0, 57, 0
5, 12960, Note_on_c, 0, 65, 95
5, 13200, Note_on_c, 0, 65, 0
5, 13200, Note_on_c, 0, 63, 95
5, 13440, Note_on_c, 0, 63, 0
5, 13440, Note_on_c, 0, 62, 95
5, 13680, Note_on_c, 0, 62, 0
5, 13680, Note_on_c, 0, 60, 95
5, 13920, Note_on_c, 0, 60, 0
5, 13920, Note_on_c, 0, 58, 95
5, 14160, Note_on_c, 0, 58, 0
5, 14160, Note_on_c, 0, 55, 95
5, 14400, Note_on_c, 0, 55, 0
5, 14400, Note_on_c, 0, 58, 95
5, 14640, Note_on_c, 0, 58, 0
5, 14640, Note_on_c, 0, 55, 95
5, 14880, Note_on_c, 0, 55, 0
5, 14880, Note_on_c, 0, 58, 95
5, 15120, Note_on_c, 0, 58, 0
5, 15120, Note_on_c, 0, 62, 95
5, 15360, Note_on_c, 0, 62, 0
5, 15360, Note_on_c, 0, 67, 95
5, 15600, Note_on_c, 0, 67, 0
5, 15600, Note_on_c, 0, 62, 95
5, 15840, Note_on_c, 0, 62, 0
5, 15840, Note_on_c, 0, 58, 95
5, 16080, Note_on_c, 0, 58, 0
5, 16080, Note_on_c, 0, 55, 95
5, 16320, Note_on_c, 0, 55, 0
5, 16320, Note_on_c, 0, 65, 95
5, 16560, Note_on_c, 0, 65, 0
5, 16560, Note_on_c, 0, 58, 95
5, 16800, Note_on_c, 0, 58, 0
5, 16800, Note_on_c, 0, 55, 95
5, 17040, Note_on_c, 0, 55, 0
5, 17040, Note_on_c, 0, 53, 95
5, 17280, Note_on_c, 0, 53, 0
5, 17280, Note_on_c, 0, 55, 95
5, 17520, Note_on_c, 0, 55, 0
5, 17520, Note_on_c, 0, 67, 95
5, 17760, Note_on_c, 0, 67, 0
5, 17760, Note_on_c, 0, 65, 95
5, 18000, Note_on_c, 0, 65, 0
5, 18000, Note_on_c, 0, 67, 95
5, 18240, Note_on_c, 0, 67, 0
5, 18240, Note_on_c, 0, 70, 95
5, 18720, Note_on_c, 0, 70, 0
5, 18720, Note_on_c, 0, 67, 95
5, 18960, Note_on_c, 0, 67, 0
5, 18960, Note_on_c, 0, 74, 95
5, 19200, Note_on_c, 0, 74, 0
5, 19200, Note_on_c, 0, 72, 95
5, 19440, Note_on_c, 0, 72, 0
5, 19440, Note_on_c, 0, 70, 95
5, 19680, Note_on_c, 0, 70, 0
5, 19680, Note_on_c, 0, 65, 95
5, 20160, Note_on_c, 0, 65, 0
5, 20160, Note_on_c, 0, 58, 95
5, 20400, Note_on_c, 0, 58, 0
5, 20400, Note_on_c, 0, 57, 95
5, 20640, Note_on_c, 0, 57, 0
5, 20640, Note_on_c, 0, 65, 95
5, 20880, Note_on_c, 0, 65, 0
5, 20880, Note_on_c, 0, 63, 95
5, 21120, Note_on_c, 0, 63, 0
5, 21120, Note_on_c, 0, 62, 95
5, 21360, Note_on_c, 0, 62, 0
5, 21360, Note_on_c, 0, 60, 95
5, 21600, Note_on_c, 0, 60, 0
5, 21600, Note_on_c, 0, 58, 95
5, 21840, Note_on_c, 0, 58, 0
5, 21840, Note_on_c, 0, 55, 95
5, 22080, Note_on_c, 0, 55, 0
5, 22080, Note_on_c, 0, 58, 95
5, 22320, Note_on_c, 0, 58, 0
5, 22320, Note_on_c, 0, 55, 95
5, 22560, Note_on_c, 0, 55, 0
5, 22560, Note_on_c, 0, 58, 95
5, 22800, Note_on_c, 0, 58, 0
5, 22800, Note_on_c, 0, 62, 95
5, 23040, Note_on_c, 0, 62, 0
5, 23040, Note_on_c, 0, 67, 95
5, 23280, Note_on_c, 0, 67, 0
5, 23280, Note_on_c, 0, 62, 95
5, 23520, Note_on_c, 0, 62, 0
5, 23520, Note_on_c, 0, 58, 95
5, 23760, Note_on_c, 0, 58, 0
5, 23760, Note_on_c, 0, 55, 95
5, 24000, Note_on_c, 0, 55, 0
5, 24000, Note_on_c, 0, 65, 95
5, 24240, Note_on_c, 0, 65, 0
5, 24240, Note_on_c, 0, 58, 95
5, 24480, Note_on_c, 0, 58, 0
5, 24480, Note_on_c, 0, 55, 95
5, 24720, Note_on_c, 0, 55, 0
5, 24720, Note_on_c, 0, 53, 95
5, 24960, Note_on_c, 0, 53, 0
5, 24960, Note_on_c, 0, 55, 95
5, 25200, Note_on_c, 0, 55, 0
5, 25200, Note_on_c, 0, 67, 95
5, 25440, Note_on_c, 0, 67, 0
5, 25440, Note_on_c, 0, 65, 95
5, 25680, Note_on_c, 0, 65, 0
5, 25680, Note_on_c, 0, 67, 95
5, 25920, Note_on_c, 0, 67, 0
5, 25920, Note_on_c, 0, 70, 95
5, 26400, Note_on_c, 0, 70, 0
5, 26400, Note_on_c, 0, 67, 95
5, 26640, Note_on_c, 0, 67, 0
5, 26640, Note_on_c, 0, 74, 95
5, 26880, Note_on_c, 0, 74, 0
5, 26880, Note_on_c, 0, 72, 95
5, 27120, Note_on_c, 0, 72, 0
5, 27120, Note_on_c, 0, 70, 95
5, 27360, Note_on_c, 0, 70, 0
5, 27360, Note_on_c, 0, 65, 95
5, 27840, Note_on_c, 0, 65, 0
5, 27840, Note_on_c, 0, 58, 95
5, 28080, Note_on_c, 0, 58, 0
5, 28080, Note_on_c, 0, 57, 95
5, 28320, Note_on_c, 0, 57, 0
5, 28320, Note_on_c, 0, 65, 95
5, 28560, Note_on_c, 0, 65, 0
5, 28560, Note_on_c, 0, 63, 95
5, 28800, Note_on_c, 0, 63, 0
5, 28800, Note_on_c, 0, 62, 95
5, 29040, Note_on_c, 0, 62, 0
5, 29040, Note_on_c, 0, 60, 95
5, 29280, Note_on_c, 0, 60, 0
5, 29280, Note_on_c, 0, 58, 95
5, 29520, Note_on_c, 0, 58, 0
5, 29520, Note_on_c, 0, 55, 95
5, 29760, Note_on_c, 0, 55, 0
5, 29760, Note_on_c, 0, 58, 95
5, 30000, Note_on_c, 0, 58, 0
5, 30000, Note_on_c, 0, 55, 95
5, 30240, Note_on_c, 0, 55, 0
5, 30240, Note_on_c, 0, 58, 95
5, 30480, Note_on_c, 0, 58, 0
5, 30480, Note_on_c, 0, 62, 95
5, 30720, Note_on_c, 0, 62, 0
5, 30720, Note_on_c, 0, 67, 95
5, 30960, Note_on_c, 0, 67, 0
5, 30960, Note_on_c, 0, 62, 95
5, 31200, Note_on_c, 0, 62, 0
5, 31200, Note_on_c, 0, 58, 95
5, 31440, Note_on_c, 0, 58, 0
5, 31440, Note_on_c, 0, 55, 95
5, 31680, Note_on_c, 0, 55, 0
5, 31680, Note_on_c, 0, 65, 95
5, 31920, Note_on_c, 0, 65, 0
5, 31920, Note_on_c, 0, 58, 95
5, 32160, Note_on_c, 0, 58, 0
5, 32160, Note_on_c, 0, 55, 95
5, 32400, Note_on_c, 0, 55, 0
5, 32400, Note_on_c, 0, 53, 95
5, 32640, Note_on_c, 0, 53, 0
5, 32640, Note_on_c, 0, 55, 50
5, 32880, Note_on_c, 0, 55, 0
5, 32880, Note_on_c, 0, 67, 50
5, 33120, Note_on_c, 0, 67, 0
5, 33120, Note_on_c, 0, 65, 50
5, 33360, Note_on_c, 0, 65, 0
5, 33360, Note_on_c, 0, 67, 50
5, 33600, Note_on_c, 0, 67, 0
5, 33600, Note_on_c, 0, 70, 50
5, 34080, Note_on_c, 0, 70, 0
5, 34080, Note_on_c, 0, 67, 50
5, 34320, Note_on_c, 0, 67, 0
5, 34320, Note_on_c, 0, 74, 50
5, 34560, Note_on_c, 0, 74, 0
5, 34560, Note_on_c, 0, 72, 50
5, 34800, Note_on_c, 0, 72, 0
5, 34800, Note_on_c, 0, 70, 50
5, 35040, Note_on_c, 0, 70, 0
5, 35040, Note_on_c, 0, 65, 50
5, 35520, Note_on_c, 0, 65, 0
5, 35520, Note_on_c, 0, 58, 50
5, 35760, Note_on_c, 0, 58, 0
5, 35760, Note_on_c, 0, 57, 50
5, 36000, Note_on_c, 0, 57, 0
5, 36000, Note_on_c, 0, 65, 50
5, 36240, Note_on_c, 0, 65, 0
5, 36240, Note_on_c, 0, 63, 50
5, 36480, Note_on_c, 0, 63, 0
5, 36480, Note_on_c, 0, 62, 50
5, 36720, Note_on_c, 0, 62, 0
5, 36720, Note_on_c, 0, 60, 50
5, 36960, Note_on_c, 0, 60, 0
5, 36960, Note_on_c, 0, 58, 50
5, 37200, Note_on_c, 0, 58, 0
5, 37200, Note_on_c, 0, 55, 50
5, 37440, Note_on_c, 0, 55, 0
5, 37440, Note_on_c, 0, 58, 50
5, 37680, Note_on_c, 0, 58, 0
5, 37680, Note_on_c, 0, 55, 50
5, 37920, Note_on_c, 0, 55, 0
5, 37920, Note_on_c, 0, 58, 50
5, 38160, Note_on_c, 0, 58, 0
5, 38160, Note_on_c, 0, 62, 50
5, 38400, Note_on_c, 0, 62, 0
5, 38400, Note_on_c, 0, 67, 50
5, 38640, Note_on_c, 0, 67, 0
5, 38640, Note_on_c, 0, 62, 50
5, 38880, Note_on_c, 0, 62, 0
5, 38880, Note_on_c, 0, 58, 50
5, 39120, Note_on_c, 0, 58, 0
5, 39120, Note_on_c, 0, 55, 50
5, 39360, Note_on_c, 0, 55, 0
5, 39360, Note_on_c, 0, 65, 50
5, 39600, Note_on_c, 0, 65, 0
5, 39600, Note_on_c, 0, 58, 50
5, 39840, Note_on_c, 0, 58, 0
5, 39840, Note_on_c, 0, 55, 50
5, 40080, Note_on_c, 0, 55, 0
5, 40080, Note_on_c, 0, 53, 50
5, 40320, Note_on_c, 0, 53, 0
5, 40320, Note_on_c, 0, 55, 50
5, 40560, Note_on_c, 0, 55, 0
5, 40560, Note_on_c, 0, 67, 50
5, 40800, Note_on_c, 0, 67, 0
5, 40800, Note_on_c, 0, 65, 50
5, 41040, Note_on_c, 0, 65, 0
5, 41040, Note_on_c, 0, 67, 50
5, 41280, Note_on_c, 0, 67, 0
5, 41280, Note_on_c, 0, 70, 50
5, 41760, Note_on_c, 0, 70, 0
5, 41760, Note_on_c, 0, 67, 50
5, 42000, Note_on_c, 0, 67, 0
5, 42000, Note_on_c, 0, 74, 50
5, 42240, Note_on_c, 0, 74, 0
5, 42240, Note_on_c, 0, 72, 50
5, 42480, Note_on_c, 0, 72, 0
5, 42480, Note_on_c, 0, 70, 50
5, 42720, Note_on_c, 0, 70, 0
5, 42720, Note_on_c, 0, 65, 50
5, 43200, Note_on_c, 0, 65, 0
5, 43200, Note_on_c, 0, 58, 50
5, 43440, Note_on_c, 0, 58, 0
5, 43440, Note_on_c, 0, 57, 50
5, 43680, Note_on_c, 0, 57, 0
5, 43680, Note_on_c, 0, 65, 50
5, 43920, Note_on_c, 0, 65, 0
5, 43920, Note_on_c, 0, 63, 50
5, 44160, Note_on_c, 0, 63, 0
5, 44160, Note_on_c, 0, 62, 50
5, 44400, Note_on_c, 0, 62, 0
5, 44400, Note_on_c, 0, 60, 50
5, 44640, Note_on_c, 0, 60, 0
5, 44640, Note_on_c, 0, 58, 50
5, 44880, Note_on_c, 0, 58, 0
5, 44880, Note_on_c, 0, 55, 50
5, 45120, Note_on_c, 0, 55, 0
5, 45120, Note_on_c, 0, 58, 50
5, 45360, Note_on_c, 0, 58, 0
5, 45360, Note_on_c, 0, 55, 50
5, 45600, Note_on_c, 0, 55, 0
5, 45600, Note_on_c, 0, 58, 50
5, 45840, Note_on_c, 0, 58, 0
5, 45840, Note_on_c, 0, 62, 50
5, 46080, Note_on_c, 0, 62, 0
5, 48000, Program_c, 0, 62
5, 48000, Program_c, 1, 62
5, 48960, Note_on_c, 1, 71, 95
5, 48960, Pitch_bend_c, 1, 8192
5, 48960, Note_on_c, 1, 67, 95
5, 48960, Pitch_bend_c, 1, 8192
5, 48960, Note_on_c, 1, 62, 95
5, 48960, Pitch_bend_c, 1, 8192
5, 48992, Pitch_bend_c, 1, 8320
5, 48992, Pitch_bend_c, 1, 8320
5, 48992, Pitch_bend_c, 1, 8320
5, 49008, Pitch_bend_c, 1, 8448
5, 49008, Pitch_bend_c, 1, 8448
5, 49024, Pitch_bend_c, 1, 8448
5, 49024, Pitch_bend_c, 1, 8704
5, 49024, Pitch_bend_c, 1, 8704
5, 49040, Pitch_bend_c, 1, 8576
5, 49040, Pitch_bend_c, 1, 8960
5, 49040, Pitch_bend_c, 1, 8960
5, 49056, Pitch_bend_c, 1, 8704
5, 49056, Pitch_bend_c, 1, 9344
5, 49056, Pitch_bend_c, 1, 9344
5, 49072, Pitch_bend_c, 1, 8832
5, 49072, Pitch_bend_c, 1, 9472
5, 49072, Pitch_bend_c, 1, 9472
5, 49088, Pitch_bend_c, 1, 9600
5, 49088, Pitch_bend_c, 1, 9600
5, 49440, Note_on_c, 1, 62, 0
5, 49440, Note_on_c, 1, 67, 0
5, 49440, Note_on_c, 1, 71, 0
5, 49440, Pitch_bend_c, 1, 8192
5, 49440, Pitch_bend_c, 1, 8192
5, 49440, Pitch_bend_c, 1, 8192
5, 52800, Note_on_c, 1, 71, 95
5, 52800, Pitch_bend_c, 1, 8192
5, 52800, Note_on_c, 1, 67, 95
5, 52800, Pitch_bend_c, 1, 8192
5, 52800, Note_on_c, 1, 62, 95
5, 52800, Pitch_bend_c, 1, 8192
5, 52832, Pitch_bend_c, 1, 8320
5, 52832, Pitch_bend_c, 1, 8320
5, 52832, Pitch_bend_c, 1, 8320
5, 52848, Pitch_bend_c, 1, 8448
5, 52848, Pitch_bend_c, 1, 8448
5, 52864, Pitch_bend_c, 1, 8448
5, 52864, Pitch_bend_c, 1, 8704
5, 52864, Pitch_bend_c, 1, 8704
5, 52880, Pitch_bend_c, 1, 8576
5, 52880, Pitch_bend_c, 1, 8960
5, 52880, Pitch_bend_c, 1, 8960
5, 52896, Pitch_bend_c, 1, 8704
5, 52896, Pitch_bend_c, 1, 9344
5, 52896, Pitch_bend_c, 1, 9344
5, 52912, Pitch_bend_c, 1, 8832
5, 52912, Pitch_bend_c, 1, 9472
5, 52912, Pitch_bend_c, 1, 9472
5, 52928, Pitch_bend_c, 1, 9600
5, 52928, Pitch_bend_c, 1, 9600
5, 53280, Note_on_c, 1, 62, 0
5, 53280, Note_on_c, 1, 67, 0
5, 53280, Note_on_c, 1, 71, 0
5, 53280, Pitch_bend_c, 1, 8192
5, 53280, Pitch_bend_c, 1, 8192
5, 53280, Pitch_bend_c, 1, 8192
5, 56640, Note_on_c, 1, 71, 95
5, 56640, Pitch_bend_c, 1, 8192
5, 56640, Note_on_c, 1, 67, 95
5, 56640, Pitch_bend_c, 1, 8192
5, 56640, Note_on_c, 1, 62, 95
5, 56640, Pitch_bend_c, 1, 8192
5, 56672, Pitch_bend_c, 1, 8320
5, 56672, Pitch_bend_c, 1, 8320
5, 56672, Pitch_bend_c, 1, 8320
5, 56688, Pitch_bend_c, 1, 8448
5, 56688, Pitch_bend_c, 1, 8448
5, 56704, Pitch_bend_c, 1, 8448
5, 56704, Pitch_bend_c, 1, 8704
5, 56704, Pitch_bend_c, 1, 8704
5, 56720, Pitch_bend_c, 1, 8576
5, 56720, Pitch_bend_c, 1, 8960
5, 56720, Pitch_bend_c, 1, 8960
5, 56736, Pitch_bend_c, 1, 8704
5, 56736, Pitch_bend_c, 1, 9344
5, 56736, Pitch_bend_c, 1, 9344
5, 56752, Pitch_bend_c, 1, 8832
5, 56752, Pitch_bend_c, 1, 9472
5, 56752, Pitch_bend_c, 1, 9472
5, 56768, Pitch_bend_c, 1, 9600
5, 56768, Pitch_bend_c, 1, 9600
5, 57120, Note_on_c, 1, 62, 0
5, 57120, Note_on_c, 1, 67, 0
5, 57120, Note_on_c, 1, 71, 0
5, 57120, Pitch_bend_c, 1, 8192
5, 57120, Pitch_bend_c, 1, 8192
5, 57120, Pitch_bend_c, 1, 8192
5, 59520, Program_c, 0, 80
5, 59520, Program_c, 1, 80
5, 59520, Note_on_c, 0, 55, 95
5, 59760, Note_on_c, 0, 55, 0
5, 59760, Note_on_c, 0, 67, 95
5, 60000, Note_on_c, 0, 67, 0
5, 60000, Note_on_c, 0, 65, 95
5, 60240, Note_on_c, 0, 65, 0
5, 60240, Note_on_c, 0, 67, 95
5, 60480, Note_on_c, 0, 67, 0
5, 60480, Note_on_c, 0, 70, 95
5, 60960, Note_on_c, 0, 70, 0
5, 60960, Note_on_c, 0, 67, 95
5, 61200, Note_on_c, 0, 67, 0
5, 61200, Note_on_c, 0, 74, 95
5, 61440, Note_on_c, 0, 74, 0
5, 61440, Note_on_c, 0, 72, 95
5, 61680, Note_on_c, 0, 72, 0
5, 61680, Note_on_c, 0, 70, 95
5, 61920, Note_on_c, 0, 70, 0
5, 61920, Note_on_c, 0, 65, 95
5, 62400, Note_on_c, 0, 65, 0
5, 62400, Note_on_c, 0, 58, 95
5, 62640, Note_on_c, 0, 58, 0
5, 62640, Note_on_c, 0, 57, 95
5, 62880, Note_on_c, 0, 57, 0
5, 62880, Note_on_c, 0, 65, 95
5, 63120, Note_on_c, 0, 65, 0
5, 63120, Note_on_c, 0, 63, 95
5, 63360, Note_on_c, 0, 63, 0
5, 63360, Program_c, 0, 62
5, 63360, Program_c, 1, 62
5, 64320, Note_on_c, 1, 71, 95
5, 64320, Pitch_bend_c, 1, 8192
5, 64320, Note_on_c, 1, 67, 95
5, 64320, Pitch_bend_c, 1, 8192
5, 64320, Note_on_c, 1, 62, 95
5, 64320, Pitch_bend_c, 1, 8192
5, 64352, Pitch_bend_c, 1, 8320
5, 64352, Pitch_bend_c, 1, 8320
5, 64352, Pitch_bend_c, 1, 8320
5, 64368, Pitch_bend_c, 1, 8448
5, 64368, Pitch_bend_c, 1, 8448
5, 64384, Pitch_bend_c, 1, 8448
5, 64384, Pitch_bend_c, 1, 8704
5, 64384, Pitch_bend_c, 1, 8704
5, 64400, Pitch_bend_c, 1, 8576
5, 64400, Pitch_bend_c, 1, 8960
5, 64400, Pitch_bend_c, 1, 8960
5, 64416, Pitch_bend_c, 1, 8704
5, 64416, Pitch_bend_c, 1, 9344
5, 64416, Pitch_bend_c, 1, 9344
5, 64432, Pitch_bend_c, 1, 8832
5, 64432, Pitch_bend_c, 1, 9472
5, 64432, Pitch_bend_c, 1, 9472
5, 64448, Pitch_bend_c, 1, 9600
5, 64448, Pitch_bend_c, 1, 9600
5, 64800, Note_on_c, 1, 62, 0
5, 64800, Note_on_c, 1, 67, 0
5, 64800, Note_on_c, 1, 71, 0
5, 64800, Pitch_bend_c, 1, 8192
5, 64800, Pitch_bend_c, 1, 8192
5, 64800, Pitch_bend_c, 1, 8192
5, 68160, Note_on_c, 1, 71, 95
5, 68160, Pitch_bend_c, 1, 8192
5, 68160, Note_on_c, 1, 67, 95
5, 68160, Pitch_bend_c, 1, 8192
5, 68160, Note_on_c, 1, 62, 95
5, 68160, Pitch_bend_c, 1, 8192
5, 68192, Pitch_bend_c, 1, 8320
5, 68192, Pitch_bend_c, 1, 8320
5, 68192, Pitch_bend_c, 1, 8320
5, 68208, Pitch_bend_c, 1, 8448
5, 68208, Pitch_bend_c, 1, 8448
5, 68224, Pitch_bend_c, 1, 8448
5, 68224, Pitch_bend_c, 1, 8704
5, 68224, Pitch_bend_c, 1, 8704
5, 68240, Pitch_bend_c, 1, 8576
5, 68240, Pitch_bend_c, 1, 8960
5, 68240, Pitch_bend_c, 1, 8960
5, 68256, Pitch_bend_c, 1, 8704
5, 68256, Pitch_bend_c, 1, 9344
5, 68256, Pitch_bend_c, 1, 9344
5, 68272, Pitch_bend_c, 1, 8832
5, 68272, Pitch_bend_c, 1, 9472
5, 68272, Pitch_bend_c, 1, 9472
5, 68288, Pitch_bend_c, 1, 9600
5, 68288, Pitch_bend_c, 1, 9600
5, 68640, Note_on_c, 1, 62, 0
5, 68640, Note_on_c, 1, 67, 0
5, 68640, Note_on_c, 1, 71, 0
5, 68640, Pitch_bend_c, 1, 8192
5, 68640, Pitch_bend_c, 1, 8192
5, 68640, Pitch_bend_c, 1, 8192
5, 72000, Note_on_c, 1, 71, 95
5, 72000, Pitch_bend_c, 1, 8192
5, 72000, Note_on_c, 1, 67, 95
5, 72000, Pitch_bend_c, 1, 8192
5, 72000, Note_on_c, 1, 62, 95
5, 72000, Pitch_bend_c, 1, 8192
5, 72032, Pitch_bend_c, 1, 8320
5, 72032, Pitch_bend_c, 1, 8320
5, 72032, Pitch_bend_c, 1, 8320
5, 72048, Pitch_bend_c, 1, 8448
5, 72048, Pitch_bend_c, 1, 8448
5, 72064, Pitch_bend_c, 1, 8448
5, 72064, Pitch_bend_c, 1, 8704
5, 72064, Pitch_bend_c, 1, 8704
5, 72080, Pitch_bend_c, 1, 8576
5, 72080, Pitch_bend_c, 1, 8960
5, 72080, Pitch_bend_c, 1, 8960
5, 72096, Pitch_bend_c, 1, 8704
5, 72096, Pitch_bend_c, 1, 9344
5, 72096, Pitch_bend_c, 1, 9344
5, 72112, Pitch_bend_c, 1, 8832
5, 72112, Pitch_bend_c, 1, 9472
5, 72112, Pitch_bend_c, 1, 9472
5, 72128, Pitch_bend_c, 1, 9600
5, 72128, Pitch_bend_c, 1, 9600
5, 72480, Note_on_c, 1, 62, 0
5, 72480, Note_on_c, 1, 67, 0
5, 72480, Note_on_c, 1, 71, 0
5, 72480, Pitch_bend_c, 1, 8192
5, 72480, Pitch_bend_c, 1, 8192
5, 72480, Pitch_bend_c, 1, 8192
5, 74880, Program_c, 0, 80
5, 74880, Program_c, 1, 80
5, 74880, Note_on_c, 0, 55, 95
5, 75120, Note_on_c, 0, 55, 0
5, 75120, Note_on_c, 0, 67, 95
5, 75360, Note_on_c, 0, 67, 0
5, 75360, Note_on_c, 0, 65, 95
5, 75600, Note_on_c, 0, 65, 0
5, 75600, Note_on_c, 0, 67, 95
5, 75840, Note_on_c, 0, 67, 0
5, 75840, Note_on_c, 0, 70, 95
5, 76320, Note_on_c, 0, 70, 0
5, 76320, Note_on_c, 0, 67, 95
5, 76560, Note_on_c, 0, 67, 0
5, 76560, Note_on_c, 0, 74, 95
5, 76800, Note_on_c, 0, 74, 0
5, 76800, Note_on_c, 0, 72, 95
5, 77040, Note_on_c, 0, 72, 0
5, 77040, Note_on_c, 0, 70, 95
5, 77280, Note_on_c, 0, 70, 0
5, 77280, Note_on_c, 0, 65, 95
5, 77760, Note_on_c, 0, 65, 0
5, 77760, Note_on_c, 0, 58, 95
5, 78000, Note_on_c, 0, 58, 0
5, 78000, Note_on_c, 0, 57, 95
5, 78240, Note_on_c, 0, 57, 0
5, 78240, Note_on_c, 0, 65, 95
5, 78480, Note_on_c, 0, 65, 0
5, 78480, Note_on_c, 0, 63, 95
5, 78720, Note_on_c, 0, 63, 0
5, 78720, Program_c, 0, 62
5, 78720, Program_c, 1, 62
5, 79680, Note_on_c, 1, 71, 95
5, 79680, Pitch_bend_c, 1, 8192
5, 79680, Note_on_c, 1, 67, 95
5, 79680, Pitch_bend_c, 1, 8192
5, 79680, Note_on_c, 1, 62, 95
5, 79680, Pitch_bend_c, 1, 8192
5, 79712, Pitch_bend_c, 1, 8320
5, 79712, Pitch_bend_c, 1, 8320
5, 79712, Pitch_bend_c, 1, 8320
5, 79728, Pitch_bend_c, 1, 8448
5, 79728, Pitch_bend_c, 1, 8448
5, 79744, Pitch_bend_c, 1, 8448
5, 79744, Pitch_bend_c, 1, 8704
5, 79744, Pitch_bend_c, 1, 8704
5, 79760, Pitch_bend_c, 1, 8576
5, 79760, Pitch_bend_c, 1, 8960
5, 79760, Pitch_bend_c, 1, 8960
5, 79776, Pitch_bend_c, 1, 8704
5, 79776, Pitch_bend_c, 1, 9344
5, 79776, Pitch_bend_c, 1, 9344
5, 79792, Pitch_bend_c, 1, 8832
5, 79792, Pitch_bend_c, 1, 9472
5, 79792, Pitch_bend_c, 1, 9472
5, 79808, Pitch_bend_c, 1, 9600
5, 79808, Pitch_bend_c, 1, 9600
5, 80160, Note_on_c, 1, 62, 0
5, 80160, Note_on_c, 1, 67, 0
5, 80160, Note_on_c, 1, 71, 0
5, 80160, Pitch_bend_c, 1, 8192
5, 80160, Pitch_bend_c, 1, 8192
5, 80160, Pitch_bend_c, 1, 8192
5, 83520, Note_on_c, 1, 71, 95
5, 83520, Pitch_bend_c, 1, 8192
5, 83520, Note_on_c, 1, 67, 95
5, 83520, Pitch_bend_c, 1, 8192
5, 83520, Note_on_c, 1, 62, 95
5, 83520, Pitch_bend_c, 1, 8192
5, 83552, Pitch_bend_c, 1, 8320
5, 83552, Pitch_bend_c, 1, 8320
5, 83552, Pitch_bend_c, 1, 8320
5, 83568, Pitch_bend_c, 1, 8448
5, 83568, Pitch_bend_c, 1, 8448
5, 83584, Pitch_bend_c, 1, 8448
5, 83584, Pitch_bend_c, 1, 8704
5, 83584, Pitch_bend_c, 1, 8704
5, 83600, Pitch_bend_c, 1, 8576
5, 83600, Pitch_bend_c, 1, 8960
5, 83600, Pitch_bend_c, 1, 8960
5, 83616, Pitch_bend_c, 1, 8704
5, 83616, Pitch_bend_c, 1, 9344
5, 83616, Pitch_bend_c, 1, 9344
5, 83632, Pitch_bend_c, 1, 8832
5, 83632, Pitch_bend_c, 1, 9472
5, 83632, Pitch_bend_c, 1, 9472
5, 83648, Pitch_bend_c, 1, 9600
5, 83648, Pitch_bend_c, 1, 9600
5, 84000, Note_on_c, 1, 62, 0
5, 84000, Note_on_c, 1, 67, 0
5, 84000, Note_on_c, 1, 71, 0
5, 84000, Pitch_bend_c, 1, 8192
5, 84000, Pitch_bend_c, 1, 8192
5, 84000, Pitch_bend_c, 1, 8192
5, 87360, Note_on_c, 1, 71, 95
5, 87360, Pitch_bend_c, 1, 8192
5, 87360, Note_on_c, 1, 67, 95
5, 87360, Pitch_bend_c, 1, 8192
5, 87360, Note_on_c, 1, 62, 95
5, 87360, Pitch_bend_c, 1, 8192
5, 87392, Pitch_bend_c, 1, 8320
5, 87392, Pitch_bend_c, 1, 8320
5, 87392, Pitch_bend_c, 1, 8320
5, 87408, Pitch_bend_c, 1, 8448
5, 87408, Pitch_bend_c, 1, 8448
5, 87424, Pitch_bend_c, 1, 8448
5, 87424, Pitch_bend_c, 1, 8704
5, 87424, Pitch_bend_c, 1, 8704
5, 87440, Pitch_bend_c, 1, 8576
5, 87440, Pitch_bend_c, 1, 8960
5, 87440, Pitch_bend_c, 1, 8960
5, 87456, Pitch_bend_c, 1, 8704
5, 87456, Pitch_bend_c, 1, 9344
5, 87456, Pitch_bend_c, 1, 9344
5, 87472, Pitch_bend_c, 1, 8832
5, 87472, Pitch_bend_c, 1, 9472
5, 87472, Pitch_bend_c, 1, 9472
5, 87488, Pitch_bend_c, 1, 9600
5, 87488, Pitch_bend_c, 1, 9600
5, 87840, Note_on_c, 1, 62, 0
5, 87840, Note_on_c, 1, 67, 0
5, 87840, Note_on_c, 1, 71, 0
5, 87840, Pitch_bend_c, 1, 8192
5, 87840, Pitch_bend_c, 1, 8192
5, 87840, Pitch_bend_c, 1, 8192
5, 90240, Program_c, 0, 80
5, 90240, Program_c, 1, 80
5, 90240, Note_on_c, 0, 55, 95
5, 90480, Note_on_c, 0, 55, 0
5, 90480, Note_on_c, 0, 67, 95
5, 90720, Note_on_c, 0, 67, 0
5, 90720, Note_on_c, 0, 65, 95
5, 90960, Note_on_c, 0, 65, 0
5, 90960, Note_on_c, 0, 67, 95
5, 91200, Note_on_c, 0, 67, 0
5, 91200, Note_on_c, 0, 70, 95
5, 91680, Note_on_c, 0, 70, 0
5, 91680, Note_on_c, 0, 67, 95
5, 91920, Note_on_c, 0, 67, 0
5, 91920, Note_on_c, 0, 74, 95
5, 92160, Note_on_c, 0, 74, 0
5, 92160, Note_on_c, 0, 72, 95
5, 92400, Note_on_c, 0, 72, 0
5, 92400, Note_on_c, 0, 70, 95
5, 92640, Note_on_c, 0, 70, 0
5, 92640, Note_on_c, 0, 65, 95
5, 93120, Note_on_c, 0, 65, 0
5, 93120, Note_on_c, 0, 58, 95
5, 93360, Note_on_c, 0, 58, 0
5, 93360, Note_on_c, 0, 57, 95
5, 93600, Note_on_c, 0, 57, 0
5, 93600, Note_on_c, 0, 65, 95
5, 93840, Note_on_c, 0, 65, 0
5, 93840, Note_on_c, 0, 63, 95
5, 94080, Note_on_c, 0, 63, 0
5, 94080, Program_c, 0, 62
5, 94080, Program_c, 1, 62
5, 95040, Note_on_c, 1, 71, 95
5, 95040, Pitch_bend_c, 1, 8192
5, 95040, Note_on_c, 1, 67, 95
5, 95040, Pitch_bend_c, 1, 8192
5, 95040, Note_on_c, 1, 62, 95
5, 95040, Pitch_bend_c, 1, 8192
5, 95072, Pitch_bend_c, 1, 8320
5, 95072, Pitch_bend_c, 1, 8320
5, 95072, Pitch_bend_c, 1, 8320
5, 95088, Pitch_bend_c, 1, 8448
5, 95088, Pitch_bend_c, 1, 8448
5, 95104, Pitch_bend_c, 1, 8448
5, 95104, Pitch_bend_c, 1, 8704
5, 95104, Pitch_bend_c, 1, 8704
5, 95120, Pitch_bend_c, 1, 8576
5, 95120, Pitch_bend_c, 1, 8960
5, 95120, Pitch_bend_c, 1, 8960
5, 95136, Pitch_bend_c, 1, 8704
5, 95136, Pitch_bend_c, 1, 9344
5, 95136, Pitch_bend_c, 1, 9344
5, 95152, Pitch_bend_c, 1, 8832
5, 95152, Pitch_bend_c, 1, 9472
5, 95152, Pitch_bend_c, 1, 9472
5, 95168, Pitch_bend_c, 1, 9600
5, 95168, Pitch_bend_c, 1, 9600
5, 95520, Note_on_c, 1, 62, 0
5, 95520, Note_on_c, 1, 67, 0
5, 95520, Note_on_c, 1, 71, 0
5, 95520, Pitch_bend_c, 1, 8192
5, 95520, Pitch_bend_c, 1, 8192
5, 95520, Pitch_bend_c, 1, 8192
5, 98880, Note_on_c, 1, 71, 95
5, 98880, Pitch_bend_c, 1, 8192
5, 98880, Note_on_c, 1, 67, 95
5, 98880, Pitch_bend_c, 1, 8192
5, 98880, Note_on_c, 1, 62, 95
5, 98880, Pitch_bend_c, 1, 8192
5, 98912, Pitch_bend_c, 1, 8320
5, 98912, Pitch_bend_c, 1, 8320
5, 98912, Pitch_bend_c, 1, 8320
5, 98928, Pitch_bend_c, 1, 8448
5, 98928, Pitch_bend_c, 1, 8448
5, 98944, Pitch_bend_c, 1, 8448
5, 98944, Pitch_bend_c, 1, 8704
5, 98944, Pitch_bend_c, 1, 8704
5, 98960, Pitch_bend_c, 1, 8576
5, 98960, Pitch_bend_c, 1, 8960
5, 98960, Pitch_bend_c, 1, 8960
5, 98976, Pitch_bend_c, 1, 8704
5, 98976, Pitch_bend_c, 1, 9344
5, 98976, Pitch_bend_c, 1, 9344
5, 98992, Pitch_bend_c, 1, 8832
5, 98992, Pitch_bend_c, 1, 9472
5, 98992, Pitch_bend_c, 1, 9472
5, 99008, Pitch_bend_c, 1, 9600
5, 99008, Pitch_bend_c, 1, 9600
5, 99360, Note_on_c, 1, 62, 0
5, 99360, Note_on_c, 1, 67, 0
5, 99360, Note_on_c, 1, 71, 0
5, 99360, Pitch_bend_c, 1, 8192
5, 99360, Pitch_bend_c, 1, 8192
5, 99360, Pitch_bend_c, 1, 8192
5, 102720, Note_on_c, 1, 71, 95
5, 102720, Pitch_bend_c, 1, 8192
5, 102720, Note_on_c, 1, 67, 95
5, 102720, Pitch_bend_c, 1, 8192
5, 102720, Note_on_c, 1, 62, 95
5, 102720, Pitch_bend_c, 1, 8192
5, 102752, Pitch_bend_c, 1, 8320
5, 102752, Pitch_bend_c, 1, 8320
5, 102752, Pitch_bend_c, 1, 8320
5, 102768, Pitch_bend_c, 1, 8448
5, 102768, Pitch_bend_c, 1, 8448
5, 102784, Pitch_bend_c, 1, 8448
5, 102784, Pitch_bend_c, 1, 8704
5, 102784, Pitch_bend_c, 1, 8704
5, 102800, Pitch_bend_c, 1, 8576
5, 102800, Pitch_bend_c, 1, 8960
5, 102800, Pitch_bend_c, 1, 8960
5, 102816, Pitch_bend_c, 1, 8704
5, 102816, Pitch_bend_c, 1, 9344
5, 102816, Pitch_bend_c, 1, 9344
5, 102832, Pitch_bend_c, 1, 8832
5, 102832, Pitch_bend_c, 1, 9472
5, 102832, Pitch_bend_c, 1, 9472
5, 102848, Pitch_bend_c, 1, 9600
5, 102848, Pitch_bend_c, 1, 9600
5, 103200, Note_on_c, 1, 62, 0
5, 103200, Note_on_c, 1, 67, 0
5, 103200, Note_on_c, 1, 71, 0
5, 103200, Pitch_bend_c, 1, 8192
5, 103200, Pitch_bend_c, 1, 8192
5, 103200, Pitch_bend_c, 1, 8192
5, 105600, Program_c, 0, 80
5, 105600, Program_c, 1, 80
5, 105600, Note_on_c, 0, 55, 95
5, 105840, Note_on_c, 0, 55, 0
5, 105840, Note_on_c, 0, 67, 95
5, 106080, Note_on_c, 0, 67, 0
5, 106080, Note_on_c, 0, 65, 95
5, 106320, Note_on_c, 0, 65, 0
5, 106320, Note_on_c, 0, 67, 95
5, 106560, Note_on_c, 0, 67, 0
5, 106560, Note_on_c, 0, 70, 95
5, 107040, Note_on_c, 0, 70, 0
5, 107040, Note_on_c, 0, 67, 95
5, 107280, Note_on_c, 0, 67, 0
5, 107280, Note_on_c, 0, 74, 95
5, 107520, Note_on_c, 0, 74, 0
5, 107520, Note_on_c, 0, 72, 95
5, 107760, Note_on_c, 0, 72, 0
5, 107760, Note_on_c, 0, 70, 95
5, 108000, Note_on_c, 0, 70, 0
5, 108000, Note_on_c, 0, 65, 95
5, 108480, Note_on_c, 0, 65, 0
5, 108480, Note_on_c, 0, 58, 95
5, 108720, Note_on_c, 0, 58, 0
5, 108720, Note_on_c, 0, 57, 95
5, 108960, Note_on_c, 0, 57, 0
5, 108960, Note_on_c, 0, 65, 95
5, 109200, Note_on_c, 0, 65, 0
5, 109200, Note_on_c, 0, 63, 95
5, 109440, Note_on_c, 0, 63, 0
5, 109440, Note_on_c, 0, 62, 95
5, 109680, Note_on_c, 0, 62, 0
5, 109680, Note_on_c, 0, 60, 95
5, 109920, Note_on_c, 0, 60, 0
5, 109920, Note_on_c, 0, 58, 95
5, 110160, Note_on_c, 0, 58, 0
5, 110160, Note_on_c, 0, 55, 95
5, 110400, Note_on_c, 0, 55, 0
5, 110400, Note_on_c, 0, 58, 95
5, 110640, Note_on_c, 0, 58, 0
5, 110640, Note_on_c, 0, 55, 95
5, 110880, Note_on_c, 0, 55, 0
5, 110880, Note_on_c, 0, 58, 95
5, 111120, Note_on_c, 0, 58, 0
5, 111120, Note_on_c, 0, 62, 95
5, 111360, Note_on_c, 0, 62, 0
5, 111360, Note_on_c, 0, 67, 95
5, 111600, Note_on_c, 0, 67, 0
5, 111600, Note_on_c, 0, 62, 95
5, 111840, Note_on_c, 0, 62, 0
5, 111840, Note_on_c, 0, 58, 95
5, 112080, Note_on_c, 0, 58, 0
5, 112080, Note_on_c, 0, 55, 95
5, 112320, Note_on_c, 0, 55, 0
5, 112320, Note_on_c, 0, 65, 95
5, 112560, Note_on_c, 0, 65, 0
5, 112560, Note_on_c, 0, 58, 95
5, 112800, Note_on_c, 0, 58, 0
5, 112800, Note_on_c, 0, 55, 95
5, 113040, Note_on_c, 0, 55, 0
5, 113040, Note_on_c, 0, 53, 95
5, 113280, Note_on_c, 0, 53, 0
5, 113280, Program_c, 0, 80
5, 113280, Program_c, 1, 80
5, 113280, Note_on_c, 0, 55, 95
5, 113520, Note_on_c, 0, 55, 0
5, 113520, Note_on_c, 0, 67, 95
5, 113760, Note_on_c, 0, 67, 0
5, 113760, Note_on_c, 0, 65, 95
5, 114000, Note_on_c, 0, 65, 0
5, 114000, Note_on_c, 0, 67, 95
5, 114240, Note_on_c, 0, 67, 0
5, 114240, Note_on_c, 0, 70, 95
5, 114720, Note_on_c, 0, 70, 0
5, 114720, Note_on_c, 0, 67, 95
5, 114960, Note_on_c, 0, 67, 0
5, 114960, Note_on_c, 0, 74, 95
5, 115200, Note_on_c, 0, 74, 0
5, 115200, Note_on_c, 0, 72, 95
5, 115440, Note_on_c, 0, 72, 0
5, 115440, Note_on_c, 0, 70, 95
5, 115680, Note_on_c, 0, 70, 0
5, 115680, Note_on_c, 0, 65, 95
5, 116160, Note_on_c, 0, 65, 0
5, 116160, Note_on_c, 0, 58, 95
5, 116400, Note_on_c, 0, 58, 0
5, 116400, Note_on_c, 0, 57, 95
5, 116640, Note_on_c, 0, 57, 0
5, 116640, Note_on_c, 0, 65, 95
5, 116880, Note_on_c, 0, 65, 0
5, 116880, Note_on_c, 0, 63, 95
5, 117120, Note_on_c, 0, 63, 0
5, 117120, Note_on_c, 0, 62, 95
5, 117360, Note_on_c, 0, 62, 0
5, 117360, Note_on_c, 0, 60, 95
5, 117600, Note_on_c, 0, 60, 0
5, 117600, Note_on_c, 0, 58, 95
5, 117840, Note_on_c, 0, 58, 0
5, 117840, Note_on_c, 0, 55, 95
5, 118080, Note_on_c, 0, 55, 0
5, 118080, Note_on_c, 0, 58, 95
5, 118320, Note_on_c, 0, 58, 0
5, 118320, Note_on_c, 0, 55, 95
5, 118560, Note_on_c, 0, 55, 0
5, 118560, Note_on_c, 0, 58, 95
5, 118800, Note_on_c, 0, 58, 0
5, 118800, Note_on_c, 0, 62, 95
5, 119040, Note_on_c, 0, 62, 0
5, 119040, Note_on_c, 0, 67, 95
5, 119280, Note_on_c, 0, 67, 0
5, 119280, Note_on_c, 0, 62, 95
5, 119520, Note_on_c, 0, 62, 0
5, 119520, Note_on_c, 0, 58, 95
5, 119760, Note_on_c, 0, 58, 0
5, 119760, Note_on_c, 0, 55, 95
5, 120000, Note_on_c, 0, 55, 0
5, 120000, Note_on_c, 0, 65, 95
5, 120240, Note_on_c, 0, 65, 0
5, 120240, Note_on_c, 0, 58, 95
5, 120480, Note_on_c, 0, 58, 0
5, 120480, Note_on_c, 0, 55, 95
5, 120720, Note_on_c, 0, 55, 0
5, 120720, Note_on_c, 0, 53, 95
5, 120960, Note_on_c, 0, 53, 0
5, 120960, Note_on_c, 0, 55, 50
5, 121200, Note_on_c, 0, 55, 0
5, 121200, Note_on_c, 0, 67, 50
5, 121440, Note_on_c, 0, 67, 0
5, 121440, Note_on_c, 0, 65, 50
5, 121680, Note_on_c, 0, 65, 0
5, 121680, Note_on_c, 0, 67, 50
5, 121920, Note_on_c, 0, 67, 0
5, 121920, Note_on_c, 0, 70, 50
5, 122400, Note_on_c, 0, 70, 0
5, 122400, Note_on_c, 0, 67, 50
5, 122640, Note_on_c, 0, 67, 0
5, 122640, Note_on_c, 0, 74, 50
5, 122880, Note_on_c, 0, 74, 0
5, 122880, Note_on_c, 0, 72, 50
5, 123120, Note_on_c, 0, 72, 0
5, 123120, Note_on_c, 0, 70, 50
5, 123360, Note_on_c, 0, 70, 0
5, 123360, Note_on_c, 0, 65, 50
5, 123840, Note_on_c, 0, 65, 0
5, 123840, Note_on_c, 0, 58, 50
5, 124080, Note_on_c, 0, 58, 0
5, 124080, Note_on_c, 0, 57, 50
5, 124320, Note_on_c, 0, 57, 0
5, 124320, Note_on_c, 0, 65, 50
5, 124560, Note_on_c, 0, 65, 0
5, 124560, Note_on_c, 0, 63, 50
5, 124800, Note_on_c, 0, 63, 0
5, 124800, Note_on_c, 0, 62, 50
5, 125040, Note_on_c, 0, 62, 0
5, 125040, Note_on_c, 0, 60, 50
5, 125280, Note_on_c, 0, 60, 0
5, 125280, Note_on_c, 0, 58, 50
5, 125520, Note_on_c, 0, 58, 0
5, 125520, Note_on_c, 0, 55, 50
5, 125760, Note_on_c, 0, 55, 0
5, 125760, Note_on_c, 0, 58, 50
5, 126000, Note_on_c, 0, 58, 0
5, 126000, Note_on_c, 0, 55, 50
5, 126240, Note_on_c, 0, 55, 0
5, 126240, Note_on_c, 0, 58, 50
5, 126480, Note_on_c, 0, 58, 0
5, 126480, Note_on_c, 0, 62, 50
5, 126720, Note_on_c, 0, 62, 0
5, 126720, Note_on_c, 0, 67, 50
5, 126960, Note_on_c, 0, 67, 0
5, 126960, Note_on_c, 0, 62, 50
5, 127200, Note_on_c, 0, 62, 0
5, 127200, Note_on_c, 0, 58, 50
5, 127440, Note_on_c, 0, 58, 0
5, 127440, Note_on_c, 0, 55, 50
5, 127680, Note_on_c, 0, 55, 0
5, 127680, Note_on_c, 0, 65, 50
5, 127920, Note_on_c, 0, 65, 0
5, 127920, Note_on_c, 0, 58, 50
5, 128160, Note_on_c, 0, 58, 0
5, 128160, Note_on_c, 0, 55, 50
5, 128400, Note_on_c, 0, 55, 0
5, 128400, Note_on_c, 0, 53, 50
5, 128640, Note_on_c, 0, 53, 0
5, 128640, Note_on_c, 0, 55, 50
5, 128880, Note_on_c, 0, 55, 0
5, 128880, Note_on_c, 0, 67, 50
5, 129120, Note_on_c, 0, 67, 0
5, 129120, Note_on_c, 0, 65, 50
5, 129360, Note_on_c, 0, 65, 0
5, 129360, Note_on_c, 0, 67, 50
5, 129600, Note_on_c, 0, 67, 0
5, 129600, Note_on_c, 0, 70, 50
5, 130080, Note_on_c, 0, 70, 0
5, 130080, Note_on_c, 0, 67, 50
5, 130320, Note_on_c, 0, 67, 0
5, 130320, Note_on_c, 0, 74, 50
5, 130560, Note_on_c, 0, 74, 0
5, 130560, Note_on_c, 0, 72, 50
5, 130800, Note_on_c, 0, 72, 0
5, 130800, Note_on_c, 0, 70, 50
5, 131040, Note_on_c, 0, 70, 0
5, 131040, Note_on_c, 0, 65, 50
5, 131520, Note_on_c, 0, 65, 0
5, 131520, Note_on_c, 0, 58, 50
5, 131760, Note_on_c, 0, 58, 0
5, 131760, Note_on_c, 0, 57, 50
5, 132000, Note_on_c, 0, 57, 0
5, 132000, Note_on_c, 0, 65, 50
5, 132240, Note_on_c, 0, 65, 0
5, 132240, Note_on_c, 0, 63, 50
5, 132480, Note_on_c, 0, 63, 0
5, 132480, Note_on_c, 0, 62, 50
5, 132720, Note_on_c, 0, 62, 0
5, 132720, Note_on_c, 0, 60, 50
5, 132960, Note_on_c, 0, 60, 0
5, 132960, Note_on_c, 0, 58, 50
5, 133200, Note_on_c, 0, 58, 0
5, 133200, Note_on_c, 0, 55, 50
5, 133440, Note_on_c, 0, 55, 0
5, 133440, Note_on_c, 0, 58, 50
5, 133680, Note_on_c, 0, 58, 0
5, 133680, Note_on_c, 0, 55, 50
5, 133920, Note_on_c, 0, 55, 0
5, 133920, Note_on_c, 0, 58, 50
5, 134160, Note_on_c, 0, 58, 0
5, 134160, Note_on_c, 0, 62, 50
5, 134400, Note_on_c, 0, 62, 0
5, 136320, Program_c, 0, 62
5, 136320, Program_c, 1, 62
5, 137280, Note_on_c, 1, 71, 95
5, 137280, Pitch_bend_c, 1, 8192
5, 137280, Note_on_c, 1, 67, 95
5, 137280, Pitch_bend_c, 1, 8192
5, 137280, Note_on_c, 1, 62, 95
5, 137280, Pitch_bend_c, 1, 8192
5, 137312, Pitch_bend_c, 1, 8320
5, 137312, Pitch_bend_c, 1, 8320
5, 137312, Pitch_bend_c, 1, 8320
5, 137328, Pitch_bend_c, 1, 8448
5, 137328, Pitch_bend_c, 1, 8448
5, 137344, Pitch_bend_c, 1, 8448
5, 137344, Pitch_bend_c, 1, 8704
5, 137344, Pitch_bend_c, 1, 8704
5, 137360, Pitch_bend_c, 1, 8576
5, 137360, Pitch_bend_c, 1, 8960
5, 137360, Pitch_bend_c, 1, 8960
5, 137376, Pitch_bend_c, 1, 8704
5, 137376, Pitch_bend_c, 1, 9344
5, 137376, Pitch_bend_c, 1, 9344
5, 137392, Pitch_bend_c, 1, 8832
5, 137392, Pitch_bend_c, 1, 9472
5, 137392, Pitch_bend_c, 1, 9472
5, 137408, Pitch_bend_c, 1, 9600
5, 137408, Pitch_bend_c, 1, 9600
5, 137760, Note_on_c, 1, 62, 0
5, 137760, Note_on_c, 1, 67, 0
5, 137760, Note_on_c, 1, 71, 0
5, 137760, Pitch_bend_c, 1, 8192
5, 137760, Pitch_bend_c, 1, 8192
5, 137760, Pitch_bend_c, 1, 8192
5, 141120, Note_on_c, 1, 71, 95
5, 141120, Pitch_bend_c, 1, 8192
5, 141120, Note_on_c, 1, 67, 95
5, 141120, Pitch_bend_c, 1, 8192
5, 141120, Note_on_c, 1, 62, 95
5, 141120, Pitch_bend_c, 1, 8192
5, 141152, Pitch_bend_c, 1, 8320
5, 141152, Pitch_bend_c, 1, 8320
5, 141152, Pitch_bend_c, 1, 8320
5, 141168, Pitch_bend_c, 1, 8448
5, 141168, Pitch_bend_c, 1, 8448
5, 141184, Pitch_bend_c, 1, 8448
5, 141184, Pitch_bend_c, 1, 8704
5, 141184, Pitch_bend_c, 1, 8704
5, 141200, Pitch_bend_c, 1, 8576
5, 141200, Pitch_bend_c, 1, 8960
5, 141200, Pitch_bend_c, 1, 8960
5, 141216, Pitch_bend_c, 1, 8704
5, 141216, Pitch_bend_c, 1, 9344
5, 141216, Pitch_bend_c, 1, 9344
5, 141232, Pitch_bend_c, 1, 8832
5, 141232, Pitch_bend_c, 1, 9472
5, 141232, Pitch_bend_c, 1, 9472
5, 141248, Pitch_bend_c, 1, 9600
5, 141248, Pitch_bend_c, 1, 9600
5, 141600, Note_on_c, 1, 62, 0
5, 141600, Note_on_c, 1, 67, 0
5, 141600, Note_on_c, 1, 71, 0
5, 141600, Pitch_bend_c, 1, 8192
5, 141600, Pitch_bend_c, 1, 8192
5, 141600, Pitch_bend_c, 1, 8192
5, 144960, Note_on_c, 1, 71, 95
5, 144960, Pitch_bend_c, 1, 8192
5, 144960, Note_on_c, 1, 67, 95
5, 144960, Pitch_bend_c, 1, 8192
5, 144960, Note_on_c, 1, 62, 95
5, 144960, Pitch_bend_c, 1, 8192
5, 144992, Pitch_bend_c, 1, 8320
5, 144992, Pitch_bend_c, 1, 8320
5, 144992, Pitch_bend_c, 1, 8320
5, 145008, Pitch_bend_c, 1, 8448
5, 145008, Pitch_bend_c, 1, 8448
5, 145024, Pitch_bend_c, 1, 8448
5, 145024, Pitch_bend_c, 1, 8704
5, 145024, Pitch_bend_c, 1, 8704
5, 145040, Pitch_bend_c, 1, 8576
5, 145040, Pitch_bend_c, 1, 8960
5, 145040, Pitch_bend_c, 1, 8960
5, 145056, Pitch_bend_c, 1, 8704
5, 145056, Pitch_bend_c, 1, 9344
5, 145056, Pitch_bend_c, 1, 9344
5, 145072, Pitch_bend_c, 1, 8832
5, 145072, Pitch_bend_c, 1, 9472
5, 145072, Pitch_bend_c, 1, 9472
5, 145088, Pitch_bend_c, 1, 9600
5, 145088, Pitch_bend_c, 1, 9600
5, 145440, Note_on_c, 1, 62, 0
5, 145440, Note_on_c, 1, 67, 0
5, 145440, Note_on_c, 1, 71, 0
5, 145440, Pitch_bend_c, 1, 8192
5, 145440, Pitch_bend_c, 1, 8192
5, 145440, Pitch_bend_c, 1, 8192
5, 147840, Program_c, 0, 80
5, 147840, Program_c, 1, 80
5, 147840, Note_on_c, 0, 55, 95
5, 148080, Note_on_c, 0, 55, 0
5, 148080, Note_on_c, 0, 67, 95
5, 148320, Note_on_c, 0, 67, 0
5, 148320, Note_on_c, 0, 65, 95
5, 148560, Note_on_c, 0, 65, 0
5, 148560, Note_on_c, 0, 67, 95
5, 148800, Note_on_c, 0, 67, 0
5, 148800, Note_on_c, 0, 70, 95
5, 149280, Note_on_c, 0, 70, 0
5, 149280, Note_on_c, 0, 67, 95
5, 149520, Note_on_c, 0, 67, 0
5, 149520, Note_on_c, 0, 74, 95
5, 149760, Note_on_c, 0, 74, 0
5, 149760, Note_on_c, 0, 72, 95
5, 150000, Note_on_c, 0, 72, 0
5, 150000, Note_on_c, 0, 70, 95
5, 150240, Note_on_c, 0, 70, 0
5, 150240, Note_on_c, 0, 65, 95
5, 150720, Note_on_c, 0, 65, 0
5, 150720, Note_on_c, 0, 58, 95
5, 150960, Note_on_c, 0, 58, 0
5, 150960, Note_on_c, 0, 57, 95
5, 151200, Note_on_c, 0, 57, 0
5, 151200, Note_on_c, 0, 65, 95
5, 151440, Note_on_c, 0, 65, 0
5, 151440, Note_on_c, 0, 63, 95
5, 151680, Note_on_c, 0, 63, 0
5, 151680, Program_c, 0, 62
5, 151680, Program_c, 1, 62
5, 152640, Note_on_c, 1, 71, 95
5, 152640, Pitch_bend_c, 1, 8192
5, 152640, Note_on_c, 1, 67, 95
5, 152640, Pitch_bend_c, 1, 8192
5, 152640, Note_on_c, 1, 62, 95
5, 152640, Pitch_bend_c, 1, 8192
5, 152672, Pitch_bend_c, 1, 8320
5, 152672, Pitch_bend_c, 1, 8320
5, 152672, Pitch_bend_c, 1, 8320
5, 152688, Pitch_bend_c, 1, 8448
5, 152688, Pitch_bend_c, 1, 8448
5, 152704, Pitch_bend_c, 1, 8448
5, 152704, Pitch_bend_c, 1, 8704
5, 152704, Pitch_bend_c, 1, 8704
5, 152720, Pitch_bend_c, 1, 8576
5, 152720, Pitch_bend_c, 1, 8960
5, 152720, Pitch_bend_c, 1, 8960
5, 152736, Pitch_bend_c, 1, 8704
5, 152736, Pitch_bend_c, 1, 9344
5, 152736, Pitch_bend_c, 1, 9344
5, 152752, Pitch_bend_c, 1, 8832
5, 152752, Pitch_bend_c, 1, 9472
5, 152752, Pitch_bend_c, 1, 9472
5, 152768, Pitch_bend_c, 1, 9600
5, 152768, Pitch_bend_c, 1, 9600
5, 153120, Note_on_c, 1, 62, 0
5, 153120, Note_on_c, 1, 67, 0
5, 153120, Note_on_c, 1, 71, 0
5, 153120, Pitch_bend_c, 1, 8192
5, 153120, Pitch_bend_c, 1, 8192
5, 153120, Pitch_bend_c, 1, 8192
5, 156480, Note_on_c, 1, 71, 95
5, 156480, Pitch_bend_c, 1, 8192
5, 156480, Note_on_c, 1, 67, 95
5, 156480, Pitch_bend_c, 1, 8192
5, 156480, Note_on_c, 1, 62, 95
5, 156480, Pitch_bend_c, 1, 8192
5, 156512, Pitch_bend_c, 1, 8320
5, 156512, Pitch_bend_c, 1, 8320
5, 156512, Pitch_bend_c, 1, 8320
5, 156528, Pitch_bend_c, 1, 8448
5, 156528, Pitch_bend_c, 1, 8448
5, 156544, Pitch_bend_c, 1, 8448
5, 156544, Pitch_bend_c, 1, 8704
5, 156544, Pitch_bend_c, 1, 8704
5, 156560, Pitch_bend_c, 1, 8576
5, 156560, Pitch_bend_c, 1, 8960
5, 156560, Pitch_bend_c, 1, 8960
5, 156576, Pitch_bend_c, 1, 8704
5, 156576, Pitch_bend_c, 1, 9344
5, 156576, Pitch_bend_c, 1, 9344
5, 156592, Pitch_bend_c, 1, 8832
5, 156592, Pitch_bend_c, 1, 9472
5, 156592, Pitch_bend_c, 1, 9472
5, 156608, Pitch_bend_c, 1, 9600
5, 156608, Pitch_bend_c, 1, 9600
5, 156960, Note_on_c, 1, 62, 0
5, 156960, Note_on_c, 1, 67, 0
5, 156960, Note_on_c, 1, 71, 0
5, 156960, Pitch_bend_c, 1, 8192
5, 156960, Pitch_bend_c, 1, 8192
5, 156960, Pitch_bend_c, 1, 8192
5, 160320, Note_on_c, 1, 71, 95
5, 160320, Pitch_bend_c, 1, 8192
5, 160320, Note_on_c, 1, 67, 95
5, 160320, Pitch_bend_c, 1, 8192
5, 160320, Note_on_c, 1, 62, 95
5, 160320, Pitch_bend_c, 1, 8192
5, 160352, Pitch_bend_c, 1, 8320
5, 160352, Pitch_bend_c, 1, 8320
5, 160352, Pitch_bend_c, 1, 8320
5, 160368, Pitch_bend_c, 1, 8448
5, 160368, Pitch_bend_c, 1, 8448
5, 160384, Pitch_bend_c, 1, 8448
5, 160384, Pitch_bend_c, 1, 8704
5, 160384, Pitch_bend_c, 1, 8704
5, 160400, Pitch_bend_c, 1, 8576
5, 160400, Pitch_bend_c, 1, 8960
5, 160400, Pitch_bend_c, 1, 8960
5, 160416, Pitch_bend_c, 1, 8704
5, 160416, Pitch_bend_c, 1, 9344
5, 160416, Pitch_bend_c, 1, 9344
5, 160432, Pitch_bend_c, 1, 8832
5, 160432, Pitch_bend_c, 1, 9472
5, 160432, Pitch_bend_c, 1, 9472
5, 160448, Pitch_bend_c, 1, 9600
5, 160448, Pitch_bend_c, 1, 9600
5, 160800, Note_on_c, 1, 62, 0
5, 160800, Note_on_c, 1, 67, 0
5, 160800, Note_on_c, 1, 71, 0
5, 160800, Pitch_bend_c, 1, 8192
5, 160800, Pitch_bend_c, 1, 8192
5, 160800, Pitch_bend_c, 1, 8192
5, 163200, Program_c, 0, 80
5, 163200, Program_c, 1, 80
5, 163200, Note_on_c, 0, 55, 95
5, 163440, Note_on_c, 0, 55, 0
5, 163440, Note_on_c, 0, 67, 95
5, 163680, Note_on_c, 0, 67, 0
5, 163680, Note_on_c, 0, 65, 95
5, 163920, Note_on_c, 0, 65, 0
5, 163920, Note_on_c, 0, 67, 95
5, 164160, Note_on_c, 0, 67, 0
5, 164160, Note_on_c, 0, 70, 95
5, 164640, Note_on_c, 0, 70, 0
5, 164640, Note_on_c, 0, 67, 95
5, 164880, Note_on_c, 0, 67, 0
5, 164880, Note_on_c, 0, 74, 95
5, 165120, Note_on_c, 0, 74, 0
5, 165120, Note_on_c, 0, 72, 95
5, 165360, Note_on_c, 0, 72, 0
5, 165360, Note_on_c, 0, 70, 95
5, 165600, Note_on_c, 0, 70, 0
5, 165600, Note_on_c, 0, 65, 95
5, 166080, Note_on_c, 0, 65, 0
5, 166080, Note_on_c, 0, 58, 95
5, 166320, Note_on_c, 0, 58, 0
5, 166320, Note_on_c, 0, 57, 95
5, 166560, Note_on_c, 0, 57, 0
5, 166560, Note_on_c, 0, 65, 95
5, 166800, Note_on_c, 0, 65, 0
5, 166800, Note_on_c, 0, 63, 95
5, 167040, Note_on_c, 0, 63, 0
5, 167040, Program_c, 0, 62
5, 167040, Program_c, 1, 62
5, 168000, Note_on_c, 1, 71, 95
5, 168000, Pitch_bend_c, 1, 8192
5, 168000, Note_on_c, 1, 67, 95
5, 168000, Pitch_bend_c, 1, 8192
5, 168000, Note_on_c, 1, 62, 95
5, 168000, Pitch_bend_c, 1, 8192
5, 168032, Pitch_bend_c, 1, 8320
5, 168032, Pitch_bend_c, 1, 8320
5, 168032, Pitch_bend_c, 1, 8320
5, 168048, Pitch_bend_c, 1, 8448
5, 168048, Pitch_bend_c, 1, 8448
5, 168064, Pitch_bend_c, 1, 8448
5, 168064, Pitch_bend_c, 1, 8704
5, 168064, Pitch_bend_c, 1, 8704
5, 168080, Pitch_bend_c, 1, 8576
5, 168080, Pitch_bend_c, 1, 8960
5, 168080, Pitch_bend_c, 1, 8960
5, 168096, Pitch_bend_c, 1, 8704
5, 168096, Pitch_bend_c, 1, 9344
5, 168096, Pitch_bend_c, 1, 9344
5, 168112, Pitch_bend_c, 1, 8832
5, 168112, Pitch_bend_c, 1, 9472
5, 168112, Pitch_bend_c, 1, 9472
5, 168128, Pitch_bend_c, 1, 9600
5, 168128, Pitch_bend_c, 1, 9600
5, 168480, Note_on_c, 1, 62, 0
5, 168480, Note_on_c, 1, 67, 0
5, 168480, Note_on_c, 1, 71, 0
5, 168480, Pitch_bend_c, 1, 8192
5, 168480, Pitch_bend_c, 1, 8192
5, 168480, Pitch_bend_c, 1, 8192
5, 171840, Note_on_c, 1, 71, 95
5, 171840, Pitch_bend_c, 1, 8192
5, 171840, Note_on_c, 1, 67, 95
5, 171840, Pitch_bend_c, 1, 8192
5, 171840, Note_on_c, 1, 62, 95
5, 171840, Pitch_bend_c, 1, 8192
5, 171872, Pitch_bend_c, 1, 8320
5, 171872, Pitch_bend_c, 1, 8320
5, 171872, Pitch_bend_c, 1, 8320
5, 171888, Pitch_bend_c, 1, 8448
5, 171888, Pitch_bend_c, 1, 8448
5, 171904, Pitch_bend_c, 1, 8448
5, 171904, Pitch_bend_c, 1, 8704
5, 171904, Pitch_bend_c, 1, 8704
5, 171920, Pitch_bend_c, 1, 8576
5, 171920, Pitch_bend_c, 1, 8960
5, 171920, Pitch_bend_c, 1, 8960
5, 171936, Pitch_bend_c, 1, 8704
5, 171936, Pitch_bend_c, 1, 9344
5, 171936, Pitch_bend_c, 1, 9344
5, 171952, Pitch_bend_c, 1, 8832
5, 171952, Pitch_bend_c, 1, 9472
5, 171952, Pitch_bend_c, 1, 9472
5, 171968, Pitch_bend_c, 1, 9600
5, 171968, Pitch_bend_c, 1, 9600
5, 172320, Note_on_c, 1, 62, 0
5, 172320, Note_on_c, 1, 67, 0
5, 172320, Note_on_c, 1, 71, 0
5, 172320, Pitch_bend_c, 1, 8192
5, 172320, Pitch_bend_c, 1, 8192
5, 172320, Pitch_bend_c, 1, 8192
5, 175680, Note_on_c, 1, 71, 95
5, 175680, Pitch_bend_c, 1, 8192
5, 175680, Note_on_c, 1, 67, 95
5, 175680, Pitch_bend_c, 1, 8192
5, 175680, Note_on_c, 1, 62, 95
5, 175680, Pitch_bend_c, 1, 8192
5, 175712, Pitch_bend_c, 1, 8320
5, 175712, Pitch_bend_c, 1, 8320
5, 175712, Pitch_bend_c, 1, 8320
5, 175728, Pitch_bend_c, 1, 8448
5, 175728, Pitch_bend_c, 1, 8448
5, 175744, Pitch_bend_c, 1, 8448
5, 175744, Pitch_bend_c, 1, 8704
5, 175744, Pitch_bend_c, 1, 8704
5, 175760, Pitch_bend_c, 1, 8576
5, 175760, Pitch_bend_c, 1, 8960
5, 175760, Pitch_bend_c, 1, 8960
5, 175776, Pitch_bend_c, 1, 8704
5, 175776, Pitch_bend_c, 1, 9344
5, 175776, Pitch_bend_c, 1, 9344
5, 175792, Pitch_bend_c, 1, 8832
5, 175792, Pitch_bend_c, 1, 9472
5, 175792, Pitch_bend_c, 1, 9472
5, 175808, Pitch_bend_c, 1, 9600
5, 175808, Pitch_bend_c, 1, 9600
5, 176160, Note_on_c, 1, 62, 0
5, 176160, Note_on_c, 1, 67, 0
5, 176160, Note_on_c, 1, 71, 0
5, 176160, Pitch_bend_c, 1, 8192
5, 176160, Pitch_bend_c, 1, 8192
5, 176160, Pitch_bend_c, 1, 8192
5, 178560, Program_c, 0, 80
5, 178560, Program_c, 1, 80
5, 178560, Note_on_c, 0, 55, 95
5, 178800, Note_on_c, 0, 55, 0
5, 178800, Note_on_c, 0, 67, 95
5, 179040, Note_on_c, 0, 67, 0
5, 179040, Note_on_c, 0, 65, 95
5, 179280, Note_on_c, 0, 65, 0
5, 179280, Note_on_c, 0, 67, 95
5, 179520, Note_on_c, 0, 67, 0
5, 179520, Note_on_c, 0, 70, 95
5, 180000, Note_on_c, 0, 70, 0
5, 180000, Note_on_c, 0, 67, 95
5, 180240, Note_on_c, 0, 67, 0
5, 180240, Note_on_c, 0, 74, 95
5, 180480, Note_on_c, 0, 74, 0
5, 180480, Note_on_c, 0, 72, 95
5, 180720, Note_on_c, 0, 72, 0
5, 180720, Note_on_c, 0, 70, 95
5, 180960, Note_on_c, 0, 70, 0
5, 180960, Note_on_c, 0, 65, 95
5, 181440, Note_on_c, 0, 65, 0
5, 181440, Note_on_c, 0, 58, 95
5, 181680, Note_on_c, 0, 58, 0
5, 181680, Note_on_c, 0, 57, 95
5, 181920, Note_on_c, 0, 57, 0
5, 181920, Note_on_c, 0, 65, 95
5, 182160, Note_on_c, 0, 65, 0
5, 182160, Note_on_c, 0, 63, 95
5, 182400, Note_on_c, 0, 63, 0
5, 182400, Program_c, 0, 62
5, 182400, Program_c, 1, 62
5, 183360, Note_on_c, 1, 71, 95
5, 183360, Pitch_bend_c, 1, 8192
5, 183360, Note_on_c, 1, 67, 95
5, 183360, Pitch_bend_c, 1, 8192
5, 183360, Note_on_c, 1, 62, 95
5, 183360, Pitch_bend_c, 1, 8192
5, 183392, Pitch_bend_c, 1, 8320
5, 183392, Pitch_bend_c, 1, 8320
5, 183392, Pitch_bend_c, 1, 8320
5, 183408, Pitch_bend_c, 1, 8448
5, 183408, Pitch_bend_c, 1, 8448
5, 183424, Pitch_bend_c, 1, 8448
5, 183424, Pitch_bend_c, 1, 8704
5, 183424, Pitch_bend_c, 1, 8704
5, 183440, Pitch_bend_c, 1, 8576
5, 183440, Pitch_bend_c, 1, 8960
5, 183440, Pitch_bend_c, 1, 8960
5, 183456, Pitch_bend_c, 1, 8704
5, 183456, Pitch_bend_c, 1, 9344
5, 183456, Pitch_bend_c, 1, 9344
5, 183472, Pitch_bend_c, 1, 8832
5, 183472, Pitch_bend_c, 1, 9472
5, 183472, Pitch_bend_c, 1, 9472
5, 183488, Pitch_bend_c, 1, 9600
5, 183488, Pitch_bend_c, 1, 9600
5, 183840, Note_on_c, 1, 62, 0
5, 183840, Note_on_c, 1, 67, 0
5, 183840, Note_on_c, 1, 71, 0
5, 183840, Pitch_bend_c, 1, 8192
5, 183840, Pitch_bend_c, 1, 8192
5, 183840, Pitch_bend_c, 1, 8192
5, 187200, Note_on_c, 1, 71, 95
5, 187200, Pitch_bend_c, 1, 8192
5, 187200, Note_on_c, 1, 67, 95
5, 187200, Pitch_bend_c, 1, 8192
5, 187200, Note_on_c, 1, 62, 95
5, 187200, Pitch_bend_c, 1, 8192
5, 187232, Pitch_bend_c, 1, 8320
5, 187232, Pitch_bend_c, 1, 8320
5, 187232, Pitch_bend_c, 1, 8320
5, 187248, Pitch_bend_c, 1, 8448
5, 187248, Pitch_bend_c, 1, 8448
5, 187264, Pitch_bend_c, 1, 8448
5, 187264, Pitch_bend_c, 1, 8704
5, 187264, Pitch_bend_c, 1, 8704
5, 187280, Pitch_bend_c, 1, 8576
5, 187280, Pitch_bend_c, 1, 8960
5, 187280, Pitch_bend_c, 1, 8960
5, 187296, Pitch_bend_c, 1, 8704
5, 187296, Pitch_bend_c, 1, 9344
5, 187296, Pitch_bend_c, 1, 9344
5, 187312, Pitch_bend_c, 1, 8832
5, 187312, Pitch_bend_c, 1, 9472
5, 187312, Pitch_bend_c, 1, 9472
5, 187328, Pitch_bend_c, 1, 9600
5, 187328, Pitch_bend_c, 1, 9600
5, 187680, Note_on_c, 1, 62, 0
5, 187680, Note_on_c, 1, 67, 0
5, 187680, Note_on_c, 1, 71, 0
5, 187680, Pitch_bend_c, 1, 8192
5, 187680, Pitch_bend_c, 1, 8192
5, 187680, Pitch_bend_c, 1, 8192
5, 191040, Note_on_c, 1, 71, 95
5, 191040, Pitch_bend_c, 1, 8192
5, 191040, Note_on_c, 1, 67, 95
5, 191040, Pitch_bend_c, 1, 8192
5, 191040, Note_on_c, 1, 62, 95
5, 191040, Pitch_bend_c, 1, 8192
5, 191072, Pitch_bend_c, 1, 8320
5, 191072, Pitch_bend_c, 1, 8320
5, 191072, Pitch_bend_c, 1, 8320
5, 191088, Pitch_bend_c, 1, 8448
5, 191088, Pitch_bend_c, 1, 8448
5, 191104, Pitch_bend_c, 1, 8448
5, 191104, Pitch_bend_c, 1, 8704
5, 191104, Pitch_bend_c, 1, 8704
5, 191120, Pitch_bend_c, 1, 8576
5, 191120, Pitch_bend_c, 1, 8960
5, 191120, Pitch_bend_c, 1, 8960
5, 191136, Pitch_bend_c, 1, 8704
5, 191136, Pitch_bend_c, 1, 9344
5, 191136, Pitch_bend_c, 1, 9344
5, 191152, Pitch_bend_c, 1, 8832
5, 191152, Pitch_bend_c, 1, 9472
5, 191152, Pitch_bend_c, 1, 9472
5, 191168, Pitch_bend_c, 1, 9600
5, 191168, Pitch_bend_c, 1, 9600
5, 191520, Note_on_c, 1, 62, 0
5, 191520, Note_on_c, 1, 67, 0
5, 191520, Note_on_c, 1, 71, 0
5, 191520, Pitch_bend_c, 1, 8192
5, 191520, Pitch_bend_c, 1, 8192
5, 191520, Pitch_bend_c, 1, 8192
5, 193920, Program_c, 0, 80
5, 193920, Program_c, 1, 80
5, 193920, Note_on_c, 0, 55, 95
5, 194160, Note_on_c, 0, 55, 0
5, 194160, Note_on_c, 0, 67, 95
5, 194400, Note_on_c, 0, 67, 0
5, 194400, Note_on_c, 0, 65, 95
5, 194640, Note_on_c, 0, 65, 0
5, 194640, Note_on_c, 0, 67, 95
5, 194880, Note_on_c, 0, 67, 0
5, 194880, Note_on_c, 0, 70, 95
5, 195360, Note_on_c, 0, 70, 0
5, 195360, Note_on_c, 0, 67, 95
5, 195600, Note_on_c, 0, 67, 0
5, 195600, Note_on_c, 0, 74, 95
5, 195840, Note_on_c, 0, 74, 0
5, 195840, Note_on_c, 0, 72, 95
5, 196080, Note_on_c, 0, 72, 0
5, 196080, Note_on_c, 0, 70, 95
5, 196320, Note_on_c, 0, 70, 0
5, 196320, Note_on_c, 0, 65, 95
5, 196800, Note_on_c, 0, 65, 0
5, 196800, Note_on_c, 0, 58, 95
5, 197040, Note_on_c, 0, 58, 0
5, 197040, Note_on_c, 0, 57, 95
5, 197280, Note_on_c, 0, 57, 0
5, 197280, Note_on_c, 0, 65, 95
5, 197520, Note_on_c, 0, 65, 0
5, 197520, Note_on_c, 0, 63, 95
5, 197760, Note_on_c, 0, 63, 0
5, 197760, Note_on_c, 0, 62, 95
5, 198000, Note_on_c, 0, 62, 0
5, 198000, Note_on_c, 0, 60, 95
5, 198240, Note_on_c, 0, 60, 0
5, 198240, Note_on_c, 0, 58, 95
5, 198480, Note_on_c, 0, 58, 0
5, 198480, Note_on_c, 0, 55, 95
5, 198720, Note_on_c, 0, 55, 0
5, 198720, Note_on_c, 0, 58, 95
5, 198960, Note_on_c, 0, 58, 0
5, 198960, Note_on_c, 0, 55, 95
5, 199200, Note_on_c, 0, 55, 0
5, 199200, Note_on_c, 0, 58, 95
5, 199440, Note_on_c, 0, 58, 0
5, 199440, Note_on_c, 0, 62, 95
5, 199680, Note_on_c, 0, 62, 0
5, 199680, Note_on_c, 0, 67, 95
5, 199920, Note_on_c, 0, 67, 0
5, 199920, Note_on_c, 0, 62, 95
5, 200160, Note_on_c, 0, 62, 0
5, 200160, Note_on_c, 0, 58, 95
5, 200400, Note_on_c, 0, 58, 0
5, 200400, Note_on_c, 0, 55, 95
5, 200640, Note_on_c, 0, 55, 0
5, 200640, Note_on_c, 0, 65, 95
5, 200880, Note_on_c, 0, 65, 0
5, 200880, Note_on_c, 0, 58, 95
5, 201120, Note_on_c, 0, 58, 0
5, 201120, Note_on_c, 0, 55, 95
5, 201360, Note_on_c, 0, 55, 0
5, 201360, Note_on_c, 0, 53, 95
5, 201600, Note_on_c, 0, 53, 0
5, 201600, Program_c, 0, 80
5, 201600, Program_c, 1, 80
5, 201600, Note_on_c, 0, 55, 95
5, 201840, Note_on_c, 0, 55, 0
5, 201840, Note_on_c, 0, 67, 95
5, 202080, Note_on_c, 0, 67, 0
5, 202080, Note_on_c, 0, 65, 95
5, 202320, Note_on_c, 0, 65, 0
5, 202320, Note_on_c, 0, 67, 95
5, 202560, Note_on_c, 0, 67, 0
5, 202560, Note_on_c, 0, 70, 95
5, 203040, Note_on_c, 0, 70, 0
5, 203040, Note_on_c, 0, 67, 95
5, 203280, Note_on_c, 0, 67, 0
5, 203280, Note_on_c, 0, 74, 95
5, 203520, Note_on_c, 0, 74, 0
5, 203520, Note_on_c, 0, 72, 95
5, 203760, Note_on_c, 0, 72, 0
5, 203760, Note_on_c, 0, 70, 95
5, 204000, Note_on_c, 0, 70, 0
5, 204000, Note_on_c, 0, 65, 95
5, 204480, Note_on_c, 0, 65, 0
5, 204480, Note_on_c, 0, 58, 95
5, 204720, Note_on_c, 0, 58, 0
5, 204720, Note_on_c, 0, 57, 95
5, 204960, Note_on_c, 0, 57, 0
5, 204960, Note_on_c, 0, 65, 95
5, 205200, Note_on_c, 0, 65, 0
5, 205200, Note_on_c, 0, 63, 95
5, 205440, Note_on_c, 0, 63, 0
5, 205440, Note_on_c, 0, 62, 95
5, 205680, Note_on_c, 0, 62, 0
5, 205680, Note_on_c, 0, 60, 95
5, 205920, Note_on_c, 0, 60, 0
5, 205920, Note_on_c, 0, 58, 95
5, 206160, Note_on_c, 0, 58, 0
5, 206160, Note_on_c, 0, 55, 95
5, 206400, Note_on_c, 0, 55, 0
5, 206400, Note_on_c, 0, 58, 95
5, 206640, Note_on_c, 0, 58, 0
5, 206640, Note_on_c, 0, 55, 95
5, 206880, Note_on_c, 0, 55, 0
5, 206880, Note_on_c, 0, 58, 95
5, 207120, Note_on_c, 0, 58, 0
5, 207120, Note_on_c, 0, 62, 95
5, 207360, Note_on_c, 0, 62, 0
5, 207360, Note_on_c, 0, 67, 95
5, 207600, Note_on_c, 0, 67, 0
5, 207600, Note_on_c, 0, 62, 95
5, 207840, Note_on_c, 0, 62, 0
5, 207840, Note_on_c, 0, 58, 95
5, 208080, Note_on_c, 0, 58, 0
5, 208080, Note_on_c, 0, 55, 95
5, 208320, Note_on_c, 0, 55, 0
5, 208320, Note_on_c, 1, 65, 95
5, 208560, Pitch_bend_c, 1, 7552
5, 208663, Pitch_bend_c, 1, 6784
5, 208766, Pitch_bend_c, 1, 6144
5, 208869, Pitch_bend_c, 1, 5504
5, 208971, Pitch_bend_c, 1, 4736
5, 209074, Pitch_bend_c, 1, 4096
5, 209177, Pitch_bend_c, 1, 3456
5, 209280, Note_on_c, 1, 65, 0
5, 209280, Pitch_bend_c, 1, 8192
5, 209280, Note_on_c, 0, 55, 50
5, 209520, Note_on_c, 0, 55, 0
5, 209520, Note_on_c, 0, 67, 50
5, 209760, Note_on_c, 0, 67, 0
5, 209760, Note_on_c, 0, 65, 50
5, 210000, Note_on_c, 0, 65, 0
5, 210000, Note_on_c, 0, 67, 50
5, 210240, Note_on_c, 0, 67, 0
5, 210240, Note_on_c, 0, 70, 50
5, 210720, Note_on_c, 0, 70, 0
5, 210720, Note_on_c, 0, 67, 50
5, 210960, Note_on_c, 0, 67, 0
5, 210960, Note_on_c, 0, 74, 50
5, 211200, Note_on_c, 0, 74, 0
5, 211200, Note_on_c, 0, 72, 50
5, 211440, Note_on_c, 0, 72, 0
5, 211440, Note_on_c, 0, 70, 50
5, 211680, Note_on_c, 0, 70, 0
5, 211680, Note_on_c, 0, 65, 50
5, 212160, Note_on_c, 0, 65, 0
5, 212160, Note_on_c, 0, 58, 50
5, 212400, Note_on_c, 0, 58, 0
5, 212400, Note_on_c, 0, 57, 50
5, 212640, Note_on_c, 0, 57, 0
5, 212640, Note_on_c, 0, 65, 50
5, 212880, Note_on_c, 0, 65, 0
5, 212880, Note_on_c, 0, 63, 50
5, 213120, Note_on_c, 0, 63, 0
5, 213120, Note_on_c, 0, 62, 50
5, 213360, Note_on_c, 0, 62, 0
5, 213360, Note_on_c, 0, 60, 50
5, 213600, Note_on_c, 0, 60, 0
5, 213600, Note_on_c, 0, 58, 50
5, 213840, Note_on_c, 0, 58, 0
5, 213840, Note_on_c, 0, 55, 50
5, 214080, Note_on_c, 0, 55, 0
5, 214080, Note_on_c, 0, 58, 50
5, 214320, Note_on_c, 0, 58, 0
5, 214320, Note_on_c, 0, 55, 50
5, 214560, Note_on_c, 0, 55, 0
5, 214560, Note_on_c, 0, 58, 50
5, 214800, Note_on_c, 0, 58, 0
5, 214800, Note_on_c, 0, 62, 50
5, 215040, Note_on_c, 0, 62, 0
5, 215040, Note_on_c, 0, 67, 50
5, 215280, Note_on_c, 0, 67, 0
5, 215280, Note_on_c, 0, 62, 50
5, 215520, Note_on_c, 0, 62, 0
5, 215520, Note_on_c, 0, 58, 50
5, 215760, Note_on_c, 0, 58, 0
5, 215760, Note_on_c, 0, 55, 50
5, 216000, Note_on_c, 0, 55, 0
5, 216000, Note_on_c, 0, 65, 50
5, 216240, Note_on_c, 0, 65, 0
5, 216240, Note_on_c, 0, 58, 50
5, 216480, Note_on_c, 0, 58, 0
5, 216480, Note_on_c, 0, 55, 50
5, 216720, Note_on_c, 0, 55, 0
5, 216720, Note_on_c, 0, 53, 50
5, 216960, Note_on_c, 0, 53, 0
5, 216960, Note_on_c, 0, 55, 50
5, 217200, Note_on_c, 0, 55, 0
5, 217200, Note_on_c, 0, 67, 50
5, 217440, Note_on_c, 0, 67, 0
5, 217440, Note_on_c, 0, 65, 50
5, 217680, Note_on_c, 0, 65, 0
5, 217680, Note_on_c, 0, 67, 50
5, 217920, Note_on_c, 0, 67, 0
5, 217920, Note_on_c, 0, 70, 50
5, 218400, Note_on_c, 0, 70, 0
5, 218400, Note_on_c, 0, 67, 50
5, 218640, Note_on_c, 0, 67, 0
5, 218640, Note_on_c, 0, 74, 50
5, 218880, Note_on_c, 0, 74, 0
5, 218880, Note_on_c, 0, 72, 50
5, 219120, Note_on_c, 0, 72, 0
5, 219120, Note_on_c, 0, 70, 50
5, 219360, Note_on_c, 0, 70, 0
5, 219360, Note_on_c, 0, 65, 50
5, 219840, Note_on_c, 0, 65, 0
5, 219840, Note_on_c, 0, 58, 50
5, 220080, Note_on_c, 0, 58, 0
5, 220080, Note_on_c, 0, 57, 50
5, 220320, Note_on_c, 0, 57, 0
5, 220320, Note_on_c, 0, 65, 50
5, 220560, Note_on_c, 0, 65, 0
5, 220560, Note_on_c, 0, 63, 50
5, 220800, Note_on_c, 0, 63, 0
5, 220800, Note_on_c, 0, 62, 50
5, 221040, Note_on_c, 0, 62, 0
5, 221040, Note_on_c, 0, 60, 50
5, 221280, Note_on_c, 0, 60, 0
5, 221280, Note_on_c, 0, 58, 50
5, 221520, Note_on_c, 0, 58, 0
5, 221520, Note_on_c, 0, 55, 50
5, 221760, Note_on_c, 0, 55, 0
5, 221760, Note_on_c, 0, 58, 50
5, 222000, Note_on_c, 0, 58, 0
5, 222000, Note_on_c, 0, 55, 50
5, 222240, Note_on_c, 0, 55, 0
5, 222240, Note_on_c, 0, 58, 50
5, 222480, Note_on_c, 0, 58, 0
5, 222480, Note_on_c, 0, 62, 50
5, 222720, Note_on_c, 0, 62, 0
5, 222720, Note_on_c, 0, 67, 50
5, 222960, Note_on_c, 0, 67, 0
5, 222960, Note_on_c, 0, 62, 50
5, 223200, Note_on_c, 0, 62, 0
5, 223200, Note_on_c, 0, 58, 50
5, 223440, Note_on_c, 0, 58, 0
5, 223440, Note_on_c, 0, 55, 50
5, 223680, Note_on_c, 0, 55, 0
5, 223680, Note_on_c, 0, 65, 50
5, 223920, Note_on_c, 0, 65, 0
5, 223920, Note_on_c, 0, 58, 50
5, 224160, Note_on_c, 0, 58, 0
5, 224160, Note_on_c, 0, 55, 50
5, 224400, Note_on_c, 0, 55, 0
5, 224400, Note_on_c, 0, 53, 50
5, 224640, Note_on_c, 0, 53, 0
5, 263040, Control_c, 0, 7, 98
5, 263040, Control_c, 1, 7, 98
5, 263160, Control_c, 0, 7, 92
5, 263160, Control_c, 1, 7, 92
5, 263280, Control_c, 0, 7, 86
5, 263280, Control_c, 1, 7, 86
5, 263400, Control_c, 0, 7, 80
5, 263400, Control_c, 1, 7, 80
5, 263520, Control_c, 0, 7, 73
5, 263520, Control_c, 1, 7, 73
5, 263640, Control_c, 0, 7, 67
5, 263640, Control_c, 1, 7, 67
5, 263760, Control_c, 0, 7, 61
5, 263760, Control_c, 1, 7, 61
5, 263880, Control_c, 0, 7, 55
5, 263880, Control_c, 1, 7, 55
5, 264000, Control_c, 0, 7, 49
5, 264000, Control_c, 1, 7, 49
5, 264120, Control_c, 0, 7, 43
5, 264120, Control_c, 1, 7, 43
5, 264240, Control_c, 0, 7, 37
5, 264240, Control_c, 1, 7, 37
5, 264360, Control_c, 0, 7, 31
5, 264360, Control_c, 1, 7, 31
5, 264480, Control_c, 0, 7, 24
5, 264480, Control_c, 1, 7, 24
5, 264600, Control_c, 0, 7, 18
5, 264600, Control_c, 1, 7, 18
5, 264720, Control_c, 0, 7, 12
5, 264720, Control_c, 1, 7, 12
5, 264840, Control_c, 0, 7, 6
5, 264840, Control_c, 1, 7, 6
5, 264960, Control_c, 0, 7, 0
5, 264960, Control_c, 1, 7, 0
5, 264960, End_track
6, 0, Start_track
6, 0, Title_t, "Bass"
6, 1917, Control_c, 3, 101, 0
6, 1918, Control_c, 3, 100, 0
6, 1919, Control_c, 3, 6, 12
6, 1920, Control_c, 3, 38, 0
6, 1920, Pitch_bend_c, 3, 8192
6, 1920, Control_c, 3, 101, 0
6, 1921, Control_c, 3, 100, 1
6, 1922, Control_c, 3, 6, 64
6, 1923, Control_c, 3, 38, 0
6, 1923, Control_c, 2, 101, 0
6, 1924, Control_c, 2, 100, 0
6, 1925, Control_c, 2, 6, 12
6, 1926, Control_c, 2, 38, 0
6, 1926, Pitch_bend_c, 2, 8192
6, 1926, Control_c, 2, 101, 0
6, 1927, Control_c, 2, 100, 1
6, 1928, Control_c, 2, 6, 64
6, 1929, Control_c, 2, 38, 0
6, 1929, Control_c, 3, 101, 0
6, 1930, Control_c, 3, 100, 2
6, 1931, Control_c, 3, 6, 64
6, 1932, Control_c, 3, 38, 0
6, 1932, Control_c, 2, 101, 0
6, 1933, Control_c, 2, 100, 2
6, 1934, Control_c, 2, 6, 64
6, 1935, Control_c, 2, 38, 0
6, 1935, Program_c, 3, 81
6, 1935, Program_c, 2, 81
6, 1935, Control_c, 3, 0, 0
6, 1935, Control_c, 2, 0, 0
6, 1935, Control_c, 2, 7, 104
6, 1935, Control_c, 2, 10, 64
6, 1935, Control_c, 2, 93, 0
6, 1935, Control_c, 2, 91, 0
6, 1935, Control_c, 3, 92, 0
6, 1935, Control_c, 2, 92, 0
6, 1935, Control_c, 3, 95, 0
6, 1935, Control_c, 2, 95, 0
6, 17280, Note_on_c, 2, 39, 95
6, 18720, Note_on_c, 2, 39, 0
6, 18720, Note_on_c, 2, 41, 95
6, 18960, Note_on_c, 2, 41, 0
6, 18960, Note_on_c, 2, 43, 95
6, 19200, Note_on_c, 2, 43, 0
6, 19200, Note_on_c, 2, 41, 95
6, 21120, Note_on_c, 2, 41, 0
6, 21120, Note_on_c, 2, 31, 95
6, 24960, Note_on_c, 2, 31, 0
6, 24960, Note_on_c, 2, 39, 95
6, 26400, Note_on_c, 2, 39, 0
6, 26400, Note_on_c, 2, 41, 95
6, 26640, Note_on_c, 2, 41, 0
6, 26640, Note_on_c, 2, 43, 95
6, 26880, Note_on_c, 2, 43, 0
6, 26880, Note_on_c, 2, 41, 95
6, 28800, Note_on_c, 2, 41, 0
6, 28800, Note_on_c, 2, 31, 95
6, 32640, Note_on_c, 2, 31, 0
6, 32640, Note_on_c, 2, 39, 95
6, 34080, Note_on_c, 2, 39, 0
6, 34080, Note_on_c, 2, 41, 95
6, 34320, Note_on_c, 2, 41, 0
6, 34320, Note_on_c, 2, 43, 95
6, 34560, Note_on_c, 2, 43, 0
6, 34560, Note_on_c, 2, 41, 95
6, 36480, Note_on_c, 2, 41, 0
6, 36480, Note_on_c, 2, 31, 95
6, 40320, Note_on_c, 2, 31, 0
6, 40320, Note_on_c, 2, 39, 95
6, 41760, Note_on_c, 2, 39, 0
6, 41760, Note_on_c, 2, 41, 95
6, 42000, Note_on_c, 2, 41, 0
6, 42000, Note_on_c, 2, 43, 95
6, 42240, Note_on_c, 2, 43, 0
6, 42240, Note_on_c, 2, 41, 95
6, 44160, Note_on_c, 2, 41, 0
6, 44160, Note_on_c, 2, 31, 95
6, 46080, Note_on_c, 2, 31, 0
6, 48000, Pitch_bend_c, 3, 8192
6, 48000, Note_on_c, 3, 46, 95
6, 48016, Pitch_bend_c, 3, 8064
6, 48048, Pitch_bend_c, 3, 7808
6, 48064, Pitch_bend_c, 3, 7680
6, 48096, Pitch_bend_c, 3, 7296
6, 48112, Pitch_bend_c, 3, 7040
6, 48144, Pitch_bend_c, 3, 6656
6, 48160, Pitch_bend_c, 3, 6144
6, 48192, Pitch_bend_c, 3, 5760
6, 48208, Pitch_bend_c, 3, 5248
6, 48240, Pitch_bend_c, 3, 4736
6, 48256, Pitch_bend_c, 3, 4352
6, 48288, Pitch_bend_c, 3, 3840
6, 48304, Pitch_bend_c, 3, 3456
6, 48336, Pitch_bend_c, 3, 3072
6, 48352, Pitch_bend_c, 3, 2560
6, 48384, Pitch_bend_c, 3, 2304
6, 48400, Pitch_bend_c, 3, 1920
6, 48432, Pitch_bend_c, 3, 1664
6, 48448, Pitch_bend_c, 3, 1408
6, 48480, Pitch_bend_c, 3, 1152
6, 48496, Pitch_bend_c, 3, 896
6, 48528, Pitch_bend_c, 3, 768
6, 48544, Pitch_bend_c, 3, 640
6, 48576, Pitch_bend_c, 3, 512
6, 48592, Pitch_bend_c, 3, 384
6, 48624, Pitch_bend_c, 3, 256
6, 48672, Pitch_bend_c, 3, 128
6, 48720, Pitch_bend_c, 3, 0
6, 48960, Note_on_c, 3, 46, 0
6, 48960, Pitch_bend_c, 3, 8192
6, 49440, Note_on_c, 2, 31, 95
6, 49680, Note_on_c, 2, 31, 0
6, 49680, Note_on_c, 2, 31, 95
6, 49920, Note_on_c, 2, 31, 0
6, 49920, Note_on_c, 2, 31, 95
6, 50640, Note_on_c, 2, 31, 0
6, 50640, Note_on_c, 2, 31, 95
6, 50880, Note_on_c, 2, 31, 0
6, 50880, Note_on_c, 2, 31, 95
6, 51360, Note_on_c, 2, 31, 0
6, 51360, Note_on_c, 2, 31, 95
6, 51840, Note_on_c, 2, 31, 0
6, 51840, Pitch_bend_c, 3, 8192
6, 51840, Note_on_c, 3, 46, 95
6, 51856, Pitch_bend_c, 3, 8064
6, 51888, Pitch_bend_c, 3, 7808
6, 51904, Pitch_bend_c, 3, 7680
6, 51936, Pitch_bend_c, 3, 7296
6, 51952, Pitch_bend_c, 3, 7040
6, 51984, Pitch_bend_c, 3, 6656
6, 52000, Pitch_bend_c, 3, 6144
6, 52032, Pitch_bend_c, 3, 5760
6, 52048, Pitch_bend_c, 3, 5248
6, 52080, Pitch_bend_c, 3, 4736
6, 52096, Pitch_bend_c, 3, 4352
6, 52128, Pitch_bend_c, 3, 3840
6, 52144, Pitch_bend_c, 3, 3456
6, 52176, Pitch_bend_c, 3, 3072
6, 52192, Pitch_bend_c, 3, 2560
6, 52224, Pitch_bend_c, 3, 2304
6, 52240, Pitch_bend_c, 3, 1920
6, 52272, Pitch_bend_c, 3, 1664
6, 52288, Pitch_bend_c, 3, 1408
6, 52320, Pitch_bend_c, 3, 1152
6, 52336, Pitch_bend_c, 3, 896
6, 52368, Pitch_bend_c, 3, 768
6, 52384, Pitch_bend_c, 3, 640
6, 52416, Pitch_bend_c, 3, 512
6, 52432, Pitch_bend_c, 3, 384
6, 52464, Pitch_bend_c, 3, 256
6, 52512, Pitch_bend_c, 3, 128
6, 52560, Pitch_bend_c, 3, 0
6, 52800, Note_on_c, 3, 46, 0
6, 52800, Pitch_bend_c, 3, 8192
6, 53280, Note_on_c, 2, 31, 95
6, 53520, Note_on_c, 2, 31, 0
6, 53520, Note_on_c, 2, 31, 95
6, 53760, Note_on_c, 2, 31, 0
6, 53760, Note_on_c, 2, 31, 95
6, 54480, Note_on_c, 2, 31, 0
6, 54480, Note_on_c, 2, 31, 95
6, 54720, Note_on_c, 2, 31, 0
6, 54720, Note_on_c, 2, 31, 95
6, 55200, Note_on_c, 2, 31, 0
6, 55200, Note_on_c, 2, 31, 95
6, 55680, Note_on_c, 2, 31, 0
6, 57120, Note_on_c, 2, 31, 95
6, 57360, Note_on_c, 2, 31, 0
6, 57360, Note_on_c, 2, 31, 95
6, 57600, Note_on_c, 2, 31, 0
6, 57600, Note_on_c, 2, 31, 95
6, 58560, Note_on_c, 2, 31, 0
6, 58560, Note_on_c, 2, 31, 95
6, 58920, Note_on_c, 2, 31, 0
6, 58920, Note_on_c, 2, 31, 95
6, 59040, Note_on_c, 2, 31, 0
6, 59040, Note_on_c, 2, 31, 95
6, 59280, Note_on_c, 2, 31, 0
6, 59280, Note_on_c, 2, 31, 95
6, 59520, Note_on_c, 2, 31, 0
6, 59520, Note_on_c, 2, 39, 95
6, 60960, Note_on_c, 2, 39, 0
6, 60960, Note_on_c, 2, 41, 95
6, 61200, Note_on_c, 2, 41, 0
6, 61200, Note_on_c, 2, 43, 95
6, 61440, Note_on_c, 2, 43, 0
6, 61440, Note_on_c, 2, 41, 95
6, 63360, Note_on_c, 2, 41, 0
6, 63360, Pitch_bend_c, 3, 8192
6, 63360, Note_on_c, 3, 46, 95
6, 63376, Pitch_bend_c, 3, 8064
6, 63408, Pitch_bend_c, 3, 7808
6, 63424, Pitch_bend_c, 3, 7680
6, 63456, Pitch_bend_c, 3, 7296
6, 63472, Pitch_bend_c, 3, 7040
6, 63504, Pitch_bend_c, 3, 6656
6, 63520, Pitch_bend_c, 3, 6144
6, 63552, Pitch_bend_c, 3, 5760
6, 63568, Pitch_bend_c, 3, 5248
6, 63600, Pitch_bend_c, 3, 4736
6, 63616, Pitch_bend_c, 3, 4352
6, 63648, Pitch_bend_c, 3, 3840
6, 63664, Pitch_bend_c, 3, 3456
6, 63696, Pitch_bend_c, 3, 3072
6, 63712, Pitch_bend_c, 3, 2560
6, 63744, Pitch_bend_c, 3, 2304
6, 63760, Pitch_bend_c, 3, 1920
6, 63792, Pitch_bend_c, 3, 1664
6, 63808, Pitch_bend_c, 3, 1408
6, 63840, Pitch_bend_c, 3, 1152
6, 63856, Pitch_bend_c, 3, 896
6, 63888, Pitch_bend_c, 3, 768
6, 63904, Pitch_bend_c, 3, 640
6, 63936, Pitch_bend_c, 3, 512
6, 63952, Pitch_bend_c, 3, 384
6, 63984, Pitch_bend_c, 3, 256
6, 64032, Pitch_bend_c, 3, 128
6, 64080, Pitch_bend_c, 3, 0
6, 64320, Note_on_c, 3, 46, 0
6, 64320, Pitch_bend_c, 3, 8192
6, 64800, Note_on_c, 2, 31, 95
6, 65040, Note_on_c, 2, 31, 0
6, 65040, Note_on_c, 2, 31, 95
6, 65280, Note_on_c, 2, 31, 0
6, 65280, Note_on_c, 2, 31, 95
6, 66000, Note_on_c, 2, 31, 0
6, 66000, Note_on_c, 2, 31, 95
6, 66240, Note_on_c, 2, 31, 0
6, 66240, Note_on_c, 2, 31, 95
6, 66720, Note_on_c, 2, 31, 0
6, 66720, Note_on_c, 2, 31, 95
6, 67200, Note_on_c, 2, 31, 0
6, 67200, Pitch_bend_c, 3, 8192
6, 67200, Note_on_c, 3, 46, 95
6, 67216, Pitch_bend_c, 3, 8064
6, 67248, Pitch_bend_c, 3, 7808
6, 67264, Pitch_bend_c, 3, 7680
6, 67296, Pitch_bend_c, 3, 7296
6, 67312, Pitch_bend_c, 3, 7040
6, 67344, Pitch_bend_c, 3, 6656
6, 67360, Pitch_bend_c, 3, 6144
6, 67392, Pitch_bend_c, 3, 5760
6, 67408, Pitch_bend_c, 3, 5248
6, 67440, Pitch_bend_c, 3, 4736
6, 67456, Pitch_bend_c, 3, 4352
6, 67488, Pitch_bend_c, 3, 3840
6, 67504, Pitch_bend_c, 3, 3456
6, 67536, Pitch_bend_c, 3, 3072
6, 67552, Pitch_bend_c, 3, 2560
6, 67584, Pitch_bend_c, 3, 2304
6, 67600, Pitch_bend_c, 3, 1920
6, 67632, Pitch_bend_c, 3, 1664
6, 67648, Pitch_bend_c, 3, 1408
6, 67680, Pitch_bend_c, 3, 1152
6, 67696, Pitch_bend_c, 3, 896
6, 67728, Pitch_bend_c, 3, 768
6, 67744, Pitch_bend_c, 3, 640
6, 67776, Pitch_bend_c, 3, 512
6, 67792, Pitch_bend_c, 3, 384
6, 67824, Pitch_bend_c, 3, 256
6, 67872, Pitch_bend_c, 3, 128
6, 67920, Pitch_bend_c, 3, 0
6, 68160, Note_on_c, 3, 46, 0
6, 68160, Pitch_bend_c, 3, 8192
6, 68640, Note_on_c, 2, 31, 95
6, 68880, Note_on_c, 2, 31, 0
6, 68880, Note_on_c, 2, 31, 95
6, 69120, Note_on_c, 2, 31, 0
6, 69120, Note_on_c, 2, 31, 95
6, 69840, Note_on_c, 2, 31, 0
6, 69840, Note_on_c, 2, 31, 95
6, 70080, Note_on_c, 2, 31, 0
6, 70080, Note_on_c, 2, 31, 95
6, 70560, Note_on_c, 2, 31, 0
6, 70560, Note_on_c, 2, 31, 95
6, 71040, Note_on_c, 2, 31, 0
6, 72480, Note_on_c, 2, 31, 95
6, 72640, Note_on_c, 2, 31, 0
6, 72640, Note_on_c, 2, 31, 95
6, 72800, Note_on_c, 2, 31, 0
6, 72800, Note_on_c, 2, 31, 95
6, 72960, Note_on_c, 2, 31, 0
6, 72960, Note_on_c, 2, 31, 95
6, 73200, Note_on_c, 2, 31, 0
6, 73440, Note_on_c, 2, 31, 95
6, 73600, Note_on_c, 2, 31, 0
6, 73600, Note_on_c, 2, 31, 95
6, 73760, Note_on_c, 2, 31, 0
6, 73760, Note_on_c, 2, 31, 95
6, 73920, Note_on_c, 2, 31, 0
6, 73920, Note_on_c, 2, 31, 95
6, 74080, Note_on_c, 2, 31, 0
6, 74080, Note_on_c, 2, 31, 95
6, 74240, Note_on_c, 2, 31, 0
6, 74240, Note_on_c, 2, 31, 95
6, 74400, Note_on_c, 2, 31, 0
6, 74400, Note_on_c, 2, 31, 95
6, 74640, Note_on_c, 2, 31, 0
6, 74640, Note_on_c, 2, 31, 95
6, 74880, Note_on_c, 2, 31, 0
6, 74880, Note_on_c, 2, 39, 95
6, 76320, Note_on_c, 2, 39, 0
6, 76320, Note_on_c, 2, 41, 95
6, 76560, Note_on_c, 2, 41, 0
6, 76560, Note_on_c, 2, 43, 95
6, 76800, Note_on_c, 2, 43, 0
6, 76800, Note_on_c, 2, 41, 95
6, 78720, Note_on_c, 2, 41, 0
6, 78720, Pitch_bend_c, 3, 8192
6, 78720, Note_on_c, 3, 46, 95
6, 78736, Pitch_bend_c, 3, 8064
6, 78768, Pitch_bend_c, 3, 7808
6, 78784, Pitch_bend_c, 3, 7680
6, 78816, Pitch_bend_c, 3, 7296
6, 78832, Pitch_bend_c, 3, 7040
6, 78864, Pitch_bend_c, 3, 6656
6, 78880, Pitch_bend_c, 3, 6144
6, 78912, Pitch_bend_c, 3, 5760
6, 78928, Pitch_bend_c, 3, 5248
6, 78960, Pitch_bend_c, 3, 4736
6, 78976, Pitch_bend_c, 3, 4352
6, 79008, Pitch_bend_c, 3, 3840
6, 79024, Pitch_bend_c, 3, 3456
6, 79056, Pitch_bend_c, 3, 3072
6, 79072, Pitch_bend_c, 3, 2560
6, 79104, Pitch_bend_c, 3, 2304
6, 79120, Pitch_bend_c, 3, 1920
6, 79152, Pitch_bend_c, 3, 1664
6, 79168, Pitch_bend_c, 3, 1408
6, 79200, Pitch_bend_c, 3, 1152
6, 79216, Pitch_bend_c, 3, 896
6, 79248, Pitch_bend_c, 3, 768
6, 79264, Pitch_bend_c, 3, 640
6, 79296, Pitch_bend_c, 3, 512
6, 79312, Pitch_bend_c, 3, 384
6, 79344, Pitch_bend_c, 3, 256
6, 79392, Pitch_bend_c, 3, 128
6, 79440, Pitch_bend_c, 3, 0
6, 79680, Note_on_c, 3, 46, 0
6, 79680, Pitch_bend_c, 3, 8192
6, 80160, Note_on_c, 2, 31, 95
6, 80400, Note_on_c, 2, 31, 0
6, 80400, Note_on_c, 2, 31, 95
6, 80640, Note_on_c, 2, 31, 0
6, 80640, Note_on_c, 2, 31, 95
6, 81360, Note_on_c, 2, 31, 0
6, 81360, Note_on_c, 2, 31, 95
6, 81600, Note_on_c, 2, 31, 0
6, 81600, Note_on_c, 2, 31, 95
6, 82080, Note_on_c, 2, 31, 0
6, 82080, Note_on_c, 2, 31, 95
6, 82560, Note_on_c, 2, 31, 0
6, 82560, Pitch_bend_c, 3, 8192
6, 82560, Note_on_c, 3, 46, 95
6, 82576, Pitch_bend_c, 3, 8064
6, 82608, Pitch_bend_c, 3, 7808
6, 82624, Pitch_bend_c, 3, 7680
6, 82656, Pitch_bend_c, 3, 7296
6, 82672, Pitch_bend_c, 3, 7040
6, 82704, Pitch_bend_c, 3, 6656
6, 82720, Pitch_bend_c, 3, 6144
6, 82752, Pitch_bend_c, 3, 5760
6, 82768, Pitch_bend_c, 3, 5248
6, 82800, Pitch_bend_c, 3, 4736
6, 82816, Pitch_bend_c, 3, 4352
6, 82848, Pitch_bend_c, 3, 3840
6, 82864, Pitch_bend_c, 3, 3456
6, 82896, Pitch_bend_c, 3, 3072
6, 82912, Pitch_bend_c, 3, 2560
6, 82944, Pitch_bend_c, 3, 2304
6, 82960, Pitch_bend_c, 3, 1920
6, 82992, Pitch_bend_c, 3, 1664
6, 83008, Pitch_bend_c, 3, 1408
6, 83040, Pitch_bend_c, 3, 1152
6, 83056, Pitch_bend_c, 3, 896
6, 83088, Pitch_bend_c, 3, 768
6, 83104, Pitch_bend_c, 3, 640
6, 83136, Pitch_bend_c, 3, 512
6, 83152, Pitch_bend_c, 3, 384
6, 83184, Pitch_bend_c, 3, 256
6, 83232, Pitch_bend_c, 3, 128
6, 83280, Pitch_bend_c, 3, 0
6, 83520, Note_on_c, 3, 46, 0
6, 83520, Pitch_bend_c, 3, 8192
6, 84000, Note_on_c, 2, 31, 95
6, 84240, Note_on_c, 2, 31, 0
6, 84240, Note_on_c, 2, 31, 95
6, 84480, Note_on_c, 2, 31, 0
6, 84480, Note_on_c, 2, 31, 95
6, 85200, Note_on_c, 2, 31, 0
6, 85200, Note_on_c, 2, 31, 95
6, 85440, Note_on_c, 2, 31, 0
6, 85440, Note_on_c, 2, 31, 95
6, 85920, Note_on_c, 2, 31, 0
6, 85920, Note_on_c, 2, 31, 95
6, 86400, Note_on_c, 2, 31, 0
6, 87840, Note_on_c, 2, 31, 95
6, 88080, Note_on_c, 2, 31, 0
6, 88080, Note_on_c, 2, 31, 95
6, 88320, Note_on_c, 2, 31, 0
6, 88320, Note_on_c, 2, 31, 95
6, 89280, Note_on_c, 2, 31, 0
6, 89280, Note_on_c, 2, 31, 95
6, 89640, Note_on_c, 2, 31, 0
6, 89640, Note_on_c, 2, 31, 95
6, 89760, Note_on_c, 2, 31, 0
6, 89760, Note_on_c, 2, 31, 95
6, 90000, Note_on_c, 2, 31, 0
6, 90000, Note_on_c, 2, 31, 95
6, 90240, Note_on_c, 2, 31, 0
6, 90240, Note_on_c, 2, 39, 95
6, 91680, Note_on_c, 2, 39, 0
6, 91680, Note_on_c, 2, 41, 95
6, 91920, Note_on_c, 2, 41, 0
6, 91920, Note_on_c, 2, 43, 95
6, 92160, Note_on_c, 2, 43, 0
6, 92160, Note_on_c, 2, 41, 95
6, 94080, Note_on_c, 2, 41, 0
6, 94080, Pitch_bend_c, 3, 8192
6, 94080, Note_on_c, 3, 46, 95
6, 94096, Pitch_bend_c, 3, 8064
6, 94128, Pitch_bend_c, 3, 7808
6, 94144, Pitch_bend_c, 3, 7680
6, 94176, Pitch_bend_c, 3, 7296
6, 94192, Pitch_bend_c, 3, 7040
6, 94224, Pitch_bend_c, 3, 6656
6, 94240, Pitch_bend_c, 3, 6144
6, 94272, Pitch_bend_c, 3, 5760
6, 94288, Pitch_bend_c, 3, 5248
6, 94320, Pitch_bend_c, 3, 4736
6, 94336, Pitch_bend_c, 3, 4352
6, 94368, Pitch_bend_c, 3, 3840
6, 94384, Pitch_bend_c, 3, 3456
6, 94416, Pitch_bend_c, 3, 3072
6, 94432, Pitch_bend_c, 3, 2560
6, 94464, Pitch_bend_c, 3, 2304
6, 94480, Pitch_bend_c, 3, 1920
6, 94512, Pitch_bend_c, 3, 1664
6, 94528, Pitch_bend_c, 3, 1408
6, 94560, Pitch_bend_c, 3, 1152
6, 94576, Pitch_bend_c, 3, 896
6, 94608, Pitch_bend_c, 3, 768
6, 94624, Pitch_bend_c, 3, 640
6, 94656, Pitch_bend_c, 3, 512
6, 94672, Pitch_bend_c, 3, 384
6, 94704, Pitch_bend_c, 3, 256
6, 94752, Pitch_bend_c, 3, 128
6, 94800, Pitch_bend_c, 3, 0
6, 95040, Note_on_c, 3, 46, 0
6, 95040, Pitch_bend_c, 3, 8192
6, 95520, Note_on_c, 2, 31, 95
6, 95760, Note_on_c, 2, 31, 0
6, 95760, Note_on_c, 2, 31, 95
6, 96000, Note_on_c, 2, 31, 0
6, 96000, Note_on_c, 2, 31, 95
6, 96720, Note_on_c, 2, 31, 0
6, 96720, Note_on_c, 2, 31, 95
6, 96960, Note_on_c, 2, 31, 0
6, 96960, Note_on_c, 2, 31, 95
6, 97440, Note_on_c, 2, 31, 0
6, 97440, Note_on_c, 2, 31, 95
6, 97920, Note_on_c, 2, 31, 0
6, 97920, Pitch_bend_c, 3, 8192
6, 97920, Note_on_c, 3, 46, 95
6, 97936, Pitch_bend_c, 3, 8064
6, 97968, Pitch_bend_c, 3, 7808
6, 97984, Pitch_bend_c, 3, 7680
6, 98016, Pitch_bend_c, 3, 7296
6, 98032, Pitch_bend_c, 3, 7040
6, 98064, Pitch_bend_c, 3, 6656
6, 98080, Pitch_bend_c, 3, 6144
6, 98112, Pitch_bend_c, 3, 5760
6, 98128, Pitch_bend_c, 3, 5248
6, 98160, Pitch_bend_c, 3, 4736
6, 98176, Pitch_bend_c, 3, 4352
6, 98208, Pitch_bend_c, 3, 3840
6, 98224, Pitch_bend_c, 3, 3456
6, 98256, Pitch_bend_c, 3, 3072
6, 98272, Pitch_bend_c, 3, 2560
6, 98304, Pitch_bend_c, 3, 2304
6, 98320, Pitch_bend_c, 3, 1920
6, 98352, Pitch_bend_c, 3, 1664
6, 98368, Pitch_bend_c, 3, 1408
6, 98400, Pitch_bend_c, 3, 1152
6, 98416, Pitch_bend_c, 3, 896
6, 98448, Pitch_bend_c, 3, 768
6, 98464, Pitch_bend_c, 3, 640
6, 98496, Pitch_bend_c, 3, 512
6, 98512, Pitch_bend_c, 3, 384
6, 98544, Pitch_bend_c, 3, 256
6, 98592, Pitch_bend_c, 3, 128
6, 98640, Pitch_bend_c, 3, 0
6, 98880, Note_on_c, 3, 46, 0
6, 98880, Pitch_bend_c, 3, 8192
6, 99360, Note_on_c, 2, 31, 95
6, 99600, Note_on_c, 2, 31, 0
6, 99600, Note_on_c, 2, 31, 95
6, 99840, Note_on_c, 2, 31, 0
6, 99840, Note_on_c, 2, 31, 95
6, 100560, Note_on_c, 2, 31, 0
6, 100560, Note_on_c, 2, 31, 95
6, 100800, Note_on_c, 2, 31, 0
6, 100800, Note_on_c, 2, 31, 95
6, 101280, Note_on_c, 2, 31, 0
6, 101280, Note_on_c, 2, 31, 95
6, 101760, Note_on_c, 2, 31, 0
6, 103200, Note_on_c, 2, 31, 95
6, 103360, Note_on_c, 2, 31, 0
6, 103360, Note_on_c, 2, 31, 95
6, 103520, Note_on_c, 2, 31, 0
6, 103520, Note_on_c, 2, 31, 95
6, 103680, Note_on_c, 2, 31, 0
6, 103680, Note_on_c, 2, 31, 95
6, 103920, Note_on_c, 2, 31, 0
6, 104160, Note_on_c, 2, 31, 95
6, 104320, Note_on_c, 2, 31, 0
6, 104320, Note_on_c, 2, 31, 95
6, 104480, Note_on_c, 2, 31, 0
6, 104480, Note_on_c, 2, 31, 95
6, 104640, Note_on_c, 2, 31, 0
6, 104640, Note_on_c, 2, 31, 95
6, 104800, Note_on_c, 2, 31, 0
6, 104800, Note_on_c, 2, 31, 95
6, 104960, Note_on_c, 2, 31, 0
6, 104960, Note_on_c, 2, 31, 95
6, 105120, Note_on_c, 2, 31, 0
6, 105120, Note_on_c, 2, 31, 95
6, 105360, Note_on_c, 2, 31, 0
6, 105360, Note_on_c, 2, 31, 95
6, 105600, Note_on_c, 2, 31, 0
6, 105600, Note_on_c, 2, 39, 95
6, 107040, Note_on_c, 2, 39, 0
6, 107040, Note_on_c, 2, 41, 95
6, 107280, Note_on_c, 2, 41, 0
6, 107280, Note_on_c, 2, 43, 95
6, 107520, Note_on_c, 2, 43, 0
6, 107520, Note_on_c, 2, 41, 95
6, 109440, Note_on_c, 2, 41, 0
6, 109440, Note_on_c, 2, 31, 95
6, 113280, Note_on_c, 2, 31, 0
6, 113280, Note_on_c, 2, 39, 95
6, 114720, Note_on_c, 2, 39, 0
6, 114720, Note_on_c, 2, 41, 95
6, 114960, Note_on_c, 2, 41, 0
6, 114960, Note_on_c, 2, 43, 95
6, 115200, Note_on_c, 2, 43, 0
6, 115200, Note_on_c, 2, 41, 95
6, 117120, Note_on_c, 2, 41, 0
6, 117120, Note_on_c, 2, 31, 95
6, 120960, Note_on_c, 2, 31, 0
6, 120960, Note_on_c, 2, 39, 95
6, 122400, Note_on_c, 2, 39, 0
6, 122400, Note_on_c, 2, 41, 95
6, 122640, Note_on_c, 2, 41, 0
6, 122640, Note_on_c, 2, 43, 95
6, 122880, Note_on_c, 2, 43, 0
6, 122880, Note_on_c, 2, 41, 95
6, 124800, Note_on_c, 2, 41, 0
6, 124800, Note_on_c, 2, 31, 95
6, 128640, Note_on_c, 2, 31, 0
6, 128640, Note_on_c, 2, 39, 95
6, 130080, Note_on_c, 2, 39, 0
6, 130080, Note_on_c, 2, 41, 95
6, 130320, Note_on_c, 2, 41, 0
6, 130320, Note_on_c, 2, 43, 95
6, 130560, Note_on_c, 2, 43, 0
6, 130560, Note_on_c, 2, 41, 95
6, 132480, Note_on_c, 2, 41, 0
6, 132480, Note_on_c, 2, 31, 95
6, 134400, Note_on_c, 2, 31, 0
6, 136320, Pitch_bend_c, 3, 8192
6, 136320, Note_on_c, 3, 46, 95
6, 136336, Pitch_bend_c, 3, 8064
6, 136368, Pitch_bend_c, 3, 7808
6, 136384, Pitch_bend_c, 3, 7680
6, 136416, Pitch_bend_c, 3, 7296
6, 136432, Pitch_bend_c, 3, 7040
6, 136464, Pitch_bend_c, 3, 6656
6, 136480, Pitch_bend_c, 3, 6144
6, 136512, Pitch_bend_c, 3, 5760
6, 136528, Pitch_bend_c, 3, 5248
6, 136560, Pitch_bend_c, 3, 4736
6, 136576, Pitch_bend_c, 3, 4352
6, 136608, Pitch_bend_c, 3, 3840
6, 136624, Pitch_bend_c, 3, 3456
6, 136656, Pitch_bend_c, 3, 3072
6, 136672, Pitch_bend_c, 3, 2560
6, 136704, Pitch_bend_c, 3, 2304
6, 136720, Pitch_bend_c, 3, 1920
6, 136752, Pitch_bend_c, 3, 1664
6, 136768, Pitch_bend_c, 3, 1408
6, 136800, Pitch_bend_c, 3, 1152
6, 136816, Pitch_bend_c, 3, 896
6, 136848, Pitch_bend_c, 3, 768
6, 136864, Pitch_bend_c, 3, 640
6, 136896, Pitch_bend_c, 3, 512
6, 136912, Pitch_bend_c, 3, 384
6, 136944, Pitch_bend_c, 3, 256
6, 136992, Pitch_bend_c, 3, 128
6, 137040, Pitch_bend_c, 3, 0
6, 137280, Note_on_c, 3, 46, 0
6, 137280, Pitch_bend_c, 3, 8192
6, 137760, Note_on_c, 2, 31, 95
6, 138000, Note_on_c, 2, 31, 0
6, 138000, Note_on_c, 2, 31, 95
6, 138240, Note_on_c, 2, 31, 0
6, 138240, Note_on_c, 2, 31, 95
6, 138960, Note_on_c, 2, 31, 0
6, 138960, Note_on_c, 2, 31, 95
6, 139200, Note_on_c, 2, 31, 0
6, 139200, Note_on_c, 2, 31, 95
6, 139680, Note_on_c, 2, 31, 0
6, 139680, Note_on_c, 2, 31, 95
6, 140160, Note_on_c, 2, 31, 0
6, 140160, Pitch_bend_c, 3, 8192
6, 140160, Note_on_c, 3, 46, 95
6, 140176, Pitch_bend_c, 3, 8064
6, 140208, Pitch_bend_c, 3, 7808
6, 140224, Pitch_bend_c, 3, 7680
6, 140256, Pitch_bend_c, 3, 7296
6, 140272, Pitch_bend_c, 3, 7040
6, 140304, Pitch_bend_c, 3, 6656
6, 140320, Pitch_bend_c, 3, 6144
6, 140352, Pitch_bend_c, 3, 5760
6, 140368, Pitch_bend_c, 3, 5248
6, 140400, Pitch_bend_c, 3, 4736
6, 140416, Pitch_bend_c, 3, 4352
6, 140448, Pitch_bend_c, 3, 3840
6, 140464, Pitch_bend_c, 3, 3456
6, 140496, Pitch_bend_c, 3, 3072
6, 140512, Pitch_bend_c, 3, 2560
6, 140544, Pitch_bend_c, 3, 2304
6, 140560, Pitch_bend_c, 3, 1920
6, 140592, Pitch_bend_c, 3, 1664
6, 140608, Pitch_bend_c, 3, 1408
6, 140640, Pitch_bend_c, 3, 1152
6, 140656, Pitch_bend_c, 3, 896
6, 140688, Pitch_bend_c, 3, 768
6, 140704, Pitch_bend_c, 3, 640
6, 140736, Pitch_bend_c, 3, 512
6, 140752, Pitch_bend_c, 3, 384
6, 140784, Pitch_bend_c, 3, 256
6, 140832, Pitch_bend_c, 3, 128
6, 140880, Pitch_bend_c, 3, 0
6, 141120, Note_on_c, 3, 46, 0
6, 141120, Pitch_bend_c, 3, 8192
6, 141600, Note_on_c, 2, 31, 95
6, 141840, Note_on_c, 2, 31, 0
6, 141840, Note_on_c, 2, 31, 95
6, 142080, Note_on_c, 2, 31, 0
6, 142080, Note_on_c, 2, 31, 95
6, 142800, Note_on_c, 2, 31, 0
6, 142800, Note_on_c, 2, 31, 95
6, 143040, Note_on_c, 2, 31, 0
6, 143040, Note_on_c, 2, 31, 95
6, 143520, Note_on_c, 2, 31, 0
6, 143520, Note_on_c, 2, 31, 95
6, 144000, Note_on_c, 2, 31, 0
6, 145440, Note_on_c, 2, 31, 95
6, 145680, Note_on_c, 2, 31, 0
6, 145680, Note_on_c, 2, 31, 95
6, 145920, Note_on_c, 2, 31, 0
6, 145920, Note_on_c, 2, 31, 95
6, 146880, Note_on_c, 2, 31, 0
6, 146880, Note_on_c, 2, 31, 95
6, 147240, Note_on_c, 2, 31, 0
6, 147240, Note_on_c, 2, 31, 95
6, 147360, Note_on_c, 2, 31, 0
6, 147360, Note_on_c, 2, 31, 95
6, 147600, Note_on_c, 2, 31, 0
6, 147600, Note_on_c, 2, 31, 95
6, 147840, Note_on_c, 2, 31, 0
6, 147840, Note_on_c, 2, 39, 95
6, 149280, Note_on_c, 2, 39, 0
6, 149280, Note_on_c, 2, 41, 95
6, 149520, Note_on_c, 2, 41, 0
6, 149520, Note_on_c, 2, 43, 95
6, 149760, Note_on_c, 2, 43, 0
6, 149760, Note_on_c, 2, 41, 95
6, 151680, Note_on_c, 2, 41, 0
6, 151680, Pitch_bend_c, 3, 8192
6, 151680, Note_on_c, 3, 46, 95
6, 151696, Pitch_bend_c, 3, 8064
6, 151728, Pitch_bend_c, 3, 7808
6, 151744, Pitch_bend_c, 3, 7680
6, 151776, Pitch_bend_c, 3, 7296
6, 151792, Pitch_bend_c, 3, 7040
6, 151824, Pitch_bend_c, 3, 6656
6, 151840, Pitch_bend_c, 3, 6144
6, 151872, Pitch_bend_c, 3, 5760
6, 151888, Pitch_bend_c, 3, 5248
6, 151920, Pitch_bend_c, 3, 4736
6, 151936, Pitch_bend_c, 3, 4352
6, 151968, Pitch_bend_c, 3, 3840
6, 151984, Pitch_bend_c, 3, 3456
6, 152016, Pitch_bend_c, 3, 3072
6, 152032, Pitch_bend_c, 3, 2560
6, 152064, Pitch_bend_c, 3, 2304
6, 152080, Pitch_bend_c, 3, 1920
6, 152112, Pitch_bend_c, 3, 1664
6, 152128, Pitch_bend_c, 3, 1408
6, 152160, Pitch_bend_c, 3, 1152
6, 152176, Pitch_bend_c, 3, 896
6, 152208, Pitch_bend_c, 3, 768
6, 152224, Pitch_bend_c, 3, 640
6, 152256, Pitch_bend_c, 3, 512
6, 152272, Pitch_bend_c, 3, 384
6, 152304, Pitch_bend_c, 3, 256
6, 152352, Pitch_bend_c, 3, 128
6, 152400, Pitch_bend_c, 3, 0
6, 152640, Note_on_c, 3, 46, 0
6, 152640, Pitch_bend_c, 3, 8192
6, 153120, Note_on_c, 2, 31, 95
6, 153360, Note_on_c, 2, 31, 0
6, 153360, Note_on_c, 2, 31, 95
6, 153600, Note_on_c, 2, 31, 0
6, 153600, Note_on_c, 2, 31, 95
6, 154320, Note_on_c, 2, 31, 0
6, 154320, Note_on_c, 2, 31, 95
6, 154560, Note_on_c, 2, 31, 0
6, 154560, Note_on_c, 2, 31, 95
6, 155040, Note_on_c, 2, 31, 0
6, 155040, Note_on_c, 2, 31, 95
6, 155520, Note_on_c, 2, 31, 0
6, 155520, Pitch_bend_c, 3, 8192
6, 155520, Note_on_c, 3, 46, 95
6, 155536, Pitch_bend_c, 3, 8064
6, 155568, Pitch_bend_c, 3, 7808
6, 155584, Pitch_bend_c, 3, 7680
6, 155616, Pitch_bend_c, 3, 7296
6, 155632, Pitch_bend_c, 3, 7040
6, 155664, Pitch_bend_c, 3, 6656
6, 155680, Pitch_bend_c, 3, 6144
6, 155712, Pitch_bend_c, 3, 5760
6, 155728, Pitch_bend_c, 3, 5248
6, 155760, Pitch_bend_c, 3, 4736
6, 155776, Pitch_bend_c, 3, 4352
6, 155808, Pitch_bend_c, 3, 3840
6, 155824, Pitch_bend_c, 3, 3456
6, 155856, Pitch_bend_c, 3, 3072
6, 155872, Pitch_bend_c, 3, 2560
6, 155904, Pitch_bend_c, 3, 2304
6, 155920, Pitch_bend_c, 3, 1920
6, 155952, Pitch_bend_c, 3, 1664
6, 155968, Pitch_bend_c, 3, 1408
6, 156000, Pitch_bend_c, 3, 1152
6, 156016, Pitch_bend_c, 3, 896
6, 156048, Pitch_bend_c, 3, 768
6, 156064, Pitch_bend_c, 3, 640
6, 156096, Pitch_bend_c, 3, 512
6, 156112, Pitch_bend_c, 3, 384
6, 156144, Pitch_bend_c, 3, 256
6, 156192, Pitch_bend_c, 3, 128
6, 156240, Pitch_bend_c, 3, 0
6, 156480, Note_on_c, 3, 46, 0
6, 156480, Pitch_bend_c, 3, 8192
6, 156960, Note_on_c, 2, 31, 95
6, 157200, Note_on_c, 2, 31, 0
6, 157200, Note_on_c, 2, 31, 95
6, 157440, Note_on_c, 2, 31, 0
6, 157440, Note_on_c, 2, 31, 95
6, 158160, Note_on_c, 2, 31, 0
6, 158160, Note_on_c, 2, 31, 95
6, 158400, Note_on_c, 2, 31, 0
6, 158400, Note_on_c, 2, 31, 95
6, 158880, Note_on_c, 2, 31, 0
6, 158880, Note_on_c, 2, 31, 95
6, 159360, Note_on_c, 2, 31, 0
6, 160800, Note_on_c, 2, 31, 95
6, 160960, Note_on_c, 2, 31, 0
6, 160960, Note_on_c, 2, 31, 95
6, 161120, Note_on_c, 2, 31, 0
6, 161120, Note_on_c, 2, 31, 95
6, 161280, Note_on_c, 2, 31, 0
6, 161280, Note_on_c, 2, 31, 95
6, 161520, Note_on_c, 2, 31, 0
6, 161760, Note_on_c, 2, 31, 95
6, 161920, Note_on_c, 2, 31, 0
6, 161920, Note_on_c, 2, 31, 95
6, 162080, Note_on_c, 2, 31, 0
6, 162080, Note_on_c, 2, 31, 95
6, 162240, Note_on_c, 2, 31, 0
6, 162240, Note_on_c, 2, 31, 95
6, 162400, Note_on_c, 2, 31, 0
6, 162400, Note_on_c, 2, 31, 95
6, 162560, Note_on_c, 2, 31, 0
6, 162560, Note_on_c, 2, 31, 95
6, 162720, Note_on_c, 2, 31, 0
6, 162720, Note_on_c, 2, 31, 95
6, 162960, Note_on_c, 2, 31, 0
6, 162960, Note_on_c, 2, 31, 95
6, 163200, Note_on_c, 2, 31, 0
6, 163200, Note_on_c, 2, 39, 95
6, 164640, Note_on_c, 2, 39, 0
6, 164640, Note_on_c, 2, 41, 95
6, 164880, Note_on_c, 2, 41, 0
6, 164880, Note_on_c, 2, 43, 95
6, 165120, Note_on_c, 2, 43, 0
6, 165120, Note_on_c, 2, 41, 95
6, 167040, Note_on_c, 2, 41, 0
6, 167040, Pitch_bend_c, 3, 8192
6, 167040, Note_on_c, 3, 46, 95
6, 167056, Pitch_bend_c, 3, 8064
6, 167088, Pitch_bend_c, 3, 7808
6, 167104, Pitch_bend_c, 3, 7680
6, 167136, Pitch_bend_c, 3, 7296
6, 167152, Pitch_bend_c, 3, 7040
6, 167184, Pitch_bend_c, 3, 6656
6, 167200, Pitch_bend_c, 3, 6144
6, 167232, Pitch_bend_c, 3, 5760
6, 167248, Pitch_bend_c, 3, 5248
6, 167280, Pitch_bend_c, 3, 4736
6, 167296, Pitch_bend_c, 3, 4352
6, 167328, Pitch_bend_c, 3, 3840
6, 167344, Pitch_bend_c, 3, 3456
6, 167376, Pitch_bend_c, 3, 3072
6, 167392, Pitch_bend_c, 3, 2560
6, 167424, Pitch_bend_c, 3, 2304
6, 167440, Pitch_bend_c, 3, 1920
6, 167472, Pitch_bend_c, 3, 1664
6, 167488, Pitch_bend_c, 3, 1408
6, 167520, Pitch_bend_c, 3, 1152
6, 167536, Pitch_bend_c, 3, 896
6, 167568, Pitch_bend_c, 3, 768
6, 167584, Pitch_bend_c, 3, 640
6, 167616, Pitch_bend_c, 3, 512
6, 167632, Pitch_bend_c, 3, 384
6, 167664, Pitch_bend_c, 3, 256
6, 167712, Pitch_bend_c, 3, 128
6, 167760, Pitch_bend_c, 3, 0
6, 168000, Note_on_c, 3, 46, 0
6, 168000, Pitch_bend_c, 3, 8192
6, 168480, Note_on_c, 2, 31, 95
6, 168720, Note_on_c, 2, 31, 0
6, 168720, Note_on_c, 2, 31, 95
6, 168960, Note_on_c, 2, 31, 0
6, 168960, Note_on_c, 2, 31, 95
6, 169680, Note_on_c, 2, 31, 0
6, 169680, Note_on_c, 2, 31, 95
6, 169920, Note_on_c, 2, 31, 0
6, 169920, Note_on_c, 2, 31, 95
6, 170400, Note_on_c, 2, 31, 0
6, 170400, Note_on_c, 2, 31, 95
6, 170880, Note_on_c, 2, 31, 0
6, 170880, Pitch_bend_c, 3, 8192
6, 170880, Note_on_c, 3, 46, 95
6, 170896, Pitch_bend_c, 3, 8064
6, 170928, Pitch_bend_c, 3, 7808
6, 170944, Pitch_bend_c, 3, 7680
6, 170976, Pitch_bend_c, 3, 7296
6, 170992, Pitch_bend_c, 3, 7040
6, 171024, Pitch_bend_c, 3, 6656
6, 171040, Pitch_bend_c, 3, 6144
6, 171072, Pitch_bend_c, 3, 5760
6, 171088, Pitch_bend_c, 3, 5248
6, 171120, Pitch_bend_c, 3, 4736
6, 171136, Pitch_bend_c, 3, 4352
6, 171168, Pitch_bend_c, 3, 3840
6, 171184, Pitch_bend_c, 3, 3456
6, 171216, Pitch_bend_c, 3, 3072
6, 171232, Pitch_bend_c, 3, 2560
6, 171264, Pitch_bend_c, 3, 2304
6, 171280, Pitch_bend_c, 3, 1920
6, 171312, Pitch_bend_c, 3, 1664
6, 171328, Pitch_bend_c, 3, 1408
6, 171360, Pitch_bend_c, 3, 1152
6, 171376, Pitch_bend_c, 3, 896
6, 171408, Pitch_bend_c, 3, 768
6, 171424, Pitch_bend_c, 3, 640
6, 171456, Pitch_bend_c, 3, 512
6, 171472, Pitch_bend_c, 3, 384
6, 171504, Pitch_bend_c, 3, 256
6, 171552, Pitch_bend_c, 3, 128
6, 171600, Pitch_bend_c, 3, 0
6, 171840, Note_on_c, 3, 46, 0
6, 171840, Pitch_bend_c, 3, 8192
6, 172320, Note_on_c, 2, 31, 95
6, 172560, Note_on_c, 2, 31, 0
6, 172560, Note_on_c, 2, 31, 95
6, 172800, Note_on_c, 2, 31, 0
6, 172800, Note_on_c, 2, 31, 95
6, 173520, Note_on_c, 2, 31, 0
6, 173520, Note_on_c, 2, 31, 95
6, 173760, Note_on_c, 2, 31, 0
6, 173760, Note_on_c, 2, 31, 95
6, 174240, Note_on_c, 2, 31, 0
6, 174240, Note_on_c, 2, 31, 95
6, 174720, Note_on_c, 2, 31, 0
6, 176160, Note_on_c, 2, 31, 95
6, 176400, Note_on_c, 2, 31, 0
6, 176400, Note_on_c, 2, 31, 95
6, 176640, Note_on_c, 2, 31, 0
6, 176640, Note_on_c, 2, 31, 95
6, 177600, Note_on_c, 2, 31, 0
6, 177600, Note_on_c, 2, 31, 95
6, 177960, Note_on_c, 2, 31, 0
6, 177960, Note_on_c, 2, 31, 95
6, 178080, Note_on_c, 2, 31, 0
6, 178080, Note_on_c, 2, 31, 95
6, 178320, Note_on_c, 2, 31, 0
6, 178320, Note_on_c, 2, 31, 95
6, 178560, Note_on_c, 2, 31, 0
6, 178560, Note_on_c, 2, 39, 95
6, 180000, Note_on_c, 2, 39, 0
6, 180000, Note_on_c, 2, 41, 95
6, 180240, Note_on_c, 2, 41, 0
6, 180240, Note_on_c, 2, 43, 95
6, 180480, Note_on_c, 2, 43, 0
6, 180480, Note_on_c, 2, 41, 95
6, 182400, Note_on_c, 2, 41, 0
6, 182400, Pitch_bend_c, 3, 8192
6, 182400, Note_on_c, 3, 46, 95
6, 182416, Pitch_bend_c, 3, 8064
6, 182448, Pitch_bend_c, 3, 7808
6, 182464, Pitch_bend_c, 3, 7680
6, 182496, Pitch_bend_c, 3, 7296
6, 182512, Pitch_bend_c, 3, 7040
6, 182544, Pitch_bend_c, 3, 6656
6, 182560, Pitch_bend_c, 3, 6144
6, 182592, Pitch_bend_c, 3, 5760
6, 182608, Pitch_bend_c, 3, 5248
6, 182640, Pitch_bend_c, 3, 4736
6, 182656, Pitch_bend_c, 3, 4352
6, 182688, Pitch_bend_c, 3, 3840
6, 182704, Pitch_bend_c, 3, 3456
6, 182736, Pitch_bend_c, 3, 3072
6, 182752, Pitch_bend_c, 3, 2560
6, 182784, Pitch_bend_c, 3, 2304
6, 182800, Pitch_bend_c, 3, 1920
6, 182832, Pitch_bend_c, 3, 1664
6, 182848, Pitch_bend_c, 3, 1408
6, 182880, Pitch_bend_c, 3, 1152
6, 182896, Pitch_bend_c, 3, 896
6, 182928, Pitch_bend_c, 3, 768
6, 182944, Pitch_bend_c, 3, 640
6, 182976, Pitch_bend_c, 3, 512
6, 182992, Pitch_bend_c, 3, 384
6, 183024, Pitch_bend_c, 3, 256
6, 183072, Pitch_bend_c, 3, 128
6, 183120, Pitch_bend_c, 3, 0
6, 183360, Note_on_c, 3, 46, 0
6, 183360, Pitch_bend_c, 3, 8192
6, 183840, Note_on_c, 2, 31, 95
6, 184080, Note_on_c, 2, 31, 0
6, 184080, Note_on_c, 2, 31, 95
6, 184320, Note_on_c, 2, 31, 0
6, 184320, Note_on_c, 2, 31, 95
6, 185040, Note_on_c, 2, 31, 0
6, 185040, Note_on_c, 2, 31, 95
6, 185280, Note_on_c, 2, 31, 0
6, 185280, Note_on_c, 2, 31, 95
6, 185760, Note_on_c, 2, 31, 0
6, 185760, Note_on_c, 2, 31, 95
6, 186240, Note_on_c, 2, 31, 0
6, 186240, Pitch_bend_c, 3, 8192
6, 186240, Note_on_c, 3, 46, 95
6, 186256, Pitch_bend_c, 3, 8064
6, 186288, Pitch_bend_c, 3, 7808
6, 186304, Pitch_bend_c, 3, 7680
6, 186336, Pitch_bend_c, 3, 7296
6, 186352, Pitch_bend_c, 3, 7040
6, 186384, Pitch_bend_c, 3, 6656
6, 186400, Pitch_bend_c, 3, 6144
6, 186432, Pitch_bend_c, 3, 5760
6, 186448, Pitch_bend_c, 3, 5248
6, 186480, Pitch_bend_c, 3, 4736
6, 186496, Pitch_bend_c, 3, 4352
6, 186528, Pitch_bend_c, 3, 3840
6, 186544, Pitch_bend_c, 3, 3456
6, 186576, Pitch_bend_c, 3, 3072
6, 186592, Pitch_bend_c, 3, 2560
6, 186624, Pitch_bend_c, 3, 2304
6, 186640, Pitch_bend_c, 3, 1920
6, 186672, Pitch_bend_c, 3, 1664
6, 186688, Pitch_bend_c, 3, 1408
6, 186720, Pitch_bend_c, 3, 1152
6, 186736, Pitch_bend_c, 3, 896
6, 186768, Pitch_bend_c, 3, 768
6, 186784, Pitch_bend_c, 3, 640
6, 186816, Pitch_bend_c, 3, 512
6, 186832, Pitch_bend_c, 3, 384
6, 186864, Pitch_bend_c, 3, 256
6, 186912, Pitch_bend_c, 3, 128
6, 186960, Pitch_bend_c, 3, 0
6, 187200, Note_on_c, 3, 46, 0
6, 187200, Pitch_bend_c, 3, 8192
6, 187680, Note_on_c, 2, 31, 95
6, 187920, Note_on_c, 2, 31, 0
6, 187920, Note_on_c, 2, 31, 95
6, 188160, Note_on_c, 2, 31, 0
6, 188160, Note_on_c, 2, 31, 95
6, 188880, Note_on_c, 2, 31, 0
6, 188880, Note_on_c, 2, 31, 95
6, 189120, Note_on_c, 2, 31, 0
6, 189120, Note_on_c, 2, 31, 95
6, 189600, Note_on_c, 2, 31, 0
6, 189600, Note_on_c, 2, 31, 95
6, 190080, Note_on_c, 2, 31, 0
6, 191520, Note_on_c, 2, 31, 95
6, 191680, Note_on_c, 2, 31, 0
6, 191680, Note_on_c, 2, 31, 95
6, 191840, Note_on_c, 2, 31, 0
6, 191840, Note_on_c, 2, 31, 95
6, 192000, Note_on_c, 2, 31, 0
6, 192000, Note_on_c, 2, 31, 95
6, 192240, Note_on_c, 2, 31, 0
6, 192480, Note_on_c, 2, 31, 95
6, 192640, Note_on_c, 2, 31, 0
6, 192640, Note_on_c, 2, 31, 95
6, 192800, Note_on_c, 2, 31, 0
6, 192800, Note_on_c, 2, 31, 95
6, 192960, Note_on_c, 2, 31, 0
6, 192960, Note_on_c, 2, 31, 95
6, 193120, Note_on_c, 2, 31, 0
6, 193120, Note_on_c, 2, 31, 95
6, 193280, Note_on_c, 2, 31, 0
6, 193280, Note_on_c, 2, 31, 95
6, 193440, Note_on_c, 2, 31, 0
6, 193440, Note_on_c, 2, 31, 95
6, 193680, Note_on_c, 2, 31, 0
6, 193680, Note_on_c, 2, 31, 95
6, 193920, Note_on_c, 2, 31, 0
6, 193920, Note_on_c, 2, 39, 95
6, 195360, Note_on_c, 2, 39, 0
6, 195360, Note_on_c, 2, 41, 95
6, 195600, Note_on_c, 2, 41, 0
6, 195600, Note_on_c, 2, 43, 95
6, 195840, Note_on_c, 2, 43, 0
6, 195840, Note_on_c, 2, 41, 95
6, 197760, Note_on_c, 2, 41, 0
6, 197760, Note_on_c, 2, 31, 95
6, 201600, Note_on_c, 2, 31, 0
6, 201600, Note_on_c, 2, 39, 95
6, 203040, Note_on_c, 2, 39, 0
6, 203040, Note_on_c, 2, 41, 95
6, 203280, Note_on_c, 2, 41, 0
6, 203280, Note_on_c, 2, 43, 95
6, 203520, Note_on_c, 2, 43, 0
6, 203520, Note_on_c, 2, 41, 95
6, 205440, Note_on_c, 2, 41, 0
6, 205440, Note_on_c, 2, 31, 95
6, 209280, Note_on_c, 2, 31, 0
6, 263040, Control_c, 2, 7, 98
6, 263040, Control_c, 3, 7, 98
6, 263160, Control_c, 2, 7, 92
6, 263160, Control_c, 3, 7, 92
6, 263280, Control_c, 2, 7, 86
6, 263280, Control_c, 3, 7, 86
6, 263400, Control_c, 2, 7, 80
6, 263400, Control_c, 3, 7, 80
6, 263520, Control_c, 2, 7, 73
6, 263520, Control_c, 3, 7, 73
6, 263640, Control_c, 2, 7, 67
6, 263640, Control_c, 3, 7, 67
6, 263760, Control_c, 2, 7, 61
6, 263760, Control_c, 3, 7, 61
6, 263880, Control_c, 2, 7, 55
6, 263880, Control_c, 3, 7, 55
6, 264000, Control_c, 2, 7, 49
6, 264000, Control_c, 3, 7, 49
6, 264120, Control_c, 2, 7, 43
6, 264120, Control_c, 3, 7, 43
6, 264240, Control_c, 2, 7, 37
6, 264240, Control_c, 3, 7, 37
6, 264360, Control_c, 2, 7, 31
6, 264360, Control_c, 3, 7, 31
6, 264480, Control_c, 2, 7, 24
6, 264480, Control_c, 3, 7, 24
6, 264600, Control_c, 2, 7, 18
6, 264600, Control_c, 3, 7, 18
6, 264720, Control_c, 2, 7, 12
6, 264720, Control_c, 3, 7, 12
6, 264840, Control_c, 2, 7, 6
6, 264840, Control_c, 3, 7, 6
6, 264960, Control_c, 2, 7, 0
6, 264960, Control_c, 3, 7, 0
6, 264960, End_track
7, 0, Start_track
7, 0, Title_t, "Sub Bass"
7, 1917, Control_c, 12, 101, 0
7, 1918, Control_c, 12, 100, 0
7, 1919, Control_c, 12, 6, 12
7, 1920, Control_c, 12, 38, 0
7, 1920, Pitch_bend_c, 12, 8192
7, 1920, Control_c, 12, 101, 0
7, 1921, Control_c, 12, 100, 1
7, 1922, Control_c, 12, 6, 64
7, 1923, Control_c, 12, 38, 0
7, 1923, Control_c, 11, 101, 0
7, 1924, Control_c, 11, 100, 0
7, 1925, Control_c, 11, 6, 12
7, 1926, Control_c, 11, 38, 0
7, 1926, Pitch_bend_c, 11, 8192
7, 1926, Control_c, 11, 101, 0
7, 1927, Control_c, 11, 100, 1
7, 1928, Control_c, 11, 6, 64
7, 1929, Control_c, 11, 38, 0
7, 1929, Control_c, 12, 101, 0
7, 1930, Control_c, 12, 100, 2
7, 1931, Control_c, 12, 6, 64
7, 1932, Control_c, 12, 38, 0
7, 1932, Control_c, 11, 101, 0
7, 1933, Control_c, 11, 100, 2
7, 1934, Control_c, 11, 6, 64
7, 1935, Control_c, 11, 38, 0
7, 1935, Program_c, 12, 35
7, 1935, Program_c, 11, 35
7, 1935, Control_c, 12, 0, 0
7, 1935, Control_c, 11, 0, 0
7, 1935, Control_c, 11, 7, 96
7, 1935, Control_c, 11, 10, 64
7, 1935, Control_c, 11, 93, 0
7, 1935, Control_c, 11, 91, 0
7, 1935, Control_c, 12, 92, 0
7, 1935, Control_c, 11, 92, 0
7, 1935, Control_c, 12, 95, 0
7, 1935, Control_c, 11, 95, 0
7, 17280, Note_on_c, 11, 27, 95
7, 18720, Note_on_c, 11, 27, 0
7, 18720, Note_on_c, 11, 29, 95
7, 18960, Note_on_c, 11, 29, 0
7, 18960, Note_on_c, 11, 31, 95
7, 19200, Note_on_c, 11, 31, 0
7, 19200, Note_on_c, 11, 29, 95
7, 21120, Note_on_c, 11, 29, 0
7, 21120, Note_on_c, 11, 19, 95
7, 24960, Note_on_c, 11, 19, 0
7, 24960, Note_on_c, 11, 27, 95
7, 26400, Note_on_c, 11, 27, 0
7, 26400, Note_on_c, 11, 29, 95
7, 26640, Note_on_c, 11, 29, 0
7, 26640, Note_on_c, 11, 31, 95
7, 26880, Note_on_c, 11, 31, 0
7, 26880, Note_on_c, 11, 29, 95
7, 28800, Note_on_c, 11, 29, 0
7, 28800, Note_on_c, 11, 19, 95
7, 32640, Note_on_c, 11, 19, 0
7, 32640, Note_on_c, 11, 27, 95
7, 34080, Note_on_c, 11, 27, 0
7, 34080, Note_on_c, 11, 29, 95
7, 34320, Note_on_c, 11, 29, 0
7, 34320, Note_on_c, 11, 31, 95
7, 34560, Note_on_c, 11, 31, 0
7, 34560, Note_on_c, 11, 29, 95
7, 36480, Note_on_c, 11, 29, 0
7, 36480, Note_on_c, 11, 19, 95
7, 40320, Note_on_c, 11, 19, 0
7, 40320, Note_on_c, 11, 27, 95
7, 41760, Note_on_c, 11, 27, 0
7, 41760, Note_on_c, 11, 29, 95
7, 42000, Note_on_c, 11, 29, 0
7, 42000, Note_on_c, 11, 31, 95
7, 42240, Note_on_c, 11, 31, 0
7, 42240, Note_on_c, 11, 29, 95
7, 44160, Note_on_c, 11, 29, 0
7, 44160, Note_on_c, 11, 19, 95
7, 46080, Note_on_c, 11, 19, 0
7, 48000, Pitch_bend_c, 12, 8192
7, 48000, Note_on_c, 12, 34, 95
7, 48016, Pitch_bend_c, 12, 8064
7, 48048, Pitch_bend_c, 12, 7808
7, 48064, Pitch_bend_c, 12, 7680
7, 48096, Pitch_bend_c, 12, 7296
7, 48112, Pitch_bend_c, 12, 7040
7, 48144, Pitch_bend_c, 12, 6656
7, 48160, Pitch_bend_c, 12, 6144
7, 48192, Pitch_bend_c, 12, 5760
7, 48208, Pitch_bend_c, 12, 5248
7, 48240, Pitch_bend_c, 12, 4736
7, 48256, Pitch_bend_c, 12, 4352
7, 48288, Pitch_bend_c, 12, 3840
7, 48304, Pitch_bend_c, 12, 3456
7, 48336, Pitch_bend_c, 12, 3072
7, 48352, Pitch_bend_c, 12, 2560
7, 48384, Pitch_bend_c, 12, 2304
7, 48400, Pitch_bend_c, 12, 1920
7, 48432, Pitch_bend_c, 12, 1664
7, 48448, Pitch_bend_c, 12, 1408
7, 48480, Pitch_bend_c, 12, 1152
7, 48496, Pitch_bend_c, 12, 896
7, 48528, Pitch_bend_c, 12, 768
7, 48544, Pitch_bend_c, 12, 640
7, 48576, Pitch_bend_c, 12, 512
7, 48592, Pitch_bend_c, 12, 384
7, 48624, Pitch_bend_c, 12, 256
7, 48672, Pitch_bend_c, 12, 128
7, 48720, Pitch_bend_c, 12, 0
7, 48960, Note_on_c, 12, 34, 0
7, 48960, Pitch_bend_c, 12, 8192
7, 49440, Note_on_c, 11, 19, 95
7, 49680, Note_on_c, 11, 19, 0
7, 49680, Note_on_c, 11, 19, 95
7, 49920, Note_on_c, 11, 19, 0
7, 49920, Note_on_c, 11, 19, 95
7, 50640, Note_on_c, 11, 19, 0
7, 50640, Note_on_c, 11, 19, 95
7, 50880, Note_on_c, 11, 19, 0
7, 50880, Note_on_c, 11, 19, 95
7, 51360, Note_on_c, 11, 19, 0
7, 51360, Note_on_c, 11, 19, 95
7, 51840, Note_on_c, 11, 19, 0
7, 51840, Pitch_bend_c, 12, 8192
7, 51840, Note_on_c, 12, 34, 95
7, 51856, Pitch_bend_c, 12, 8064
7, 51888, Pitch_bend_c, 12, 7808
7, 51904, Pitch_bend_c, 12, 7680
7, 51936, Pitch_bend_c, 12, 7296
7, 51952, Pitch_bend_c, 12, 7040
7, 51984, Pitch_bend_c, 12, 6656
7, 52000, Pitch_bend_c, 12, 6144
7, 52032, Pitch_bend_c, 12, 5760
7, 52048, Pitch_bend_c, 12, 5248
7, 52080, Pitch_bend_c, 12, 4736
7, 52096, Pitch_bend_c, 12, 4352
7, 52128, Pitch_bend_c, 12, 3840
7, 52144, Pitch_bend_c, 12, 3456
7, 52176, Pitch_bend_c, 12, 3072
7, 52192, Pitch_bend_c, 12, 2560
7, 52224, Pitch_bend_c, 12, 2304
7, 52240, Pitch_bend_c, 12, 1920
7, 52272, Pitch_bend_c, 12, 1664
7, 52288, Pitch_bend_c, 12, 1408
7, 52320, Pitch_bend_c, 12, 1152
7, 52336, Pitch_bend_c, 12, 896
7, 52368, Pitch_bend_c, 12, 768
7, 52384, Pitch_bend_c, 12, 640
7, 52416, Pitch_bend_c, 12, 512
7, 52432, Pitch_bend_c, 12, 384
7, 52464, Pitch_bend_c, 12, 256
7, 52512, Pitch_bend_c, 12, 128
7, 52560, Pitch_bend_c, 12, 0
7, 52800, Note_on_c, 12, 34, 0
7, 52800, Pitch_bend_c, 12, 8192
7, 53280, Note_on_c, 11, 19, 95
7, 53520, Note_on_c, 11, 19, 0
7, 53520, Note_on_c, 11, 19, 95
7, 53760, Note_on_c, 11, 19, 0
7, 53760, Note_on_c, 11, 19, 95
7, 54480, Note_on_c, 11, 19, 0
7, 54480, Note_on_c, 11, 19, 95
7, 54720, Note_on_c, 11, 19, 0
7, 54720, Note_on_c, 11, 19, 95
7, 55200, Note_on_c, 11, 19, 0
7, 55200, Note_on_c, 11, 19, 95
7, 55680, Note_on_c, 11, 19, 0
7, 57120, Note_on_c, 11, 19, 95
7, 57360, Note_on_c, 11, 19, 0
7, 57360, Note_on_c, 11, 19, 95
7, 57600, Note_on_c, 11, 19, 0
7, 57600, Note_on_c, 11, 19, 95
7, 58560, Note_on_c, 11, 19, 0
7, 58560, Note_on_c, 11, 19, 95
7, 58920, Note_on_c, 11, 19, 0
7, 58920, Note_on_c, 11, 19, 95
7, 59040, Note_on_c, 11, 19, 0
7, 59040, Note_on_c, 11, 19, 95
7, 59280, Note_on_c, 11, 19, 0
7, 59280, Note_on_c, 11, 19, 95
7, 59520, Note_on_c, 11, 19, 0
7, 59520, Note_on_c, 11, 27, 95
7, 60960, Note_on_c, 11, 27, 0
7, 60960, Note_on_c, 11, 29, 95
7, 61200, Note_on_c, 11, 29, 0
7, 61200, Note_on_c, 11, 31, 95
7, 61440, Note_on_c, 11, 31, 0
7, 61440, Note_on_c, 11, 29, 95
7, 63360, Note_on_c, 11, 29, 0
7, 63360, Pitch_bend_c, 12, 8192
7, 63360, Note_on_c, 12, 34, 95
7, 63376, Pitch_bend_c, 12, 8064
7, 63408, Pitch_bend_c, 12, 7808
7, 63424, Pitch_bend_c, 12, 7680
7, 63456, Pitch_bend_c, 12, 7296
7, 63472, Pitch_bend_c, 12, 7040
7, 63504, Pitch_bend_c, 12, 6656
7, 63520, Pitch_bend_c, 12, 6144
7, 63552, Pitch_bend_c, 12, 5760
7, 63568, Pitch_bend_c, 12, 5248
7, 63600, Pitch_bend_c, 12, 4736
7, 63616, Pitch_bend_c, 12, 4352
7, 63648, Pitch_bend_c, 12, 3840
7, 63664, Pitch_bend_c, 12, 3456
7, 63696, Pitch_bend_c, 12, 3072
7, 63712, Pitch_bend_c, 12, 2560
7, 63744, Pitch_bend_c, 12, 2304
7, 63760, Pitch_bend_c, 12, 1920
7, 63792, Pitch_bend_c, 12, 1664
7, 63808, Pitch_bend_c, 12, 1408
7, 63840, Pitch_bend_c, 12, 1152
7, 63856, Pitch_bend_c, 12, 896
7, 63888, Pitch_bend_c, 12, 768
7, 63904, Pitch_bend_c, 12, 640
7, 63936, Pitch_bend_c, 12, 512
7, 63952, Pitch_bend_c, 12, 384
7, 63984, Pitch_bend_c, 12, 256
7, 64032, Pitch_bend_c, 12, 128
7, 64080, Pitch_bend_c, 12, 0
7, 64320, Note_on_c, 12, 34, 0
7, 64320, Pitch_bend_c, 12, 8192
7, 64800, Note_on_c, 11, 19, 95
7, 65040, Note_on_c, 11, 19, 0
7, 65040, Note_on_c, 11, 19, 95
7, 65280, Note_on_c, 11, 19, 0
7, 65280, Note_on_c, 11, 19, 95
7, 66000, Note_on_c, 11, 19, 0
7, 66000, Note_on_c, 11, 19, 95
7, 66240, Note_on_c, 11, 19, 0
7, 66240, Note_on_c, 11, 19, 95
7, 66720, Note_on_c, 11, 19, 0
7, 66720, Note_on_c, 11, 19, 95
7, 67200, Note_on_c, 11, 19, 0
7, 67200, Pitch_bend_c, 12, 8192
7, 67200, Note_on_c, 12, 34, 95
7, 67216, Pitch_bend_c, 12, 8064
7, 67248, Pitch_bend_c, 12, 7808
7, 67264, Pitch_bend_c, 12, 7680
7, 67296, Pitch_bend_c, 12, 7296
7, 67312, Pitch_bend_c, 12, 7040
7, 67344, Pitch_bend_c, 12, 6656
7, 67360, Pitch_bend_c, 12, 6144
7, 67392, Pitch_bend_c, 12, 5760
7, 67408, Pitch_bend_c, 12, 5248
7, 67440, Pitch_bend_c, 12, 4736
7, 67456, Pitch_bend_c, 12, 4352
7, 67488, Pitch_bend_c, 12, 3840
7, 67504, Pitch_bend_c, 12, 3456
7, 67536, Pitch_bend_c, 12, 3072
7, 67552, Pitch_bend_c, 12, 2560
7, 67584, Pitch_bend_c, 12, 2304
7, 67600, Pitch_bend_c, 12, 1920
7, 67632, Pitch_bend_c, 12, 1664
7, 67648, Pitch_bend_c, 12, 1408
7, 67680, Pitch_bend_c, 12, 1152
7, 67696, Pitch_bend_c, 12, 896
7, 67728, Pitch_bend_c, 12, 768
7, 67744, Pitch_bend_c, 12, 640
7, 67776, Pitch_bend_c, 12, 512
7, 67792, Pitch_bend_c, 12, 384
7, 67824, Pitch_bend_c, 12, 256
7, 67872, Pitch_bend_c, 12, 128
7, 67920, Pitch_bend_c, 12, 0
7, 68160, Note_on_c, 12, 34, 0
7, 68160, Pitch_bend_c, 12, 8192
7, 68640, Note_on_c, 11, 19, 95
7, 68880, Note_on_c, 11, 19, 0
7, 68880, Note_on_c, 11, 19, 95
7, 69120, Note_on_c, 11, 19, 0
7, 69120, Note_on_c, 11, 19, 95
7, 69840, Note_on_c, 11, 19, 0
7, 69840, Note_on_c, 11, 19, 95
7, 70080, Note_on_c, 11, 19, 0
7, 70080, Note_on_c, 11, 19, 95
7, 70560, Note_on_c, 11, 19, 0
7, 70560, Note_on_c, 11, 19, 95
7, 71040, Note_on_c, 11, 19, 0
7, 72480, Note_on_c, 11, 19, 95
7, 72640, Note_on_c, 11, 19, 0
7, 72640, Note_on_c, 11, 19, 95
7, 72800, Note_on_c, 11, 19, 0
7, 72800, Note_on_c, 11, 19, 95
7, 72960, Note_on_c, 11, 19, 0
7, 72960, Note_on_c, 11, 19, 95
7, 73200, Note_on_c, 11, 19, 0
7, 73440, Note_on_c, 11, 19, 95
7, 73600, Note_on_c, 11, 19, 0
7, 73600, Note_on_c, 11, 19, 95
7, 73760, Note_on_c, 11, 19, 0
7, 73760, Note_on_c, 11, 19, 95
7, 73920, Note_on_c, 11, 19, 0
7, 73920, Note_on_c, 11, 19, 95
7, 74080, Note_on_c, 11, 19, 0
7, 74080, Note_on_c, 11, 19, 95
7, 74240, Note_on_c, 11, 19, 0
7, 74240, Note_on_c, 11, 19, 95
7, 74400, Note_on_c, 11, 19, 0
7, 74400, Note_on_c, 11, 19, 95
7, 74640, Note_on_c, 11, 19, 0
7, 74640, Note_on_c, 11, 19, 95
7, 74880, Note_on_c, 11, 19, 0
7, 74880, Note_on_c, 11, 27, 95
7, 76320, Note_on_c, 11, 27, 0
7, 76320, Note_on_c, 11, 29, 95
7, 76560, Note_on_c, 11, 29, 0
7, 76560, Note_on_c, 11, 31, 95
7, 76800, Note_on_c, 11, 31, 0
7, 76800, Note_on_c, 11, 29, 95
7, 78720, Note_on_c, 11, 29, 0
7, 78720, Pitch_bend_c, 12, 8192
7, 78720, Note_on_c, 12, 34, 95
7, 78736, Pitch_bend_c, 12, 8064
7, 78768, Pitch_bend_c, 12, 7808
7, 78784, Pitch_bend_c, 12, 7680
7, 78816, Pitch_bend_c, 12, 7296
7, 78832, Pitch_bend_c, 12, 7040
7, 78864, Pitch_bend_c, 12, 6656
7, 78880, Pitch_bend_c, 12, 6144
7, 78912, Pitch_bend_c, 12, 5760
7, 78928, Pitch_bend_c, 12, 5248
7, 78960, Pitch_bend_c, 12, 4736
7, 78976, Pitch_bend_c, 12, 4352
7, 79008, Pitch_bend_c, 12, 3840
7, 79024, Pitch_bend_c, 12, 3456
7, 79056, Pitch_bend_c, 12, 3072
7, 79072, Pitch_bend_c, 12, 2560
7, 79104, Pitch_bend_c, 12, 2304
7, 79120, Pitch_bend_c, 12, 1920
7, 79152, Pitch_bend_c, 12, 1664
7, 79168, Pitch_bend_c, 12, 1408
7, 79200, Pitch_bend_c, 12, 1152
7, 79216, Pitch_bend_c, 12, 896
7, 79248, Pitch_bend_c, 12, 768
7, 79264, Pitch_bend_c, 12, 640
7, 79296, Pitch_bend_c, 12, 512
7, 79312, Pitch_bend_c, 12, 384
7, 79344, Pitch_bend_c, 12, 256
7, 79392, Pitch_bend_c, 12, 128
7, 79440, Pitch_bend_c, 12, 0
7, 79680, Note_on_c, 12, 34, 0
7, 79680, Pitch_bend_c, 12, 8192
7, 80160, Note_on_c, 11, 19, 95
7, 80400, Note_on_c, 11, 19, 0
7, 80400, Note_on_c, 11, 19, 95
7, 80640, Note_on_c, 11, 19, 0
7, 80640, Note_on_c, 11, 19, 95
7, 81360, Note_on_c, 11, 19, 0
7, 81360, Note_on_c, 11, 19, 95
7, 81600, Note_on_c, 11, 19, 0
7, 81600, Note_on_c, 11, 19, 95
7, 82080, Note_on_c, 11, 19, 0
7, 82080, Note_on_c, 11, 19, 95
7, 82560, Note_on_c, 11, 19, 0
7, 82560, Pitch_bend_c, 12, 8192
7, 82560, Note_on_c, 12, 34, 95
7, 82576, Pitch_bend_c, 12, 8064
7, 82608, Pitch_bend_c, 12, 7808
7, 82624, Pitch_bend_c, 12, 7680
7, 82656, Pitch_bend_c, 12, 7296
7, 82672, Pitch_bend_c, 12, 7040
7, 82704, Pitch_bend_c, 12, 6656
7, 82720, Pitch_bend_c, 12, 6144
7, 82752, Pitch_bend_c, 12, 5760
7, 82768, Pitch_bend_c, 12, 5248
7, 82800, Pitch_bend_c, 12, 4736
7, 82816, Pitch_bend_c, 12, 4352
7, 82848, Pitch_bend_c, 12, 3840
7, 82864, Pitch_bend_c, 12, 3456
7, 82896, Pitch_bend_c, 12, 3072
7, 82912, Pitch_bend_c, 12, 2560
7, 82944, Pitch_bend_c, 12, 2304
7, 82960, Pitch_bend_c, 12, 1920
7, 82992, Pitch_bend_c, 12, 1664
7, 83008, Pitch_bend_c, 12, 1408
7, 83040, Pitch_bend_c, 12, 1152
7, 83056, Pitch_bend_c, 12, 896
7, 83088, Pitch_bend_c, 12, 768
7, 83104, Pitch_bend_c, 12, 640
7, 83136, Pitch_bend_c, 12, 512
7, 83152, Pitch_bend_c, 12, 384
7, 83184, Pitch_bend_c, 12, 256
7, 83232, Pitch_bend_c, 12, 128
7, 83280, Pitch_bend_c, 12, 0
7, 83520, Note_on_c, 12, 34, 0
7, 83520, Pitch_bend_c, 12, 8192
7, 84000, Note_on_c, 11, 19, 95
7, 84240, Note_on_c, 11, 19, 0
7, 84240, Note_on_c, 11, 19, 95
7, 84480, Note_on_c, 11, 19, 0
7, 84480, Note_on_c, 11, 19, 95
7, 85200, Note_on_c, 11, 19, 0
7, 85200, Note_on_c, 11, 19, 95
7, 85440, Note_on_c, 11, 19, 0
7, 85440, Note_on_c, 11, 19, 95
7, 85920, Note_on_c, 11, 19, 0
7, 85920, Note_on_c, 11, 19, 95
7, 86400, Note_on_c, 11, 19, 0
7, 87840, Note_on_c, 11, 19, 95
7, 88080, Note_on_c, 11, 19, 0
7, 88080, Note_on_c, 11, 19, 95
7, 88320, Note_on_c, 11, 19, 0
7, 88320, Note_on_c, 11, 19, 95
7, 89280, Note_on_c, 11, 19, 0
7, 89280, Note_on_c, 11, 19, 95
7, 89640, Note_on_c, 11, 19, 0
7, 89640, Note_on_c, 11, 19, 95
7, 89760, Note_on_c, 11, 19, 0
7, 89760, Note_on_c, 11, 19, 95
7, 90000, Note_on_c, 11, 19, 0
7, 90000, Note_on_c, 11, 19, 95
7, 90240, Note_on_c, 11, 19, 0
7, 90240, Note_on_c, 11, 27, 95
7, 91680, Note_on_c, 11, 27, 0
7, 91680, Note_on_c, 11, 29, 95
7, 91920, Note_on_c, 11, 29, 0
7, 91920, Note_on_c, 11, 31, 95
7, 92160, Note_on_c, 11, 31, 0
7, 92160, Note_on_c, 11, 29, 95
7, 94080, Note_on_c, 11, 29, 0
7, 94080, Pitch_bend_c, 12, 8192
7, 94080, Note_on_c, 12, 34, 95
7, 94096, Pitch_bend_c, 12, 8064
7, 94128, Pitch_bend_c, 12, 7808
7, 94144, Pitch_bend_c, 12, 7680
7, 94176, Pitch_bend_c, 12, 7296
7, 94192, Pitch_bend_c, 12, 7040
7, 94224, Pitch_bend_c, 12, 6656
7, 94240, Pitch_bend_c, 12, 6144
7, 94272, Pitch_bend_c, 12, 5760
7, 94288, Pitch_bend_c, 12, 5248
7, 94320, Pitch_bend_c, 12, 4736
7, 94336, Pitch_bend_c, 12, 4352
7, 94368, Pitch_bend_c, 12, 3840
7, 94384, Pitch_bend_c, 12, 3456
7, 94416, Pitch_bend_c, 12, 3072
7, 94432, Pitch_bend_c, 12, 2560
7, 94464, Pitch_bend_c, 12, 2304
7, 94480, Pitch_bend_c, 12, 1920
7, 94512, Pitch_bend_c, 12, 1664
7, 94528, Pitch_bend_c, 12, 1408
7, 94560, Pitch_bend_c, 12, 1152
7, 94576, Pitch_bend_c, 12, 896
7, 94608, Pitch_bend_c, 12, 768
7, 94624, Pitch_bend_c, 12, 640
7, 94656, Pitch_bend_c, 12, 512
7, 94672, Pitch_bend_c, 12, 384
7, 94704, Pitch_bend_c, 12, 256
7, 94752, Pitch_bend_c, 12, 128
7, 94800, Pitch_bend_c, 12, 0
7, 95040, Note_on_c, 12, 34, 0
7, 95040, Pitch_bend_c, 12, 8192
7, 95520, Note_on_c, 11, 19, 95
7, 95760, Note_on_c, 11, 19, 0
7, 95760, Note_on_c, 11, 19, 95
7, 96000, Note_on_c, 11, 19, 0
7, 96000, Note_on_c, 11, 19, 95
7, 96720, Note_on_c, 11, 19, 0
7, 96720, Note_on_c, 11, 19, 95
7, 96960, Note_on_c, 11, 19, 0
7, 96960, Note_on_c, 11, 19, 95
7, 97440, Note_on_c, 11, 19, 0
7, 97440, Note_on_c, 11, 19, 95
7, 97920, Note_on_c, 11, 19, 0
7, 97920, Pitch_bend_c, 12, 8192
7, 97920, Note_on_c, 12, 34, 95
7, 97936, Pitch_bend_c, 12, 8064
7, 97968, Pitch_bend_c, 12, 7808
7, 97984, Pitch_bend_c, 12, 7680
7, 98016, Pitch_bend_c, 12, 7296
7, 98032, Pitch_bend_c, 12, 7040
7, 98064, Pitch_bend_c, 12, 6656
7, 98080, Pitch_bend_c, 12, 6144
7, 98112, Pitch_bend_c, 12, 5760
7, 98128, Pitch_bend_c, 12, 5248
7, 98160, Pitch_bend_c, 12, 4736
7, 98176, Pitch_bend_c, 12, 4352
7, 98208, Pitch_bend_c, 12, 3840
7, 98224, Pitch_bend_c, 12, 3456
7, 98256, Pitch_bend_c, 12, 3072
7, 98272, Pitch_bend_c, 12, 2560
7, 98304, Pitch_bend_c, 12, 2304
7, 98320, Pitch_bend_c, 12, 1920
7, 98352, Pitch_bend_c, 12, 1664
7, 98368, Pitch_bend_c, 12, 1408
7, 98400, Pitch_bend_c, 12, 1152
7, 98416, Pitch_bend_c, 12, 896
7, 98448, Pitch_bend_c, 12, 768
7, 98464, Pitch_bend_c, 12, 640
7, 98496, Pitch_bend_c, 12, 512
7, 98512, Pitch_bend_c, 12, 384
7, 98544, Pitch_bend_c, 12, 256
7, 98592, Pitch_bend_c, 12, 128
7, 98640, Pitch_bend_c, 12, 0
7, 98880, Note_on_c, 12, 34, 0
7, 98880, Pitch_bend_c, 12, 8192
7, 99360, Note_on_c, 11, 19, 95
7, 99600, Note_on_c, 11, 19, 0
7, 99600, Note_on_c, 11, 19, 95
7, 99840, Note_on_c, 11, 19, 0
7, 99840, Note_on_c, 11, 19, 95
7, 100560, Note_on_c, 11, 19, 0
7, 100560, Note_on_c, 11, 19, 95
7, 100800, Note_on_c, 11, 19, 0
7, 100800, Note_on_c, 11, 19, 95
7, 101280, Note_on_c, 11, 19, 0
7, 101280, Note_on_c, 11, 19, 95
7, 101760, Note_on_c, 11, 19, 0
7, 103200, Note_on_c, 11, 19, 95
7, 103360, Note_on_c, 11, 19, 0
7, 103360, Note_on_c, 11, 19, 95
7, 103520, Note_on_c, 11, 19, 0
7, 103520, Note_on_c, 11, 19, 95
7, 103680, Note_on_c, 11, 19, 0
7, 103680, Note_on_c, 11, 19, 95
7, 103920, Note_on_c, 11, 19, 0
7, 104160, Note_on_c, 11, 19, 95
7, 104320, Note_on_c, 11, 19, 0
7, 104320, Note_on_c, 11, 19, 95
7, 104480, Note_on_c, 11, 19, 0
7, 104480, Note_on_c, 11, 19, 95
7, 104640, Note_on_c, 11, 19, 0
7, 104640, Note_on_c, 11, 19, 95
7, 104800, Note_on_c, 11, 19, 0
7, 104800, Note_on_c, 11, 19, 95
7, 104960, Note_on_c, 11, 19, 0
7, 104960, Note_on_c, 11, 19, 95
7, 105120, Note_on_c, 11, 19, 0
7, 105120, Note_on_c, 11, 19, 95
7, 105360, Note_on_c, 11, 19, 0
7, 105360, Note_on_c, 11, 19, 95
7, 105600, Note_on_c, 11, 19, 0
7, 105600, Note_on_c, 11, 27, 95
7, 107040, Note_on_c, 11, 27, 0
7, 107040, Note_on_c, 11, 29, 95
7, 107280, Note_on_c, 11, 29, 0
7, 107280, Note_on_c, 11, 31, 95
7, 107520, Note_on_c, 11, 31, 0
7, 107520, Note_on_c, 11, 29, 95
7, 109440, Note_on_c, 11, 29, 0
7, 109440, Note_on_c, 11, 19, 95
7, 113280, Note_on_c, 11, 19, 0
7, 113280, Note_on_c, 11, 27, 95
7, 114720, Note_on_c, 11, 27, 0
7, 114720, Note_on_c, 11, 29, 95
7, 114960, Note_on_c, 11, 29, 0
7, 114960, Note_on_c, 11, 31, 95
7, 115200, Note_on_c, 11, 31, 0
7, 115200, Note_on_c, 11, 29, 95
7, 117120, Note_on_c, 11, 29, 0
7, 117120, Note_on_c, 11, 19, 95
7, 120960, Note_on_c, 11, 19, 0
7, 120960, Note_on_c, 11, 27, 95
7, 122400, Note_on_c, 11, 27, 0
7, 122400, Note_on_c, 11, 29, 95
7, 122640, Note_on_c, 11, 29, 0
7, 122640, Note_on_c, 11, 31, 95
7, 122880, Note_on_c, 11, 31, 0
7, 122880, Note_on_c, 11, 29, 95
7, 124800, Note_on_c, 11, 29, 0
7, 124800, Note_on_c, 11, 19, 95
7, 128640, Note_on_c, 11, 19, 0
7, 128640, Note_on_c, 11, 27, 95
7, 130080, Note_on_c, 11, 27, 0
7, 130080, Note_on_c, 11, 29, 95
7, 130320, Note_on_c, 11, 29, 0
7, 130320, Note_on_c, 11, 31, 95
7, 130560, Note_on_c, 11, 31, 0
7, 130560, Note_on_c, 11, 29, 95
7, 132480, Note_on_c, 11, 29, 0
7, 132480, Note_on_c, 11, 19, 95
7, 134400, Note_on_c, 11, 19, 0
7, 136320, Pitch_bend_c, 12, 8192
7, 136320, Note_on_c, 12, 34, 95
7, 136336, Pitch_bend_c, 12, 8064
7, 136368, Pitch_bend_c, 12, 7808
7, 136384, Pitch_bend_c, 12, 7680
7, 136416, Pitch_bend_c, 12, 7296
7, 136432, Pitch_bend_c, 12, 7040
7, 136464, Pitch_bend_c, 12, 6656
7, 136480, Pitch_bend_c, 12, 6144
7, 136512, Pitch_bend_c, 12, 5760
7, 136528, Pitch_bend_c, 12, 5248
7, 136560, Pitch_bend_c, 12, 4736
7, 136576, Pitch_bend_c, 12, 4352
7, 136608, Pitch_bend_c, 12, 3840
7, 136624, Pitch_bend_c, 12, 3456
7, 136656, Pitch_bend_c, 12, 3072
7, 136672, Pitch_bend_c, 12, 2560
7, 136704, Pitch_bend_c, 12, 2304
7, 136720, Pitch_bend_c, 12, 1920
7, 136752, Pitch_bend_c, 12, 1664
7, 136768, Pitch_bend_c, 12, 1408
7, 136800, Pitch_bend_c, 12, 1152
7, 136816, Pitch_bend_c, 12, 896
7, 136848, Pitch_bend_c, 12, 768
7, 136864, Pitch_bend_c, 12, 640
7, 136896, Pitch_bend_c, 12, 512
7, 136912, Pitch_bend_c, 12, 384
7, 136944, Pitch_bend_c, 12, 256
7, 136992, Pitch_bend_c, 12, 128
7, 137040, Pitch_bend_c, 12, 0
7, 137280, Note_on_c, 12, 34, 0
7, 137280, Pitch_bend_c, 12, 8192
7, 137760, Note_on_c, 11, 19, 95
7, 138000, Note_on_c, 11, 19, 0
7, 138000, Note_on_c, 11, 19, 95
7, 138240, Note_on_c, 11, 19, 0
7, 138240, Note_on_c, 11, 19, 95
7, 138960, Note_on_c, 11, 19, 0
7, 138960, Note_on_c, 11, 19, 95
7, 139200, Note_on_c, 11, 19, 0
7, 139200, Note_on_c, 11, 19, 95
7, 139680, Note_on_c, 11, 19, 0
7, 139680, Note_on_c, 11, 19, 95
7, 140160, Note_on_c, 11, 19, 0
7, 140160, Pitch_bend_c, 12, 8192
7, 140160, Note_on_c, 12, 34, 95
7, 140176, Pitch_bend_c, 12, 8064
7, 140208, Pitch_bend_c, 12, 7808
7, 140224, Pitch_bend_c, 12, 7680
7, 140256, Pitch_bend_c, 12, 7296
7, 140272, Pitch_bend_c, 12, 7040
7, 140304, Pitch_bend_c, 12, 6656
7, 140320, Pitch_bend_c, 12, 6144
7, 140352, Pitch_bend_c, 12, 5760
7, 140368, Pitch_bend_c, 12, 5248
7, 140400, Pitch_bend_c, 12, 4736
7, 140416, Pitch_bend_c, 12, 4352
7, 140448, Pitch_bend_c, 12, 3840
7, 140464, Pitch_bend_c, 12, 3456
7, 140496, Pitch_bend_c, 12, 3072
7, 140512, Pitch_bend_c, 12, 2560
7, 140544, Pitch_bend_c, 12, 2304
7, 140560, Pitch_bend_c, 12, 1920
7, 140592, Pitch_bend_c, 12, 1664
7, 140608, Pitch_bend_c, 12, 1408
7, 140640, Pitch_bend_c, 12, 1152
7, 140656, Pitch_bend_c, 12, 896
7, 140688, Pitch_bend_c, 12, 768
7, 140704, Pitch_bend_c, 12, 640
7, 140736, Pitch_bend_c, 12, 512
7, 140752, Pitch_bend_c, 12, 384
7, 140784, Pitch_bend_c, 12, 256
7, 140832, Pitch_bend_c, 12, 128
7, 140880, Pitch_bend_c, 12, 0
7, 141120, Note_on_c, 12, 34, 0
7, 141120, Pitch_bend_c, 12, 8192
7, 141600, Note_on_c, 11, 19, 95
7, 141840, Note_on_c, 11, 19, 0
7, 141840, Note_on_c, 11, 19, 95
7, 142080, Note_on_c, 11, 19, 0
7, 142080, Note_on_c, 11, 19, 95
7, 142800, Note_on_c, 11, 19, 0
7, 142800, Note_on_c, 11, 19, 95
7, 143040, Note_on_c, 11, 19, 0
7, 143040, Note_on_c, 11, 19, 95
7, 143520, Note_on_c, 11, 19, 0
7, 143520, Note_on_c, 11, 19, 95
7, 144000, Note_on_c, 11, 19, 0
7, 145440, Note_on_c, 11, 19, 95
7, 145680, Note_on_c, 11, 19, 0
7, 145680, Note_on_c, 11, 19, 95
7, 145920, Note_on_c, 11, 19, 0
7, 145920, Note_on_c, 11, 19, 95
7, 146880, Note_on_c, 11, 19, 0
7, 146880, Note_on_c, 11, 19, 95
7, 147240, Note_on_c, 11, 19, 0
7, 147240, Note_on_c, 11, 19, 95
7, 147360, Note_on_c, 11, 19, 0
7, 147360, Note_on_c, 11, 19, 95
7, 147600, Note_on_c, 11, 19, 0
7, 147600, Note_on_c, 11, 19, 95
7, 147840, Note_on_c, 11, 19, 0
7, 147840, Note_on_c, 11, 27, 95
7, 149280, Note_on_c, 11, 27, 0
7, 149280, Note_on_c, 11, 29, 95
7, 149520, Note_on_c, 11, 29, 0
7, 149520, Note_on_c, 11, 31, 95
7, 149760, Note_on_c, 11, 31, 0
7, 149760, Note_on_c, 11, 29, 95
7, 151680, Note_on_c, 11, 29, 0
7, 151680, Pitch_bend_c, 12, 8192
7, 151680, Note_on_c, 12, 34, 95
7, 151696, Pitch_bend_c, 12, 8064
7, 151728, Pitch_bend_c, 12, 7808
7, 151744, Pitch_bend_c, 12, 7680
7, 151776, Pitch_bend_c, 12, 7296
7, 151792, Pitch_bend_c, 12, 7040
7, 151824, Pitch_bend_c, 12, 6656
7, 151840, Pitch_bend_c, 12, 6144
7, 151872, Pitch_bend_c, 12, 5760
7, 151888, Pitch_bend_c, 12, 5248
7, 151920, Pitch_bend_c, 12, 4736
7, 151936, Pitch_bend_c, 12, 4352
7, 151968, Pitch_bend_c, 12, 3840
7, 151984, Pitch_bend_c, 12, 3456
7, 152016, Pitch_bend_c, 12, 3072
7, 152032, Pitch_bend_c, 12, 2560
7, 152064, Pitch_bend_c, 12, 2304
7, 152080, Pitch_bend_c, 12, 1920
7, 152112, Pitch_bend_c, 12, 1664
7, 152128, Pitch_bend_c, 12, 1408
7, 152160, Pitch_bend_c, 12, 1152
7, 152176, Pitch_bend_c, 12, 896
7, 152208, Pitch_bend_c, 12, 768
7, 152224, Pitch_bend_c, 12, 640
7, 152256, Pitch_bend_c, 12, 512
7, 152272, Pitch_bend_c, 12, 384
7, 152304, Pitch_bend_c, 12, 256
7, 152352, Pitch_bend_c, 12, 128
7, 152400, Pitch_bend_c, 12, 0
7, 152640, Note_on_c, 12, 34, 0
7, 152640, Pitch_bend_c, 12, 8192
7, 153120, Note_on_c, 11, 19, 95
7, 153360, Note_on_c, 11, 19, 0
7, 153360, Note_on_c, 11, 19, 95
7, 153600, Note_on_c, 11, 19, 0
7, 153600, Note_on_c, 11, 19, 95
7, 154320, Note_on_c, 11, 19, 0
7, 154320, Note_on_c, 11, 19, 95
7, 154560, Note_on_c, 11, 19, 0
7, 154560, Note_on_c, 11, 19, 95
7, 155040, Note_on_c, 11, 19, 0
7, 155040, Note_on_c, 11, 19, 95
7, 155520, Note_on_c, 11, 19, 0
7, 155520, Pitch_bend_c, 12, 8192
7, 155520, Note_on_c, 12, 34, 95
7, 155536, Pitch_bend_c, 12, 8064
7, 155568, Pitch_bend_c, 12, 7808
7, 155584, Pitch_bend_c, 12, 7680
7, 155616, Pitch_bend_c, 12, 7296
7, 155632, Pitch_bend_c, 12, 7040
7, 155664, Pitch_bend_c, 12, 6656
7, 155680, Pitch_bend_c, 12, 6144
7, 155712, Pitch_bend_c, 12, 5760
7, 155728, Pitch_bend_c, 12, 5248
7, 155760, Pitch_bend_c, 12, 4736
7, 155776, Pitch_bend_c, 12, 4352
7, 155808, Pitch_bend_c, 12, 3840
7, 155824, Pitch_bend_c, 12, 3456
7, 155856, Pitch_bend_c, 12, 3072
7, 155872, Pitch_bend_c, 12, 2560
7, 155904, Pitch_bend_c, 12, 2304
7, 155920, Pitch_bend_c, 12, 1920
7, 155952, Pitch_bend_c, 12, 1664
7, 155968, Pitch_bend_c, 12, 1408
7, 156000, Pitch_bend_c, 12, 1152
7, 156016, Pitch_bend_c, 12, 896
7, 156048, Pitch_bend_c, 12, 768
7, 156064, Pitch_bend_c, 12, 640
7, 156096, Pitch_bend_c, 12, 512
7, 156112, Pitch_bend_c, 12, 384
7, 156144, Pitch_bend_c, 12, 256
7, 156192, Pitch_bend_c, 12, 128
7, 156240, Pitch_bend_c, 12, 0
7, 156480, Note_on_c, 12, 34, 0
7, 156480, Pitch_bend_c, 12, 8192
7, 156960, Note_on_c, 11, 19, 95
7, 157200, Note_on_c, 11, 19, 0
7, 157200, Note_on_c, 11, 19, 95
7, 157440, Note_on_c, 11, 19, 0
7, 157440, Note_on_c, 11, 19, 95
7, 158160, Note_on_c, 11, 19, 0
7, 158160, Note_on_c, 11, 19, 95
7, 158400, Note_on_c, 11, 19, 0
7, 158400, Note_on_c, 11, 19, 95
7, 158880, Note_on_c, 11, 19, 0
7, 158880, Note_on_c, 11, 19, 95
7, 159360, Note_on_c, 11, 19, 0
7, 160800, Note_on_c, 11, 19, 95
7, 160960, Note_on_c, 11, 19, 0
7, 160960, Note_on_c, 11, 19, 95
7, 161120, Note_on_c, 11, 19, 0
7, 161120, Note_on_c, 11, 19, 95
7, 161280, Note_on_c, 11, 19, 0
7, 161280, Note_on_c, 11, 19, 95
7, 161520, Note_on_c, 11, 19, 0
7, 161760, Note_on_c, 11, 19, 95
7, 161920, Note_on_c, 11, 19, 0
7, 161920, Note_on_c, 11, 19, 95
7, 162080, Note_on_c, 11, 19, 0
7, 162080, Note_on_c, 11, 19, 95
7, 162240, Note_on_c, 11, 19, 0
7, 162240, Note_on_c, 11, 19, 95
7, 162400, Note_on_c, 11, 19, 0
7, 162400, Note_on_c, 11, 19, 95
7, 162560, Note_on_c, 11, 19, 0
7, 162560, Note_on_c, 11, 19, 95
7, 162720, Note_on_c, 11, 19, 0
7, 162720, Note_on_c, 11, 19, 95
7, 162960, Note_on_c, 11, 19, 0
7, 162960, Note_on_c, 11, 19, 95
7, 163200, Note_on_c, 11, 19, 0
7, 163200, Note_on_c, 11, 27, 95
7, 164640, Note_on_c, 11, 27, 0
7, 164640, Note_on_c, 11, 29, 95
7, 164880, Note_on_c, 11, 29, 0
7, 164880, Note_on_c, 11, 31, 95
7, 165120, Note_on_c, 11, 31, 0
7, 165120, Note_on_c, 11, 29, 95
7, 167040, Note_on_c, 11, 29, 0
7, 167040, Pitch_bend_c, 12, 8192
7, 167040, Note_on_c, 12, 34, 95
7, 167056, Pitch_bend_c, 12, 8064
7, 167088, Pitch_bend_c, 12, 7808
7, 167104, Pitch_bend_c, 12, 7680
7, 167136, Pitch_bend_c, 12, 7296
7, 167152, Pitch_bend_c, 12, 7040
7, 167184, Pitch_bend_c, 12, 6656
7, 167200, Pitch_bend_c, 12, 6144
7, 167232, Pitch_bend_c, 12, 5760
7, 167248, Pitch_bend_c, 12, 5248
7, 167280, Pitch_bend_c, 12, 4736
7, 167296, Pitch_bend_c, 12, 4352
7, 167328, Pitch_bend_c, 12, 3840
7, 167344, Pitch_bend_c, 12, 3456
7, 167376, Pitch_bend_c, 12, 3072
7, 167392, Pitch_bend_c, 12, 2560
7, 167424, Pitch_bend_c, 12, 2304
7, 167440, Pitch_bend_c, 12, 1920
7, 167472, Pitch_bend_c, 12, 1664
7, 167488, Pitch_bend_c, 12, 1408
7, 167520, Pitch_bend_c, 12, 1152
7, 167536, Pitch_bend_c, 12, 896
7, 167568, Pitch_bend_c, 12, 768
7, 167584, Pitch_bend_c, 12, 640
7, 167616, Pitch_bend_c, 12, 512
7, 167632, Pitch_bend_c, 12, 384
7, 167664, Pitch_bend_c, 12, 256
7, 167712, Pitch_bend_c, 12, 128
7, 167760, Pitch_bend_c, 12, 0
7, 168000, Note_on_c, 12, 34, 0
7, 168000, Pitch_bend_c, 12, 8192
7, 168480, Note_on_c, 11, 19, 95
7, 168720, Note_on_c, 11, 19, 0
7, 168720, Note_on_c, 11, 19, 95
7, 168960, Note_on_c, 11, 19, 0
7, 168960, Note_on_c, 11, 19, 95
7, 169680, Note_on_c, 11, 19, 0
7, 169680, Note_on_c, 11, 19, 95
7, 169920, Note_on_c, 11, 19, 0
7, 169920, Note_on_c, 11, 19, 95
7, 170400, Note_on_c, 11, 19, 0
7, 170400, Note_on_c, 11, 19, 95
7, 170880, Note_on_c, 11, 19, 0
7, 170880, Pitch_bend_c, 12, 8192
7, 170880, Note_on_c, 12, 34, 95
7, 170896, Pitch_bend_c, 12, 8064
7, 170928, Pitch_bend_c, 12, 7808
7, 170944, Pitch_bend_c, 12, 7680
7, 170976, Pitch_bend_c, 12, 7296
7, 170992, Pitch_bend_c, 12, 7040
7, 171024, Pitch_bend_c, 12, 6656
7, 171040, Pitch_bend_c, 12, 6144
7, 171072, Pitch_bend_c, 12, 5760
7, 171088, Pitch_bend_c, 12, 5248
7, 171120, Pitch_bend_c, 12, 4736
7, 171136, Pitch_bend_c, 12, 4352
7, 171168, Pitch_bend_c, 12, 3840
7, 171184, Pitch_bend_c, 12, 3456
7, 171216, Pitch_bend_c, 12, 3072
7, 171232, Pitch_bend_c, 12, 2560
7, 171264, Pitch_bend_c, 12, 2304
7, 171280, Pitch_bend_c, 12, 1920
7, 171312, Pitch_bend_c, 12, 1664
7, 171328, Pitch_bend_c, 12, 1408
7, 171360, Pitch_bend_c, 12, 1152
7, 171376, Pitch_bend_c, 12, 896
7, 171408, Pitch_bend_c, 12, 768
7, 171424, Pitch_bend_c, 12, 640
7, 171456, Pitch_bend_c, 12, 512
7, 171472, Pitch_bend_c, 12, 384
7, 171504, Pitch_bend_c, 12, 256
7, 171552, Pitch_bend_c, 12, 128
7, 171600, Pitch_bend_c, 12, 0
7, 171840, Note_on_c, 12, 34, 0
7, 171840, Pitch_bend_c, 12, 8192
7, 172320, Note_on_c, 11, 19, 95
7, 172560, Note_on_c, 11, 19, 0
7, 172560, Note_on_c, 11, 19, 95
7, 172800, Note_on_c, 11, 19, 0
7, 172800, Note_on_c, 11, 19, 95
7, 173520, Note_on_c, 11, 19, 0
7, 173520, Note_on_c, 11, 19, 95
7, 173760, Note_on_c, 11, 19, 0
7, 173760, Note_on_c, 11, 19, 95
7, 174240, Note_on_c, 11, 19, 0
7, 174240, Note_on_c, 11, 19, 95
7, 174720, Note_on_c, 11, 19, 0
7, 176160, Note_on_c, 11, 19, 95
7, 176400, Note_on_c, 11, 19, 0
7, 176400, Note_on_c, 11, 19, 95
7, 176640, Note_on_c, 11, 19, 0
7, 176640, Note_on_c, 11, 19, 95
7, 177600, Note_on_c, 11, 19, 0
7, 177600, Note_on_c, 11, 19, 95
7, 177960, Note_on_c, 11, 19, 0
7, 177960, Note_on_c, 11, 19, 95
7, 178080, Note_on_c, 11, 19, 0
7, 178080, Note_on_c, 11, 19, 95
7, 178320, Note_on_c, 11, 19, 0
7, 178320, Note_on_c, 11, 19, 95
7, 178560, Note_on_c, 11, 19, 0
7, 178560, Note_on_c, 11, 27, 95
7, 180000, Note_on_c, 11, 27, 0
7, 180000, Note_on_c, 11, 29, 95
7, 180240, Note_on_c, 11, 29, 0
7, 180240, Note_on_c, 11, 31, 95
7, 180480, Note_on_c, 11, 31, 0
7, 180480, Note_on_c, 11, 29, 95
7, 182400, Note_on_c, 11, 29, 0
7, 182400, Pitch_bend_c, 12, 8192
7, 182400, Note_on_c, 12, 34, 95
7, 182416, Pitch_bend_c, 12, 8064
7, 182448, Pitch_bend_c, 12, 7808
7, 182464, Pitch_bend_c, 12, 7680
7, 182496, Pitch_bend_c, 12, 7296
7, 182512, Pitch_bend_c, 12, 7040
7, 182544, Pitch_bend_c, 12, 6656
7, 182560, Pitch_bend_c, 12, 6144
7, 182592, Pitch_bend_c, 12, 5760
7, 182608, Pitch_bend_c, 12, 5248
7, 182640, Pitch_bend_c, 12, 4736
7, 182656, Pitch_bend_c, 12, 4352
7, 182688, Pitch_bend_c, 12, 3840
7, 182704, Pitch_bend_c, 12, 3456
7, 182736, Pitch_bend_c, 12, 3072
7, 182752, Pitch_bend_c, 12, 2560
7, 182784, Pitch_bend_c, 12, 2304
7, 182800, Pitch_bend_c, 12, 1920
7, 182832, Pitch_bend_c, 12, 1664
7, 182848, Pitch_bend_c, 12, 1408
7, 182880, Pitch_bend_c, 12, 1152
7, 182896, Pitch_bend_c, 12, 896
7, 182928, Pitch_bend_c, 12, 768
7, 182944, Pitch_bend_c, 12, 640
7, 182976, Pitch_bend_c, 12, 512
7, 182992, Pitch_bend_c, 12, 384
7, 183024, Pitch_bend_c, 12, 256
7, 183072, Pitch_bend_c, 12, 128
7, 183120, Pitch_bend_c, 12, 0
7, 183360, Note_on_c, 12, 34, 0
7, 183360, Pitch_bend_c, 12, 8192
7, 183840, Note_on_c, 11, 19, 95
7, 184080, Note_on_c, 11, 19, 0
7, 184080, Note_on_c, 11, 19, 95
7, 184320, Note_on_c, 11, 19, 0
7, 184320, Note_on_c, 11, 19, 95
7, 185040, Note_on_c, 11, 19, 0
7, 185040, Note_on_c, 11, 19, 95
7, 185280, Note_on_c, 11, 19, 0
7, 185280, Note_on_c, 11, 19, 95
7, 185760, Note_on_c, 11, 19, 0
7, 185760, Note_on_c, 11, 19, 95
7, 186240, Note_on_c, 11, 19, 0
7, 186240, Pitch_bend_c, 12, 8192
7, 186240, Note_on_c, 12, 34, 95
7, 186256, Pitch_bend_c, 12, 8064
7, 186288, Pitch_bend_c, 12, 7808
7, 186304, Pitch_bend_c, 12, 7680
7, 186336, Pitch_bend_c, 12, 7296
7, 186352, Pitch_bend_c, 12, 7040
7, 186384, Pitch_bend_c, 12, 6656
7, 186400, Pitch_bend_c, 12, 6144
7, 186432, Pitch_bend_c, 12, 5760
7, 186448, Pitch_bend_c, 12, 5248
7, 186480, Pitch_bend_c, 12, 4736
7, 186496, Pitch_bend_c, 12, 4352
7, 186528, Pitch_bend_c, 12, 3840
7, 186544, Pitch_bend_c, 12, 3456
7, 186576, Pitch_bend_c, 12, 3072
7, 186592, Pitch_bend_c, 12, 2560
7, 186624, Pitch_bend_c, 12, 2304
7, 186640, Pitch_bend_c, 12, 1920
7, 186672, Pitch_bend_c, 12, 1664
7, 186688, Pitch_bend_c, 12, 1408
7, 186720, Pitch_bend_c, 12, 1152
7, 186736, Pitch_bend_c, 12, 896
7, 186768, Pitch_bend_c, 12, 768
7, 186784, Pitch_bend_c, 12, 640
7, 186816, Pitch_bend_c, 12, 512
7, 186832, Pitch_bend_c, 12, 384
7, 186864, Pitch_bend_c, 12, 256
7, 186912, Pitch_bend_c, 12, 128
7, 186960, Pitch_bend_c, 12, 0
7, 187200, Note_on_c, 12, 34, 0
7, 187200, Pitch_bend_c, 12, 8192
7, 187680, Note_on_c, 11, 19, 95
7, 187920, Note_on_c, 11, 19, 0
7, 187920, Note_on_c, 11, 19, 95
7, 188160, Note_on_c, 11, 19, 0
7, 188160, Note_on_c, 11, 19, 95
7, 188880, Note_on_c, 11, 19, 0
7, 188880, Note_on_c, 11, 19, 95
7, 189120, Note_on_c, 11, 19, 0
7, 189120, Note_on_c, 11, 19, 95
7, 189600, Note_on_c, 11, 19, 0
7, 189600, Note_on_c, 11, 19, 95
7, 190080, Note_on_c, 11, 19, 0
7, 191520, Note_on_c, 11, 19, 95
7, 191680, Note_on_c, 11, 19, 0
7, 191680, Note_on_c, 11, 19, 95
7, 191840, Note_on_c, 11, 19, 0
7, 191840, Note_on_c, 11, 19, 95
7, 192000, Note_on_c, 11, 19, 0
7, 192000, Note_on_c, 11, 19, 95
7, 192240, Note_on_c, 11, 19, 0
7, 192480, Note_on_c, 11, 19, 95
7, 192640, Note_on_c, 11, 19, 0
7, 192640, Note_on_c, 11, 19, 95
7, 192800, Note_on_c, 11, 19, 0
7, 192800, Note_on_c, 11, 19, 95
7, 192960, Note_on_c, 11, 19, 0
7, 192960, Note_on_c, 11, 19, 95
7, 193120, Note_on_c, 11, 19, 0
7, 193120, Note_on_c, 11, 19, 95
7, 193280, Note_on_c, 11, 19, 0
7, 193280, Note_on_c, 11, 19, 95
7, 193440, Note_on_c, 11, 19, 0
7, 193440, Note_on_c, 11, 19, 95
7, 193680, Note_on_c, 11, 19, 0
7, 193680, Note_on_c, 11, 19, 95
7, 193920, Note_on_c, 11, 19, 0
7, 193920, Note_on_c, 11, 27, 95
7, 195360, Note_on_c, 11, 27, 0
7, 195360, Note_on_c, 11, 29, 95
7, 195600, Note_on_c, 11, 29, 0
7, 195600, Note_on_c, 11, 31, 95
7, 195840, Note_on_c, 11, 31, 0
7, 195840, Note_on_c, 11, 29, 95
7, 197760, Note_on_c, 11, 29, 0
7, 197760, Note_on_c, 11, 19, 95
7, 201600, Note_on_c, 11, 19, 0
7, 201600, Note_on_c, 11, 27, 95
7, 203040, Note_on_c, 11, 27, 0
7, 203040, Note_on_c, 11, 29, 95
7, 203280, Note_on_c, 11, 29, 0
7, 203280, Note_on_c, 11, 31, 95
7, 203520, Note_on_c, 11, 31, 0
7, 203520, Note_on_c, 11, 29, 95
7, 205440, Note_on_c, 11, 29, 0
7, 205440, Note_on_c, 11, 19, 95
7, 209280, Note_on_c, 11, 19, 0
7, 263040, Control_c, 11, 7, 90
7, 263040, Control_c, 12, 7, 90
7, 263160, Control_c, 11, 7, 85
7, 263160, Control_c, 12, 7, 85
7, 263280, Control_c, 11, 7, 79
7, 263280, Control_c, 12, 7, 79
7, 263400, Control_c, 11, 7, 73
7, 263400, Control_c, 12, 7, 73
7, 263520, Control_c, 11, 7, 68
7, 263520, Control_c, 12, 7, 68
7, 263640, Control_c, 11, 7, 62
7, 263640, Control_c, 12, 7, 62
7, 263760, Control_c, 11, 7, 56
7, 263760, Control_c, 12, 7, 56
7, 263880, Control_c, 11, 7, 51
7, 263880, Control_c, 12, 7, 51
7, 264000, Control_c, 11, 7, 45
7, 264000, Control_c, 12, 7, 45
7, 264120, Control_c, 11, 7, 40
7, 264120, Control_c, 12, 7, 40
7, 264240, Control_c, 11, 7, 34
7, 264240, Control_c, 12, 7, 34
7, 264360, Control_c, 11, 7, 28
7, 264360, Control_c, 12, 7, 28
7, 264480, Control_c, 11, 7, 23
7, 264480, Control_c, 12, 7, 23
7, 264600, Control_c, 11, 7, 17
7, 264600, Control_c, 12, 7, 17
7, 264720, Control_c, 11, 7, 11
7, 264720, Control_c, 12, 7, 11
7, 264840, Control_c, 11, 7, 6
7, 264840, Control_c, 12, 7, 6
7, 264960, Control_c, 11, 7, 0
7, 264960, Control_c, 12, 7, 0
7, 264960, End_track
8, 0, Start_track
8, 0, Title_t, "Percussion"
8, 0, Program_c, 9, 0
8, 0, Control_c, 9, 7, 104
8, 0, Control_c, 9, 10, 64
8, 0, Control_c, 9, 91, 0
8, 0, Control_c, 9, 93, 0
8, 0, Note_on_c, 9, 31, 100
8, 90, Note_on_c, 9, 31, 0
8, 480, Note_on_c, 9, 31, 100
8, 570, Note_on_c, 9, 31, 0
8, 960, Note_on_c, 9, 31, 100
8, 1050, Note_on_c, 9, 31, 0
8, 1440, Note_on_c, 9, 31, 100
8, 1530, Note_on_c, 9, 31, 0
8, 1917, Control_c, 9, 101, 0
8, 1918, Control_c, 9, 100, 0
8, 1919, Control_c, 9, 6, 12
8, 1920, Control_c, 9, 38, 0
8, 1920, Pitch_bend_c, 9, 8192
8, 1920, Control_c, 9, 101, 0
8, 1921, Control_c, 9, 100, 1
8, 1922, Control_c, 9, 6, 64
8, 1923, Control_c, 9, 38, 0
8, 1923, Control_c, 9, 0, 0
8, 1923, Control_c, 9, 92, 0
8, 1923, Control_c, 9, 95, 0
8, 1923, Note_on_c, 9, 42, 95
8, 2040, Note_on_c, 9, 42, 0
8, 2040, Note_on_c, 9, 44, 95
8, 2160, Note_on_c, 9, 44, 0
8, 2160, Note_on_c, 9, 44, 95
8, 2280, Note_on_c, 9, 44, 0
8, 2280, Note_on_c, 9, 44, 95
8, 2400, Note_on_c, 9, 44, 0
8, 2400, Note_on_c, 9, 42, 95
8, 2520, Note_on_c, 9, 42, 0
8, 2520, Note_on_c, 9, 44, 95
8, 2640, Note_on_c, 9, 44, 0
8, 2640, Note_on_c, 9, 44, 95
8, 2760, Note_on_c, 9, 44, 0
8, 2760, Note_on_c, 9, 44, 95
8, 2880, Note_on_c, 9, 44, 0
8, 2880, Note_on_c, 9, 42, 95
8, 3000, Note_on_c, 9, 42, 0
8, 3000, Note_on_c, 9, 44, 95
8, 3120, Note_on_c, 9, 44, 0
8, 3120, Note_on_c, 9, 44, 95
8, 3240, Note_on_c, 9, 44, 0
8, 3240, Note_on_c, 9, 44, 95
8, 3360, Note_on_c, 9, 44, 0
8, 3360, Note_on_c, 9, 42, 95
8, 3480, Note_on_c, 9, 42, 0
8, 3480, Note_on_c, 9, 44, 95
8, 3600, Note_on_c, 9, 44, 0
8, 3600, Note_on_c, 9, 44, 95
8, 3720, Note_on_c, 9, 44, 0
8, 3720, Note_on_c, 9, 44, 95
8, 3840, Note_on_c, 9, 44, 0
8, 3840, Note_on_c, 9, 42, 95
8, 3960, Note_on_c, 9, 42, 0
8, 3960, Note_on_c, 9, 44, 95
8, 4080, Note_on_c, 9, 44, 0
8, 4080, Note_on_c, 9, 44, 95
8, 4200, Note_on_c, 9, 44, 0
8, 4200, Note_on_c, 9, 44, 95
8, 4320, Note_on_c, 9, 44, 0
8, 4320, Note_on_c, 9, 42, 95
8, 4440, Note_on_c, 9, 42, 0
8, 4440, Note_on_c, 9, 44, 95
8, 4560, Note_on_c, 9, 44, 0
8, 4560, Note_on_c, 9, 44, 95
8, 4680, Note_on_c, 9, 44, 0
8, 4680, Note_on_c, 9, 44, 95
8, 4800, Note_on_c, 9, 44, 0
8, 4800, Note_on_c, 9, 42, 95
8, 4920, Note_on_c, 9, 42, 0
8, 4920, Note_on_c, 9, 44, 95
8, 5040, Note_on_c, 9, 44, 0
8, 5040, Note_on_c, 9, 44, 95
8, 5160, Note_on_c, 9, 44, 0
8, 5160, Note_on_c, 9, 44, 95
8, 5280, Note_on_c, 9, 44, 0
8, 5280, Note_on_c, 9, 42, 95
8, 5400, Note_on_c, 9, 42, 0
8, 5400, Note_on_c, 9, 44, 95
8, 5520, Note_on_c, 9, 44, 0
8, 5520, Note_on_c, 9, 44, 95
8, 5640, Note_on_c, 9, 44, 0
8, 5640, Note_on_c, 9, 44, 95
8, 5760, Note_on_c, 9, 44, 0
8, 5760, Note_on_c, 9, 42, 95
8, 5880, Note_on_c, 9, 42, 0
8, 5880, Note_on_c, 9, 44, 95
8, 6000, Note_on_c, 9, 44, 0
8, 6000, Note_on_c, 9, 44, 95
8, 6120, Note_on_c, 9, 44, 0
8, 6120, Note_on_c, 9, 44, 95
8, 6240, Note_on_c, 9, 44, 0
8, 6240, Note_on_c, 9, 42, 95
8, 6360, Note_on_c, 9, 42, 0
8, 6360, Note_on_c, 9, 44, 95
8, 6480, Note_on_c, 9, 44, 0
8, 6480, Note_on_c, 9, 44, 95
8, 6600, Note_on_c, 9, 44, 0
8, 6600, Note_on_c, 9, 44, 95
8, 6720, Note_on_c, 9, 44, 0
8, 6720, Note_on_c, 9, 42, 95
8, 6840, Note_on_c, 9, 42, 0
8, 6840, Note_on_c, 9, 44, 95
8, 6960, Note_on_c, 9, 44, 0
8, 6960, Note_on_c, 9, 44, 95
8, 7080, Note_on_c, 9, 44, 0
8, 7080, Note_on_c, 9, 44, 95
8, 7200, Note_on_c, 9, 44, 0
8, 7200, Note_on_c, 9, 42, 95
8, 7320, Note_on_c, 9, 42, 0
8, 7320, Note_on_c, 9, 44, 95
8, 7440, Note_on_c, 9, 44, 0
8, 7440, Note_on_c, 9, 44, 95
8, 7560, Note_on_c, 9, 44, 0
8, 7560, Note_on_c, 9, 44, 95
8, 7680, Note_on_c, 9, 44, 0
8, 7680, Note_on_c, 9, 42, 95
8, 7800, Note_on_c, 9, 42, 0
8, 7800, Note_on_c, 9, 44, 95
8, 7920, Note_on_c, 9, 44, 0
8, 7920, Note_on_c, 9, 44, 95
8, 8040, Note_on_c, 9, 44, 0
8, 8040, Note_on_c, 9, 44, 95
8, 8160, Note_on_c, 9, 44, 0
8, 8160, Note_on_c, 9, 42, 95
8, 8280, Note_on_c, 9, 42, 0
8, 8280, Note_on_c, 9, 44, 95
8, 8400, Note_on_c, 9, 44, 0
8, 8400, Note_on_c, 9, 44, 95
8, 8520, Note_on_c, 9, 44, 0
8, 8520, Note_on_c, 9, 44, 95
8, 8640, Note_on_c, 9, 44, 0
8, 8640, Note_on_c, 9, 42, 95
8, 8760, Note_on_c, 9, 42, 0
8, 8760, Note_on_c, 9, 44, 95
8, 8880, Note_on_c, 9, 44, 0
8, 8880, Note_on_c, 9, 44, 95
8, 9000, Note_on_c, 9, 44, 0
8, 9000, Note_on_c, 9, 44, 95
8, 9120, Note_on_c, 9, 44, 0
8, 9120, Note_on_c, 9, 42, 95
8, 9240, Note_on_c, 9, 42, 0
8, 9240, Note_on_c, 9, 44, 95
8, 9360, Note_on_c, 9, 44, 0
8, 9360, Note_on_c, 9, 44, 95
8, 9480, Note_on_c, 9, 44, 0
8, 9480, Note_on_c, 9, 44, 95
8, 9600, Note_on_c, 9, 44, 0
8, 9600, Note_on_c, 9, 42, 95
8, 9600, Note_on_c, 9, 36, 95
8, 9720, Note_on_c, 9, 36, 0
8, 9720, Note_on_c, 9, 42, 0
8, 9720, Note_on_c, 9, 44, 95
8, 9840, Note_on_c, 9, 44, 0
8, 9840, Note_on_c, 9, 44, 95
8, 9960, Note_on_c, 9, 44, 0
8, 9960, Note_on_c, 9, 44, 95
8, 10080, Note_on_c, 9, 44, 0
8, 10080, Note_on_c, 9, 42, 95
8, 10200, Note_on_c, 9, 42, 0
8, 10200, Note_on_c, 9, 44, 95
8, 10320, Note_on_c, 9, 44, 0
8, 10320, Note_on_c, 9, 44, 95
8, 10440, Note_on_c, 9, 44, 0
8, 10440, Note_on_c, 9, 44, 95
8, 10560, Note_on_c, 9, 44, 0
8, 10560, Note_on_c, 9, 42, 95
8, 10560, Note_on_c, 9, 38, 95
8, 10680, Note_on_c, 9, 38, 0
8, 10680, Note_on_c, 9, 42, 0
8, 10680, Note_on_c, 9, 44, 95
8, 10800, Note_on_c, 9, 44, 0
8, 10800, Note_on_c, 9, 44, 95
8, 10920, Note_on_c, 9, 44, 0
8, 10920, Note_on_c, 9, 44, 95
8, 11040, Note_on_c, 9, 44, 0
8, 11040, Note_on_c, 9, 42, 95
8, 11160, Note_on_c, 9, 42, 0
8, 11160, Note_on_c, 9, 44, 95
8, 11280, Note_on_c, 9, 44, 0
8, 11280, Note_on_c, 9, 44, 95
8, 11400, Note_on_c, 9, 44, 0
8, 11400, Note_on_c, 9, 44, 95
8, 11520, Note_on_c, 9, 44, 0
8, 11520, Note_on_c, 9, 42, 95
8, 11520, Note_on_c, 9, 36, 95
8, 11640, Note_on_c, 9, 36, 0
8, 11640, Note_on_c, 9, 42, 0
8, 11640, Note_on_c, 9, 44, 95
8, 11760, Note_on_c, 9, 44, 0
8, 11760, Note_on_c, 9, 44, 95
8, 11880, Note_on_c, 9, 44, 0
8, 11880, Note_on_c, 9, 44, 95
8, 12000, Note_on_c, 9, 44, 0
8, 12000, Note_on_c, 9, 42, 95
8, 12120, Note_on_c, 9, 42, 0
8, 12120, Note_on_c, 9, 44, 95
8, 12240, Note_on_c, 9, 44, 0
8, 12240, Note_on_c, 9, 44, 95
8, 12360, Note_on_c, 9, 44, 0
8, 12360, Note_on_c, 9, 44, 95
8, 12480, Note_on_c, 9, 44, 0
8, 12480, Note_on_c, 9, 42, 95
8, 12480, Note_on_c, 9, 38, 95
8, 12600, Note_on_c, 9, 38, 0
8, 12600, Note_on_c, 9, 42, 0
8, 12600, Note_on_c, 9, 44, 95
8, 12720, Note_on_c, 9, 44, 0
8, 12720, Note_on_c, 9, 44, 95
8, 12840, Note_on_c, 9, 44, 0
8, 12840, Note_on_c, 9, 44, 95
8, 12960, Note_on_c, 9, 44, 0
8, 12960, Note_on_c, 9, 42, 95
8, 13080, Note_on_c, 9, 42, 0
8, 13080, Note_on_c, 9, 44, 95
8, 13200, Note_on_c, 9, 44, 0
8, 13200, Note_on_c, 9, 44, 95
8, 13320, Note_on_c, 9, 44, 0
8, 13320, Note_on_c, 9, 44, 95
8, 13440, Note_on_c, 9, 44, 0
8, 13440, Note_on_c, 9, 42, 95
8, 13440, Note_on_c, 9, 36, 95
8, 13560, Note_on_c, 9, 36, 0
8, 13560, Note_on_c, 9, 42, 0
8, 13560, Note_on_c, 9, 44, 95
8, 13680, Note_on_c, 9, 44, 0
8, 13680, Note_on_c, 9, 44, 95
8, 13800, Note_on_c, 9, 44, 0
8, 13800, Note_on_c, 9, 44, 95
8, 13920, Note_on_c, 9, 44, 0
8, 13920, Note_on_c, 9, 42, 95
8, 14040, Note_on_c, 9, 42, 0
8, 14040, Note_on_c, 9, 44, 95
8, 14160, Note_on_c, 9, 44, 0
8, 14160, Note_on_c, 9, 44, 95
8, 14160, Note_on_c, 9, 36, 95
8, 14280, Note_on_c, 9, 36, 0
8, 14280, Note_on_c, 9, 44, 0
8, 14280, Note_on_c, 9, 44, 95
8, 14400, Note_on_c, 9, 44, 0
8, 14400, Note_on_c, 9, 42, 95
8, 14400, Note_on_c, 9, 38, 95
8, 14520, Note_on_c, 9, 38, 0
8, 14520, Note_on_c, 9, 42, 0
8, 14520, Note_on_c, 9, 44, 95
8, 14640, Note_on_c, 9, 44, 0
8, 14640, Note_on_c, 9, 44, 95
8, 14760, Note_on_c, 9, 44, 0
8, 14760, Note_on_c, 9, 44, 95
8, 14880, Note_on_c, 9, 44, 0
8, 14880, Note_on_c, 9, 42, 95
8, 15000, Note_on_c, 9, 42, 0
8, 15000, Note_on_c, 9, 44, 95
8, 15120, Note_on_c, 9, 44, 0
8, 15120, Note_on_c, 9, 44, 95
8, 15240, Note_on_c, 9, 44, 0
8, 15240, Note_on_c, 9, 44, 95
8, 15360, Note_on_c, 9, 44, 0
8, 15360, Note_on_c, 9, 36, 95
8, 15360, Note_on_c, 9, 42, 95
8, 15480, Note_on_c, 9, 42, 0
8, 15480, Note_on_c, 9, 44, 95
8, 15600, Note_on_c, 9, 44, 0
8, 15600, Note_on_c, 9, 44, 95
8, 15720, Note_on_c, 9, 44, 0
8, 15720, Note_on_c, 9, 36, 0
8, 15720, Note_on_c, 9, 36, 95
8, 15720, Note_on_c, 9, 44, 95
8, 15840, Note_on_c, 9, 44, 0
8, 15840, Note_on_c, 9, 42, 95
8, 15960, Note_on_c, 9, 42, 0
8, 15960, Note_on_c, 9, 44, 95
8, 16080, Note_on_c, 9, 44, 0
8, 16080, Note_on_c, 9, 36, 0
8, 16080, Note_on_c, 9, 36, 95
8, 16080, Note_on_c, 9, 44, 95
8, 16200, Note_on_c, 9, 44, 0
8, 16200, Note_on_c, 9, 44, 95
8, 16320, Note_on_c, 9, 44, 0
8, 16320, Note_on_c, 9, 36, 0
8, 16320, Note_on_c, 9, 38, 95
8, 16320, Note_on_c, 9, 42, 95
8, 16440, Note_on_c, 9, 42, 0
8, 16440, Note_on_c, 9, 44, 95
8, 16560, Note_on_c, 9, 44, 0
8, 16560, Note_on_c, 9, 44, 95
8, 16680, Note_on_c, 9, 44, 0
8, 16680, Note_on_c, 9, 44, 95
8, 16800, Note_on_c, 9, 44, 0
8, 16800, Note_on_c, 9, 38, 0
8, 16800, Note_on_c, 9, 38, 95
8, 16800, Note_on_c, 9, 42, 95
8, 16920, Note_on_c, 9, 42, 0
8, 16920, Note_on_c, 9, 44, 95
8, 17040, Note_on_c, 9, 44, 0
8, 17040, Note_on_c, 9, 38, 0
8, 17040, Note_on_c, 9, 36, 95
8, 17040, Note_on_c, 9, 44, 95
8, 17160, Note_on_c, 9, 44, 0
8, 17160, Note_on_c, 9, 44, 95
8, 17280, Note_on_c, 9, 44, 0
8, 17280, Note_on_c, 9, 36, 0
8, 17280, Note_on_c, 9, 36, 95
8, 17520, Note_on_c, 9, 36, 0
8, 17520, Note_on_c, 9, 42, 95
8, 17760, Note_on_c, 9, 42, 0
8, 17760, Note_on_c, 9, 42, 95
8, 18000, Note_on_c, 9, 42, 0
8, 18000, Note_on_c, 9, 42, 95
8, 18240, Note_on_c, 9, 42, 0
8, 18240, Note_on_c, 9, 38, 95
8, 18480, Note_on_c, 9, 38, 0
8, 18480, Note_on_c, 9, 42, 95
8, 18720, Note_on_c, 9, 42, 0
8, 19200, Note_on_c, 9, 36, 95
8, 19440, Note_on_c, 9, 36, 0
8, 19440, Note_on_c, 9, 42, 95
8, 19680, Note_on_c, 9, 42, 0
8, 19680, Note_on_c, 9, 42, 95
8, 19920, Note_on_c, 9, 42, 0
8, 19920, Note_on_c, 9, 42, 95
8, 20160, Note_on_c, 9, 42, 0
8, 20160, Note_on_c, 9, 38, 95
8, 20400, Note_on_c, 9, 38, 0
8, 20400, Note_on_c, 9, 42, 95
8, 20640, Note_on_c, 9, 42, 0
8, 21120, Note_on_c, 9, 36, 95
8, 21360, Note_on_c, 9, 36, 0
8, 21360, Note_on_c, 9, 42, 95
8, 21600, Note_on_c, 9, 42, 0
8, 21600, Note_on_c, 9, 42, 95
8, 21840, Note_on_c, 9, 42, 0
8, 21840, Note_on_c, 9, 42, 95
8, 21840, Note_on_c, 9, 36, 95
8, 22080, Note_on_c, 9, 36, 0
8, 22080, Note_on_c, 9, 42, 0
8, 22080, Note_on_c, 9, 38, 95
8, 22320, Note_on_c, 9, 38, 0
8, 22320, Note_on_c, 9, 42, 95
8, 22560, Note_on_c, 9, 42, 0
8, 23040, Note_on_c, 9, 36, 95
8, 23280, Note_on_c, 9, 36, 0
8, 23280, Note_on_c, 9, 42, 95
8, 23400, Note_on_c, 9, 42, 0
8, 23400, Note_on_c, 9, 36, 95
8, 23520, Note_on_c, 9, 36, 0
8, 23520, Note_on_c, 9, 38, 95
8, 23760, Note_on_c, 9, 38, 0
8, 23760, Note_on_c, 9, 42, 95
8, 23760, Note_on_c, 9, 36, 95
8, 24000, Note_on_c, 9, 36, 0
8, 24000, Note_on_c, 9, 42, 0
8, 24000, Note_on_c, 9, 38, 95
8, 24240, Note_on_c, 9, 38, 0
8, 24240, Note_on_c, 9, 42, 95
8, 24240, Note_on_c, 9, 36, 95
8, 24480, Note_on_c, 9, 36, 0
8, 24480, Note_on_c, 9, 42, 0
8, 24480, Note_on_c, 9, 38, 95
8, 24720, Note_on_c, 9, 38, 0
8, 24720, Note_on_c, 9, 42, 95
8, 24720, Note_on_c, 9, 36, 95
8, 24960, Note_on_c, 9, 36, 0
8, 24960, Note_on_c, 9, 42, 0
8, 24960, Note_on_c, 9, 36, 95
8, 25200, Note_on_c, 9, 36, 0
8, 25200, Note_on_c, 9, 42, 95
8, 25440, Note_on_c, 9, 42, 0
8, 25440, Note_on_c, 9, 42, 95
8, 25680, Note_on_c, 9, 42, 0
8, 25680, Note_on_c, 9, 42, 95
8, 25920, Note_on_c, 9, 42, 0
8, 25920, Note_on_c, 9, 38, 95
8, 26160, Note_on_c, 9, 38, 0
8, 26160, Note_on_c, 9, 42, 95
8, 26400, Note_on_c, 9, 42, 0
8, 26880, Note_on_c, 9, 36, 95
8, 27120, Note_on_c, 9, 36, 0
8, 27120, Note_on_c, 9, 42, 95
8, 27360, Note_on_c, 9, 42, 0
8, 27360, Note_on_c, 9, 42, 95
8, 27600, Note_on_c, 9, 42, 0
8, 27600, Note_on_c, 9, 42, 95
8, 27840, Note_on_c, 9, 42, 0
8, 27840, Note_on_c, 9, 38, 95
8, 28080, Note_on_c, 9, 38, 0
8, 28080, Note_on_c, 9, 42, 95
8, 28320, Note_on_c, 9, 42, 0
8, 28800, Note_on_c, 9, 36, 95
8, 29040, Note_on_c, 9, 36, 0
8, 29040, Note_on_c, 9, 42, 95
8, 29280, Note_on_c, 9, 42, 0
8, 29280, Note_on_c, 9, 42, 95
8, 29520, Note_on_c, 9, 42, 0
8, 29520, Note_on_c, 9, 42, 95
8, 29520, Note_on_c, 9, 36, 95
8, 29760, Note_on_c, 9, 36, 0
8, 29760, Note_on_c, 9, 42, 0
8, 29760, Note_on_c, 9, 38, 95
8, 30000, Note_on_c, 9, 38, 0
8, 30000, Note_on_c, 9, 42, 95
8, 30240, Note_on_c, 9, 42, 0
8, 30720, Note_on_c, 9, 36, 95
8, 30960, Note_on_c, 9, 36, 0
8, 30960, Note_on_c, 9, 42, 95
8, 31080, Note_on_c, 9, 42, 0
8, 31080, Note_on_c, 9, 36, 95
8, 31200, Note_on_c, 9, 36, 0
8, 31200, Note_on_c, 9, 38, 95
8, 31440, Note_on_c, 9, 38, 0
8, 31440, Note_on_c, 9, 42, 95
8, 31440, Note_on_c, 9, 36, 95
8, 31680, Note_on_c, 9, 36, 0
8, 31680, Note_on_c, 9, 42, 0
8, 31680, Note_on_c, 9, 38, 95
8, 31920, Note_on_c, 9, 38, 0
8, 31920, Note_on_c, 9, 42, 95
8, 31920, Note_on_c, 9, 36, 95
8, 32160, Note_on_c, 9, 36, 0
8, 32160, Note_on_c, 9, 42, 0
8, 32160, Note_on_c, 9, 38, 95
8, 32400, Note_on_c, 9, 38, 0
8, 32400, Note_on_c, 9, 42, 95
8, 32400, Note_on_c, 9, 36, 95
8, 32640, Note_on_c, 9, 36, 0
8, 32640, Note_on_c, 9, 42, 0
8, 32640, Note_on_c, 9, 42, 95
8, 32640, Note_on_c, 9, 36, 95
8, 34560, Note_on_c, 9, 36, 0
8, 34560, Note_on_c, 9, 42, 0
8, 45120, Note_on_c, 9, 36, 95
8, 45240, Note_on_c, 9, 36, 0
8, 45240, Note_on_c, 9, 36, 95
8, 45360, Note_on_c, 9, 36, 0
8, 45360, Note_on_c, 9, 36, 95
8, 45480, Note_on_c, 9, 36, 0
8, 45480, Note_on_c, 9, 36, 95
8, 45600, Note_on_c, 9, 36, 0
8, 45600, Note_on_c, 9, 36, 95
8, 45720, Note_on_c, 9, 36, 0
8, 45720, Note_on_c, 9, 36, 95
8, 45840, Note_on_c, 9, 36, 0
8, 45840, Note_on_c, 9, 36, 95
8, 45960, Note_on_c, 9, 36, 0
8, 45960, Note_on_c, 9, 36, 95
8, 46080, Note_on_c, 9, 36, 0
8, 46080, Note_on_c, 9, 36, 95
8, 48000, Note_on_c, 9, 36, 0
8, 48000, Note_on_c, 9, 42, 95
8, 48000, Note_on_c, 9, 36, 95
8, 48240, Note_on_c, 9, 36, 0
8, 48240, Note_on_c, 9, 42, 0
8, 48240, Note_on_c, 9, 42, 95
8, 48480, Note_on_c, 9, 42, 0
8, 48480, Note_on_c, 9, 42, 95
8, 48720, Note_on_c, 9, 42, 0
8, 48720, Note_on_c, 9, 42, 95
8, 48960, Note_on_c, 9, 42, 0
8, 48960, Note_on_c, 9, 38, 95
8, 49200, Note_on_c, 9, 38, 0
8, 49200, Note_on_c, 9, 42, 95
8, 49440, Note_on_c, 9, 42, 0
8, 49920, Note_on_c, 9, 42, 95
8, 49920, Note_on_c, 9, 36, 95
8, 50160, Note_on_c, 9, 36, 0
8, 50160, Note_on_c, 9, 42, 0
8, 50160, Note_on_c, 9, 42, 95
8, 50400, Note_on_c, 9, 42, 0
8, 50400, Note_on_c, 9, 42, 95
8, 50640, Note_on_c, 9, 42, 0
8, 50640, Note_on_c, 9, 42, 95
8, 50760, Note_on_c, 9, 42, 0
8, 50760, Note_on_c, 9, 36, 95
8, 50880, Note_on_c, 9, 36, 0
8, 50880, Note_on_c, 9, 38, 95
8, 51120, Note_on_c, 9, 38, 0
8, 51120, Note_on_c, 9, 42, 95
8, 51360, Note_on_c, 9, 42, 0
8, 51840, Note_on_c, 9, 42, 95
8, 51840, Note_on_c, 9, 36, 95
8, 52080, Note_on_c, 9, 36, 0
8, 52080, Note_on_c, 9, 42, 0
8, 52080, Note_on_c, 9, 42, 95
8, 52320, Note_on_c, 9, 42, 0
8, 52320, Note_on_c, 9, 42, 95
8, 52560, Note_on_c, 9, 42, 0
8, 52560, Note_on_c, 9, 42, 95
8, 52800, Note_on_c, 9, 42, 0
8, 52800, Note_on_c, 9, 38, 95
8, 53040, Note_on_c, 9, 38, 0
8, 53040, Note_on_c, 9, 42, 95
8, 53280, Note_on_c, 9, 42, 0
8, 53760, Note_on_c, 9, 42, 95
8, 53760, Note_on_c, 9, 36, 95
8, 54000, Note_on_c, 9, 36, 0
8, 54000, Note_on_c, 9, 42, 0
8, 54000, Note_on_c, 9, 42, 95
8, 54240, Note_on_c, 9, 42, 0
8, 54240, Note_on_c, 9, 42, 95
8, 54480, Note_on_c, 9, 42, 0
8, 54480, Note_on_c, 9, 42, 95
8, 54600, Note_on_c, 9, 42, 0
8, 54600, Note_on_c, 9, 36, 95
8, 54720, Note_on_c, 9, 36, 0
8, 54720, Note_on_c, 9, 38, 95
8, 54960, Note_on_c, 9, 38, 0
8, 54960, Note_on_c, 9, 42, 95
8, 55200, Note_on_c, 9, 42, 0
8, 55680, Note_on_c, 9, 42, 95
8, 55680, Note_on_c, 9, 36, 95
8, 55920, Note_on_c, 9, 36, 0
8, 55920, Note_on_c, 9, 42, 0
8, 55920, Note_on_c, 9, 42, 95
8, 56160, Note_on_c, 9, 42, 0
8, 56160, Note_on_c, 9, 42, 95
8, 56400, Note_on_c, 9, 42, 0
8, 56400, Note_on_c, 9, 42, 95
8, 56640, Note_on_c, 9, 42, 0
8, 56640, Note_on_c, 9, 38, 95
8, 56880, Note_on_c, 9, 38, 0
8, 56880, Note_on_c, 9, 42, 95
8, 57120, Note_on_c, 9, 42, 0
8, 57600, Note_on_c, 9, 42, 95
8, 57600, Note_on_c, 9, 36, 95
8, 57840, Note_on_c, 9, 36, 0
8, 57840, Note_on_c, 9, 42, 0
8, 57840, Note_on_c, 9, 42, 95
8, 58080, Note_on_c, 9, 42, 0
8, 58080, Note_on_c, 9, 42, 95
8, 58320, Note_on_c, 9, 42, 0
8, 58320, Note_on_c, 9, 42, 95
8, 58560, Note_on_c, 9, 42, 0
8, 58560, Note_on_c, 9, 38, 95
8, 58800, Note_on_c, 9, 38, 0
8, 58800, Note_on_c, 9, 42, 95
8, 59040, Note_on_c, 9, 42, 0
8, 59520, Note_on_c, 9, 36, 95
8, 59760, Note_on_c, 9, 36, 0
8, 59760, Note_on_c, 9, 42, 95
8, 60000, Note_on_c, 9, 42, 0
8, 60000, Note_on_c, 9, 42, 95
8, 60240, Note_on_c, 9, 42, 0
8, 60240, Note_on_c, 9, 42, 95
8, 60480, Note_on_c, 9, 42, 0
8, 60480, Note_on_c, 9, 38, 95
8, 60720, Note_on_c, 9, 38, 0
8, 60720, Note_on_c, 9, 42, 95
8, 60960, Note_on_c, 9, 42, 0
8, 61440, Note_on_c, 9, 36, 95
8, 61680, Note_on_c, 9, 36, 0
8, 61680, Note_on_c, 9, 42, 95
8, 61920, Note_on_c, 9, 42, 0
8, 61920, Note_on_c, 9, 42, 95
8, 62160, Note_on_c, 9, 42, 0
8, 62160, Note_on_c, 9, 42, 95
8, 62400, Note_on_c, 9, 42, 0
8, 62400, Note_on_c, 9, 38, 95
8, 62640, Note_on_c, 9, 38, 0
8, 62640, Note_on_c, 9, 42, 95
8, 62880, Note_on_c, 9, 42, 0
8, 63360, Note_on_c, 9, 42, 95
8, 63360, Note_on_c, 9, 36, 95
8, 63600, Note_on_c, 9, 36, 0
8, 63600, Note_on_c, 9, 42, 0
8, 63600, Note_on_c, 9, 42, 95
8, 63840, Note_on_c, 9, 42, 0
8, 63840, Note_on_c, 9, 42, 95
8, 64080, Note_on_c, 9, 42, 0
8, 64080, Note_on_c, 9, 42, 95
8, 64320, Note_on_c, 9, 42, 0
8, 64320, Note_on_c, 9, 38, 95
8, 64560, Note_on_c, 9, 38, 0
8, 64560, Note_on_c, 9, 42, 95
8, 64800, Note_on_c, 9, 42, 0
8, 65280, Note_on_c, 9, 42, 95
8, 65280, Note_on_c, 9, 36, 95
8, 65520, Note_on_c, 9, 36, 0
8, 65520, Note_on_c, 9, 42, 0
8, 65520, Note_on_c, 9, 42, 95
8, 65760, Note_on_c, 9, 42, 0
8, 65760, Note_on_c, 9, 42, 95
8, 66000, Note_on_c, 9, 42, 0
8, 66000, Note_on_c, 9, 42, 95
8, 66120, Note_on_c, 9, 42, 0
8, 66120, Note_on_c, 9, 36, 95
8, 66240, Note_on_c, 9, 36, 0
8, 66240, Note_on_c, 9, 38, 95
8, 66480, Note_on_c, 9, 38, 0
8, 66480, Note_on_c, 9, 42, 95
8, 66720, Note_on_c, 9, 42, 0
8, 67200, Note_on_c, 9, 42, 95
8, 67200, Note_on_c, 9, 36, 95
8, 67440, Note_on_c, 9, 36, 0
8, 67440, Note_on_c, 9, 42, 0
8, 67440, Note_on_c, 9, 42, 95
8, 67680, Note_on_c, 9, 42, 0
8, 67680, Note_on_c, 9, 42, 95
8, 67920, Note_on_c, 9, 42, 0
8, 67920, Note_on_c, 9, 42, 95
8, 68160, Note_on_c, 9, 42, 0
8, 68160, Note_on_c, 9, 38, 95
8, 68400, Note_on_c, 9, 38, 0
8, 68400, Note_on_c, 9, 42, 95
8, 68640, Note_on_c, 9, 42, 0
8, 69120, Note_on_c, 9, 42, 95
8, 69120, Note_on_c, 9, 36, 95
8, 69360, Note_on_c, 9, 36, 0
8, 69360, Note_on_c, 9, 42, 0
8, 69360, Note_on_c, 9, 42, 95
8, 69600, Note_on_c, 9, 42, 0
8, 69600, Note_on_c, 9, 42, 95
8, 69840, Note_on_c, 9, 42, 0
8, 69840, Note_on_c, 9, 42, 95
8, 69960, Note_on_c, 9, 42, 0
8, 69960, Note_on_c, 9, 36, 95
8, 70080, Note_on_c, 9, 36, 0
8, 70080, Note_on_c, 9, 38, 95
8, 70320, Note_on_c, 9, 38, 0
8, 70320, Note_on_c, 9, 42, 95
8, 70560, Note_on_c, 9, 42, 0
8, 71040, Note_on_c, 9, 42, 95
8, 71040, Note_on_c, 9, 36, 95
8, 71280, Note_on_c, 9, 36, 0
8, 71280, Note_on_c, 9, 42, 0
8, 72000, Note_on_c, 9, 42, 95
8, 72000, Note_on_c, 9, 38, 95
8, 72240, Note_on_c, 9, 38, 0
8, 72240, Note_on_c, 9, 42, 0
8, 72480, Note_on_c, 9, 42, 95
8, 72640, Note_on_c, 9, 42, 0
8, 72640, Note_on_c, 9, 42, 95
8, 72800, Note_on_c, 9, 42, 0
8, 72800, Note_on_c, 9, 42, 95
8, 72960, Note_on_c, 9, 42, 0
8, 72960, Note_on_c, 9, 42, 95
8, 72960, Note_on_c, 9, 36, 95
8, 73200, Note_on_c, 9, 36, 0
8, 73200, Note_on_c, 9, 42, 0
8, 73200, Note_on_c, 9, 42, 95
8, 73440, Note_on_c, 9, 42, 0
8, 73440, Note_on_c, 9, 42, 95
8, 73680, Note_on_c, 9, 42, 0
8, 73680, Note_on_c, 9, 42, 95
8, 73920, Note_on_c, 9, 42, 0
8, 73920, Note_on_c, 9, 38, 95
8, 74160, Note_on_c, 9, 38, 0
8, 74160, Note_on_c, 9, 42, 95
8, 74400, Note_on_c, 9, 42, 0
8, 74880, Note_on_c, 9, 36, 95
8, 75120, Note_on_c, 9, 36, 0
8, 75120, Note_on_c, 9, 42, 95
8, 75360, Note_on_c, 9, 42, 0
8, 75360, Note_on_c, 9, 42, 95
8, 75600, Note_on_c, 9, 42, 0
8, 75600, Note_on_c, 9, 42, 95
8, 75840, Note_on_c, 9, 42, 0
8, 75840, Note_on_c, 9, 38, 95
8, 76080, Note_on_c, 9, 38, 0
8, 76080, Note_on_c, 9, 42, 95
8, 76320, Note_on_c, 9, 42, 0
8, 76800, Note_on_c, 9, 36, 95
8, 77040, Note_on_c, 9, 36, 0
8, 77040, Note_on_c, 9, 42, 95
8, 77280, Note_on_c, 9, 42, 0
8, 77280, Note_on_c, 9, 42, 95
8, 77520, Note_on_c, 9, 42, 0
8, 77520, Note_on_c, 9, 42, 95
8, 77760, Note_on_c, 9, 42, 0
8, 77760, Note_on_c, 9, 38, 95
8, 78000, Note_on_c, 9, 38, 0
8, 78000, Note_on_c, 9, 42, 95
8, 78240, Note_on_c, 9, 42, 0
8, 78720, Note_on_c, 9, 42, 95
8, 78720, Note_on_c, 9, 36, 95
8, 78960, Note_on_c, 9, 36, 0
8, 78960, Note_on_c, 9, 42, 0
8, 78960, Note_on_c, 9, 42, 95
8, 79200, Note_on_c, 9, 42, 0
8, 79200, Note_on_c, 9, 42, 95
8, 79440, Note_on_c, 9, 42, 0
8, 79440, Note_on_c, 9, 42, 95
8, 79680, Note_on_c, 9, 42, 0
8, 79680, Note_on_c, 9, 38, 95
8, 79920, Note_on_c, 9, 38, 0
8, 79920, Note_on_c, 9, 42, 95
8, 80160, Note_on_c, 9, 42, 0
8, 80640, Note_on_c, 9, 42, 95
8, 80640, Note_on_c, 9, 36, 95
8, 80880, Note_on_c, 9, 36, 0
8, 80880, Note_on_c, 9, 42, 0
8, 80880, Note_on_c, 9, 42, 95
8, 81120, Note_on_c, 9, 42, 0
8, 81120, Note_on_c, 9, 42, 95
8, 81360, Note_on_c, 9, 42, 0
8, 81360, Note_on_c, 9, 42, 95
8, 81480, Note_on_c, 9, 42, 0
8, 81480, Note_on_c, 9, 36, 95
8, 81600, Note_on_c, 9, 36, 0
8, 81600, Note_on_c, 9, 38, 95
8, 81840, Note_on_c, 9, 38, 0
8, 81840, Note_on_c, 9, 42, 95
8, 82080, Note_on_c, 9, 42, 0
8, 82560, Note_on_c, 9, 42, 95
8, 82560, Note_on_c, 9, 36, 95
8, 82800, Note_on_c, 9, 36, 0
8, 82800, Note_on_c, 9, 42, 0
8, 82800, Note_on_c, 9, 42, 95
8, 83040, Note_on_c, 9, 42, 0
8, 83040, Note_on_c, 9, 42, 95
8, 83280, Note_on_c, 9, 42, 0
8, 83280, Note_on_c, 9, 42, 95
8, 83520, Note_on_c, 9, 42, 0
8, 83520, Note_on_c, 9, 38, 95
8, 83760, Note_on_c, 9, 38, 0
8, 83760, Note_on_c, 9, 42, 95
8, 84000, Note_on_c, 9, 42, 0
8, 84480, Note_on_c, 9, 42, 95
8, 84480, Note_on_c, 9, 36, 95
8, 84720, Note_on_c, 9, 36, 0
8, 84720, Note_on_c, 9, 42, 0
8, 84720, Note_on_c, 9, 42, 95
8, 84960, Note_on_c, 9, 42, 0
8, 84960, Note_on_c, 9, 42, 95
8, 85200, Note_on_c, 9, 42, 0
8, 85200, Note_on_c, 9, 42, 95
8, 85320, Note_on_c, 9, 42, 0
8, 85320, Note_on_c, 9, 36, 95
8, 85440, Note_on_c, 9, 36, 0
8, 85440, Note_on_c, 9, 38, 95
8, 85680, Note_on_c, 9, 38, 0
8, 85680, Note_on_c, 9, 42, 95
8, 85920, Note_on_c, 9, 42, 0
8, 86400, Note_on_c, 9, 42, 95
8, 86400, Note_on_c, 9, 36, 95
8, 86640, Note_on_c, 9, 36, 0
8, 86640, Note_on_c, 9, 42, 0
8, 86640, Note_on_c, 9, 42, 95
8, 86880, Note_on_c, 9, 42, 0
8, 86880, Note_on_c, 9, 42, 95
8, 87120, Note_on_c, 9, 42, 0
8, 87120, Note_on_c, 9, 42, 95
8, 87360, Note_on_c, 9, 42, 0
8, 87360, Note_on_c, 9, 38, 95
8, 87600, Note_on_c, 9, 38, 0
8, 87600, Note_on_c, 9, 42, 95
8, 87840, Note_on_c, 9, 42, 0
8, 88320, Note_on_c, 9, 42, 95
8, 88320, Note_on_c, 9, 36, 95
8, 88560, Note_on_c, 9, 36, 0
8, 88560, Note_on_c, 9, 42, 0
8, 88560, Note_on_c, 9, 42, 95
8, 88800, Note_on_c, 9, 42, 0
8, 88800, Note_on_c, 9, 42, 95
8, 89040, Note_on_c, 9, 42, 0
8, 89040, Note_on_c, 9, 42, 95
8, 89280, Note_on_c, 9, 42, 0
8, 89280, Note_on_c, 9, 38, 95
8, 89520, Note_on_c, 9, 38, 0
8, 89520, Note_on_c, 9, 42, 95
8, 89760, Note_on_c, 9, 42, 0
8, 90240, Note_on_c, 9, 36, 95
8, 90480, Note_on_c, 9, 36, 0
8, 90480, Note_on_c, 9, 42, 95
8, 90720, Note_on_c, 9, 42, 0
8, 90720, Note_on_c, 9, 42, 95
8, 90960, Note_on_c, 9, 42, 0
8, 90960, Note_on_c, 9, 42, 95
8, 91200, Note_on_c, 9, 42, 0
8, 91200, Note_on_c, 9, 38, 95
8, 91440, Note_on_c, 9, 38, 0
8, 91440, Note_on_c, 9, 42, 95
8, 91680, Note_on_c, 9, 42, 0
8, 92160, Note_on_c, 9, 36, 95
8, 92400, Note_on_c, 9, 36, 0
8, 92400, Note_on_c, 9, 42, 95
8, 92640, Note_on_c, 9, 42, 0
8, 92640, Note_on_c, 9, 42, 95
8, 92880, Note_on_c, 9, 42, 0
8, 92880, Note_on_c, 9, 42, 95
8, 93120, Note_on_c, 9, 42, 0
8, 93120, Note_on_c, 9, 38, 95
8, 93360, Note_on_c, 9, 38, 0
8, 93360, Note_on_c, 9, 42, 95
8, 93600, Note_on_c, 9, 42, 0
8, 94080, Note_on_c, 9, 42, 95
8, 94080, Note_on_c, 9, 36, 95
8, 94320, Note_on_c, 9, 36, 0
8, 94320, Note_on_c, 9, 42, 0
8, 94320, Note_on_c, 9, 42, 95
8, 94560, Note_on_c, 9, 42, 0
8, 94560, Note_on_c, 9, 42, 95
8, 94800, Note_on_c, 9, 42, 0
8, 94800, Note_on_c, 9, 42, 95
8, 95040, Note_on_c, 9, 42, 0
8, 95040, Note_on_c, 9, 38, 95
8, 95280, Note_on_c, 9, 38, 0
8, 95280, Note_on_c, 9, 42, 95
8, 95520, Note_on_c, 9, 42, 0
8, 96000, Note_on_c, 9, 42, 95
8, 96000, Note_on_c, 9, 36, 95
8, 96240, Note_on_c, 9, 36, 0
8, 96240, Note_on_c, 9, 42, 0
8, 96240, Note_on_c, 9, 42, 95
8, 96480, Note_on_c, 9, 42, 0
8, 96480, Note_on_c, 9, 42, 95
8, 96720, Note_on_c, 9, 42, 0
8, 96720, Note_on_c, 9, 42, 95
8, 96840, Note_on_c, 9, 42, 0
8, 96840, Note_on_c, 9, 36, 95
8, 96960, Note_on_c, 9, 36, 0
8, 96960, Note_on_c, 9, 38, 95
8, 97200, Note_on_c, 9, 38, 0
8, 97200, Note_on_c, 9, 42, 95
8, 97440, Note_on_c, 9, 42, 0
8, 97920, Note_on_c, 9, 42, 95
8, 97920, Note_on_c, 9, 36, 95
8, 98160, Note_on_c, 9, 36, 0
8, 98160, Note_on_c, 9, 42, 0
8, 98160, Note_on_c, 9, 42, 95
8, 98400, Note_on_c, 9, 42, 0
8, 98400, Note_on_c, 9, 42, 95
8, 98640, Note_on_c, 9, 42, 0
8, 98640, Note_on_c, 9, 42, 95
8, 98880, Note_on_c, 9, 42, 0
8, 98880, Note_on_c, 9, 38, 95
8, 99120, Note_on_c, 9, 38, 0
8, 99120, Note_on_c, 9, 42, 95
8, 99360, Note_on_c, 9, 42, 0
8, 99840, Note_on_c, 9, 42, 95
8, 99840, Note_on_c, 9, 36, 95
8, 100080, Note_on_c, 9, 36, 0
8, 100080, Note_on_c, 9, 42, 0
8, 100080, Note_on_c, 9, 42, 95
8, 100320, Note_on_c, 9, 42, 0
8, 100320, Note_on_c, 9, 42, 95
8, 100560, Note_on_c, 9, 42, 0
8, 100560, Note_on_c, 9, 42, 95
8, 100680, Note_on_c, 9, 42, 0
8, 100680, Note_on_c, 9, 36, 95
8, 100800, Note_on_c, 9, 36, 0
8, 100800, Note_on_c, 9, 38, 95
8, 101040, Note_on_c, 9, 38, 0
8, 101040, Note_on_c, 9, 42, 95
8, 101280, Note_on_c, 9, 42, 0
8, 101760, Note_on_c, 9, 42, 95
8, 101760, Note_on_c, 9, 36, 95
8, 102000, Note_on_c, 9, 36, 0
8, 102000, Note_on_c, 9, 42, 0
8, 102720, Note_on_c, 9, 42, 95
8, 102720, Note_on_c, 9, 38, 95
8, 102960, Note_on_c, 9, 38, 0
8, 102960, Note_on_c, 9, 42, 0
8, 103200, Note_on_c, 9, 42, 95
8, 103360, Note_on_c, 9, 42, 0
8, 103360, Note_on_c, 9, 42, 95
8, 103520, Note_on_c, 9, 42, 0
8, 103520, Note_on_c, 9, 42, 95
8, 103680, Note_on_c, 9, 42, 0
8, 103680, Note_on_c, 9, 42, 95
8, 103680, Note_on_c, 9, 36, 95
8, 103920, Note_on_c, 9, 36, 0
8, 103920, Note_on_c, 9, 42, 0
8, 103920, Note_on_c, 9, 42, 95
8, 104160, Note_on_c, 9, 42, 0
8, 104160, Note_on_c, 9, 42, 95
8, 104400, Note_on_c, 9, 42, 0
8, 104400, Note_on_c, 9, 42, 95
8, 104640, Note_on_c, 9, 42, 0
8, 104640, Note_on_c, 9, 38, 95
8, 104880, Note_on_c, 9, 38, 0
8, 104880, Note_on_c, 9, 42, 95
8, 105120, Note_on_c, 9, 42, 0
8, 105600, Note_on_c, 9, 36, 95
8, 105840, Note_on_c, 9, 36, 0
8, 105840, Note_on_c, 9, 42, 95
8, 106080, Note_on_c, 9, 42, 0
8, 106080, Note_on_c, 9, 42, 95
8, 106320, Note_on_c, 9, 42, 0
8, 106320, Note_on_c, 9, 42, 95
8, 106560, Note_on_c, 9, 42, 0
8, 106560, Note_on_c, 9, 38, 95
8, 106800, Note_on_c, 9, 38, 0
8, 106800, Note_on_c, 9, 42, 95
8, 107040, Note_on_c, 9, 42, 0
8, 107520, Note_on_c, 9, 36, 95
8, 107760, Note_on_c, 9, 36, 0
8, 107760, Note_on_c, 9, 42, 95
8, 108000, Note_on_c, 9, 42, 0
8, 108000, Note_on_c, 9, 42, 95
8, 108240, Note_on_c, 9, 42, 0
8, 108240, Note_on_c, 9, 42, 95
8, 108480, Note_on_c, 9, 42, 0
8, 108480, Note_on_c, 9, 38, 95
8, 108720, Note_on_c, 9, 38, 0
8, 108720, Note_on_c, 9, 42, 95
8, 108960, Note_on_c, 9, 42, 0
8, 109440, Note_on_c, 9, 36, 95
8, 109680, Note_on_c, 9, 36, 0
8, 109680, Note_on_c, 9, 42, 95
8, 109920, Note_on_c, 9, 42, 0
8, 109920, Note_on_c, 9, 42, 95
8, 110160, Note_on_c, 9, 42, 0
8, 110160, Note_on_c, 9, 42, 95
8, 110160, Note_on_c, 9, 36, 95
8, 110400, Note_on_c, 9, 36, 0
8, 110400, Note_on_c, 9, 42, 0
8, 110400, Note_on_c, 9, 38, 95
8, 110640, Note_on_c, 9, 38, 0
8, 110640, Note_on_c, 9, 42, 95
8, 110880, Note_on_c, 9, 42, 0
8, 111360, Note_on_c, 9, 36, 95
8, 111600, Note_on_c, 9, 36, 0
8, 111600, Note_on_c, 9, 42, 95
8, 111720, Note_on_c, 9, 42, 0
8, 111720, Note_on_c, 9, 36, 95
8, 111840, Note_on_c, 9, 36, 0
8, 111840, Note_on_c, 9, 38, 95
8, 112080, Note_on_c, 9, 38, 0
8, 112080, Note_on_c, 9, 42, 95
8, 112080, Note_on_c, 9, 36, 95
8, 112320, Note_on_c, 9, 36, 0
8, 112320, Note_on_c, 9, 42, 0
8, 112320, Note_on_c, 9, 38, 95
8, 112560, Note_on_c, 9, 38, 0
8, 112560, Note_on_c, 9, 42, 95
8, 112560, Note_on_c, 9, 36, 95
8, 112800, Note_on_c, 9, 36, 0
8, 112800, Note_on_c, 9, 42, 0
8, 112800, Note_on_c, 9, 38, 95
8, 113040, Note_on_c, 9, 38, 0
8, 113040, Note_on_c, 9, 42, 95
8, 113040, Note_on_c, 9, 36, 95
8, 113280, Note_on_c, 9, 36, 0
8, 113280, Note_on_c, 9, 42, 0
8, 113280, Note_on_c, 9, 36, 95
8, 113520, Note_on_c, 9, 36, 0
8, 113520, Note_on_c, 9, 42, 95
8, 113760, Note_on_c, 9, 42, 0
8, 113760, Note_on_c, 9, 42, 95
8, 114000, Note_on_c, 9, 42, 0
8, 114000, Note_on_c, 9, 42, 95
8, 114240, Note_on_c, 9, 42, 0
8, 114240, Note_on_c, 9, 38, 95
8, 114480, Note_on_c, 9, 38, 0
8, 114480, Note_on_c, 9, 42, 95
8, 114720, Note_on_c, 9, 42, 0
8, 115200, Note_on_c, 9, 36, 95
8, 115440, Note_on_c, 9, 36, 0
8, 115440, Note_on_c, 9, 42, 95
8, 115680, Note_on_c, 9, 42, 0
8, 115680, Note_on_c, 9, 42, 95
8, 115920, Note_on_c, 9, 42, 0
8, 115920, Note_on_c, 9, 42, 95
8, 116160, Note_on_c, 9, 42, 0
8, 116160, Note_on_c, 9, 38, 95
8, 116400, Note_on_c, 9, 38, 0
8, 116400, Note_on_c, 9, 42, 95
8, 116640, Note_on_c, 9, 42, 0
8, 117120, Note_on_c, 9, 36, 95
8, 117360, Note_on_c, 9, 36, 0
8, 117360, Note_on_c, 9, 42, 95
8, 117600, Note_on_c, 9, 42, 0
8, 117600, Note_on_c, 9, 42, 95
8, 117840, Note_on_c, 9, 42, 0
8, 117840, Note_on_c, 9, 42, 95
8, 117840, Note_on_c, 9, 36, 95
8, 118080, Note_on_c, 9, 36, 0
8, 118080, Note_on_c, 9, 42, 0
8, 118080, Note_on_c, 9, 38, 95
8, 118320, Note_on_c, 9, 38, 0
8, 118320, Note_on_c, 9, 42, 95
8, 118560, Note_on_c, 9, 42, 0
8, 119040, Note_on_c, 9, 36, 95
8, 119280, Note_on_c, 9, 36, 0
8, 119280, Note_on_c, 9, 42, 95
8, 119400, Note_on_c, 9, 42, 0
8, 119400, Note_on_c, 9, 36, 95
8, 119520, Note_on_c, 9, 36, 0
8, 119520, Note_on_c, 9, 38, 95
8, 119760, Note_on_c, 9, 38, 0
8, 119760, Note_on_c, 9, 42, 95
8, 119760, Note_on_c, 9, 36, 95
8, 120000, Note_on_c, 9, 36, 0
8, 120000, Note_on_c, 9, 42, 0
8, 120000, Note_on_c, 9, 38, 95
8, 120240, Note_on_c, 9, 38, 0
8, 120240, Note_on_c, 9, 42, 95
8, 120240, Note_on_c, 9, 36, 95
8, 120480, Note_on_c, 9, 36, 0
8, 120480, Note_on_c, 9, 42, 0
8, 120480, Note_on_c, 9, 38, 95
8, 120720, Note_on_c, 9, 38, 0
8, 120720, Note_on_c, 9, 42, 95
8, 120720, Note_on_c, 9, 36, 95
8, 120960, Note_on_c, 9, 36, 0
8, 120960, Note_on_c, 9, 42, 0
8, 120960, Note_on_c, 9, 42, 95
8, 120960, Note_on_c, 9, 36, 95
8, 122880, Note_on_c, 9, 36, 0
8, 122880, Note_on_c, 9, 42, 0
8, 133440, Note_on_c, 9, 36, 95
8, 133560, Note_on_c, 9, 36, 0
8, 133560, Note_on_c, 9, 36, 95
8, 133680, Note_on_c, 9, 36, 0
8, 133680, Note_on_c, 9, 36, 95
8, 133800, Note_on_c, 9, 36, 0
8, 133800, Note_on_c, 9, 36, 95
8, 133920, Note_on_c, 9, 36, 0
8, 133920, Note_on_c, 9, 36, 95
8, 134040, Note_on_c, 9, 36, 0
8, 134040, Note_on_c, 9, 36, 95
8, 134160, Note_on_c, 9, 36, 0
8, 134160, Note_on_c, 9, 36, 95
8, 134280, Note_on_c, 9, 36, 0
8, 134280, Note_on_c, 9, 36, 95
8, 134400, Note_on_c, 9, 36, 0
8, 134400, Note_on_c, 9, 36, 95
8, 136320, Note_on_c, 9, 36, 0
8, 136320, Note_on_c, 9, 42, 95
8, 136320, Note_on_c, 9, 36, 95
8, 136560, Note_on_c, 9, 36, 0
8, 136560, Note_on_c, 9, 42, 0
8, 136560, Note_on_c, 9, 42, 95
8, 136800, Note_on_c, 9, 42, 0
8, 136800, Note_on_c, 9, 42, 95
8, 137040, Note_on_c, 9, 42, 0
8, 137040, Note_on_c, 9, 42, 95
8, 137280, Note_on_c, 9, 42, 0
8, 137280, Note_on_c, 9, 38, 95
8, 137520, Note_on_c, 9, 38, 0
8, 137520, Note_on_c, 9, 42, 95
8, 137760, Note_on_c, 9, 42, 0
8, 138240, Note_on_c, 9, 42, 95
8, 138240, Note_on_c, 9, 36, 95
8, 138480, Note_on_c, 9, 36, 0
8, 138480, Note_on_c, 9, 42, 0
8, 138480, Note_on_c, 9, 42, 95
8, 138720, Note_on_c, 9, 42, 0
8, 138720, Note_on_c, 9, 42, 95
8, 138960, Note_on_c, 9, 42, 0
8, 138960, Note_on_c, 9, 42, 95
8, 139080, Note_on_c, 9, 42, 0
8, 139080, Note_on_c, 9, 36, 95
8, 139200, Note_on_c, 9, 36, 0
8, 139200, Note_on_c, 9, 38, 95
8, 139440, Note_on_c, 9, 38, 0
8, 139440, Note_on_c, 9, 42, 95
8, 139680, Note_on_c, 9, 42, 0
8, 140160, Note_on_c, 9, 42, 95
8, 140160, Note_on_c, 9, 36, 95
8, 140400, Note_on_c, 9, 36, 0
8, 140400, Note_on_c, 9, 42, 0
8, 140400, Note_on_c, 9, 42, 95
8, 140640, Note_on_c, 9, 42, 0
8, 140640, Note_on_c, 9, 42, 95
8, 140880, Note_on_c, 9, 42, 0
8, 140880, Note_on_c, 9, 42, 95
8, 141120, Note_on_c, 9, 42, 0
8, 141120, Note_on_c, 9, 38, 95
8, 141360, Note_on_c, 9, 38, 0
8, 141360, Note_on_c, 9, 42, 95
8, 141600, Note_on_c, 9, 42, 0
8, 142080, Note_on_c, 9, 42, 95
8, 142080, Note_on_c, 9, 36, 95
8, 142320, Note_on_c, 9, 36, 0
8, 142320, Note_on_c, 9, 42, 0
8, 142320, Note_on_c, 9, 42, 95
8, 142560, Note_on_c, 9, 42, 0
8, 142560, Note_on_c, 9, 42, 95
8, 142800, Note_on_c, 9, 42, 0
8, 142800, Note_on_c, 9, 42, 95
8, 142920, Note_on_c, 9, 42, 0
8, 142920, Note_on_c, 9, 36, 95
8, 143040, Note_on_c, 9, 36, 0
8, 143040, Note_on_c, 9, 38, 95
8, 143280, Note_on_c, 9, 38, 0
8, 143280, Note_on_c, 9, 42, 95
8, 143520, Note_on_c, 9, 42, 0
8, 144000, Note_on_c, 9, 42, 95
8, 144000, Note_on_c, 9, 36, 95
8, 144240, Note_on_c, 9, 36, 0
8, 144240, Note_on_c, 9, 42, 0
8, 144240, Note_on_c, 9, 42, 95
8, 144480, Note_on_c, 9, 42, 0
8, 144480, Note_on_c, 9, 42, 95
8, 144720, Note_on_c, 9, 42, 0
8, 144720, Note_on_c, 9, 42, 95
8, 144960, Note_on_c, 9, 42, 0
8, 144960, Note_on_c, 9, 38, 95
8, 145200, Note_on_c, 9, 38, 0
8, 145200, Note_on_c, 9, 42, 95
8, 145440, Note_on_c, 9, 42, 0
8, 145920, Note_on_c, 9, 42, 95
8, 145920, Note_on_c, 9, 36, 95
8, 146160, Note_on_c, 9, 36, 0
8, 146160, Note_on_c, 9, 42, 0
8, 146160, Note_on_c, 9, 42, 95
8, 146400, Note_on_c, 9, 42, 0
8, 146400, Note_on_c, 9, 42, 95
8, 146640, Note_on_c, 9, 42, 0
8, 146640, Note_on_c, 9, 42, 95
8, 146880, Note_on_c, 9, 42, 0
8, 146880, Note_on_c, 9, 38, 95
8, 147120, Note_on_c, 9, 38, 0
8, 147120, Note_on_c, 9, 42, 95
8, 147360, Note_on_c, 9, 42, 0
8, 147840, Note_on_c, 9, 36, 95
8, 148080, Note_on_c, 9, 36, 0
8, 148080, Note_on_c, 9, 42, 95
8, 148320, Note_on_c, 9, 42, 0
8, 148320, Note_on_c, 9, 42, 95
8, 148560, Note_on_c, 9, 42, 0
8, 148560, Note_on_c, 9, 42, 95
8, 148800, Note_on_c, 9, 42, 0
8, 148800, Note_on_c, 9, 38, 95
8, 149040, Note_on_c, 9, 38, 0
8, 149040, Note_on_c, 9, 42, 95
8, 149280, Note_on_c, 9, 42, 0
8, 149760, Note_on_c, 9, 36, 95
8, 150000, Note_on_c, 9, 36, 0
8, 150000, Note_on_c, 9, 42, 95
8, 150240, Note_on_c, 9, 42, 0
8, 150240, Note_on_c, 9, 42, 95
8, 150480, Note_on_c, 9, 42, 0
8, 150480, Note_on_c, 9, 42, 95
8, 150720, Note_on_c, 9, 42, 0
8, 150720, Note_on_c, 9, 38, 95
8, 150960, Note_on_c, 9, 38, 0
8, 150960, Note_on_c, 9, 42, 95
8, 151200, Note_on_c, 9, 42, 0
8, 151680, Note_on_c, 9, 42, 95
8, 151680, Note_on_c, 9, 36, 95
8, 151920, Note_on_c, 9, 36, 0
8, 151920, Note_on_c, 9, 42, 0
8, 151920, Note_on_c, 9, 42, 95
8, 152160, Note_on_c, 9, 42, 0
8, 152160, Note_on_c, 9, 42, 95
8, 152400, Note_on_c, 9, 42, 0
8, 152400, Note_on_c, 9, 42, 95
8, 152640, Note_on_c, 9, 42, 0
8, 152640, Note_on_c, 9, 38, 95
8, 152880, Note_on_c, 9, 38, 0
8, 152880, Note_on_c, 9, 42, 95
8, 153120, Note_on_c, 9, 42, 0
8, 153600, Note_on_c, 9, 42, 95
8, 153600, Note_on_c, 9, 36, 95
8, 153840, Note_on_c, 9, 36, 0
8, 153840, Note_on_c, 9, 42, 0
8, 153840, Note_on_c, 9, 42, 95
8, 154080, Note_on_c, 9, 42, 0
8, 154080, Note_on_c, 9, 42, 95
8, 154320, Note_on_c, 9, 42, 0
8, 154320, Note_on_c, 9, 42, 95
8, 154440, Note_on_c, 9, 42, 0
8, 154440, Note_on_c, 9, 36, 95
8, 154560, Note_on_c, 9, 36, 0
8, 154560, Note_on_c, 9, 38, 95
8, 154800, Note_on_c, 9, 38, 0
8, 154800, Note_on_c, 9, 42, 95
8, 155040, Note_on_c, 9, 42, 0
8, 155520, Note_on_c, 9, 42, 95
8, 155520, Note_on_c, 9, 36, 95
8, 155760, Note_on_c, 9, 36, 0
8, 155760, Note_on_c, 9, 42, 0
8, 155760, Note_on_c, 9, 42, 95
8, 156000, Note_on_c, 9, 42, 0
8, 156000, Note_on_c, 9, 42, 95
8, 156240, Note_on_c, 9, 42, 0
8, 156240, Note_on_c, 9, 42, 95
8, 156480, Note_on_c, 9, 42, 0
8, 156480, Note_on_c, 9, 38, 95
8, 156720, Note_on_c, 9, 38, 0
8, 156720, Note_on_c, 9, 42, 95
8, 156960, Note_on_c, 9, 42, 0
8, 157440, Note_on_c, 9, 42, 95
8, 157440, Note_on_c, 9, 36, 95
8, 157680, Note_on_c, 9, 36, 0
8, 157680, Note_on_c, 9, 42, 0
8, 157680, Note_on_c, 9, 42, 95
8, 157920, Note_on_c, 9, 42, 0
8, 157920, Note_on_c, 9, 42, 95
8, 158160, Note_on_c, 9, 42, 0
8, 158160, Note_on_c, 9, 42, 95
8, 158280, Note_on_c, 9, 42, 0
8, 158280, Note_on_c, 9, 36, 95
8, 158400, Note_on_c, 9, 36, 0
8, 158400, Note_on_c, 9, 38, 95
8, 158640, Note_on_c, 9, 38, 0
8, 158640, Note_on_c, 9, 42, 95
8, 158880, Note_on_c, 9, 42, 0
8, 159360, Note_on_c, 9, 42, 95
8, 159360, Note_on_c, 9, 36, 95
8, 159600, Note_on_c, 9, 36, 0
8, 159600, Note_on_c, 9, 42, 0
8, 160320, Note_on_c, 9, 42, 95
8, 160320, Note_on_c, 9, 38, 95
8, 160560, Note_on_c, 9, 38, 0
8, 160560, Note_on_c, 9, 42, 0
8, 160800, Note_on_c, 9, 42, 95
8, 160960, Note_on_c, 9, 42, 0
8, 160960, Note_on_c, 9, 42, 95
8, 161120, Note_on_c, 9, 42, 0
8, 161120, Note_on_c, 9, 42, 95
8, 161280, Note_on_c, 9, 42, 0
8, 161280, Note_on_c, 9, 42, 95
8, 161280, Note_on_c, 9, 36, 95
8, 161520, Note_on_c, 9, 36, 0
8, 161520, Note_on_c, 9, 42, 0
8, 161520, Note_on_c, 9, 42, 95
8, 161760, Note_on_c, 9, 42, 0
8, 161760, Note_on_c, 9, 42, 95
8, 162000, Note_on_c, 9, 42, 0
8, 162000, Note_on_c, 9, 42, 95
8, 162240, Note_on_c, 9, 42, 0
8, 162240, Note_on_c, 9, 38, 95
8, 162480, Note_on_c, 9, 38, 0
8, 162480, Note_on_c, 9, 42, 95
8, 162720, Note_on_c, 9, 42, 0
8, 163200, Note_on_c, 9, 36, 95
8, 163440, Note_on_c, 9, 36, 0
8, 163440, Note_on_c, 9, 42, 95
8, 163680, Note_on_c, 9, 42, 0
8, 163680, Note_on_c, 9, 42, 95
8, 163920, Note_on_c, 9, 42, 0
8, 163920, Note_on_c, 9, 42, 95
8, 164160, Note_on_c, 9, 42, 0
8, 164160, Note_on_c, 9, 38, 95
8, 164400, Note_on_c, 9, 38, 0
8, 164400, Note_on_c, 9, 42, 95
8, 164640, Note_on_c, 9, 42, 0
8, 165120, Note_on_c, 9, 36, 95
8, 165360, Note_on_c, 9, 36, 0
8, 165360, Note_on_c, 9, 42, 95
8, 165600, Note_on_c, 9, 42, 0
8, 165600, Note_on_c, 9, 42, 95
8, 165840, Note_on_c, 9, 42, 0
8, 165840, Note_on_c, 9, 42, 95
8, 166080, Note_on_c, 9, 42, 0
8, 166080, Note_on_c, 9, 38, 95
8, 166320, Note_on_c, 9, 38, 0
8, 166320, Note_on_c, 9, 42, 95
8, 166560, Note_on_c, 9, 42, 0
8, 167040, Note_on_c, 9, 42, 95
8, 167040, Note_on_c, 9, 36, 95
8, 167280, Note_on_c, 9, 36, 0
8, 167280, Note_on_c, 9, 42, 0
8, 167280, Note_on_c, 9, 42, 95
8, 167520, Note_on_c, 9, 42, 0
8, 167520, Note_on_c, 9, 42, 95
8, 167760, Note_on_c, 9, 42, 0
8, 167760, Note_on_c, 9, 42, 95
8, 168000, Note_on_c, 9, 42, 0
8, 168000, Note_on_c, 9, 38, 95
8, 168240, Note_on_c, 9, 38, 0
8, 168240, Note_on_c, 9, 42, 95
8, 168480, Note_on_c, 9, 42, 0
8, 168960, Note_on_c, 9, 42, 95
8, 168960, Note_on_c, 9, 36, 95
8, 169200, Note_on_c, 9, 36, 0
8, 169200, Note_on_c, 9, 42, 0
8, 169200, Note_on_c, 9, 42, 95
8, 169440, Note_on_c, 9, 42, 0
8, 169440, Note_on_c, 9, 42, 95
8, 169680, Note_on_c, 9, 42, 0
8, 169680, Note_on_c, 9, 42, 95
8, 169800, Note_on_c, 9, 42, 0
8, 169800, Note_on_c, 9, 36, 95
8, 169920, Note_on_c, 9, 36, 0
8, 169920, Note_on_c, 9, 38, 95
8, 170160, Note_on_c, 9, 38, 0
8, 170160, Note_on_c, 9, 42, 95
8, 170400, Note_on_c, 9, 42, 0
8, 170880, Note_on_c, 9, 42, 95
8, 170880, Note_on_c, 9, 36, 95
8, 171120, Note_on_c, 9, 36, 0
8, 171120, Note_on_c, 9, 42, 0
8, 171120, Note_on_c, 9, 42, 95
8, 171360, Note_on_c, 9, 42, 0
8, 171360, Note_on_c, 9, 42, 95
8, 171600, Note_on_c, 9, 42, 0
8, 171600, Note_on_c, 9, 42, 95
8, 171840, Note_on_c, 9, 42, 0
8, 171840, Note_on_c, 9, 38, 95
8, 172080, Note_on_c, 9, 38, 0
8, 172080, Note_on_c, 9, 42, 95
8, 172320, Note_on_c, 9, 42, 0
8, 172800, Note_on_c, 9, 42, 95
8, 172800, Note_on_c, 9, 36, 95
8, 173040, Note_on_c, 9, 36, 0
8, 173040, Note_on_c, 9, 42, 0
8, 173040, Note_on_c, 9, 42, 95
8, 173280, Note_on_c, 9, 42, 0
8, 173280, Note_on_c, 9, 42, 95
8, 173520, Note_on_c, 9, 42, 0
8, 173520, Note_on_c, 9, 42, 95
8, 173640, Note_on_c, 9, 42, 0
8, 173640, Note_on_c, 9, 36, 95
8, 173760, Note_on_c, 9, 36, 0
8, 173760, Note_on_c, 9, 38, 95
8, 174000, Note_on_c, 9, 38, 0
8, 174000, Note_on_c, 9, 42, 95
8, 174240, Note_on_c, 9, 42, 0
8, 174720, Note_on_c, 9, 42, 95
8, 174720, Note_on_c, 9, 36, 95
8, 174960, Note_on_c, 9, 36, 0
8, 174960, Note_on_c, 9, 42, 0
8, 174960, Note_on_c, 9, 42, 95
8, 175200, Note_on_c, 9, 42, 0
8, 175200, Note_on_c, 9, 42, 95
8, 175440, Note_on_c, 9, 42, 0
8, 175440, Note_on_c, 9, 42, 95
8, 175680, Note_on_c, 9, 42, 0
8, 175680, Note_on_c, 9, 38, 95
8, 175920, Note_on_c, 9, 38, 0
8, 175920, Note_on_c, 9, 42, 95
8, 176160, Note_on_c, 9, 42, 0
8, 176640, Note_on_c, 9, 42, 95
8, 176640, Note_on_c, 9, 36, 95
8, 176880, Note_on_c, 9, 36, 0
8, 176880, Note_on_c, 9, 42, 0
8, 176880, Note_on_c, 9, 42, 95
8, 177120, Note_on_c, 9, 42, 0
8, 177120, Note_on_c, 9, 42, 95
8, 177360, Note_on_c, 9, 42, 0
8, 177360, Note_on_c, 9, 42, 95
8, 177600, Note_on_c, 9, 42, 0
8, 177600, Note_on_c, 9, 38, 95
8, 177840, Note_on_c, 9, 38, 0
8, 177840, Note_on_c, 9, 42, 95
8, 178080, Note_on_c, 9, 42, 0
8, 178560, Note_on_c, 9, 36, 95
8, 178800, Note_on_c, 9, 36, 0
8, 178800, Note_on_c, 9, 42, 95
8, 179040, Note_on_c, 9, 42, 0
8, 179040, Note_on_c, 9, 42, 95
8, 179280, Note_on_c, 9, 42, 0
8, 179280, Note_on_c, 9, 42, 95
8, 179520, Note_on_c, 9, 42, 0
8, 179520, Note_on_c, 9, 38, 95
8, 179760, Note_on_c, 9, 38, 0
8, 179760, Note_on_c, 9, 42, 95
8, 180000, Note_on_c, 9, 42, 0
8, 180480, Note_on_c, 9, 36, 95
8, 180720, Note_on_c, 9, 36, 0
8, 180720, Note_on_c, 9, 42, 95
8, 180960, Note_on_c, 9, 42, 0
8, 180960, Note_on_c, 9, 42, 95
8, 181200, Note_on_c, 9, 42, 0
8, 181200, Note_on_c, 9, 42, 95
8, 181440, Note_on_c, 9, 42, 0
8, 181440, Note_on_c, 9, 38, 95
8, 181680, Note_on_c, 9, 38, 0
8, 181680, Note_on_c, 9, 42, 95
8, 181920, Note_on_c, 9, 42, 0
8, 182400, Note_on_c, 9, 42, 95
8, 182400, Note_on_c, 9, 36, 95
8, 182640, Note_on_c, 9, 36, 0
8, 182640, Note_on_c, 9, 42, 0
8, 182640, Note_on_c, 9, 42, 95
8, 182880, Note_on_c, 9, 42, 0
8, 182880, Note_on_c, 9, 42, 95
8, 183120, Note_on_c, 9, 42, 0
8, 183120, Note_on_c, 9, 42, 95
8, 183360, Note_on_c, 9, 42, 0
8, 183360, Note_on_c, 9, 38, 95
8, 183600, Note_on_c, 9, 38, 0
8, 183600, Note_on_c, 9, 42, 95
8, 183840, Note_on_c, 9, 42, 0
8, 184320, Note_on_c, 9, 42, 95
8, 184320, Note_on_c, 9, 36, 95
8, 184560, Note_on_c, 9, 36, 0
8, 184560, Note_on_c, 9, 42, 0
8, 184560, Note_on_c, 9, 42, 95
8, 184800, Note_on_c, 9, 42, 0
8, 184800, Note_on_c, 9, 42, 95
8, 185040, Note_on_c, 9, 42, 0
8, 185040, Note_on_c, 9, 42, 95
8, 185160, Note_on_c, 9, 42, 0
8, 185160, Note_on_c, 9, 36, 95
8, 185280, Note_on_c, 9, 36, 0
8, 185280, Note_on_c, 9, 38, 95
8, 185520, Note_on_c, 9, 38, 0
8, 185520, Note_on_c, 9, 42, 95
8, 185760, Note_on_c, 9, 42, 0
8, 186240, Note_on_c, 9, 42, 95
8, 186240, Note_on_c, 9, 36, 95
8, 186480, Note_on_c, 9, 36, 0
8, 186480, Note_on_c, 9, 42, 0
8, 186480, Note_on_c, 9, 42, 95
8, 186720, Note_on_c, 9, 42, 0
8, 186720, Note_on_c, 9, 42, 95
8, 186960, Note_on_c, 9, 42, 0
8, 186960, Note_on_c, 9, 42, 95
8, 187200, Note_on_c, 9, 42, 0
8, 187200, Note_on_c, 9, 38, 95
8, 187440, Note_on_c, 9, 38, 0
8, 187440, Note_on_c, 9, 42, 95
8, 187680, Note_on_c, 9, 42, 0
8, 188160, Note_on_c, 9, 42, 95
8, 188160, Note_on_c, 9, 36, 95
8, 188400, Note_on_c, 9, 36, 0
8, 188400, Note_on_c, 9, 42, 0
8, 188400, Note_on_c, 9, 42, 95
8, 188640, Note_on_c, 9, 42, 0
8, 188640, Note_on_c, 9, 42, 95
8, 188880, Note_on_c, 9, 42, 0
8, 188880, Note_on_c, 9, 42, 95
8, 189000, Note_on_c, 9, 42, 0
8, 189000, Note_on_c, 9, 36, 95
8, 189120, Note_on_c, 9, 36, 0
8, 189120, Note_on_c, 9, 38, 95
8, 189360, Note_on_c, 9, 38, 0
8, 189360, Note_on_c, 9, 42, 95
8, 189600, Note_on_c, 9, 42, 0
8, 190080, Note_on_c, 9, 42, 95
8, 190080, Note_on_c, 9, 36, 95
8, 190320, Note_on_c, 9, 36, 0
8, 190320, Note_on_c, 9, 42, 0
8, 191040, Note_on_c, 9, 42, 95
8, 191040, Note_on_c, 9, 38, 95
8, 191280, Note_on_c, 9, 38, 0
8, 191280, Note_on_c, 9, 42, 0
8, 191520, Note_on_c, 9, 42, 95
8, 191680, Note_on_c, 9, 42, 0
8, 191680, Note_on_c, 9, 42, 95
8, 191840, Note_on_c, 9, 42, 0
8, 191840, Note_on_c, 9, 42, 95
8, 192000, Note_on_c, 9, 42, 0
8, 192000, Note_on_c, 9, 42, 95
8, 192000, Note_on_c, 9, 36, 95
8, 192240, Note_on_c, 9, 36, 0
8, 192240, Note_on_c, 9, 42, 0
8, 192240, Note_on_c, 9, 42, 95
8, 192480, Note_on_c, 9, 42, 0
8, 192480, Note_on_c, 9, 42, 95
8, 192720, Note_on_c, 9, 42, 0
8, 192720, Note_on_c, 9, 42, 95
8, 192960, Note_on_c, 9, 42, 0
8, 192960, Note_on_c, 9, 38, 95
8, 193200, Note_on_c, 9, 38, 0
8, 193200, Note_on_c, 9, 42, 95
8, 193440, Note_on_c, 9, 42, 0
8, 193920, Note_on_c, 9, 36, 95
8, 194160, Note_on_c, 9, 36, 0
8, 194160, Note_on_c, 9, 42, 95
8, 194400, Note_on_c, 9, 42, 0
8, 194400, Note_on_c, 9, 42, 95
8, 194640, Note_on_c, 9, 42, 0
8, 194640, Note_on_c, 9, 42, 95
8, 194880, Note_on_c, 9, 42, 0
8, 194880, Note_on_c, 9, 38, 95
8, 195120, Note_on_c, 9, 38, 0
8, 195120, Note_on_c, 9, 42, 95
8, 195360, Note_on_c, 9, 42, 0
8, 195840, Note_on_c, 9, 36, 95
8, 196080, Note_on_c, 9, 36, 0
8, 196080, Note_on_c, 9, 42, 95
8, 196320, Note_on_c, 9, 42, 0
8, 196320, Note_on_c, 9, 42, 95
8, 196560, Note_on_c, 9, 42, 0
8, 196560, Note_on_c, 9, 42, 95
8, 196800, Note_on_c, 9, 42, 0
8, 196800, Note_on_c, 9, 38, 95
8, 197040, Note_on_c, 9, 38, 0
8, 197040, Note_on_c, 9, 42, 95
8, 197280, Note_on_c, 9, 42, 0
8, 197760, Note_on_c, 9, 36, 95
8, 198000, Note_on_c, 9, 36, 0
8, 198000, Note_on_c, 9, 42, 95
8, 198240, Note_on_c, 9, 42, 0
8, 198240, Note_on_c, 9, 42, 95
8, 198480, Note_on_c, 9, 42, 0
8, 198480, Note_on_c, 9, 42, 95
8, 198480, Note_on_c, 9, 36, 95
8, 198720, Note_on_c, 9, 36, 0
8, 198720, Note_on_c, 9, 42, 0
8, 198720, Note_on_c, 9, 38, 95
8, 198960, Note_on_c, 9, 38, 0
8, 198960, Note_on_c, 9, 42, 95
8, 199200, Note_on_c, 9, 42, 0
8, 199680, Note_on_c, 9, 36, 95
8, 199920, Note_on_c, 9, 36, 0
8, 199920, Note_on_c, 9, 42, 95
8, 200040, Note_on_c, 9, 42, 0
8, 200040, Note_on_c, 9, 36, 95
8, 200160, Note_on_c, 9, 36, 0
8, 200160, Note_on_c, 9, 38, 95
8, 200400, Note_on_c, 9, 38, 0
8, 200400, Note_on_c, 9, 42, 95
8, 200400, Note_on_c, 9, 36, 95
8, 200640, Note_on_c, 9, 36, 0
8, 200640, Note_on_c, 9, 42, 0
8, 200640, Note_on_c, 9, 38, 95
8, 200880, Note_on_c, 9, 38, 0
8, 200880, Note_on_c, 9, 42, 95
8, 200880, Note_on_c, 9, 36, 95
8, 201120, Note_on_c, 9, 36, 0
8, 201120, Note_on_c, 9, 42, 0
8, 201120, Note_on_c, 9, 38, 95
8, 201360, Note_on_c, 9, 38, 0
8, 201360, Note_on_c, 9, 42, 95
8, 201360, Note_on_c, 9, 36, 95
8, 201600, Note_on_c, 9, 36, 0
8, 201600, Note_on_c, 9, 42, 0
8, 201600, Note_on_c, 9, 36, 95
8, 201840, Note_on_c, 9, 36, 0
8, 201840, Note_on_c, 9, 42, 95
8, 202080, Note_on_c, 9, 42, 0
8, 202080, Note_on_c, 9, 42, 95
8, 202320, Note_on_c, 9, 42, 0
8, 202320, Note_on_c, 9, 42, 95
8, 202560, Note_on_c, 9, 42, 0
8, 202560, Note_on_c, 9, 38, 95
8, 202800, Note_on_c, 9, 38, 0
8, 202800, Note_on_c, 9, 42, 95
8, 203040, Note_on_c, 9, 42, 0
8, 203520, Note_on_c, 9, 36, 95
8, 203760, Note_on_c, 9, 36, 0
8, 203760, Note_on_c, 9, 42, 95
8, 204000, Note_on_c, 9, 42, 0
8, 204000, Note_on_c, 9, 42, 95
8, 204240, Note_on_c, 9, 42, 0
8, 204240, Note_on_c, 9, 42, 95
8, 204480, Note_on_c, 9, 42, 0
8, 204480, Note_on_c, 9, 38, 95
8, 204720, Note_on_c, 9, 38, 0
8, 204720, Note_on_c, 9, 42, 95
8, 204960, Note_on_c, 9, 42, 0
8, 205440, Note_on_c, 9, 36, 95
8, 205680, Note_on_c, 9, 36, 0
8, 205680, Note_on_c, 9, 42, 95
8, 205920, Note_on_c, 9, 42, 0
8, 205920, Note_on_c, 9, 42, 95
8, 206160, Note_on_c, 9, 42, 0
8, 206160, Note_on_c, 9, 42, 95
8, 206160, Note_on_c, 9, 36, 95
8, 206400, Note_on_c, 9, 36, 0
8, 206400, Note_on_c, 9, 42, 0
8, 206400, Note_on_c, 9, 38, 95
8, 206640, Note_on_c, 9, 38, 0
8, 206640, Note_on_c, 9, 42, 95
8, 206880, Note_on_c, 9, 42, 0
8, 207360, Note_on_c, 9, 36, 95
8, 207600, Note_on_c, 9, 36, 0
8, 207600, Note_on_c, 9, 42, 95
8, 207720, Note_on_c, 9, 42, 0
8, 207720, Note_on_c, 9, 36, 95
8, 207840, Note_on_c, 9, 36, 0
8, 207840, Note_on_c, 9, 38, 95
8, 208080, Note_on_c, 9, 38, 0
8, 208080, Note_on_c, 9, 42, 95
8, 208080, Note_on_c, 9, 36, 95
8, 208320, Note_on_c, 9, 36, 0
8, 208320, Note_on_c, 9, 42, 0
8, 208320, Note_on_c, 9, 38, 95
8, 208560, Note_on_c, 9, 38, 0
8, 209280, Note_on_c, 9, 42, 95
8, 209280, Note_on_c, 9, 36, 95
8, 209400, Note_on_c, 9, 36, 0
8, 209400, Note_on_c, 9, 42, 0
8, 209400, Note_on_c, 9, 44, 95
8, 209520, Note_on_c, 9, 44, 0
8, 209520, Note_on_c, 9, 44, 95
8, 209640, Note_on_c, 9, 44, 0
8, 209640, Note_on_c, 9, 44, 95
8, 209760, Note_on_c, 9, 44, 0
8, 209760, Note_on_c, 9, 42, 95
8, 209880, Note_on_c, 9, 42, 0
8, 209880, Note_on_c, 9, 44, 95
8, 210000, Note_on_c, 9, 44, 0
8, 210000, Note_on_c, 9, 44, 95
8, 210120, Note_on_c, 9, 44, 0
8, 210120, Note_on_c, 9, 44, 95
8, 210240, Note_on_c, 9, 44, 0
8, 210240, Note_on_c, 9, 42, 95
8, 210240, Note_on_c, 9, 38, 95
8, 210360, Note_on_c, 9, 38, 0
8, 210360, Note_on_c, 9, 42, 0
8, 210360, Note_on_c, 9, 44, 95
8, 210480, Note_on_c, 9, 44, 0
8, 210480, Note_on_c, 9, 44, 95
8, 210600, Note_on_c, 9, 44, 0
8, 210600, Note_on_c, 9, 44, 95
8, 210720, Note_on_c, 9, 44, 0
8, 210720, Note_on_c, 9, 42, 95
8, 210840, Note_on_c, 9, 42, 0
8, 210840, Note_on_c, 9, 44, 95
8, 210960, Note_on_c, 9, 44, 0
8, 210960, Note_on_c, 9, 44, 95
8, 211080, Note_on_c, 9, 44, 0
8, 211080, Note_on_c, 9, 44, 95
8, 211200, Note_on_c, 9, 44, 0
8, 211200, Note_on_c, 9, 42, 95
8, 211200, Note_on_c, 9, 36, 95
8, 211320, Note_on_c, 9, 36, 0
8, 211320, Note_on_c, 9, 42, 0
8, 211320, Note_on_c, 9, 44, 95
8, 211440, Note_on_c, 9, 44, 0
8, 211440, Note_on_c, 9, 44, 95
8, 211560, Note_on_c, 9, 44, 0
8, 211560, Note_on_c, 9, 44, 95
8, 211680, Note_on_c, 9, 44, 0
8, 211680, Note_on_c, 9, 42, 95
8, 211800, Note_on_c, 9, 42, 0
8, 211800, Note_on_c, 9, 44, 95
8, 211920, Note_on_c, 9, 44, 0
8, 211920, Note_on_c, 9, 44, 95
8, 212040, Note_on_c, 9, 44, 0
8, 212040, Note_on_c, 9, 44, 95
8, 212160, Note_on_c, 9, 44, 0
8, 212160, Note_on_c, 9, 42, 95
8, 212160, Note_on_c, 9, 38, 95
8, 212280, Note_on_c, 9, 38, 0
8, 212280, Note_on_c, 9, 42, 0
8, 212280, Note_on_c, 9, 44, 95
8, 212400, Note_on_c, 9, 44, 0
8, 212400, Note_on_c, 9, 44, 95
8, 212520, Note_on_c, 9, 44, 0
8, 212520, Note_on_c, 9, 44, 95
8, 212640, Note_on_c, 9, 44, 0
8, 212640, Note_on_c, 9, 42, 95
8, 212760, Note_on_c, 9, 42, 0
8, 212760, Note_on_c, 9, 44, 95
8, 212880, Note_on_c, 9, 44, 0
8, 212880, Note_on_c, 9, 44, 95
8, 213000, Note_on_c, 9, 44, 0
8, 213000, Note_on_c, 9, 44, 95
8, 213120, Note_on_c, 9, 44, 0
8, 213120, Note_on_c, 9, 42, 95
8, 213120, Note_on_c, 9, 36, 95
8, 213240, Note_on_c, 9, 36, 0
8, 213240, Note_on_c, 9, 42, 0
8, 213240, Note_on_c, 9, 44, 95
8, 213360, Note_on_c, 9, 44, 0
8, 213360, Note_on_c, 9, 44, 95
8, 213480, Note_on_c, 9, 44, 0
8, 213480, Note_on_c, 9, 44, 95
8, 213600, Note_on_c, 9, 44, 0
8, 213600, Note_on_c, 9, 42, 95
8, 213720, Note_on_c, 9, 42, 0
8, 213720, Note_on_c, 9, 44, 95
8, 213840, Note_on_c, 9, 44, 0
8, 213840, Note_on_c, 9, 44, 95
8, 213840, Note_on_c, 9, 36, 95
8, 213960, Note_on_c, 9, 36, 0
8, 213960, Note_on_c, 9, 44, 0
8, 213960, Note_on_c, 9, 44, 95
8, 214080, Note_on_c, 9, 44, 0
8, 214080, Note_on_c, 9, 42, 95
8, 214080, Note_on_c, 9, 38, 95
8, 214200, Note_on_c, 9, 38, 0
8, 214200, Note_on_c, 9, 42, 0
8, 214200, Note_on_c, 9, 44, 95
8, 214320, Note_on_c, 9, 44, 0
8, 214320, Note_on_c, 9, 44, 95
8, 214440, Note_on_c, 9, 44, 0
8, 214440, Note_on_c, 9, 44, 95
8, 214560, Note_on_c, 9, 44, 0
8, 214560, Note_on_c, 9, 42, 95
8, 214680, Note_on_c, 9, 42, 0
8, 214680, Note_on_c, 9, 44, 95
8, 214800, Note_on_c, 9, 44, 0
8, 214800, Note_on_c, 9, 44, 95
8, 214920, Note_on_c, 9, 44, 0
8, 214920, Note_on_c, 9, 44, 95
8, 215040, Note_on_c, 9, 44, 0
8, 215040, Note_on_c, 9, 36, 95
8, 215040, Note_on_c, 9, 42, 95
8, 215160, Note_on_c, 9, 42, 0
8, 215160, Note_on_c, 9, 44, 95
8, 215280, Note_on_c, 9, 44, 0
8, 215280, Note_on_c, 9, 44, 95
8, 215400, Note_on_c, 9, 44, 0
8, 215400, Note_on_c, 9, 36, 0
8, 215400, Note_on_c, 9, 36, 95
8, 215400, Note_on_c, 9, 44, 95
8, 215520, Note_on_c, 9, 44, 0
8, 215520, Note_on_c, 9, 42, 95
8, 215640, Note_on_c, 9, 42, 0
8, 215640, Note_on_c, 9, 44, 95
8, 215760, Note_on_c, 9, 44, 0
8, 215760, Note_on_c, 9, 36, 0
8, 215760, Note_on_c, 9, 36, 95
8, 215760, Note_on_c, 9, 44, 95
8, 215880, Note_on_c, 9, 44, 0
8, 215880, Note_on_c, 9, 44, 95
8, 216000, Note_on_c, 9, 44, 0
8, 216000, Note_on_c, 9, 36, 0
8, 216000, Note_on_c, 9, 38, 95
8, 216000, Note_on_c, 9, 42, 95
8, 216120, Note_on_c, 9, 42, 0
8, 216120, Note_on_c, 9, 44, 95
8, 216240, Note_on_c, 9, 44, 0
8, 216240, Note_on_c, 9, 44, 95
8, 216360, Note_on_c, 9, 44, 0
8, 216360, Note_on_c, 9, 44, 95
8, 216480, Note_on_c, 9, 44, 0
8, 216480, Note_on_c, 9, 38, 0
8, 216480, Note_on_c, 9, 38, 95
8, 216480, Note_on_c, 9, 42, 95
8, 216600, Note_on_c, 9, 42, 0
8, 216600, Note_on_c, 9, 44, 95
8, 216720, Note_on_c, 9, 44, 0
8, 216720, Note_on_c, 9, 38, 0
8, 216720, Note_on_c, 9, 36, 95
8, 216720, Note_on_c, 9, 44, 95
8, 216840, Note_on_c, 9, 44, 0
8, 216840, Note_on_c, 9, 44, 95
8, 216960, Note_on_c, 9, 44, 0
8, 216960, Note_on_c, 9, 36, 0
8, 216960, Note_on_c, 9, 42, 95
8, 216960, Note_on_c, 9, 36, 95
8, 217080, Note_on_c, 9, 36, 0
8, 217080, Note_on_c, 9, 42, 0
8, 217080, Note_on_c, 9, 44, 95
8, 217200, Note_on_c, 9, 44, 0
8, 217200, Note_on_c, 9, 44, 95
8, 217320, Note_on_c, 9, 44, 0
8, 217320, Note_on_c, 9, 44, 95
8, 217440, Note_on_c, 9, 44, 0
8, 217440, Note_on_c, 9, 42, 95
8, 217560, Note_on_c, 9, 42, 0
8, 217560, Note_on_c, 9, 44, 95
8, 217680, Note_on_c, 9, 44, 0
8, 217680, Note_on_c, 9, 44, 95
8, 217800, Note_on_c, 9, 44, 0
8, 217800, Note_on_c, 9, 44, 95
8, 217920, Note_on_c, 9, 44, 0
8, 217920, Note_on_c, 9, 42, 95
8, 217920, Note_on_c, 9, 38, 95
8, 218040, Note_on_c, 9, 38, 0
8, 218040, Note_on_c, 9, 42, 0
8, 218040, Note_on_c, 9, 44, 95
8, 218160, Note_on_c, 9, 44, 0
8, 218160, Note_on_c, 9, 44, 95
8, 218280, Note_on_c, 9, 44, 0
8, 218280, Note_on_c, 9, 44, 95
8, 218400, Note_on_c, 9, 44, 0
8, 218400, Note_on_c, 9, 42, 95
8, 218520, Note_on_c, 9, 42, 0
8, 218520, Note_on_c, 9, 44, 95
8, 218640, Note_on_c, 9, 44, 0
8, 218640, Note_on_c, 9, 44, 95
8, 218760, Note_on_c, 9, 44, 0
8, 218760, Note_on_c, 9, 44, 95
8, 218880, Note_on_c, 9, 44, 0
8, 218880, Note_on_c, 9, 42, 95
8, 218880, Note_on_c, 9, 36, 95
8, 219000, Note_on_c, 9, 36, 0
8, 219000, Note_on_c, 9, 42, 0
8, 219000, Note_on_c, 9, 44, 95
8, 219120, Note_on_c, 9, 44, 0
8, 219120, Note_on_c, 9, 44, 95
8, 219240, Note_on_c, 9, 44, 0
8, 219240, Note_on_c, 9, 44, 95
8, 219360, Note_on_c, 9, 44, 0
8, 219360, Note_on_c, 9, 42, 95
8, 219480, Note_on_c, 9, 42, 0
8, 219480, Note_on_c, 9, 44, 95
8, 219600, Note_on_c, 9, 44, 0
8, 219600, Note_on_c, 9, 44, 95
8, 219720, Note_on_c, 9, 44, 0
8, 219720, Note_on_c, 9, 44, 95
8, 219840, Note_on_c, 9, 44, 0
8, 219840, Note_on_c, 9, 42, 95
8, 219840, Note_on_c, 9, 38, 95
8, 219960, Note_on_c, 9, 38, 0
8, 219960, Note_on_c, 9, 42, 0
8, 219960, Note_on_c, 9, 44, 95
8, 220080, Note_on_c, 9, 44, 0
8, 220080, Note_on_c, 9, 44, 95
8, 220200, Note_on_c, 9, 44, 0
8, 220200, Note_on_c, 9, 44, 95
8, 220320, Note_on_c, 9, 44, 0
8, 220320, Note_on_c, 9, 42, 95
8, 220440, Note_on_c, 9, 42, 0
8, 220440, Note_on_c, 9, 44, 95
8, 220560, Note_on_c, 9, 44, 0
8, 220560, Note_on_c, 9, 44, 95
8, 220680, Note_on_c, 9, 44, 0
8, 220680, Note_on_c, 9, 44, 95
8, 220800, Note_on_c, 9, 44, 0
8, 220800, Note_on_c, 9, 42, 95
8, 220800, Note_on_c, 9, 36, 95
8, 220920, Note_on_c, 9, 36, 0
8, 220920, Note_on_c, 9, 42, 0
8, 220920, Note_on_c, 9, 44, 95
8, 221040, Note_on_c, 9, 44, 0
8, 221040, Note_on_c, 9, 44, 95
8, 221160, Note_on_c, 9, 44, 0
8, 221160, Note_on_c, 9, 44, 95
8, 221280, Note_on_c, 9, 44, 0
8, 221280, Note_on_c, 9, 42, 95
8, 221400, Note_on_c, 9, 42, 0
8, 221400, Note_on_c, 9, 44, 95
8, 221520, Note_on_c, 9, 44, 0
8, 221520, Note_on_c, 9, 44, 95
8, 221520, Note_on_c, 9, 36, 95
8, 221640, Note_on_c, 9, 36, 0
8, 221640, Note_on_c, 9, 44, 0
8, 221640, Note_on_c, 9, 44, 95
8, 221760, Note_on_c, 9, 44, 0
8, 221760, Note_on_c, 9, 42, 95
8, 221760, Note_on_c, 9, 38, 95
8, 221880, Note_on_c, 9, 38, 0
8, 221880, Note_on_c, 9, 42, 0
8, 221880, Note_on_c, 9, 44, 95
8, 222000, Note_on_c, 9, 44, 0
8, 222000, Note_on_c, 9, 44, 95
8, 222120, Note_on_c, 9, 44, 0
8, 222120, Note_on_c, 9, 44, 95
8, 222240, Note_on_c, 9, 44, 0
8, 222240, Note_on_c, 9, 42, 95
8, 222360, Note_on_c, 9, 42, 0
8, 222360, Note_on_c, 9, 44, 95
8, 222480, Note_on_c, 9, 44, 0
8, 222480, Note_on_c, 9, 44, 95
8, 222600, Note_on_c, 9, 44, 0
8, 222600, Note_on_c, 9, 44, 95
8, 222720, Note_on_c, 9, 44, 0
8, 222720, Note_on_c, 9, 36, 95
8, 222720, Note_on_c, 9, 42, 95
8, 222840, Note_on_c, 9, 42, 0
8, 222840, Note_on_c, 9, 44, 95
8, 222960, Note_on_c, 9, 44, 0
8, 222960, Note_on_c, 9, 44, 95
8, 223080, Note_on_c, 9, 44, 0
8, 223080, Note_on_c, 9, 36, 0
8, 223080, Note_on_c, 9, 36, 95
8, 223080, Note_on_c, 9, 44, 95
8, 223200, Note_on_c, 9, 44, 0
8, 223200, Note_on_c, 9, 42, 95
8, 223320, Note_on_c, 9, 42, 0
8, 223320, Note_on_c, 9, 44, 95
8, 223440, Note_on_c, 9, 44, 0
8, 223440, Note_on_c, 9, 36, 0
8, 223440, Note_on_c, 9, 36, 95
8, 223440, Note_on_c, 9, 44, 95
8, 223560, Note_on_c, 9, 44, 0
8, 223560, Note_on_c, 9, 44, 95
8, 223680, Note_on_c, 9, 44, 0
8, 223680, Note_on_c, 9, 36, 0
8, 223680, Note_on_c, 9, 38, 95
8, 223680, Note_on_c, 9, 42, 95
8, 223800, Note_on_c, 9, 42, 0
8, 223800, Note_on_c, 9, 44, 95
8, 223920, Note_on_c, 9, 44, 0
8, 223920, Note_on_c, 9, 44, 95
8, 224040, Note_on_c, 9, 44, 0
8, 224040, Note_on_c, 9, 44, 95
8, 224160, Note_on_c, 9, 44, 0
8, 224160, Note_on_c, 9, 38, 0
8, 224160, Note_on_c, 9, 38, 95
8, 224160, Note_on_c, 9, 42, 95
8, 224280, Note_on_c, 9, 42, 0
8, 224280, Note_on_c, 9, 44, 95
8, 224400, Note_on_c, 9, 44, 0
8, 224400, Note_on_c, 9, 38, 0
8, 224400, Note_on_c, 9, 36, 95
8, 224400, Note_on_c, 9, 44, 95
8, 224520, Note_on_c, 9, 44, 0
8, 224520, Note_on_c, 9, 44, 95
8, 224640, Note_on_c, 9, 44, 0
8, 224640, Note_on_c, 9, 36, 0
8, 224640, Note_on_c, 9, 36, 95
8, 226560, Note_on_c, 9, 36, 0
8, 240000, Note_on_c, 9, 42, 95
8, 240000, Note_on_c, 9, 36, 95
8, 240120, Note_on_c, 9, 36, 0
8, 240120, Note_on_c, 9, 42, 0
8, 240120, Note_on_c, 9, 44, 95
8, 240240, Note_on_c, 9, 44, 0
8, 240240, Note_on_c, 9, 44, 95
8, 240360, Note_on_c, 9, 44, 0
8, 240360, Note_on_c, 9, 44, 95
8, 240480, Note_on_c, 9, 44, 0
8, 240480, Note_on_c, 9, 42, 95
8, 240600, Note_on_c, 9, 42, 0
8, 240600, Note_on_c, 9, 44, 95
8, 240720, Note_on_c, 9, 44, 0
8, 240720, Note_on_c, 9, 44, 95
8, 240840, Note_on_c, 9, 44, 0
8, 240840, Note_on_c, 9, 44, 95
8, 240960, Note_on_c, 9, 44, 0
8, 240960, Note_on_c, 9, 42, 95
8, 240960, Note_on_c, 9, 38, 95
8, 241080, Note_on_c, 9, 38, 0
8, 241080, Note_on_c, 9, 42, 0
8, 241080, Note_on_c, 9, 44, 95
8, 241200, Note_on_c, 9, 44, 0
8, 241200, Note_on_c, 9, 44, 95
8, 241320, Note_on_c, 9, 44, 0
8, 241320, Note_on_c, 9, 44, 95
8, 241440, Note_on_c, 9, 44, 0
8, 241440, Note_on_c, 9, 42, 95
8, 241560, Note_on_c, 9, 42, 0
8, 241560, Note_on_c, 9, 44, 95
8, 241680, Note_on_c, 9, 44, 0
8, 241680, Note_on_c, 9, 44, 95
8, 241800, Note_on_c, 9, 44, 0
8, 241800, Note_on_c, 9, 44, 95
8, 241920, Note_on_c, 9, 44, 0
8, 241920, Note_on_c, 9, 42, 95
8, 241920, Note_on_c, 9, 36, 95
8, 242040, Note_on_c, 9, 36, 0
8, 242040, Note_on_c, 9, 42, 0
8, 242040, Note_on_c, 9, 44, 95
8, 242160, Note_on_c, 9, 44, 0
8, 242160, Note_on_c, 9, 44, 95
8, 242280, Note_on_c, 9, 44, 0
8, 242280, Note_on_c, 9, 44, 95
8, 242400, Note_on_c, 9, 44, 0
8, 242400, Note_on_c, 9, 42, 95
8, 242520, Note_on_c, 9, 42, 0
8, 242520, Note_on_c, 9, 44, 95
8, 242640, Note_on_c, 9, 44, 0
8, 242640, Note_on_c, 9, 44, 95
8, 242760, Note_on_c, 9, 44, 0
8, 242760, Note_on_c, 9, 44, 95
8, 242880, Note_on_c, 9, 44, 0
8, 242880, Note_on_c, 9, 42, 95
8, 242880, Note_on_c, 9, 38, 95
8, 243000, Note_on_c, 9, 38, 0
8, 243000, Note_on_c, 9, 42, 0
8, 243000, Note_on_c, 9, 44, 95
8, 243120, Note_on_c, 9, 44, 0
8, 243120, Note_on_c, 9, 44, 95
8, 243240, Note_on_c, 9, 44, 0
8, 243240, Note_on_c, 9, 44, 95
8, 243360, Note_on_c, 9, 44, 0
8, 243360, Note_on_c, 9, 42, 95
8, 243480, Note_on_c, 9, 42, 0
8, 243480, Note_on_c, 9, 44, 95
8, 243600, Note_on_c, 9, 44, 0
8, 243600, Note_on_c, 9, 44, 95
8, 243720, Note_on_c, 9, 44, 0
8, 243720, Note_on_c, 9, 44, 95
8, 243840, Note_on_c, 9, 44, 0
8, 243840, Note_on_c, 9, 42, 95
8, 243840, Note_on_c, 9, 36, 95
8, 243960, Note_on_c, 9, 36, 0
8, 243960, Note_on_c, 9, 42, 0
8, 243960, Note_on_c, 9, 44, 95
8, 244080, Note_on_c, 9, 44, 0
8, 244080, Note_on_c, 9, 44, 95
8, 244200, Note_on_c, 9, 44, 0
8, 244200, Note_on_c, 9, 44, 95
8, 244320, Note_on_c, 9, 44, 0
8, 244320, Note_on_c, 9, 42, 95
8, 244440, Note_on_c, 9, 42, 0
8, 244440, Note_on_c, 9, 44, 95
8, 244560, Note_on_c, 9, 44, 0
8, 244560, Note_on_c, 9, 44, 95
8, 244680, Note_on_c, 9, 44, 0
8, 244680, Note_on_c, 9, 44, 95
8, 244800, Note_on_c, 9, 44, 0
8, 244800, Note_on_c, 9, 42, 95
8, 244800, Note_on_c, 9, 38, 95
8, 244920, Note_on_c, 9, 38, 0
8, 244920, Note_on_c, 9, 42, 0
8, 244920, Note_on_c, 9, 44, 95
8, 245040, Note_on_c, 9, 44, 0
8, 245040, Note_on_c, 9, 44, 95
8, 245160, Note_on_c, 9, 44, 0
8, 245160, Note_on_c, 9, 44, 95
8, 245280, Note_on_c, 9, 44, 0
8, 245280, Note_on_c, 9, 42, 95
8, 245400, Note_on_c, 9, 42, 0
8, 245400, Note_on_c, 9, 44, 95
8, 245520, Note_on_c, 9, 44, 0
8, 245520, Note_on_c, 9, 44, 95
8, 245640, Note_on_c, 9, 44, 0
8, 245640, Note_on_c, 9, 44, 95
8, 245760, Note_on_c, 9, 44, 0
8, 245760, Note_on_c, 9, 42, 95
8, 245760, Note_on_c, 9, 36, 95
8, 245880, Note_on_c, 9, 36, 0
8, 245880, Note_on_c, 9, 42, 0
8, 245880, Note_on_c, 9, 44, 95
8, 246000, Note_on_c, 9, 44, 0
8, 246000, Note_on_c, 9, 44, 95
8, 246120, Note_on_c, 9, 44, 0
8, 246120, Note_on_c, 9, 44, 95
8, 246240, Note_on_c, 9, 44, 0
8, 246240, Note_on_c, 9, 42, 95
8, 246360, Note_on_c, 9, 42, 0
8, 246360, Note_on_c, 9, 44, 95
8, 246480, Note_on_c, 9, 44, 0
8, 246480, Note_on_c, 9, 44, 95
8, 246600, Note_on_c, 9, 44, 0
8, 246600, Note_on_c, 9, 44, 95
8, 246720, Note_on_c, 9, 44, 0
8, 246720, Note_on_c, 9, 42, 95
8, 246720, Note_on_c, 9, 38, 95
8, 246840, Note_on_c, 9, 38, 0
8, 246840, Note_on_c, 9, 42, 0
8, 246840, Note_on_c, 9, 44, 95
8, 246960, Note_on_c, 9, 44, 0
8, 246960, Note_on_c, 9, 44, 95
8, 247080, Note_on_c, 9, 44, 0
8, 247080, Note_on_c, 9, 44, 95
8, 247200, Note_on_c, 9, 44, 0
8, 247200, Note_on_c, 9, 42, 95
8, 247320, Note_on_c, 9, 42, 0
8, 247320, Note_on_c, 9, 44, 95
8, 247440, Note_on_c, 9, 44, 0
8, 247440, Note_on_c, 9, 44, 95
8, 247560, Note_on_c, 9, 44, 0
8, 247560, Note_on_c, 9, 44, 95
8, 247680, Note_on_c, 9, 44, 0
8, 247680, Note_on_c, 9, 42, 95
8, 247680, Note_on_c, 9, 36, 95
8, 247800, Note_on_c, 9, 36, 0
8, 247800, Note_on_c, 9, 42, 0
8, 247800, Note_on_c, 9, 44, 95
8, 247920, Note_on_c, 9, 44, 0
8, 247920, Note_on_c, 9, 44, 95
8, 248040, Note_on_c, 9, 44, 0
8, 248040, Note_on_c, 9, 44, 95
8, 248160, Note_on_c, 9, 44, 0
8, 248160, Note_on_c, 9, 42, 95
8, 248280, Note_on_c, 9, 42, 0
8, 248280, Note_on_c, 9, 44, 95
8, 248400, Note_on_c, 9, 44, 0
8, 248400, Note_on_c, 9, 44, 95
8, 248520, Note_on_c, 9, 44, 0
8, 248520, Note_on_c, 9, 44, 95
8, 248640, Note_on_c, 9, 44, 0
8, 248640, Note_on_c, 9, 42, 95
8, 248640, Note_on_c, 9, 38, 95
8, 248760, Note_on_c, 9, 38, 0
8, 248760, Note_on_c, 9, 42, 0
8, 248760, Note_on_c, 9, 44, 95
8, 248880, Note_on_c, 9, 44, 0
8, 248880, Note_on_c, 9, 44, 95
8, 249000, Note_on_c, 9, 44, 0
8, 249000, Note_on_c, 9, 44, 95
8, 249120, Note_on_c, 9, 44, 0
8, 249120, Note_on_c, 9, 42, 95
8, 249240, Note_on_c, 9, 42, 0
8, 249240, Note_on_c, 9, 44, 95
8, 249360, Note_on_c, 9, 44, 0
8, 249360, Note_on_c, 9, 44, 95
8, 249480, Note_on_c, 9, 44, 0
8, 249480, Note_on_c, 9, 44, 95
8, 249600, Note_on_c, 9, 44, 0
8, 249600, Note_on_c, 9, 42, 95
8, 249600, Note_on_c, 9, 36, 95
8, 249720, Note_on_c, 9, 36, 0
8, 249720, Note_on_c, 9, 42, 0
8, 249720, Note_on_c, 9, 44, 95
8, 249840, Note_on_c, 9, 44, 0
8, 249840, Note_on_c, 9, 44, 95
8, 249960, Note_on_c, 9, 44, 0
8, 249960, Note_on_c, 9, 44, 95
8, 250080, Note_on_c, 9, 44, 0
8, 250080, Note_on_c, 9, 42, 95
8, 250200, Note_on_c, 9, 42, 0
8, 250200, Note_on_c, 9, 44, 95
8, 250320, Note_on_c, 9, 44, 0
8, 250320, Note_on_c, 9, 44, 95
8, 250440, Note_on_c, 9, 44, 0
8, 250440, Note_on_c, 9, 44, 95
8, 250560, Note_on_c, 9, 44, 0
8, 250560, Note_on_c, 9, 42, 95
8, 250560, Note_on_c, 9, 38, 95
8, 250680, Note_on_c, 9, 38, 0
8, 250680, Note_on_c, 9, 42, 0
8, 250680, Note_on_c, 9, 44, 95
8, 250800, Note_on_c, 9, 44, 0
8, 250800, Note_on_c, 9, 44, 95
8, 250920, Note_on_c, 9, 44, 0
8, 250920, Note_on_c, 9, 44, 95
8, 251040, Note_on_c, 9, 44, 0
8, 251040, Note_on_c, 9, 42, 95
8, 251160, Note_on_c, 9, 42, 0
8, 251160, Note_on_c, 9, 44, 95
8, 251280, Note_on_c, 9, 44, 0
8, 251280, Note_on_c, 9, 44, 95
8, 251400, Note_on_c, 9, 44, 0
8, 251400, Note_on_c, 9, 44, 95
8, 251520, Note_on_c, 9, 44, 0
8, 251520, Note_on_c, 9, 42, 95
8, 251520, Note_on_c, 9, 36, 95
8, 251640, Note_on_c, 9, 36, 0
8, 251640, Note_on_c, 9, 42, 0
8, 251640, Note_on_c, 9, 44, 95
8, 251760, Note_on_c, 9, 44, 0
8, 251760, Note_on_c, 9, 44, 95
8, 251880, Note_on_c, 9, 44, 0
8, 251880, Note_on_c, 9, 44, 95
8, 252000, Note_on_c, 9, 44, 0
8, 252000, Note_on_c, 9, 42, 95
8, 252120, Note_on_c, 9, 42, 0
8, 252120, Note_on_c, 9, 44, 95
8, 252240, Note_on_c, 9, 44, 0
8, 252240, Note_on_c, 9, 44, 95
8, 252360, Note_on_c, 9, 44, 0
8, 252360, Note_on_c, 9, 44, 95
8, 252480, Note_on_c, 9, 44, 0
8, 252480, Note_on_c, 9, 42, 95
8, 252480, Note_on_c, 9, 38, 95
8, 252600, Note_on_c, 9, 38, 0
8, 252600, Note_on_c, 9, 42, 0
8, 252600, Note_on_c, 9, 44, 95
8, 252720, Note_on_c, 9, 44, 0
8, 252720, Note_on_c, 9, 44, 95
8, 252840, Note_on_c, 9, 44, 0
8, 252840, Note_on_c, 9, 44, 95
8, 252960, Note_on_c, 9, 44, 0
8, 252960, Note_on_c, 9, 42, 95
8, 253080, Note_on_c, 9, 42, 0
8, 253080, Note_on_c, 9, 44, 95
8, 253200, Note_on_c, 9, 44, 0
8, 253200, Note_on_c, 9, 44, 95
8, 253320, Note_on_c, 9, 44, 0
8, 253320, Note_on_c, 9, 44, 95
8, 253440, Note_on_c, 9, 44, 0
8, 253440, Note_on_c, 9, 42, 95
8, 253440, Note_on_c, 9, 36, 95
8, 253560, Note_on_c, 9, 36, 0
8, 253560, Note_on_c, 9, 42, 0
8, 253560, Note_on_c, 9, 44, 95
8, 253680, Note_on_c, 9, 44, 0
8, 253680, Note_on_c, 9, 44, 95
8, 253800, Note_on_c, 9, 44, 0
8, 253800, Note_on_c, 9, 44, 95
8, 253920, Note_on_c, 9, 44, 0
8, 253920, Note_on_c, 9, 42, 95
8, 254040, Note_on_c, 9, 42, 0
8, 254040, Note_on_c, 9, 44, 95
8, 254160, Note_on_c, 9, 44, 0
8, 254160, Note_on_c, 9, 44, 95
8, 254280, Note_on_c, 9, 44, 0
8, 254280, Note_on_c, 9, 44, 95
8, 254400, Note_on_c, 9, 44, 0
8, 254400, Note_on_c, 9, 42, 95
8, 254400, Note_on_c, 9, 38, 95
8, 254520, Note_on_c, 9, 38, 0
8, 254520, Note_on_c, 9, 42, 0
8, 254520, Note_on_c, 9, 44, 95
8, 254640, Note_on_c, 9, 44, 0
8, 254640, Note_on_c, 9, 44, 95
8, 254760, Note_on_c, 9, 44, 0
8, 254760, Note_on_c, 9, 44, 95
8, 254880, Note_on_c, 9, 44, 0
8, 254880, Note_on_c, 9, 42, 95
8, 255000, Note_on_c, 9, 42, 0
8, 255000, Note_on_c, 9, 44, 95
8, 255120, Note_on_c, 9, 44, 0
8, 255120, Note_on_c, 9, 44, 95
8, 255240, Note_on_c, 9, 44, 0
8, 255240, Note_on_c, 9, 44, 95
8, 255360, Note_on_c, 9, 44, 0
8, 263040, Control_c, 9, 7, 98
8, 263040, Control_c, 9, 7, 98
8, 263160, Control_c, 9, 7, 92
8, 263160, Control_c, 9, 7, 92
8, 263280, Control_c, 9, 7, 86
8, 263280, Control_c, 9, 7, 86
8, 263400, Control_c, 9, 7, 80
8, 263400, Control_c, 9, 7, 80
8, 263520, Control_c, 9, 7, 73
8, 263520, Control_c, 9, 7, 73
8, 263640, Control_c, 9, 7, 67
8, 263640, Control_c, 9, 7, 67
8, 263760, Control_c, 9, 7, 61
8, 263760, Control_c, 9, 7, 61
8, 263880, Control_c, 9, 7, 55
8, 263880, Control_c, 9, 7, 55
8, 264000, Control_c, 9, 7, 49
8, 264000, Control_c, 9, 7, 49
8, 264120, Control_c, 9, 7, 43
8, 264120, Control_c, 9, 7, 43
8, 264240, Control_c, 9, 7, 37
8, 264240, Control_c, 9, 7, 37
8, 264360, Control_c, 9, 7, 31
8, 264360, Control_c, 9, 7, 31
8, 264480, Control_c, 9, 7, 24
8, 264480, Control_c, 9, 7, 24
8, 264600, Control_c, 9, 7, 18
8, 264600, Control_c, 9, 7, 18
8, 264720, Control_c, 9, 7, 12
8, 264720, Control_c, 9, 7, 12
8, 264840, Control_c, 9, 7, 6
8, 264840, Control_c, 9, 7, 6
8, 264960, Control_c, 9, 7, 0
8, 264960, Control_c, 9, 7, 0
8, 264960, End_track
0, 0, End_of_file
