0, 0, Header, 1, 3, 192
1, 0, Start_track
1, 0, Title_t, "One Summer's Day"
1, 0, Copyright_t, "Composer:Unknown \015Arranged by: Cole Hovey"
1, 0, Tempo, 750000
1, 0, Time_signature, 4, 2, 24, 8
1, 0, Key_signature, 0, "major"
1, 23682, Time_signature, 2, 2, 24, 8
1, 24450, Time_signature, 4, 2, 24, 8
1, 32898, Time_signature, 2, 2, 24, 8
1, 33282, Time_signature, 4, 2, 24, 8
1, 34986, Tempo, 800000
1, 35206, Tempo, 857142
1, 35474, Tempo, 923076
1, 38738, Tempo, 750000
1, 50214, Tempo, 1000000
1, 50214, End_track
2, 0, Start_track
2, 0, MIDI_port, 0
2, 0, Title_t, "Piano 1"
2, 0, Control_c, 0, 64, 127
2, 0, Control_c, 0, 0, 0
2, 0, Control_c, 0, 32, 0
2, 0, Program_c, 0, 0
2, 0, Control_c, 0, 10, 64
2, 0, Control_c, 0, 101, 0
2, 0, Control_c, 0, 100, 0
2, 0, Control_c, 0, 6, 24
2, 0, Control_c, 0, 7, 127
2, 0, Pitch_bend_c, 0, 8192
2, 0, Control_c, 0, 10, 64
2, 0, Note_on_c, 0, 79, 64
2, 16, Note_on_c, 0, 81, 64
2, 30, Note_on_c, 0, 88, 64
2, 768, Note_off_c, 0, 79, 64
2, 768, Control_c, 0, 64, 127
2, 768, Note_on_c, 0, 74, 64
2, 784, Note_off_c, 0, 81, 64
2, 784, Note_on_c, 0, 79, 64
2, 798, Note_off_c, 0, 88, 64
2, 798, Note_on_c, 0, 84, 64
2, 1536, Note_off_c, 0, 74, 64
2, 1536, Control_c, 0, 64, 127
2, 1536, Note_on_c, 0, 72, 64
2, 1552, Note_off_c, 0, 79, 64
2, 1552, Note_on_c, 0, 77, 64
2, 1566, Note_off_c, 0, 84, 64
2, 1566, Note_on_c, 0, 82, 64
2, 1920, Note_off_c, 0, 72, 64
2, 1920, Note_on_c, 0, 76, 64
2, 1936, Note_off_c, 0, 77, 64
2, 1936, Note_on_c, 0, 81, 64
2, 1950, Note_off_c, 0, 82, 64
2, 1950, Note_on_c, 0, 86, 64
2, 2304, Control_c, 0, 64, 127
2, 2592, Control_c, 0, 64, 127
2, 3072, Note_off_c, 0, 76, 64
2, 3088, Note_off_c, 0, 81, 64
2, 3102, Note_off_c, 0, 86, 64
2, 3208, Control_c, 0, 64, 0
2, 3936, Note_on_c, 0, 76, 64
2, 4032, Note_off_c, 0, 76, 64
2, 4032, Note_on_c, 0, 76, 64
2, 4128, Note_off_c, 0, 76, 64
2, 4128, Note_on_c, 0, 76, 64
2, 4224, Note_off_c, 0, 76, 64
2, 4224, Note_on_c, 0, 76, 64
2, 4320, Note_off_c, 0, 76, 64
2, 4320, Note_on_c, 0, 74, 64
2, 4416, Note_off_c, 0, 74, 64
2, 4416, Note_on_c, 0, 76, 64
2, 4512, Note_off_c, 0, 76, 64
2, 4512, Note_on_c, 0, 81, 64
2, 4608, Note_off_c, 0, 81, 64
2, 4608, Note_on_c, 0, 76, 64
2, 4704, Note_off_c, 0, 76, 64
2, 4704, Note_on_c, 0, 74, 64
2, 4752, Note_off_c, 0, 74, 64
2, 4752, Note_on_c, 0, 74, 64
2, 5378, Note_off_c, 0, 74, 64
2, 5472, Note_on_c, 0, 74, 64
2, 5568, Note_off_c, 0, 74, 64
2, 5568, Note_on_c, 0, 74, 64
2, 5664, Note_off_c, 0, 74, 64
2, 5664, Note_on_c, 0, 74, 64
2, 5760, Note_off_c, 0, 74, 64
2, 5760, Note_on_c, 0, 74, 64
2, 5856, Note_off_c, 0, 74, 64
2, 5856, Note_on_c, 0, 72, 64
2, 5952, Note_off_c, 0, 72, 64
2, 5952, Note_on_c, 0, 74, 64
2, 6048, Note_off_c, 0, 74, 64
2, 6048, Note_on_c, 0, 79, 64
2, 6144, Note_off_c, 0, 79, 64
2, 6144, Note_on_c, 0, 74, 64
2, 6240, Note_off_c, 0, 74, 64
2, 6240, Note_on_c, 0, 72, 64
2, 6336, Note_off_c, 0, 72, 64
2, 6336, Note_on_c, 0, 71, 64
2, 6432, Note_off_c, 0, 71, 64
2, 6432, Note_on_c, 0, 72, 64
2, 6816, Note_off_c, 0, 72, 64
2, 6816, Note_on_c, 0, 69, 64
2, 6864, Note_off_c, 0, 69, 64
2, 6864, Note_on_c, 0, 71, 64
2, 6912, Note_off_c, 0, 71, 64
2, 6912, Note_on_c, 0, 72, 64
2, 7008, Note_off_c, 0, 72, 64
2, 7008, Note_on_c, 0, 72, 64
2, 7104, Note_off_c, 0, 72, 64
2, 7104, Note_on_c, 0, 72, 64
2, 7200, Note_off_c, 0, 72, 64
2, 7200, Note_on_c, 0, 72, 64
2, 7296, Note_off_c, 0, 72, 64
2, 7296, Note_on_c, 0, 72, 64
2, 7584, Note_off_c, 0, 72, 64
2, 7584, Note_on_c, 0, 69, 64
2, 7632, Note_off_c, 0, 69, 64
2, 7632, Note_on_c, 0, 71, 64
2, 7680, Note_off_c, 0, 71, 64
2, 7680, Note_on_c, 0, 72, 64
2, 7776, Note_off_c, 0, 72, 64
2, 7776, Note_on_c, 0, 72, 64
2, 7872, Note_off_c, 0, 72, 64
2, 7872, Note_on_c, 0, 72, 64
2, 7968, Note_off_c, 0, 72, 64
2, 7968, Note_on_c, 0, 72, 64
2, 8064, Note_off_c, 0, 72, 64
2, 8064, Note_on_c, 0, 71, 64
2, 8160, Note_off_c, 0, 71, 64
2, 8160, Note_on_c, 0, 72, 64
2, 8352, Note_off_c, 0, 72, 64
2, 8352, Note_on_c, 0, 69, 64
2, 8400, Note_off_c, 0, 69, 64
2, 8400, Note_on_c, 0, 71, 64
2, 8448, Note_off_c, 0, 71, 64
2, 8448, Note_on_c, 0, 72, 64
2, 8544, Note_off_c, 0, 72, 64
2, 8544, Note_on_c, 0, 72, 64
2, 8640, Note_off_c, 0, 72, 64
2, 8640, Note_on_c, 0, 72, 64
2, 8736, Note_off_c, 0, 72, 64
2, 8736, Note_on_c, 0, 72, 64
2, 8832, Note_off_c, 0, 72, 64
2, 8832, Note_on_c, 0, 72, 64
2, 8928, Note_off_c, 0, 72, 64
2, 8928, Note_on_c, 0, 79, 64
2, 9120, Note_off_c, 0, 79, 64
2, 9120, Note_on_c, 0, 72, 64
2, 9216, Note_off_c, 0, 72, 64
2, 9216, Note_on_c, 0, 74, 64
2, 9984, Note_off_c, 0, 74, 64
2, 10080, Note_on_c, 0, 76, 64
2, 10176, Note_off_c, 0, 76, 64
2, 10176, Note_on_c, 0, 76, 64
2, 10272, Note_off_c, 0, 76, 64
2, 10272, Note_on_c, 0, 76, 64
2, 10368, Note_off_c, 0, 76, 64
2, 10368, Note_on_c, 0, 76, 64
2, 10464, Note_off_c, 0, 76, 64
2, 10464, Note_on_c, 0, 74, 64
2, 10560, Note_off_c, 0, 74, 64
2, 10560, Note_on_c, 0, 76, 64
2, 10656, Note_off_c, 0, 76, 64
2, 10656, Note_on_c, 0, 81, 64
2, 10752, Note_off_c, 0, 81, 64
2, 10752, Note_on_c, 0, 76, 64
2, 10848, Note_off_c, 0, 76, 64
2, 10848, Note_on_c, 0, 74, 64
2, 10896, Note_off_c, 0, 74, 64
2, 10896, Note_on_c, 0, 74, 64
2, 11522, Note_off_c, 0, 74, 64
2, 11616, Note_on_c, 0, 74, 64
2, 11712, Note_off_c, 0, 74, 64
2, 11712, Note_on_c, 0, 74, 64
2, 11808, Note_off_c, 0, 74, 64
2, 11808, Note_on_c, 0, 74, 64
2, 11904, Note_off_c, 0, 74, 64
2, 11904, Note_on_c, 0, 74, 64
2, 12000, Note_off_c, 0, 74, 64
2, 12000, Note_on_c, 0, 72, 64
2, 12096, Note_off_c, 0, 72, 64
2, 12096, Note_on_c, 0, 74, 64
2, 12192, Note_off_c, 0, 74, 64
2, 12192, Note_on_c, 0, 79, 64
2, 12288, Note_off_c, 0, 79, 64
2, 12288, Note_on_c, 0, 74, 64
2, 12384, Note_off_c, 0, 74, 64
2, 12384, Note_on_c, 0, 72, 64
2, 12480, Note_off_c, 0, 72, 64
2, 12480, Note_on_c, 0, 71, 64
2, 12576, Note_off_c, 0, 71, 64
2, 12576, Note_on_c, 0, 72, 64
2, 12960, Note_off_c, 0, 72, 64
2, 12960, Note_on_c, 0, 69, 64
2, 13008, Note_off_c, 0, 69, 64
2, 13008, Note_on_c, 0, 71, 64
2, 13056, Note_off_c, 0, 71, 64
2, 13056, Note_on_c, 0, 65, 64
2, 13056, Note_on_c, 0, 64, 64
2, 13056, Note_on_c, 0, 72, 64
2, 13152, Note_off_c, 0, 72, 64
2, 13152, Note_on_c, 0, 72, 64
2, 13248, Note_off_c, 0, 72, 64
2, 13248, Note_on_c, 0, 72, 64
2, 13344, Note_off_c, 0, 72, 64
2, 13344, Note_on_c, 0, 72, 64
2, 13440, Note_off_c, 0, 65, 64
2, 13440, Note_off_c, 0, 64, 64
2, 13440, Note_off_c, 0, 72, 64
2, 13440, Note_on_c, 0, 72, 64
2, 13440, Note_on_c, 0, 65, 64
2, 13728, Note_off_c, 0, 72, 64
2, 13728, Note_off_c, 0, 65, 64
2, 13728, Note_on_c, 0, 69, 64
2, 13776, Note_off_c, 0, 69, 64
2, 13776, Note_on_c, 0, 71, 64
2, 13824, Note_off_c, 0, 71, 64
2, 13824, Note_on_c, 0, 67, 64
2, 13824, Note_on_c, 0, 64, 64
2, 13824, Note_on_c, 0, 72, 64
2, 13920, Note_off_c, 0, 72, 64
2, 13920, Note_on_c, 0, 72, 64
2, 14016, Note_off_c, 0, 72, 64
2, 14016, Note_on_c, 0, 72, 64
2, 14112, Note_off_c, 0, 72, 64
2, 14112, Note_on_c, 0, 72, 64
2, 14208, Note_off_c, 0, 67, 64
2, 14208, Note_off_c, 0, 64, 64
2, 14208, Note_off_c, 0, 72, 64
2, 14208, Note_on_c, 0, 71, 64
2, 14304, Note_off_c, 0, 71, 64
2, 14304, Note_on_c, 0, 72, 64
2, 14496, Note_off_c, 0, 72, 64
2, 14496, Note_on_c, 0, 69, 64
2, 14544, Note_off_c, 0, 69, 64
2, 14544, Note_on_c, 0, 71, 64
2, 14592, Note_off_c, 0, 71, 64
2, 14592, Note_on_c, 0, 65, 64
2, 14592, Note_on_c, 0, 63, 64
2, 14592, Note_on_c, 0, 72, 64
2, 14688, Note_off_c, 0, 72, 64
2, 14688, Note_on_c, 0, 72, 64
2, 14784, Note_off_c, 0, 72, 64
2, 14784, Note_on_c, 0, 72, 64
2, 14880, Note_off_c, 0, 72, 64
2, 14880, Note_on_c, 0, 72, 64
2, 14976, Note_off_c, 0, 65, 64
2, 14976, Note_off_c, 0, 63, 64
2, 14976, Note_off_c, 0, 72, 64
2, 14976, Note_on_c, 0, 65, 64
2, 14976, Note_on_c, 0, 72, 64
2, 15072, Note_off_c, 0, 72, 64
2, 15072, Note_on_c, 0, 79, 64
2, 15264, Note_off_c, 0, 79, 64
2, 15264, Note_on_c, 0, 77, 64
2, 15312, Note_off_c, 0, 77, 64
2, 15312, Note_on_c, 0, 75, 64
2, 15360, Note_off_c, 0, 65, 64
2, 15360, Note_off_c, 0, 75, 64
2, 15360, Note_on_c, 0, 74, 64
2, 15360, Note_on_c, 0, 68, 64
2, 15744, Note_off_c, 0, 74, 64
2, 15744, Note_off_c, 0, 68, 64
2, 15744, Note_on_c, 0, 71, 64
2, 15744, Note_on_c, 0, 68, 64
2, 15744, Note_on_c, 0, 64, 64
2, 15744, Note_on_c, 0, 76, 64
2, 15936, Note_off_c, 0, 76, 64
2, 15936, Note_on_c, 0, 77, 64
2, 15936, Note_on_c, 0, 65, 64
2, 16128, Note_off_c, 0, 71, 64
2, 16128, Note_off_c, 0, 68, 64
2, 16128, Note_off_c, 0, 64, 64
2, 16128, Note_off_c, 0, 77, 64
2, 16128, Note_off_c, 0, 65, 64
2, 16128, Note_on_c, 0, 79, 64
2, 16128, Note_on_c, 0, 74, 64
2, 16128, Note_on_c, 0, 72, 64
2, 16128, Note_on_c, 0, 69, 64
2, 16224, Note_off_c, 0, 79, 64
2, 16224, Note_off_c, 0, 74, 64
2, 16224, Note_off_c, 0, 72, 64
2, 16224, Note_off_c, 0, 69, 64
2, 16224, Note_on_c, 0, 79, 64
2, 16224, Note_on_c, 0, 74, 64
2, 16224, Note_on_c, 0, 72, 64
2, 16224, Note_on_c, 0, 69, 64
2, 16416, Note_off_c, 0, 79, 64
2, 16416, Note_off_c, 0, 74, 64
2, 16416, Note_off_c, 0, 72, 64
2, 16416, Note_off_c, 0, 69, 64
2, 16416, Note_on_c, 0, 79, 64
2, 16416, Note_on_c, 0, 74, 64
2, 16416, Note_on_c, 0, 72, 64
2, 16416, Note_on_c, 0, 69, 64
2, 16512, Note_off_c, 0, 79, 64
2, 16512, Note_off_c, 0, 74, 64
2, 16512, Note_off_c, 0, 72, 64
2, 16512, Note_off_c, 0, 69, 64
2, 16512, Note_on_c, 0, 79, 64
2, 16512, Note_on_c, 0, 71, 64
2, 16512, Note_on_c, 0, 68, 64
2, 16608, Note_off_c, 0, 79, 64
2, 16608, Note_off_c, 0, 71, 64
2, 16608, Note_off_c, 0, 68, 64
2, 16608, Note_on_c, 0, 77, 64
2, 16608, Note_on_c, 0, 74, 64
2, 16704, Note_off_c, 0, 77, 64
2, 16704, Note_off_c, 0, 74, 64
2, 16704, Note_on_c, 0, 76, 64
2, 16704, Note_on_c, 0, 72, 64
2, 16800, Note_off_c, 0, 76, 64
2, 16800, Note_off_c, 0, 72, 64
2, 16800, Note_on_c, 0, 74, 64
2, 16800, Note_on_c, 0, 71, 64
2, 16896, Note_off_c, 0, 74, 64
2, 16896, Note_off_c, 0, 71, 64
2, 16896, Note_on_c, 0, 74, 64
2, 16896, Note_on_c, 0, 71, 64
2, 16992, Note_off_c, 0, 74, 64
2, 16992, Note_off_c, 0, 71, 64
2, 16992, Note_on_c, 0, 76, 64
2, 16992, Note_on_c, 0, 72, 64
2, 17040, Note_off_c, 0, 76, 64
2, 17040, Note_off_c, 0, 72, 64
2, 17040, Note_on_c, 0, 72, 64
2, 17040, Note_on_c, 0, 69, 64
2, 17280, Note_off_c, 0, 72, 64
2, 17280, Note_off_c, 0, 69, 64
2, 17280, Note_on_c, 0, 65, 64
2, 17280, Note_on_c, 0, 62, 64
2, 17280, Note_on_c, 0, 58, 64
2, 17376, Note_on_c, 0, 57, 64
2, 17378, Note_off_c, 0, 58, 64
2, 17472, Note_off_c, 0, 65, 64
2, 17472, Note_off_c, 0, 62, 64
2, 17472, Note_off_c, 0, 57, 64
2, 17472, Note_on_c, 0, 60, 64
2, 17472, Note_on_c, 0, 58, 64
2, 17472, Note_on_c, 0, 64, 64
2, 17568, Note_off_c, 0, 64, 64
2, 17568, Note_on_c, 0, 76, 64
2, 17568, Note_on_c, 0, 64, 64
2, 17616, Note_off_c, 0, 76, 64
2, 17616, Note_off_c, 0, 64, 64
2, 17616, Note_on_c, 0, 77, 64
2, 17616, Note_on_c, 0, 65, 64
2, 17664, Note_off_c, 0, 60, 64
2, 17664, Note_off_c, 0, 58, 64
2, 17664, Note_off_c, 0, 77, 64
2, 17664, Note_off_c, 0, 65, 64
2, 17664, Note_on_c, 0, 79, 64
2, 17664, Note_on_c, 0, 74, 64
2, 17664, Note_on_c, 0, 72, 64
2, 17664, Note_on_c, 0, 69, 64
2, 17760, Note_off_c, 0, 79, 64
2, 17760, Note_off_c, 0, 74, 64
2, 17760, Note_off_c, 0, 72, 64
2, 17760, Note_off_c, 0, 69, 64
2, 17760, Note_on_c, 0, 79, 64
2, 17760, Note_on_c, 0, 74, 64
2, 17760, Note_on_c, 0, 72, 64
2, 17760, Note_on_c, 0, 69, 64
2, 17856, Note_off_c, 0, 79, 64
2, 17856, Note_off_c, 0, 74, 64
2, 17856, Note_off_c, 0, 72, 64
2, 17856, Note_off_c, 0, 69, 64
2, 17856, Note_on_c, 0, 79, 64
2, 17856, Note_on_c, 0, 74, 64
2, 17856, Note_on_c, 0, 72, 64
2, 17856, Note_on_c, 0, 69, 64
2, 17952, Note_off_c, 0, 79, 64
2, 17952, Note_off_c, 0, 74, 64
2, 17952, Note_off_c, 0, 72, 64
2, 17952, Note_off_c, 0, 69, 64
2, 17952, Note_on_c, 0, 79, 64
2, 17952, Note_on_c, 0, 74, 64
2, 17952, Note_on_c, 0, 72, 64
2, 17952, Note_on_c, 0, 69, 64
2, 18048, Note_off_c, 0, 79, 64
2, 18048, Note_off_c, 0, 74, 64
2, 18048, Note_off_c, 0, 72, 64
2, 18048, Note_off_c, 0, 69, 64
2, 18048, Note_on_c, 0, 79, 64
2, 18048, Note_on_c, 0, 71, 64
2, 18048, Note_on_c, 0, 68, 64
2, 18144, Note_off_c, 0, 79, 64
2, 18144, Note_off_c, 0, 71, 64
2, 18144, Note_off_c, 0, 68, 64
2, 18144, Note_on_c, 0, 77, 64
2, 18144, Note_on_c, 0, 74, 64
2, 18240, Note_off_c, 0, 77, 64
2, 18240, Note_off_c, 0, 74, 64
2, 18240, Note_on_c, 0, 76, 64
2, 18240, Note_on_c, 0, 72, 64
2, 18336, Note_off_c, 0, 76, 64
2, 18336, Note_off_c, 0, 72, 64
2, 18336, Note_on_c, 0, 74, 64
2, 18336, Note_on_c, 0, 71, 64
2, 18432, Note_off_c, 0, 74, 64
2, 18432, Note_off_c, 0, 71, 64
2, 18432, Note_on_c, 0, 74, 64
2, 18432, Note_on_c, 0, 71, 64
2, 18528, Note_off_c, 0, 74, 64
2, 18528, Note_off_c, 0, 71, 64
2, 18528, Note_on_c, 0, 76, 64
2, 18528, Note_on_c, 0, 72, 64
2, 19008, Note_off_c, 0, 76, 64
2, 19008, Note_off_c, 0, 72, 64
2, 19008, Note_on_c, 0, 72, 64
2, 19104, Note_off_c, 0, 72, 64
2, 19104, Note_on_c, 0, 74, 64
2, 19200, Note_off_c, 0, 74, 64
2, 19200, Note_on_c, 0, 76, 64
2, 19200, Note_on_c, 0, 72, 64
2, 19200, Note_on_c, 0, 71, 64
2, 19200, Note_on_c, 0, 66, 64
2, 19488, Note_off_c, 0, 76, 64
2, 19488, Note_off_c, 0, 72, 64
2, 19488, Note_off_c, 0, 71, 64
2, 19488, Note_off_c, 0, 66, 64
2, 19488, Note_on_c, 0, 69, 64
2, 19584, Note_off_c, 0, 69, 64
2, 19584, Note_on_c, 0, 72, 64
2, 19968, Note_off_c, 0, 72, 64
2, 19968, Note_on_c, 0, 64, 64
2, 19968, Note_on_c, 0, 60, 64
2, 19968, Note_on_c, 0, 57, 64
2, 20160, Note_off_c, 0, 64, 64
2, 20160, Note_off_c, 0, 60, 64
2, 20160, Note_off_c, 0, 57, 64
2, 20160, Note_on_c, 0, 65, 64
2, 20160, Note_on_c, 0, 57, 64
2, 20352, Note_off_c, 0, 65, 64
2, 20352, Note_off_c, 0, 57, 64
2, 20352, Note_on_c, 0, 62, 64
2, 20352, Note_on_c, 0, 57, 64
2, 20352, Note_on_c, 0, 53, 64
2, 20544, Note_off_c, 0, 62, 64
2, 20544, Note_off_c, 0, 57, 64
2, 20544, Note_off_c, 0, 53, 64
2, 20544, Note_on_c, 0, 72, 64
2, 20640, Note_off_c, 0, 72, 64
2, 20640, Note_on_c, 0, 74, 64
2, 20736, Note_off_c, 0, 74, 64
2, 20736, Note_on_c, 0, 76, 64
2, 20736, Note_on_c, 0, 71, 64
2, 20736, Note_on_c, 0, 66, 64
2, 21024, Note_off_c, 0, 76, 64
2, 21024, Note_off_c, 0, 71, 64
2, 21024, Note_off_c, 0, 66, 64
2, 21024, Note_on_c, 0, 69, 64
2, 21120, Note_off_c, 0, 69, 64
2, 21120, Note_on_c, 0, 72, 64
2, 21504, Note_off_c, 0, 72, 64
2, 21504, Note_on_c, 0, 69, 64
2, 21504, Note_on_c, 0, 65, 64
2, 21504, Note_on_c, 0, 62, 64
2, 21504, Note_on_c, 0, 60, 64
2, 22080, Note_off_c, 0, 69, 64
2, 22080, Note_off_c, 0, 65, 64
2, 22080, Note_off_c, 0, 62, 64
2, 22080, Note_off_c, 0, 60, 64
2, 22080, Note_on_c, 0, 81, 64
2, 22176, Note_off_c, 0, 81, 64
2, 22176, Note_on_c, 0, 83, 64
2, 22224, Note_off_c, 0, 83, 64
2, 22224, Note_on_c, 0, 76, 64
2, 22272, Note_off_c, 0, 76, 64
2, 22272, Note_on_c, 0, 84, 64
2, 22368, Note_off_c, 0, 84, 64
2, 22368, Note_on_c, 0, 84, 64
2, 22464, Note_off_c, 0, 84, 64
2, 22464, Note_on_c, 0, 86, 64
2, 22560, Note_off_c, 0, 86, 64
2, 22560, Note_on_c, 0, 84, 64
2, 22656, Note_off_c, 0, 84, 64
2, 22656, Note_on_c, 0, 83, 64
2, 22848, Note_off_c, 0, 83, 64
2, 22848, Note_on_c, 0, 76, 64
2, 22944, Note_off_c, 0, 76, 64
2, 22944, Note_on_c, 0, 79, 64
2, 22992, Note_off_c, 0, 79, 64
2, 22992, Note_on_c, 0, 76, 64
2, 23040, Note_off_c, 0, 76, 64
2, 23040, Note_on_c, 0, 81, 64
2, 23136, Note_off_c, 0, 81, 64
2, 23136, Note_on_c, 0, 81, 64
2, 23232, Note_off_c, 0, 81, 64
2, 23232, Note_on_c, 0, 79, 64
2, 23328, Note_off_c, 0, 79, 64
2, 23328, Note_on_c, 0, 77, 64
2, 23424, Note_off_c, 0, 77, 64
2, 23424, Note_on_c, 0, 79, 64
2, 23712, Note_off_c, 0, 79, 64
2, 23712, Note_on_c, 0, 67, 64
2, 23808, Note_off_c, 0, 67, 64
2, 23808, Note_on_c, 0, 67, 64
2, 23904, Note_off_c, 0, 67, 64
2, 23904, Note_on_c, 0, 65, 64
2, 24000, Note_off_c, 0, 65, 64
2, 24000, Note_on_c, 0, 65, 64
2, 24096, Note_off_c, 0, 65, 64
2, 24096, Note_on_c, 0, 63, 64
2, 24192, Note_off_c, 0, 63, 64
2, 24192, Note_on_c, 0, 65, 64
2, 24384, Note_off_c, 0, 65, 64
2, 24384, Note_on_c, 0, 60, 64
2, 24480, Note_off_c, 0, 60, 64
2, 24480, Note_on_c, 0, 65, 64
2, 24576, Note_off_c, 0, 65, 64
2, 24576, Note_on_c, 0, 67, 64
2, 24576, Note_on_c, 0, 63, 64
2, 24576, Note_on_c, 0, 59, 64
2, 24864, Note_off_c, 0, 67, 64
2, 24864, Note_off_c, 0, 63, 64
2, 24864, Note_off_c, 0, 59, 64
2, 24864, Note_on_c, 0, 68, 64
2, 24864, Note_on_c, 0, 65, 64
2, 24864, Note_on_c, 0, 59, 64
2, 24960, Note_off_c, 0, 68, 64
2, 24960, Note_off_c, 0, 65, 64
2, 24960, Note_off_c, 0, 59, 64
2, 24960, Note_on_c, 0, 67, 64
2, 24960, Note_on_c, 0, 62, 64
2, 24960, Note_on_c, 0, 59, 64
2, 25152, Note_off_c, 0, 67, 64
2, 25152, Note_off_c, 0, 62, 64
2, 25152, Note_off_c, 0, 59, 64
2, 25152, Note_on_c, 0, 81, 64
2, 25152, Note_on_c, 0, 69, 64
2, 25248, Note_off_c, 0, 81, 64
2, 25248, Note_off_c, 0, 69, 64
2, 25248, Note_on_c, 0, 83, 64
2, 25248, Note_on_c, 0, 71, 64
2, 25344, Note_off_c, 0, 83, 64
2, 25344, Note_off_c, 0, 71, 64
2, 25344, Note_on_c, 0, 72, 64
2, 25360, Note_on_c, 0, 76, 64
2, 25374, Note_on_c, 0, 81, 64
2, 25390, Note_on_c, 0, 84, 64
2, 25440, Note_off_c, 0, 84, 64
2, 25440, Note_off_c, 0, 76, 64
2, 25440, Note_off_c, 0, 72, 64
2, 25440, Note_on_c, 0, 84, 64
2, 25440, Note_off_c, 0, 81, 64
2, 25440, Note_on_c, 0, 81, 64
2, 25440, Note_on_c, 0, 76, 64
2, 25440, Note_on_c, 0, 72, 64
2, 25536, Note_off_c, 0, 84, 64
2, 25536, Note_off_c, 0, 81, 64
2, 25536, Note_off_c, 0, 76, 64
2, 25536, Note_off_c, 0, 72, 64
2, 25536, Note_on_c, 0, 86, 64
2, 25536, Note_on_c, 0, 74, 64
2, 25632, Note_off_c, 0, 86, 64
2, 25632, Note_off_c, 0, 74, 64
2, 25632, Note_on_c, 0, 84, 64
2, 25632, Note_on_c, 0, 72, 64
2, 25728, Note_off_c, 0, 84, 64
2, 25728, Note_off_c, 0, 72, 64
2, 25728, Note_on_c, 0, 83, 64
2, 25728, Note_on_c, 0, 79, 64
2, 25728, Note_on_c, 0, 76, 64
2, 25728, Note_on_c, 0, 71, 64
2, 25920, Note_off_c, 0, 83, 64
2, 25920, Note_off_c, 0, 79, 64
2, 25920, Note_off_c, 0, 76, 64
2, 25920, Note_off_c, 0, 71, 64
2, 25920, Note_on_c, 0, 76, 64
2, 25920, Note_on_c, 0, 64, 64
2, 26016, Note_off_c, 0, 76, 64
2, 26016, Note_off_c, 0, 64, 64
2, 26016, Note_on_c, 0, 79, 64
2, 26016, Note_on_c, 0, 67, 64
2, 26112, Note_off_c, 0, 79, 64
2, 26112, Note_off_c, 0, 67, 64
2, 26112, Note_on_c, 0, 69, 64
2, 26128, Note_on_c, 0, 72, 64
2, 26142, Note_on_c, 0, 81, 64
2, 26208, Note_off_c, 0, 69, 64
2, 26208, Note_off_c, 0, 81, 64
2, 26208, Note_on_c, 0, 81, 64
2, 26208, Note_on_c, 0, 69, 64
2, 26224, Note_off_c, 0, 72, 64
2, 26304, Note_off_c, 0, 81, 64
2, 26304, Note_off_c, 0, 69, 64
2, 26304, Note_on_c, 0, 79, 64
2, 26304, Note_on_c, 0, 67, 64
2, 26400, Note_off_c, 0, 79, 64
2, 26400, Note_off_c, 0, 67, 64
2, 26400, Note_on_c, 0, 77, 64
2, 26400, Note_on_c, 0, 65, 64
2, 26496, Note_off_c, 0, 77, 64
2, 26496, Note_off_c, 0, 65, 64
2, 26496, Note_on_c, 0, 79, 64
2, 26496, Note_on_c, 0, 74, 64
2, 26496, Note_on_c, 0, 72, 64
2, 26496, Note_on_c, 0, 67, 64
2, 26784, Note_off_c, 0, 79, 64
2, 26784, Note_off_c, 0, 74, 64
2, 26784, Note_off_c, 0, 72, 64
2, 26784, Note_off_c, 0, 67, 64
2, 26784, Note_on_c, 0, 79, 64
2, 26784, Note_on_c, 0, 67, 64
2, 26880, Note_off_c, 0, 79, 64
2, 26880, Note_off_c, 0, 67, 64
2, 26880, Note_on_c, 0, 79, 64
2, 26880, Note_on_c, 0, 67, 64
2, 26976, Note_off_c, 0, 79, 64
2, 26976, Note_off_c, 0, 67, 64
2, 26976, Note_on_c, 0, 77, 64
2, 26976, Note_on_c, 0, 65, 64
2, 27072, Note_off_c, 0, 77, 64
2, 27072, Note_off_c, 0, 65, 64
2, 27072, Note_on_c, 0, 77, 64
2, 27072, Note_on_c, 0, 65, 64
2, 27168, Note_off_c, 0, 77, 64
2, 27168, Note_off_c, 0, 65, 64
2, 27168, Note_on_c, 0, 75, 64
2, 27168, Note_on_c, 0, 63, 64
2, 27264, Note_off_c, 0, 75, 64
2, 27264, Note_off_c, 0, 63, 64
2, 27264, Note_on_c, 0, 77, 64
2, 27264, Note_on_c, 0, 65, 64
2, 27456, Note_off_c, 0, 77, 64
2, 27456, Note_off_c, 0, 65, 64
2, 27456, Note_on_c, 0, 79, 64
2, 27456, Note_on_c, 0, 67, 64
2, 27552, Note_off_c, 0, 79, 64
2, 27552, Note_off_c, 0, 67, 64
2, 27552, Note_on_c, 0, 80, 64
2, 27552, Note_on_c, 0, 68, 64
2, 27648, Note_off_c, 0, 80, 64
2, 27648, Note_off_c, 0, 68, 64
2, 27648, Note_on_c, 0, 82, 64
2, 27648, Note_on_c, 0, 70, 64
2, 27744, Note_off_c, 0, 82, 64
2, 27744, Note_off_c, 0, 70, 64
2, 27744, Note_on_c, 0, 80, 64
2, 27744, Note_on_c, 0, 68, 64
2, 27840, Note_off_c, 0, 80, 64
2, 27840, Note_off_c, 0, 68, 64
2, 27840, Note_on_c, 0, 80, 64
2, 27840, Note_on_c, 0, 68, 64
2, 27936, Note_off_c, 0, 80, 64
2, 27936, Note_off_c, 0, 68, 64
2, 27936, Note_on_c, 0, 79, 64
2, 27936, Note_on_c, 0, 67, 64
2, 28032, Note_off_c, 0, 79, 64
2, 28032, Note_off_c, 0, 67, 64
2, 28032, Note_on_c, 0, 80, 64
2, 28032, Note_on_c, 0, 68, 64
2, 28224, Note_off_c, 0, 80, 64
2, 28224, Note_off_c, 0, 68, 64
2, 28224, Note_on_c, 0, 79, 64
2, 28224, Note_on_c, 0, 67, 64
2, 28288, Note_off_c, 0, 79, 64
2, 28288, Note_off_c, 0, 67, 64
2, 28288, Note_on_c, 0, 80, 64
2, 28288, Note_on_c, 0, 68, 64
2, 28354, Note_off_c, 0, 80, 64
2, 28354, Note_off_c, 0, 68, 64
2, 28354, Note_on_c, 0, 82, 64
2, 28354, Note_on_c, 0, 70, 64
2, 28416, Note_on_c, 0, 72, 64
2, 28418, Note_off_c, 0, 82, 64
2, 28418, Note_off_c, 0, 70, 64
2, 28432, Note_on_c, 0, 77, 64
2, 28446, Note_on_c, 0, 80, 64
2, 28462, Note_on_c, 0, 84, 64
2, 28802, Note_off_c, 0, 72, 64
2, 28818, Note_off_c, 0, 77, 64
2, 28832, Note_off_c, 0, 80, 64
2, 28848, Note_off_c, 0, 84, 64
2, 28992, Note_on_c, 0, 80, 64
2, 28992, Note_on_c, 0, 68, 64
2, 29088, Note_off_c, 0, 80, 64
2, 29088, Note_off_c, 0, 68, 64
2, 29088, Note_on_c, 0, 82, 64
2, 29088, Note_on_c, 0, 70, 64
2, 29184, Note_off_c, 0, 82, 64
2, 29184, Note_off_c, 0, 70, 64
2, 29184, Note_on_c, 0, 72, 64
2, 29200, Note_on_c, 0, 77, 64
2, 29214, Note_on_c, 0, 80, 64
2, 29230, Note_on_c, 0, 84, 64
2, 29568, Note_off_c, 0, 72, 64
2, 29584, Note_off_c, 0, 77, 64
2, 29598, Note_off_c, 0, 80, 64
2, 29614, Note_off_c, 0, 84, 64
2, 29664, Note_on_c, 0, 84, 64
2, 29664, Note_on_c, 0, 72, 64
2, 29760, Note_off_c, 0, 84, 64
2, 29760, Note_off_c, 0, 72, 64
2, 29760, Note_on_c, 0, 83, 64
2, 29760, Note_on_c, 0, 71, 64
2, 29856, Note_off_c, 0, 83, 64
2, 29856, Note_off_c, 0, 71, 64
2, 29856, Note_on_c, 0, 84, 64
2, 29856, Note_on_c, 0, 72, 64
2, 29952, Note_off_c, 0, 84, 64
2, 29952, Note_off_c, 0, 72, 64
2, 29952, Note_on_c, 0, 74, 64
2, 29968, Note_on_c, 0, 86, 64
2, 30336, Note_off_c, 0, 74, 64
2, 30352, Note_off_c, 0, 86, 64
2, 30432, Note_on_c, 0, 79, 64
2, 30528, Note_off_c, 0, 79, 64
2, 30528, Note_on_c, 0, 84, 64
2, 30624, Note_off_c, 0, 84, 64
2, 30624, Note_on_c, 0, 83, 64
2, 30720, Note_off_c, 0, 83, 64
2, 30720, Note_on_c, 0, 84, 64
2, 31008, Note_off_c, 0, 84, 64
2, 31008, Note_on_c, 0, 76, 64
2, 31104, Note_off_c, 0, 76, 64
2, 31104, Note_on_c, 0, 76, 64
2, 31200, Note_off_c, 0, 76, 64
2, 31200, Note_on_c, 0, 74, 64
2, 31296, Note_off_c, 0, 74, 64
2, 31296, Note_on_c, 0, 76, 64
2, 31392, Note_off_c, 0, 76, 64
2, 31392, Note_on_c, 0, 81, 64
2, 31488, Note_off_c, 0, 81, 64
2, 31488, Note_on_c, 0, 76, 64
2, 31584, Note_off_c, 0, 76, 64
2, 31584, Note_on_c, 0, 81, 64
2, 31680, Note_off_c, 0, 81, 64
2, 31680, Note_on_c, 0, 81, 64
2, 31776, Note_off_c, 0, 81, 64
2, 31776, Note_on_c, 0, 81, 64
2, 31872, Note_off_c, 0, 81, 64
2, 31872, Note_on_c, 0, 81, 64
2, 31968, Note_off_c, 0, 81, 64
2, 31968, Note_on_c, 0, 79, 64
2, 32064, Note_off_c, 0, 79, 64
2, 32064, Note_on_c, 0, 81, 64
2, 32160, Note_off_c, 0, 81, 64
2, 32160, Note_on_c, 0, 86, 64
2, 32256, Note_off_c, 0, 86, 64
2, 32256, Note_on_c, 0, 83, 64
2, 32448, Note_off_c, 0, 83, 64
2, 32448, Note_on_c, 0, 81, 64
2, 32544, Note_off_c, 0, 81, 64
2, 32544, Note_on_c, 0, 84, 64
2, 32544, Note_on_c, 0, 79, 64
2, 32544, Note_on_c, 0, 74, 64
2, 33216, Note_off_c, 0, 84, 64
2, 33216, Note_off_c, 0, 79, 64
2, 33216, Note_off_c, 0, 74, 64
2, 33216, Note_on_c, 0, 83, 64
2, 33408, Note_off_c, 0, 83, 64
2, 33408, Note_on_c, 0, 79, 64
2, 33600, Note_off_c, 0, 79, 64
2, 33600, Note_on_c, 0, 81, 64
2, 34176, Note_off_c, 0, 81, 64
2, 34368, Note_on_c, 0, 88, 64
2, 34368, Note_on_c, 0, 79, 64
2, 34752, Note_off_c, 0, 88, 64
2, 34752, Note_off_c, 0, 79, 64
2, 34752, Note_on_c, 0, 86, 64
2, 34752, Note_on_c, 0, 77, 64
2, 34940, Note_on_c, 0, 84, 64
2, 34940, Note_on_c, 0, 72, 64
2, 34944, Note_off_c, 0, 86, 64
2, 34944, Note_off_c, 0, 77, 64
2, 35126, Note_on_c, 0, 86, 64
2, 35126, Note_on_c, 0, 74, 64
2, 35132, Note_off_c, 0, 84, 64
2, 35132, Note_off_c, 0, 72, 64
2, 35688, Control_c, 0, 64, 127
2, 35688, Note_on_c, 0, 64, 64
2, 35688, Note_on_c, 0, 59, 64
2, 35688, Note_on_c, 0, 57, 64
2, 35702, Note_off_c, 0, 86, 64
2, 35702, Note_off_c, 0, 74, 64
2, 36456, Note_off_c, 0, 64, 64
2, 36456, Note_off_c, 0, 59, 64
2, 36456, Note_off_c, 0, 57, 64
2, 36456, Note_on_c, 0, 67, 64
2, 36456, Note_on_c, 0, 62, 64
2, 36456, Note_on_c, 0, 60, 64
2, 36456, Note_on_c, 0, 55, 64
2, 37224, Note_off_c, 0, 67, 64
2, 37224, Note_off_c, 0, 62, 64
2, 37224, Note_off_c, 0, 60, 64
2, 37224, Note_off_c, 0, 55, 64
2, 37416, Note_on_c, 0, 70, 64
2, 37416, Note_on_c, 0, 65, 64
2, 37416, Note_on_c, 0, 60, 64
2, 37800, Note_off_c, 0, 70, 64
2, 37800, Note_off_c, 0, 65, 64
2, 37800, Note_off_c, 0, 60, 64
2, 37800, Note_on_c, 0, 70, 64
2, 37800, Note_on_c, 0, 65, 64
2, 37800, Note_on_c, 0, 60, 64
2, 37992, Note_off_c, 0, 70, 64
2, 37992, Note_off_c, 0, 65, 64
2, 37992, Note_off_c, 0, 60, 64
2, 37992, Note_on_c, 0, 72, 64
2, 37992, Note_on_c, 0, 67, 64
2, 37992, Note_on_c, 0, 64, 64
2, 37992, Note_on_c, 0, 62, 64
2, 38760, Note_off_c, 0, 72, 64
2, 38760, Note_off_c, 0, 67, 64
2, 38760, Note_off_c, 0, 64, 64
2, 38760, Note_off_c, 0, 62, 64
2, 38784, Note_on_c, 0, 76, 64
2, 38880, Note_off_c, 0, 76, 64
2, 38880, Note_on_c, 0, 74, 64
2, 38976, Note_off_c, 0, 74, 64
2, 38976, Note_on_c, 0, 76, 64
2, 39072, Note_off_c, 0, 76, 64
2, 39072, Note_on_c, 0, 81, 64
2, 39168, Note_off_c, 0, 81, 64
2, 39168, Note_on_c, 0, 76, 64
2, 39552, Note_off_c, 0, 76, 64
2, 39552, Note_on_c, 0, 74, 64
2, 39648, Note_off_c, 0, 74, 64
2, 39648, Note_on_c, 0, 72, 64
2, 39744, Note_off_c, 0, 72, 64
2, 39744, Note_on_c, 0, 74, 64
2, 39840, Note_off_c, 0, 74, 64
2, 39840, Note_on_c, 0, 79, 64
2, 39936, Note_off_c, 0, 79, 64
2, 39936, Note_on_c, 0, 74, 64
2, 40224, Note_off_c, 0, 74, 64
2, 40224, Note_on_c, 0, 69, 64
2, 40272, Note_off_c, 0, 69, 64
2, 40272, Note_on_c, 0, 71, 64
2, 40320, Note_off_c, 0, 71, 64
2, 40320, Note_on_c, 0, 72, 64
2, 40680, Control_c, 0, 64, 127
2, 40704, Note_off_c, 0, 72, 64
2, 40704, Note_on_c, 0, 69, 64
2, 40800, Note_off_c, 0, 69, 64
2, 40800, Note_on_c, 0, 71, 64
2, 40896, Note_off_c, 0, 71, 64
2, 40896, Note_on_c, 0, 72, 64
2, 40984, Control_c, 0, 64, 0
2, 40992, Note_off_c, 0, 72, 64
2, 40992, Note_on_c, 0, 74, 64
2, 41088, Note_off_c, 0, 74, 64
2, 41088, Note_on_c, 0, 76, 64
2, 41088, Note_on_c, 0, 69, 64
2, 41088, Note_on_c, 0, 66, 64
2, 41472, Note_off_c, 0, 76, 64
2, 41472, Note_off_c, 0, 69, 64
2, 41472, Note_off_c, 0, 66, 64
2, 41472, Note_on_c, 0, 68, 64
2, 41472, Note_on_c, 0, 62, 64
2, 41664, Note_on_c, 0, 81, 64
2, 41760, Note_off_c, 0, 81, 64
2, 41760, Note_on_c, 0, 83, 64
2, 41856, Note_off_c, 0, 68, 64
2, 41856, Note_off_c, 0, 62, 64
2, 41856, Note_off_c, 0, 83, 64
2, 41856, Note_on_c, 0, 84, 64
2, 41856, Note_on_c, 0, 81, 64
2, 41904, Note_off_c, 0, 81, 64
2, 41904, Note_on_c, 0, 72, 64
2, 41952, Note_off_c, 0, 84, 64
2, 41952, Note_off_c, 0, 72, 64
2, 41952, Note_on_c, 0, 84, 64
2, 41952, Note_on_c, 0, 81, 64
2, 42000, Note_off_c, 0, 81, 64
2, 42000, Note_on_c, 0, 72, 64
2, 42048, Note_off_c, 0, 84, 64
2, 42048, Note_off_c, 0, 72, 64
2, 42048, Note_on_c, 0, 86, 64
2, 42048, Note_on_c, 0, 83, 64
2, 42096, Note_off_c, 0, 83, 64
2, 42096, Note_on_c, 0, 74, 64
2, 42144, Note_off_c, 0, 86, 64
2, 42144, Note_off_c, 0, 74, 64
2, 42144, Note_on_c, 0, 84, 64
2, 42144, Note_on_c, 0, 81, 64
2, 42192, Note_off_c, 0, 81, 64
2, 42192, Note_on_c, 0, 72, 64
2, 42240, Note_off_c, 0, 84, 64
2, 42240, Note_off_c, 0, 72, 64
2, 42240, Note_on_c, 0, 83, 64
2, 42240, Note_on_c, 0, 79, 64
2, 42288, Note_off_c, 0, 79, 64
2, 42288, Note_on_c, 0, 71, 64
2, 42336, Note_off_c, 0, 83, 64
2, 42336, Note_off_c, 0, 71, 64
2, 42336, Note_on_c, 0, 83, 64
2, 42336, Note_on_c, 0, 79, 64
2, 42384, Note_off_c, 0, 79, 64
2, 42384, Note_on_c, 0, 71, 64
2, 42432, Note_off_c, 0, 83, 64
2, 42432, Note_off_c, 0, 71, 64
2, 42432, Note_on_c, 0, 76, 64
2, 42480, Note_off_c, 0, 76, 64
2, 42480, Note_on_c, 0, 71, 64
2, 42528, Note_off_c, 0, 71, 64
2, 42528, Note_on_c, 0, 79, 64
2, 42576, Note_off_c, 0, 79, 64
2, 42576, Note_on_c, 0, 71, 64
2, 42624, Note_off_c, 0, 71, 64
2, 42624, Note_on_c, 0, 81, 64
2, 42624, Note_on_c, 0, 77, 64
2, 42672, Note_off_c, 0, 77, 64
2, 42672, Note_on_c, 0, 69, 64
2, 42720, Note_off_c, 0, 81, 64
2, 42720, Note_off_c, 0, 69, 64
2, 42720, Note_on_c, 0, 81, 64
2, 42720, Note_on_c, 0, 77, 64
2, 42768, Note_off_c, 0, 77, 64
2, 42768, Note_on_c, 0, 69, 64
2, 42816, Note_off_c, 0, 81, 64
2, 42816, Note_off_c, 0, 69, 64
2, 42816, Note_on_c, 0, 79, 64
2, 42816, Note_on_c, 0, 76, 64
2, 42864, Note_off_c, 0, 76, 64
2, 42864, Note_on_c, 0, 69, 64
2, 42912, Note_off_c, 0, 79, 64
2, 42912, Note_off_c, 0, 69, 64
2, 42912, Note_on_c, 0, 77, 64
2, 42912, Note_on_c, 0, 74, 64
2, 42960, Note_off_c, 0, 74, 64
2, 42960, Note_on_c, 0, 65, 64
2, 43008, Note_off_c, 0, 77, 64
2, 43008, Note_off_c, 0, 65, 64
2, 43008, Note_on_c, 0, 79, 64
2, 43056, Note_on_c, 0, 67, 64
2, 43104, Note_off_c, 0, 67, 64
2, 43104, Note_on_c, 0, 74, 64
2, 43152, Note_off_c, 0, 74, 64
2, 43152, Note_on_c, 0, 67, 64
2, 43200, Note_off_c, 0, 79, 64
2, 43200, Note_off_c, 0, 67, 64
2, 43200, Note_on_c, 0, 72, 64
2, 43296, Note_off_c, 0, 72, 64
2, 43296, Note_on_c, 0, 67, 64
2, 43392, Note_off_c, 0, 67, 64
2, 43392, Note_on_c, 0, 67, 64
2, 43488, Note_off_c, 0, 67, 64
2, 43488, Note_on_c, 0, 65, 64
2, 43584, Note_off_c, 0, 65, 64
2, 43584, Note_on_c, 0, 65, 64
2, 43680, Note_off_c, 0, 65, 64
2, 43680, Note_on_c, 0, 63, 64
2, 43776, Note_off_c, 0, 63, 64
2, 43776, Note_on_c, 0, 65, 64
2, 43968, Note_off_c, 0, 65, 64
2, 43968, Note_on_c, 0, 60, 64
2, 44064, Note_off_c, 0, 60, 64
2, 44064, Note_on_c, 0, 65, 64
2, 44160, Note_off_c, 0, 65, 64
2, 44160, Note_on_c, 0, 67, 64
2, 44160, Note_on_c, 0, 63, 64
2, 44160, Note_on_c, 0, 59, 64
2, 44448, Note_off_c, 0, 67, 64
2, 44448, Note_off_c, 0, 63, 64
2, 44448, Note_off_c, 0, 59, 64
2, 44448, Note_on_c, 0, 68, 64
2, 44448, Note_on_c, 0, 65, 64
2, 44448, Note_on_c, 0, 59, 64
2, 44544, Note_off_c, 0, 68, 64
2, 44544, Note_off_c, 0, 65, 64
2, 44544, Note_off_c, 0, 59, 64
2, 44544, Note_on_c, 0, 55, 64
2, 44560, Note_on_c, 0, 59, 64
2, 44574, Note_on_c, 0, 62, 64
2, 44590, Note_on_c, 0, 67, 64
2, 44736, Note_off_c, 0, 55, 64
2, 44736, Note_on_c, 0, 81, 64
2, 44736, Note_on_c, 0, 69, 64
2, 44752, Note_off_c, 0, 59, 64
2, 44766, Note_off_c, 0, 62, 64
2, 44782, Note_off_c, 0, 67, 64
2, 44832, Note_off_c, 0, 81, 64
2, 44832, Note_off_c, 0, 69, 64
2, 44832, Note_on_c, 0, 83, 64
2, 44832, Note_on_c, 0, 71, 64
2, 44928, Note_off_c, 0, 83, 64
2, 44928, Note_off_c, 0, 71, 64
2, 44928, Note_on_c, 0, 72, 64
2, 44944, Note_on_c, 0, 76, 64
2, 44958, Note_on_c, 0, 81, 64
2, 44974, Note_on_c, 0, 84, 64
2, 45024, Note_off_c, 0, 84, 64
2, 45024, Note_off_c, 0, 76, 64
2, 45024, Note_off_c, 0, 72, 64
2, 45024, Note_on_c, 0, 84, 64
2, 45024, Note_off_c, 0, 81, 64
2, 45024, Note_on_c, 0, 81, 64
2, 45024, Note_on_c, 0, 76, 64
2, 45024, Note_on_c, 0, 72, 64
2, 45120, Note_off_c, 0, 84, 64
2, 45120, Note_off_c, 0, 81, 64
2, 45120, Note_off_c, 0, 76, 64
2, 45120, Note_off_c, 0, 72, 64
2, 45120, Note_on_c, 0, 86, 64
2, 45120, Note_on_c, 0, 74, 64
2, 45216, Note_off_c, 0, 86, 64
2, 45216, Note_off_c, 0, 74, 64
2, 45216, Note_on_c, 0, 84, 64
2, 45216, Note_on_c, 0, 72, 64
2, 45312, Note_off_c, 0, 84, 64
2, 45312, Note_off_c, 0, 72, 64
2, 45312, Note_on_c, 0, 83, 64
2, 45312, Note_on_c, 0, 79, 64
2, 45312, Note_on_c, 0, 76, 64
2, 45312, Note_on_c, 0, 71, 64
2, 45504, Note_off_c, 0, 83, 64
2, 45504, Note_off_c, 0, 79, 64
2, 45504, Note_off_c, 0, 76, 64
2, 45504, Note_off_c, 0, 71, 64
2, 45504, Note_on_c, 0, 76, 64
2, 45504, Note_on_c, 0, 64, 64
2, 45600, Note_off_c, 0, 76, 64
2, 45600, Note_off_c, 0, 64, 64
2, 45600, Note_on_c, 0, 79, 64
2, 45600, Note_on_c, 0, 67, 64
2, 45696, Note_off_c, 0, 79, 64
2, 45696, Note_off_c, 0, 67, 64
2, 45696, Note_on_c, 0, 69, 64
2, 45712, Note_on_c, 0, 72, 64
2, 45726, Note_on_c, 0, 81, 64
2, 45792, Note_off_c, 0, 69, 64
2, 45792, Note_off_c, 0, 81, 64
2, 45792, Note_on_c, 0, 81, 64
2, 45792, Note_on_c, 0, 69, 64
2, 45808, Note_off_c, 0, 72, 64
2, 45888, Note_off_c, 0, 81, 64
2, 45888, Note_off_c, 0, 69, 64
2, 45888, Note_on_c, 0, 79, 64
2, 45888, Note_on_c, 0, 67, 64
2, 45984, Note_off_c, 0, 79, 64
2, 45984, Note_off_c, 0, 67, 64
2, 45984, Note_on_c, 0, 77, 64
2, 45984, Note_on_c, 0, 65, 64
2, 46080, Note_off_c, 0, 77, 64
2, 46080, Note_off_c, 0, 65, 64
2, 46080, Note_on_c, 0, 79, 64
2, 46080, Note_on_c, 0, 74, 64
2, 46080, Note_on_c, 0, 72, 64
2, 46080, Note_on_c, 0, 67, 64
2, 46368, Note_off_c, 0, 79, 64
2, 46368, Note_off_c, 0, 74, 64
2, 46368, Note_off_c, 0, 72, 64
2, 46368, Note_off_c, 0, 67, 64
2, 46368, Note_on_c, 0, 79, 64
2, 46368, Note_on_c, 0, 67, 64
2, 46464, Note_off_c, 0, 79, 64
2, 46464, Note_off_c, 0, 67, 64
2, 46464, Note_on_c, 0, 79, 64
2, 46464, Note_on_c, 0, 67, 64
2, 46560, Note_off_c, 0, 79, 64
2, 46560, Note_off_c, 0, 67, 64
2, 46560, Note_on_c, 0, 77, 64
2, 46560, Note_on_c, 0, 65, 64
2, 46656, Note_off_c, 0, 77, 64
2, 46656, Note_off_c, 0, 65, 64
2, 46656, Note_on_c, 0, 77, 64
2, 46656, Note_on_c, 0, 65, 64
2, 46752, Note_off_c, 0, 77, 64
2, 46752, Note_off_c, 0, 65, 64
2, 46752, Note_on_c, 0, 75, 64
2, 46752, Note_on_c, 0, 63, 64
2, 46848, Note_off_c, 0, 75, 64
2, 46848, Note_off_c, 0, 63, 64
2, 46848, Note_on_c, 0, 77, 64
2, 46848, Note_on_c, 0, 65, 64
2, 47040, Note_off_c, 0, 77, 64
2, 47040, Note_off_c, 0, 65, 64
2, 47040, Note_on_c, 0, 79, 64
2, 47040, Note_on_c, 0, 67, 64
2, 47136, Note_off_c, 0, 79, 64
2, 47136, Note_off_c, 0, 67, 64
2, 47136, Note_on_c, 0, 80, 64
2, 47136, Note_on_c, 0, 68, 64
2, 47232, Note_off_c, 0, 80, 64
2, 47232, Note_off_c, 0, 68, 64
2, 47232, Note_on_c, 0, 82, 64
2, 47232, Note_on_c, 0, 70, 64
2, 47328, Note_off_c, 0, 82, 64
2, 47328, Note_off_c, 0, 70, 64
2, 47328, Note_on_c, 0, 80, 64
2, 47328, Note_on_c, 0, 68, 64
2, 47424, Note_off_c, 0, 80, 64
2, 47424, Note_off_c, 0, 68, 64
2, 47424, Note_on_c, 0, 80, 64
2, 47424, Note_on_c, 0, 68, 64
2, 47520, Note_off_c, 0, 80, 64
2, 47520, Note_off_c, 0, 68, 64
2, 47520, Note_on_c, 0, 79, 64
2, 47520, Note_on_c, 0, 67, 64
2, 47616, Note_off_c, 0, 79, 64
2, 47616, Note_off_c, 0, 67, 64
2, 47616, Note_on_c, 0, 80, 64
2, 47616, Note_on_c, 0, 68, 64
2, 47808, Note_off_c, 0, 80, 64
2, 47808, Note_off_c, 0, 68, 64
2, 47808, Note_on_c, 0, 79, 64
2, 47808, Note_on_c, 0, 67, 64
2, 47872, Note_off_c, 0, 79, 64
2, 47872, Note_off_c, 0, 67, 64
2, 47872, Note_on_c, 0, 80, 64
2, 47872, Note_on_c, 0, 68, 64
2, 47938, Note_off_c, 0, 80, 64
2, 47938, Note_off_c, 0, 68, 64
2, 47938, Note_on_c, 0, 82, 64
2, 47938, Note_on_c, 0, 70, 64
2, 48000, Note_on_c, 0, 72, 64
2, 48002, Note_off_c, 0, 82, 64
2, 48002, Note_off_c, 0, 70, 64
2, 48016, Note_on_c, 0, 77, 64
2, 48030, Note_on_c, 0, 80, 64
2, 48046, Note_on_c, 0, 84, 64
2, 48386, Note_off_c, 0, 72, 64
2, 48402, Note_off_c, 0, 77, 64
2, 48416, Note_off_c, 0, 80, 64
2, 48432, Note_off_c, 0, 84, 64
2, 48576, Note_on_c, 0, 80, 64
2, 48576, Note_on_c, 0, 68, 64
2, 48672, Note_off_c, 0, 80, 64
2, 48672, Note_off_c, 0, 68, 64
2, 48672, Note_on_c, 0, 82, 64
2, 48672, Note_on_c, 0, 70, 64
2, 48768, Note_off_c, 0, 82, 64
2, 48768, Note_off_c, 0, 70, 64
2, 48768, Note_on_c, 0, 72, 64
2, 48784, Note_on_c, 0, 77, 64
2, 48798, Note_on_c, 0, 80, 64
2, 48814, Note_on_c, 0, 84, 64
2, 49152, Note_off_c, 0, 72, 64
2, 49168, Note_off_c, 0, 77, 64
2, 49182, Note_off_c, 0, 80, 64
2, 49198, Note_off_c, 0, 84, 64
2, 49248, Note_on_c, 0, 84, 64
2, 49248, Note_on_c, 0, 72, 64
2, 49344, Note_off_c, 0, 84, 64
2, 49344, Note_off_c, 0, 72, 64
2, 49344, Note_on_c, 0, 83, 64
2, 49344, Note_on_c, 0, 71, 64
2, 49440, Note_off_c, 0, 83, 64
2, 49440, Note_off_c, 0, 71, 64
2, 49440, Note_on_c, 0, 84, 64
2, 49440, Note_on_c, 0, 72, 64
2, 49536, Note_off_c, 0, 84, 64
2, 49536, Note_off_c, 0, 72, 64
2, 49536, Note_on_c, 0, 74, 64
2, 49552, Note_on_c, 0, 86, 64
2, 49920, Note_off_c, 0, 74, 64
2, 49936, Note_off_c, 0, 86, 64
2, 50016, Note_on_c, 0, 79, 64
2, 50112, Note_off_c, 0, 79, 64
2, 50112, Note_on_c, 0, 84, 64
2, 50186, Note_on_c, 0, 83, 64
2, 50208, Note_off_c, 0, 84, 64
2, 50264, Control_c, 0, 64, 127
2, 50272, Note_on_c, 0, 84, 64
2, 50282, Note_off_c, 0, 83, 64
2, 50536, Control_c, 0, 64, 127
2, 50560, Note_off_c, 0, 84, 64
2, 50560, Note_on_c, 0, 65, 64
2, 50646, Control_c, 0, 64, 127
2, 50656, Note_off_c, 0, 65, 64
2, 50656, Note_on_c, 0, 69, 64
2, 50736, Control_c, 0, 64, 127
2, 50752, Note_off_c, 0, 69, 64
2, 50752, Note_on_c, 0, 71, 64
2, 50848, Note_off_c, 0, 71, 64
2, 50848, Note_on_c, 0, 77, 64
2, 50856, Control_c, 0, 64, 127
2, 50930, Control_c, 0, 64, 127
2, 50944, Note_off_c, 0, 77, 64
2, 50944, Note_on_c, 0, 81, 64
2, 51040, Note_off_c, 0, 81, 64
2, 51040, Control_c, 0, 64, 127
2, 51040, Note_on_c, 0, 83, 64
2, 51108, Control_c, 0, 64, 127
2, 51136, Note_off_c, 0, 83, 64
2, 51136, Note_on_c, 0, 77, 64
2, 51152, Note_on_c, 0, 81, 64
2, 51166, Note_on_c, 0, 83, 64
2, 51182, Note_on_c, 0, 88, 64
2, 54202, Note_off_c, 0, 77, 64
2, 54218, Note_off_c, 0, 81, 64
2, 54252, Note_off_c, 0, 83, 64
2, 54254, Note_off_c, 0, 88, 64
2, 54786, Control_c, 0, 64, 0
2, 54786, Control_c, 0, 123, 0
2, 54786, Control_c, 0, 120, 0
2, 54786, End_track
3, 0, Start_track
3, 0, MIDI_port, 0
3, 0, Title_t, "Piano 1"
3, 0, Control_c, 1, 64, 127
3, 0, Control_c, 1, 0, 0
3, 0, Control_c, 1, 32, 0
3, 0, Program_c, 1, 0
3, 0, Control_c, 1, 10, 64
3, 0, Control_c, 1, 101, 0
3, 0, Control_c, 1, 100, 0
3, 0, Control_c, 1, 6, 24
3, 0, Control_c, 1, 7, 127
3, 0, Pitch_bend_c, 1, 8192
3, 0, Control_c, 1, 10, 64
3, 0, Note_on_c, 1, 65, 64
3, 16, Note_on_c, 1, 72, 64
3, 768, Note_off_c, 1, 65, 64
3, 768, Control_c, 1, 64, 127
3, 768, Note_on_c, 1, 64, 64
3, 784, Note_off_c, 1, 72, 64
3, 784, Note_on_c, 1, 71, 64
3, 1536, Note_off_c, 1, 64, 64
3, 1536, Control_c, 1, 64, 127
3, 1536, Note_on_c, 1, 62, 64
3, 1552, Note_off_c, 1, 71, 64
3, 1552, Note_on_c, 1, 69, 64
3, 1920, Note_off_c, 1, 62, 64
3, 1920, Note_on_c, 1, 61, 64
3, 1936, Note_off_c, 1, 69, 64
3, 1936, Note_on_c, 1, 66, 64
3, 1950, Note_on_c, 1, 71, 64
3, 2304, Control_c, 1, 64, 127
3, 2616, Control_c, 1, 64, 127
3, 3072, Note_off_c, 1, 61, 64
3, 3072, Note_on_c, 1, 64, 64
3, 3072, Note_on_c, 1, 59, 64
3, 3072, Note_on_c, 1, 53, 64
3, 3082, Control_c, 1, 64, 127
3, 3088, Note_off_c, 1, 66, 64
3, 3102, Note_off_c, 1, 71, 64
3, 3840, Control_c, 1, 64, 127
3, 5376, Note_off_c, 1, 64, 64
3, 5376, Note_off_c, 1, 59, 64
3, 5376, Note_off_c, 1, 53, 64
3, 5376, Note_on_c, 1, 64, 64
3, 5376, Note_on_c, 1, 59, 64
3, 5376, Note_on_c, 1, 53, 64
3, 5386, Control_c, 1, 64, 127
3, 6144, Control_c, 1, 64, 127
3, 6912, Note_off_c, 1, 64, 64
3, 6912, Note_off_c, 1, 59, 64
3, 6912, Note_off_c, 1, 53, 64
3, 6912, Control_c, 1, 64, 127
3, 6912, Note_on_c, 1, 65, 64
3, 6912, Note_on_c, 1, 60, 64
3, 6912, Note_on_c, 1, 55, 64
3, 7600, Control_c, 1, 64, 127
3, 7680, Note_off_c, 1, 65, 64
3, 7680, Note_off_c, 1, 60, 64
3, 7680, Note_off_c, 1, 55, 64
3, 7680, Note_on_c, 1, 64, 64
3, 7680, Note_on_c, 1, 59, 64
3, 7680, Note_on_c, 1, 53, 64
3, 8448, Note_off_c, 1, 64, 64
3, 8448, Note_off_c, 1, 59, 64
3, 8448, Note_off_c, 1, 53, 64
3, 8448, Control_c, 1, 64, 127
3, 8448, Note_on_c, 1, 62, 64
3, 8448, Note_on_c, 1, 57, 64
3, 8448, Note_on_c, 1, 52, 64
3, 9064, Control_c, 1, 64, 127
3, 9216, Note_off_c, 1, 62, 64
3, 9216, Note_off_c, 1, 57, 64
3, 9216, Note_off_c, 1, 52, 64
3, 9216, Note_on_c, 1, 60, 64
3, 9216, Note_on_c, 1, 55, 64
3, 9216, Note_on_c, 1, 50, 64
3, 9600, Note_off_c, 1, 60, 64
3, 9600, Note_off_c, 1, 55, 64
3, 9600, Note_off_c, 1, 50, 64
3, 9600, Note_on_c, 1, 62, 64
3, 9600, Note_on_c, 1, 57, 64
3, 9600, Note_on_c, 1, 52, 64
3, 9984, Note_off_c, 1, 62, 64
3, 9984, Note_off_c, 1, 57, 64
3, 9984, Note_off_c, 1, 52, 64
3, 9984, Control_c, 1, 64, 127
3, 9984, Note_on_c, 1, 64, 64
3, 9984, Note_on_c, 1, 59, 64
3, 9984, Note_on_c, 1, 57, 64
3, 9984, Note_on_c, 1, 41, 64
3, 10328, Control_c, 1, 64, 127
3, 10752, Note_off_c, 1, 64, 64
3, 10752, Note_off_c, 1, 59, 64
3, 10752, Note_off_c, 1, 57, 64
3, 10752, Note_off_c, 1, 41, 64
3, 10752, Control_c, 1, 64, 127
3, 10752, Note_on_c, 1, 43, 64
3, 10848, Note_off_c, 1, 43, 64
3, 10848, Note_on_c, 1, 53, 64
3, 10944, Note_off_c, 1, 53, 64
3, 10944, Note_on_c, 1, 55, 64
3, 11040, Note_off_c, 1, 55, 64
3, 11040, Note_on_c, 1, 62, 64
3, 11520, Note_off_c, 1, 62, 64
3, 11520, Control_c, 1, 64, 127
3, 11520, Note_on_c, 1, 62, 64
3, 11520, Note_on_c, 1, 57, 64
3, 11520, Note_on_c, 1, 52, 64
3, 11520, Note_on_c, 1, 36, 64
3, 12156, Control_c, 1, 64, 0
3, 12288, Note_off_c, 1, 62, 64
3, 12288, Note_off_c, 1, 57, 64
3, 12288, Note_off_c, 1, 52, 64
3, 12288, Note_off_c, 1, 36, 64
3, 12288, Control_c, 1, 64, 127
3, 12288, Note_on_c, 1, 48, 64
3, 12384, Note_off_c, 1, 48, 64
3, 12384, Note_on_c, 1, 57, 64
3, 12480, Note_off_c, 1, 57, 64
3, 12480, Note_on_c, 1, 62, 64
3, 12576, Note_off_c, 1, 62, 64
3, 12576, Note_on_c, 1, 67, 64
3, 12674, Control_c, 1, 64, 0
3, 13050, Control_c, 1, 64, 0
3, 13056, Note_off_c, 1, 67, 64
3, 13056, Control_c, 1, 64, 127
3, 13056, Note_on_c, 1, 50, 64
3, 13056, Note_on_c, 1, 57, 64
3, 13144, Control_c, 1, 64, 127
3, 13824, Note_off_c, 1, 50, 64
3, 13824, Note_off_c, 1, 57, 64
3, 13824, Control_c, 1, 64, 127
3, 13824, Note_on_c, 1, 52, 64
3, 14102, Control_c, 1, 64, 0
3, 14592, Note_off_c, 1, 52, 64
3, 14592, Control_c, 1, 64, 127
3, 14592, Note_on_c, 1, 63, 64
3, 14592, Note_on_c, 1, 60, 64
3, 14592, Note_on_c, 1, 53, 64
3, 14950, Control_c, 1, 64, 0
3, 15360, Note_off_c, 1, 63, 64
3, 15360, Note_off_c, 1, 60, 64
3, 15360, Note_off_c, 1, 53, 64
3, 15360, Control_c, 1, 64, 127
3, 15360, Note_on_c, 1, 65, 64
3, 15360, Note_on_c, 1, 62, 64
3, 15360, Note_on_c, 1, 60, 64
3, 15360, Note_on_c, 1, 55, 64
3, 15712, Control_c, 1, 64, 127
3, 15744, Note_off_c, 1, 65, 64
3, 15744, Note_off_c, 1, 62, 64
3, 15744, Note_off_c, 1, 60, 64
3, 15744, Note_off_c, 1, 55, 64
3, 15744, Note_on_c, 1, 59, 64
3, 15744, Note_on_c, 1, 52, 64
3, 16086, Control_c, 1, 64, 127
3, 16128, Note_off_c, 1, 59, 64
3, 16128, Note_off_c, 1, 52, 64
3, 16128, Note_on_c, 1, 41, 64
3, 16224, Note_off_c, 1, 41, 64
3, 16224, Note_on_c, 1, 48, 64
3, 16320, Note_off_c, 1, 48, 64
3, 16320, Note_on_c, 1, 50, 64
3, 16400, Control_c, 1, 64, 0
3, 16416, Note_off_c, 1, 50, 64
3, 16416, Note_on_c, 1, 57, 64
3, 16474, Control_c, 1, 64, 127
3, 16512, Note_off_c, 1, 57, 64
3, 16512, Note_on_c, 1, 40, 64
3, 16608, Note_off_c, 1, 40, 64
3, 16608, Note_on_c, 1, 50, 64
3, 16704, Note_off_c, 1, 50, 64
3, 16704, Note_on_c, 1, 52, 64
3, 16782, Control_c, 1, 64, 0
3, 16800, Note_off_c, 1, 52, 64
3, 16800, Note_on_c, 1, 56, 64
3, 16896, Note_off_c, 1, 56, 64
3, 16896, Control_c, 1, 64, 0
3, 16896, Note_on_c, 1, 45, 64
3, 16992, Note_off_c, 1, 45, 64
3, 16992, Note_on_c, 1, 52, 64
3, 17088, Note_off_c, 1, 52, 64
3, 17088, Note_on_c, 1, 57, 64
3, 17184, Note_off_c, 1, 57, 64
3, 17184, Note_on_c, 1, 60, 64
3, 17276, Control_c, 1, 64, 127
3, 17280, Note_off_c, 1, 60, 64
3, 17280, Note_on_c, 1, 43, 64
3, 17468, Control_c, 1, 64, 0
3, 17472, Note_off_c, 1, 43, 64
3, 17472, Note_on_c, 1, 55, 64
3, 17472, Note_on_c, 1, 48, 64
3, 17664, Note_off_c, 1, 55, 64
3, 17664, Note_off_c, 1, 48, 64
3, 17664, Control_c, 1, 64, 0
3, 17664, Note_on_c, 1, 41, 64
3, 17744, Control_c, 1, 64, 127
3, 17760, Note_off_c, 1, 41, 64
3, 17760, Note_on_c, 1, 48, 64
3, 17856, Note_off_c, 1, 48, 64
3, 17856, Note_on_c, 1, 53, 64
3, 17952, Note_off_c, 1, 53, 64
3, 17952, Note_on_c, 1, 57, 64
3, 18048, Note_off_c, 1, 57, 64
3, 18048, Note_on_c, 1, 40, 64
3, 18144, Note_off_c, 1, 40, 64
3, 18144, Note_on_c, 1, 47, 64
3, 18240, Note_off_c, 1, 47, 64
3, 18240, Note_on_c, 1, 52, 64
3, 18306, Control_c, 1, 64, 0
3, 18336, Note_off_c, 1, 52, 64
3, 18336, Note_on_c, 1, 56, 64
3, 18424, Control_c, 1, 64, 127
3, 18432, Note_off_c, 1, 56, 64
3, 18432, Note_on_c, 1, 45, 64
3, 18528, Note_off_c, 1, 45, 64
3, 18528, Note_on_c, 1, 52, 64
3, 18624, Note_off_c, 1, 52, 64
3, 18624, Note_on_c, 1, 57, 64
3, 18720, Note_off_c, 1, 57, 64
3, 18720, Note_on_c, 1, 60, 64
3, 18816, Note_off_c, 1, 60, 64
3, 18816, Note_on_c, 1, 64, 64
3, 18912, Note_off_c, 1, 64, 64
3, 18912, Note_on_c, 1, 60, 64
3, 19008, Note_off_c, 1, 60, 64
3, 19008, Note_on_c, 1, 65, 64
3, 19094, Control_c, 1, 64, 0
3, 19104, Note_off_c, 1, 65, 64
3, 19104, Note_on_c, 1, 60, 64
3, 19176, Control_c, 1, 64, 127
3, 19200, Note_off_c, 1, 60, 64
3, 19200, Note_on_c, 1, 38, 64
3, 19296, Note_off_c, 1, 38, 64
3, 19296, Note_on_c, 1, 45, 64
3, 19392, Note_off_c, 1, 45, 64
3, 19392, Note_on_c, 1, 50, 64
3, 19488, Note_off_c, 1, 50, 64
3, 19488, Note_on_c, 1, 54, 64
3, 19584, Note_off_c, 1, 54, 64
3, 19584, Note_on_c, 1, 57, 64
3, 19680, Note_off_c, 1, 57, 64
3, 19680, Note_on_c, 1, 54, 64
3, 19776, Note_off_c, 1, 54, 64
3, 19776, Note_on_c, 1, 60, 64
3, 19868, Control_c, 1, 64, 0
3, 19872, Note_off_c, 1, 60, 64
3, 19872, Note_on_c, 1, 57, 64
3, 19968, Note_off_c, 1, 57, 64
3, 19968, Note_on_c, 1, 53, 64
3, 19968, Note_on_c, 1, 43, 64
3, 20736, Note_off_c, 1, 53, 64
3, 20736, Note_off_c, 1, 43, 64
3, 20736, Note_on_c, 1, 60, 64
3, 20736, Note_on_c, 1, 57, 64
3, 20736, Note_on_c, 1, 50, 64
3, 21504, Note_off_c, 1, 60, 64
3, 21504, Note_off_c, 1, 57, 64
3, 21504, Note_off_c, 1, 50, 64
3, 21504, Control_c, 1, 64, 127
3, 21504, Note_on_c, 1, 43, 64
3, 21600, Note_off_c, 1, 43, 64
3, 21600, Note_on_c, 1, 47, 64
3, 21696, Note_off_c, 1, 47, 64
3, 21696, Note_on_c, 1, 53, 64
3, 21792, Note_off_c, 1, 53, 64
3, 21792, Note_on_c, 1, 57, 64
3, 21876, Control_c, 1, 64, 0
3, 21888, Note_off_c, 1, 57, 64
3, 21888, Note_on_c, 1, 62, 64
3, 22272, Note_off_c, 1, 62, 64
3, 22272, Control_c, 1, 64, 127
3, 22272, Note_on_c, 1, 57, 64
3, 22368, Note_off_c, 1, 57, 64
3, 22368, Note_on_c, 1, 64, 64
3, 22464, Note_off_c, 1, 64, 64
3, 22464, Note_on_c, 1, 72, 64
3, 22548, Control_c, 1, 64, 0
3, 22560, Note_off_c, 1, 72, 64
3, 22560, Note_on_c, 1, 64, 64
3, 22626, Control_c, 1, 64, 127
3, 22656, Note_off_c, 1, 64, 64
3, 22656, Note_on_c, 1, 55, 64
3, 22752, Note_off_c, 1, 55, 64
3, 22752, Note_on_c, 1, 64, 64
3, 22848, Note_off_c, 1, 64, 64
3, 22848, Note_on_c, 1, 71, 64
3, 22932, Control_c, 1, 64, 0
3, 22944, Note_off_c, 1, 71, 64
3, 22944, Note_on_c, 1, 64, 64
3, 23040, Note_off_c, 1, 64, 64
3, 23040, Control_c, 1, 64, 127
3, 23040, Note_on_c, 1, 53, 64
3, 23128, Control_c, 1, 64, 127
3, 23136, Note_off_c, 1, 53, 64
3, 23136, Note_on_c, 1, 60, 64
3, 23232, Note_off_c, 1, 60, 64
3, 23232, Note_on_c, 1, 69, 64
3, 23320, Control_c, 1, 64, 0
3, 23328, Note_off_c, 1, 69, 64
3, 23328, Note_on_c, 1, 60, 64
3, 23392, Control_c, 1, 64, 127
3, 23424, Note_off_c, 1, 60, 64
3, 23424, Note_on_c, 1, 52, 64
3, 23520, Note_off_c, 1, 52, 64
3, 23520, Note_on_c, 1, 60, 64
3, 23606, Control_c, 1, 64, 0
3, 23616, Note_off_c, 1, 60, 64
3, 23616, Note_on_c, 1, 67, 64
3, 23808, Note_off_c, 1, 67, 64
3, 23808, Note_on_c, 1, 60, 64
3, 23808, Note_on_c, 1, 55, 64
3, 23808, Note_on_c, 1, 51, 64
3, 24192, Note_off_c, 1, 60, 64
3, 24192, Note_off_c, 1, 55, 64
3, 24192, Note_off_c, 1, 51, 64
3, 24192, Note_on_c, 1, 60, 64
3, 24192, Note_on_c, 1, 53, 64
3, 24192, Note_on_c, 1, 50, 64
3, 24576, Note_off_c, 1, 60, 64
3, 24576, Note_off_c, 1, 53, 64
3, 24576, Note_off_c, 1, 50, 64
3, 24576, Note_on_c, 1, 49, 64
3, 24960, Note_off_c, 1, 49, 64
3, 24960, Note_on_c, 1, 53, 64
3, 24960, Note_on_c, 1, 43, 64
3, 25344, Note_off_c, 1, 53, 64
3, 25344, Note_off_c, 1, 43, 64
3, 25344, Note_on_c, 1, 45, 64
3, 25350, Control_c, 1, 64, 127
3, 25440, Note_off_c, 1, 45, 64
3, 25440, Note_on_c, 1, 52, 64
3, 25536, Note_off_c, 1, 52, 64
3, 25536, Note_on_c, 1, 60, 64
3, 25624, Control_c, 1, 64, 0
3, 25632, Note_off_c, 1, 60, 64
3, 25632, Note_on_c, 1, 52, 64
3, 25710, Control_c, 1, 64, 127
3, 25728, Note_off_c, 1, 52, 64
3, 25728, Note_on_c, 1, 43, 64
3, 25824, Note_off_c, 1, 43, 64
3, 25824, Note_on_c, 1, 52, 64
3, 25920, Note_off_c, 1, 52, 64
3, 25920, Note_on_c, 1, 57, 64
3, 26016, Note_off_c, 1, 57, 64
3, 26016, Note_on_c, 1, 52, 64
3, 26022, Control_c, 1, 64, 0
3, 26104, Control_c, 1, 64, 127
3, 26112, Note_off_c, 1, 52, 64
3, 26112, Note_on_c, 1, 41, 64
3, 26208, Note_off_c, 1, 41, 64
3, 26208, Note_on_c, 1, 48, 64
3, 26304, Note_off_c, 1, 48, 64
3, 26304, Note_on_c, 1, 57, 64
3, 26392, Control_c, 1, 64, 0
3, 26400, Note_off_c, 1, 57, 64
3, 26400, Note_on_c, 1, 48, 64
3, 26464, Control_c, 1, 64, 127
3, 26496, Note_off_c, 1, 48, 64
3, 26496, Note_on_c, 1, 40, 64
3, 26592, Note_off_c, 1, 40, 64
3, 26592, Note_on_c, 1, 48, 64
3, 26688, Note_off_c, 1, 48, 64
3, 26688, Note_on_c, 1, 55, 64
3, 26760, Control_c, 1, 64, 0
3, 26784, Note_off_c, 1, 55, 64
3, 26784, Note_on_c, 1, 48, 64
3, 26862, Control_c, 1, 64, 127
3, 26880, Note_off_c, 1, 48, 64
3, 26880, Note_on_c, 1, 51, 64
3, 26976, Note_off_c, 1, 51, 64
3, 26976, Note_on_c, 1, 55, 64
3, 27072, Note_off_c, 1, 55, 64
3, 27072, Note_on_c, 1, 60, 64
3, 27134, Control_c, 1, 64, 0
3, 27168, Note_off_c, 1, 60, 64
3, 27168, Note_on_c, 1, 55, 64
3, 27216, Control_c, 1, 64, 127
3, 27264, Note_off_c, 1, 55, 64
3, 27264, Note_on_c, 1, 50, 64
3, 27360, Note_off_c, 1, 50, 64
3, 27360, Note_on_c, 1, 53, 64
3, 27456, Note_off_c, 1, 53, 64
3, 27456, Note_on_c, 1, 60, 64
3, 27544, Control_c, 1, 64, 0
3, 27552, Note_off_c, 1, 60, 64
3, 27552, Note_on_c, 1, 53, 64
3, 27620, Control_c, 1, 64, 127
3, 27648, Note_off_c, 1, 53, 64
3, 27648, Note_on_c, 1, 49, 64
3, 27744, Note_off_c, 1, 49, 64
3, 27744, Note_on_c, 1, 53, 64
3, 27840, Note_off_c, 1, 53, 64
3, 27840, Note_on_c, 1, 58, 64
3, 27928, Control_c, 1, 64, 0
3, 27936, Note_off_c, 1, 58, 64
3, 27936, Note_on_c, 1, 53, 64
3, 28018, Control_c, 1, 64, 127
3, 28032, Note_off_c, 1, 53, 64
3, 28032, Note_on_c, 1, 48, 64
3, 28128, Note_off_c, 1, 48, 64
3, 28128, Note_on_c, 1, 52, 64
3, 28224, Note_off_c, 1, 52, 64
3, 28224, Note_on_c, 1, 58, 64
3, 28316, Control_c, 1, 64, 0
3, 28320, Note_off_c, 1, 58, 64
3, 28320, Note_on_c, 1, 52, 64
3, 28398, Control_c, 1, 64, 127
3, 28416, Note_off_c, 1, 52, 64
3, 28416, Note_on_c, 1, 41, 64
3, 28512, Note_off_c, 1, 41, 64
3, 28512, Note_on_c, 1, 48, 64
3, 28608, Note_off_c, 1, 48, 64
3, 28608, Note_on_c, 1, 56, 64
3, 28696, Control_c, 1, 64, 0
3, 28704, Note_off_c, 1, 56, 64
3, 28704, Note_on_c, 1, 48, 64
3, 28792, Control_c, 1, 64, 127
3, 28800, Note_off_c, 1, 48, 64
3, 28800, Note_on_c, 1, 39, 64
3, 28896, Note_off_c, 1, 39, 64
3, 28896, Note_on_c, 1, 48, 64
3, 28992, Note_off_c, 1, 48, 64
3, 28992, Note_on_c, 1, 56, 64
3, 29080, Control_c, 1, 64, 0
3, 29088, Note_off_c, 1, 56, 64
3, 29088, Note_on_c, 1, 48, 64
3, 29180, Control_c, 1, 64, 127
3, 29184, Note_off_c, 1, 48, 64
3, 29184, Note_on_c, 1, 38, 64
3, 29280, Note_off_c, 1, 38, 64
3, 29280, Note_on_c, 1, 50, 64
3, 29376, Note_off_c, 1, 50, 64
3, 29376, Note_on_c, 1, 53, 64
3, 29468, Control_c, 1, 64, 0
3, 29472, Note_off_c, 1, 53, 64
3, 29472, Note_on_c, 1, 56, 64
3, 29536, Control_c, 1, 64, 127
3, 29568, Note_off_c, 1, 56, 64
3, 29568, Note_on_c, 1, 60, 64
3, 29664, Note_off_c, 1, 60, 64
3, 29664, Note_on_c, 1, 56, 64
3, 29760, Note_off_c, 1, 56, 64
3, 29760, Note_on_c, 1, 53, 64
3, 29834, Control_c, 1, 64, 0
3, 29856, Note_off_c, 1, 53, 64
3, 29856, Note_on_c, 1, 56, 64
3, 29944, Control_c, 1, 64, 127
3, 29952, Note_off_c, 1, 56, 64
3, 29952, Note_on_c, 1, 43, 64
3, 30048, Note_off_c, 1, 43, 64
3, 30048, Note_on_c, 1, 50, 64
3, 30144, Note_off_c, 1, 50, 64
3, 30144, Note_on_c, 1, 55, 64
3, 30240, Note_off_c, 1, 55, 64
3, 30240, Note_on_c, 1, 59, 64
3, 30312, Control_c, 1, 64, 0
3, 30336, Note_off_c, 1, 59, 64
3, 30336, Note_on_c, 1, 62, 64
3, 30720, Note_off_c, 1, 62, 64
3, 30720, Note_on_c, 1, 64, 64
3, 30720, Note_on_c, 1, 59, 64
3, 30720, Note_on_c, 1, 57, 64
3, 30720, Note_on_c, 1, 53, 64
3, 31488, Note_off_c, 1, 64, 64
3, 31488, Note_off_c, 1, 59, 64
3, 31488, Note_off_c, 1, 57, 64
3, 31488, Note_off_c, 1, 53, 64
3, 31488, Note_on_c, 1, 65, 64
3, 31504, Note_on_c, 1, 69, 64
3, 31518, Note_on_c, 1, 71, 64
3, 32256, Note_off_c, 1, 65, 64
3, 32272, Note_off_c, 1, 69, 64
3, 32286, Note_off_c, 1, 71, 64
3, 32608, Control_c, 1, 64, 127
3, 32640, Note_on_c, 1, 64, 64
3, 32688, Note_off_c, 1, 64, 64
3, 32688, Note_on_c, 1, 67, 64
3, 32736, Note_off_c, 1, 67, 64
3, 32736, Note_on_c, 1, 69, 64
3, 32784, Note_off_c, 1, 69, 64
3, 32784, Note_on_c, 1, 74, 64
3, 32832, Note_off_c, 1, 74, 64
3, 32832, Note_on_c, 1, 64, 64
3, 32880, Note_off_c, 1, 64, 64
3, 32880, Note_on_c, 1, 67, 64
3, 32928, Note_off_c, 1, 67, 64
3, 32928, Note_on_c, 1, 69, 64
3, 32960, Control_c, 1, 64, 0
3, 32976, Note_off_c, 1, 69, 64
3, 32976, Note_on_c, 1, 74, 64
3, 33024, Note_off_c, 1, 74, 64
3, 33024, Control_c, 1, 64, 127
3, 33024, Note_on_c, 1, 64, 64
3, 33072, Note_off_c, 1, 64, 64
3, 33072, Note_on_c, 1, 67, 64
3, 33120, Note_off_c, 1, 67, 64
3, 33120, Note_on_c, 1, 69, 64
3, 33168, Note_off_c, 1, 69, 64
3, 33168, Note_on_c, 1, 74, 64
3, 33216, Note_off_c, 1, 74, 64
3, 33216, Note_on_c, 1, 64, 64
3, 33264, Note_off_c, 1, 64, 64
3, 33264, Note_on_c, 1, 67, 64
3, 33312, Note_off_c, 1, 67, 64
3, 33312, Note_on_c, 1, 69, 64
3, 33352, Control_c, 1, 64, 0
3, 33360, Note_off_c, 1, 69, 64
3, 33360, Note_on_c, 1, 74, 64
3, 33408, Note_off_c, 1, 74, 64
3, 33408, Control_c, 1, 64, 127
3, 33408, Note_on_c, 1, 66, 64
3, 33456, Note_off_c, 1, 66, 64
3, 33456, Note_on_c, 1, 69, 64
3, 33504, Note_off_c, 1, 69, 64
3, 33504, Note_on_c, 1, 71, 64
3, 33552, Note_off_c, 1, 71, 64
3, 33552, Note_on_c, 1, 76, 64
3, 33600, Note_off_c, 1, 76, 64
3, 33600, Note_on_c, 1, 66, 64
3, 33648, Note_off_c, 1, 66, 64
3, 33648, Note_on_c, 1, 69, 64
3, 33696, Note_off_c, 1, 69, 64
3, 33696, Note_on_c, 1, 71, 64
3, 33744, Note_off_c, 1, 71, 64
3, 33744, Note_on_c, 1, 76, 64
3, 33792, Note_off_c, 1, 76, 64
3, 33792, Note_on_c, 1, 66, 64
3, 33840, Note_off_c, 1, 66, 64
3, 33840, Note_on_c, 1, 69, 64
3, 33888, Note_off_c, 1, 69, 64
3, 33888, Note_on_c, 1, 71, 64
3, 33936, Note_off_c, 1, 71, 64
3, 33936, Note_on_c, 1, 76, 64
3, 33984, Note_off_c, 1, 76, 64
3, 33984, Note_on_c, 1, 66, 64
3, 34032, Note_off_c, 1, 66, 64
3, 34032, Note_on_c, 1, 69, 64
3, 34080, Note_off_c, 1, 69, 64
3, 34080, Note_on_c, 1, 71, 64
3, 34118, Control_c, 1, 64, 0
3, 34128, Note_off_c, 1, 71, 64
3, 34128, Note_on_c, 1, 76, 64
3, 34150, Control_c, 1, 64, 127
3, 34176, Note_off_c, 1, 76, 64
3, 34176, Note_on_c, 1, 66, 64
3, 34224, Note_off_c, 1, 66, 64
3, 34224, Note_on_c, 1, 69, 64
3, 34272, Note_off_c, 1, 69, 64
3, 34272, Note_on_c, 1, 71, 64
3, 34320, Note_off_c, 1, 71, 64
3, 34320, Note_on_c, 1, 76, 64
3, 34368, Note_off_c, 1, 76, 64
3, 34368, Note_on_c, 1, 62, 64
3, 34416, Note_off_c, 1, 62, 64
3, 34416, Note_on_c, 1, 65, 64
3, 34464, Note_off_c, 1, 65, 64
3, 34464, Note_on_c, 1, 67, 64
3, 34512, Note_off_c, 1, 67, 64
3, 34512, Note_on_c, 1, 72, 64
3, 34560, Note_off_c, 1, 72, 64
3, 34560, Note_on_c, 1, 62, 64
3, 34608, Note_off_c, 1, 62, 64
3, 34608, Note_on_c, 1, 65, 64
3, 34656, Note_off_c, 1, 65, 64
3, 34656, Note_on_c, 1, 67, 64
3, 34704, Note_off_c, 1, 67, 64
3, 34704, Note_on_c, 1, 72, 64
3, 34752, Note_off_c, 1, 72, 64
3, 34752, Note_on_c, 1, 62, 64
3, 34800, Note_off_c, 1, 62, 64
3, 34800, Note_on_c, 1, 65, 64
3, 34848, Note_off_c, 1, 65, 64
3, 34848, Note_on_c, 1, 67, 64
3, 34878, Control_c, 1, 64, 0
3, 34896, Note_off_c, 1, 67, 64
3, 34896, Note_on_c, 1, 72, 64
3, 34924, Control_c, 1, 64, 127
3, 34940, Note_on_c, 1, 64, 64
3, 34944, Note_off_c, 1, 72, 64
3, 34984, Note_on_c, 1, 67, 64
3, 34988, Note_off_c, 1, 64, 64
3, 35032, Note_off_c, 1, 67, 64
3, 35032, Note_on_c, 1, 69, 64
3, 35080, Note_off_c, 1, 69, 64
3, 35080, Note_on_c, 1, 74, 64
3, 35126, Note_on_c, 1, 64, 64
3, 35128, Note_off_c, 1, 74, 64
3, 35172, Note_on_c, 1, 67, 64
3, 35174, Note_off_c, 1, 64, 64
3, 35216, Note_on_c, 1, 69, 64
3, 35220, Note_off_c, 1, 67, 64
3, 35264, Note_off_c, 1, 69, 64
3, 35264, Note_on_c, 1, 74, 64
3, 35312, Note_off_c, 1, 74, 64
3, 35312, Note_on_c, 1, 64, 64
3, 35360, Note_off_c, 1, 64, 64
3, 35360, Note_on_c, 1, 67, 64
3, 35406, Note_on_c, 1, 69, 64
3, 35408, Note_off_c, 1, 67, 64
3, 35450, Note_on_c, 1, 74, 64
3, 35454, Note_off_c, 1, 69, 64
3, 35496, Note_on_c, 1, 64, 64
3, 35498, Note_off_c, 1, 74, 64
3, 35544, Note_off_c, 1, 64, 64
3, 35544, Note_on_c, 1, 67, 64
3, 35592, Note_off_c, 1, 67, 64
3, 35592, Note_on_c, 1, 69, 64
3, 35632, Control_c, 1, 64, 0
3, 35640, Note_off_c, 1, 69, 64
3, 35640, Note_on_c, 1, 74, 64
3, 35688, Note_off_c, 1, 74, 64
3, 35688, Control_c, 1, 64, 127
3, 35688, Note_on_c, 1, 53, 64
3, 35688, Note_on_c, 1, 41, 64
3, 36448, Control_c, 1, 64, 127
3, 36456, Note_off_c, 1, 53, 64
3, 36456, Note_off_c, 1, 41, 64
3, 36456, Note_on_c, 1, 52, 64
3, 36456, Note_on_c, 1, 40, 64
3, 37210, Control_c, 1, 64, 127
3, 37224, Note_off_c, 1, 52, 64
3, 37224, Note_off_c, 1, 40, 64
3, 37224, Note_on_c, 1, 39, 64
3, 37416, Note_off_c, 1, 39, 64
3, 37416, Note_on_c, 1, 56, 64
3, 37416, Note_on_c, 1, 51, 64
3, 37416, Note_on_c, 1, 39, 64
3, 37796, Control_c, 1, 64, 0
3, 37800, Note_off_c, 1, 56, 64
3, 37800, Note_off_c, 1, 51, 64
3, 37800, Note_off_c, 1, 39, 64
3, 37800, Note_on_c, 1, 56, 64
3, 37800, Note_on_c, 1, 51, 64
3, 37800, Note_on_c, 1, 39, 64
3, 37992, Note_off_c, 1, 56, 64
3, 37992, Note_off_c, 1, 51, 64
3, 37992, Note_off_c, 1, 39, 64
3, 37992, Note_on_c, 1, 45, 64
3, 37992, Note_on_c, 1, 33, 64
3, 38760, Note_off_c, 1, 45, 64
3, 38760, Note_off_c, 1, 33, 64
3, 38784, Note_on_c, 1, 53, 64
3, 38800, Note_on_c, 1, 57, 64
3, 38814, Note_on_c, 1, 59, 64
3, 38830, Note_on_c, 1, 64, 64
3, 39552, Note_off_c, 1, 53, 64
3, 39552, Note_on_c, 1, 52, 64
3, 39568, Note_off_c, 1, 57, 64
3, 39568, Note_on_c, 1, 55, 64
3, 39582, Note_off_c, 1, 59, 64
3, 39582, Note_on_c, 1, 60, 64
3, 39598, Note_off_c, 1, 64, 64
3, 39598, Note_on_c, 1, 62, 64
3, 40312, Control_c, 1, 64, 127
3, 40320, Note_off_c, 1, 52, 64
3, 40320, Note_on_c, 1, 50, 64
3, 40336, Note_off_c, 1, 55, 64
3, 40350, Note_off_c, 1, 60, 64
3, 40366, Note_off_c, 1, 62, 64
3, 40416, Note_off_c, 1, 50, 64
3, 40416, Note_on_c, 1, 57, 64
3, 40512, Note_off_c, 1, 57, 64
3, 40512, Note_on_c, 1, 64, 64
3, 40608, Note_off_c, 1, 64, 64
3, 40608, Note_on_c, 1, 65, 64
3, 41022, Control_c, 1, 64, 0
3, 41080, Control_c, 1, 64, 127
3, 41088, Note_off_c, 1, 65, 64
3, 41088, Note_on_c, 1, 47, 64
3, 41184, Note_off_c, 1, 47, 64
3, 41184, Note_on_c, 1, 54, 64
3, 41280, Note_off_c, 1, 54, 64
3, 41280, Note_on_c, 1, 57, 64
3, 41376, Note_off_c, 1, 57, 64
3, 41376, Note_on_c, 1, 59, 64
3, 41458, Control_c, 1, 64, 0
3, 41472, Note_off_c, 1, 59, 64
3, 41472, Note_on_c, 1, 52, 64
3, 41854, Control_c, 1, 64, 127
3, 41856, Note_off_c, 1, 52, 64
3, 41856, Note_on_c, 1, 57, 64
3, 41952, Note_off_c, 1, 57, 64
3, 41952, Note_on_c, 1, 64, 64
3, 42048, Note_off_c, 1, 64, 64
3, 42048, Note_on_c, 1, 69, 64
3, 42114, Control_c, 1, 64, 0
3, 42144, Note_off_c, 1, 69, 64
3, 42144, Note_on_c, 1, 64, 64
3, 42202, Control_c, 1, 64, 127
3, 42240, Note_off_c, 1, 64, 64
3, 42240, Note_on_c, 1, 55, 64
3, 42336, Note_off_c, 1, 55, 64
3, 42336, Note_on_c, 1, 64, 64
3, 42432, Note_off_c, 1, 64, 64
3, 42432, Note_on_c, 1, 67, 64
3, 42524, Control_c, 1, 64, 0
3, 42528, Note_off_c, 1, 67, 64
3, 42528, Note_on_c, 1, 64, 64
3, 42624, Note_off_c, 1, 64, 64
3, 42624, Note_on_c, 1, 53, 64
3, 42634, Control_c, 1, 64, 127
3, 42720, Note_off_c, 1, 53, 64
3, 42720, Note_on_c, 1, 60, 64
3, 42816, Note_off_c, 1, 60, 64
3, 42816, Note_on_c, 1, 65, 64
3, 42876, Control_c, 1, 64, 0
3, 42912, Note_off_c, 1, 65, 64
3, 42912, Note_on_c, 1, 60, 64
3, 42970, Control_c, 1, 64, 127
3, 43008, Note_off_c, 1, 60, 64
3, 43008, Note_on_c, 1, 52, 64
3, 43104, Note_off_c, 1, 52, 64
3, 43104, Note_on_c, 1, 60, 64
3, 43194, Control_c, 1, 64, 0
3, 43200, Note_off_c, 1, 60, 64
3, 43200, Note_on_c, 1, 64, 64
3, 43392, Note_off_c, 1, 64, 64
3, 43392, Note_on_c, 1, 60, 64
3, 43392, Note_on_c, 1, 58, 64
3, 43392, Note_on_c, 1, 55, 64
3, 43392, Note_on_c, 1, 51, 64
3, 43776, Note_off_c, 1, 60, 64
3, 43776, Note_off_c, 1, 58, 64
3, 43776, Note_off_c, 1, 55, 64
3, 43776, Note_off_c, 1, 51, 64
3, 43776, Note_on_c, 1, 60, 64
3, 43776, Note_on_c, 1, 53, 64
3, 43776, Note_on_c, 1, 50, 64
3, 44160, Note_off_c, 1, 60, 64
3, 44160, Note_off_c, 1, 53, 64
3, 44160, Note_off_c, 1, 50, 64
3, 44160, Note_on_c, 1, 49, 64
3, 44544, Note_off_c, 1, 49, 64
3, 44544, Note_on_c, 1, 53, 64
3, 44544, Note_on_c, 1, 43, 64
3, 44910, Control_c, 1, 64, 127
3, 44928, Note_off_c, 1, 53, 64
3, 44928, Note_off_c, 1, 43, 64
3, 44928, Note_on_c, 1, 45, 64
3, 45024, Note_off_c, 1, 45, 64
3, 45024, Note_on_c, 1, 52, 64
3, 45120, Note_off_c, 1, 52, 64
3, 45120, Note_on_c, 1, 60, 64
3, 45212, Control_c, 1, 64, 0
3, 45216, Note_off_c, 1, 60, 64
3, 45216, Note_on_c, 1, 52, 64
3, 45304, Control_c, 1, 64, 127
3, 45312, Note_off_c, 1, 52, 64
3, 45312, Note_on_c, 1, 43, 64
3, 45408, Note_off_c, 1, 43, 64
3, 45408, Note_on_c, 1, 52, 64
3, 45504, Note_off_c, 1, 52, 64
3, 45504, Note_on_c, 1, 57, 64
3, 45582, Control_c, 1, 64, 0
3, 45600, Note_off_c, 1, 57, 64
3, 45600, Note_on_c, 1, 52, 64
3, 45682, Control_c, 1, 64, 127
3, 45696, Note_off_c, 1, 52, 64
3, 45696, Note_on_c, 1, 41, 64
3, 45792, Note_off_c, 1, 41, 64
3, 45792, Note_on_c, 1, 48, 64
3, 45888, Note_off_c, 1, 48, 64
3, 45888, Note_on_c, 1, 57, 64
3, 45956, Control_c, 1, 64, 0
3, 45984, Note_off_c, 1, 57, 64
3, 45984, Note_on_c, 1, 48, 64
3, 46062, Control_c, 1, 64, 127
3, 46080, Note_off_c, 1, 48, 64
3, 46080, Note_on_c, 1, 40, 64
3, 46176, Note_off_c, 1, 40, 64
3, 46176, Note_on_c, 1, 48, 64
3, 46272, Note_off_c, 1, 48, 64
3, 46272, Note_on_c, 1, 55, 64
3, 46350, Control_c, 1, 64, 0
3, 46368, Note_off_c, 1, 55, 64
3, 46368, Note_on_c, 1, 48, 64
3, 46446, Control_c, 1, 64, 127
3, 46464, Note_off_c, 1, 48, 64
3, 46464, Note_on_c, 1, 51, 64
3, 46560, Note_off_c, 1, 51, 64
3, 46560, Note_on_c, 1, 55, 64
3, 46656, Note_off_c, 1, 55, 64
3, 46656, Note_on_c, 1, 60, 64
3, 46724, Control_c, 1, 64, 0
3, 46752, Note_off_c, 1, 60, 64
3, 46752, Note_on_c, 1, 55, 64
3, 46824, Control_c, 1, 64, 127
3, 46848, Note_off_c, 1, 55, 64
3, 46848, Note_on_c, 1, 50, 64
3, 46944, Note_off_c, 1, 50, 64
3, 46944, Note_on_c, 1, 53, 64
3, 47040, Note_off_c, 1, 53, 64
3, 47040, Note_on_c, 1, 60, 64
3, 47104, Control_c, 1, 64, 0
3, 47136, Note_off_c, 1, 60, 64
3, 47136, Note_on_c, 1, 53, 64
3, 47204, Control_c, 1, 64, 127
3, 47232, Note_off_c, 1, 53, 64
3, 47232, Note_on_c, 1, 49, 64
3, 47328, Note_off_c, 1, 49, 64
3, 47328, Note_on_c, 1, 53, 64
3, 47424, Note_off_c, 1, 53, 64
3, 47424, Note_on_c, 1, 58, 64
3, 47506, Control_c, 1, 64, 0
3, 47520, Note_off_c, 1, 58, 64
3, 47520, Note_on_c, 1, 53, 64
3, 47612, Control_c, 1, 64, 127
3, 47616, Note_off_c, 1, 53, 64
3, 47616, Note_on_c, 1, 48, 64
3, 47712, Note_off_c, 1, 48, 64
3, 47712, Note_on_c, 1, 52, 64
3, 47808, Note_off_c, 1, 52, 64
3, 47808, Note_on_c, 1, 58, 64
3, 47876, Control_c, 1, 64, 0
3, 47904, Note_off_c, 1, 58, 64
3, 47904, Note_on_c, 1, 52, 64
3, 47976, Control_c, 1, 64, 127
3, 48000, Note_off_c, 1, 52, 64
3, 48000, Note_on_c, 1, 41, 64
3, 48096, Note_off_c, 1, 41, 64
3, 48096, Note_on_c, 1, 48, 64
3, 48192, Note_off_c, 1, 48, 64
3, 48192, Note_on_c, 1, 56, 64
3, 48288, Note_off_c, 1, 56, 64
3, 48288, Note_on_c, 1, 48, 64
3, 48384, Note_off_c, 1, 48, 64
3, 48384, Note_on_c, 1, 39, 64
3, 48480, Note_off_c, 1, 39, 64
3, 48480, Note_on_c, 1, 48, 64
3, 48576, Note_off_c, 1, 48, 64
3, 48576, Note_on_c, 1, 56, 64
3, 48644, Control_c, 1, 64, 0
3, 48672, Note_off_c, 1, 56, 64
3, 48672, Note_on_c, 1, 48, 64
3, 48754, Control_c, 1, 64, 127
3, 48768, Note_off_c, 1, 48, 64
3, 48768, Note_on_c, 1, 38, 64
3, 48864, Note_off_c, 1, 38, 64
3, 48864, Note_on_c, 1, 50, 64
3, 48960, Note_off_c, 1, 50, 64
3, 48960, Note_on_c, 1, 53, 64
3, 49056, Note_off_c, 1, 53, 64
3, 49056, Note_on_c, 1, 56, 64
3, 49152, Note_off_c, 1, 56, 64
3, 49152, Note_on_c, 1, 60, 64
3, 49248, Note_off_c, 1, 60, 64
3, 49248, Note_on_c, 1, 56, 64
3, 49344, Note_off_c, 1, 56, 64
3, 49344, Note_on_c, 1, 53, 64
3, 49422, Control_c, 1, 64, 0
3, 49440, Note_off_c, 1, 53, 64
3, 49440, Note_on_c, 1, 56, 64
3, 49512, Control_c, 1, 64, 127
3, 49536, Note_off_c, 1, 56, 64
3, 49536, Note_on_c, 1, 43, 64
3, 49632, Note_off_c, 1, 43, 64
3, 49632, Note_on_c, 1, 50, 64
3, 49728, Note_off_c, 1, 50, 64
3, 49728, Note_on_c, 1, 55, 64
3, 49824, Note_off_c, 1, 55, 64
3, 49824, Note_on_c, 1, 59, 64
3, 49908, Control_c, 1, 64, 0
3, 49920, Note_off_c, 1, 59, 64
3, 49920, Note_on_c, 1, 62, 64
3, 50272, Note_on_c, 1, 64, 64
3, 50272, Note_on_c, 1, 59, 64
3, 50272, Note_on_c, 1, 57, 64
3, 50272, Note_on_c, 1, 53, 64
3, 50278, Control_c, 1, 64, 127
3, 50304, Note_off_c, 1, 62, 64
3, 51040, Note_off_c, 1, 64, 64
3, 51040, Note_off_c, 1, 59, 64
3, 51040, Note_off_c, 1, 57, 64
3, 51040, Note_off_c, 1, 53, 64
3, 54786, Control_c, 1, 64, 0
3, 54786, Control_c, 1, 123, 0
3, 54786, Control_c, 1, 120, 0
3, 54786, End_track
0, 0, End_of_file
